<?xml version="1.0" encoding="utf-8"?>
<!-- Generator: Adobe Illustrator 21.1.0, SVG Export Plug-In . SVG Version: 6.00 Build 0)  -->
<svg version="1.1" id="Layer_1" xmlns="http://www.w3.org/2000/svg" xmlns:xlink="http://www.w3.org/1999/xlink" x="0px" y="0px"
	 viewBox="0 0 1825.9 1276.9" style="enable-background:new 0 0 1825.9 1276.9;" xml:space="preserve">
<style type="text/css">
	.st0{fill:none;stroke:#010101;stroke-width:2;stroke-miterlimit:10;}
</style>
<path class="st0" d="M1511.2,1083.6c-70.4,38.7-137.3,58.2-181.5,71.1l-7.4,2.2l-7.2,1.8c-179.2,45.5-276.6,52.9-370.8,60
	c-33.3,2.5-64.7,4.9-97.5,10.1l-8.4,1.3l-8.3,1c-26.7,3.2-54.5,4.7-82.8,4.9c-110.1,0.2-235-24.9-334-67.2
	c-74.9-31.7-140.5-74.1-194.8-125.5C132.7,961.9,78,863.8,56.1,751.6l-4.2-21.3l-2-21.7c-7.7-83.3,0.3-164.3,23.9-240.9
	c25.3-82.2,67.5-156.1,125.2-219.6c44.7-49.2,97.5-90.7,156.8-123.2c33.9-18.6,70.4-34.6,108.6-47.3
	c73.9-24.8,156.2-38.1,237.8-38.2c50.6-0.1,100.7,4.7,148.8,14.1l12.6,2.5l12.5,3.2c60.7,15.8,107.6,33.5,148.8,49.8
	c71.3-25.3,149.3-39.1,223-39.3c104.5-0.2,204.6,25.7,289.6,74.8c64.1,37.1,118.3,85.9,160.9,145.2c42.3,58.7,71.5,124.9,86.8,196.9
	l2.5,11.9l1.9,12.1c15.2,99,6.9,193.8-25.2,281.9c-33.8,93.2-90.8,172.4-169.6,235.3C1569.5,1048.4,1541.3,1067.1,1511.2,1083.6z"/>
<path class="st0" d="M736.8,1160.8c-100.9-1.5-214.7-26.3-304.5-66.5c-66.4-29.7-124.2-68.3-171.6-114.7
	c-73.5-71.9-119.5-157.9-136.9-255.4l-3.2-17.8l-1.4-18c-5.6-73.9,2.6-145.5,24.6-212.6c23.4-71.7,61.4-135.7,112.9-190.4
	c63.5-67.5,143.4-116.9,237.5-146.8c67.1-21.4,141.6-32,215.6-30.9c45.9,0.7,91.2,5.7,134.6,15.1l10.5,2.3l10.4,2.9
	c63.3,17.6,111.3,37.6,153.7,55.3c3.3,1.3,7.3,3.1,11.6,4.8c69.9-27.1,150-41.8,224.3-40.7c91.8,1.3,179,25.3,252.3,69.4
	c54.7,32.9,100.7,75.8,136.5,127.3c35.5,51,59.7,108.6,71.9,171l2,9.9l1.4,10.1c11.9,87.1,3.2,169.9-25.8,246
	c-30.5,80.1-81,147.8-150.2,201.1c-87.1,67.2-184.3,93.9-242.4,109.7l-6.2,1.7l-6.1,1.4c-173.8,41-268.2,46.7-359.4,52.1
	c-34.8,2.1-67.6,4-103.5,9l-7,1l-7,0.7C787.4,1160.2,762.4,1161.2,736.8,1160.8L736.8,1160.8z"/>
<path class="st0" d="M734.9,1088.1c-91.6-1.6-194.8-24.4-276-61c-58.6-26.4-109.2-60.3-150.4-100.9
	c-62.4-61.4-101.4-134.4-115.8-217l-2.5-14.3l-1.1-14.4c-4.7-64.5,2.6-126.7,21.7-184.8c20.3-61.4,53-116.4,97.4-163.2
	c55.2-58.3,124.9-101,207.3-126.9c59.8-18.8,126.4-28.1,192.8-27c41.3,0.8,81.7,5.4,120.5,13.7l8.4,1.8l8.2,2.3
	c58.9,16.5,104.7,35.8,145.1,52.8c10.6,4.5,27.8,11.7,40,16.4c67.1-30.5,147.7-47.2,222.7-45.9c79.1,1.4,153.9,22.1,216.1,59.8
	c45.9,27.8,84.3,63.9,114.2,107.1c29.7,42.9,49.9,91.3,59.9,143.8l1.5,8l1.1,8.1c10,75.1,2.5,145.9-22.3,210.6
	c-25.9,67.4-68.7,124.4-127.4,169.4c-76,58.2-161.3,81.4-217.6,96.7l-5,1.3l-4.8,1.1c-167.8,39.1-259.1,44.3-347.2,49.2
	c-36.4,2-70.6,3.9-109.3,9.4l-5.6,0.8l-5.6,0.5C780,1087.6,757.7,1088.5,734.9,1088.1L734.9,1088.1z"/>
<path class="st0" d="M737.2,1017.5c-82.4-0.8-175.1-20.6-248.1-52.8c-51-22.5-94.7-51.3-130.1-85.5C307.2,829,274.6,769.4,262.3,702
	l-1.9-10.7l-0.8-10.8c-4.4-55,1.3-107.9,17.1-157.1c16.5-51.5,43.5-97.5,80.3-137c46.3-49.7,105.4-86.4,175.7-109.1
	c52.4-16.9,111-25.5,169.7-25c36.5,0.4,72.3,4.2,106.6,11.3l6.3,1.3l6.2,1.7c54.7,14.9,98.4,32.9,137,48.8
	c28,11.5,59.6,24.6,70.6,24.6c2.3,0,9.4-1.5,21.9-7.4c58.4-28.3,129.9-44.1,196.6-43.4c66.4,0.6,128.8,17.3,180.5,48
	c37.3,22.2,68.6,51,93,85.7c24.2,34.4,40.8,73.5,49.3,116.1l1.2,6l0.9,6c9,62.9,3.3,121.8-16.9,175.3c-20.6,55-55.3,101.8-103,138.9
	c-64.4,50.1-138.1,70.8-192,85.8l-3.8,1l-3.6,0.9c-161.5,39-249.5,44.6-334.6,50.1c-37.8,2.4-73.5,4.7-115,10.8l-4.2,0.6l-4.2,0.4
	C776.7,1016.8,757.3,1017.7,737.2,1017.5L737.2,1017.5z"/>
<path class="st0" d="M743,949.7c-73,1-155.6-14.5-220.8-41.3c-43.6-17.9-80.8-41.1-110.7-68.7c-41.9-38.7-68.6-84.7-79.4-136.8
	l-1.4-7.1l-0.7-7.2c-4.8-45.5-1.2-89.1,10.7-129.5c12.3-41.6,33.1-79,61.8-111.4c36.8-41.5,85-72.8,143-93.1
	c44.7-15.7,95.3-24.3,146.3-25.1c31.8-0.5,63,2.1,92.7,7.6l4.3,0.8l4.2,1c50.7,12.5,92.6,28.6,129.6,42.9
	c42.4,16.4,73.1,28.1,98,27.7c9.7-0.2,25.8-1.9,53.4-15.7c48.1-24.9,107.8-39.6,163.9-40.4c53.7-0.7,103.9,11.1,145.2,34.3
	c28.9,16.3,53.3,37.6,72.5,63.6c19,25.8,32.4,55.3,39.8,87.9l0.9,4l0.7,4c8.4,50.6,5.2,97.8-9.5,140.2
	c-15,42.8-40.9,79.6-77.2,109.3c-52.1,42.6-114.9,61.8-165.3,77.2l-2.5,0.7l-2.4,0.6c-154.5,41.3-239.1,48.7-321,55.9
	c-39.3,3.4-76.2,6.7-120.5,14.3l-2.8,0.5l-2.8,0.4C777,948.3,760.4,949.4,743,949.7L743,949.7z"/>
<path class="st0" d="M735.1,875.4c-63.8,0-135.5-14.4-191.8-38.6c-35.5-15.2-65.3-34.1-88.6-56.2c-30.2-28.7-49.2-62.1-56.4-99.3
	l-0.7-3.6l-0.4-3.6c-6.6-72.6,13.2-136.5,57.3-184.8c29.1-31.8,67.3-55.8,113.9-71.4c37.7-12.6,80.5-19.3,123.8-19.3
	c27.1,0,53.5,2.5,78.6,7.5l2.1,0.4l2.1,0.5c46.2,12,85.6,27.9,120.5,41.7c47.9,19.1,85.7,34.2,124.4,34.2c26.8,0,54-7.1,85.4-22.4
	c38.8-19.5,87.2-30.7,132.6-30.7c41,0,78.5,9.2,108.5,26.6c39.9,23.2,66.1,59.7,75.8,105.5l0.4,2l0.3,2c5.9,38.7,3.2,73.8-8,104.6
	c-10.9,29.9-29.7,55.7-55.9,76.6c-41.5,33.1-94.7,48.5-141.6,62.1l-1.3,0.3l-1.3,0.3c-148.9,37.6-230.5,43.6-309.4,49.6
	c-40.7,3-79.2,5.9-126.5,13.3l-1.4,0.2l-1.4,0.1C763.5,874.7,749.6,875.5,735.1,875.4L735.1,875.4z"/>
<path id="svg_3" class="st0" d="M765.9,801.6c142-22.2,208.7-5.7,429.4-61.3c88.6-25.7,171.4-51.3,154.4-163.2
	c-19.4-92.4-146.5-86.1-214.5-51.8C982,599.9,904,515.7,755,476.7c-116.3-23.1-304,14.7-288,190.7
	C487.3,772.4,670.8,812.6,765.9,801.6z"/>
</svg>
