<?xml version="1.0"?><svg width="1024" height="768" xmlns="http://www.w3.org/2000/svg" xmlns:undefined="http://www.w3.org/2000/svg">
 <title>shoe print</title>
 <g>
  <title>Layer 1</title>
  <switch>
   <g transform="rotate(0.305963 594.885 382.409)" id="svg_1">
    <g id="Layer_1">
     <g transform="matrix(0.0111826 -1.67964 1.56603 0.0119938 -165.577 1420.11)" id="svg_2">
      <path id="svg_3" d="m707.934021,390.91571c11.664185,-67.508728 -10.080505,-175.941681 -105.008789,-165.451447c-56.52832,12.496674 -76.948975,119.07901 -70.336914,174.056c12.975891,82.107239 4.558777,120.809937 36.128418,248.259338c14.49646,51.135742 28.892578,98.930603 89.215149,88.289856c49.767273,-11.899902 45.445496,-85.433289 26.443054,-124.57373c-41.383301,-88.233704 3.557373,-133.9776 23.559082,-220.580017l0,0z" fill="#000000" stroke="#000000" stroke-miterlimit="10" stroke-width="7.2364"/>
      <path id="svg_4" d="m543.158081,291.054443l35.131226,-10.612122l30.850708,26.487915l50.812073,-15.581116l18.14801,26.487915l29.071533,-9.378357m-168.231934,-6.251526l39.349609,-11.230103l30.850708,26.487915l50.812073,-15.581116l18.14801,26.487915l29.673584,-9.377319m-169.436035,-6.869446l39.952698,-10.612122l30.850708,26.487915l50.812134,-15.581116l18.147949,26.487915l32.083801,-10.612122m-174.258545,-4.400879l42.362915,-11.846985l30.850708,26.487915l50.812073,-15.581116l18.14801,26.487915l32.827515,-12.464905m-179.821655,-1.930176l47.18335,-12.464844l30.850708,26.487915l50.812073,-15.581177l21.276123,25.204346l30.159729,-9.94751m-180.281982,-3.162903l47.18335,-12.464905l30.850708,26.487915l50.812073,-15.581116m28.474731,22.639282l22.360107,-7.382507m-179.680969,-3.163879l47.18335,-12.464905l30.850708,26.487915l18.582458,-5.962219m61.329102,12.379089l22.337402,-7.358093m-180.28302,-2.547058l47.183289,-12.464905l30.850769,26.487915l16.704956,-5.320923m61.643555,12.059998l22.093323,-7.67926m-178.475891,-2.546997l47.183289,-12.464905l30.850769,26.487915l17.956604,-5.32196m51.003479,16.227661l30.276611,-11.846924m-177.270752,-2.547058l47.183289,-12.464905l30.850769,26.487915l20.773376,-6.924561m44.120361,10.580322l4.067383,7.25l27.865356,-9.9953m-174.860535,-4.398743l47.183289,-12.464905l30.850769,26.487976l26.404785,-8.527283m34.42157,6.412659l8.133667,13.021362l24.250061,-9.377258m-171.244141,-5.016724l47.183289,-12.464905l30.850769,26.486877l50.812073,-15.581116l18.147949,26.487915l20.634766,-8.142517m-167.628845,-6.251526l47.183289,-12.464844l30.850769,26.487854l50.812073,-15.581116l18.147949,26.487915l17.018433,-6.29071m-159.794128,-8.722229l42.964905,-11.846985l30.850769,26.487915l50.812073,-15.581177l18.147949,26.487976l12.197998,-4.437988m-153.910339,-9.957092l41.90155,-12.464905l30.850769,26.487915l50.812073,-15.581116l18.147949,26.487915l8.582642,-2.585205m-148.94812,-13.66156l40.554688,-10.612122l30.850769,26.487915l50.812073,-15.581116l18.147949,26.487915m-139.76239,-16.864746l39.952637,-9.995239l30.850769,26.487915l50.812073,-15.581116l18.14801,26.487915m-140.366577,-16.864685l40.554688,-9.9953l30.850769,26.486938l50.812073,-15.580139l15.134705,21.548645m-134.338989,-12.542297l37.541443,-9.378357l30.850769,26.486877l50.812073,-15.580078l13.929565,19.695801m-133.13385,-11.306396l37.541443,-8.760376l30.850769,26.486877l50.812073,-15.580139l12.724487,17.843079m-130.120544,-9.454651l35.733215,-8.761536l30.850769,26.487976l50.812073,-15.580078l10.917358,15.990234m-128.916504,-6.983948l36.336304,-9.378296l30.850769,26.487854l50.812073,-15.580017l9.712219,12.286804m-127.711365,-3.898438l36.336304,-8.761475l30.850769,26.487915l50.812073,-15.580078l8.50708,12.286804m-123.49292,-3.898438l33.322998,-8.761475l30.850769,26.487915l50.812073,-15.580078l7.904053,11.050964m-122.287903,-3.8974l32.721008,-7.525574l30.850769,26.487915l50.812073,-15.580078l9.712219,14.754395m-123.49292,-6.984985l32.117859,-8.142517l30.850769,26.487915l50.812073,-15.582153l15.134705,23.401367m-125.903198,-16.245728l29.105652,-7.525574l30.850769,26.487915l50.812073,-15.582214l18.147949,26.487915m-125.903198,-21.186096l26.092407,-5.672791l30.850769,26.487915l50.812073,-15.582153l18.147949,26.487915m-125.903198,-20.568176l26.092407,-6.289673l30.850769,26.487915l50.812073,-15.582153l18.147949,26.487854l7.980652,-3.821045m-132.075623,-16.748169l24.285217,-6.289673l27.721619,23.602783l53.941223,-12.697021l18.14801,26.487915l10.992798,-4.439026m-132.678711,-17.363953l21.874023,-5.055969l20.525146,18.47052m58.202026,-6.410461l2.936707,-1.153259l18.14801,26.487976l14.006104,-5.672852m-131.474609,-17.98291l17.656677,-3.202087l21.150879,18.47052m59.139221,-7.053894l1.372681,-0.510925l18.14801,26.487915l17.509705,-5.914429m-132.566956,-17.742371l15.24646,-3.202087l23.028381,20.395386m58.634399,-9.489624l18.14801,26.487915l18.929993,-6.643677m-133.991333,-17.098999l15.250549,-3.117249l26.157532,22.321228m55.505249,-11.41449l18.14801,26.487915l19.995483,-7.007263m-133.536255,-15.178345l13.72998,-4.674316l30.850708,26.487915m53.004028,-10.771118l15.957092,21.678955l20.351257,-6.279114m-129.331238,-17.463562l9.168152,-3.11731l30.850708,26.487915l3.562561,-1.474365m49.441467,-12.182983l15.957092,24.56311l21.060913,-7.367676m-128.520264,-16.376099l7.647522,-3.115112l30.850708,26.487915m0,0l8.256775,-2.755859m44.120361,-10.901489l16.582947,24.563049l19.285828,-6.276917m-119.096619,-20.58197l30.850708,26.487915l16.079163,-5.640991m33.481262,-12.504089l19.399658,29.050781l15.733643,-5.912354m-115.544434,-20.945435l30.850708,26.487915l50.812073,-15.580078l18.14801,26.48584l9.695679,-5.18634m-105.243591,-18.3974l26.588867,23.212708l50.812134,-15.582214l18.147949,26.487976m-91.88916,-26.857849l22.929077,26.487915l50.812134,-15.582153l12.86615,18.37085m-79.752258,-504.629272l17.593567,17.226135l38.761047,-13.11145m-65.105835,2.098663l24.825195,21.548615l50.812134,-15.581146l18.147949,26.487885l10.390808,-3.819977m-110.202637,-23.039948l30.850708,26.487915l50.812073,-15.581116l18.14801,26.487915l15.211243,-5.672791m-131.473511,-16.131256l16.451477,-5.055908l30.850708,26.487885l50.812073,-15.581116l18.14801,26.486877l18.223511,-7.525574m-142.318542,-13.042603l24.285278,-6.290741l30.850708,26.486847l50.812134,-15.581116l18.147949,26.487915l22.441895,-7.525574m-151.359436,-10.572876l29.105713,-8.760437l30.850708,26.487915l50.812073,-15.581116l18.14801,26.487915l24.852112,-7.525574" fill="#000000" stroke="#000000" stroke-miterlimit="10" stroke-width="1.3944"/>
      <path id="svg_5" d="m689.569824,378.729553c0,18.574402 -14.280273,33.649963 -31.873779,33.649963c-17.594543,0 -31.873779,-15.075562 -31.873779,-33.649963c0,-18.574402 14.280212,-33.649963 31.873779,-33.649963c17.594543,0.001099 31.873779,15.075562 31.873779,33.649963l0,0zm-12.555847,0c0,10.925842 -8.654053,19.793335 -19.316895,19.793335c-10.66394,0 -19.317932,-8.867493 -19.317932,-19.793335c0,-10.925903 8.653992,-19.793335 19.317932,-19.793335c10.661804,0 19.316895,8.867432 19.316895,19.793335l0,0z" fill="#000000" stroke="#000000" stroke-miterlimit="10" stroke-width="8.8813"/>
      <path id="svg_6" d="m531.980103,364.58252c0,0 101.736877,94.565796 29.793518,256.1474m120.779663,-362.626892c0,0 -165.684082,137.753052 -16.713196,287.419861" fill="#000000" stroke="#000000" stroke-miterlimit="10" stroke-width="5.8715"/>
      <path id="svg_7" d="m596.962769,611.375916l57.508972,-12.386475c0,0 24.056641,88.270813 -11.049744,95.309937c-39.544067,8.026917 -46.459229,-82.923462 -46.459229,-82.923462l0,0z" fill="#000000" stroke="#000000" stroke-miterlimit="10" stroke-width="3.8292"/>
      <path id="svg_8" d="m604.499573,617.940125l45.121704,-9.563843c0,0 19.523804,74.046387 -8.020935,79.482849c-31.02655,6.196472 -37.100769,-69.919006 -37.100769,-69.919006l0,0z" fill="#000000" stroke="#000000" stroke-miterlimit="10" stroke-width="1.3126"/>
     </g>
    </g>
   </g>
  </switch>
 </g>
</svg>