<?xml version="1.0" encoding="utf-8"?>
<!-- Generator: Adobe Illustrator 21.1.0, SVG Export Plug-In . SVG Version: 6.00 Build 0)  -->
<svg version="1.1" id="Layer_1" xmlns="http://www.w3.org/2000/svg" xmlns:xlink="http://www.w3.org/1999/xlink" x="0px" y="0px"
	 viewBox="0 0 1728 1296" style="enable-background:new 0 0 1728 1296;" xml:space="preserve">
<style type="text/css">
	.st0{fill:none;stroke:#231F20;stroke-width:1.4254;stroke-miterlimit:10;}
</style>
<path class="st0" d="M391.8,1527.3c-150.5-13.4-200.6-199-231.4-320.2c-33.7-132.8,35.9-283,193.6-265
	C596.8,969.7,728.8,1558.1,391.8,1527.3"/>
<path class="st0" d="M1052.9,1430.7c83.5,16.1,111.9-20.7,171-65.9c52.3-39.9,101.7-24.4,159.1-49.6
	c107.6-47.1,117.2-205.6-2.1-245.7c-57-19.2-103.6,4.4-148.2,37.7c-59.5,44.3-67.2,46.2-139.2,61.3
	C958.9,1196.7,901.9,1370.3,1052.9,1430.7"/>
<path class="st0" d="M45.4,378.1C67.1,550.8,153.8,746.5,336.3,796c77.4,21,157.2,11,229.8-21.1c75.8-33.5,142.2-118,230.3-102.6
	c77.3,13.5,143.1,78.4,223,94.7c77.7,15.8,156.9,5.7,231.2-20c154.9-53.6,332.1-161,352.4-339.1c21.6-189.7-140.9-326.6-322.1-319.8
	c-76.7,2.9-154.1,28-225.8,54c-80.3,29.1-159.9,92.3-242,110.9c-97.7,22.1-155.8-74.4-221.7-130.4C531.7,72,462,31.2,383.3,21.3
	C168.6-5.8,33.4,180,45.4,378.1"/>
</svg>
