<?xml version="1.0" encoding="utf-8"?>
<!-- Generator: Adobe Illustrator 21.1.0, SVG Export Plug-In . SVG Version: 6.00 Build 0)  -->
<svg version="1.1" id="Layer_1" xmlns="http://www.w3.org/2000/svg" xmlns:xlink="http://www.w3.org/1999/xlink" x="0px" y="0px"
	 viewBox="0 0 4529 2793" style="enable-background:new 0 0 4529 2793;" xml:space="preserve">
<style type="text/css">
	.st0{fill:none;stroke:#010101;stroke-width:0.9838;stroke-miterlimit:10;}
</style>
<path class="st0" d="M440.3,229.2c95.5-29,190.5,36.9,200.9,137.9c4.7,45.8-2.5,96.4-14.9,140.7c-12.9,46.1-26.1,95.6-49.7,137.6
	c-48.5,86.4-151.9,137.4-246.4,89.8C241.1,690.3,212.3,568,249.4,480c18.2-43.2,43-84.1,66.8-124.5c25.6-43.7,48.5-84.1,93-111.4
	C419.3,237.9,429,232.7,440.3,229.2z"/>
<path class="st0" d="M440.3,259.7c-41.6,14.9-65.3,54.7-81.6,93.8c-14.8,35.6-33.8,65.8-52.6,99.3c-40.7,72.6-59.6,176.3,10.9,238.4
	c68.9,60.7,164.8,27.8,211.8-40.8c23.3-34.1,34.5-72.3,44.9-111.9c10.3-39.3,22.3-78.6,31.6-118.1
	C629.4,318.5,544.5,222.5,440.3,259.7z"/>
<path class="st0" d="M384.4,697.7c81.6,14.9,129.5-62.1,147.5-131.4c9.9-38.3,6.4-78.6,24.6-114.4c16-31.7,32.3-63.4,24.5-100.3
	c-16.3-77.2-111.5-105.1-165.6-46.5c-27.6,29.9-24.2,67.5-39.1,102.4c-14.1,32.9-42.3,58-57.5,90.9C285.5,570.3,288,680,384.4,697.7
	z"/>
<path class="st0" d="M1346.1,724.7c-36-8-65-27.1-94.1-48.8c-30.7-22.9-60.3-23.5-95.7-34.7c-71.3-22.5-104.1-119.7-37.1-168.8
	c29.1-21.3,67.7-26.4,101.4-13.3c16.3,6.3,30.4,16.4,46.1,23.8c18,8.4,36.9,9.3,56.4,10.5c65.9,3.8,141.9,24.4,168.2,92.4
	c15.9,41.3,5.3,87-27.7,116.6C1431.3,731.4,1386.6,733.8,1346.1,724.7z"/>
<path class="st0" d="M499.3,1034.8c10.8,2.4,16.8,9.8,27.8,2.5c8.6-5.7,11.1-21.9,14-30.3c3.6-10.6,5.8-18.5,14.6-26.6
	c6.5-6,15.3-7.6,19.4-16c5.7-11.7,2.2-20.7,17.2-27.1c9.5-4.1,19-1.5,28.8-0.8c14.1,0.9,17.8-2.8,31.2-8.9
	c10.6-4.8,22.8-3.8,28.2-14.3c5.3-10.3-0.3-21.5,9.9-31.2c7.1-6.8,18.4-9.2,26.8-14c20-11.4,27.6-26.5,40-44.6
	c13.1-19.1,31.6-31.9,55.4-28.1c25.6,4.1,34.6,13.4,49,33.3c6.8,9.4,12.7,17.7,17.2,28.3c1.8,4.1,2.3,10,5.1,13.5
	c3.9,4.8,10.7,5.1,13.6,10c5.5,9-2,19,0,27.8c2.7,11.6,14.7,17.7,25.5,18.2c11.3,0.5,19.9-3.9,31.7-2.2c10.8,1.6,22,4.3,32.7,6.8
	c18,4.1,43.4,10.2,58.9,19.7c10.7,6.6,14.4,14.4,27.6,17.8c9.7,2.5,20.2,5.4,30.4,7.1c20.6,3.4,42.1,7.8,61.6,16.8
	c17.9,8.2,35.6,17.3,53.6,25.6c10.1,4.7,21.8,3.5,32.4,6.3c9,2.4,18.2,9,28,8c21-2.2,40.5-24.7,55.5-37.6
	c16.9-14.7,34.5-21.5,54.6-31c18.5-8.8,37.6-21.8,56.5-28.5c20.9-7.5,42.1,4.5,61.9,11c21.5,7.1,37.7,17.3,60.8,12.6
	c10.8-2.2,21.3-6.6,32.2-8.5c8.4-1.5,18.7,0.5,26.6-2.7c19.1-7.9,17.1-39.1,34.4-52.1c17.1-12.9,33.4-20.2,39.2-43.5
	c5.2-20.7,9-45.7,23.2-61.4c16.4-18.2,29.3-31.7,26.1-57.8c-5.4-44.2-42.9-81.5-42.9-125.6c0-20.4,9.9-39.5,12.1-59.7
	c1.2-11-0.5-18.9-3.3-29.6c-4.2-15.7-4-18,7.2-30.9c15.1-17.3,12.8-37.7,10.6-60.3c-2.4-25.2-15.3-39.2-25.4-61
	c-9.2-19.7-24.3-34.2-31.5-54.2c-8.4-23.3-6.2-46.4-37.2-43.3c-15.8,1.6-44.4,18.7-60.1,5.1c-13.4-11.5-1.3-15,7.5-18
	c12.9-4.4,17.6-5.3,16.2-17.7c-1.8-15.1-22-42.1-31.3-54.6c-21.7-28.9-31.2-5.7-44.6,14c-29.3,43-81.8-16.6-118.4-11.5
	c-47.7,6.7-95.7,11.4-143.3,0.2c-17.2-4.1-37.5-6.4-55.3-6c-9.9,0.2-19.2,6.5-29,6.6c-11.3,0.1-17.5-7.2-26.2-13.9
	c-7.6-5.8-15.3-10.6-23.9-14.8c-11.2-5.6-15.9-3.5-27.3-4.7c-12.3-1.3-18.3-10.8-29.1-14.3c-8.1-2.6-20.4-1.7-28.8-0.3
	c-9.2,1.5-18.8,6.6-28.3,6.5c-12.2-0.1-17.9-6.2-27.9-11.7c-14.8-8.2-42.6-14.2-59.5-13c-13,0.9-18.7,5.9-32.5,4.5
	c-9.4-0.9-19.5-0.3-28.6-3.5c-22.9-7.8-29.7-27-46.1-42.1c-15.4-14.2-36.7-15-56.2-19.2c-11.4-2.4-22.6-4.2-34.2-2.3
	c-10.1,1.6-19.6,6.7-30.3,6.8c-40.5,0.3-79.9,3.6-121.1-3.1c-21.6-3.5-38.9-14.6-60-19.3c-18.7-4.2-37.6,0.7-56-4.1
	c-23.7-6.1-43.8-3.4-67.6-6.1c-12.4-1.4-22.2-6.3-35.2-4.1c-9.9,1.7-17.5,7.7-26.9,10.2c-19.4,5.1-42,2.7-62,6.5
	c-12.8,2.4-23.1-0.3-35.7,0.3c-11.5,0.6-18.9,6.2-29.3,11c-22.4,10.4-34.7,18.6-44,43c-4,10.5-7.5,21.2-11.4,31.8
	c-3.1,8.3-4.2,31.2-8.7,37.2c-3.7,4.9-14.2,3.6-21.2,7.4c-9.5,5.2-14,14.4-22.6,20.7c-19.4,14.3-38.9,20.6-41.2,48
	c-1.8,20.8-11.6,39.1-13.7,60.2c-2.1,21.7-6.7,43.9-12.4,65.1c-6.5,24.1-8.8,40.6-6.2,65.5c2.1,20.2-4.5,40.3-3.8,60.7
	c0.7,20.2-3.6,40.6-2.1,60.6c1.6,20.5,9.3,41.3,12.8,61.7c3.6,20.9,8.3,40.5,15.3,60.4c7.1,20.3,9,41.9,15.3,62.8
	c6.1,20.4,6.8,41.9,12.7,62.2c3,10.3,9.1,20,11.9,30.3c2.7,10.3,1.2,22.2,8.6,31.1c12,14.5,35.7,18,52.4,24
	c9.5,3.5,17.3,8.9,26.4,12.9c9.3,4.1,20.3,2.4,28.9,6.6c8.9,4.3,14.8,15.5,21.5,22.4c9.3,9.4,19.9,11.5,30.8,18.3
	c8.6,5.4,14.1,13.6,22.2,20c10.1,7.9,22,11.7,26.5,25.1c7.1,21.4-2.8,36.1,22.7,48.8c19.7,9.9,37.4,16.2,58.7,12.5
	c22.2-3.8,37.3-8.6,56.7-20C466,1022.5,479.1,1023,499.3,1034.8L499.3,1034.8z"/>
<path class="st0" d="M1634.4,745.1c-24.9,28.1-47.2,58.9-79,79.8c-31.6,20.7-62.9,37.4-99.2,47.5c-18.2,5.1-36.4,10.9-55,14.9
	c-16,3.4-31.2,1-47.2,2.8c-33.8,3.8-69,21-103.4,16c-17.3-2.5-33.1-10.1-50.8-11.8c-22.9-2.3-29.4-6.8-48.4-19.2
	c-15.4-10-30.1-14.1-44-27.1c-11.5-10.7-23.1-22.4-38-28c-17.6-6.6-36.3-5.8-53.6-14.4c-15.9-7.9-32.4-17.8-45.3-30
	c-24.8-23.5-54.3-54.4-67.2-86.1c-6.5-15.9-6.2-35.1-14.9-48.8c-12.2-19.2-23.8-20.7-44.3-14.5c-16.9,5.1-32.7,12.9-49.7,17.6
	c-22.8,6.3-28.5,13.1-44.3,28.9c-12.2,12.2-25.2,23.2-39.3,32.9c-15.8,10.9-21.2,26.2-33.3,40.5c-24.6,29.3-54.2,39.3-86.2,57.8
	c-30.9,17.9-56.4,43.2-89.2,57.8c-17.3,7.7-30.6,7.8-48.9,4.9c-18.7-3-35.4-0.3-54,1c-30.3,2.2-69-8.9-96.4-20.5
	c-17.4-7.4-36-5.1-51.9-16.4c-15.8-11.2-29.3-25.7-45.4-36.5c-29.1-19.4-42.4-55.7-59.8-85.8c-18.1-31.4-31.1-57.2-39-93
	c-7.6-34.2-5.2-70.8-7.2-105.6c-1.8-32.4,6.8-72.5,15.7-103.5c9.7-33.8,23.4-65,43.1-94.3c20.5-30.4,54.4-52.1,71.7-85.3
	c7.7-14.8,12.3-27.6,25.9-38.3c14.6-10.9,32.9-11.9,49.5-19.9c15.5-7.5,31.3-7.5,46.4-16c15.6-8.7,30.8-13.3,47.6-19.3
	c32.6-11.6,63.8-18.1,98.5-19.8c36-1.8,65.6,9,100.2,16.5c37.8,8.2,68.1,13.4,97.9,39.7c13.1,11.6,35.3,16.8,46.1,29.5
	c9.8,11.6,10.6,35.5,13.8,49.9c3.7,16.7,8.5,32.9,11.5,49.4c3.9,21.3,13.9,27.4,29.6,41c15.3,13.2,14.6,31,26,46.3
	c4.8,6.3,11.2,9.9,19.2,11.9c12.9,3.3,15.1-1.4,25.9-6.8c18.9-9.4,32.3-10.1,47.7-26.1c13.6-14.1,21.5-24.9,42-30.4
	c18.2-4.9,32.2-3.8,50.2-11.5c15.4-6.6,30.1-14.8,45.1-22.4c31.8-16.2,66.6-29.6,102.4-32.9c18.1-1.6,34.2,5.3,52,6.3
	c15.4,0.9,31.1-1.7,46.6-1c35.6,1.6,73.8,0.1,108.2,7.4c15.9,3.3,31.5,8.5,47.3,11.7c19.1,3.9,32.1,0.1,48.8,12.4
	c14.9,10.9,31.8,16.5,46.5,27.4c14.4,10.7,25.9,21.6,42.2,29.7c15.9,7.9,35.8,12.9,47.7,27.2c10.9,13,10.8,31.1,17.8,46.4
	c14.9,32.8,10.9,73.4,22,107.6c10.9,33.7,12.7,67.4,15.4,102.6c1.3,16.9-1.6,30.1-4.6,46.5C1642.2,709.9,1643,728.5,1634.4,745.1
	L1634.4,745.1z"/>
<path class="st0" d="M502.1,818.9c-27.1,14.8-76.6,10.3-106.1,6.5c-33.1-4.4-68.9-12.3-99.8-24.7c-65.9-26.5-97.1-85-129.7-144.1
	c-16.3-29.6-19.3-62.4-20.7-95.8c-0.6-15-5.6-29.2-6.7-44.3c-1.3-17.3,4.4-32.2,7.4-49c5.5-30.3,22.4-58.5,34.5-87
	c12.4-29.2,32.8-53.7,53.8-76.9c44.3-48.9,86.3-95.4,146.3-125.7c58.1-29.3,124.4-37,187.5-18.7c66,19.1,115,65.3,142.8,128.5
	c13.2,30,12.5,63.5,18.3,95.4c2.9,16.2,6.1,31,11.2,46.6c6.8,20.7-1.2,26.6-6.4,46c-3.9,14.6-2.1,31.4-2.6,46.4
	c-0.6,16.6-6.6,32.3-11.3,48c-9.7,32.5-15.6,64.4-36.5,91.3c-19.7,25.4-39.1,54.3-62.2,76.4c-23.3,22.3-51.9,34.5-79.4,50.5
	C527.6,796.9,517.1,810.6,502.1,818.9L502.1,818.9z"/>
<path class="st0" d="M1332.7,856.1c-15.8,3.5-30.8,10.4-47.1,11.2c-16.4,0.8-30.5-5.7-45.4-11.8c-16.2-6.6-33-10.6-48.9-18
	c-14.2-6.6-27-15.6-41.5-21.4c-29.6-11.9-56.3-28.2-84.6-42.8c-30-15.5-48.1-35.8-68.7-62.2c-21.1-27-34.7-48.5-37.3-82.9
	c-2.3-30.6-21.7-55.6-25.5-86.3c-4.5-36.3,11.6-62.1,28.4-92c9.5-16.9,6.5-32.5,22.1-46.4c10.5-9.4,23.7-17.8,35-26.4
	c45.9-34.9,118.4-65.8,176.6-63c61.3,3,127.1-5.8,185.5,15.6c30.3,11.1,55.3,14.1,82.7,32.8c26.3,17.9,58,29.3,83,49.1
	c24.4,19.2,36.4,55,46.1,83.3c5.5,15.9,7,31.9,9.6,48.4c2.5,16.1,8.8,31.1,11.6,47.1c5.9,33.3-4.9,63-12.6,94.9
	c-8.6,35.6-23,56.4-47,83.9c-21.4,24.5-48.6,46.5-75.9,64.5c-26.1,17.2-58.6,17.3-88.6,20.2C1371.8,855.5,1350.4,852.2,1332.7,856.1
	z"/>
<path class="st0" d="M322.2,272.9c39.4-39.5,90-78.9,146.5-84.6c58.5-5.9,109.8,15.3,151.5,54.2c44.4,41.4,61.9,88.5,66.7,148.5
	c1.9,24.6-6.3,53-8.5,77.7c-2.5,27.9-7.6,57.4-14.3,84.6c-13,52.9-38.4,102.6-71.1,146c-17.3,23-39,39.6-64.2,53.3
	c-25.4,13.9-45.9,31.3-75.6,34.4c-58.6,6-118.7-3.5-167.8-37.9c-41.6-29.1-80.4-89.8-90.2-139.5c-9.5-48-7.5-112.5,13.1-156.8
	c23.6-50.8,52.4-100.8,85.5-145.9C302.7,295.1,311.8,283.3,322.2,272.9z"/>
<path class="st0" d="M1544.9,656.6c27.2-97.9-42.1-184.3-134-220.7c-42.6-16.8-88.1-25.7-133.4-33.3c-48.4-8.2-93.6-14.3-140.7,3.7
	c-91.7,35.1-139.5,139.8-83.4,227.4c25,39.1,66.6,65.4,107.8,85c40.7,19.4,79.2,43.7,122.9,55.5c93.3,25.2,202.6,13.2,248.1-83.7
	C1537.5,679.5,1541.7,668.3,1544.9,656.6z"/>
<path class="st0" d="M225.2,951.7c-8.2-5.6-16.8-9.9-24.1-16.6c-11.1-10.3-17-12-30.1-18.9c-19.9-10.6-37.3-18.1-59.8-24.2
	c-9.5-2.6-31.1-3.9-37-12.5c-5.2-7.6,1.3-18.8,1.2-27.9c-0.1-21.4-11.9-42.2-16.7-62.6c-4.8-20.8-2.9-41.2-9.6-61.6
	c-3.3-10.1-4-17.6-4.9-28.2c-1.2-13.5-6.9-22.3-11.4-34.8c-7.1-19.7-8.6-40-12-60.6c-3.3-20.5-10.1-39.9-12.2-60.6
	c-4.4-43.9-2.2-87.6,4.5-131.1c3.5-22.8,11.7-43.3,13.1-66.1c1.5-24.6,7.2-49.3,13.2-73c5.6-22.2,2.2-43.4,13.3-64.4
	c9.9-18.7,20.6-39.2,32.5-56.3c6.5-9.3,16.4-16.1,22.6-25.7c3.2-4.9,4.5-10.6,8.3-15.4c3.6-4.5,11.9-7.9,14.5-11.9
	c6.7-10.2,4.5-22.7,14.4-32.3c8.2-7.9,19.4-14,27.8-21.4c19.9-17.7,33-22.6,59.5-18.6c26.3,3.9,46.3,4.2,72.7-0.8
	c21.5-4,39.6-15.7,61.8-17c12.9-0.7,21.8,4.2,34.1,5.9c13,1.7,26.1-2,39.2,0.3c11.5,2.1,18.8,8.9,29.5,12.4
	c12.9,4.2,27.6,0.8,40.8,1c24.6,0.4,41.4,13.8,64.3,20.2c21,5.9,38.1,3.8,58.5,0.1c9.5-1.7,21,2.3,29.7-0.5
	c10.1-3.2,16.8-17.1,26.7-19.6c5.9-1.5,25,5.2,31.3,7.4c13.5,4.8,22.5,7.6,37.3,8.6c11.8,0.8,23.1,2.9,34.7,4.1
	c8.8,0.9,25.3-2.5,32.4,1.9c18.1,11.1,18.4,40.3,40.9,49.5c15.2,6.3,19.8-1.7,32.8-6.2c9.7-3.3,19.4-0.7,29,1.3
	c19.6,4.1,43.1,10.6,61.6,18.4c25.8,10.9,39.8,7.7,66.4,0.4c17.4-4.8,43.3-9.1,61-7c6,0.7,17.6,6.9,24.5,10.9
	c14.7,8.5,8,11.9,13.6,27.2c9.4,25.6,32.3,19.3,54,16.2c24.2-3.5,45.8,3.1,69.6,7.5c19.1,3.5,33.2-0.2,51.8-1.1
	c21.2-1,34.6,8.1,57.3,1.5c11.1-3.2,22.8-6.6,33.2-11.4c4.2-1.9,7.6-4.5,11.6-6.6c10.8-5.6,9.5-7.5,16.5,2.1
	c11,15.2,24.5,38,48.3,33.6c20.3-3.8,26-30,49.3-32.2c14.6-1.4,52.5,12.8,59.6,27.6c2.3,4.7-1.7,10,0.1,14.3
	c2.2,5.4,9.2,7.4,14.1,11.9c8.3,7.6,11.6,18.7,19,27c8.5,9.6,18.9,9.9,28.6,17.3c10.6,8,11.6,17.9,15.1,29.5
	c6.4,20.7,22.1,33.7,32,52.7c5.1,9.7,7.4,19.6,11.7,29.3c5.2,11.6,14.9,19.7,19.3,31.4c8.1,21.4,8.1,42.2,21.9,60.2
	c17.7,23.2-1.4,38.6-15.9,59.4c-22.8,32.6-43.3,86.7-25.7,125.2c9,19.8,22.1,37.6,30.6,57.6c7.6,17.7,24.3,42.3,21.9,61.5
	c-3,24.2-30.5,35.4-42.4,55.7c-11.2,19.1-7.3,41-18.3,60.3c-11.7,20.6-15.9,40.5-37.6,53.5c-4.2,2.5-13.1,4.6-14.8,8.7
	c-0.9,2.2,2.8,15,3,18.9c0.3,8.9,1.8,21.5-5.7,27.1c-13.4,10.3-41.9-17.3-58.3-17.7c-21.9-0.6-42.6,9.3-65.1,4
	c-21-5-39.5-17.7-61.1-21c-28.2-4.4-29.9,16.1-52.6,27.9c-10.4,5.4-22.2,4.6-31.3,11.6c-8.9,6.8-15.3,16-24,23.1
	c-8.3,6.8-12.7,14.2-22,19.2c-10.8,5.8-22.8,4.9-33.8,8.9c-8.7,3.2-15.1,9.7-24.8,11.7c-9.6,2-19.4,0.4-29,0
	c-20.8-1-40.8,4.1-61.2-3.9c-23.2-9.1-33.8-33.6-54.2-45.6c-22.1-13-43-7.7-65.7-15.8c-20.9-7.5-41.5-12.5-62.9-16.7
	c-20.3-4-33.3-21.9-53.6-25.2c-16.6-2.7-21,5.3-34.9,9.9c-8.8,2.9-21.4,0.6-30.7-0.5c-22.8-2.9-31-27.7-32.6-49
	c-2.4-31.9-25-111.6-71.3-97.4c-20.2,6.2-28.6,33.5-38.4,49.6c-5.3,8.7-11.6,16.7-19.8,22.9c-8.5,6.4-21.4,9.4-27.5,18.2
	c-11.4,16.4,8.3,41.2-18.1,53.4c-11.2,5.2-22.4-0.3-32.4,8.9c-9.5,8.8-10.2,20-21.7,27.8c-10.9,7.3-18.1,7.3-24.1,20.2
	c-5.8,12.3-4.9,20.3-17.3,26.7c-9.2,4.7-18.8,6.5-27.8,12.3c-10,6.5-19.7,12.8-31,17.1c-23.6,8.9-41.2-6.6-64.6-9.7
	c-24.1-3.1-37.1,14.5-60.4,14c-16.5-0.4-15.8,4.7-29.9,9.9c-12.4,4.5-20.9-2.6-31.8-6.8c-11.3-4.5-18.5-0.6-29.4-2.3
	c-16-2.4-19.1-14-23.8-26.7c-2.7-7.2-6.6-22-13-26.6c-11.4-8.2-3.1,1.6-15.8,0.4c-7.1-0.7-7.4-2.5-12.8-8.4
	c-6.4-7-14.8-17.6-16.6-27.2C235.3,966.1,237.6,963.9,225.2,951.7L225.2,951.7z"/>
<path class="st0" d="M1561,936.9c41.4,1.6,59-44.8,82.6-71c11.9-13.2,28.6-30.4,35.4-47.1c8.4-20.3,11.6-31.5,27-47.7
	c13.3-13.9,26.3-32.7,23.5-52.9c-2.5-18.3-14.7-35.7-20.1-53.5c-5.3-17.4-13-34.6-15.1-52.8c-2.4-20.7,8.3-41.2,5.7-61.1
	c-2.7-19.8-22.5-33-20.6-53.8c2-21.9,25.2-27.6,29.5-47.5c4.2-19.2-2.7-40.7-9.1-58.5c-3-8.4-6.4-18.5-13.3-24.7
	c-8.4-7.6-16.9-6-26.6-11.2c-18.9-10.1-29.4-27.7-50.4-36.7c-16.7-7.1-34.5-10.3-50.7-19c-19.4-10.4-23.7-29.5-38.7-43.7
	c-13.6-12.8-32.9-16-49.3-24.5c-17.4-9-32.9-18.8-53.1-18.7c-16.5,0.1-32.4,0.6-49,0c-19.5-0.7-38.1,4.7-57.9,1.7
	c-20.9-3.2-40.8-6.2-62-8.1c-19.8-1.9-38.9-0.1-58.7-0.8c-22.5-0.8-36.3-6.7-56.1-14.4c-10.3-4-18-0.7-28.1,0.5
	c-14,1.6-18.9-2-31-8.1c-19.1-9.6-38.5-8.2-59-6.2c-10.2,1-20.7,1.3-29.5-5.2c-9.8-7.3-13.2-19.7-28.4-17.9
	c-7.9,0.9-13.9,8-21.7,9.9c-15.3,3.7-12.4-3.3-25.9-8.4c-16.1-6.1-29.8,6.1-47.3-1.4c-14.3-6.1-34-19.8-43.4-31.5
	c-12.5-15.4-25.8-18.8-43.4-28.9c-6.2-3.6-20.4-13-26.8-13.3c-9-0.6-17.6,9.8-26,11.6c-9.6,2-19.6-4.2-29.3-5.9
	c-10-1.7-20-0.4-30.2-0.5c-17.6-0.2-35.9-2-53.4-4.7c-19.3-2.9-40.5-4.8-59.1-10.5c-18-5.5-34.6-13-53.6-15.3
	c-17.9-2.1-36.6-5.6-54.4-6.3c-18-0.7-35.7,3.6-53.4,3.6c-18.8,0-34.3,4.2-52.9,6.4c-19.7,2.3-40.7-0.2-59.3,7.5
	c-17.9,7.4-28.7,22.9-45,31.3c-22.5,11.6-28.8,16.4-42,38.5c-9.4,15.7-12.9,32.3-21.1,48.5c-10.7,21.1-25.8,26.9-46.2,36.5
	C101.8,231.4,98.4,239.9,89,261c-4,8.9-14.1,15.8-17.4,24.3c-3.7,9.4,0.7,21.1-0.9,31.2c-2.8,17.9-12.8,35.9-19.2,52.7
	c-8.3,21.9-6.8,34.5-4,56.9c2.4,19.6-2.8,37.4-4.5,56.7c-1.7,18.7,1.2,37.2,0,55.8c-2.5,38.6,9.4,77.2,17,114.8
	c3.4,16.7,8.8,32.7,11.9,49.6c4,21.9,14.4,37.2,23.5,57c8.6,18.9,8.7,39.3,18.4,57.7c10.2,19.3,21.7,31,39.9,43.2
	c16.4,11,32.3,11.6,50.6,16.7c19.2,5.4,35.3,19.9,52.5,29.2c15.8,8.5,24.5,22.1,38.6,32.2c15.9,11.4,34.7,22.8,51.9,32.1
	c21,11.4,33.4,19,58.6,15.1c7.7-1.2,15.3-3.9,23-4.9c12.8-1.7,18.7,2.4,30.9,4.7c24.5,4.6,38.3-3,50.8-23
	c10.2-16.3,20.9-30.6,34.8-44.1c14-13.7,33.3-14.7,52.1-18.8c18.9-4.1,42.1,6.8,55.9-10.3c6.6-8.2,7.4-16.2,16.2-23.8
	c7-6.1,14.8-9.7,22.9-14.1c18.8-10.3,27.8-19,40.9-34.8c23.3-28,62.4-47.9,98.4-38.7c39.1,10,65.9,45.6,90.2,75.6
	c26,32,65.8,48.6,103.8,62.6c34.6,12.7,66.5,32.9,101.4,44.7c35.6,12.2,75.1,4.1,110,20.3c20.2,9.4,34,22.5,56.7,9
	c9.3-5.5,12.3-14.3,19.6-21.3c7.9-7.6,18.6-9.9,29.1-12.5c19-4.8,38.6-9,56.9-16.4c17.8-7.2,30.8-20.4,50.3-23.9
	C1487.4,909.6,1523.5,935.5,1561,936.9z"/>
<path class="st0" d="M1015.8,259.8c7-3.5,7.1-11.9,14.8-16.2c6.6-3.6,18.7-5.3,26.3-7.8c17.7-5.9,33.2-4.4,51.6-3.2
	c19.2,1.2,35.3-1.9,54.1-4.9c18.3-3,34.3,6.5,52.7,6.2c39.5-0.6,78.6,5.4,117.7,5c19-0.2,33.9,2.1,51.7,7.9
	c19.7,6.4,40.4,2.8,60.4,7.9c17.7,4.5,35.9,11.2,51.2,21.3c16.4,10.9,24.2,29.2,39.2,41.7c15.7,13,36.8,21.4,55.5,28.6
	c18,6.9,30,16.3,45.4,27.3c17.2,12.2,30.8,16.2,33.1,39.1c1.9,18.7-6,37.5-11.5,55.2c-12.2,39.8,13,69.6,15.6,108.6
	c2.3,35,8,69.2,9.5,104.2c0.8,18.2,8.9,38.5,3,55.9c-5.3,15.8-17.2,33.3-25.1,48.7c-7.1,13.8-21.1,31.1-32.6,41.2
	c-13.7,12.1-31.1,15.8-44.7,26.2c-14.1,10.8-20.3,25.9-39.5,28c-10.8,1.2-16.1-0.5-26.7,4.3c-10.7,4.8-16.6,8.2-28.6,8.7
	c-19.5,0.8-37.3,2.1-56.5,6.7c-18.6,4.5-33.1,14.6-51,21.1c-35.2,12.8-71.9,10-106.9,22.3c-36.8,12.8-70.1-9-107.8-10.3
	c-40-1.3-68.3-21.6-103.2-39.3c-33.1-16.7-67.3-41.2-93.8-67.2c-27.9-27.4-61.2-45.5-91.1-69.9c-15-12.2-29.4-26.5-48.9-30.7
	c-17-3.7-32.1,3.1-47.2,10.9c-17.9,9.2-31,21-47.6,32.1c-18.7,12.4-33.5,20-48.3,37.6c-6.8,8-10.6,14.8-21.3,19
	c-7.5,2.9-15.7,2.2-23.4,4.8c-5.2,1.7-8.1,5.6-13.1,6.9c-5.2,1.4-11,0.1-16.6,1.6c-11.2,3-14.5,13-24.3,18.7
	c-16.1,9.3-33.6,16.9-50.5,24.5c-17.6,8-31.7,22.2-49.2,30.7c-16.7,8.1-37.2,10-54.9,16.9c-18.1,7-30.9,12.7-50.6,9.6
	c-34-5.4-62.5-35-91.8-51.5c-29.7-16.8-62.5-33.5-95.3-43c-19.5-5.6-33.9-13.4-46.2-30.3c-12.1-16.6-4.8-36.7-12.9-54.9
	c-7.6-17-24.6-27.8-31.6-44.3c-7.2-16.9-6.2-40-10.9-58c-8.7-33.2-19.9-72.3-20.6-106.4c-0.4-18.2-0.5-39,2.2-57
	c2.8-18.6,4.6-35.9,5.8-55.1c1.1-18.2-2.6-35.8,0.7-52.9c3.5-18.3,17.3-34.5,24.3-51.5c15-36.5,17.5-69.7,49.8-95.1
	c5.6-4.4,13.5-6.6,18.7-11.2c7.5-6.6,11.1-19.5,15.8-28.1c9-16.6,18.9-33.3,31.9-47.2c13.8-14.8,33-12.7,49.2-23
	c16.7-10.6,30.3-16.5,49.2-22.5c17.6-5.7,37.9-3.7,53.7-11.8c18-9.3,30.4-11.4,50.9-14.8c68.9-11.7,143.8,11.2,211.9,24.1
	c17.3,3.3,35.8,4.7,52.9,9c20.6,5.1,30.6,17.5,47,28.7c15.5,10.6,37,11.7,54.6,18.1c19.8,7.1,17.8,8.6,27.6,27.5
	c1.6,3.1,7.5,8.5,6.3,11.5c-3.2,7.7-22.4,2.9-27,10.2c-3.1,5,1.5,23.1,7,28.3c10.6,10.2,14.2,12.5,13.5,28.3
	c-0.9,20.3,4.6,36.9,27.8,39.3c8.4,0.9,19.3,5.2,27,2.5c9.2-3.2,26.8-3.8,38.5-6.9c17.4-4.6,32.7-13.7,51.2-16.7
	C984.7,281.4,997,269.2,1015.8,259.8z"/>
</svg>
