<?xml version="1.0" encoding="utf-8"?>
<!-- Generator: Adobe Illustrator 21.1.0, SVG Export Plug-In . SVG Version: 6.00 Build 0)  -->
<svg version="1.1" id="Layer_1" xmlns="http://www.w3.org/2000/svg" xmlns:xlink="http://www.w3.org/1999/xlink" x="0px" y="0px"
	 viewBox="0 0 144 288" style="enable-background:new 0 0 144 288;" xml:space="preserve">
<path d="M649.5,241.3l-6.2,6.1l-5.1,6.2l-1.7,2l-2,3.1l-4.6,5.3l-3.2,4.6l-2.9,4.3l-4.3,7.9l-1.2,1.6l-0.7,1.2l-2.4,4.3l-2.3,4
	l-3.2,6.7l-1.5,3.6l-3.6,11.1l-0.1,0.2l0,0.1l0,0.2l-3.5,11.2l-1,3.7l-0.8,5.5l-0.6,3.5l-0.8,6l-0.1,6.9l0,1.1l-0.1,7l0.8,6.2
	l0.4,2.9l0.7,5.8l1,4l2.9,9.8l0.3,1.2l0.2,0.6l0.6,1.3l3.1,9.9l1.2,3.1l3.4,7.3l0.5,0.8l3.6,6.8l1.2,2l2,2.8l3.5,6.7l2.3,3.5
	l3.8,5.5l5.5,6.5l1.2,1.9l1,1.2l5.7,7.1l7.1,7l0.4,0.5l0.5,0.4l7,7.1l7.1,5.8l1.1,1l1.5,1.1l6.8,5.7l5.7,3.7l3.2,2.4l5.7,3.2
	l3.7,2.4l2.4,1.3l7.2,4l1,0.4l6.8,3.2l2.4,1.2l6.8,2.4l4,1.8l1.8,0.6l3.6,1.2l5.8,2.1l5.7,1.7l6.2,1.5l3.2,0.6l5.6,1.2l3.7,0.6
	l8.6,1.1l2.7,0.4l2.1,0.2l11.4,0.7l1.5,0.1l1.4,0l12.2-0.1l1.4,0l1.6-0.1l11.1-0.8l2.3-0.2l3-0.5l8-1l4-0.6l5.9-1.3l2.7-0.5l6.4-1.5
	l5.6-1.5l5.6-1.8l3.8-1.1l2-0.6l5.5-2l5.7-1.8l1.8-0.7l4-1.5l5.2-1.8l5.8-2.5l4.8-2l9.9-4.8l0.2-0.1l0.1,0l0.3-0.1l10.2-4.3l4.6-2.3
	l5.6-2.6l8.1-4.2l1.3-0.7l0.5-0.2l0.9-0.5l9.4-4.2l4.2-2.1l5.8-2.8l7-3.7l2.1-1.1l0.7-0.3l1.3-0.7l8.9-4.1l4.1-2.1l5.9-3l7.5-4.2
	l1.6-0.9l0.5-0.3l0.8-0.5l9.1-4.6l4.6-2.7l4.8-2.8l6.9-4.8l2.1-1.2l1.2-0.8l6.1-4l1.8-1.1l7.2-5.6l1.2-0.9l1.4-1.2l7.1-5.3l5.3-5.1
	l2.4-2.1l2.2-2.4l5.4-5l5-6l2-2.1l1.5-2l5.3-6.2l4.7-7.2l1.1-1.5l0.2-0.3l0.3-0.5l5.8-8.5l3.1-5.8l2.2-4l4-9.5l0.5-1l0.2-0.5
	l0.4-1.2l3.8-8.9l1.6-4.9l1.9-6.6l0.5-2.3l1.5-6.1l0.7-3.8l1.2-8.5l0.4-2.7l0.2-2.1l0.7-11.5l0.1-1.4l0-1.3l-0.2-12.1l0-1.6
	l-0.2-1.8l-1-10.3l-0.4-2.9l-0.9-4.1l-1.1-5.8l-1.2-5.1l-2-6.7l-1-2.7l-1.9-5.6l-1-2.7l-2.7-5.5l-1.9-5l-1-1.9l-3.1-6l-1-2l-4.4-7
	l-1.4-2.2l-2.2-2.9l-3.9-6l-3.4-3.9l-3.4-4.4l-4.4-4.4l-2.9-3.4l-3.4-2.9l-4.3-4.4l-4.4-3.5l-3.9-3.3l-5.9-3.9l-2.9-2.3l-2.3-1.4
	l-6.9-4.4l-2.5-1.2l-5.7-3l-1.7-0.9l-4.4-1.7l-5.9-3l-3-1.2l-6.5-2.4l-1.4-0.5l-7.1-2.3L990,123l-7.7-1.6l-2.8-0.7l-1.9-0.3l-13-1.8
	l-0.1,0l-0.1,0l-1.5-0.1l-12.4-1l-1-0.1l-1.1,0l-12.9,0.1l-1,0l-1,0.1l-11.4,1l-2.5,0.2l-0.2,0l-0.2,0l-12.9,1.6l-1.8,0.3l-2.7,0.6
	l-8.1,1.4l-4.1,1l-6.9,1.8l-1,0.2l-7.1,2l-4.6,1.3l-9,3.2l-1.4,0.4l-0.7,0.2l-2,0.7l-9.3,3l-3,1.2l-6.4,2.3l-1.6,0.5l-7,2.8
	l-3.9,1.4l-9.2,3.9L815,149l-0.5,0.2l-1.2,0.5l-9.2,3.3l-4.5,1.9l-6.2,2.4l-4.5,1.9l-4.3,1.8l-1.8,0.7l-4.3,1.8l-6.5,2.4l-2.4,1
	l-5.6,2.2l-2.7,1l-6.6,2.9l-3.9,1.6l-8,3.9l-2.2,0.9l-0.9,0.4l-2.4,1.1L730,184l-5.5,2.8l-4.4,2.2l-7.5,4.4l-2,1l-1,0.6l-3.7,2.1
	l-4.9,2.6l-6.4,4.2l-2.7,1.7l-3.6,2.7l-5.3,3.4l-3.4,2.7l-5.2,3.7l-5.9,5.2l-2.2,1.7l-1.7,1.7l-6.3,5.3l-6.1,6.3l-1.3,1.2
	L649.5,241.3"/>
<path d="M629.7,403.5l1.5,3.4l3.4,6.4l1.5,3.8l0.7,1.5l2.7,4.8l1.8,3.5l4.3,6.6l1.6,2.4l2.4,2.8l3.9,5.9l3.3,3.9l3.5,4.3l4.3,4.1
	l3.1,3.6l3.5,3.1l4.3,4.1l4.1,3.2l4.1,3.6l6.2,4.1l2.7,2l2,1.2l7.1,4.6l1.6,0.8l6.3,3.4l1.9,1l4.6,1.9l5.6,2.9l2.9,1.2l6.5,2.4
	l1.5,0.6l7.1,2.3l4.4,1.2l7.9,1.7l2.7,0.7l1.7,0.3l12.6,1.7l0.5,0.1l0.1,0l0.1,0l13.6,1.1l1.3,0.1l1.3,0l12.5-0.1l1.2,0l1.1-0.1
	l10.6-1.1l3-0.2l0.2,0l0.3-0.1l12.5-1.8l2.1-0.4l3.4-0.8l6.9-1.4l4.8-1.3l6.9-2.1l2-0.7l6.1-2.1l3-1l7.1-3l3.6-1.3l1.3-0.6l3.1-1.3
	l6.3-2.4l5.6-2.7l4.7-2.1l8.9-4.7l0.9-0.4l0.4-0.2l1.2-0.6l8.6-3.9l5.1-2.7l4.9-2.3l9.1-4.9l0.7-0.3l0.3-0.2l1-0.4l9.1-4l5-2.5
	l5.2-2.4l9.4-4.8l0.4-0.2l0.1-0.1l0.3-0.1l10.2-4.4l4.4-2.1l5.7-2.8l7.8-4.3l1.4-0.8l0.4-0.2l0.7-0.4l9.3-4.6l4.6-2.6l4.9-2.9l7-4.9
	l2-1.1l1.1-0.8l5.8-4l2-1.3l7.1-5.9l1.1-0.9l1.2-1.1l7.1-5.6l5.6-5.8l1.8-1.7l1.6-1.8l5.8-5.8l5.8-7.8l0.6-0.7l0.4-0.6l3.2-4.2
	l2.9-3.7l4.3-7.1l1.4-2.2l2.2-4.7l3-5.1l1.4-3l3.2-7.4l0.1-0.3l2.7-7.3l1.1-3.4l2.6-10.8l0.2-0.8l0.1-0.5l0.5-3.1l2-9.5l0.3-2
	l0.2-2.5l0.9-9.2l0.3-3.3l-0.1-3.5l-0.2-8.2l-0.1-3.3l-0.3-2.9l-1.6-10.8l-0.2-1.3l-0.2-1l-1-3.7l-1.7-8.6l-0.4-1.7l-1.1-3.2
	l-1.9-6.7l-2-5.1l-2.4-5.5l-4.8-8.7l-0.4-0.8l-0.1-0.2l-0.2-0.4l-5-9.4l-3.6-5l-2.6-3.8l-3.8-4.3l-2.9-4l-3-2.9l-4.3-4.8l-4.8-4.2
	l-3-3l-4.2-3l-4.2-3.7l-3.7-2.5l-5.1-3.7l-9.7-5.1l-0.1-0.1l-0.1,0l-0.2-0.1l-9.4-5.1l-5.4-2.4l-5.2-2l-6.5-2l-3.3-1.1l-1.7-0.5
	l-8-1.7l-4.1-1.2l-1.2-0.3l-1.7-0.3l-9.9-1.7l-3.4-0.5l-4.2-0.3l-6.2-0.4l-4.6-0.3l-4.8,0.1l-5.6,0.2l-4.6,0.1l-4.1,0.4l-7.7,1
	l-3.1,0.3l-2.4,0.4l-11.9,2.4l-0.5,0.1l-0.1,0l-0.1,0l-12.1,2.6l-2.7,0.8l-5.1,1.5l-3.8,1l-6.1,2.1l-5.1,1.7l-8.1,3.4l-1.7,0.7
	l-0.8,0.3l-1.9,0.8l-9,3.3l-3.3,1.5l-7.3,2.9l-0.6,0.3l-7,3.1l-2.8,1.1l-6.3,2.8l-4.3,1.7l-1.7,0.7l-4,1.6l-5.1,1.9l-5.9,2.5
	l-4.8,1.8l-9.5,4.1l-0.7,0.3l-0.3,0.1l-0.7,0.3l-10.3,3.7l-3.7,1.5l-7,2.8l-1.9,0.8l-6.1,2.6l-2.5,1l-5,2.5l-5.4,2.2l-2.2,1
	l-6.1,2.9l-2,0.9l-6.9,3.7l-2.8,1.5l-4.5,2.8l-5,2.6l-2.6,1.7l-6.6,4.1l-7,5.3l-1.3,1l-0.2,0.1l-0.3,0.2l-8.5,6l-6,5.5l-2,1.6l-2,2
	l-5.9,5.2l-5.2,5.9l-2,1.9l-1.7,2l-5.4,6l-6,8.7l-0.2,0.2l-0.1,0.2l-0.6,0.9l-5.6,7.6l-3.7,6.5l-1.7,3.1l-3.1,7.2l-1.7,3l-0.8,1.7
	l-1.7,4.2l-2,4.7l-2.2,6.2l-1.4,5.2l-1.2,5.8l-1,4l-0.4,2.6l-1.2,10.9l-0.2,1.4l0,1.2l-0.2,12.8l0,1l0.1,1.1l1,11.9l0.2,2l0.6,2.8
	l1.4,8l0.9,4.2l2.4,7.5l0,0L629.7,403.5"/>
<path d="M278.5,534.6l-3.9-0.7l-6.3-1.6l-2-0.4l-6.7-1.9l-4.7-1.6l-10-4.3l-0.4-0.1l-0.2-0.1l-0.3-0.2l-10.2-4.4l-4.4-2.5l-5.2-2.9
	l-7.3-5.2l-1.6-0.9l-0.9-0.7l-5.7-4.1l-2.1-1.4l-7.2-6.5l-0.8-0.6l-0.8-0.8l-7.1-6.3l-6.3-7.4l-0.6-0.6l-0.5-0.6l-6.5-7.4l-0.6-0.9
	l-4.8-6.7l-0.8-1.1l-1.1-1.9l-5.1-7l-3-5.1l-2.6-4.3l-4.3-8.8l-0.7-1.2l-0.4-0.7l-1.1-2.2l-3.7-7l-2.7-5.9l-2-4.5l-3.6-9.5l-0.4-1
	l-0.2-0.4l-0.4-1.2l-3.9-9.4l-1.5-3.9l-2.6-7l-0.4-1.4l-2.3-6.6l-1.1-3.2l-3.2-10.2l-0.4-1.2l-0.1-0.4l-0.3-0.9l-3.5-9.7l-1.4-4.4
	l-2.3-6.8l-0.5-1.8l-2-6.3l-1.1-3.3l-3.1-11.5l-0.1-0.2l0-0.1l-0.1-0.4l-3.3-11.2l-0.8-3.3l-1.2-5.3l-0.9-3.5l-1.3-6.2l-1.1-6.4
	l-0.3-2.5l-1-6.1l-0.5-4.6l-0.5-6.2l-0.4-4.1l-0.1-3.6L98,242l-0.1-3.5L98,235l0.4-7.6l0.2-3.9l0.6-4.7l0.6-5l0.7-5.3l1.6-7.4
	l0.1-0.4l1.7-7.3l1.3-4.3l3.8-10.3l0.1-0.4l0.1-0.2l0.2-0.4l3.9-10.5l1.9-3.9l3.1-6l5.5-8.4l0.3-0.5l0.1-0.1l0.1-0.2l5.7-9l4.8-5.7
	l2-2.5l2.5-2.6l4.5-5.4l5.2-4.5l2.6-2.7l2.7-2.1l5.5-4.8l8.4-5.5l0.6-0.5l0.5-0.3l2.2-1.4l6.4-4.3l6.4-3.4L188,92l9.2-3.5l1.6-0.8
	l0.8-0.3l1.6-0.5l8.6-3.2l4.8-1.4l7.2-1.6l0.8-0.1l7.1-1.4l5-0.6l5.4-0.5l4.5-0.5l4,0l7-0.1l3.9,0l4.3,0.4l6,0.4l4.7,0.4l6.3,1.1
	l2.1,0.3l6.6,1.3l5.6,1.5l5.6,1.9l3.7,1.1l2,0.7l4.5,2l6.4,2.2l2.2,1l6,2.8l2.1,0.9l6.9,3.9l2.7,1.5l3.9,2.7l5.3,3.1l3.1,2.4
	l5.7,3.9l6.5,5.7l1.6,1.2l1.2,1.3l6.8,5.8l6.3,6.8l1,1l1,1.2l6.3,6.5l4.9,6.3l1.7,2.1l2.1,3.2l4.4,5.4l3,4.4l3.1,4.5l4.5,8l1,1.4
	l0.6,1l2.5,4.1l2.6,4.2l3.6,6.7l1.6,3.1l3.1,6.7l1.9,3.4l1,1.9l3,5.9l1.1,2.1l3.3,7l1.5,3.2l3.2,7.8l1.3,2.6l0.6,1.3l1.7,3.6
	l2.5,5.2l2.6,6.1l1.9,4.3L454,268l0.2,0.5l0.1,0.2l0.2,0.6l4.3,9.9l1.6,4.3l2.4,6.6l0.8,2.5l2,5.8l0.9,2.9l2.9,11.2l0.2,0.6l0.1,0.2
	l0.1,0.4l3,11.2l0.8,3.4l0.8,5l0.8,4.3l0.9,5.8l0.6,7.3l0,0.4l0.6,7.3l0,7.2l0,0.6l0,7.2l-0.7,7.1l-0.1,1l-0.7,7l-1,5.2l-1.2,5.7
	l-0.8,4L472,406l-2.5,7.5l-1,4l-0.3,1l-0.7,2l-2.8,8.2l-1.9,4.8l-2.7,5.6l-5,8.7l-0.4,0.7l-0.1,0.2l-0.2,0.3l-5.1,9.4l-3.5,5.1
	l-2.6,3.7l-3.7,4.3l-2.8,4.1l-2.5,2.8l-4.4,5.2l-5.2,4.8l-2.3,2.6l-2.8,2.3l-5.1,4.8l-4.8,3.6l-3.6,3l-5.7,3.6L397,511l-2.5,1.4
	l-6.8,4.3l-2.5,1.2l-5.7,2.9l-1.8,0.9l-4.8,1.8l-5.6,2.7l-2.7,1l-5.6,1.9l-2.7,1l-6.7,2l-5.1,1.2l-5.7,1l-4.1,0.9l-2.9,0.4l-10.3,1
	l-1.9,0.2l-1.6,0l-12,0.2l-1.4,0l-1.4-0.1l-11.4-0.7l-2.1-0.2l-2.8-0.5L278.5,534.6"/>
<path d="M149.9,133.5l-5.1,5.2l-5.2,7.5l-1.1,1.2l-0.7,1.1l-4.1,5.9l-1.4,1.9l-4.1,7.2l-1.3,2.4l-2.4,5.9l-2.3,4.4l-1,2.3l-1.9,5.1
	L118,187l-2.1,6.5l-1.3,5.1l-1.1,5.9l-0.9,4l-0.4,2.7l-1.2,10.7l-0.2,1.5l0,1.3l-0.4,12.8l0,0.9l0.1,0.9l0.5,12.7l0.1,1.4l0.2,1.7
	l1.1,10.5l0.4,2.8l0.8,4l1,6l1.1,5l1.8,7.2l0.3,1l1.9,6.8l1.1,3.9l3.8,11.1l0,0.1l0,0l0,0.1l3.4,11.5l1.3,3.4l2.3,7l0.2,0.7l2.6,7.2
	l1.3,3.9l3.9,10.3l0.2,0.6l0.1,0.2l0.1,0.4l3.3,10.9l1.2,3.7l2.4,7.4l0,0.1l2.6,7.5l1.3,3.7l3.7,9.2l0.5,1.7l0.2,0.5l0.4,1.1
	l3.4,9.4l1.9,4.5l2.7,6l3.5,6.6l1.2,2.5l0.4,0.8l0.8,1.3l4.3,8.7l2.6,4.3l3.1,5l5,6.5l1.3,2.2l1.1,1.3l5.4,7.1l7.1,7.3l0.2,0.3
	l0.3,0.2l7.1,7.4l7.4,6l0.8,0.8l1.2,0.8l7.1,5.8l5.8,3.6l3.4,2.2l7,3.4l2.9,1.7l1.7,0.8l4.6,2.1l3.8,1.9l6.5,2.5l4.5,1.5l7.9,1.9
	l2.6,0.7l1.5,0.3l10.1,1.5l2.8,0.6l0.6,0.1l0.7,0.1l12.4,1.1l1.8,0.1l1.9-0.1L318,525l1.5,0l1.3-0.2l8.2-1.3l5-0.6l0.6-0.1l0.9-0.2
	l11-2.2l3.1-0.9l6-2.1l2.2-0.7l6.7-2.7l3.9-1.7l7-3.9l2.8-1.2l1.2-0.8l4.8-2.8l3.5-1.9l6.7-5l2-1.3l2.3-2l6.1-4.6l4.6-4.7l3.1-2.7
	l2.8-3.1l4.5-4.6l4.6-6.4l1.9-2.1l1.4-1.9l4.9-6.8l1.7-3.2l3-5.1l0.7-1.3l1.3-3.1l3.8-6.7l1.8-3.8l2.7-6.7l0.8-2.4l2.1-5.9l0.8-3
	l2.6-11.6l0.1-0.4l0-0.3l0.3-2.1l2-10.7l0.3-2l0.2-2.5l0.6-9.4l0.2-3.1l-0.1-3.3l-0.3-8.8l-0.1-2.9l-0.3-2.6l-1.5-11.3l-0.1-1.1
	l-0.1-0.8l-0.8-3.7l-1.5-9l-0.3-1.5l-0.6-2.5l-1.8-8.2l-1.2-4.3l-2.2-7.2l-0.3-0.9l-2.4-6.9l-1.2-3.4l-3.4-8.3l-0.8-2.5l-0.3-0.8
	l-0.7-1.9l-2.9-8.4l-2-4.8l-2.3-5.9L428,257l-1.5-3.5l-0.6-1.4l-1.4-3.2l-2.8-7.6l-1.1-2.8l-2.6-6.5l-0.6-1.5l-3-7L413,220l-3.5-7.2
	l-1.2-3.1l-0.5-1.2l-1.3-3l-2.7-6.3l-2.8-5.7l-2.2-4.3l-4.3-7.2l-1.1-2.4l-0.6-1.1l-2.4-4.1L388,170l-4.4-6.5l-1.7-2.4l-2.4-2.9
	l-3.8-5.8l-3.2-3.8l-3.6-4.4l-4.4-4.3l-2.8-3.4l-3.1-2.8l-4.5-4.6l-4.6-3.6l-3.5-3.3l-5.3-3.5l-3.4-2.7l-2.7-1.7l-6.3-4.2l-4.7-2.3
	l-4-2.2l-1.2-0.7l-3-1.2l-7.1-3.6l-3.6-1.4l-7.3-2.6l-0.4-0.1l-7.2-2.2l-4.1-1l-8.3-1.4l-2.6-0.6l-1.9-0.2l-12.3-1l-0.8-0.1l-0.7,0
	l-13.5,0.1l-0.8,0l-0.9,0.1l-12.1,1.1l-2,0.2l-2.9,0.6l-7.8,1.4l-4.3,1l-7.3,2.4l-0.8,0.3l-7,2.6l-3.1,1.3l-5.6,3.1l-4.4,1.8
	l-1.8,1.1l-6.9,4l-0.8,0.4l-7.3,5.3l-1.4,1l-1.6,1.4l-6.9,5.1l-5.1,5.2L152,131L149.9,133.5"/>
<path d="M694.5,465.1l7.2,5.6l0.3,0.3l7.5,4.6l1.8,1.2l3.9,1.8l5.8,3.5l3.5,1.6l6.9,3l1.6,0.5l6.4,2.4l3.1,1l11.6,2.7l0.3,0.1l0.2,0
	l1.4,0.2l11.2,2.3l2.3,0.4l2.9,0.2l8.5,0.8l3.6,0.3l3.8-0.1l7.5-0.2l3.7-0.1l3.3-0.3l9.6-1.2l2.1-0.2l1.6-0.3l7.3-1.6l5.3-0.9
	l0.9-0.2l1.5-0.4l9.7-2.3l3.8-1.2l7.4-2.5l0.2-0.1l7.3-2.9l3.2-1.2l6.6-3.2l3.7-1.5l1.5-0.8l4.2-2l4.5-2l6.2-3.4l3.7-1.8l6.4-3.7
	l3.3-1.6l1.6-1l5.3-2.6l3-1.4l6.7-3.7l3.1-1.5l5.8-3.1l4.2-1.9l1.9-1l5.2-2.3l3.3-1.4l6.6-3l3.8-1.6l8-3.8l2.3-0.9l0.9-0.4l2.1-0.9
	l7.7-3.1l5.2-2.3l5.2-2.4l9.6-5l0.2-0.1l0.1,0l0.1-0.1l10.1-4.7l4.7-2.7l4.7-2.8l6.6-4.7l2.3-1.3l1.3-0.9l7.5-5.3l0,0l7.5-6.6
	l0.5-0.4l0.5-0.5l7.6-6.4l6.4-7.4l0.6-0.6l0.5-0.6l6.6-7.4l0.4-0.6l4.8-7l1-1.3l1.3-2.3l4.6-6.8l2.4-4.6l2.7-5.3l2.6-7l1.1-2.7
	l0.4-1.1l1.1-4l2.7-7.2l0.8-2.7l0.9-4.3l1.3-5.1l1.1-5.6l0.7-7.3l0-0.3l0.7-7.4l-0.1-7.1l0-0.7l-0.1-7.2l-0.9-6.8l-0.3-1.6l-0.9-6.6
	l-1.1-4.6l-2.4-8.3l-0.6-2.1l-0.4-1.2l-1.2-2.8l-2.6-8.4l-1.2-2.6l-3.5-7.3l-0.1-0.3l-4.3-7.4l-1.2-2.1l-2.1-2.7l-3.8-6.4l-3.3-3.8
	l-3.4-4.4l-4.4-4.4l-2.8-3.3l-3.5-2.8l-4.4-4.3l-4.3-3.3l-4.1-3.3l-7-4.1l-2.3-1.7l-1.7-1l-6.2-3.5l-1.7-1l-7.2-3.4l-3.1-1.3
	l-9.9-3.1l-1.4-0.6l-0.6-0.2l-1.1-0.3l-9.9-2.9l-4-1l-5.9-0.9l-2.7-0.5l-6.4-0.9l-7.4-0.4l-0.3,0l-7.3-0.4l-7.3,0.3l-0.3,0l-7.3,0.4
	l-6.5,0.8l-2.5,0.4l-6,0.8l-4.3,0.9l-8.7,2.3l-2,0.4l-1.2,0.3l-3.7,1.2l-8,2.1l-2.1,0.8L885,153l-4.6,1.4l-5.9,2.5l-4.8,1.8
	l-9.8,4.8l-0.3,0.1l-0.1,0.1l-0.3,0.2L849,168l-4.5,2.3l-5.7,2.5l-7.6,3.9l-1.8,0.9l-0.6,0.3l-1.4,0.6l-9.2,3.7l-3.7,1.7l-6.8,2.7
	l-2.3,1l-5.8,2.4l-2.5,0.9l-5.9,2.5l-4.9,1.7l-1.7,0.6l-3.6,1.3l-5.8,2l-5.6,2.1l-5.2,2l-8.2,3.6l-1.6,0.7l-0.7,0.3l-1.3,0.7
	l-9.3,3.7l-3.7,1.7l-6.4,3.1l-5.2,3.1l-3.4,1.9l-1,0.5l-1.4,1L714,228l-4.4,3.1l-4.5,3l-5.4,4.5l-3.1,2.1l-2.1,1.9l-6,4.9l-5.8,6
	L681,255l-1.5,1.8l-5.8,5.9l-4.5,5.8l-2.1,2.6l-2.6,4.3l-3.6,4.6l-2.2,3.6l-3.5,5.8l-2.7,6.2l-1.5,3l-0.5,1.1l-1.1,3.1l-3.4,7.4
	l-1.2,3.4l-1.8,6.5l-0.5,1.6l-1.8,7l-0.8,5.4l-0.6,4.7l-0.7,4.8l-0.1,4l-0.2,7.2l-0.1,3.8l0.3,4.1l0.5,6.4l0.4,4.5l1.2,6.2l0.4,2.3
	l1.4,6.6l1.7,5.4l2.7,7l0.9,2.6l0.5,1.2l1.2,2.2l3.3,8.3l1.7,3.3l3.6,6.4l5.7,7.8l0.5,0.8l0.1,0.1l0.1,0.2l6,8.7l5.7,6l1.5,1.8
	l1.8,1.6l5.7,6l7.3,5.7l1.1,1L694.5,465.1"/>
<path d="M294,513l-4.5-0.4l-3.5-0.6l-10.5-2.5l-1-0.2l-0.6-0.2l-1.7-0.6l-10-2.7l-2.7-1l-6.5-2.8l-1.5-0.6l-7-3.7l-2.8-1.5l-4-2.8
	l-5.3-2.9l-2.9-2.2l-5.8-4.1l-6.2-5.8l-1.7-1.3l-1.3-1.5l-6.3-5.9l-5.2-6.3l-1.6-1.8l-1.8-2.8l-4.7-5.7l-3.1-4.7l-2.9-4.3l-4.3-8.7
	l-0.8-1.2l-0.4-0.8l-1.2-2.4l-3.6-6.7l-2.6-6l-1.8-4.6l-3-8.8l-0.6-1.6l-0.2-0.8l-0.8-2.8l-3.1-8.3l-1-3.1l-1.9-6l-0.7-2.3l-2-6.7
	l-1.5-4.8l-2.2-7.6l-0.8-2.6l-0.5-1.4l-1.4-4.6l-2.4-6.6l-0.8-2.4l-2-5.3l-1.3-3.2l-2.3-6.6l-1.8-4.3l-3.2-9.6l-0.4-1.1L140,313
	l-0.5-1.5l-3.8-9.3l-1.2-3.8L132,291l0-0.1l-2.2-7.5l-1.2-4.1l-1.7-8.6l-0.6-2.4L126,267l-1.5-10.7l-0.4-2.4l-0.1-0.4l0-0.5
	l-1.1-12.8l-0.1-1.7l0-1.7l0.3-11.9l0-1.4l0.2-1.2l1.2-8.3l0.5-4.9l0.1-0.5l0.2-0.8l2.2-11.3l0.8-3l2-5.7l0.8-2.7l2.6-6.5l1.8-4
	l4-6.8l1.3-2.9l0.8-1.3l3.3-5.4l1.5-2.7l5.6-6.9l1.1-1.4l1.4-1.5l5.4-6.7l6.3-5.4l1.6-1.7l1.7-1.3l6.5-5.6l5.1-3.1l3.4-2.2l0.7-0.5
	l1.5-0.7l7.9-4.9l4.9-2.3l5.5-2.3l5.7-1.7l3.8-1.3l1.9-0.5l9.6-1.9l2.7-0.8l0.8-0.2l1-0.1l11.4-1.5l2.6-0.3l2.9,0l9.3,0.1l2.8,0
	l2.6,0.3l11.6,1.7l0.9,0.1l0.6,0.1l2.3,0.6l10,2l2,0.6l4,1.4l5.4,1.6l5.6,2.4l4.8,2.2l8,4.8l1.5,0.7l0.7,0.5l3,1.9l5.7,3.3l6.3,5.1
	l2.1,1.5l2.3,2.1l5.9,4.7l4.7,5.3l2.6,2.4l2.2,2.6l4.9,5.3l5.3,8l0.8,0.9l0.5,0.8l3,4.3l2.7,3.7l4,7l1.4,2.6l2.6,5.9l2.4,4.1
	l1.2,2.4l3,6.6l0.6,1.2l3,7.2l1.3,3.5l3.5,10.5l0.3,0.7l0.1,0.3l0.2,0.6l3.9,9.9l1.6,4.5l2.4,6.5l1,3l1.9,5.5l1,2.6l2.6,7.5l1.5,3.4
	l0.6,1.5l1.4,3.5l2.5,5.6l2.3,5.9l2.1,4.7l3,8.5l0.7,1.7l0.3,0.7l0.7,2.3l3.5,8.5l1.2,3.5l2.4,7.1l0.2,0.5l2.2,7.3l1.2,4.3l1.6,7.9
	l0.7,2.7l0.3,1.8l1.7,13.2l0,0l0,0l0,0.6l1,13.4l0.1,1l0,1L440,388l0,0.5l-0.1,0.4l-0.4,2.4l-1.3,11l-0.2,1.3l-0.5,1.9l-1.9,9.2
	l-1,3.9L432,426l-0.1,0.2l-3,7.4l-1.4,3l-3,4.9l-2.2,4.9l-1.3,2.2l-4.4,7.1L413,460l-2.8,3.5l-0.3,0.4l-0.4,0.4l-6.2,7.9l-7,6.2
	l-0.9,0.9l-0.9,0.7l-7.1,6.4l-2.3,1.5l-5.6,3.8l-1,0.8l-2,1l-7.2,4.7l-4.7,2.3l-5.4,2.6l-6.4,2.2l-3.2,1.3l-1.5,0.5l-6.3,1.5
	l-5.5,1.8l-1.8,0.4l-2.6,0.4l-8.2,1.5l-4.2,0.6l-5,0.2l-4.9,0.2l-5.2,0.2l-5-0.4L294,513"/>
<path d="M715.3,463.5l5.5,3.8l3.8,2l6.1,3.1l4.3,1.5l4.6,1.9l2,0.7l7.5,2l4.1,1.5l1.5,0.4l2.4,0.5l8.4,1.9l4.3,0.8l5.5,0.5l3.6,0.4
	l5.9,0.5l6.2-0.1l2.7-0.1l6.1-0.1l5.3-0.6l5.2-0.8l4.5-0.6l3.2-0.7l11.7-3.1l0.1,0l0.1,0l0.2-0.1l11.6-3.2l3.2-1.2l7.4-2.9l0.2-0.1
	l7.4-3.5l2.8-1.2l5-2.8l4.9-2.3l2.3-1.4l7.4-3.9l0.6-0.4l7-4.4l1.7-0.9l2.7-1.7l6.8-3.7l3.7-2.4l5.8-3l8.1-4.8l1-0.6l0.3-0.1
	l0.6-0.3l9.8-4.3l4.3-2l6.3-2.5l4.2-1.7l4.5-1.8l1.9-0.8l4.6-1.9l6.4-2.1l2.1-0.7l4.3-1.6l4.7-1.6l6-2.3l4.7-2l9.5-4.7l0.6-0.2
	l0.2-0.1l0.6-0.3l9.5-4.3l4.9-2.8l4.6-2.7l6.1-4.6l2.8-1.6l1.6-1.2l7-5.2l7.3-7l0.4-0.3l0.3-0.3l7.4-7l5.8-7.4l0.9-0.9l0.9-1.5
	l5.6-7l3.3-5.6l2.3-3.8l3.8-8.9l0.8-1.5l0.4-0.8l0.7-1.9l3.4-7.8l1.7-5.3l1.6-6.4l0.5-2.7l1.3-5.9l0.5-4.1l0.6-7.3l0.4-3.6l-0.1-3.2
	l-0.1-8.4l-0.1-3.4l-0.6-4l-0.7-6.3l-0.7-4.7l-1.9-7.3l-0.1-0.3l-2.2-7.4l-1.5-4l-4-8.1l-0.8-2.2l-0.4-0.8l-1.3-2.5l-3.2-6.8
	l-3.9-5.7l-2.1-3.2l-3.2-3.7l-3.3-4.8l-3.5-3.3l-3.8-4.4l-4.4-3.7l-3.5-3.4l-5.3-3.5l-3.3-2.8l-2.8-1.8l-6.3-4.1l-4.4-2l-4.3-2.2
	l-1.4-0.7l-4.2-1.4l-6.4-3l-3-1.1l-5.7-1.6l-2.8-0.9l-6.6-1.7l-5.9-0.9L970,154l-5.4-0.8L960,153l-6.2-0.2l-4.3-0.1l-4.5,0.4
	l-5.6,0.3l-4.8,0.4l-6.3,1.1l-2.1,0.3l-6.6,1.3l-5.7,1.4l-5.5,1.8l-3.9,1.1l-2.1,0.7l-5,2.1l-6,1.9l-1.9,0.9l-4.9,2.1l-3.8,1.4
	l-6.3,3.3l-3.7,1.7l-6.5,3.7L861,180l-1.5,1l-5.1,2.6l-3.3,1.5l-6.6,3.9l-3,1.4l-5.5,3l-4.4,2.1l-2.1,1.1l-5.6,2.4l-2.7,1.1l-6.7,3
	l-3.8,1.4l-9.5,3.8l-1.2,0.4l-0.4,0.1l-0.8,0.2l-10.3,3.1l-3.9,1.3l-7.4,2.4l-0.4,0.1l-7.3,2.5l-3.5,1.3l-8.1,3.5l-2.6,0.8l-0.8,0.3
	l-2,0.8l-8,3.1l-5.1,2.4l-5,2.5l-8,5l-1.4,0.6l-0.6,0.4l-2.8,1.7l-5.9,3.4l-6.2,4.9l-2.2,1.6l-2.4,2.2L699,258l-4.5,4.8l-3,2.7
	l-2.5,3l-4.6,4.8l-4.8,7.2l-1.4,1.6l-0.9,1.4l-4.8,7l-0.4,0.5l-4,7.4l-1.2,2.4l-2.4,6.5l-2,4.1l-0.8,2l-1.3,4.1l-1.8,4.9l-1.6,5.9
	l-1.1,6.3l-0.3,2.7l-1,6l-0.2,4.8l-0.2,5.5l-0.2,4.6l0.4,4.9l0.3,5l0.4,5.2l1.5,7.1l0.1,0.7l1.6,7.2l1.5,4.7l4,9.7l0.2,0.7l0.1,0.3
	l0.3,0.5l4.1,10l2.4,4.1l3.2,5.3l5.3,6.7l1.1,1.9l1,1.1l5.7,7.2l7.2,6.7l0.5,0.6l0.6,0.5l7.1,6.7l6.7,4.7l2,1.6L715.3,463.5"/>
<path d="M1046.3,208.5l3.8,4.5l4.5,8.2l1,1.4l0.5,1l1.6,3.2l3.1,5.5l2.6,6.3l1.6,4.5l1.8,7.8l0.8,2.7l0.3,1.6l1.6,13.1l0.1,0.3
	l0,0.1l0,0.1l0.3,14.6l0,0.4l0,0.3l-0.3,2.4l-1,11.2l-0.1,1l-0.4,1.6l-2,9.8l-1.1,3.6l-2.8,7.5l0,0l-3.5,7.5l-1.3,2.7l-2.7,4.1
	l-2.7,5.5l-2.1,2.7l-4.1,6.1l-6.1,6.5l-1.1,1.4l-1.3,1.1l-6.1,6.6l-6.6,5.2l-1.7,1.5l-2.9,1.7l-5.8,4.6l-4.6,2.8l-4.7,2.8l-9.9,4.4
	l-0.4,0.2l-0.1,0.1l-0.4,0.1l-9.8,4.7l-4.7,1.9l-6.4,2.1l-3.2,1l-5.4,1.7l-3,0.8l-11.7,3l-0.3,0.1l-0.1,0l-0.2,0.1l-11,3.6l-3.8,1.2
	l-7.2,2.7l-0.9,0.3l-6.9,2.6l-2.8,1.4l-5.7,2.8l-4.1,2.4l-2.4,1.2l-6.7,4.7l-4.1,2.4l-4.2,2.6l-0.9,0.7l-1.3,0.9L880,439l-5.5,3.3
	L871,445l-6.4,3.5l-3.1,2l-2,1l-7.3,4.2L852,456l-7.5,3.5l-2.7,1.3l-8.4,2.7l-2.7,1.2l-1.2,0.4l-2.2,0.6l-8,2.6l-4.8,1.2l-7.2,1.2
	l-0.5,0.1l-7.3,1.1l-6.3,0.2l-2.4,0.1l-6.3,0.2l-6.6-0.6l-1.7-0.1l-6.7-0.6l-6.4-1.3l-3-0.8l-5.6-1.3l-3.3-1l-7.9-3.3l-2.9-0.9
	l-0.9-0.4l-2.3-1.1l-7.3-3l-5.3-3.3l-4-2.4l-4.9-4l-3.7-2.3l-2.3-2.2l-5.8-4.7l-5.1-5.8l-2.1-2l-2-3l-4.7-5.3l-3.1-4.7l-2.9-4.3
	l-4.3-9.6l-0.4-0.6l-0.2-0.4l-0.4-1l-4.1-9l-1.7-5.1l-1.6-6.6l-0.4-2.2l-1.4-6.2l-0.4-4.4l-0.4-6.6l-0.3-4l0.2-3.9l0.3-7l0.2-4.1
	l1-5.3l0.5-3.8l1.2-5.9l1.9-6.1l2-4.9l1.5-4l0.8-1.8l1.8-3.2l2.9-7.1l1.8-2.9l3.9-6.5l6.5-7.9l0.2-0.4l0.2-0.2l1.9-2.4l4.5-5.8
	l7.9-6.9l0.1-0.1l0.1-0.1l2.5-2.2l5.2-4.8l7.3-4.9l1.6-1.2l3.3-1.6l6-4.1l4.1-2.1l5.9-2.9l5.2-2l3.9-1.7l1.7-0.6l5.7-1.7l5.5-2.2
	l2.2-0.8l4.3-1.3l4.9-1.5l5.8-1.7l6-1.5l4-1l5-1.2l3-0.7l11.2-3l0.6-0.2l0.2-0.1l0.5-0.2l10-4.1l4.6-1.8l5.6-3l7.6-3.8l1.8-0.9
	l0.5-0.4l0.8-0.5l8.1-5.6l5.6-3.2l3.5-2.7l6.1-3.5l3.2-2.1l2.1-1.1l7.1-4.6l1.3-0.6l6.5-3.3l2-1.2l5.1-2l5.2-2.7l2.7-1l6-2.2
	l2.2-0.9l6.9-2.2l4.7-1.2l6.6-1.1l3.6-0.8l2.5-0.3l10.8-0.8l1.7-0.2l1.5,0l11.8,0.2l1.7,0l2,0.3l9.9,1.2l3.2,0.5l5,1.4l4.1,0.9
	l5.9,1.8l5.2,2.1l9.7,5.1l0.1,0.1l0,0l0.1,0l9.9,5l5,3.8l3.6,2.5l3.7,3.6l4.4,3.3l3.3,4l3.9,3.8L1046.3,208.5"/>
<path d="M405.4,448.5L401,455l-6.5,7.1l-0.6,0.8l-0.6,0.6l-6.6,7.2l-7.2,5.7l-1.1,1l-1.8,1.1l-6.8,5.3l-5.3,3l-4.2,2.4l-10.8,4.2
	l0,0l0,0l0,0l-10.8,4.2l-4.2,1.2l-6.6,1.2l-1.5,0.3l-6.9,1.2l-6.6,0.3L311,502l-6.5,0.3l-6.8-0.6l-1.3-0.1l-6.9-0.6l-6.2-1.3l-3.5-1
	l-5.3-1.2l-3.1-1l-7.2-3.1l-3.7-1.1l-1.1-0.5l-3.1-1.5l-6.2-2.6l-5.7-3.6l-3.6-2.1l-4.4-3.6l-4.3-2.7l-2.7-2.6l-5.3-4.3l-4.8-5.3
	l-2.5-2.3l-2.3-3.3L210,453l-3.1-4.5l-3.1-4.3l-4.3-8.4l-0.9-1.4l-0.5-0.9l-1.5-3l-3.2-5.8l-2.7-6.2l-1.7-4.4l-2.8-9l-0.6-1.6
	l-0.2-0.8l-0.8-3.5l-2.7-8l-0.8-2.7l-1.2-4.7l-1.2-4.5l-1.5-5.9l-1.5-6.1l-0.9-3.7l-1.3-5.2l-0.9-3.1l-3.1-10.9l-0.3-0.8l-0.1-0.3
	l-0.2-0.6l-4.1-9.8l-1.7-4.6l-2.8-5.9l-2-5.2l-1.6-3.9L156,312l-1.5-3.8l-3.2-6.6l-1.2-3.2l-3.2-7.5l0-0.1l-2.7-7.4l-1.3-3.5
	l-2.7-10.8l-0.2-0.8l-0.1-0.4l-0.4-2.3l-2.5-9.9l-0.4-2.5l-0.3-3.2l-1-7.5l-0.4-4.3l0-4.6l0-5.7l0-4.7l0.5-4.1l1.1-7.9l0.4-3
	l0.5-2.1l2.1-7.2l1-4.7l0.3-1l0.7-2l2.7-8.4l2.1-4.6l2.7-5.5l5.5-8.2l0.4-0.8l0.3-0.4l1.6-2.3l4.1-6.3l6.1-6.4l1.1-1.4l1.4-1.2
	l6.1-6.3l8.8-6.1l0.1-0.1l0.1-0.1l0.4-0.3l8.2-5.9l6.4-3.3l3.5-1.8l10.5-3.5l0.6-0.3l0.3-0.1l0.6-0.2l10.5-3.3l3.9-0.9l5.5-0.7
	l3.4-0.5l6-0.7l6.7,0.1l1.6,0l6.7,0.1l5.8,0.8l4.1,0.7l5.1,0.7l3.5,0.9l10.3,3.5l1,0.2l0.2,0.1l0.6,0.2l10.3,3.6l4.1,2.2l5.7,3
	l8,5.7l0.8,0.5l0.5,0.4l3.1,2.3l5.2,3.6l6.7,6.7l0.9,0.7l0.8,0.9l6.7,6.6l4.5,6.4l1.5,2l0.2,0.3l0.3,0.5l6.1,8.1l3.6,6.1l1.9,3.4
	l3.4,8.1l1.3,2.2l0.6,1.3l1.4,3.3l2.6,5.8l2.3,5.9l1.7,5.2l1.9,6.5l1,3.3l0.5,1.8l1.8,7.3l1.5,4.4l0.5,1.5l0.9,2.8l2.3,7.2l1.5,5
	l2.1,6.3l1.1,3.5l1.7,5.2l1,2.5l2.5,6.7l1.8,4.1l0.7,1.8l2.3,4.8l1.8,3.6l2.8,6.6l1.9,3.7l3.7,9.8l0.5,1l0.2,0.5l0.4,1.1l4,8.8
	l1.8,5.1l2.1,6.1l0.9,3.7l1.5,5.2l0.7,2.9l1.8,10.9l0.2,1.1l0.1,0.8l0.8,9.3l0.5,4.4l0,0.5l0,0.6l-0.1,14l0,0.4l0,0.4l-0.4,2.5
	l-1.1,11l-0.1,1.1l-0.4,1.7l-2,9.7l-1,3.7l-2.7,7.4l0,0.2l-3.2,7.4l-1.4,2.9l-2.9,4.4l-2.5,5.2L405.4,448.5"/>
<path d="M739.5,449.2l1.2,0.5l8.5,4.2l5.3,1.9l6.1,1.6l3.3,0.6l5.6,1.3l3.9,0.4l7.7,0.5l3.4,0.3l3.3-0.2l8.2-0.3l3.5-0.2l4.6-0.9
	l5.1-0.7l5.3-1.1l6.6-2l3.2-1.3l5.2-1.9l2.4-0.9l4.5-2.4l5.8-2.3l2.3-1.5l7.2-4l2.2-1.7l5.6-4.1l0.9-0.6l1.2-0.9l7.7-5.2l5.2-4.9
	l2.9-2l3.3-2.9l4.9-3.9l3.9-3.8l4.4-2.9l5.9-4.4l2.8-1.9l1.9-1.3l5.5-2.3l2.8-1.2l6.7-2.7l4.3-1.2l8.3-2l2.4-0.6l1.4-0.3l7-1.4
	l5.7-0.8l0.8-0.1l1.1-0.2l10.8-1.9l3-0.5l4.8-1.3l4.3-1l5.9-1.7l5.4-2l7.8-3.7l1.8-0.8l0.7-0.3l1.1-0.7l9.2-4.1l4.1-2.6l5-3.2l5.7-5
	l2.6-1.7l1.7-1.8l6.1-5.4l4.9-6.1l2-2l2-3.3l4.3-5.4l2.4-4.3l3-5.2l2.6-7.1l1.2-2.7l0.4-1.1l1.1-4.7l2.4-6.8l0.6-2.4l0.5-3.5
	l1.2-6.8l0.6-4.7l-0.1-5.2l-0.1-4.7l-0.1-5.1l-0.7-4.3l-1.7-8l-0.5-2.7l-0.5-1.7l-1.7-4.3l-1.9-7.2l-0.8-1.9l-2.4-5.1l-1.4-3.4
	l-4.1-6.5l-1.7-2.8l-2.8-3.2l-3.6-5.5l-3.8-3.6l-3.5-4.1l-4.1-3.3l-3.9-3.7l-6.7-3.9l-2.4-1.9l-1.9-1.1l-6.9-3.8l-0.8-0.5l-7.3-3.2
	l-3.3-1.2l-11-2.6l-0.7-0.2l-0.4-0.1l-3.6-0.4l-9.4-1.7l-1.7-0.2l-1.9,0l-11.1,0l-2,0l-1.8,0.2l-10.8,1.8l-2.2,0.2l-0.2,0l-0.4,0.1
	l-11.7,2.5l-2.9,1l-6.3,2.4l-1.8,0.6l-6.9,3.4l-3.2,1.5l-5,3.2l-4.5,2.2l-2.2,1.7l-6.8,4.2l-8.1,6.8l-0.1,0l0,0l-0.3,0.2l-8.5,6
	l-6.2,5.8l-1.8,1.2l-2.4,1.8l-6.4,4.4l-4.4,3.4l-4.9,2.4l-9.9,4.9l-0.1,0l0,0l-0.1,0l-11.9,2.9l-3,0.6l-4.2,0.6l-5.6,1l-5.2,0.7
	l-7.2,1.2l-0.6,0.1l-7.3,1.2l-5.3,1.3l-6.1,1.6l-3.6,0.9l-2,0.7l-5.2,2l-6.1,1.7l-1.7,0.6l-4,1.7l-5.1,1.9l-5.9,3.2l-3.8,2.1
	l-5.1,3.8l-4,2.1l-2.1,1.8l-6.3,4.7l-6,6.3l-1.5,1.2l-1.2,1.6l-6,6.2l-4.1,6l-2.1,2.8l-2.8,6l-2.4,3.7l-1.2,2.4l-2.7,6.3l-0.8,1.6
	l-2.5,7.1l-1.1,4.4l-1.2,7.4l-0.7,3.2l-0.2,2.3l-0.5,10.8l-0.1,1.8l0.2,1.9l0.7,10.5l0.3,2.6l0.9,3.8l1.2,6.3l1.4,4.9l2.4,6.3l2.6,5
	l1.7,3.7l0.7,1.3l1.3,1.8l4,7.9l3.2,4l3.3,4.5l4.5,4.3l2.7,3.4l3.6,2.7l4.4,4.2l4.2,2.9l4.5,3.4l9.4,4.5l0.7,0.4L739.5,449.2"/>
<path d="M364.5,243.1l1.9,8.5l0.5,1.9l0.9,3.2l1.8,6.7l1.4,5l2.4,6.2l1.4,3.9l1.8,4.8l1.1,2l2,4.3l3.1,5.7l1.4,3.1l4,6.5l1.6,3.5
	l2.5,5l1,1.5l1.5,3.5l3.5,6.4l1.4,3.5l3.1,7l0.5,1.6l2.3,6.5l1,3.1l2.3,11.1l0.2,0.8l0.1,0.5l0.5,4l1.6,9l0.2,1.6l0,1.8l0.3,11.2
	l0,2.1l-0.2,1.9l-1.8,13.1l0,0l0,0l0,0L407,416l-0.7,2.5l-2.1,5.4l-1,3.1l-3.1,6.5L398,437l-3.5,4.8l-2.3,4.4l-1.9,2.3l-4.6,6.2
	l-6.2,5.9l-1.3,1.6l-1.8,1.3l-6.1,5.8l-5.8,3.8l-3.1,2.3l-6.8,3.1l-3.1,2l-2,0.9l-4.8,2L341,485l-6.5,2.2l-5.1,1.2l-5.6,0.9
	l-4.3,0.9l-3.2,0.2l-8.9,0.4l-2.9,0.2l-3-0.3l-8.4-0.6l-3.6-0.4l-5.2-1.2l-3.9-0.7l-5.9-1.6l-5.5-2l-8.3-4.2l-1.2-0.6l-0.4-0.2
	l-0.7-0.4l-9.3-4.6l-4.6-3.5l-4.1-2.8l-4.2-4.1l-3.8-2.9l-2.9-3.6l-4.4-4.2l-3.3-4.4l-3.3-4l-4-7.4l-1.5-2.1l-0.9-1.5l-2.8-5.3
	l-1.6-2.8l-3.1-6.9l-1.4-3.7l-3-10.7l-0.2-0.6l-0.1-0.3l-0.3-1.7l-2.9-10l-0.7-2.9L195,384l-1-5.1l-1.1-5.4l-1.2-7.3l-0.1-0.5
	l-1.2-7.2l-1-5L188,347l-0.7-3.4l-0.7-2l-2-6.1l-2-4.9l-0.7-2l-2.9-5.6l-1.4-2.5l-3.2-6.9l-1.9-2.9l-2.9-6.1l-2.2-3.8l-1-2.2l-3.8-7
	l-0.4-0.6l-3.2-7.4l-1.5-2.9l-2.9-9.3l-0.8-2l-0.3-0.8L153,267l-3-9l-1.1-4.5l-1-6.6l-0.3-1.5l-1-6.9l-0.1-7l0-1l-0.1-7l0.9-7.3
	l0.1-0.5l0.9-7.2l1.3-5.1l2.3-7.2l0.8-2.7l0.5-1.4l1.4-2.8l2.7-8l1.5-2.7l3.8-6.9l4.1-5.2l2.2-2.9l0.3-0.4l0.4-0.4l6.1-8.1l7.3-6.1
	l0.8-0.8l0.8-0.6l7.4-6.2l0.6-0.3l7.1-4.2l1.8-1.1l4.6-1.8l5.5-3.1l3.1-1.2l6.3-2l1.8-0.6l6.9-1.9l5.4-0.8l4.7-0.5l4.9-0.6l4.4,0.1
	l6.2,0.1l4.5,0.1l5.5,0.9l3.6,0.4l5.9,1.1l6.2,1.8l4.5,1.9l4.3,1.5l2,0.8l3.4,2l6.8,2.8l2.8,1.9l6.4,3.9l7.4,6.4l0.7,0.5l0.5,0.5
	l7.3,6.3l0.2,0.2l0.1,0.2l6,7.4l0.6,0.7l0.7,1.2l5.9,7.2l3.6,5.9l2,3.4l3.4,8.4l1.2,2l0.6,1.2l1.2,2.9l2.8,6.4l2,5.7l1.5,5.7
	l1.1,4.6l1.2,4.6l0.5,2.9l2,11.2l0.2,0.9l0.1,0.6L364.5,243.1"/>
<path d="M289.5,478.1L289,478l-11.6-2.4l-2.9-1l-6.8-2.9l-1-0.3l-7.2-4l-2.4-1.4l-3-2.4l-6-3.5l-3.5-3.6l-4.4-3.5l-3.7-4.4l-3.5-3.5
	l-3.5-5.7l-2.7-3.1l-1.6-2.7l-4-6.7l-1-2.6l-2.6-5.7l-0.8-2.2l-2.2-8.4l-1.3-3.1l-0.4-1.3l-0.5-2.2l-2.1-8.6l-0.9-4.2l-0.7-5.8
	l-0.3-3.1l-0.7-6.1l-0.4-7.2l0-0.6l-0.4-7.2l-0.5-6.8l-0.2-1.6l-0.6-6.6l-1.1-4.8l-2.1-7.4l-0.7-2.8l-0.7-1.3l-1.3-2.6l-4.1-7
	l-2-4.1l-4-4.9l-4.9-8.2l-0.8-1.1l-0.4-0.8l-3.1-4.3l-2.8-3.6l-3.8-7.1l-1.7-2.4l-2.4-6l-2.4-4.2l-0.9-2.4l-2-5.3l-1.4-3l-2-6.7
	l-1.2-5.1l-0.7-5.4l-0.9-4.4l-0.2-3.4l-0.2-8.4l-0.2-3.2l0.4-3.4l0.7-7.5l0.5-4.1l1.7-6.3l0.4-2l2.2-6.7l1.8-4.3l4.3-7.3l0.9-2.4
	l0.6-0.9l2.7-4.2l2.4-4.2l6.2-6.6l1-1.3l1.3-1.1l6.1-6.5l7.7-4.9l1.2-0.9l0.2-0.2l0.5-0.2l8.6-5.7l5.7-2.6l4.8-1.8l7.1-1.7l3.1-1
	l1.8-0.3l12.7-1.4l0.5-0.1l0.4,0l13.9,0.3l0.7,0l0.9,0.2l11.6,1.7l2.5,0.6l4.9,1.7l4.1,1.1l6,2.7l4.2,2.1l5.9,4.2l3.2,1.6l1.6,1.4
	l6.9,5l6.4,6.9l0.9,0.7l0.7,1.1l6.4,6.8l4.1,6.4l1.8,2.7l2.7,6.4l2.3,3.6l1.1,2.3l2.2,5.5l1.2,2.8l2.3,6.7l1.1,4.9l1.2,6.3l0.8,3.7
	l0.2,2.7L348,237l0.1,1.5l0,1.3l1,13.3l0,0.4l0,0.4l0.4,3.9l1.3,9.5l0.2,1.3l0.6,2.1l2.4,8.4l1.4,4.5l3.3,5.8l3.4,6.9l1.2,2.3
	l0.5,0.6l0.6,0.9l5.9,7.7l3.4,5.9l2.6,3.1l3.1,5.7l2.5,3.7l1.2,2.5l4.2,7.1l0.5,1.3l2.9,6.6l1.2,2.5l2.5,9.4l0.9,2.2l0.2,0.9
	l0.3,1.4l2.4,9.8l0.7,3.8l0.2,4.7l0.4,5.3l0.2,5l-0.5,4.7l-0.9,6.5l-0.4,3.8l-0.7,2.7l-2.7,7.9l-0.8,3.6l-0.3,0.8l-0.8,1.8l-3,8.4
	l-2.8,4.8l-2.7,4.7l-4.7,5.5l-1.8,3l-1.9,1.8l-5.2,6.1l-6.1,4.8l-2.1,2l-3.8,2.1l-5.1,4l-4,2.1l-5.9,3L339,474l-4.5,1.8l-2.1,0.6
	l-12.1,2.1l-0.6,0.2l-0.2,0l-0.2,0l-13.5,1l-1.3,0.1l-1.2-0.1l-9.4-1.2l-4.1-0.3L289.5,478.1"/>
<path d="M757.8,445.2l10.4,2l1.3,0.3l0.9,0.1l12.1,0.9l1.8,0.2l0.2,0l0.2,0l2.7-0.2l11.5-0.6l0.6,0l0.8-0.2l11.5-1.9l2.7-0.8l5.5-2
	l3.1-0.9l6.4-3l3.8-1.8l5.6-3.8l3.8-1.9l1.9-1.6l6.9-4.6l7.2-6.9l0.5-0.4l0.4-0.5l6.9-6l0.7-0.6l0.5-0.6l5.9-7l0.5-0.6l0.6-0.9
	l6.9-6.6l6.2-6.9l0.9-1l1-1.2l6-3.7l1.8-1.2l7.2-4.1l3-0.8l11.1-2l1-0.2l0.7-0.1l14.3-0.7l0,0l0,0l0.2,0l14.2-0.6l0.6,0l0.6-0.1
	l12.4-1.3l1.9-0.2l2.7-0.6l8-1.6l4.3-1.1l7.1-2.6l1.7-0.8l6.3-2.7l2.3-1.2l3.4-2.3l6.4-2.9l2.9-2.2l5.8-4.1l5.6-5.8l2.1-1.6l1.6-2.1
	l5.6-5.7l3.7-5.6l2.4-3.2l3.2-7.5l1.7-2.6l0.7-1.7l1.5-3.9l2.2-5l1.9-6.1l1-6l0.4-3.4l0.9-5.6l-0.1-4.8l-0.1-5.3l-0.1-4.9l-1.1-6.1
	l-0.3-2.5l-1.3-6.4l-1.8-5.4l-3.9-8l-0.7-1.6l-0.3-0.6l-0.6-0.9l-4.3-9.2l-3.5-4.3l-3-4.2l-4.2-4l-3-3.7l-4.3-3l-3.9-3.7l-3.7-2.4
	l-5.2-3.6l-7.7-3.1l-2.1-1l-0.7-0.3l-2.9-0.7l-8.1-3.3l-3.3-1l-5.1-0.8l-4-0.8l-5.9-0.9l-6.7,0.1l-1.6,0l-6.7,0.1l-5.7,0.9l-4.8,1.1
	l-4.6,0.8l-2.9,0.8l-7.1,2.9l-3.9,1.1l-1.1,0.5l-3,1.4L910,199l-5.5,3.6l-3.7,2.1l-4.6,3.7l-4.1,2.6l-2.6,2.8L884,218l-5.2,5.5
	l-2.2,2.1l-2.1,3l-5.3,4.7l-4.8,5.3l-2.4,2.6l-2.6,3.5l-5.1,3.8l-7,5.1l-1.7,1.2l-1.2,0.7l-2.4,0.5l-8,2.3l-4.6,0.8l-5.6,0.1
	l-3.5,0.4l-5.9,0.1l-6.1,0.1l-2.5,0.2l-6.3,0.1l-7,0.6l-0.9,0.1l-7.1,0.6l-6.1,1.2l-3.5,0.8l-5.3,1.1l-3.2,1l-8.1,3.2l-2.9,0.7
	l-0.7,0.3l-1.9,0.9l-8,3.1l-5,3.1l-4.3,2.6l-5,4.3l-3.6,2.2l-2.2,2.3l-5.7,4.9l-4.5,5.7l-2.4,2.4l-2.4,4.3l-3.6,4.6l-2,3.6l-3.3,6.1
	l-1.3,4l-2,4.8l-0.7,2.2l-2.2,11.8l-0.2,0.7l0,0.2l0,0.3L693,357l-0.1,1.5l0.1,1.5l1.5,12.3l0.1,1.1l0,0.1l0,0.1l2.5,12.2l0.9,2.6
	l2.6,6.1l0.7,2l3.9,6.8l1.6,2.7l2.7,3.2l3.4,5.7l3.5,3.4l3.7,4.4l4.4,3.6l3.5,3.5l6.3,3.5l2.9,2.3l2.3,1.3l7.5,4l0.1,0l7.4,3
	L757.8,445.2"/>
<path d="M51,283.5l0.2,1.7l1.1,10.6l0.4,2.8l0.6,3.8l0.9,6.5l0.8,4.7l1.4,6.9l0.2,1l1.5,7.1l1.2,5.2L61,340l0.9,3.5l0.6,2.1l2.1,7.1
	l1.2,4.6l0.3,1.2l0.7,2.2l2.3,8.3l1.5,4.5l2.2,6.7l0.9,2.5l2.1,5.8l1,2.7l2.7,6.7l1.5,4.1l0.6,1.5l1.4,3.4l2.3,5.9l2.5,5.7l2.1,4.7
	l4.7,9.4l0.3,0.6l0.1,0.3l0.4,0.8l4.3,9.1l2.8,5.1l2.5,4.6l4.6,7.4l1,2l0.6,1l2.7,4.4l2.3,3.9l4.7,6.7l1.5,2.2l2.2,2.7l4.1,6
	l3.3,4.1l3.3,4.3l4.3,4.7l2.7,3.4l2.6,2.7l4.6,5.1l5.1,4.9l2.4,2.6l2.8,2.4l5,4.8l4.8,3.8l3.4,3l4.8,3.4l3.7,3l3,2.1l5.8,4.1
	l8.2,4.8l1,0.6l0.2,0.1l0.5,0.2l8.9,5.4l5.4,2.7l4.6,2.3l9.6,3.9l0.7,0.3l0.3,0.1l0.9,0.3l9.8,4l4,1.4l7.4,2.2l0.3,0.1l7.3,2l4.3,1
	l8,1.5l2.8,0.6l1.9,0.3l12.9,1.7l0.2,0l0.2,0l2.7,0.2l11.2,0.9l0.9,0.1l1,0l12.8,0.1l1.1,0l1.1-0.1l13.7-0.9l0.2,0l0.2,0l1.4-0.2
	l12.1-1.3l1.3-0.2l1.9-0.4l9.7-1.6l3.5-0.7l5.6-1.4l3.2-0.7l6.3-1.7l5.4-1.6l6.6-2.4l3-1l1.5-0.5l3.6-1.5l7.3-2.6l2.6-1.2l6.6-2.9
	l1.3-0.5l7.1-3.5l3-1.4l5.4-3l4.4-2.2l2.2-1.3l7.4-4.1l0.4-0.3l7.1-4.5l1.7-0.9l2.6-1.7l6.7-4l4-2.9l5-3l7-5l1.8-1.2l1.2-1l6.3-4.1
	l1.5-0.9l7.2-5.3l1.6-0.9l2.5-1.6l6.7-4.2l4.2-3l5.2-2.6l9.6-5.2l0.1-0.1l0.1,0l0.1,0l11-3.7l3.8-1.4l5.8-0.6l3.1-0.3l6.1-0.6
	l5.8,0.9l3.9,0.5l5.3,0.8l3.3,1.3l9.9,3.3l1.3,0.4l0.4,0.1l1.1,0.5l8.6,4.3l5.3,2.3l4.6,2.8l9.4,4.6l0.7,0.4l0.4,0.2l1.2,0.6l8,4.7
	l5.9,2.9l3.9,2.3l8,3.9l2,1.1l1.1,0.5l3.2,1.6l5.6,3l6.2,2.8l4,2l10.1,4l0.6,0.3l0.3,0.1l0.7,0.3l9.6,4.1l4.8,1.7l6.3,2.2l3.3,0.9
	l5.4,1.7l2.8,0.9l11.5,2.8l0.5,0.2l0.2,0l0.3,0.1l11.7,2.8l3,0.6l4.3,0.7l5.3,1l5.3,0.8l6.8,0.7l1.2,0.1l7,0.7l7,0.3l1.1,0l6.9,0.3
	l6.7-0.1l1.7,0l6.7-0.1l7.2-0.4l0.6,0l7.2-0.4l6.6-0.7l2.1-0.3l6.3-0.7l4.8-0.8l6.6-1.2l3.6-0.6l2.5-0.5l10.5-2.5l1.6-0.3l0.3-0.1
	l0.5-0.1l11.2-2.7l3.2-0.9l5.9-1.8l2.4-0.7l6.6-2.1l4.7-1.6l9.2-3.5l1.1-0.4l0.5-0.2l1.2-0.5l9.7-3.5l3.5-1.5l7.1-2.9l1.5-0.7
	l6.4-2.9l2.5-1.1l5.1-2.5l5.2-2.2l2.2-1.1l6.2-2.9l1.8-0.8l7-3.6l3-1.5l5.4-3l4.5-2.2l2.2-1.2l7-3.7l0.7-0.3l7.3-4.2l2.2-1.3
	l3.6-2.2l6-3.2l3.2-2l6.1-3.7l8.5-5.8l0.4-0.2l0.1,0l0.1-0.1l9.1-5.7l5.7-4.2l3-2.1l3.6-3l5-3.5l3.5-2.9l4.8-3.8l5.2-4.8l2.8-2.2
	l2.2-2.1l5.6-5l5.2-5.6l2.1-2l2-2.3l5.2-5.5l4.2-5.2l2.6-2.9l2.9-4.1l3.6-4.4l2.4-3.6l3.8-5.2l5.2-8.8l0.4-0.6l0.2-0.4l0.9-1.5
	l4.5-7.4l3.1-6l2-3.9l3.9-9.7l0.4-0.9l0.2-0.4l0.4-1l3.8-9.2l1.6-4.8l2-6.6l0.5-2.3l1.7-6.1l0.8-3.6l1.6-9.4l0.4-2l0.2-1.4l1.4-12.8
	l0.1-0.7l0-0.1l0-0.1l0.8-14l0-0.9l0-0.9L1145,269l0-0.5l0-0.4l-0.4-3.7l-0.9-10l-0.1-0.9l-0.2-1.2l-1.7-10.8l-0.6-3l-1.2-4.8
	l-1-4.4l-1.6-5.8l-1.9-5.7l-2.4-6l-1.2-3.3l-0.6-1.5l-1.5-3l-3-7.5l-1.5-3l-3.6-6.9l-2-3.1l-3-5l-0.7-1.3l-1.3-1.7l-4.6-7.4
	l-3.5-4.6l-2.9-4l-4-4.6l-2.8-3.6l-2.8-2.8l-4.4-5l-5-4.7l-2.6-2.7l-3.3-2.6l-4.7-4.4l-4.4-3.4l-4-3.2l-6.2-4l-2.7-2.1l-2.1-1.3
	l-7.1-4.5l-1.7-0.9l-6.2-3.4l-1.8-1l-4.1-1.8l-5.9-3.2l-3.2-1.4l-7.3-3.1l-0.5-0.2l-7.2-2.7l-3.4-1.1l-11.5-3.2l-0.1,0l-0.1,0
	l-0.4-0.1l-11.5-3l-3-0.7L975,84l-5-0.9l-5.5-0.9l-7.2-0.8l-0.6-0.1l-7.2-0.8l-6.7-0.3l-1.7-0.1l-6.6-0.3l-6.4,0.1l-2.3,0l-6.4,0.1
	l-6.9,0.4l-1.2,0.1l-6.9,0.4l-6.9,0.7l-1.3,0.2l-6.7,0.8l-5.2,0.8l-5.5,1l-4.3,0.7l-3.1,0.5l-11.3,2.4l-0.6,0.1l-0.4,0.1l-1.8,0.4
	l-10.6,2.2l-2.2,0.6l-3.7,1l-6.1,1.4l-5.1,1.4l-6.6,1.8l-2.6,0.8l-5.8,1.7l-3.2,0.9l-9.6,3.2L800,104l-0.5,0.2l-1,0.3l-10,3l-4,1.4
	l-7.2,2.4l-0.9,0.3l-6.9,2.4l-3.3,1.1l-8.5,3.3l-2.4,0.8l-0.8,0.3l-1.8,0.7l-8.4,3l-4.8,1.9l-6,2.3l-5.2,2.3l-3.7,1.5l-1.6,0.6
	l-3.5,1.6l-7.1,2.8l-2.8,1.3l-7.2,3.1l-0.4,0.2l-7.4,3.5l-2.9,1.3l-5.7,2.9l-4.4,2l-2,1l-5.8,2.8l-2.4,1.1l-6.8,3.7l-3.1,1.4
	l-5.6,3.1l-4.2,2.1l-2.1,1.2l-6.7,3.3l-1.1,0.5l-7.2,4.1l-2.6,1.2l-4.8,2.6l-5.1,2.5l-2.5,1.5l-7.4,3.4l-0.1,0l-7.5,3.8l-2.8,0.9
	l-6.9,2.8L591,195l-1.5,0.7l-2.9,0.8l-7.4,1.7l-4.6,1.3l-6.2,0.3l-2.5,0l-6.3,0.3l-5.4-1.1l-5.3-1.2l-4.3-0.9l-2.3-1.1l-4.8-2.3
	L532,191l-2.5-1.2l-6.6-4.7l-5.5-3.8l-2.8-1.9l-0.5-0.4l-0.5-0.5l-7.5-6.6l-6.6-5.4L498,165l-1.5-1.5l-6.1-5.9l-5.9-5.2l-1.8-2
	l-1.8-1.8l-5.6-5.7l-5.7-5.1l-2-2.2l-2-2L460,128l-5.5-4.8l-2.3-2.4l-2.5-2.3l-5.3-5l-5-4.2l-2.9-2.9l-3.5-2.9l-4.5-4l-4-3l-4.3-3.7
	l-5.8-4.3l-2.8-2.2l-2.2-1.5l-6.4-4.9l-5.7-3.6l-2.9-1.9l-0.6-0.4l-1-0.6l-8.1-5.4l-5.4-3l-4.1-2.5l-8.4-4.1l-1.6-0.9l-0.9-0.4
	l-2.5-1.2l-6.7-3.4l-5.9-2.5l-4.7-2l-8.6-2.9l-1.8-0.7l-0.8-0.3l-2.8-0.8l-8.5-2.9l-2.9-0.8l-4.9-1.2l-4-1.1l-6-1.4l-6.4-1.2
	l-2.5-0.4l-6.1-1l-4.5-0.5l-6.5-0.5l-4-0.4l-3.4-0.1l-8.3-0.2l-3.2-0.1l-3.2,0.1L248,32l-3.5,0.1l-4.1,0.4l-6.2,0.6l-4.7,0.5
	l-6.3,1.1l-2,0.3l-6.7,1.2l-5.7,1.4l-5.2,1.5l-4.2,1.1l-2.3,0.7l-6.1,2.3l-5,1.5l-1.5,0.6l-3.6,1.5l-5.6,2.1l-5.8,2.7l-4.4,2.2
	l-7.5,4.4l-2.1,1l-1,0.6l-4.2,2.5l-4.3,2.4l-6.6,4.7l-2.2,1.5l-2.7,2.2l-5.9,4.2l-4.2,3.8l-3.8,3.2l-3.8,3.8L113,92l-3.5,3.9
	l-3.8,3.8l-3.2,3.8l-3.8,4.2l-4.2,5.9l-2.2,2.7l-1.5,2.2l-4.7,6.6l-2.5,4.3l-2.5,4.1l-0.6,1l-1,2L75,144l-2.2,4.5l-2.7,5.6l-2.5,6.2
	l-1.3,3.1l-0.5,1.3l-1.3,4l-2.8,7l-0.9,2.8l-1.5,5.2l-1.1,3.5l-1.7,6.3l-1.3,5.7l-0.8,4.4l-1,4.9l-0.5,3.3l-1.3,9.6l-0.3,2l-0.1,1.6
	l-1,12.8l-0.1,0.6l0,0.5l-0.4,14.3l0,0.1l0,0.1l0.3,14.4l0,0.4l0,0.5l0.9,13.2L51,283.5"/>
<path d="M499.5,188.3l2.7,2.4l2.9,2.7l4.8,4.6l4.6,4.8l3.2,2.4l4.2,3.2l4.2,3.3l3.3,2.7l6,3l6,3l3,1.5l1.3,0.2l7.7,1.3l5.1,0.9
	l0.9,0.1l0.9-0.2l6-0.9l7.2-1l1-0.1l1.8-0.7l8.1-3.3l5.1-1.7l5.1-3l9.3-4.6l0.6-0.3l0.2-0.1l0.3-0.2l8.9-5.7l5.7-3.1l3.6-2.6
	l6.2-3.6l3.2-2l2-1.1l7.2-4.7l1.3-0.7l6.5-3.7l1.7-1.1l3-1.7l6.4-4l4-2.1l5.6-3.4l7.6-3.8l1.8-1l0.5-0.3l1.1-0.5l8.6-4.8l4.8-2.3
	l5.2-2.7l8-3.5l1.7-0.8l0.6-0.3l1.5-0.6l8.7-4.2l4.2-1.8l6.3-2.8l4-1.5l4.7-1.9l2-0.8l5.3-2l5.4-2.3l2.3-0.9l5.2-2l3.3-1.4l6.5-2.4
	l4.4-1.7l9.2-3.1l1.4-0.5l0.6-0.2l2-0.6l9-3.3l3.3-1.1l6.7-2.3l1.2-0.4l7.1-2.2l4.2-1.4l9-2.5l1.7-0.5l0.9-0.3l3.5-0.9l8.1-2.4
	l2.4-0.6l4.1-1.1l5.3-1.5l5.6-1.3l6.6-1.5l2.3-0.4l6.2-1.3l4.1-0.8l8-1.2l2.9-0.5l2.1-0.3l12.2-1.3l0.7-0.1l0.6-0.1l8.7-0.6l5.3-0.4
	l0.4,0l0.5,0l13.7-0.3l0.8,0l0.8,0l14.1,0.6l0.2,0l0.2,0l1.4,0.2l12.4,1.1l1.1,0.1L966,90l10.5,1.6l3,0.5l4.6,1.1l4.7,1l5.6,1.4
	l6.1,1.9l4.3,1.5l4.6,1.5l2.2,0.8l5,2.2l5.7,2.1l2.1,0.9l5.6,2.7l2.6,1.2l6.8,3.6l3,1.6l4.4,3l4.9,2.7l2.7,1.9l6.2,4.2l7.5,6.2
	l0.7,0.5l0.5,0.5l5.7,4.7l2,1.6l7.3,7.5l0.1,0.1l0.1,0.1l7.3,7.5l0.3,0.3l5.7,7.2l0.7,0.8l0.8,1.2l5.8,7.3l3.7,5.8l2.2,3.3l3.3,6.3
	l2.1,3.3l1.1,2.1l3.2,6.3l0.8,1.6l3.1,7.1l1.4,3.4l3.4,10.5l0.3,0.8l0.1,0.3l0.2,0.6l3.2,10.5l1,3.9l1.2,6l0.5,2.4l1.2,6.6l0.7,6.5
	l0.2,2.1l0.7,6.3l0.1,5.5l0.1,4l0.1,5.4l-0.3,5.6l-0.2,3.7l-0.3,5.7l-0.9,7l-0.1,1l-1,7.1l-1.2,5.8l-1.1,4.5l-1,4.7l-0.8,2.9
	l-2.9,8.8l-0.7,2.6l-0.2,0.7l-0.6,1.5l-3,9l-1.9,4.5l-2.6,6l-3.6,6.6l-1.2,2.4l-0.4,0.8l-0.8,1.3l-4.4,8.5l-2.9,4.4l-3,4.8l-4.8,6.3
	l-1.5,2.4l-1.3,1.5l-5.2,7l-7,7.7l-0.1,0.1l-0.1,0.1l-1.8,2.1l-5.1,5.8l-7.6,7.1l-0.1,0.1l-0.1,0.1l-6.5,6.3l-1,1l-7.5,6.1l-0.8,0.6
	l-1.1,0.8l-7.2,6l-6,4.4l-2.6,2l-4.2,2.6l-4.7,3.5l-3.5,2.3l-5.5,3.7l-9.4,5.4l-0.1,0.1l0,0l0,0l-9.2,5.8l-5.8,3.2l-3.8,2.2
	l-7.6,3.8l-2.3,1.3l-1.3,0.7l-4.4,2.4l-4,2.2l-6.6,3.3l-3.4,1.7l-7.4,3.4L951,510l-1.5,0.7l-4.2,2l-4.4,2.2l-6.4,2.9l-3.9,1.8
	l-9.7,3.9l-1,0.4l-0.4,0.2l-1.1,0.5l-8.9,3.9l-5,1.9l-5.8,2.2l-5,1.7l-4.2,1.5l-2,0.7l-6.7,2l-4.7,1.6l-1.6,0.5l-3,0.8l-6.9,2.1
	l-5.1,1.3l-6.9,1.6l-1.4,0.3l-6.6,1.5l-4.4,0.8l-7.4,1.1l-3.2,0.6l-2.4,0.3l-11.5,1.2l-1.2,0.1l-1,0.1l-13.9,0.8l-0.2,0l-0.2,0
	l-14.7,0.1l-0.1,0l-0.1,0l-14.2-0.7l-0.7,0l-0.9-0.1l-12-1.2l-2.1-0.3l-2.8-0.5l-8.1-1.2l-4-0.7l-6.2-1.4l-2.2-0.4l-6.6-1.6
	l-5.3-1.5l-6.7-2.3l-3-0.9l-1.6-0.5l-4.1-1.6l-7-2.3l-2.3-0.9l-5.4-2.2l-3-1.1l-6.6-3l-3.8-1.6l-7.2-3.8l-2.8-1.3l-1.3-0.7l-4.2-2.2
	l-4.4-2.1l-6.4-3.9l-3.1-1.6l-5-3.1L637,506l-2.5-1.8l-6.8-3.9l-5-3.5l-3.2-2.2l-0.7-0.4l-1.1-0.7l-8.3-5l-5-3.6l-4.2-2.2l-7-4.2
	l-2.4-1.4l-1.4-1l-4.4-2l-4.3-1.8l-6.2-3.1l-4.7-0.9l-7.2-1.7l-3-0.6l-2.6,0.2l-8.9,0.8l-3.4,0.3l-6.3,2.6l-1.7,0.7l-7,2.8l-3,2.2
	l-4.7,3l-4.5,2.8l-2.8,1.6l-5.8,4.8l-7.8,5.8l-0.8,0.6l-0.6,0.4l-7.2,6.2L492,501l-7.5,5.6l-1,0.9l-1.2,1l-7,5.8l-5.8,4.1l-2.7,2.4
	l-3.9,2.7l-4.8,3.6l-3.6,2.3l-5.3,3.9l-8.8,5.3l-0.6,0.4l-0.4,0.2L438,540l-7.3,4.7l-6.2,3.3l-3.5,2l-7.7,3.5l-2.5,1.3l-1.3,0.6
	l-3.4,1.5l-5.6,2.7l-6,2.4l-4.7,1.8l-7.9,2.4l-2.3,0.8l-1.2,0.4l-4.6,1.2l-7.1,2.2l-2.2,0.5l-3.4,0.7l-6.6,1.6l-5,1l-6.9,1l-1,0.2
	l-7.1,0.9L328,577l-2,0.1l-6.4,0.4l-6,0l-2.9,0l-6,0L298,577l-1.8-0.1l-6.7-0.5l-6.8-1l-1.6-0.3l-6.6-1l-4.6-1l-7.7-1.9l-2.7-0.6
	l-1.6-0.5l-5-1.6l-6.6-1.8l-1.8-0.6l-3.7-1.4l-5.7-1.9l-5.6-2.3l-4.9-2.2l-9.4-4.9l-0.5-0.2l-0.2-0.1l-0.7-0.4l-9.1-4.6l-5.3-3.3
	l-4-2.4l-5.4-4l-3.4-2.2l-2.2-1.7l-6.4-4.7l-7.2-6.4l-0.8-0.6l-0.6-0.6l-7.4-6.4l-7-7.4l-0.3-0.3l-0.3-0.4l-7-7.3l-5.7-7l-1-1.2
	l-1.2-1.7L134,484l-3.9-5.5l-2.4-3.3l-3.3-5.3l-2.7-3.7l-1.6-2.7l-4.1-6.6L114,453l-2.5-4.5l-0.7-1.3l-1.3-2.7l-4-7.1l-2-4l-3-6.1
	l-2.2-5.1l-1.8-3.9L96,417l-1.5-3.8l-3.1-6.7l-1.2-3.1l-2.9-7.2l-0.2-0.5l-2.7-7.4l-1.3-3.6l-3.6-11.1l-0.1-0.2l0-0.1l-0.1-0.2
	l-3.8-10.9l-1.2-3.9l-2.2-7.3l-0.1-0.3l-2.1-7.4l-1.2-4.4l-1.8-8.1l-0.6-2.6l-0.4-1.6l-1.6-7.9l-1-4.5l-0.2-1L63,312l-1.9-10
	l-0.6-3.5l-0.6-4.6l-0.7-5l-0.7-5.4l-0.6-6.6l-0.2-1.6l-0.5-6.8l-0.2-7.4l0-0.1l-0.2-7.4l0.2-7.4l0-0.2l0.2-7.4l0.6-6.9l0.1-1.4
	l0.6-6.7l0.8-5.4l0.8-5.1l0.7-4.6l0.7-3.2L64,194l0.1-0.5l0.1-0.3l0.3-1l2.8-10.9l0.9-2.8l2-5.6l0.9-2.8l2.6-6.6l1.8-4.1l4.1-8.1
	l0.8-1.9l0.4-0.8l1.4-2.6l3.3-6.6l3.6-5.8L91,130l3.5-4.7l2.6-4.2l2-2.6l4.4-5.9l5.9-6.6l1.1-1.4l1.1-1.1l6.1-6.7l6.7-6.1l1.1-1.1
	l1.4-1.1l6.6-6l6-4.4l2.6-2l4.1-2.6L151,70l3.5-2.1l5.8-3.6l6.6-3.2l2.6-1.4l0.8-0.4l2-0.8l8.1-4l4-1.7l6.8-2.5l2.1-0.7l6.1-2.1
	l3.1-0.9L214,44l0.5-0.1l0.3-0.1l1.8-0.3l10.7-2.2l2.2-0.4l2.9-0.3l8.2-1l3.9-0.4L249,39l5.8-0.2l4.7-0.2l4.7,0.2l6,0.3l4.4,0.2
	l3.8,0.4l8.5,1.1l2.7,0.3l2.1,0.3l10.1,2.1l2.5,0.4l0.4,0.1l0.7,0.2l11.1,2.5l3.2,0.9l6.1,2l2.2,0.6l6.7,2.4l4.3,1.6l9.4,4.3l1,0.4
	l0.4,0.2l1.1,0.5l8.9,3.9l5,2.7l4.8,2.5l7.6,4.8l1.7,0.9l0.9,0.7l4.3,2.7l4,2.4l6.7,4.9l2.1,1.3l2.6,2.1l6,4.3l4.3,3.7l4,3l4.5,4
	l3.6,3l3,2.9l4.9,4.2l5,4.9l2.6,2.4l2.4,2.7l5.1,4.7l4.8,5.1l2.5,2.6l2.6,3.1l4.7,4.6l4.3,4.7l2.9,3.1l3.1,3.9l4,4l3.6,4l3.5,3.9
	l3.9,4.8l3.2,3.1l3,3.2l4.2,4.5L499.5,188.3"/>
<path d="M379.5,86.9l-5.3-3.6l-2.6-1.9l-7.1-4.2l-2.3-1.4l-4.5-2.3l-5.2-3l-3-1.4l-7.1-3.5l-1.3-0.5l-6.6-2.8l-2.7-1.1l-8.2-2.7
	l-2.9-1.1l-1.1-0.4l-2.1-0.6l-8.1-2.6l-4.7-1.2l-7.4-1.6l-0.2,0l-7.4-1.5l-5.2-0.7l-5-0.5l-4.7-0.6l-3.9-0.2l-7.5-0.3l-3.6-0.2
	L256,47l-7.8,0.2l-3.7,0.1l-4.3,0.5l-5.9,0.6l-4.8,0.5l-6.6,1.2l-1.6,0.3l-6.8,1.3l-5.4,1.4L203,55l-3.5,1l-1.9,0.6l-4.6,1.9
	l-6.4,2.1l-2.1,0.8l-5.3,2.3l-3.2,1.3l-6.6,3.3l-3.4,1.8l-5.2,3.4l-4.2,2.2l-2.2,1.5l-6.8,4.5l-7,5.7l-1.2,0.9l-0.1,0.1l-0.2,0.1
	L131,95l-6.5,6.5l-1,0.9l-0.9,1L116,110l-6.5,8.3l-0.1,0.1l-0.1,0.1l-0.5,0.6l-6.1,7.6l-4.4,6.7l-1.5,2.3l-2.3,4.3l-3.3,5.1
	l-1.7,3.3l-3.4,6.6l-1.3,3l-2.4,5.3l-0.9,2.1l-2.1,6.1l-2,4.8l-0.7,2l-1.2,3.9l-1.8,5.4l-1.6,5.7l-1.4,6.3l-0.6,3l-1.2,5.7l-0.6,3.9
	l-1.1,8.2l-0.4,2.9l-0.2,2.3L66,237l-0.1,1.5l0,1.4l-0.2,12.5l0,1.2l0.1,1.2l0.4,12.2l0.1,1.6l0.2,1.9l0.8,10.3l0.3,2.8l0.5,3.6
	l0.9,7l0.7,4.4l1.2,6.3l0.3,2l1.3,6.6l1.3,5.8l1.2,4.7l1.1,4.6l0.7,2.8l2.8,9.7l0.5,2l0.1,0.5l0.3,0.9l2.8,10.4l1.2,3.7l2.3,7.1
	l0.2,0.6l2.5,7.3l1.3,3.9l3.9,10.1l0.3,0.8l0.1,0.3l0.2,0.6l3.6,10.2l1.7,4.2l2.7,6.4l1.8,4l2,4.6l0.8,1.8l1.8,3.4l3,6.8l1.5,3
	l3.5,7l1.3,2.2l3.2,5.7l0.9,1.6l1.6,2.5l3.8,7l2.5,3.8l3.4,5.3l5.3,7.1l1,1.6l0.8,1l4.8,6.5l0.8,1.1l6.4,7.3l0.6,0.7l0.7,0.7
	l6.2,7.3l6.5,6.2l1.1,1.2l1.2,1l6.5,6.3l8.3,6.5l0.1,0.1l0.1,0.1l1,0.8l7.2,5.8l6.8,4.5l2.2,1.5l3.9,2.2l5.4,3.6l3.6,1.9l6.2,3.3
	l4.7,2l4.1,2l1.5,0.7l4.2,1.5l6.5,2.8l2.8,1.1l5.8,1.9l2.5,0.9l6.7,2l5.1,1.2l6,1.2l3.9,0.9l2.6,0.4l11.2,1.5l1.1,0.2l0.9,0.1
	l14.1,0.9l0,0l0,0l15,0l0,0l0,0l14-0.9l1-0.1l1.3-0.2l11.1-1.4l2.7-0.5l4.1-0.9l5.8-1.1l5.2-1.3l6.7-1.9l2.6-0.9l5.7-1.8l2.9-1
	l6.9-2.9l3.9-1.4l1.4-0.6l3.6-1.6l5.6-2.3l5.9-3l4.1-2l6.7-4.1l2.7-1.4l1.4-1l6.1-3.7l1.8-1l7.1-5.1l1.7-1.1l2.2-1.7l6.5-4.5
	l4.5-3.9l3.8-2.7l4.3-3.8l3.8-3.1l3.1-3.2l4.8-3.9l5-4.8l2.7-2.6l2.6-2.9l5.1-4.4l5-5.1l2.4-2.5l2.5-3.1l5-4.4l5-5l2.4-2.6l2.6-3.1
	l5.2-4.1l6.1-5.2l1.9-1.8l1.8-1.8l7.5-3.9l0,0l7.5-4l3.2-0.2l9.1-0.5l2.7-0.2l4.2,1.6l4.7,2l6.1,2.2l3.7,3l5.4,3.7l3.6,2.3l2.3,1.3
	l6,5.4l7.9,6l0.6,0.5l0.5,0.3l6.9,6.2l0.6,0.5l7.5,5.6l1,0.9l1.2,1l7,5.8l5.8,4l2.8,2.4l4,2.8l4.7,3.5l3.5,2.1l5.5,3.9l9.4,5.4
	l0.1,0.1l0,0l0,0l9.2,5.7l5.7,2.8l4.2,2.3l9.9,4.2l0.6,0.3l0.3,0.1l0.7,0.3l9.4,4.2l4.9,1.8l6.1,2.2l3.8,1l5.1,1.6l2.7,0.8l12,2.7
	l0.2,0.1l0.1,0l0.1,0l12.3,2.6l2.7,0.5l3.5,0.4l7,1l4.5,0.5l5.3,0.3l4.1,0.3l5.6,0.3l5.9,0l3.2,0l5.9,0l5.5-0.4l4.4-0.3l5.2-0.3
	l4.3-0.5l7.5-1.1l3.2-0.4l2.4-0.4l11.8-2.4l0.6-0.1l0.1,0l0.2,0l12.1-2.6l2.8-0.7l4.9-1.4l4.2-1.1l5.9-1.8l5.5-1.8l6.6-2.5l3-1
	l1.4-0.5l3.5-1.4l7.5-2.6l2.6-1.1l6.3-2.5l1.8-0.7l7-3.1l3.5-1.5l7.2-3.5l3.1-1.3l1.3-0.6l3.5-1.6l5.5-2.4l5.9-3l4.1-2l7.8-4.1
	l2.1-1l1-0.5l3-1.5l6.1-2.9l5.9-3.2l3.9-2l6.6-3.9l3-1.5l1.5-0.8l5.2-2.9l3-1.6l6.8-4.1l2.5-1.5l3.7-2.5l5.6-3.2l3.2-2.1l5.8-3.8
	l7.7-5.8l0.9-0.6l0.6-0.5l4-2.9l4.1-3l6.9-5.9l1.2-1l1.2-1.2l6.9-5.7l5.7-5.8l1.8-1.7l1.6-1.8l5.8-5.8l5.8-7.2l1-1.1l0.7-1l6-7.3
	l0.7-1l4.5-6.7l0.9-1.2l1.2-2.1l4.7-7l2.6-4.7l2.8-4.9l4.2-9.5l0.3-0.6l0.1-0.2l0.2-0.6l4.4-9.7l1.7-4.4l2.2-6.7l0.6-2.3l1.8-6.1
	l0.8-3.4l2-10.2l0.3-1.4l0.1-1l1-7.8l0.8-5.4l0.1-0.8l0.1-1l0.8-12.2l0.1-1.8l0-1.8L1131,270l0-1.5l-0.1-1.3l-1.3-10.9l-0.2-2.5
	l0-0.2l-0.1-0.3l-2.1-12.2l-0.5-2.4l-1.1-4.1l-1.4-5.5l-1.7-5.4l-2.1-5.8l-2.6-6l-1.3-3.2l-0.6-1.3l-1.3-2.5l-3.4-7.8l-1.9-3.4
	l-3.5-6.2l-5.9-8.5l-0.2-0.3l0-0.1l-0.1-0.1l-6-8.9l-5.2-6l-1.7-2.1l-2.1-2.2l-5-5.7l-5.6-5l-2.2-2.2l-2.2-1.8l-5.8-5.2l-8.2-5.8
	l-0.5-0.5l-0.5-0.3l-2.5-1.7l-5.8-4.2l-6.7-3.9l-2.8-1.6l-6-2.8l-4-2.3l-2.3-1.1l-5.9-2.6l-2.1-1l-6.9-2.7l-4-1.4l-9.8-2.8l-1.2-0.4
	l-0.7-0.2l-3.1-0.7l-8.9-2.4l-2.4-0.6L976,100l-6.7-1.2l-4.7-0.8l-6.1-0.6l-2.6-0.3l-6.3-0.6l-7.1-0.2l-0.8,0l-7.1-0.2l-7.1,0.2
	l-0.9,0l-7,0.3l-6.2,0.6l-2.9,0.3l-5.9,0.6l-4.7,0.6L893,100l-3.5,0.5L887,101l-11.8,2.6l-0.6,0.1l-0.1,0l-0.2,0l-12.1,2.6l-2.8,0.7
	l-4.8,1.3l-4.3,1l-5.8,1.7l-5.8,1.7l-5.3,1.8l-3.9,1.2l-2.1,0.6l-5.8,2.1l-5.4,1.7l-1.7,0.6l-3.4,1.2l-6.2,1.9l-5.4,2l-5.7,2l-6,2.4
	l-3.3,1.2L783,132l-3.8,1.5L772,136l-2.5,1l-5.7,2.2l-2.7,1l-6.6,2.7l-4.1,1.6l-9.1,4.1L740,149l-0.5,0.2l-1.3,0.6l-8.8,3.5
	l-4.9,2.3l-5.4,2.4l-8.7,4.5l-0.9,0.5l-0.3,0.1l-0.6,0.3L699,168l-4.5,2.5l-5.2,2.7l-8.6,5.2l-0.8,0.4l-0.4,0.3l-1.7,1l-7.5,4.2
	l-5.8,3.9l-3.3,1.9l-4.7,3.3l-4.3,2.7l-2.7,2.1l-6.2,4l-7.9,6.2l-0.6,0.4l-0.4,0.4l-2.8,2l-5.6,3.9l-6.6,5.6l-1.7,1.1l-2.2,1.7
	l-6.4,4.8l-4.8,4.3l-3.6,2.3l-4.7,3.6l-3.8,2.9l-2.9,2.7l-6,3.4l-8.8,5.9l-0.2,0.1l0,0l-0.1,0l-11,3.8l-3.8,1.5l-4.9-0.4l-5.7-0.6
	l-4.4-0.3L542,256l-4.3-2.5l-5.3-2.9l-2.9-1.6l-5.3-5.2l-5.6-5.3l-2.2-1.9l-1.9-1.7l-5.1-6.3l-4.3-5.1l-2.6-3l-3-3.1l-3.7-5.2
	l-2.8-3.7l-3.7-4.8l-4.8-5.6l-1.9-2.8l-1.4-1.9l-5-6.7l-6.7-8.2l0,0l0,0l-0.1-0.1l-6.2-8.6l-5.2-6.3l-1.6-1.9l-1.9-2.1l-4.7-6.3
	l-4-4.7l-2.9-3.4l-3.4-3.5l-3.6-4.5l-3.4-3.6l-3.8-4.2l-4.2-4l-3.2-3.6l-3.4-3.2l-4.2-4.2l-4.2-3.6l-3.6-3.6l-4.5-3.6l-3.7-3.2
	l-3.2-2.4l-5.1-4.3l-7.6-5.1l-1.3-1L379.5,86.9"/>
<path d="M180.1,73.5l2.9-1.6l1.6-0.7l3.8-1.6l5.1-2.3l6.1-2.2l5.2-1.6l6.2-1.5l3.6-1l2.2-0.4l12.8-2.2l0,0l0,0l0.1,0l13.3-1.6
	l1.6-0.2l1.8,0l11.1-0.3l2.1-0.1l2,0.1l11.7,0.8l1.2,0.1l1,0.1l6.6,1l6.6,0.8l0.8,0.1l1.2,0.3l10.5,2l3.3,0.8l5.8,1.7L313,65
	l6.5,2.2l4.6,1.7l10.2,4.6l0.2,0.1l0.1,0l0.2,0.1l10.2,4.5l4.6,2.6l5.1,2.7l7.6,5.1l1.5,0.8l0.8,0.6l4.3,2.9l3.9,2.5l6.8,5.4
	l1.7,1.2l2,1.7l6.4,5l5,4.8l2.9,2.4l2.9,2.9l4.8,4.5l4.5,5.1l2.8,2.7l2.5,2.8l4.7,5l5,6.5l1.7,1.8l1.4,1.7l5.4,6.6l4.5,6.3l1.5,2.1
	l0.2,0.3l0.3,0.5l6.2,8l4.2,6.2l1.9,2.8l2.8,4.6l3.2,4.4l2.2,3.2l3.8,5.8l4.9,8.4l0.5,0.8l0.1,0.2l0.2,0.4l5.8,8.6l3.6,5.8l2.1,3.5
	l3.5,6.5l2.1,3l1.3,2.1l4.4,7.1l1,1.7l3.6,6.2l0.9,1.7l1.7,3.3l4.1,6l2.6,4.1l3.1,5.3l5.2,9.6l0.1,0.1l0,0l0,0.1l6,8.9l3.9,6
	l1.7,3.4l3.4,6.9l2.4,2.3l2.4,2.4l4.2,6l6,8.8l0.3-0.1l11.8-2.6l2.9-0.6l4.1-7.5l2.5-4.1l3.9-4.5l4.5-4.6l1.9-3.9l1.1-1.9l5-7
	l4.1-5.1l2.3-2.9l0.3-0.3l0.3-0.3l5.8-8.6l4.7-5.8l2.1-2.4l2.4-2.3l4.4-6l3.9-4.4l3.2-3.5l3.5-3.2l3.7-4.5l3.8-3.7l3.7-3.8l3.8-3.1
	l3.9-4.1l4.7-3.9l3.3-3l3-2.3l5.1-4.6l7.1-5.1l1.5-1.2l1.2-0.8l7.4-5.6l0.6-0.4l7-4.5l1.4-1l2.5-1.4l6.6-4.5l4.5-2.5l5-3l9.8-5
	l0.1-0.1l0.1,0l0.2-0.1l9.4-5.2l5.4-2.6l4.7-2.3l9.6-4l0.7-0.3l0.3-0.1l0.6-0.3l9.6-4.5l4.5-1.8l6.1-2.6l4.5-1.7l4.4-1.7l1.9-0.8
	l5.3-1.9l5.5-2.3l2.3-0.9l5.3-2.1l3.2-1.3l6.6-2.4l4.3-1.7l9.6-3.3l1.1-0.4l0.5-0.2l1.4-0.5l9.4-3.7l3.7-1.2l7.5-2.6l0.1,0l7.4-2.4
	l3.7-1.3l10.4-2.9l0.9-0.3l0.5-0.1l1.8-0.5l9.8-2.9l2.9-0.7l4.8-1.1l4.3-1.1l5.9-1.3l6.6-1.2l2.1-0.3l6.3-1.1l4.6-0.6l6.3-0.6l4-0.5
	l3.3-0.2l8.7-0.4l3-0.2l2.8,0l9.3,0.1l2.9,0l3.2,0.3l8,0.6l3.8,0.3l4.9,0.8l4.6,0.7l5.5,0.9l6.9,1.6l1.6,0.4l6.5,1.6l3.7,1.2l10,3.7
	l1,0.3l0.3,0.1l0.7,0.3l9.9,3.7l4.4,2.1l5.7,2.8l9.3,5.7l0,0l0,0l0,0l9.4,5.6l5.6,4.3l3,2.2l3.3,3l5,3.8l3.8,3.8l3.9,3.5l3.4,3.9
	l3.9,3.9l3.9,5.1l2.8,3.2l2,2.8l4.4,5.8l4.6,8l0.7,1.2l0.2,0.3l0.3,0.6l5.3,8.9l2.5,5.3l2.2,5l2.7,7.8l0.9,2.3l0.3,1l1,3.9l2.6,7.5
	l0.7,2.6l0.9,4.1l1.3,5.4l1.1,5.4l0.9,7.3l0,0.3l0.8,7.4l0.2,6.6l0,1.8l0.2,6.6l-0.4,6.9l-0.1,1.2l-0.4,6.9l-1,6.6l-0.4,2.1l-1,6.3
	l-1,4.3l-2.4,8.8l-0.5,1.9l-0.3,1.1l-1.1,3l-2.5,8.5l-0.9,2.5l-2.4,5.9l-0.9,2.4l-3.2,6.7l-1.6,3.4l-3.4,5.6l-2,4l-1.3,2l-4.5,7.3
	l-1.5,2l-4.2,5.7l-0.6,0.9l-0.9,1.1l-5.5,7.5l-5.2,5.5l-1.9,2.4l-2.4,2.3l-4.9,5.4l-5.6,4.9l-2.2,2.2l-2.2,1.9l-5.7,5.1l-7.8,5.7
	l-0.8,0.7l-0.7,0.5l-5,3.8l-2.8,2.1l-7.2,4.8l-1.8,1.2l-3.2,1.8l-5.9,4.1l-4.1,2.4l-5.3,3.2L995,463l-0.5,0.3l-0.1,0.1l-0.3,0.1
	l-9.2,5.3l-5.3,2.8L975,474l-9.5,4.5l-0.6,0.3l-0.3,0.2l-1.1,0.5l-8.4,4.5l-5.5,2.7L945,489l-10.1,4.5l-0.2,0.1l-0.1,0.1l-0.3,0.2
	l-9.5,4.8l-5.1,2.3l-5.1,2.4l-7.9,3.2l-2,0.9l-0.8,0.4l-2.1,0.8l-8.4,3.7l-3.7,1.4l-7.1,2.7l-1.2,0.4l-6.7,2.4l-3.3,1.1l-11.6,3.3
	l-0.1,0l0,0l-0.1,0l-11.6,3.3l-3.4,0.8l-5.3,1.1l-3.7,0.8l-6.1,1.2l-6.8,1l-1.6,0.2l-6.6,0.9l-5.3,0.4l-4.6,0.3l-5,0.4l-4.7,0
	l-5.7,0l-4.6,0l-4.9-0.3l-4.9-0.3l-5.2-0.3l-6.4-0.8l-2.1-0.2l-6.6-0.9l-6.3-1.2L745,529l-5.5-1.2l-3.4-0.9l-10.8-3.4l-0.6-0.1
	l-0.1,0l-0.3-0.1l-10.9-3.5l-3.8-1.5l-6.9-2.8L700,514l-5.5-2.6l-1.9-0.9l-3.4-1.9l-6.5-3.2l-3.2-2l-6.2-3.6l-8.7-6.2l0,0l0,0
	l-0.1,0l-8.9-6l-6-5.1l-2.2-1.6l-2.6-2.2l-5.6-4.6l-4.6-4.7l-3.1-2.6l-3.1-3.1l-4.4-4.3l-4.3-5.2l-2.9-2.6l-2.6-2.9l-4.5-5l-5-6.9
	l-1.6-1.5l-1.4-1.6l-5.4-6.7l-3.7-5.4l-2.1-2.9L590,418l-0.5-1l-6.1-7.4l-4.5-6.1l-1.6-2.8l-2.8-5.5l-3.5-3.3l-3.3-3.5l-3.3-5
	l-5-8.3L558,375l-9.8-1.5l-2.8-0.9l-0.9-0.3l-0.3,0.9l-0.1,0.3l-0.8,1.2l-5.1,7.5l-4.1,6.3l-2.3,2.3l-2.3,2.4l-3.3,7l-1.6,3.3
	l-3.9,6.2l-5.3,7.9l-0.6,0.9l-0.1,0.2l-0.2,0.2l-5.2,9.4l-3.2,5.2l-2.7,3.9l-3.9,5l-2.2,3.9l-1.4,2.2l-4.7,6.8l-5.9,7.3l-0.7,0.9
	l-0.1,0.1l-0.1,0.1l-6.2,8.6l-5.4,6.2l-1.6,1.8l-1.8,1.7l-5.2,6.3l-5.3,5.2l-2.2,2.3l-2.3,1.9l-5.3,5.5l-6.5,5.3L441,510l-1.5,1.1
	l-6.8,5.7l-4.4,2.9l-3.9,2.7l-0.7,0.5l-1.1,0.7L415,529l-5.5,3.1l-4,2.4l-8.6,4l-1.6,0.9l-0.9,0.4l-2.3,1l-7,3.4l-5.7,2.2l-5.1,1.9
	l-6.7,1.9l-3.2,1.1l-1.7,0.5l-7.5,1.7l-4.5,1.3l-1.3,0.3l-1.9,0.3l-9.5,1.8l-3.7,0.6l-4.7,0.4l-5.1,0.5l-5.2,0.4l-5.7,0l-3.5,0
	l-5.7,0l-5.4-0.4l-4.6-0.4l-5-0.4l-4.1-0.6l-8.3-1.4l-2.6-0.4l-1.8-0.4l-6.8-1.8l-5.3-1.1l-1.1-0.3l-2.1-0.7L249,549l-4.5-1.6
	l-6.4-2.5l-4.3-2.1l-4.3-2l-1.6-0.8l-2.8-1.6l-7.2-3.4l-3.4-2l-6-3.5l-8.3-6l-0.4-0.3l-0.3-0.2l-1.7-1.2L191,517l-6.5-5.7l-1.6-1.2
	l-1.6-1.6L175,503l-5.5-6.1l-1.7-1.7l-1.5-1.7l-5.7-6.1l-6.1-8.1l-0.4-0.4l-0.3-0.4l-2-2.7l-4.2-5.4l-4.5-6.9l-1.4-2.1l-2.1-3.8
	l-3.6-5.4l-2.1-3.6l-3.4-5.9l-3-6.1l-1.5-2.9l-0.5-1l-1-2.2l-4-7.8l-1.8-4l-2.8-6.3l-1.5-3.9l-2-4.8l-0.8-2l-2-5.6l-2.2-5.2
	l-0.8-2.2l-1.8-4.8l-1.5-3.8l-2.2-6.3l-1.7-4.8l-2.4-7.8l-0.8-2.4l-0.4-1.2l-1.2-4.2l-2.4-7.1l-0.7-2.4l-1.3-4.4l-1.5-4.8l-1.6-5.9
	l-1.6-6l-0.8-3.8l-1.3-5.2l-0.7-3.2l-1.9-10.6l-0.3-1.3l-0.2-0.8l-0.8-5.7l-1.3-7.2l-0.2-1.3l-0.2-1.7l-1.3-10.4l-0.3-3l-0.2-3.5
	l-0.5-7.6l-0.2-4l0-4.1l0-6.8l0-4.1l0.3-3.8l0.6-8l0.2-3.2l0.4-2.6l1.9-11.7l0.1-0.7L79,208l0.5-2l2-10.5l0.5-2l1-3.5l1.7-6.3
	l1.7-5.2l2.2-6l2.5-5.6l1.4-3.5l0.6-1.4l1.4-2.6l3.4-7.7l1.9-3.4l3.5-6.2l6-8.6l0.1-0.2l0,0l0-0.1l6-8.9l5.3-6l1.7-2.1l2.1-2.1
	l5.1-5.8l5.7-5.1l2.1-2.1l2.1-1.7l5.9-5.2l8.6-5.9l0.2-0.2l0.2-0.1l1-0.7l7.6-5.4l6.4-3.6l3.2-1.8L180.1,73.5"/>
<path d="M334.5,85.8l-5.3-2.5l-2.9-1.5l-6.8-2.8l-3.9-1.5l-10.4-3.1l-0.8-0.3l-0.4-0.1l-1.7-0.4l-10-2.9l-2.9-0.7l-4.2-0.7l-5.5-1.1
	l-5.3-0.8L268,67l-1.8-0.2l-6.7-0.5l-7,0.1l-0.9,0l-7,0.1l-6.2,0.7l-2.9,0.4l-5.9,0.6l-4.4,0.8l-8.1,1.9l-2.5,0.5l-1.6,0.4l-4.7,1.6
	l-6.9,1.8l-1.8,0.6l-3.9,1.5l-5.3,1.8l-5.8,2.6L180,84l-7.5,4.5l-2,1l-1,0.6l-4.2,2.6l-4.2,2.4l-6.6,5l-1.9,1.4l-2.2,1.9l-6.2,4.7
	l-4.7,4.8l-2.9,2.6l-2.6,2.9l-4.7,4.8l-4.8,6.4l-1.8,2l-1.3,1.8l-5.1,6.8l-1.8,3.1l-3.1,5.1l-0.8,1.2l-1.2,2.6l-4.2,7l-2,4.2
	l-2.7,6.1l-1.5,4.3l-1.8,4.6l-0.7,2.1l-2.1,7.6l-1.4,3.9l-0.4,1.4l-0.5,2.3l-2.1,8.3l-0.9,4.4l-0.9,6.2L88,217l-0.9,6.6l-0.4,7.1
	l-0.1,0.9l-0.4,7l0.1,6.7l0,1.7l0.1,6.7l0.5,7.3l0,0.5l0.6,7.3l0.8,6.3l0.4,2.8l0.8,5.9l0.8,4.3l1.7,8l0.5,2.6l0.4,1.8l1.8,6.9
	l1.1,5.2l0.3,1.1l0.5,1.9l2.2,9l1.2,4.1l2.1,7.4l0,0.2l2.3,7.4l1.2,4l3.8,10.8l0.1,0.2l0,0.1l0.1,0.3L113,370l1.2,3.5l2.5,7.2
	l0.1,0.4l2.8,7.4l1.3,3.5l3.5,8.3l0.8,2.3l0.3,0.8l0.8,1.9l3.1,8l2.2,5l2.4,5.3l4.8,9.2l0.3,0.5l0.1,0.2l0.2,0.3l4.8,9.8l2.8,4.8
	l2.8,4.7l4.7,6.8l1.3,2.2l0.9,1.3l4.7,6.9l0.5,0.8l6,7.4l0.7,0.9l0.9,1l5.8,7.3l5.9,5.8l1.6,1.7l1.7,1.5l5.9,5.9l7.5,5.9l0.9,0.8
	l0.8,0.6l6.3,5l1.3,1.1l7.4,4.8l1.7,1.2l3.3,1.7l6.1,3.9l3.9,2l6.1,3l4.7,1.8l4.2,1.8l1.7,0.7l5.6,1.7l5.5,2.1l2.1,0.7l3.8,1
	l5.7,1.7l5.5,1.3l7,1.2l1.1,0.1l6.9,1.1l5.4,0.4l4.5,0.3l5.1,0.4l4.8-0.1l5.2-0.1l4.9-0.1l5.6-0.6l3.6-0.3l5.9-0.6l7.2-1.3l0.8-0.2
	l7-1.4l4.4-1.2l9-2.9l1.5-0.4l0.8-0.3l2-0.8l9.2-3l3-1.3l7.3-3.3l0.7-0.4l6.9-3.7l2.2-1.1l3.4-2.2l6.1-3.3l3.3-2.4l5.6-3.6l6.9-5.6
	l1.4-1l1-0.9l7.3-5.8l7.3-7.3l0.3-0.2l0.2-0.3l7.3-7.1l6.1-7.3l0.7-0.8l0.8-1.3l6-6.9l4.2-6l2-2.9l2.9-5.2l2.9-4l1.8-2.9l3.7-6.5
	l1.8-3.8l2.4-4.7l0.7-1.6l1.6-4.4l3-6l1.4-3l2.5-7l0.3-0.8l2.5-7.3l1-4.2l1.9-8.5l0.5-2.3l0.2-1.5l1.5-11.2l0.4-1.9l0.1-0.4l0-0.5
	l0.9-13.2l0.1-1.4l-0.1-1.4l-0.7-12.9l0-0.7l-0.1-0.5l-0.5-3.1l-1.2-10.1l-0.2-1.2l-0.4-1.9l-1.9-9.4l-0.9-3.8l-2.1-6.7l-0.3-1.2
	l-2.3-7.1l-1.5-4.1l-4.1-9.6l-0.3-1l-0.1-0.3l-0.3-0.8L480,273l-1.9-4.5l-2.7-5.9l-3.3-6.5l-1.3-2.6l-0.5-0.9l-0.9-1.6l-3.8-8.7
	l-1.9-3.8l-3.1-6.2l-3.3-6l-1.5-2.9l-0.5-0.8l-0.8-1.4l-4.2-8.6l-2.3-4.2L445,203l-5.5-8.9l-0.2-0.4l-0.1-0.2l-0.4-0.8l-4.8-8.7
	l-3.5-5.6l-2.3-3.6l-3.6-4.9l-2.4-4.1l-1.7-2.4l-4.5-6.4l-6.4-7.8l-0.3-0.5l-0.2-0.3l-1.9-2.5l-4.4-5.7l-6.4-6.8l-0.9-1l-1-0.9
	l-6.2-6.9l-6.9-6.2l-0.9-0.9l-0.9-0.7l-6.9-6.4l-4-2.9l-4.1-3l-0.6-0.5l-0.8-0.6l-7.7-5.9l-5.9-3.6l-3.4-2.2l-6.7-3.4l-3.1-1.8
	L334.5,85.8"/>
</svg>
