<?xml version="1.0" encoding="utf-8"?>
<!-- Generator: Adobe Illustrator 21.1.0, SVG Export Plug-In . SVG Version: 6.00 Build 0)  -->
<svg version="1.1" id="Layer_1" xmlns="http://www.w3.org/2000/svg" xmlns:xlink="http://www.w3.org/1999/xlink" x="0px" y="0px"
	 viewBox="0 0 1728 1296" style="enable-background:new 0 0 1728 1296;" xml:space="preserve">
<style type="text/css">
	.st0{fill:none;stroke:#000000;stroke-miterlimit:10;}
</style>
<g>
	<g>
		<path class="st0" d="M632.8,400l23.4-43.8l43.8-23.4l47.4,14.6l5.1,0.1l47.5,34.4l11.2,6.9l5.6,11.2l-3.9,12.9L800,429.3
			l-30.1,40.6l-51.3,11.5l-18.6,8.8L651,449L632.8,400"/>
	</g>
	<g>
		<path class="st0" d="M379.1,700l4.8-16.1l16.1-20.5l30.9-32.5l48.8-10.6l20.3-9l46.7,42l16.6,46.7l-22.1,41.2L500,763.3
			l-49.8-13.5l-1-0.7L400,722.3l-13.9-8.4L379.1,700"/>
	</g>
	<g>
		<path class="st0" d="M800,560.9l37.9-23l21.6-37.9l16.2-24.3l1.8-53.1l6.7-22.5l-16.1-31.9l-4.4-31.9l-39-11.5L800,309.4l-5.5-4
			l-91.6-2.5L700,302l-4.4,2.3l-81,10.2l-10.2,81L602,400l1.2,3.2L603,497l4.4,3l9.9,17.4l0.9,64.4l51.8-11.7l29.9,11.5l24.3-5.8
			l46.7-4.8L800,560.9"/>
	</g>
	<g>
		<path class="st0" d="M500,797.4l5.6-3l78.1-10.6l10.5-78l3.1-5.8l-1.5-4.2l0.6-92.3L592,600l-10.2-18.2l0.9-64.5l-53,12.3
			L500,518.2l-23.2,5l-48.7,4.8l-28.1,8.2l-39.8,24L337.5,600l-14.9,22.7l-1.8,56.5l-6.2,20.8l15.1,29.8l4.9,35.5l42.4,11.8L400,791
			l5.8,3.2l90.6,2.2L500,797.4"/>
	</g>
	<g>
		<path class="st0" d="M800,528.7l-43.7,15l-8.6,4L700,559.1l-42.7-16.4L632.9,500l-19.5-13.4l0.2-73l-5-13.6l9.8-18.3l7.1-56.3
			l56.3-7.1l18.3-9.8l12.3,3.8l73.4,2l14.3,10.4l46.5,28.8L870,400l-12.8,42.8l-0.5,14L828,500l-10.2,17.8L800,528.7"/>
	</g>
	<g>
		<path class="st0" d="M367.5,600l-26.7,40.8l-0.6,19.1L328.2,700l24.2,47.6l47.6,29l15.2,8.3l71.4,1.8l13.4,3.6l21.1-11.3L572,772
			l6.8-50.8l11.4-21.2l-5.4-15.3l0.5-69.9L566.6,600l-23.9-42.7L500,540.8l-48.7,10.6l-4.4,1.8L400,566.9l-20.7,12.5L367.5,600"/>
	</g>
	<g>
		<path class="st0" d="M848.7,400l-11.2,37.5L800,484.9l-6.4,8.7L765,500l-44.5,20.5l-20.5,4.9l-18.4-7.1L671.1,500l-42.2-28.9
			l0.1-42l-10.8-29l20.9-39.1l2.4-19.3l19.3-2.4l39.1-20.9l26.3,8.1l46,1.3l27.6,20l32.4,20L848.7,400"/>
	</g>
	<g>
		<path class="st0" d="M528.6,600l-10.2-18.3l-18.3-7.1l-20.9,4.5L427,600l-22.1,4.8l-4.8,5.1l-39.7,50.5L348.6,700l17.3,34.1
			l34.1,20.8l29.2,15.9l42.6,1.1l28.2,7.6l44.3-23.8l10-1.4l1.3-10l23.8-44.3l-11.3-31.9l0.2-36.4L528.6,600"/>
	</g>
	<g>
		<path class="st0" d="M501.8,898.2l-1.8,0.7l-1.2-0.1l-94.1-3.4l-4.6-0.6l-10.3-5.1l-63.4-16.1l-26.4-37l-20.8-15.8L266.4,800
			l-27.8-38.5l-4.8-27.7L221.2,700l2.4-23.6l1.1-51.7l3-24.7l20-47.7l0.8-3.8l43-48.5l3.1-5.3l5.3-4.8l38-51.9l48.7-24.7l13.3-8.5
			l3.1-1.7l6-3.1l43.7-47.2l47.2-36.4l5.1-11.4l6.8-5.1l40.7-47.4l47.4-26.4l13.5-12.7l85.6-12.6l0.9-0.3l0.6,0.1l95,3.8l4.4,0.6
			l10,5l63.5,16.5l26.5,38.3l19.9,15.3l12.2,19.9l27.9,40l4.1,24.2l13.2,35.9l-2.6,25.3l-1.1,48.2l-3.3,26.4l-20.8,49.5l-11,12
			L904.8,600l-1.7,3l-3,2.7l-39.6,54.6l-42.6,21.9L800,693.7l-4.1,2.3l-7.8,4.1l-42.4,45.7L700,780.7l-6,13.2l-8.1,6l-39.8,46.1
			L600,871.9l-14.5,13.7L501.8,898.2"/>
	</g>
	<g>
		<path class="st0" d="M511.7,888.3L500,893l-7.9-0.8l-81.3-2.9l-10.8-1.3L376,876l-41.5-10.5L300,817l-9.7-7.3l-6-9.7L249,751
			l-0.4-2.4L230.5,700l3.4-33.9l0.7-31.5l4.2-34.6l18.1-43.1l43.1-46.5l2.2-8.2l7-2.2l39.9-49.2l0.7-0.9l0.5-0.3l49.6-31.7l11.6-6.4
			l22.4-11.6l31.8-34.3l34.3-26.4l12.1-27.2l16.1-12.1l33.2-38.6l38.6-21.5l20.6-19.3l69-10.2l10.4-4.1l7.2,0.9l82.4,3.3l10.4,1.5
			l23.9,12l41.4,10.8l34.7,50l8.7,6.6l5.3,8.7l32.4,46.3l3.2,4.1l18.2,49.6l-3.7,36l-0.6,27.4l-4.6,36.6l-17.4,41.5l-41.5,45
			l-2.9,10.6l-8.9,2.9l-39.4,48.8L800,680.2l-12.6,7.1L762.9,700l-30.3,32.6l-32.6,25l-13.3,29.1L669,800l-32,37l-37,20.7
			l-21.7,20.5L511.7,888.3"/>
	</g>
	<g>
		<path class="st0" d="M331,500l-23.6,7.5l-7.5,27.3l-31.4,33.8L255.4,600l-6,49.5l0,1.1l-5,49.4l15.1,40.5l40.5,49.9l1.2,8.4
			l4.2,1.2l25.3,30.6l16.1,22.6l8.7,2.2l44.5,22.1l20,2.4l62.1,2.2L500,884l26.5-10.5l40.9-6.2l32.6-30.8l23.4-13.1l20.2-23.4
			l32.2-24.2L700,723l13-10l12.1-13l49.4-25.5l25.5-14.4l36.6-23.5l29.5-36.6l25.5-8.4l8.4-30.4l29.3-31.9l12.3-29.3l6-47.6l0.8-4
			l5-48.4l-14.4-39.1L900,311.5l-1.4-10.2l-4.7-1.4l-26.8-32.9l-14-20.2l-8.4-2.2L800,222.3l-19.5-2.8L717,217l-17-2l-24.7,9.8
			l-44,6.5L600,260.5l-25.3,14.1L552.9,300l-30.2,22.7L500,373.5L485,385l-13.9,15l-46.9,24.3L400,437.6l-38.1,24.3L331,500"/>
	</g>
	<g>
		<path class="st0" d="M548.6,851.4L500,870.7l-32.7-3.4l-33.4-1.2L400,862l-41.4-20.5L324.3,800l-19-5.3l-5.3-38.3l-25.3-31.2
			l-9.4-25.3l3.2-31.5l9.2-46.3l2.7-22.3l5.8-13.8l13.8-14.9l15.3-56l48.3-15.3l16.3-20.1l20.1-12.8l43.3-23.8L471,429l29-15.3
			l6.2-7.5l1.9-6.2l12-20l18.5-41.4l51.3-38.5l4.7-5.5l5.5-3.1l47.2-44.3l6.6-1L700,228l31.8,3.8l35.1,1.4l33.2,4.7l41.4,20.7
			l33.7,41.4l19.3,5.7L900,347l23.4,29.5L932,400l-3,29l-10.8,52.9l-2.3,18.1l-4.7,11.2L900,523.3l-16.6,60L832.9,600l-14.7,18.2
			L800,629.9l-44.8,25.3l-21.5,11.1L700,684.2l-7.2,8.6l-2.4,7.2l-14.8,24.4l-16.1,35.2L605.7,800l-2.6,3.1l-3.1,1.7L551,851
			L548.6,851.4"/>
	</g>
	<g>
		<path class="st0" d="M500,850.6l36.2-14.4l37.5-36.2l23.1-3.1l3.1-23.4l40.2-33.3l24.3-40.2l8.8-26.7l26.7-31.7l27.2-14.4l47-27.2
			l23.4-2.4l2.4-0.8l8.3-5l62.8-20.6l16.1-58.3l7.3-12.8l2.2-3.3L900,400l0,0l0,0l-12.1-87.8l-41-12.1l-21-25.8L800,261.2l-45.2-6.4
			l-7.9-1.7l-46.9-5.6l-37.6,14.9L623.3,300l-20.7,2.6l-2.6,20.7l-41.9,34.8L533,400l-7.7,25.3L500,456.2l-28.7,15.1L420,500
			l-18.2,1.8l-1.8,0.5l-5.9,3.5l-67,21.3l-17.3,63l-5.7,9.9l-1.7,2.6l-2.6,79.4l-3,15.1l-0.3,3l0.9,2.4l2.4,3l11.5,83.1l41.3,11.5
			l21.3,25.8l25.8,12.8l44,5.3l10.2,1.9L500,850.6"/>
	</g>
	<g>
		<path class="st0" d="M600,729.1l-8.4,62.5l-61.7,8.4l-15.2,14.7l-14.7,5.8l-18.6-1.9l-77.2-14.4l-4.2-0.5l-2.4-1.2l-2-2.4
			l-74.8-20.8l-9.4-67.8l-5.8-11.4l2.4-8l2.6-81.4l7-10.6l23.4-40.9l3.9-14.2L360,540l40-24.1l12.3-3.6L496,504l4-0.9l5.1,2l22-5.1
			l30-42.8l0.4-14.7l12.8-42.4l11.1-18.5l18.5-15.4l7.4-58.7L666,300l17.3-16.7l16.7-6.6l20.8,2.5l74.9,16.4l4.4,0.6l2.5,1.2l2,2.5
			l73.7,21.8l9,65.5l6.4,12.8l-2.7,9l-2.7,79.3l-7.8,11.7l-25.9,45.4l-2,7.2l-7.8,2.6L800,582.4l-13.1,4.5l-82.3,8.5l-4.6,1.1
			l-5.7-2.2l-25.1,5.7l-29.6,39.7l-1.5,22.1L625.6,700l-9.6,15.9L600,729.1"/>
	</g>
	<g>
		<path class="st0" d="M800,721l12.1-8.9l10.7-12.1l51-26.2l26.2-36.1l19.8-17.8l11.5-19.8l32.1-36.6l7.3-34.2L983,500l1.9-15.1
			l1.6-71.4l1.4-13.5l-7-19.1l-9-52.8L952.3,300l-19.8-32.5L900,242.6l-17.4-25.2L815.4,200l-8.9-6.5l-6.5-2.6l-10.1-1L720,180
			l-20-1.9l-17.6,4.2L643.7,200l-38.1,5.6l-5.6,5.3l-24.6,13.7l-36.7,14.1L500,287.8l-7.4,4.8l-6.9,7.4l-49.5,36.2L400,375.9
			l-13.9,10.2L373.8,400l-49,24.8L300,458.7l-21.8,19.5L265.5,500l-30.8,34.7l-8.3,38.9L215.3,600l-1.6,13.7l-1.5,74.2l-1.2,12.1
			l6.5,17.3l9.6,55.7l19.4,26.9l20.5,33.2l33.2,25.2l17.3,24.3l68.2,17.3l8.4,6.1l6.1,2.3l9.3,0.9l72.2,9.2l18.5,1.6l16.1-3.9
			l35.1-16.1l42.4-6.4l6.4-6l28.2-15.8l31.4-12.2l40.4-50.8l5.3-3.5l5-5.3l51.9-37.7L800,721"/>
	</g>
	<g>
		<path class="st0" d="M218.1,618.1l2.2-18.1l14.7-34.9l5.3-24.9l35.7-40.2l8.9-15.2l15.2-13.6l30.1-41.1l59.3-30.1l5-5.6l5.6-4.1
			l43.1-47.2l51.4-37.6l5.5-4.3l0.4-0.9l0.5-0.4l5.6-6.5l38.4-48.7l16.8-6.5L600,217l8.8-8.2l59.4-8.8l21.9-9.9l9.9-2.4l11.3,1
			l80,11.3l8.4,0.3l0.3,0l0.8,0.4l78.2,20.3l21.1,30.4l27.4,21.1l16.8,27.4l22.9,32.8l7,41.4l9.5,25.8l-1.9,18.2l-1.4,62.1
			l-2.5,19.6L962,538l-4.2,19.7l-37,42.2l-7.6,13.1L900,624.9l-31.6,43.5L806.9,700l-3.2,3.7l-3.7,2.7l-44.7,48.9l-38.6,28
			L700,796.1l-1.2,2.7l-1.6,1.2l-17.9,20.8l-25.9,32.6l-10.9,4.2L600,881.3l-9.6,9.1l-63.7,9.6l-18.2,8.4l-8.4,2l-9.6-0.8l-75.5-9.6
			l-14.3-0.5l-0.5-0.1l-1.1-0.6l-77.9-19.8L300,849.7l-28.2-21.4L254.4,800l-22.8-31.6l-7.6-44.5L215,700l1.7-16.7L218.1,618.1"/>
	</g>
</g>
</svg>
