<?xml version="1.0" encoding="utf-8"?>
<!-- Generator: Adobe Illustrator 21.1.0, SVG Export Plug-In . SVG Version: 6.00 Build 0)  -->
<svg version="1.1" xmlns="http://www.w3.org/2000/svg" xmlns:xlink="http://www.w3.org/1999/xlink" x="0px" y="0px"
	 viewBox="0 0 4529 2793" style="enable-background:new 0 0 4529 2793;" xml:space="preserve">
<style type="text/css">
	.st0{fill:none;stroke:#010101;stroke-width:0.93;stroke-miterlimit:10;}
</style>
<g id="Layer_1">
</g>
<g id="Layer_2">
	<path class="st0" d="M0,0v1071.3h1772.9V0H0z M1772.7,750.9c-3,24.2-30.5,35.4-42.4,55.7c-11.2,19.1-7.3,41-18.3,60.3
		c-11.7,20.6-15.9,40.5-37.6,53.5c-4.2,2.5-13.1,4.6-14.8,8.7c-0.9,2.2,2.8,15,3,18.9c0.3,8.9,1.8,21.5-5.7,27.1
		c-13.4,10.3-41.9-17.3-58.3-17.7c-21.9-0.6-42.6,9.3-65.1,4c-21-5-39.5-17.7-61.1-21c-28.2-4.4-29.9,16.1-52.6,27.9
		c-10.4,5.4-22.2,4.6-31.3,11.6c-8.9,6.8-15.3,16-24,23.1c-8.3,6.8-12.7,14.2-22,19.2c-10.8,5.8-22.8,4.9-33.8,8.9
		c-8.7,3.2-15.1,9.7-24.8,11.7c-9.6,2-19.4,0.4-29,0c-20.8-1-40.8,4.1-61.2-3.9c-23.2-9.1-33.8-33.6-54.2-45.6
		c-22.1-13-43-7.7-65.7-15.8c-20.9-7.5-41.5-12.5-62.9-16.7c-20.3-4-33.3-21.9-53.6-25.2c-16.6-2.7-21,5.3-34.9,9.9
		c-8.8,2.9-21.4,0.6-30.7-0.5c-22.8-2.9-31-27.7-32.6-49c-2.4-31.9-25-111.6-71.3-97.4c-20.2,6.2-28.6,33.5-38.4,49.6
		c-5.3,8.7-11.6,16.7-19.8,22.9c-8.5,6.4-21.4,9.4-27.5,18.2c-11.4,16.4,8.3,41.2-18.1,53.4c-11.2,5.2-22.4-0.3-32.4,8.9
		c-9.5,8.8-10.2,20-21.7,27.8c-10.9,7.3-18.1,7.3-24.1,20.2c-5.8,12.3-4.9,20.3-17.3,26.7c-9.2,4.7-18.8,6.5-27.8,12.3
		c-10,6.5-19.7,12.8-31,17.1c-23.6,8.9-41.2-6.6-64.6-9.7c-24.1-3.1-37.1,14.5-60.4,14c-16.5-0.4-15.8,4.7-29.9,9.9
		c-12.4,4.5-20.9-2.6-31.8-6.8c-11.3-4.5-18.5-0.6-29.4-2.3c-16-2.4-19.1-14-23.8-26.7c-2.7-7.2-6.6-22-13-26.6
		c-11.4-8.2-3.1,1.6-15.8,0.4c-7.1-0.7-7.4-2.5-12.8-8.4c-6.4-7-14.8-17.6-16.6-27.2c-2.6-15.3-0.3-17.5-12.7-29.7
		c-8.2-5.6-16.8-9.9-24.1-16.6c-11.1-10.3-17-12-30.1-18.9c-19.9-10.6-37.3-18.1-59.8-24.2c-9.5-2.6-31.1-3.9-37-12.5
		c-5.2-7.6,1.3-18.8,1.2-27.9c-0.1-21.4-11.9-42.2-16.7-62.6c-4.8-20.8-2.9-41.2-9.6-61.6c-3.3-10.1-4-17.6-4.9-28.2
		c-1.2-13.5-6.9-22.3-11.4-34.8c-7.1-19.7-8.6-40-12-60.6c-3.3-20.5-10.1-39.9-12.2-60.6c-4.4-43.9-2.2-87.6,4.5-131.1
		c3.5-22.8,11.7-43.3,13.1-66.1c1.5-24.6,7.2-49.3,13.2-73c5.6-22.2,2.2-43.4,13.3-64.4c9.9-18.7,20.6-39.2,32.5-56.3
		c6.5-9.3,16.4-16.1,22.6-25.7c3.2-4.9,4.5-10.6,8.3-15.4c3.6-4.5,11.9-7.9,14.5-11.9c6.7-10.2,4.5-22.7,14.4-32.3
		c8.2-7.9,19.4-14,27.8-21.4c19.9-17.7,33-22.6,59.5-18.6c26.3,3.9,46.3,4.2,72.7-0.8c21.5-4,39.6-15.7,61.8-17
		c12.9-0.7,21.8,4.2,34.1,5.9c13,1.7,26.1-2,39.2,0.3c11.5,2.1,18.8,8.9,29.5,12.4c12.9,4.2,27.6,0.8,40.8,1
		c24.6,0.4,41.4,13.8,64.3,20.2c21,5.9,38.1,3.8,58.5,0.1c9.5-1.7,21,2.3,29.7-0.5c10.1-3.2,16.8-17.1,26.7-19.6
		c5.9-1.5,25,5.2,31.3,7.4c13.5,4.8,22.5,7.6,37.3,8.6c11.8,0.8,23.1,2.9,34.7,4.1c8.8,0.9,25.3-2.5,32.4,1.9
		c18.1,11.1,18.4,40.3,40.9,49.5c15.2,6.3,19.8-1.7,32.8-6.2c9.7-3.3,19.4-0.7,29,1.3c19.6,4.1,43.1,10.6,61.6,18.4
		c25.8,10.9,39.8,7.7,66.4,0.4c17.4-4.8,43.3-9.1,61-7c6,0.7,17.6,6.9,24.5,10.9c14.7,8.5,8,11.9,13.6,27.2
		c9.4,25.6,32.3,19.3,54,16.2c24.2-3.5,45.8,3.1,69.6,7.5c19.1,3.5,33.2-0.2,51.8-1.1c21.2-1,34.6,8.1,57.3,1.5
		c11.1-3.2,22.8-6.6,33.2-11.4c4.2-1.9,7.6-4.5,11.6-6.6c10.8-5.6,9.5-7.5,16.5,2.1c11,15.2,24.5,38,48.3,33.6
		c20.3-3.8,26-30,49.3-32.2c14.6-1.4,52.5,12.8,59.6,27.6c2.3,4.7-1.7,10,0.1,14.3c2.2,5.4,9.2,7.4,14.1,11.9
		c8.3,7.6,11.6,18.7,19,27c8.5,9.6,18.9,9.9,28.6,17.3c10.6,8,11.6,17.9,15.1,29.5c6.4,20.7,22.1,33.7,32,52.7
		c5.1,9.7,7.4,19.6,11.7,29.3c5.2,11.6,14.9,19.7,19.3,31.4c8.1,21.4,8.1,42.2,21.9,60.2c17.7,23.2-1.4,38.6-15.9,59.4
		c-22.8,32.6-43.3,86.7-25.7,125.2c9,19.8,22.1,37.6,30.6,57.6C1758.4,707.1,1775.1,731.7,1772.7,750.9z"/>
</g>
</svg>
