<?xml version="1.0" encoding="utf-8"?>
<!-- Generator: Adobe Illustrator 21.1.0, SVG Export Plug-In . SVG Version: 6.00 Build 0)  -->
<svg version="1.1" id="Layer_1" xmlns="http://www.w3.org/2000/svg" xmlns:xlink="http://www.w3.org/1999/xlink" x="0px" y="0px"
	 viewBox="0 0 144 288" style="enable-background:new 0 0 144 288;" xml:space="preserve">
<path d="M649.5,241.3c-103.8,102-25.2,254.2,106,278.1c99,18.1,251.3-53.3,315.1-127.1c84.2-97.4,34-250.2-94.4-272.7
	C884.9,103.6,704,164,649.5,241.3"/>
<path d="M629.7,403.5c55.3,126.1,184.6,117.6,290.3,67c96.1-46,220.2-113.4,173.1-242.6c-47.8-131.1-188.3-99.2-287.9-58.3
	C709.6,208.9,582,276.4,629.7,403.5"/>
<path d="M278.5,534.6C163,513.8,104.8,359.5,98.5,255.7C91.4,139.9,198.6,43.4,313,88.8C504.9,165.1,551,563.7,278.5,534.6"/>
<path d="M149.9,133.5c-127.3,129.6,67.4,513.9,252.7,357C567.3,351,309.4-55.2,149.9,133.5"/>
<path d="M694.5,465.1c93,72.4,200.7,2.4,288.6-41.3c92.1-45.8,157.5-160.5,64.2-245.7c-86.7-79.1-221.1-8.7-308.8,36.5
	c-51.4,26.5-95.7,69.6-99.9,131.1C636.2,381.2,654.8,453.2,694.5,465.1"/>
<path d="M294,513c-105.6-9.4-140.7-139.6-162.3-224.7c-23.6-93.2,25.2-198.5,135.8-185.9C437.8,121.8,530.5,534.6,294,513"/>
<path d="M715.3,463.5c81.4,56.3,220-21.9,293-66.5c82.8-50.5,102.6-168.9,12.7-224.1c-50.2-30.8-101-19.7-151.6,2.7
	c-45.7,20.2-100.8,36.4-143.2,62.8C647.4,287.5,621.9,411.5,715.3,463.5"/>
<path d="M1046.3,208.5c84.3,99.7-35.2,168.9-111.2,200.1c-80.3,33-166.6,112.6-241.7,17c-73.4-93.4,19.4-168.8,101.6-197.5
	C867.2,202.9,982.7,110.2,1046.3,208.5"/>
<path d="M405.4,448.5c-13.4,19.7-33.6,36.3-55.9,44.9c-93.7,36.4-148.7-43.4-172.6-121c-24-77.7-77.8-168.7,2.1-234.4
	c75.6-62.2,160.6-6.2,192.6,69.8C398.9,272.8,455.8,382,405.4,448.5"/>
<path d="M739.5,449.2c80.8,33.3,149.7-40.4,223.5-64.4c93.5-30.4,145.6-165.3,24.6-204c-54.9-17.6-91.3,18.6-134.3,43.8
	c-36.3,21.2-79.7,17.1-115.8,38.8c-33.6,20.2-57.3,55.6-56.4,95.8C682.4,412.9,715.5,414.6,739.5,449.2"/>
<path d="M364.5,243.1c15.9,72.7,84,145.9,17.6,215.2c-89,92.8-167.6-13-190.8-94.3c-21.1-73.6-87.2-169.2,5.1-225.5
	C277.8,89,354.2,163.2,364.5,243.1"/>
<path d="M289.5,478.1c-85.9-17.6-76.4-114.9-104.9-177.5c-29.9-65.5-37.2-173.2,71-166.2c97.1,6.3,81.6,110.9,113.8,173.1
	C404.4,375.4,406.2,499.8,289.5,478.1"/>
<path d="M757.8,445.2c58.6,11.3,78.5-14.5,120-46.2c36.7-28,71.3-17.2,111.6-34.8c75.5-33.1,82.2-144.2-1.5-172.4
	c-40-13.5-72.6,3.1-104,26.5c-41.7,31.1-47.1,32.4-97.6,43C691.9,281,651.9,402.8,757.8,445.2"/>
<path d="M51,283.5c15.2,121.1,76.1,258.4,204.1,293.2c54.3,14.7,110.3,7.7,161.2-14.8c53.2-23.5,99.7-82.8,161.5-72
	c54.2,9.5,100.4,55,156.5,66.4c54.5,11.1,110.1,4,162.2-14c108.7-37.6,233-112.9,247.2-237.9c15.2-133.1-98.9-229.1-226-224.3
	c-53.8,2-108.1,19.6-158.4,37.9c-56.3,20.4-112.2,64.7-169.8,77.8c-68.6,15.5-109.3-52.2-155.6-91.5c-41.7-35.4-90.6-64.1-145.9-71
	C137.4,14.1,42.6,144.5,51,283.5"/>
<path d="M499.5,188.3c87.1,77.6,199.7-40.3,293.8-72.7c101.7-35,224.1-48.3,301.1,43.7C1287,389.4,873.8,612.8,682.6,529.7
	c-40.9-17.8-87.3-68.8-134.4-62.8c-55,7.1-108.7,79.6-163.8,98.1c-145.4,48.8-259-57.1-303.6-187.6
	C43.9,269.3,45.2,133.9,154.3,67.9C286.4-12,417.6,85.9,499.5,188.3"/>
<path d="M379.5,86.9C241.4-6.9,65.7,84.7,66.1,252c0.4,138.6,85.5,307.7,238.7,316.4c97.4,0,139.5-56.8,210.1-110.2
	c61.6-46.6,94.8,18.1,150.2,50.7c144.5,85.1,417.6-9.4,460.8-180c22.3-87.8-22.5-178.5-104.9-215.1c-89.1-39.5-187.4-2.8-271.6,32
	c-50.6,20.9-93,48-136.9,80.3c-22.1,16.3-41.5,37.7-70.6,29.3C475.1,236.3,442.2,123,379.5,86.9"/>
<path d="M180.1,73.5c92.7-51.1,195.4,10.1,253.1,82.4c19.6,24.6,82.5,169.1,113.6,172.6c19.4,2.2,48.1-52.7,58.6-65.1
	c29.4-34.7,64.3-63.5,104.5-85.1c93.5-50.3,229.5-104.7,329.8-44.2c83.3,50.3,106.2,159.4,56.3,241.7
	c-40.6,66.8-128.1,107.8-198.5,135.1c-70.7,27.4-146.4,32.8-214.3-5.2c-31.3-17.5-56.3-42-79.1-69.2c-6.8-8.1-34.1-59-45.6-61.3
	c-32.2-6.4-68.8,84.1-87.3,104.9c-59.7,67.3-151.9,100.4-237.4,62.7C84.8,477-9.5,149.3,180.1,73.5"/>
<path d="M334.5,85.8C200.3,22.2,71.2,133.3,88.1,274.5c12.1,101.3,64,233.5,169.4,266.3c112.4,35,235.4-56.6,242.4-172.9
	C505,282.7,423.9,112.1,334.5,85.8"/>
</svg>
