<?xml version="1.0" encoding="utf-8"?>
<!-- Generator: Adobe Illustrator 21.1.0, SVG Export Plug-In . SVG Version: 6.00 Build 0)  -->
<svg version="1.1" xmlns="http://www.w3.org/2000/svg" xmlns:xlink="http://www.w3.org/1999/xlink" x="0px" y="0px"
	 viewBox="0 0 5053.5 3253.8" style="enable-background:new 0 0 5053.5 3253.8;" xml:space="preserve">
<style type="text/css">
	.st0{fill:#FFFFFF;}
	.st1{fill:none;stroke:#000000;stroke-width:2.3943;stroke-miterlimit:10;}
	.st2{fill:#ED1C24;stroke:#ED1C24;stroke-width:4.5;stroke-miterlimit:10;}
	.st3{fill:#ED1C24;stroke:#ED1C24;stroke-miterlimit:10;}
	.st4{font-family:'InputMono-Regular';}
	.st5{font-size:122.337px;}
</style>
<g id="Layer_2">
	<g>
		<g id="aLreVX.tif">
			
				<image style="overflow:visible;" width="1080" height="1080" id="Layer_0_3_" xlink:href="C5D8E6B16B529273.png"  transform="matrix(-0.3928 0.9153 -0.9711 -0.3703 4172.2222 1600.5514)">
			</image>
		</g>
		<polygon class="st0" points="3668.4,2989.9 4042.8,2129.9 2921.1,1696 2546.7,2555.9 		"/>
	</g>
	<g>
		<g id="aLreVX.tif_1_">
			
				<image style="overflow:visible;" width="1080" height="1080" id="Layer_0_1_" xlink:href="C5D8E6B16B529276.png"  transform="matrix(-0.9155 -0.3923 0.3698 -0.9713 1899.0217 2292.2271)">
			</image>
		</g>
		<polygon class="st0" points="1380.3,2127.3 2240.5,2501.3 2673.7,1379.3 1813.6,1005.3 		"/>
	</g>
</g>
<g id="Layer_1">
	<path class="st1" d="M2435.7,862.8l1,1.2l1.2,0.4l0.4-1.1l0.2-0.4l-0.2-0.4l-0.4-0.8l-1.8-0.6L2435.7,862.8"/>
	<path class="st1" d="M1432.3,864.3l1.2-0.4l5.5-1.2l22.8-6.4l6.4-1.4l9.5-1.6l14.3-2.6l12.1-2l15.2-1.1l5-0.4l15.7-1.1l16,0.8
		l4,0.1l15.9,0.8l13.4,1.7l10.9,1.8l11.6,1.6l8.3,1.7l27.1,7.7l0.6,0.1l0.3,0.1l0.7,0.3l26.3,8.5l8.5,3.7l16.4,7.3l7.2,4.1l12.3,6.6
		l3.9,1.8l6.4,3.9l17.2,8.4l8.4,5.9l12.9,8.7l14.7,12.9l4.7,3.6l3.6,4l14.4,13.9l12.6,14.4l4.5,4.4l4.4,5.6l13,12.9l10.4,13l5.7,6.9
		l6.9,11.3l7.4,10.3l4.2,7.4l8.3,16l2.5,6.5l5.9,13.4l2.1,5.4l5.4,18.3l3.4,8.7l1.1,3.4l1.8,6.3l5.6,17.6l3.1,12l2.9,18l0,0l2.7,18
		l1.4,13.8l0.8,9l1.3,13.1l0.5,11.3l0.5,13.9l0.4,10.7l-0.3,10.6l-0.1,14.6l-0.3,10.7l-1.1,12.1l-0.7,11.1l-1.2,12.8l-1.3,15.3
		l-0.3,5l-1.4,15.6l-2.3,16.5l-0.6,3.4l-2.4,15.9l-2.2,11.3l-4.2,17.5l-1.5,7.1l-0.7,4.9l-4.9,26.8l-0.6,3.7l-0.1,0.6l-0.1,0.8
		l-4.3,30l-1,5.1l-2,8.1l-3.7,16l-3.1,11.8l-5.1,16l-2.1,6.1l-4.6,13.9l-2.3,7l-7,19.1l-2.3,7.5l-0.7,2.3l-1.4,4.4l-6.2,21
		l-3.4,10.6l-4.2,17.7l-0.2,0.8l-4.5,17.5l-2.7,10.3l-7,22.2l-0.9,3.3l-0.7,1.7l-1.7,3.7l-8.4,22.2l-3.4,8.4l-6.9,17.2l-1.3,2.8
		l-6.8,15.9l-2.5,6.6l-6.6,14.9l-4,10.5l-1.8,4l-4.6,10.4l-4.4,10.7l-7.4,14.8l-4.9,8.7l-8.7,13.2l-5,9l-3.4,5l-10.4,17.1l-4.4,6.1
		l-8.9,12.7l-1.5,2.3l-2.3,3.1l-12.6,17.9l-10.8,12.6l-5.9,6.6l-6.6,6.6l-10.6,12.2l-11.3,10.6l-7.1,7l-7,5.7l-11.7,11.5l-14.9,11.7
		l-5,4.3l-4.3,2.8l-17.3,11.5l-2.8,1.5l-15.8,8.9l-4.4,2.5l-9.7,4.4l-14,7.8l-7.8,3.9l-16,8.2l-6.8,2.8l-13.2,5.9l-5.1,2.2
		l-14.9,5.1l-11.1,4.7l-4.7,1.4l-7.7,1.6l-16.4,4.1l-11.8,2.1l-15.5,1.6l-4.3,0.6l-16.1,1.6l-17.1,1.2l-1.8,0.1l-17,1.1l-16.1-0.2
		l-3.7,0l-16.1-0.2l-17.3-2.3l-1.6-0.2l-17-2.3l-12.1-2.6l-15.7-4l-8.1-1.9l-4.9-1.3l-15.7-4.9l-12.4-2.9l-2.9-0.9l-5.9-2.1
		l-18.4-5.7l-11.6-4.7l-13.4-6.2l-22-12.9l-0.5-0.3l-0.2-0.1l-0.2-0.2l-22.5-13l-13-10.1l-7.5-5.3l-8.1-7.5l-11.6-8.7l-8.7-8.8
		l-9.7-8.7l-8.5-9.7l-8.7-9l-9-12.3l-6.8-7.8l-4.6-6.8l-10.6-13.9l-13.9-21.7l-0.1-0.2l-0.1-0.1l-0.4-0.6l-13.5-21.2l-7.4-14.1
		l-4.4-10l-8.7-24.6l-0.5-1.3l-0.2-0.6l-0.6-1.8l-9.8-23.7l-3.6-9.8l-5.1-17.5l-0.3-1.2l-4.7-17.2l-1.9-10.6l-2.6-17.3l-1.4-8
		l-0.5-6.1l-1.5-25.2l-0.4-4.6l-0.1-4.2l0-27.5l-0.1-4.2l0.1-4.3l0.7-26.8l0.1-4.9l0.3-5.3l0.2-25.1l0.3-5.5l0.7-6.5l1.4-21.4l1-7.9
		l1.7-10.6l1.7-12.9l2.2-12.4l4.4-17l0.9-2.9l4.5-16l3.1-8.4l8.4-19.2l2.2-6.2l0.9-2.2l2.4-5.5l7.2-17.8l6.2-12.7l5.7-11.3
		l11.3-18.6l2-4l1.1-2l2.7-5.7l7.5-17l6.8-13.2l5.1-10.8l10.8-20.2l1.6-3.3l0.9-1.6l3-5.4l8.7-16.3l8.6-14.2l4.7-8.5l8.5-13.7
		l4.9-8.9l2.9-4.9l9.5-17.2l0.5-0.9l10.8-17.7l2.6-4.8l4.8-7.6l8.2-15.3l4.8-8.2l8.4-14.5l13.3-20.2l0.8-1.2l0.2-0.3l0.3-0.4
		l11.7-23.5l6.8-11.7l6-11.5l11.5-17.6l2.3-4.6l1.4-2.3l5.6-9.3l6.4-11l11-15.6l3.8-5.5l5.5-6.6l9.3-14.5l7.3-9.3l8.4-10.8
		l10.8-10.9l6.5-7.6l7.1-6.5l11-11.3l11.3-9.5l7.7-7.4l10.3-7.7l9.7-8.2l8.2-5.5l12.9-9.3l22.2-12.9l0.5-0.3l0.3-0.2l1.3-0.7
		l20.6-12.7l14-7l10.3-4.6l23.1-7.7L1432.3,864.3"/>
	<path class="st1" d="M1432.3,938.6l-7.8,3.8l-14.3,6.1l-13.9,8.6l-8.4,5l-10.4,8.4L1367,977l-6.5,5.9l-13.4,10.1l-13.3,13.4
		l-4.9,4.2l-4.2,5.4l-13.2,13.1l-9.9,13.2l-5.8,7l-7,12.1l-7.3,9.5l-4.4,7.3l-9.2,15.1l-5.1,10.8l-5.1,10l-1.6,3.3l-3.3,8.6
		l-8.2,15.7l-3.7,8.2l-7.1,16.9l-1.4,3.6l-6.3,15.4l-2.4,6.8l-6.8,19.7l-2.9,6.5l-1.3,2.9l-3.6,7.8l-6.5,13.8l-6.4,14.3l-5.4,9.7
		l-9.7,19.2l-2.6,4.3l-1.4,2.6l-6.6,10.7l-5.7,8.9l-9,16.4l-4.3,6.3l-6.3,10.4l-8,11.2l-4.9,8l-9.5,13.5l-11.7,20.5l-1.1,1.9
		l-0.3,0.5l-0.5,1l-12.7,21.8l-6.4,12.7l-5.9,10.8l-10.8,24.4l-0.2,0.4l-0.1,0.2l-0.3,0.7l-11.6,23l-5.1,12.2l-5.3,13.3l-4.3,13.7
		l-3.2,9l-1.4,4.4l-4.4,17.9l-3.3,10.4l-0.8,3.3l-1.2,5.3l-5.4,20l-2.3,10.6l-2.7,15.6l-0.8,3.9l-2.6,16.4l-1.1,15.8l-0.1,4.4
		l-1,15.7l0,14.6l0.1,6.5l0,14.8l1.1,15.8l0.3,4.1l1.1,16.1l2.5,16.3l0.7,4.1l2.5,15.5l2.7,10.4l7.3,22.5l0.9,3l0.6,1.6l1.6,3.7
		l7.4,23.2l3.1,7.4l7.9,17.5l1.4,2.3l8.8,16.1l2.7,4.7l4.7,6.5l8.9,15.9l7,8.9l8.3,11.7l11.7,12.5l5.1,6.6l5.8,5.1l12.4,12.6
		l12.6,9.7l7.4,6.2l12.4,7.4l9.2,6.9l6.9,4.1l15.8,9.1l7.3,3l12.8,5.9l4.8,2.1l15.8,4.8l10.9,4.4l4.4,1.4l7.6,1.8l16.3,4.5l12.1,2.7
		l16.8,2l2.1,0.3l17.1,2l17-0.1l1.8,0l17-0.2l16.8-1.9l2.6-0.4l16.5-2l12.1-2.4l15.9-4.2l7.9-1.7l4.7-1.4l11.9-4.7l15-4.2l4.2-1.7
		l10.3-4.4l11.3-4.1l14.4-7.6l9.1-4.8l13.3-9.1l8.7-4.8l4.8-3.7l16.6-10.9l18.8-16.6l0.3-0.2l0.2-0.2l4.8-4.3l14-12.4l7.1-8.7
		l8.4-10l0.8-0.8l0.8-1.2l15.5-18.3l10.5-15.5l4.3-5.7l5.7-9.2l9.4-11.6l6.1-9.4l7.9-12.6l10.7-21.5l1-1.8l0.3-0.6l0.6-1.3
		l11.8-22.2l5.2-11.8l5.6-13.3l5-14.4l3.1-8.2l1.3-3.8l3.8-13.1l5.2-13.8l1.8-5.2l3.5-10.5l3.9-11l4.4-14.4l3.7-13.3l2.9-12.1
		l2.7-10.4l1.6-6.1l6.1-25.1l1.1-3.6l0.3-1.1l0.5-1.9l6.9-25.2l2.3-8.8l3-14.1l1.4-6.4l3.2-15.5l3.2-14.1l2.1-9.9l2.7-11.9l1.8-7.4
		l6.2-27.2l0.3-1.3l0.2-0.7l0.7-2.6l8.2-24.4l2.2-8.2l5.4-15.8l1.2-3.1l5-17l3.5-10.4l5.6-20.6l1.5-4.9l0.8-2.6l2.6-10.4l5.3-17.7
		l1.2-5.3l1.5-8l3.7-16.2l1.9-11.7l1.7-15.3l0.7-4.6l1.6-16l0.1-17.7l0-0.6l0.1-17.7l-1.4-16.3l-0.3-3.5l-1.4-16l-2.2-12.4
		l-3.1-14.1l-1.8-9.3l-1.7-5.9l-5.9-16.1l-2.9-11l-1-2.9l-2.9-6.7l-6-16.4l-6.6-12.8l-5.9-10.6l-10.6-14.2l-3.9-7.2l-3-3.9
		l-12.2-16.8l-16.8-17.1l-0.9-1.1l-1-0.9l-16.3-17.8l-17.8-13.9l-2.2-2.1l-3.5-2.2l-16.7-13.4l-13.4-7.7l-9.4-5.3l-24.4-9.4
		l-1.4-0.7l-0.7-0.3l-1.5-0.5l-24.4-8.6l-10.1-2.8l-15.5-2.7l-4-0.8l-16.4-2.7l-16.1-0.8l-3.8-0.1l-16-0.7l-16.7,1.4l-2.3,0.2
		l-16.9,1.5l-14.6,2.9l-9.1,2.4l-12.2,2.7l-7.2,2.3l-17.1,7.2l-8.9,2.7L1432.3,938.6"/>
	<path class="st1" d="M1296.3,2004.3l23,2.4l5.3,0.7l4.6-0.1l26.6-0.2l4.8-0.1l5.8-0.9l21.8-2.5l8.3-1.5l13.7-3.9l7-1.5l15.2-5.2
		l11-4.4l19.7-11l3.7-1.5l1.5-1l6-3.6l15.6-8.3l14.3-11.5l6-4.1l6.3-6l13.1-10.5l10.5-12.8l6.5-6.1l5.1-6.5l11.1-13.3l13.3-21.8
		l0.4-0.5l0.2-0.4l1.1-1.7l13.2-19.3l8.1-14.9l4.5-8.4l8.4-19.9l2.8-4.9l1.3-2.8l3.4-7.5l6.9-14.1l5.8-14.3l4.4-11.5l5.6-18.6l2-5.8
		l0.9-2.9l2.9-12.2l5.1-15.7l1.4-5.1l2.1-8.6l4-14.8l2.9-12.5l3.4-17.2l0.3-1.9l3.2-16.8l1.6-12.1l1.8-13.6l1.4-10.3l0.6-8.4
		l1.9-21.1l0.5-6.4l0.4-5.6l2.8-27.5l0.2-2.8l0.3-2.3l2.3-13.5l3.5-16.6l0.7-3.5l2.3-6.5l6.1-16.8l4.1-12.6l6.6-12.5l8-18.9l2.1-4.5
		l1-1.4l1.4-2.9l11.8-19.8l5.3-11.8l6.8-12l7-18.9l2.2-5l0.9-1.9l1.9-5.9l8.5-19.6l2.6-8.5l4.1-15.3l1.3-4l3.8-16.6l1.8-13.7
		l0.7-9.2l1.5-13l-0.3-11.7l-0.4-12l-0.3-12.2l-2.7-15.1l-0.7-4.9l-3-15.9l-4.1-12.9l-7.3-17.3l-2.1-5.7l-1.1-2.5l-2.5-4l-8.6-20.8
		l-5.7-8.6l-8.5-13.2l-13.2-14.3l-3.4-5l-3.8-3.4l-13.6-15.1l-15.1-11.7l-4.8-4.3l-9-4.8l-12.6-9.5l-9.5-5l-14.7-6.8l-9.1-2.6
		l-12.1-4.4l-6.2-1.5l-27.9-4.4l-1.8-0.4l-1.4-0.1l-34.4-1.2l-0.2,0l-0.2,0l-32.7,2.8l-3,0.4l-4.8,1.4l-21.6,4.7l-9.5,3.3l-16.2,6.9
		l-8.9,5.5l-10.8,6l-3.1,1.7l-4,3.1l-18.5,10.3l-10.3,9.5l-9.1,7l-8.3,9.1l-9.7,8.8l-8.8,13l-6.8,7.3l-4.5,6.8l-10,14.6l-5.9,12.6
		l-4.6,8.7l-1.3,2.8l-2.8,8.8l-8,16.3l-3.2,8l-4.9,16.1l-0.9,2.8l-4.9,17l-2.2,11.9l-2.8,15l-1.7,9.1l-0.8,6.6l-4.6,27.4l-0.3,1.9
		l-0.3,1.4l-1.4,5.5l-7.3,21.7l-2.6,7.3l-8.7,17.4l-1.2,2.4l-8,16.2l-3.5,4.7l-4.7,7.4l-10.3,13.5l-6.6,10.3l-9,10l-10,14.6
		l-5.1,6.2l-3.4,5.1l-12.6,14.8l-10.4,16.7l-2.9,4.4l-0.6,0.9l-0.9,1.4l-13.9,19.6l-7.5,13.9l-5.4,9.1l-9.1,20.5l-2.4,3.9l-1.1,2.4
		l-3.1,6.6l-7.7,15l-5.8,14.3l-4.6,11.2l-6.2,19.7l-1.8,5l-0.9,2.4l-2.4,9.1l-6.3,18.1l-1.8,6.3l-2.7,10.8l-3.2,11.2l-3.1,14
		l-2.7,16.1l-0.5,4.2l-2.4,15.6l-1.1,12.1l-0.7,12.3l-0.9,11.5l0.2,10.7l0.4,14.1l0.2,11.1l1.8,13.1l1.1,8.6l2.1,14.2l4.2,15.5
		l2.3,7.3l3.8,13.2l2.6,6.8l6.8,13.8l3.9,11.4l2,3.9l7.3,13.2l3.1,6.3l12.1,16.3l3,4.4l4.4,4.7l11.4,15.4l13.4,11.4l5.4,5.7l5.7,4.2
		l14,12l17.3,9.4l4.6,2.8l1.1,0.7l2.7,1.1l20.3,11.8l11.8,4.9l14.4,4.8l9.2,2l12.4,3.5L1296.3,2004.3"/>
	<path class="st1" d="M3636.7,2070.2l-13.6-3.7l-14.5-4.1l-10.9-4l-10.5-3.4l-5.3-1.8l-12.6-5.3l-13.6-4.4l-4.4-2l-11.7-5.3l-9-3.6
		l-15.3-8.5l-8-4.1l-12.1-8l-10.4-5.3l-5.3-3.8l-16.8-9.9l-9.9-7.6l-9.2-6.8l-1.5-0.9l-1.9-1.5l-19.5-13l-13-11.6l-6.8-4.5l-8.5-6.8
		l-12.2-8.4l-8.4-6.9l-13.3-7.3l-22-12.8l-0.6-0.3l-0.2-0.1l-0.5-0.2l-27.3-8l-8-2l-12.1-2.1l-9.7-2l-14.1-2.3l-16.5-3l-3.4-0.5
		l-16-2.8l-10.8-2.4l-19-4.7l-6.1-1.4l-3.5-1.1l-9-3.5l-18.6-4.7l-4.7-1.6l-11.1-4.8l-10-3.8l-14.8-7.7l-8.5-4.8l-11.2-8.5
		l-10.5-5.6l-5.6-4.8l-14.4-11.1l-12.9-14.4l-4.5-4l-4-6l-12.1-13.8l-7.3-12.1l-6.5-10.1l-9.7-25.3l-0.2-0.5l-0.1-0.2l-0.2-0.7
		l-9.6-25.4l-2.6-9.6l-2.2-14.4l-1.1-6.1l-2.1-15.5l0.2-17.4l0-1.1l0.2-17.4l2.4-14.8l1.7-8l2.3-13.1l2.5-8.3l8.3-19.4l1.8-6.5
		l0.8-1.8l2.7-5.3l7.6-17.6l9.1-12.9l5.5-8.3l8.3-8.8l7.8-11l9.3-7.8l9.1-9.8l9.8-7.2l10.4-8.6l20.8-10.4l2.8-2l2-1l5.6-2.6
		l16.2-8.5l14.1-5.4l12.9-3.4l12.4-2.3l10.6-2.5l7.5-0.7l22.6-1.7l5.8-0.5l5.6,0.3l24.4,0.3l5.9,0.3l7.6,1.4l18.4,2.2l9.9,2.2
		l17.4,5.4l0.8,0.2l17.6,6.7l8.5,3.1l16.2,8.5l8.1,3.2l3.2,2l10.4,5.2l10.6,4.6l15,9.8l7.6,3.5l12.8,7.6l10.3,5.2l5.2,3.5l13.8,5.1
		l6.2,2.2l16,6.3l11.2,2.4l16.9,3.5l7.8,1.7l5.5,0.6l26.9,2l3.5,0.4l3,0.2l31.4,1.4l1.6,0.1l1.4,0.1l21.5,1.4l12.5,0.6l0.6,0
		l0.7,0.1l31.9,2.7l3.4,0.3l4.4,0.7l23.6,3.4l7.8,1.3l11.8,2.6l10.3,2l13.8,3.3l14.5,4.3l11,4l10.5,3.5l5.1,1.9l11.2,5.1l14.7,4.9
		l4.9,2.1l12.8,5.8l7.3,3l15.8,8.5l7.5,4.1l10.8,7.5l11.7,5.8l5.8,4l15.6,10.4l17.4,15.6l1.7,1.2l1.2,1.2l17.9,15.6l0,0l0,0
		l14.9,17.9l1.5,1.5l1.5,2.3l14.6,17.5l8.7,14.6l5,7.7l7.7,18.7l3.4,6l1.4,3.4l2.8,7.7l6.1,14.4l4.3,13.8l3.1,14.7l1.1,7.5l2.6,13.7
		l0.6,10.5l0.6,15.5l0.5,10l-0.9,10.4l-1,14.2l-1.1,11.3l-3.6,16l-0.6,3.3l-4.2,16.6l-4.1,11l-11,21.7l-0.8,2.4l-0.5,0.8l-1.7,3
		l-10,19.9l-10,13l-5.3,7.7l-7.7,8l-8.9,11.4l-11,8.9l-7.9,8.1l-8.1,6l-12.1,9.7l-23,12.1l-0.5,0.3l-0.3,0.2l-1,0.5l-22,12l-13,5.3
		l-13.3,4.3l-12.4,3l-10.3,3l-6.4,1l-26.3,3.2l-3.2,0.5l-2.7,0.1l-31.5,0.9l-1.7,0l-1.8-0.1l-30.7-1.5l-3.4-0.3l-4.4-0.8l-24-3.1
		l-7.5-1.4l-11.6-2.7L3636.7,2070.2"/>
	<path class="st1" d="M1576,2824.9l10.7,2.5l22.1,10.7l2.2,1l1,0.4l1.3-0.1l8.6-1.3l20.5-5.6l5.6-5.9l9.1-15.4l8.3-9.1l1.6-17
		l1.2-3.2l2.4-15.8l6.8-6.6l6.5-29.3l0,0l0,0l0,0l17.1-18.7l9.4-17.1l5.8-3.6l3.6-2.1l13.5-7.8l6-2.9l16.4-16l2.1-1.4l2.1-2.1
		l0.5-4.8l4-22.4l0.8-8.7l10.7-15.7l15.7-14.2l4-2.1l9.1-4l18.9-4l4-1.3l5,0.3l28.5,2.5l2.5,0.1l2,0.3l14.2,2l16.2,3.5l3.5,1.6
		l2.6-2.5l2.9-2.6l20.4-10l10-4.6l13.3-8l18.8-9.5l3.8-2l1.8,0.1l13.2-1.8l18.9-2l2-2.5l11.7-19.8l-0.6-11.7l2.1-13.2l1.1-8.4
		l2.4-14.3l6.6-12.6l12.6-15.1l4.8-3.4l8.7-4.8l15.5-7l7-3.9l17.5-7.6l2.1-1.2l16.3-8.6l4.2-3.5l5.6-4.2l15.6-10.5l10.5-7.8l8.7-8.8
		l8.3-8.7l8-10.9l10.9-18.8l1.9-4.4l1-1.9l4-6.9l8-14l9.3-14.9l5.9-5.9l5.9-6.1l11.9-12l12.6-11.9l6.6-4.8l4.8-3l13.9-6.2l5.5-2.6
		l16.5-6.6l12.8-0.1l10.6-0.2l12.6-0.1l16.7,4.3l2,0.4l17.2,4.7l11,3l20.1,6.3l4.8,1.4l2.5,0.9l6.5,2.5l15.3,11.6l11.6,21l1.1,2.2
		l0.7,1.1l5.7,7.5l9,11.9l13,16.5l2.7,3.8l3.8,5.2l10.7,16.2l7.8,10.7l4.4,13l5.7,15.7l2.5,7.3l1.2,3.5l3.5,11.2l9.5,11.7l22.9,9.5
		l2,1.6l1.6,5.9l4.3,24.1l0.6,4.3l-0.7,4.2l-4.2,24.1l-1.1,6.6l0,1.1l0.3,0.8l0.8,1.9l12.5,20.8l11.9,12.5l7.6,3.9l3.9,1.5l6,0.6
		l19.8,4.1l10.1,0.7l8.2-2.7l26.2-6.6l1.6-0.5l1.3,0.2l29.8,3.5l4.8,0.6l7.2,1.8l17.1,4.4l11.6,2.7l17.3,2.9l1.2,0.2l17.5,2.9
		l11.8,3.7l16.4,4l7.8,2.2l4.3,1.3l18.3,4.3l9.1,4.3l4.3,2.8l10.9,3.9l9,5.1l16,2.9l11.6,5.5l17.7,4.9l6.7,2.4l2.6,1.6l3,2.6
		l14.9,15.5l15.5,12.5l5.5,2.5l13.5,5.5l12.8,4.2l4.2,1.2l7.4,2l20.7,0.5l7.9,4.2l17.8,5.8l0.2,0.1l17.9,4l11.7,2.3l11-1.5l13.2,1.4
		l8.9,2.9l26.7,8.7l0.3,0.1l0.1,0l0.4,0.1l25.1,10.3l10.3,4.5l17,4.2l2.9,1.1l16,4.8l8.4,2.8l17.8,8.4l5.5,4.3l4.3,5.9l14,3.8l6,1.9
		l15.9,3.9l11.3,4.9l20,6.6l4.6,1.7l1.7,1.2l3.1,1.7l17.3,13.9l13.9,6.9l12.5,2.7l12.9,2l10.5,2.1l7.1,1.4l24.8,3l4,0.7l2.2,1.1
		l5.6,2.2l20.1,8l8,2.9l13,2.1l8.6,1.4l14.4,2.3l10.8-5.8l24.5-10.8l0.4-0.2l0.2-0.1l0.7-0.5l21.1-13.4l14.1-9.6l7.8-4.4l8.3-7.8
		l10.8-9l9-10.9l9.2-6.9l10-9.2l9.4-7.4l7.4-6.4l12.1-9.9l12.4-12.1l7-4.3l4.3-1.9l9.6-3.4l12.5-4.2l13.8-5.1l12.3-4.8l20.3-12.3
		l2.4-0.9l0.9-0.5l2.6-1.2l21.2-9.6l12.2-6l13.5-4.3l17.9-9l4.5-1.9l1.6-1l1.6-1.6l22-10.7l10.7-7.5l11.9-5.7l17.2-11.9l4.6-2.2
		l2.2-1l4.2-1l22-5.5l9.7-2.4l11.2,0.9l14.7,1.2l10,0.8l6.5,2.8l14,6.5l10.6,4.9l4.9,1.4l9.1,2.8l13.4,4.4l13.5,3.8l14.2,4.4
		l11.8,4.2l10,3.3l5,1.7l13.1,5l12.6,5.3l5.3,2l12.4,5.1l7.8,3.4l15.8,6l14.2-0.1l7.5,0.1l14.2-0.1l17-4.6l2.8-0.9l16.1-4.8l9.7-1.7
		l22.6-6l3.7-0.8l2.4-0.5l7.3-2.4l20.5-5.7l5.7-1.8l8.3-0.8l21,1.6l6.6-1l10.8-3.2l14.2-0.1l10.9-7.6l5.9-11.4l1.4-5.9l8.4-15.8
		l1.6-2.8l8.6-17.3l2.7-7.3l7.3-21.7l2.4-4.6l1.2-2.4l15-17.4l9.4-10.6l7.1-7.9l0.5-0.4l0.4-0.3l1.5-0.8l25.6-7.3l8.8-10.9l7.9-8.3
		l6.7-7.9l11.7-9.6l9.6-8.5l6.4-11.4l4.5-6.4l3.2-14.1l1.6-6.1l3.3-15.7l3-13.9l1.6-9.7l2.5-12.3l3.4-6.4l6.4-12.9l5.2-11.4l2.2-5.2
		l1.1-8.5l0.5-18.5l1.4-9l11.5-14.1l14.1-18.2l2-1.7l2.5-2l17.6-13.8l8.7-17l3.2-5.1l0.7-1.2l1.2-2.8l15.2-16.7l10.6-15.2l3.8-6.3
		l3.4-26.6l1-2.9l0.1-1.9l-4.5-27.6l0.2-6.4l-1-7.2l-3.7-17.9l-1.2-10.9l-4.6-16.6l-0.6-2.1l-4.9-17.2l-3.9-10l-10-23l-1-2l-0.5-1
		l-1.8-3.2l-10.9-18.5l-6.4-14.2l-4.9-10.4l-9.6-24.6l-0.4-0.9l-0.2-0.3l-0.3-0.6l-12.6-22.4l-6.6-12.6l-4.3-12.3l-5.7-17l-2.3-6.6
		l-0.7-3.6l-3.6-14.6l-3-14.8l-0.7-3l0.1-3.5l1.6-30.5l0-1.9l0.2-1.6l1.6-7.6l5.2-21.5l1.4-5.2l2.5-9.1l3.5-14.2l3.8-12.6l3.4-16
		l1.6-5.4l3.5-14.5l0.7-10.2l3.3-18.7l0.6-7l-1.4-7.8l-1.6-18.7l-2.2-9.4l-6.9-17.5l-2-2.9l-9.2-15.5l2.1-8.4l3.4-15.7l3.3-11.8
		l11.8-9l9-9.6l10.6-6.7l6-10.6l7-12.3l3.7-14.9l3.2-8.6l-0.2-5.6l-3.2-21.5l-0.3-8.8l0-9.1l-0.1-17.7l0-9.2l-0.5-9.7l-0.4-16.1
		l-0.6-10.1l-3.6-14.3l-1.4-5.9l-4.2-15.7l-3.6-12.5l-5.8-16.7l-2.1-6.7l-2.1-2.5l-2.5-3l-12.8-17.7l-9.2-12.8l-4.7-9.2l-9.2-17.3
		l-2.6-6.8l-1-2.6l-3.1-6.8l-5.9-16.5l-8.4-12.7l-5.2-9.6l-9.6-14.4l-6.7-5.2l-9.3-6.7l-8.6-11.3l-7.9-21.2l-1.7-3.4l-0.8-1l-1-2.5
		l-9.8-22.6l-1.5-9.8l-5.2-16.5l-0.9-2.1l-3.9-17.4l-3.2-11.4l-9.3-22.4l-0.7-2.1l-0.5-0.9l-0.9-0.9l-2.8-1.1l-21.6-8.7l-11.5-4
		l-14.1,1.4l-9.4,1.7l-12.4,1.4l-10.4,0.6l-20.3,10.4l-3.6,1.6l-1.6,1.1l-3.6,0.8L4277,978l-7.4,2.1l-8.7-0.9l-18.8-0.2l-8.5-0.7
		l-5.6-2.1l-20.6-5.6l-3-6.7l-6.7-9l-2.7-17.5l0.1-2.7l1-1.6l1.6-1.1l3.8-1.1l24.2-4.1l7.9-3.2l16.2-5.1l3.7,0.2l16-16.4l1.2-2.2
		l0.3-1.2l-0.6-1l-1-2.1l-8.9-24l-0.5-8.9l-11.9-14.7l-14.4-21l-0.2-0.3l0,0l0-0.1l-14.1-21.7l-7.3-14.1l-4.3-10.2l-10.2-16.6
		l-3.5-5.7l-1.6-3.5l-14.3-16.5l-16.5-18.5l-0.7-0.2l-3.6-0.7l-28.8-2.8l-2.8-0.3l-2.2,0.9l-3.1,2.2l-13.2,17.4l-2,3.1l-10.5,15.4
		l-1.3,3.6l-3.6,8.2l-8.2,16l-5.6,8.2l-10,12.2l-12.2,10.2l-10.1,3.5l-19.6,3.8l-6.2,1.7l-4.7-0.2l-24.2-2.3l-7-0.3l-10.5-3.3
		l-11.1-3.7l-14.3-4.2l-11.1-6.4l-22.5-11.1l-1.3-1l-1-0.6l-3.5-1.9l-18.4-10.6l-14-6.9l-10.3-4.6l-23.9-8.6l-1.7-0.7l-1-0.1
		l-15.4-1l-18.1-1.4l-1.4,0l-1,0.4l-2.9,1l-24.9,7l-7,1.5l-9.8,1.2l-13.9,2.4l-12.2,1.4l-15.2,1.6l-4.6,0.9l-16.1,1.4l-17.5,0l-1,0
		l-17.4,0l-17.2-0.2l-2.1-0.6l-16.6-0.4l-16.7,0.4l-2.5,0.1l-16.7,0.4l-16.8,1.9l-2.4,0.1l-16.7,1.6l-17.8-3l-0.2,0l-17.8-2.4
		l-12.9-2.5l-11.7-1.6l-11.3-2l-8.2-1.1l-25.1-5.5l-2.7-0.4l-1.9-0.4l-7.1-1.9l-21-5.9l-5.9-1.6l-7.5,0l-21.9,1.1l-6.5,0l-6.8-0.3
		l-21.3-1.1l-7.9-0.4l-9.6-1.3l-14.3-2.5l-12.1-1.5l-10.6,2.9l-20.8,6.1l-4.5,1.3l-2.5,0.7l-7.7,2.5l-20.9,4.9l-4.9,0.4l-4.1-1.2
		l-9.4-4.1l-13.8-8.6l-8.6-5.4l-11.4-10.5l-12.4-11.4l-6.5-5.6l-5.6-3.6l-17.7-9l-1.7-1.1l-16.6-10.1l-5.2-1.3l-14.6-5.2l-9.8-6.3
		l-6.3-2.9l-9.6-0.4l-20.6,3.9l-5.7-0.4l-9.2-3.1l-14-3.5l-12.7-5.5l-7.5-10.2l-13.5-7.5l-9.9-4.9l-4.9,0.3l-4.8-0.2l-22.9-3.3
		l-8.1-0.2l-7.7,0.7l-22.5,2l-5.7,0.5l-4.1,1.2l-15.3,4.1l-12.7,3.9l-3.9,0.9l-5.9,1.2l-20.2,3.8l-9.8,2l-8.9-2.9l-26-8.9l-0.8-0.3
		l-0.3-0.1l-1.3-0.9l-19.3-14l-15.3-11.1l-6.8-2.7l-29-6.8l-0.1,0l0,0l0,0l-34.3-1.6l-1.6-0.1l-2.6-0.8l-23.9-6.9l-9.4-3.3
		l-13.6-0.8l-8.7-0.1l-13.7-0.9l-11.2,3.4l-20.5,11.2l-2.9,1.3l-1.3,0.1l-1.3-0.1l-14.2-1.3l-17.4-2.9l-2.9-0.2l-2.9,0.3l-27.6-2.6
		l-5.4,0.4l-6.3-1.2l-19.3-4.1l-10.4-2l-14.7-8.9l-15.7-9.1l-5.6-3.3l-1.6-0.7l-2-1.6l-17.9-14.3l-14.3-18.5l-1.3-1.8l-0.7-1.3
		l-7.3-9.3l-7.6-9.8l-13.9-16.9l-2.2-3l-3-4l-17.7-11.2l-2-1.4l-16.3-11.2l-3.6-1.4l-9.4-3.6l-18.9-3.9l-3.9-0.4l-5.1-0.7l-22.7-3
		l-8.1-1.2l-12.6-3.3l-8.1-2.6l-15.2-3.4l-14.3-3l-8.1-0.8l-13.5-2.3l-12,0.9l-12.3-0.4l-11.6,1.1l-15.5,2.9l-6.2-1.4l-14.1,8
		l-10.8,2.9l-18.2,3.9l-6.9,1.7l-5.9-0.7l-18.4-5.7l-11.6-0.9l-10.3,2.2l-16.3,1l-9.3,1.6l-5.9,1.8l-29.6,5.6l-0.3,0.1l-0.3,0
		l-7,0.3l-27.9,0.8l-0.8,0l-0.7,0l-35-0.6l-0.2,0l-0.1,0l-34.5,1.1l-1.2,0l-1-0.2l-7.7-1l-23.3-3.9l-3.9-0.3l-5.1-0.9l-20.7-4.9
		l-10-1.6l-13.3-1.7l-8.4-0.8l-14.2-1.9l-16.4-3.5l-4.7-1.5l-14.9-3.8l-7.3-3.8l-15.3-7.3l-8.8-4.5l-4.5-2.2l-11.2-4.5l-9.5-3.9
		l-15.2-5.9l-12.2-2.6l-13.9-2.4l-9.9-2l-7-0.9l-23-1.1l-5.9-0.7l-5.5,0.2l-22.9,2l-7.5,0.3l-7.2-0.6l-23.9-2.2l-4.9-0.4l-3.4-1
		l-9.9-3.4l-15.9-6.6l-6.6-3.3l-11.8-1.9l-10.9-1.4l-13.2-2.3l-16.2-0.6l-3.5,0l-16.2-0.7l-15.5,1.4l-5.5,0.5l-15,1.4l-13.5,0.1
		l-9.3,0.4l-13.1,0.1l-17.3-5.6l-1.8-0.6l-16.7-5.5l-11.3,0l-13.3,0.1l-11.3,0l-14.6,3.3l-6.3,0.3l-14.9,5.4l-10.4,5.1l-19.5,10.4
		l-4.5,1.5l-1.5,0.4l-1.9,0.1l-29.6,2.4l-4.4,0.2l-4.7,0.2l-25.2,1.3l-6,0.2l-6.5,0.3l-21.6,1.3l-7.8,0.4l-10.5,2.3l-12.6,2.4
		l-12.9,3l-16.5,3.5l-3.8,1l-15.6,3.5l-13.1-1.1l-9.5-0.2l-13.3-1.3l-16.7-2.1l-2.4-0.1l-16.8-2.7l-13.9,5.6l-15.8,7.7l-6.2,2.8
		l-2.3,1.1l-4.1,2.3l-18.7,10.8l-10.8,4l-15.1,6l-9.7,4l-11.1,4.5l-4.2,2.4l-6.3,4.2L800.2,482l-14.3,19.7l-0.8,1.1l-0.6,0.8
		l-1.7,3.1L772.4,526l-7.2,13.5l-2.7,12.5l-6,16.9l-1.8,6.5l-0.9,3.8l-3.8,8.5l-6.1,17.5l-2.8,6.1l-6.7,15.7l-1.5,3.1l-5.8,17.2
		l-3.3,9.7l-5.3,21.8l-1.3,4.4l-0.2,2.9l-2.6,32.6l0,0.4l-0.1,0.2l-0.2,0.3l-0.5,0l-31.9,3.1l-3.6,0.2l-9.3,5.6l-11,6.2l-15.6,10.9
		l-4.1,5.4l-2.4,4.1l-14.6,14.9l-14.9,13.9l-4.9,2.3l-7.5,4.9l-15.9,7.6l-7.6,4.5l-13.7,10.2l-15.9,13.7l-3.5,2.9l-2.9,2.9l-13,17.1
		l-7.9,13l-2.2,12.8l-1.7,12l-1.8,11.1l-0.1,9.2l-0.4,18l-0.1,8.8L504,940l-5.4,12.7l-4.7,13.1l-1.4,4.7l-2.8,8.9l-4.7,13.3
		l-3.9,13.6l-2.6,15.8l-1.2,5.6l-2.6,14.6l-0.2,11.8l-0.3,12.6l-0.1,11.5l-2.5,8.9l-6.9,25.1l-0.6,2l-0.3,1.1l-1.1,4.4l-5.8,24.6
		l-1,5.8l-0.9,7.8l-3.7,16.7l-1,11.5l-5.7,17.7l-0.3,0.8l-5.5,17.4l-2.7,9.2l-8.6,26.1l-0.2,0.6l0,0.4l-0.4,3.4l-3.1,29l-0.5,3.1
		l-0.3,3.9l0.5,28.5l-0.4,3.5l0.3,3.5l3.5,16.7l2.5,13.2l0.5,2.5l-0.1,2.9l0.1,30l-0.1,3l-0.4,2.5l-2.5,17.7l-2.7,13.1l-0.5,2.7
		l-0.4,3.5l-3.8,25.1l-0.7,7.3l0.4,7.6l0.6,21.2l0.4,7.1l0.2,6.4l0.7,23.8l0.2,5.7l-0.3,5.8l-1.4,22.9l-0.4,7.2l-0.5,8.1l-2.1,17.7
		L416,1617l-0.4,11.1l-1,12.6l-0.4,12.2l1.9,10.7l2.6,17.1l1.4,8.1l1.5,5.2l5.2,18.8l2.5,9.4l0.5,2.5l1.1,4.1l5.6,22.2l2.7,9.7
		l2.2,14.6l0.8,6l2.4,15.4l2.4,15.8l1.3,5.7l2.5,14.5l2.1,9.8l4.5,20.8l1.1,5.3l0.8,3.4l3.4,19.5l1.8,11.2l0.3,1.8l1,3.1l7.4,22.4
		l3.4,10.4l6.9,15.2l4,9.6l4.8,11.2l0.7,5.6l4.4,29l0.2,1.2l0,1l1,15.3l1.1,18.5l0.1,1.1l0.7,1.9l8.3,23.9l3.5,10.2l5.4,16.8
		l1.5,3.8l5.5,15.3l1.2,8.7l6.5,25.1l0.4,2.1l0.2,1.6l1.6,8.2l4.5,21.7l1.2,4.5l0.8,6.4l2.3,20.7l1.1,8.7l2.7,12.5l2.3,8.7l2.8,14.8
		l4.9,13.5l6.1,15.1l2.8,7.3l1.3,3.2l3.2,9.1l7.5,16.1l3.1,7.5l1,11.6l1.9,10.9l0.9,13.5l5.2,16.3l4.2,7.5l5.6,12.1l2.5,4l4,3.5
		l17.6,10.9l2.2,1.4l16.1,10.5l3.5,2.2l6.5,3.5l20.1,5.8l5.8,1.4l10.9,3.7l10.2,3.9l14.8,4.5l12.2,4.5l18,6.4l5.8,2.1l2.9,0.8
		l5.9,2.9l17.2,9.9l9.9,7.8l13.7,4.5l12.8,4.4l9.4,3.1l5.7,0.6l26.7,2.1l3.6,0.3l2,1.2l3.4,2l15.9,14.6l14.6,13l3.7,4.6l3,3.7
		l13.2,16.1l16.1,18.2l0.9,0.6l1.3,0.9l22.7,11l11,6.3l13.7,5l15.2,6.6l7,2.8l2.2,2l2.4,2.2l14,17.3l17.3,16.9l1,0.7l1.8,1l18,15.2
		l15.2,7.5l8.8,4.4l9.3,8.8l7.9,9.9l9.9,19.1l2.4,4.4l1.4,2.4l-0.5,3.3l-1.1,30.4l-0.3,2.2l0.4,2.3l3,28.3l1,5.3l14.6,15l15,13.7
		l4.3,2.9l6.8,4.3l16.2,8.6l8.6,2.1l14.9,4.3l4.9,1.1l16.1,5.3l11.3,3.3l13.7,11.3l7.2,3.8l3.8,2.7l5.4-1l25.7-0.7l4.7-0.7l2.7-1.3
		l11.4-2.7l17.2-4.6l4.6,0.1l5.9-1.4l21.9-2.2l8.1-2.7l13.7-2.8l8-0.5l14.2-4.2l9.6-7.9l19-9.6l4.5-2.9l2.9-1.8l17.1-12.4l1-0.8
		l17.8-11.2l5.7-1.2l21.4-5.7l7.4-1.4l1.4-0.2l1.5,0.1l25.4,1.5l8.2,0.7l0.7,0.1l2.1,1.3l19.5,12.2L1576,2824.9"/>
	<path class="st1" d="M4338.4,2119.8l-15.2,17.6l-2.7,3.4l-12.1,14.9l-1.2,1.6l-1.6,2.1l-13.9,18.3l-10.9,13.9l-5.4,5.6l-5.6,4.9
		l-13.3,12l-12.7,13.3l-4.7,5.1l-5.1,5.1l-12.2,13.5l-11.6,12.2l-5.9,6.2l-6.2,4.9l-13.2,11.6l-17,13.2l-3.2,2.5l-2.5,1.8l-12.5,8.1
		l-6.5,4.4l-16.9,9.9l-5.5,3.7l-9.5,5.5l-12.5,8.4l-8.4,5.2l-13.5,8.8l-19.6,10.8l-2.7,1.6l-0.7,0.4l-1.4,0.7l-22.2,11.5l-11.5,5.8
		l-11.5,7.1l-23.1,10.1l-1.4,0.7l-0.5,0.2l-1.4,0.5l-24.9,9.2l-9.2,2l-15.5,4.2l-3.8,1.1l-16.6,4.4l-11.7,3.2l-17.6,5.1l-6.6,1.9
		l-3.6,1.1l-12.7,3.6l-15.3,4.2l-4.2,1l-7.1,2l-16.9,4.8l-11.9,3.2l-17.1,3.8l-2.6,0.8l-16.2,4.2l-10.6,1.5l-18.1,3.3l-7.2,1.1
		l-6.4-0.3l-22.6-0.5l-6.9-0.3l-7.4-0.1l-22.2,1l-6.4-0.1l-6,0.5l-29.1,6l-0.6,0.2l-0.2,0.1l-0.3,0l-28.6,6.7l-7,0.9l-9.3,1.4
		l-13.3,4l-13.3,1.4l-16.8,4.5l-2.9,0.5l-16.2,3.8l-10.9,1.6l-16.4,2.2l-8.6,1.3l-6.9,0.4l-25.8,3.8l-3.2,0.2l-3.2-0.2l-30.7,1.2
		l-2-0.2l-3.2-1l-23.6-5.8l-9.1-3.5l-17.7-5.2l-0.3-0.1l-17.8-5.5l-10.3-2.2l-18.6-3.4l-6.9-1.4l-4.9-0.6l-28.2-2.1l-2.8-0.3
		l-2.4-0.1l-32.8-1.6l-0.8,0l-0.5-0.2l-1.2-0.5l-23.4-10.8l-10.8-6.9l-10.6-7.6l-10.9-10.6l-7.6-6.9l-6.9-6.1l-17.2-5.8l-2.8-1.3
		l-15.9-6.4l-6.4-3.1l-10.5-6.4l-13.1-6l-6-3.2l-14.4-12.3l-12.6-14.4l-4.9-3.9l-3.9-3.9l-15.5-12.6l-14-15.5l-3.5-2.9l-2.9-2.7
		l-13.8-8.2l-5.4-3l-16.8-12l-5.5-1.7l-15.3-5.5l-12.9-2.3l-2.3-0.5l-3.6-0.9l-25.2-3.5l-7.1-2.2l-12.1-2.8l-10-1.7l-13.8-3.8
		l-13.8-4.5l-15.9-7.6l-6.2-2.6l-2.2-1.5l-3.2-2.2l-19.6-10.9l-10.9-6.3l-11.8-6.9l-20.5-11.8l-2.2-1.4l-1.4-0.9l-10-7.7l-9.1-6.9
		l-16.9-14.4l-2.5-2.1l-2.9-2.5l-14.3-16.2l-16.2-18.2l-0.9-0.6l-1.3-0.9l-17-16.7l-16.7-17.3l-0.8-1.1l-0.7-0.8l-2.3-3.7
		l-10.3-18.1l-10.4-14.1l-5.7-5.8l-5.8-5.7l-11.4-13l-12.8-11.4l-5.3-6.3l-6.3-9.2l-7.1-13.2l-4-7.1l-7.2-17.6l-0.5-1.3l-6.9-17
		l-3.2-7l-7-20.2l-2.2-6.6l-0.3-2.2l-0.3-2.8l-3.3-27l-0.7-6.1l-3.6-10.5l-0.7-14.3l-10.3-11.1l-4.7-9.8l-9.8-10.4l-7.7-8.1
		l-13.8-7.7l-5-9.4l-9.4-5.6l-10.7,4.3l-13.8-0.7l-11.4,2.3l-6.7,2.4l-21.7,6.7l-6.2,1.3l-1.3,0.2l-2.3,0.9l-22.7,8.5l-10.9,3.8
		l-14.4,6.8l-12,5l-9.5,4.1l-3.9,1.5l-10.9,3.9l-16.8,4.4l-4.4,0.8l-7,1.9l-17.5,4.4l-11.4,3.1l-15.3,6.1l-11.6,6.2l-9,4.4l-2.6,2
		l-1.6,2.6l-10.8,15l-2.5,3.5l-14.1,17.4l-2.1,2.3l-2.3,1.5l-17.8,14.3l-1.5,1.3l-16.6,14.1l-1.1,1.4l-0.8,1.1l-9.6,11.5l-5.7,7.2
		l-6.3,4.9l-12.4,10.1l-1.4,0.9l-2.6,1.4l-19.8,12l-12,7.4l-9.3,7.2l-11,9.3l-6,9.5l-9.5,16.3l-3.2,6.8l-2.2,3.2l-8,13.5l-3.1,5.9
		l-13.7,16.6l-2.8,2.9l-2.9,2.8l-13.8,16.4l-15.2,13.8l-3.7,3.2l-3.2,2.3l-14.6,15.9l-16.9,14.6l-2.5,2l-2,1.4l-9.1,5.8l-10.7,7.1
		l-16.1,8.9l-7.4,3.5l-20.5,7.4l-5.5,2.5l-2.5,0.9l-7,3.6l-14.1,7.8l-14.8,6.5l-9.2,5.5l-18,9.2l-5.2,3.6l-3.6,2.3l-17.1,11.2
		l-1,0.7l-17.8,9.8l-4.7,3.6l-7.6,4.7l-13.7,9.9l-9.9,5.9l-10.8,9.2l-13.4,10.8l-6.4,5.4l-5.4,4.1l-15.4,11.1l-17,11.9l-3.5,2.5
		l-0.6,0.4l-1.2,0.6l-22,12.1l-12.1,6.5l-11.5,5.8l-23.5,11.5l-0.6,0.4l-0.4,0.2l-0.8,0.3l-25.1,9.1l-9.9,2.8l-14.3,1.5l-6.6,0.8
		l-15.1,1.5l-14-2.6l-10-2.1l-11.9-2.3l-8.4-1.2l-22-3l-5.4-0.8l-4.5-0.2l-27.6-0.6l-3.9-0.1l-4.3,0.6l-25.2,2.1l-6.4,1l-9.2,1.7
		l-15.9,1.6l-10.8,2.6l-12.5-0.8l-12.1-1.2l-11.3-0.8l-8.8-1.7l-23.6-5.2l-3.6-0.7l-2.1-0.8l-7.4-2.1l-21.5-4.8l-4.8-1.1l-6.9-1
		l-20.1-2l-8.9-1.4l-12.2-1.8l-10.4-1.2l-13.4-2.2l-14-6.3l-15.2-7.3l-6.7-3.1l-2.2-1.3l-3.4-2.2l-20.6-9.7l-9.7-3.2l-14.9-2
		l-5.3-0.7l-15.7-2.1l-15.9-2.3l-5.5-1.4l-14.5-2.5l-7.6-4.4l-11.9-7.6l-10-6.5l-6.5-4.7l-13.7-11.1l-15.6-13.7l-3.7-2.9l-2.9-2.3
		l-15.4-10.3l-3.2-1.9l-17.3-16.6l-1.1-0.9l-1-1.1l-19.5-14.3l-14.3-12.3l-6.8-2.6l-11.4-6.8l-11.6-6.1l-6.1-9.8l-7.7-12.3l-2.7-7.7
		l-10.1-15.4l-7.3-12.5l-4.9-8.1l-1.4-1.8l-1.8-2.2l-14.8-17l-11.8-14.8l-3.2-6.1L750,2101l-5.6-11.5l-2.5-5.6l-6.8-14.9l-1.9-4.1
		l-7.2-16.9l-4.6-7.3l-7.3-12.5l-6.5-9.6l-4.7-6.5l-9.5-15.2l-10.7-16.1l-3-4.6l-0.6-0.9l-0.9-1.4l-11.6-21.9l-5.4-11.6l-6.2-12.7
		l-8.2-18.6l-2.1-4.6l-0.3-2.2l-2.2-11.6l-3.4-18.8l-1-3.4l-1.6-6l-5-19l-2.9-11l-4.7-17.4l-0.4-1.6l-4.5-16.9l-1.8-10.6l-2.1-16.9
		l-1.4-8.5l-0.7-6.5l-0.8-23.8l-0.5-5.6l-0.3-4.8l-1.6-27.9l-0.2-3.2l-0.2-2.8l-2.5-32.9l0-0.3l0-0.2l2.1-33.3l0-2.3l-0.2-2.2
		l-1.4-33l-0.1-0.7l-0.1-0.6l-0.6-7.5l-2.9-24.9l-0.4-2.9l0-3.2l0.2-29.6l0-3l0.4-2.6l2.6-26.3l0.6-6.5l0.1-0.6l0.2-0.9l6.9-27.1
		l2-7.8l1.7-11.6l1.8-11l1.9-13.4l3.7-17l0.6-2.6l3.5-16.4l1.6-11.3l2.3-15.7l1.3-9l0.5-7.1l7-28.7l0-0.1l0-0.1l0.1-0.2l9.4-26.2
		l4.8-9.4l4.3-17.3l0.4-1.6l4-17l3.7-9.2l9.2-24.3l0.7-1.8l0.3-0.7l0.8-1.8l9.8-22.6l6.5-11.6l6.4-11.4l11.4-17.9l2.3-4.3l1.4-2.3
		l5-8.6l6.7-11.9l9.2-15.4l4.5-6.9l6.9-9.4l7.4-12.1l5.8-7.4l10.6-12.1l12.1-10.8l7.2-5.8l10.6-7.2l8.8-9.3l9.3-9.4l7.3-9.9l5.2-7.3
		l9.8-13.7l13.7-21.7l0.2-0.3l0.2-0.2l18.6-17l17-16.9l0.9-1.1l0.7-0.9l3.8-5.4l10.3-14.7l10.2-15.8l2.7-7.3l7.3-18l3.1-7.6l1.8-3.1
		l6.9-11.9l4.4-7.8l10.8-16.2l4.7-4.2l4.2-4.3l14.7-12.8l15-14.7l3.3-3l3-2.4l7.5-2.1l16.1-4.8l12.3-3.2l17.4-3l1.4-0.2l17.2-2.8
		l9.1-5.2l17.3-9.1l5.9-3.6l3.6-2.2l9.3-3.5l12.3-5.1l14.3-4.7l14.9-2l6.1,0l14.9-1.5l8.2-5.2l17-8.2l6.6-4.1l4.1-1.6l16.4-10.7
		l1.8-1.3l17.7-9.2l6.5-2.5l22.1-6.5l5.3-2l2-0.5l3.5-1l21.5-7.4l10.9-2.5l16-6.5l6.5-2.6l13.4-5.4l6-2l19.4-6l7.4-3.1l3.1-0.9
		l5.2-1.1l20.5-5.1l10.2-2.1l14.8-2.5l5.4-1l15.8-2.5l14.9-2.7l7.7-1.6l13.3-2.5l10-0.8l17.3-1.2l8.7-0.7l7.6-0.4l21.2-0.4l7.1-0.4
		l6.3-0.5l24.8-1.4l4.9-0.4l4.9,0.4l24.1,2l6.9,0.6l8.4,0.9l17.4,1.8l10.1,1.1l14.4,3.1l5.9,1.2l15.6,3.5l12.8,4l15.8,5.5l7.3,2.4
		l3.9,1l13.5,3.9l14.6,3.9l3.9,1.2l6.7,1.5l18.1,4.5l11.2,2.5l16.2,2.5l3.1,0.5l16.6,2.6l14.1,2.5l9.4,1.8l12.3,2.2l8.3,1.7
		l26.1,6.9l1.5,0.3l0.9,0.3l2,0.9l23,10l10,5.5l14.1,6.2l16.9,9.2l4.9,2.5l1.7,0.7l3.2,1.7l18.8,12.2l12.2,13.2l5.6,5l6.1,5.6
		l13.9,10.4l10.4,8.8l10,6.7l13.8,10l8,4.1l4.1,2.5l11.4,4.8l9.7,3.5l14.9,7.7l7.7,5.6l8.4,7.7l6.9,12.9l8.3,18.5l2.2,4.6l0.2,2.2
		l1.5,33l0,0.7l0.2,0.5l0.5,1.2l9.1,25.2l1.7,9.1l3,13.8l2.1,6.3l2.6,15.9l2.1,15.3l2,7.3l2.4,13.3l2.4,8.6l8.6,20.5l2.2,4.7
		l1.1,2.2l0.5,3.8l2.4,25.9l1,6.2l2.6,9.8l2.4,14l4.2,12.2l8.9,10.7l10.7,10.6l8.6,6l9.6,8.6l10.2,7.5l7.5,5.8l12.5,10.1l15.1,12.5
		l3.1,5.3l5.3,12.7l6.7,11.2l1.6,6.7l6.4,14.7l2,4.6l7,16.7l3.6,8.6l8.6,20l3.8,3.6l3.2,3.8l19.5,9.4l9.4,5l17.4,4.2l1.6,0.4l17,4.2
		l15.1-8.1l20.7-15.1l0.1-0.1l0.1,0l0.1,0l25.6-10l10.1-1.6l17.1-5.4l1.4-0.3l17.4-6.7l6.9-4.8l10.5-6.9l9.2-9.3l9.3-8.4l8.3-10
		l10.5-8.3l8.7-8.3l8.3-14.5l4.6-8.4l3.6-4.6l17.7-9.9l9.9-5l15-6.1l9.7-3.7l11.2-4.4l5.6-1.2l29.8-5.1l0.5-0.1l0.4,0l34.7,0.4
		l0.8,0l0.5-0.3l1.4-0.5l23.6-10.4l10.4-3.5l15-7l9-3.1l11.9-4.7l4.9-2.3l8.8-4.9l13.6-8.6l8.6-4.4l15.2-7.7l9.5-4.1l11.1-5.1
		l3.9-2.2l7.4-3.9l16.1-8.6l8.6-4.1l15.3-7.9l10.6-5.4l10-5.1l3.8-1.1l9.6-3.8l15.3-7.3l7.3-3l15.9-5.6l2.9-1.1l17.1-5.2l10.4-3.2
		l18-3l7.5-1.8l4.9-0.7l27.9-4.9l2.6-0.5l0.5-0.1l0.9-0.3l27.1-7.1l7.9-2.9l11.7-0.8l11.1-1.6l13.2-0.8l12.6,1.4l11.4,0.7l11.9,1.2
		l9,1.7l24.1,6.1l2.8,0.6l2,0.2l12.9,2l18.6,2.5l2.5,0.4l2.8,0l31.2-1l1.8,0l1.8,0l32.8-0.4l1.4,0l1.2-0.1l33.4-1.2l1.2-0.1l0.1,0
		l0,0l0.4,0l32.5,3l3,0.4l4,0.7l24.9,3l7,1.3l8.4,0.1l18.6,0.6l9,0.1l9.7,0.7l14.9,1.5l11.3,0.8l10.6-1.4l17-2.3l8.3-1.1l7-0.3
		l23.1-1.1l5.9-0.2l7.7,2.1l16.4,4.1l11.8,3.3l17.5,3.3l1.1,0.2l17.3,3.3l11.6,2.4l15,2.3l9.3,1.8l5.9,1.6l19.5,5.9l7.9,2.6l2.6,0.9
		l4.9,1.5l20,6.1l11,3.2l14.6,0.4l7-0.3l14.3,0.4l15.6,0.9l4.9-0.2l15.4,1l11.8,7.6l16,11.8l5,3.1l3.1,2.1l17.6,13.1l4.2,3.4
		l14.2,11.5l1.8,0.9l3.3,1.8l23.1,7.7l7.7,3.5l16.4,8.3l7.6,4.4l11.9,6.7l2.7,2.5l2.8,2.7l16.4,14l14,12.3l5.4,4.2l6.8,5.4
		l13.3,10.5l10.5,7.6l11.6,6.2l23.8,11.6l0.3,0.1l0.1,0.1l0.4,0.2l23.8,11.3l11.7,6.3l13.2,4.7l16.9,7.4l5.8,2.3l2.3,1.1l4.1,2.3
		l17,12.5l12.5,10.4l6.9,6.1l7.1,6.9l8.1,13.8l5.6,13.9l3.8,8.2l0.7,3.7l0.8,29.4l0.4,2.9l0.7,1.7l1.7,4.6l11.3,18.3l4.7,11.3
		l6.2,13.7l3.2,11.8l3.7,10.5l0.8,6l0.2,24.2l0.6,5.8l1.3,3.8l3.8,18.1l2.7,11.3l0.2,2.7l1.3,4.2l7.3,20.1l2.9,11.6l2.1,16.6
		l0.4,2.3l2.1,17l0.8,16.1l0.3,4.1l0.8,15.8l2.7,12.3l4.3,15.6l1.9,8l1.5,4.6l4.6,11.6l6.2,13.6l2.1,6.2l2.4,10.7l2.5,12l3,13.2
		l3.2,16.5l0.7,3.7l3.1,15.7l1.5,11.2l1.1,14.6l1.2,10.1l0.4,8.5l0.5,19.5l0.4,7.9l0.5,7.1l2,23.8l0.4,5l0.2,4.5l3.1,30l0.1,1.4
		l0,1.3l1.3,14.5l1.8,18.3l0.2,1.8l-0.1,2l-2,26.9l-0.5,6.5l-0.1,0.5l-0.2,0.7l-6.9,27.6l-1.8,7.6l-1.9,11.3l-2.1,11.3l-2.1,13.4
		l-2.1,17.6l-0.1,0.7l-2,17.7l-1.5,14.7l-1.6,8.1l-1.6,13.1l-2.6,8.9l-8.9,21.2l-1.9,4L4338.4,2119.8"/>
	<path class="st1" d="M1582.8,2299.3l-4.2,2.6l-2.6,1.4l-5.1,1l-21.3,4.4l-9.5,2l-14,2.6l-6.5,1.3l-15.4,2.7l-16.9,0.9l-2.1,0
		l-16.9,0.8l-16.4-0.3l-3-0.1l-16.5-0.3l-17-0.1l-2,0l-17-0.1l-17.2-0.1l-1.5,0l-17.2-0.1l-17.2-1.4l-1.6-0.1l-17.1-1.3l-13.4-2.4
		l-11.4-2.2l-11.1-2l-7.6-1.5l-26.7-5.9l-1.7-0.3l-1.1-0.3l-3.7-1.1l-25.9-5.2l-5.2-1.2l-8.3-1.9l-15.9-3.4l-11.7-2.9l-17.9-3.4
		l-0.3-0.1l-17.8-3.8l-10.8-3.1l-22.5-8.2l-2.6-0.8l-1.4-0.4l-3.2-1.4l-22.8-8.6l-8.6-4.2l-16.8-6.3l-4.8-2.4l-14.4-6.5l-5.2-2.7
		l-8.1-5.2l-14.6-8.1l-8.1-4.8l-13.9-9.1l-18.2-13.9l-2.2-1.6l-1.6-1.4l-17.9-15l-2.2-2.1l-15.8-15.3l-0.3-0.2l-0.2-0.3l-12.9-13.4
		l-4.5-4.6l-12.6-17.9l-2.2-3.2l-3.2-5.1l-11.6-16.1l-7.4-11.6l-7.4-9.6l-9.6-14.1l-5.3-7l-3.1-5.3l-10.9-16.7l-5.3-7.9l-7.6-11.4
		l-1.5-2.3l-2.3-3.7l-12.3-17.6l-7.6-12.3l-5.5-10.5l-10.5-24.7l-0.2-0.5l-0.1-0.2l-0.3-0.6l-12.3-22.4l-6.7-12.9l-6-10.2
		l-10.2-18.7l-2.7-4.3l-1.4-2.7l-1.8-5.9l-6-18.1l-3.5-11.9l-2.5-17.9l0-0.1l-2.5-17.9l-2.5-13l-2.2-12.1l-2-10.8l-1.4-7.4l-5-26.1
		l-0.5-2.4l0-1.9l-0.6-32.7l0-1.3l0-1.4l0.8-32.4l0.1-2.2l-0.4-1.9l-1.9-9l-5-20.1l-0.9-5l-1.4-7.3L703,1592l-2-11l-1.3-14.3
		l-0.7-6.6l-1.4-15l1.3-15l0.6-6.5l1.3-14.4l3.3-9.8l7.1-23.4l0.9-2.7l0.3-1.5l1.5-8.9l4-21.5l0.8-4l0.9-5.7l3-21.5l1.4-8.7
		l7.7-17.9l0-0.1l8.5-17.9l3.4-6.1l6.1-9.2l8-12.6l5.7-8l6.7-15.5l3.3-8.2l5.1-12.2l1.9-5.2l5.2-14.1l4.1-12.4l1.5-4.1l3.8-9.5
		l4.7-12.3l6.1-14.2l5-10.7l10.7-20.8l1.4-3l0.7-1.4l4.2-6.3l9.2-14.2l12.6-15.4l3-4.9l4.9-7l9.2-14.9l6.2-9.2l8.1-12.5l12.5-15
		l3.6-4.9l3.5-3.6l14.3-14.5l14.5-14.7l3-3.7l2.6-3l13.2-17.1l17.1-18.3l0.3-0.3l0.3-0.3l2.4-2.9l13.5-16.6l14.2-16.4l2.3-3l3-3.7
		l13.1-16l14.8-13.1l3.6-4.4l4.4-4.8l11.7-15l12.2-11.7l5.9-6.2l6.2-5.2l13.6-10.9l17-8.3l5.3-3l1.2-1.1l1.8-1.2l18.9-13.9l13.9-9
		l6.5-6.6l6.6-6.5l11.2-11.6l11.6-10.3l7.5-6.6l10.2-7.5l10.9-7.4l7.4-4.3l15.1-9.1l13-7.4l7.7-4.5l2.2-1.1l4.5-2.2l18.7-10.5
		l10.5-5.2l13.3-6.9l16.7-7.5l5.9-2.8l2.2-1l5.8-2.2l19.5-8.5l8.5-3.4l17.3-6.8l2.1-0.7l16.5-6.1l7.4-3l24.9-7.4l2.7-0.8l0.8-0.2
		l1.3-0.2l28-5.4l6.6-1.1l8.4-0.6l17.9-1.2l9.6-0.7l11-0.7l13-0.8l11.8-0.7l12.6,0l11.1,0.4l12.2,0l12,0.2l13,1l11,0.2l9.5,1.2
		l20.2,3.3l6.2,0.8l4.9,0.5l29.4,3.1l1.7,0.2l1.3,0.2l11.2,1.3l21.1,2.3l2.3,0.3l3.6,1.1l21.7,7l10.6,2.9l16.9,5.5l3.2,1.1l15.8,5.3
		l8.4,2.1l23,8.4l3.3,1.2l1.2,0.6l3.3,1.4l21.1,8.3l11.6,5.8l11.6,6.9l15.6,11.6l5.1,3.7l3.7,3.2l17.7,11.3l2.1,1.6l16.1,12.4
		l2.2,1.6l2.3,2.2l15.8,15.7l15.7,19.3l0.4,0.5l0.3,0.4l1.7,2.4l13,18l8.8,15.5l5.8,5.8l5.8,7.2l10.9,12l8.2,10.9l8.3,8.5l8.5,10.5
		l7.7,9.2l5.2,7.7l8.6,14.4l7.8,14.9l3.6,6.6l1,2l2,4.5l9.6,19.8l4.1,9.6l6.7,15.6l3.1,7.9l5.1,12.5l1.6,5.8l5.8,27.6l0.4,2.2
		l0.1,0.4l0.1,0.6l3.7,31.1l0.5,4.2l0.9,5.6l3.1,21.5l1.4,8.7l0.9,11.1l0.7,13.1l1,11.8l2.6,15.5l0.7,4.4l2.9,16.1l2.7,14.2l2.1,9.5
		l2.4,12.1l1.2,8.6l3.3,22.1l0.7,5.2l0.5,3.9l3.9,17.7l3.4,10.9l1.2,3.4l3.4,8l5.7,14.3l6.4,13.6l2,13.9l1.8,10l1.9,12l-8.1,17.6
		l-0.6,1.4l-7.8,17l-2.8,6.4l-6.4,14.8l-3.9,10.8l-1.1,3.9l0.1,5l-0.9,24.9l0.1,6l-0.8,6.7l-2,20.6l-1.1,8.7l0,9.7l1.4,17.8l0,8.4
		l-1.1,9.4l-1.6,15.4l-1.3,11.1l-5.9,17.6l-0.3,1.1l-5.6,17.2l-2.2,9.4l-6.4,23.5l-0.7,3l-0.7,1.6l-1.6,3.4l-7.4,23.6l-2.4,7.4
		l-3.5,13.2l-1.7,7.9l-4.5,14.8l-4.3,12.3l-8.8,20.2l-1.4,3.5l-0.4,1.7l-1.7,10.2l-3.2,20.8l-0.4,3.2l-1.8,5.4l-6.2,18.8l-4,11.7
		l-8.7,11.5l-11.5,13.8l-4.5,6.1l-3.7,4.5l-11.8,15.9l-14.2,18.4l-1.2,1.6l-0.2,0.2l-0.2,0.2l-15.9,19.6l-11.6,15.9l-3.9,4.5
		l-4.5,5.2l-12,14.3l-10,12l-6.2,7.8l-7.8,9l-8.6,10.5l-7.7,8.6l-7.8,11.7l-11.7,16l-3.4,4.9l-2.9,3.4l-14.7,15l-15,12.5l-4.2,4.2
		l-4.9,4.2l-14.8,12.1l-12.1,8.5l-8.5,6.8l-12.8,8.5l-8.5,6.1l-6.1,3.8l-16.5,9.4l-5.6,2.8l-13.8,7.1l-4.4,2.3l-9.6,4.4l-14.3,7.7
		l-7.7,4.4l-15,8.9l-12.1,6l-8.9,4.7l-2.6,1.6l-5.3,2.6l-16.9,11.1l-11.1,6.9l-9,8.9l-10,9l-8.2,8.7l-8.7,7.6l-11.1,8.6
		L1582.8,2299.3"/>
	<path class="st1" d="M3604.3,2390l-17.1,2.6l-11.2,3.2l-20.3,6.8l-4.4,1.4l-2.5,0.5l-10,2.5l-18.1,5.3l-5.3,1.7l-8,1.1l-17.8,2
		l-10.1,1.4l-9.9-1.5l-19-3l-7-1.1l-4.4-1.4l-13.3-4.4l-14-4.1l-4.1-1.2l-10-4.6l-11.1-4.9l-14.9-7.3l-10.4-3.3l-23.4-8.4l-2-0.7
		l-1.1-0.3l-3.5-1.1l-24.7-6.6l-6.6-2.6l-15.4-6.2l-3.7-1.3l-16.8-7.8l-7.8-3.5l-14.5-7.8l-9.4-4.2l-4.2-2.1l-14.6-8.4l-4.3-2.4
		l-17-10.3l-5.8-2.8l-11.5-5.8l-13.1-5.5l-5.5-2.2l-11.6-4l-9.7-3l-14.6-5.5l-10.9-4.9l-21-10.9l-2.7-1.3l-1.3-0.7l-5-3l-16.1-9.9
		l-14.9-9l-7.7-4.3l-14.5-7.7l-8.7-4.9l-4.9-3l-15.7-7.7l-3.1-1.4l-17.1-9.7l-6.1-3l-11.2-6.1l-12.5-6l-6-3.5l-17.8-8.7l-0.9-0.5
		l-17.3-9.1l-4.9-3.3l-6.2-4.9l-14.5-10.3l-10.3-9.1l-8.9-7.6l-9-8.9l-8.1-10l-10-14.8l-4.8-6.4l-3.3-4.8l-12.8-15l-15-18.2
		l-1.2-1.5l-1-1.2l-12.3-14.5l-3.2-3.7l-11.9-17.7l-2.7-3.6l-3.6-5.9l-10.7-15.8l-6.3-10.7l-8.4-10.5l-10.5-14.6l-5.1-5.7l-3.9-5.1
		l-7.6-16.6l-0.9-1.9l-7.2-17.5l-1.1-10.2l-1.3-16.7l-0.9-9l-0.8-7.3l-1.3-22.7l-0.6-6l-0.7-4.7l-1.8-28.3l-0.4-2.9l-0.6-2l-2-7.3
		l-8.4-18.2l-3.2-8.4l-8.2-16.1l-2.4-6.1l-5.9-13.7l-2.3-5.5l-5.5-15.8l-4.5-10.1l-1.8-4.5l-2.5-8.8l-4-14.4l-3.7-12.8l-2.4-17.1
		l-0.4-2.1l-2.5-16.7l-0.7-13.6l-0.6-9.4l-0.7-13l2.6-14.9l0.9-5.3l2.8-15.8l3.5-13.8l3.5-11.8l2.8-10.3l1.6-5.9l5.9-16.5l2.8-10.7
		l0.7-2.8l3.7-7.2l6.8-14.6l8.3-14.1l5.2-8.3l8.3-10.6l7.2-9.8l5.7-7.2l6.1-17l1.5-3.4l6.1-15.5l1.3-8.1l6.1-25.8l0.4-2l0.5-1.1
		l1.1-1.8l11.9-21.1l12.2-11.9l6.7-5.1l5.1-2.9l15.7-12.2l11.7-7.3l8.5-5.5l1.5-1.4l1.9-1.5l17.5-14.9l14.9-11.3l4.9-4.7l6.8-4.9
		l13.6-10.6l10.6-6.8l11.6-7l23.6-11.6l0.5-0.3l0.3-0.1l0.7-0.4l22.8-11.6l12.3-6.2l11.2-6.1l23.3-11.2l0.9-0.5l0.5-0.3l1.4-0.6
		l22.4-10.6l12-4.7l13.4-5.8l14.8-5.7l7.7-3.1l3.3-1.3l9.4-3.3l16.8-6.4l6.4-2.1l13.1-4.6l7.1-2.6l15.7-5.2l10.7-4.3l22.3-7.8
		l2.9-1.1l1.4-0.4l7.2-1.4l22.2-5.1l5.1-1l6.4-0.3l21.5-1.7l8-0.4l8.1,0.3l19.8,0l8.1,0.3l7.2,0.6l23.4,1.8l5.3,0.4l4.7,0.2
		l28.3,1.8l2.9,0.1l2.7,0.1l32,1.4l1.3,0l1.2,0.1l16.7,1.2l17.2,0.9l0.9,0l0.9-0.1l12.4-0.9l20.7-1.9l1.9-0.1l2.2-0.2l27.5-4
		l6.2-0.6l6.4,0.4l25,1.9l4.5,0.3l3.8,0.4l31.9,3.7l0.2,0l0.1,0l1.6,0.1l31.8,2.3l2.3,0.1l2.6,0.2l28.5,2.3l4.8,0.4l6,0.8l22.6,1.2
		l7.3,1.3l11.7,3.2l10.2,2.3l14,4.4l12.3,5.2l20.8,9.6l2.8,1.2l1.2,0.4l3.8,1.2l24.5,6.4l6.4,1.9l9.6,1.3l15,1.7l11.3,1.6l17.8,5.2
		l0.5,0.2l17.6,5.7l8.7,3.2l20,8.7l4.8,2.3l2.3,1.5l11,7.2l8.6,5.4l16.4,12.2l4.2,3.2l5,4.2l16.2,10.4l10.4,6.9l12.2,6.3l21.8,12.2
		l1.3,0.6l0.6,0.3l1.9,1l21.1,10.9l12.9,7.6l9.3,6.2l13.7,9.3l8,4.9l4.9,3.3l17.7,9.5l0.3,0.2l17.9,10.8l4.7,2.5l7.2,4.7l15.6,8.5
		l8.5,5.8l11.4,10.2l10.8,11.4l6,7.7l7.7,11.2l6.8,10.3l4.2,6.8l9.5,15.4l6.6,11.7l5.1,8.8l1.4,2.3l2.3,4.4l9,20.1l3.3,9l6.7,16.9
		l1.3,3.4l6.1,15.6l2.4,7.1l7.1,18.7l2.8,7.3l1.3,2.8l1.8,5.9l6.2,18l3.3,12.1l3.3,17.3l0.1,1.5l2.6,17.2l1.8,12.7l1.3,11.8
		l1.5,11.4l1.3,8.6l3.3,22.1l0.8,5.2l0.9,3.5l3.5,13.5l4.7,14.2l1.3,4.7l2.5,8.5l4.6,14.2l3.5,13.2l3,16.2l0.7,4.1l2.8,15.5
		l0.8,11.9l0.8,12.9l0.8,11.1l-0.9,11.2l-0.5,13l-1,11.7l-2.5,15.2l-0.6,4.8l-2.9,15.9l-3.2,14l-3.1,11.1l-2.7,10.9l-1.5,6.7
		l-6.7,23.3l-1.1,4.9l-0.3,1.1l-0.6,1.9l-6.7,25.3l-2.7,8.6l-2.8,14.1l-0.9,6.8l-3.4,15l-2.9,14.6l-3.1,9.8l-2.8,11.5l-3.2,5.6
		l-5.6,8.6l-7.4,14.4l-4.6,7.4l-9.5,14.5l-14.5,18.6l-1.1,1.7l-0.9,1.1l-9.7,11.7l-5.6,6.9l-17,17.3l-0.7,0.9l-0.9,0.8l-15.4,18.9
		l-15.7,15.4l-2,2.9l-2.9,3.2l-12.8,17l-15.1,12.8l-4.2,3.8l-3.8,2.6l-15.4,14.1l-17.7,12.6l-2.8,2.1l-0.4,0.3l-0.6,0.4l-19.4,15.5
		l-15.5,10.3l-5.3,4.8l-6.9,5.3l-12.9,10.8l-10.8,7.8l-9.5,7.9l-13.1,9.5l-7.5,5.8l-5.8,3.6l-17.4,8l-0.8,0.4l-17.8,6.8l-8.8,2.5
		l-23.2,4.9l-3.9,1l-2.5,0.4l-12.6,2.5l-16.9,3.9l-3.9,0.9l-5.8,1l-21.5,2.7l-8.5,1.6l-10.7,0.6l-14.5,0.1l-10.8,0.7l-12.4,1
		l-10.4,0.7l-13.1,1l-16.7,2.5l-2.1,0.4l-17.1,2.3l-17-0.4l-1.9-0.1l-17.1-0.4l-17.3-1.2l-1.4-0.1l-17.2-1.2l-17.3,2.6L3604.3,2390"
		/>
	<path class="st1" d="M1144.9,970.5L1144.9,970.5l0.1-0.1l17-18.7l17.4-17l0.8-0.7l0.7-0.6l17.6-17l4.7-4l13.6-11.6l1-0.9l1.3-1
		l17.7-15.9l15.9-12l4.4-3.6l7.2-4.4l13.9-10.4l10.4-6.3l11.8-7.4l24.1-11.7l0.1,0l0,0l0,0l21.7-14.1l14.1-7.7l9.3-4.8l21.8-9.3
		l3.3-1.6l1.6-0.6l3.2-1l22.8-6.7l9.9-3.4l17.6-4.3l0.6-0.2l17.7-4.3l11.8-2l13.3-1.1l10.7-1.6l8.6-0.5l19.5-0.9l7.7-0.4l8.2,0.9
		l18.2,1.4l9.6,1.1l12.3,1.6l10.1,1.3l13.6,1.8l17.8,2.7l0.4,0.1l17.7,2.8l12.5,2.5l14.6,3.6l8.9,1.9l5.8,1.2l21.7,5.8l6.9,1.6
		l1.6,0.5l3.3,1.2l22,7.2l10.5,4.5l13.8,7.1l21.6,13.8l0.3,0.2l0.2,0.1l1.4,1.1l18.9,14.2l15.6,15.7l2.5,2.1l2.2,2.5l17.4,13.8
		l13.8,13.7l4.6,3.8l4.5,4.6l14.4,12.4l12.4,12.9l5.6,5l5.3,5.6l12.5,12.5l12.5,15.9l3.7,3.9l2.7,3.7l12.3,17.3l1.6,3l9.1,15.6
		l2.5,4l4,7.4l9.5,15l5,9.5l6.3,15.1l3.2,8.8l4.6,12l1.7,5.6l5.6,20l2.5,7.9l0.7,2.5l0.8,4l5.1,22.9l1.7,9l0.9,11.6l1.1,11.6
		l0.9,12.7l2.1,15.7l0.5,3.9l2.3,16.2l2.5,14.9l2,8l2.5,13l-0.2,10.7l-0.8,13.8l-0.2,11.5l-2.6,14.3l-1.4,5.9l-2.6,15.7l-2.7,15
		l-1.3,7.3l-2.5,13.7l-1.2,10l-2.6,18.6l-0.9,7.4l0.1,6.5l-1.1,23.9l0.1,5.5l-0.4,5.2l-2.7,28.2l-0.2,2.5l-0.5,1.8l-1.8,8.4
		l-3.9,21.8l-0.6,3.9l-1,5.5l-3.5,21.4l-1.7,9l-1.9,12.6l-1,9.7l-2.3,13.6l-2.9,17.2l-0.6,2.2l-3.3,16.6l-1.8,11.5l-4.3,17.2
		l-1.3,7.2l-1.2,4.7l-4.7,15.7l-3.4,12.2l-1,3.4l-1.8,6.2l-5.3,18.2l-3.4,11.5l-5.7,15.3l-2.5,7.7l-4.4,12.9l-2.4,6.1l-6.1,15.2
		l-4,10.7l-1.7,4l-4.7,10.4l-4.5,10.7l-7.7,14.9l-4.7,8.6l-8.6,13.8l-4.6,8.9l-2.5,4.6l-9.7,16.8l-0.9,1.5l-10.3,17.6l-2.8,5.3
		l-5.3,8.8l-7.4,14.5l-4.4,7.4l-9.1,15l-14.2,20.1l-0.5,0.8l-0.1,0.1l-0.1,0.2l-14.7,20.9L1801,2012l-4,5.5l-5.5,7l-10.2,13.3
		l-9.9,10.2l-7.9,8l-8,6.9l-10.6,10.5l-12.9,10.6l-7,5.5l-5.5,3.6l-15.3,11.5l-13.6,8.3l-7,4.5l-1.5,1l-2.6,1.5l-19.9,12l-12,6.2
		l-11.4,6.3l-23,11.4l-1,0.6l-0.6,0.3l-2.8,1.9l-18.1,12.2l-15,9.2l-6.9,4.7l-11.1,6.9l-10,7.9l-7.9,4.7l-17.2,6.2l-2.2,0.6
		l-16.5,5.3l-9.8,1.4l-18.8,2.4l-7.4,1.1l-5.8,0.6l-26.4,2l-3.8,0.4l-3.3,0.2l-31.2,1.7l-1.5,0.1l-1.4,0.1l-33.5,0.3l-1.1,0l-1.1,0
		l-31.7-2l-3.1-0.1l-3.6-0.4l-25.9-2.7l-6.4-0.8l-8.8-1.6l-15.8-2.5l-11.3-2.2l-18-4.4l0,0l-18-4.6l-10.3-3l-23-7.8l-2.6-0.8
		l-1.3-0.5l-2.8-1.3l-23.1-8.7l-8.7-4l-15.6-7.6l-11.1-6.4l-9.2-5.1l-2.7-1.4l-4.3-2.7l-19.3-9.6l-9.6-5.6l-13.1-7.6l-17.3-13.1
		l-3.2-2.4l-2.4-2.3l-16.5-14.8l-15.5-16.5l-2.1-1.9l-1.9-2.1l-16.2-15.8l-13.4-16.2l-3-3.4l-3.4-4.7l-12.6-15.3l-9-12.6l-6.1-8.3
		l-8.3-13.6l-5.7-8.4l-3.2-5.7l-10.2-16.9l-2.2-4.4l-7.8-14.6l-2.3-4.4l-4.4-9.6l-8-13.9l-4.1-8l-8.5-15.4l-5.9-11.1l-5.1-9.5
		l-1.4-3l-3-7.3l-8.3-17.3l-3.6-8.3l-3.6-15.4l-0.9-4.1l-3.9-16.4l-2.6-13l-1.9-11.7l-2.1-11.2l-0.8-8.3l-1.2-20.5l-0.6-7.1l0.1-6.6
		l0.4-22.3l0.1-7l0-7.1l0.2-21.4l0-7.4l0.4-7.8l0.4-20l0.4-8.1l0.2-8.7l-0.2-18.7l0.2-8.5l0.1-8.9l-0.6-18.8l0.2-8.2l1.5-9.9
		l1.9-14.2l1.9-11.8l3.6-17.3l0.2-1l3.3-17.6l3.4-11.6l7.3-20l1.4-4.3l0.8-2.1l2.1-4.2l9.2-20.3l4.8-9.2l6.8-15.2l5.7-11.3l4.6-9.4
		l1.5-3.4l3.4-6.6l8.5-17.5l5-8.5l7.4-15.1l7.8-13.6l4-7.2l1.2-2.1l2.1-3.3l10.9-19.6l7.7-10.9l7.4-9.8l9.8-13.6l4.4-8l2.5-4.4
		l6.1-13l3.1-6.8l7.9-16.1l3.6-8.4l8.4-15.6l3.8-8.1l2.1-3.8l10.8-16.8l0.9-1.5l12.7-17.7l2.3-3.3l3.3-4l11.7-17l8.7-11.7l6.7-8.8
		l8.8-11.1l6.2-9.8l4.4-6.2l10.6-14.7l14.7-16.7l2-2.6l1.8-2l14.6-17.6l14.8-15.6L1144.9,970.5"/>
	<path class="st1" d="M4120.7,1904.3l1-4.3l4.3-25.2l1.2-5.3l0.2-1.2l0.2-1.6l3.6-29.2l0.6-5.2l0.1-5.8l0-24.2l0.1-5.8l-0.5-5.4
		l-3.2-28.3l-0.2-2.2l-0.2-1.8l-1.8-10.5l-2.7-21l-0.5-2.7l-0.9-4.1l-3.6-24.1l-1.9-7.7l-4.3-13.9l-1.6-6.5l-5.7-15.5l-4.7-10
		l-10-17.4l-2.7-5.8l-1.7-2.7l-6.6-11l-5.1-8.9l-11.6-16l-3.1-5.2l-5.2-7l-9.3-14.4l-8-9.3l-8.1-10.5l-10.5-10.8l-6.6-8.1l-7-6.6
		l-10.2-12.1l-12.1-11.4l-6.1-6.4l-7.7-6.1l-11-11.1l-11.1-9.3l-8.3-7.2l-12-8.3l-8.4-7.2l-7.2-5.2l-13.4-10.1l-21-13.4l-0.9-0.6
		l-0.6-0.3l-1.7-0.8l-21.7-10.8l-12.5-5.3l-12.9-5.2l-15.5-5.4l-7.5-2.8l-3.4-1.3l-9.5-3.4l-16.1-7l-7-3.3l-17-6.8l-1.3-0.5
		l-17.6-6.8l-9.2-2.4l-22.2-4.6l-4.6-1.1l-2.8-0.7l-13.3-2.8l-15.9-3.9l-3.9-0.8l-6.1-1.4l-18.9-4.8l-10.9-2.3l-16.5-3.3l-2.5-0.5
		l-17-3.3l-12.6-3l-13.8-3.2l-9.5-2.2l-5.9-1.4l-29.8-5.7l-0.2-0.1l-0.2,0l-1-0.2l-29.5-5.2l-5.2-0.7l-7.1-1.2l-18.5-3.2l-10.3-1.6
		l-14.5-2.6l-5.8-1.1l-15.6-2.6l-15.4-2.3l-5.7-0.5l-14.8-2l-11.3-1.5l-14.6-1.4l-9.9-1.2l-7.9-0.8l-21.5-1.5l-6.4-0.6l-6,0.1
		l-23.2,0.8l-6.7,0.1l-7.7,0.8l-18.5,2l-9.7,1l-12.9,2.2l-8.8,1.4l-14.3,2.5l-15.5,3.8l-7,2l-13.5,3.5l-7.3,2.7l-16.9,7.3l-8.8,2.9
		l-2.9,1.2l-6.9,2.9l-16,6l-13,6.2l-11.5,5.2l-20.5,11.5l-2.7,1.2l-1.2,0.7l-5.3,3.3l-16,9.4l-14.7,11.9l-5.3,4.1l-5.3,5.3
		l-13.9,11.5l-11.5,12.8l-6.2,5.4l-5.5,6.2l-12.4,11.8l-11.8,15.6l-4.3,4.2l-3.3,4.3l-12.8,15.5l-6.5,11.3l-5.7,9.1l-1.3,2.1
		l-2.1,5.3l-9.7,18.8l-3.9,9.7l-6,16.3l-1.3,4.6l-4.9,15l-2.1,8.1l-5.1,24.9l-0.7,3l-0.2,2.1l-2.1,23.9l-1,8.9l-0.1,1l0,1.1
		l-0.1,33.5l0,1.3l0.1,1.2l1.2,20.6l0.6,13.5l0,0.6l0.1,0.8l4.2,30.2l0.8,5l1.9,7.7l3.6,16.9l3.1,11.3l5.5,16l2.9,6.8l5.1,13.1
		l2.4,5.6l5.6,10l6.5,13.9l4.1,6.5l9.3,16.1l12.4,16.1l2.7,3.7l0.4,0.6l0.6,0.7l13.8,20.7l12.6,13.8l4.3,5.2l5.2,5l12.5,13.2
		l15.8,12.5l3.9,3.7l3.7,2.7l15.9,13.5l12.1,8l7.9,5.5l1.4,1l2.1,1.4l18.3,14.1l14.1,8.5l8.4,4.9l16.5,8.4l6.8,4.3l4.3,2.5
		l17.3,10.6l0.8,0.5l17.8,10.4l5,2.6l11.2,5l12.9,6.7l6.7,3.2l17.8,8.3l0.7,0.3l17.5,7.8l6.4,3.2l14,6.4l10.2,5.3l5.3,2.6l16.8,9
		l1.4,0.8l17.6,9.1l6,3.3l12.8,6l10.9,6.3l6.3,3.4l16.5,9.7l5.8,2.9l13.6,7.1l4.1,2.4l9.5,4.1l14.9,7.4l7.4,3l16.5,6l2.1,0.8
		l17.3,5.7l9.8,3.2l21.9,5.5l4.3,1.2l2.3,0.7l9,2.3l18.8,5.8l5.8,1.4l9.2,1.9l14.1,3.5l12.6,2.4l17,2l1.6,0.2l17.3,1.9l15.1,1.6
		l6.1,0.5l14.7,1.5l12.1,1.1l12.6,0.9l11.2,1l9.6,0.7l17.5,0.8l8.8,0.6l7.9,0.3l20.4,0.2l7.6,0.3l7.8-0.5l19.2-1.1l8.9-0.5l11.2-1.8
		l11.9-1.6l12.8-2.1l16.9-4.1l3-0.9l16-4.3l8.8-3l21.9-8.8l4-1.3l1.3-0.5l3.1-1.3l21.3-8.4l11.5-5.6l12.4-6.4l19.5-12.4l2.7-1.4
		l1.4-0.9l7.1-4.9l13.1-8.6l15.7-13l4-3.2l4.1-4l15.3-12.5l12.5-13.4l5.1-4.8l4.2-5.1l12.5-14.1l14.1-21.3l0.2-0.3l0.1-0.2l0.8-1.2
		l14-19.5l8.6-15.2l4.4-7.6l7.6-17.6l3.7-7l1.5-3.7l3.6-8.8l5.5-12.8l5.5-14.3l4-12.1l4.5-16.3L4120.7,1904.3"/>
	<path class="st1" d="M908.8,2622.6l-9.4-5.8l-5.8-4.5l-16.5-9.1l-8.5-5.6l-10.9-6.9l-2-2l-1.6-2l-14.5-17.8l-17.8-17.4l-0.5-0.3
		l-0.9-0.5l-25.9-8.6l-8.6-2.4l-17.5-7.4l-9.5-8.6l-8.9-7.6l-0.8-0.5l-0.8-0.8l-24-10.4l-10.4-4.6l-16.4-4.5l-4.5-1.4l-15-4.4
		l-8.4-2.2l-25.8-6.7l-1.7-0.4l-1-0.3l-3.2-1l-24.7-7l-7-2.4l-12.1-2.7l-10.6-1l-13.2-4.1l-13.8-4.9l-20.1-13.8l-0.4-1.6l3.8-29
		l-0.7-5.4l0.2-4.9l5.2-20.9l0.3-10.1l-1.6-8.8l-5.1-23.4l-0.7-3.7l-0.8-2.2l-2.2-5.5l-6.2-22.1l-1.5-6.2l-3.3-11l-2.8-11.1
		l-4.9-13.8l-3.7-13.5l-5.3-14.2l-2.6-8.2l-0.6-4.9l-4.9-30.9l0-0.1l0,0l0,0l-3.2-32.7l-0.2-3.2l0-3.4l-1-28l0-4.5l-1.8-6.2
		l-5.6-17.8l-3.3-11.8l-5.8-15l-3.5-9.4l-4.4-11.5l-0.3-6.9l-0.1-22.2l-0.2-6.8l-0.8-5.8l-3.1-27.4l-0.4-2.7l-0.7-1.7l-1.7-3.5
		l-10.5-20.3l-5.4-10.5l-5.2-14.9l-3.1-9.2l-4-11.8l-1.3-6.4l-6.4-24.9l-0.9-3.7l-0.2-0.9l-0.3-1.4l-5.3-27.8l-1.5-6.7l-1.1-9.2
		l-1.5-15.9l-1.3-10.8l-1.9-14l-1-7l-2-15l-3.9-15.1l-1.6-7.3l-3.3-13.5l-2.3-8l-7.9-27.8l0-0.1l0-0.1l-0.1-0.3l-5.9-29.7l-1.3-5.9
		l-1.2-8.4l-0.3-18.8l-1.7-8.7l-1.5-12l-0.1-11.9l-2.1-12l0.7-13.4l0.7-9.8l0.7-12.7l-0.6-12.6l-0.6-10.2l-0.6-13.2l-0.7-14.5
		l-0.7-6.2l-0.7-15.2l0.5-15.4l0.4-5.6l0.5-15l1.2-13.3l2.1-11.5l1.2-11.1l2.6-7.4l3.6-24.7l1-3.8l0.5-2.4l-0.1-31.1l0.3-2.5
		l0.6-1.5l1.5-8.1l4.4-21.9l0.4-4.4l0.9-5.6l3.8-20.8l1.3-9.5l5-15.8l1-3.4l5.6-16.8l3.2-10.3l8.4-23.7l0.6-1.9l0-1.3l-0.7-32.7
		l-0.1-2l0.2-1.8l1.8-14.2l2.4-17.5l0.5-2.4l0.8-3.7l4.3-24.1l1.9-8l0.4-10.4l0.8-14.3l0.4-11.2l3.8-15.4l1-4.1l3.9-16.4l3.5-12
		l4.2-16.1l2.2-7.8l1.1-4.5l4.5-20.3l2.2-8.9l0.7-2.2l0-3l0.1-29.9l0-3.1l0.3-3.4l2.2-26.9l0.6-5.6l3.8-10l4.2-11.7l5.8-14.2
		l5.4-10.5l10.5-19.4l2.7-3.4l2.3-2.7l9.8-14.8l2.6-3.8l9.3-17.4l2.7-6.5l6.5-16.3l6.2-6.8l5.4-6.2l9.1-15.1l2.6-8.3l5.3-12.5
		l3.4-3.9l3.9-4.7l13.6-13.7l12.2-13.6l5-5.1l5.1-6.2l12-12.5l7-12l4.4-12.6l12.6-20l1.6-1.8l2.1-1.6l15-17.3l17.3-8.4l3.7-6.4
		l1.6-3.7l1.8-7.2l3.2-18.3l3.3-10.4l7.9-14.3l14.3-19.7l0.8-1.1l0.7-0.8l20.7-13.7l13.7-6.3l9.5-6.5l13.5-9.5l4.4-8.6l8.6-11.5
		l8.1-7.7l16.2-8.1l4.3-7.4l7.4-4.4l15.1-9.1l8.8-3l12.1-5.2l5.1-1.7l21.2,4.5l9.6-1.4l8.1-0.2l15.6,4.2l12.3-0.2l15.5,3.4l4.1,1
		l16.4,3.4l14.1,2l8.9,1.2l12.9,1.8l12.2-1.1l10-1.6l13.8-1.1l17.3-2.4l1.2-0.2l17.5-2.3l14.1-2l10.5-2.8l11.3-2l8.2-1l24.9-5.4
		l2.8-0.4l1.9-0.5l3.1-1.9l20.1-10.9l10.9-4.7l15.5-4.8l7.1-2.2l13.3-4.2l8.4-0.7l22.1-3l5.4-0.5l4.9,0l26.1,0.1l5,0l7.9,2.9
		l14.8,5.3l13.3,5.1l16.6,1l2.9,0.1l16.4,1l17.1-1.7l1.5-0.2l17.3-1.7l17.5,1.4l1,0.1l17.4,1.4l12.6,3.4l15,4.3l8.3,2.3l3.4,2.6
		l3.9,3.4l18.8,9.8l9.8,4.3l16.5,2.4l2.4,0.4l17,2.3l17.7-1l0.5,0l17.7-1l16.9-0.3l2.3-0.2l16.7-0.4l17.8,1.5l0.2,0l17.8,1.7
		l12.4,3.9l18.8,7.7l4.7,1.7l2.1,0.9l3.5,2.1l20.6,9.7l9.7,4.9l15,6.2l9.3,3.5l11.6,4.5l5.8,1.2l27.6,5.8l2.1,0.4l0.4,0l0.5,0.1
		l31.7,3.3l3.8,0.7l4.9,0.4l25.4,0.7l5.6,0.6l5.3-0.9l16.6-5.3l10.1-3.9l3.9-1.8l6.2-0.5l22.9-0.6l6.8-0.6l7.5-0.1l23.5,2.6l4.9,0
		l14.2-9.3l4.6-2.8l17.1-13.5l3.4-1.9l5.1-3.4l14.1-13.3l13.3-7.6l14.3,6.5l7.4,0.2l14.2,3.5l6.9,3.8l27.1,5l1.9,0.7l0.9,0.3
		l1.8,0.9l21.2,12l12,3.7l17.3,1.6l1.1,0.2l17.5,1.5l16.4,0.6l3.6,0.4l15.9,0.7l14.4,0.9l8.8,1.7l12.7,1l10.4,1.3l19.1,4l6.4,0.9
		l5.4,0.1l26.1,1l4.4,0.1l4.4-0.1l27-0.1l4.5-0.1l2.6,2l2.7,2.6l12.8,17.9l0.1,0.1l10.2,17.9l3.3,4.4l4.4,6.2l9.9,15.4l6,9.9
		l8.5,11.6l11.6,15.8l5,3.4l6.5,5l15.6,8.8l8.8,5.3l16.7,2.5l2.3,0.3l16.9,2.8l13.7-6l18.6-13.7l1.9-1.7l1.7-1.4l3.5-0.5l25.1-3.8
		l7.3-1l6.1,2.2l28.6,4.9l1.2,0.3l0.7,0.2l3.2,0.7l25.6,6.4l6.4,1.1l15.3,7.8l3.5,1.9l17.1,7.9l9.5,1.4l19.2,2.2l7.3,1l4.6,1.6
		l16.2,4.6l12,3.1l3.1,0.7l8.5,4.8l11.9,7l15.5,7.6l10.3,2.5l18.8,3.4l6.9,1.5l6.1-0.7l22.8-0.9l7-1l11.3-3.3l10.8-2.5l13.8-4.7
		l14.4-3l12-4.8l9.5-2.7l5.9-0.9l24.2-5.9l4.9-0.9l0.9-0.2l1,0.1l34,0.1l0.9,0.1l1-0.2l32-1.9l2.9-0.7l5.2-1.7l24.3-1.1l6.4-4.6
		l5.6,5.4l10.6,5.6l12.1,7.6l7.6,1.6l17.2,9.5l1.7,0.3l17,5.5l6.2,5.3l4.3,6.2l0.9,11.3l-0.9,14.3l1.1,10.4l6.4,17.9l0,0.2l7.5,17.9
		l6.6,3.9l3.9,3.3l17.2,9.9l1,0.5l17.7,12.8l6.5-1.1l17.4-5.6l12.1-1.4l16-2.5l3.2-0.8l16.7-2.1l15.5-1.5l7.1-2.2l13.3-2l12.1,0.7
		l11.1,0.7l12.7,0.8l17.6,4.8l0.7,0l17.6,3.3l12.2,2.1l15,3.5l8.7,1.7l6.3,0.8l27.7,6.3l1.6,0.4l0.4,0.1l0.6,0.1l30.2,4.6l5.2,0.9
		l6.1,0.1l23.9-0.3l5.8,0.1l4.9-1l21.8-4.9l7.2-2l2-0.7l3-0.3l27.9-2l5-0.5l4.1,1.4l6.8,4.1l18.1,6.9l6.9,2.6l10.3,0.9l14,1.3
		l11.6,1l9.6-2.9l23.4-6.8l2.9-0.9l1.6-0.4l6.3-1.6l21.7-6.3l6.3-1.6l13.1-5.2l6.9-2.8l15.9-6.3l11.2-2.6l22.4-11.2l1.3-1l1-1.1
		l5.5-3.3l15.8-9.2l14.7-10.1l10.9,13.8l3.7,10.9l6,15.3l7.5,12.7l4.1,7.8l2.3,1.5l1.5,1l7.4,5l12.6,8.4l15.9,10.6l6.7,2.7l11.1,6.7
		l12.3,5.8l5.8,2.4l7.9-0.3l21.2-1.1l6.8-0.2l4.2-2.4l5.2-4.2l12.7-13.8l13.8-11.8l4-6.2l3-4l13.3-15.6l15.6-7.2l8.1-5l27.1-7.3
		l0.8-0.3l0.5,0.1l31.2,3.7l4.2,0.4l8.8,4.2l12.5,5.7l14.6,7.4l10.1,3.9l24.9,10.1l0.5,0.4l0.4,0.4l4.2,3.3l15.4,12.1l16.3,14.1
		l3,2.6l3,3l0.2,6.1l-5.2,28.9l0,0.9l21.2,13.8l13.8,9.9l6.4,5.9l4.3,6.4l11,14.3l8.7,16l3.3,5.6l0.7,1.6l1.6,2.5l13.8,18l15.7,13.8
		l3.6,2.8l2.8,0.7l6.1,2.6l16.4,7.3l13.4,5.4l10.8,6.3l9.8,10.8l7.6,7.6l7.6,16.2l3.7,8.4l0.7,3.7l0.8,5.2l4.4,21.1l1.4,9.6l8,16.9
		l3.2,5.3l7.8,13.7l2,4l4,4.8l13,14.2l14.7,13l3,5.2l5.2,10.4l6.8,13.6l3.7,6.8l9.1,16.3l3.4,6.7l6.7,12.9l1.8,4.4l4.4,17.8
		l3.1,10.6l0.3,3.1l4.3,7.6l7.4,13.2l8.4,15l5.7,6.8l6.8,8.1l9.7,11.4l6,9.7l3.9,16.3l1,4.3l3.7,15.3l2.4,9.2l7.4,24.9l0.5,1.8
		l0.1,1.2l1.2,6.2l5.6,22.9l2,5.6l3.2,10.8l2.8,11.5l4.7,13.6l8.8,8.8l8.8,6.2l11,9.8l7.4,11l2.3,15.1l0.6,6.3l2,14.5l-7.8,15.7
		l-15.7,14l-3.7,2.6l-2.8,3.7l-9,15.6l-1.8,3l-8.9,17.4l-4.2,5.4l-5.4,7.6l-11.3,11.6l-7.5,11.3l-6.4,10.7l-5.8,20.3l-2,4.9l-1,1.9
		l-1.9,5.1l-7.7,21.3l-2,7.7l-6.1,15.7l-1.3,3.1l-6.1,17l-3.9,9l-9,23l-1,3l-0.3,1l-0.5,1.7l-7,25.5l-2.2,8.7l-0.8,11.7l-0.8,11.7
		l-0.8,12.5l2.4,10.9l3.2,17.3l1.6,7.7l1.6,4.5l4.5,12.7l5.4,13.4l2,5.4l9.5,16.9l0.8,1.4l9.4,17.7l2.6,6.2l6.2,12.4l6.4,10.8l4,6.4
		l9.5,16l5.4,9.4l6.1,10.6l1.3,3.1l3.1,8.6l8.1,16l3.9,8.1l6.4,17.5l0.5,1.5l6.1,16.9l2.7,8.1l8.1,18.2l4.1,5.6l2.8,4.1l9.1,16
		l1.5,2.5l8.7,17.5l0.6,9.2l-0.7,16.9l0.5,9.8l-3.5,12.8l-2.3,8.1l-4,15.1l-7.3,9.5l-9.5,8.1l-10.9,7.4l-11,10.9l-6.9,7.1l-7.1,8.1
		l-10.1,10.7l-8,10.1l-7.8,10l-10,12.4l-6.4,7.1l-2.9,6.4l-5.1,14.4l-1.8,5.3l-5.9,16.2l-0.7,13.1l-1,10.7l-0.7,12.1l-0.9,10.5
		l-2.3,17.2l-0.8,8.2l-2.8,4.6l-4.6,6.5l-10,14.7l-6.8,10l-5.5,13.5l-6.5,15.3l-2.9,7.1l-1.5,2.6l-2.6,4.7l-9.5,19.1l-4.3,9.5
		l-7.8,14.3l-14.3,16.6l-3.3,1.8l-5.9,3.3l-15.5,11.3l-11.3,8.1l-11.7,4.9l-22,11.7l0.4,2.7l5.9,24.6l1.2,8.6l-0.8,9l3.4,14.5
		l-0.6,12.4l-3.8,8l-0.3,20.2l-1.9,7.7l-2.7,3.1l-3.1,2.9l-7.8,1.7l-17,3.4l-11.1,2.6l-8.8-4.9l-11-8.8l-7.5-8.6l-8.6-2.7l-17.3-7.3
		l-2.3-1l-16.3-7l-8.3-1l-24.6-8.3l-2.5-0.6l-0.6-0.1l-0.5,0.1l-3.2,0.5l-25.6,6.6l-6.6,0l-6.6-0.1l-20,2.8l-9.4-0.1l-10.3,1.1
		l-12.3,2.9l-13.3,1l-13.7-0.6l-8.6-0.1l-13.6-0.6l-11.5-1.6l-20.6-7.6l-3.8-0.8l-2.3-0.8l-5.1-2.3l-21.3-7.3l-7.3-2.9l-17.7-7.5
		l-0.4-0.1l-17.9-7.8l-8.1-2.2l-23.2-8.1l-3.7-1l-1-0.3l-1.8-0.5l-27.1-5.3l-7.1-2.7l-9.6,0.2l-19.6,2.9l-6.7,0.2l-4.6,2l-8.8,4.6
		l-9.5,13l-13,21.6l-0.6,0.7l-1.1,0.6l-20.5,13.7l-13.7,7.9l-8.1,6.1l-16.2,8.1l-9.5,2.1l-2.1,0.5l-3.6,1l-25.8,2.8l-6.5,2.8
		l-14.2,12.4l-12.7,14.2l-3.7,5.2l-5.2,12l-10.9,7.8l-14.5,10.9l-7.6,2.9l-2.9,2.8l-15.6,14.6l-12.2,15.6l-4.3,3.8l-3.8,3.8
		l-13.1,5.4l-6.8,3l-16.1,6.1l-10.3,3.5l-20,4.7l-5.6,1.6l-3.1,0.9l-25.2,3.1l-6.4,1.1l-1.1,0.5l-9.9,8.3l-8.5,7.5l-17.5,7.7
		l-8.2,2.5l-21.3,1.8l-6.4,1.4l-5.3-0.3l-24.5-0.7l-6.1-0.4l-7.5-1l-19.5-1.4l-8.9-1.4l-9.6,0.6l-21.2,4.6l-5,0.4l-4.8-0.2l-26-0.4
		l-5.2-0.2l-6.2-0.8l-19.4-4.1l-10.3-1.1l-17.2-5.7l-1.2-0.4l-17.5-6.3l-6.9-5.1l-6.4-6.9l-11.2-11.4l-11.4-7.6l-10.2-6.7
		l-11.6-10.2l-7.1-7l-7-8.4l-8.2-12.4l-5-8.2l-11.7-11l-11-6.2l-12-6.7L3122,2732l-1.7-0.9l-0.6-0.3l-1.5-0.6l-23.8-10l-10-4.3
		l-13,1.2l-10.4,0.5l-12.5,1.1l-12-0.6l-11.3-0.6l-12.6-0.6l-16.1-6.6l-8.2-4.4l-11.6-5.7l-4.5-1.4l-14.4-4.5l-13.3-3.7l-3.7-1.2
		l-6.8-1.9l-22.2-0.2l-6.9-4.3l-16.8-8l-3.4-1l-15.8-5.9l-7.7-2.2l-19.5,1l-8.7-1.4l-6-1.3l-19.4-6l-6.9-3.6l-3.6-1.9l-17.4-11.9
		l-0.6-0.4l-17.9-10.9l-3.8-3.3l-5-3.8l-16.9-10.2l-10.2-3.1l-17.2-3.9l-1.2-0.3l-17.5-3.5l-17.5,2.6l-1.1-0.1l-17.3,4.8l-9,4.8
		l-11.8,9l-9.3,5.8l-5.8,3.5l-9.1-0.2l-17.9-0.2l-8.9-0.2l-8.1-0.6l-22.1-2.4l-5.7-0.4l-4.8-0.4l-27.3-4.8l-2.9-1l-1-0.9l-10.5-23.6
		l-5.1-10.5l-8.5-11.9l-11.9-19l-1.9-3.1l-1.1-1.9l-0.1-3.1l-2.8-27l-0.2-5.9l-0.1-6.1l-1.2-22.5l-0.1-7.3l-2.7-10.1l-3.7-12
		l-3.3-13.8l-4.8-13.9l-5.8-13.9l-3.1-8.1l-1.3-3.7l-3.7-9.4l-7-15.8l-4.1-7l-9.2-15.6l-1.6-6.3l-5.4-14l-3.1-5.5l-5.5-11.5l-6.9-12
		l-3.4-6.9l-14.6-11l-11-5.3l-15.2-4.4l-8.6-3.1l-12.1-3.9l-8.3,0.1l-19.4-0.2l-8.1,0.1l-16.6,11.1l-9.5,6.8l-9.8,6.9l-1.5,1.4
		l-1.5,1.5l-4.7,7.7l-7.7,12.9l-10,15.4l-3.8,6.7l-6.7,9.2l-7.2,12.9l-3.3,7.2l-8.5,16.9l-3.5,5.6l-8,13.4l-2,3.4l-3.4,4.5
		l-13.8,14.2l-13.5,13.8l-4.8,3.8l-3.8,2.7l-16,9.5l-2.4,1.4l-17.5,10.5l-5.7,2.2l-10.5,5.7l-10.5,9.2l-9.2,16.4l-3.9,6.5l-1.5,3.9
		l1.8,3.6l3.6,10.9l4.4,16.9l0.4,4.4l-0.8,4l-4,23.2l-1.6,7.1l-0.4,1.6l-8.5,10.4l-6.6,8.5l-15.5,13.7l-3.4,3l-0.3,0l-2.2,0.3
		l-30.1,3.3l-3.3,0.9l-5.9,1.7l-21.4,2.8l-8.7,4l-11.4,11.8l-8.6,11.4l-4.7,11.2l-11.2,22.3l-1.2,1.3l-1,1.2l-19.6,14.1l-14.1,12.4
		l-7.8,1.6l-17.9,7.8l-7.3,2.9l-2.9,2.8l-10.7,19.5l-3.4,10.7l-5.9,16l-2,6l-4.9,14l-3.2,5.9l-5.9,10.4l-12.7,6.8l-11.5,1.1
		l-11.7,3.5l-6.2,2l-15.4,6.2l-9.9,4.4l-4.4,1.9l-16.4,13.2l-12.9,9.9l-6.5,5l-1,0.5l-1.8,1l-23.4,9.7l-9.7,4.6l-14.3,7.4l-15,7.7
		l-6.6,3.4l-3.2,0.1l-29.1-0.5l-3.6,0.1l-5.3-1.8l-18.9-6.3l-11.7-3.8l-14.1-6.2l-14.5-6.9l-7.3-3.4l-3.5-0.4l-28.2-3.5l-3.6-0.6
		l-0.6-0.1l-0.6,0l-31.1-3.6l-4.2,0.1l-2.7,1.5l-4.8,2.7l-19.2,9.3l-9.3,3.9l-14.2,8.6l-21.4,13.8l-0.4,0.3l-0.1,0l-33.9-1.7l-1.9,0
		l-1.8,0.1l-32.4,0l-1.7,0.1l-1.2,0.4l-2.2,1.2l-18.2,14.3l-14.3,8l-11.8,1.9l-12.9,0.5l-11.2,1.5l-17.4-8.7l-2.5-1.4l-16-8.9
		l-5.6-1.5l-17.3-5.6l-9.7-3.3l-3.3-1.1l-4.2,0.2l-22.9,4.2l-7.7,1.2l-1.2,0.1l-1-0.3l-4.3-1l-22.3-8.2l-8.2-3.9l-11.6-12.3
		l-8.7-11.6l-4.1-11.5l-2.3-15.2l-2.4-9.2l-2.1-4.7l-4.7-14l-6.5-10.7l-5-6.5l-7.1-17.4l-17.4-18l-1,0.5l-21.2,12.7l-13.7,4.6
		l-9-9.3l-7.9-9l-7.9-11.1l-11.1-12.1l-5.2-7.4l-3.8-5.2l-6.7-15.8l-1.2-3.1l-8.4-17l0.5-11.1l0.6-13.1l0.6-11.7l-5.9-6.4l-6.4-7
		l-10.4-12.1L908.8,2622.6"/>
	<path class="st1" d="M4159.8,2586.6l1.9,0.1l0.1,0l0.1,0l1-0.1l32.4-2.5l2.5-0.5l7.6-4.6l13-7.7l15.3-10l6.4-4.2l8.8-6.4l8.6-12.2
		l12.2-17.2l3-3.5l3-3l20.2-9.6l9.6-7.9l8.4-10l4.7-8.4l7.6-15.2l2-7.5l4.9-13.2l3.1-5.2l5.2-6.7l13.8-10.3l11.2-13.8l5.3-5.7
		l5.7-8.4l9.5-12.2l5.9-9.5l9.8-10.7l10.7-12.8l6.6-5.9l4.8-6.6l10.3-14.2l9-16.6l3-5.2l0.7-1.4l1.4-6.9l5.5-22.1l0.9-5.5l5.7-12.1
		l3.8-7.8l7.2-15.9l4.5-8.3l8.3-14.2l6.9-6.6l10.6-6.9l10.2-8.3l8.3-8.5l7.4-11.8l4.2-7.4l11-13.3l13.3-18.4l1.7-2.5l0.9-1.7
		l1.1-3.7l7.5-21l2.8-11.2l-0.5-13.6l-0.3-9.1l-0.5-13.2l-3.2-9.5l-9.5-25.2l-0.4-0.8l-0.2-0.4l-0.8-1.3l-12.4-20.9l-7.5-13.7
		l-3.8-10.9l-4.2-18.3l-2-6.7l-1.3-3.5l-3.5-12.5l-4.6-15.4l-1-4.6l-3.8-9.4l-5.6-11.5l-4.5-15l-3.4-13l-2.9-12.8l-2.5-10.1
		l-1.4-6.3l-6.3-26l-0.7-2.9l-0.2-0.7l0-0.9l-0.1-34.1l0-1l0-1l1-18.2l1-15.7l0.1-1l0.3-1.4l6.1-26.9l1.7-7.6l1.4-10.7l1.6-12.9
		l1.6-12.3l-2.1-11.9l-8.2-20.4l-1-3.7l-0.8-1.9l-1.9-2.8l-10.7-20.4l-6.4-10.7l-6.3-12.4l-12.4-22.7l-0.2-0.6l-0.1-0.2l0-0.3
		l-1.1-34.2l-0.1-1.4l0.3-1.2l1.2-4.4l9-21.3l4.6-9l10.7-11.6l11.6-12.6l7.5-4.3l9.7-7.5l9-9.6l7.3-23.9l1.1-2.4l0.1-1.2l1.2-21.3
		l0.8-12.7l0-0.8l-0.1-0.7l-0.7-9.2l-2-24l-0.3-2l-0.7-3l-6.6-23.4l-2-9.5l-5.7-17.3l-0.3-1l-5.6-17.6l-4.4-8.3l-8.3-23.9l-1.1-2.6
		l-0.6-1.1l-4.5-6.1l-9.6-14.1l-15.7-15.7l-2.6-1.9l-1.9-1l-3.3-0.4l-26.9-2.4l-5.7-0.8l-17.2-12.2l-5.3-3.8l-13.4-9.5l-2-1.9
		l-2.2-2l-14.3-17.4l-17.4-16.6l-1.1-0.8l-1.9-1.1l-20.1-12.9l-12.9-6l-11.2-5.8l-22.2-11.2l-1.6-1l-1-0.3l-1.8-0.5l-24.7-7.7
		l-9.5-2.4l-17.4-5.5l-0.9-0.3l-17.7-5.5l-8.7-4.1l-20.8-8.7l-4.2-2.2l-2.2-0.8l-7.4-4.4l-13-8l-15.5-8.2l-6-6.3l-5.1-6l-8.4-16.4
		l-13.5-16.6l-2.2-2.9l-0.1-0.6l-0.6-0.7l-11.9-22.7l-14.6-11.9l-3.4-6.1l-6.1-3.7l-12.6-13.5l-17.7-7.1l-5.6-3l-1.7-0.8l-5.5-1.7
		l-19.6-9l-9-2.6l-16.8-7.4l-3.3-1l-15.8-5.8l-6.2-3.9l-9.6-6.2l-12.4-7.8l-7.8-4.3l-16.5-7.4l-5.1-2.1l-14.4-6.1l-6.7-1.6l-22-6.7
		l-5.4-1.8l-1.8-0.7l-2.6-0.1l-29.8-0.8l-3.5-0.2l-3.2,0.5l-22.1,3.2l-9.4,1.2l-1.2,0.1l-1.2-0.1l-34.1-0.7l-0.5,0l-0.4-0.1
		l-4.2-0.4l-27.9-3.3l-3.3-0.2l-3.4,0.1l-29.4,0.3l-3.1,0.1l-2.5,0.5l-12.1,2.5l-18.4,2.9l-2.9,0.3l-3.2,0l-29.7-0.3l-3,0l-2.8-0.1
		l-32.2-2l-0.9,0l-0.7-0.2l-2.7-0.7l-25.7-6.8l-6.8-1.4l-10-1.7l-13.6-2.4l-12.3-2.1l-15-0.6l-5.8-0.1l-15.1-0.6l-16.9-1.2l-2.1-0.1
		l-17-1.3l-15.8-1.9l-5-0.7l-15.1-1.9l-12.9-0.4l-10.6-0.4l-12.5-0.4l-12.9,0.9l-9.4,0.6l-13.5,0.9l-14.7,0.3l-6,0.5l-15.2,0.3
		l-14.1-1.3l-7.8-0.2l-14-1.1l-11.6-1.2l-15.1-2.5l-9.2-1.1l-7.6-0.6l-27-6.2l-1.4-0.1l-1-0.2l-2.7-1l-19.8-12.4l-12.4-7.9
		l-12.9-2.7l-12-1.9l-11-2.1l-11.8,2.9l-10.1,2.3l-14.1,3.6l-17.7,0.5l-0.5,0l-17.7,0.5l-12.4-6.3l-18.5-12.4l-3.2-1.8l-1.8-1.1
		l-4.8-1.9l-19-7.3l-12.1-4.9l-16.3-2.6l-4-0.7l-15.6-2.5l-13.2,0.1l-9.3,0.2l-13.4,0.1l-15.3,1.8l-4.6,0.6l-15.9,1.9l-16.9,1.2
		l-2.4,0.3l-16.6,1.3l-14.8-5.7l-12-5.7l-9.1-4l-2.2-2.9l-1.6-2.2l-14.6-17.5l-17.5-15l-2.7-0.7l-15-2.7l-15.5-2.6l-2.6-0.4
		l-2.4,0.6l-4.7,2.4l-19.1,9.7l-9.7,7.5l-14.4,4.3l-13.3,6.1l-8.3,3.2l-13.8-8.7l-5.4-3l-16.8-16.1l-2-1.1l-7.3-2l-23.6-3.1
		l-3.1-0.4l-2.6,0.8l-7,2.6l-18.4,7.8l-7.8,0.6l-7.4-1l-24.6-3.4l-4-0.5l-2.6-0.8l-5.8-2.6l-18.1-9.5l-9.5-6l-11.1-9.4l-16.7-11.1
		l-4.8-3.4l-3.4-1.5l-16.4-11.5l-1.8-1.3l-17.7-9.7l-4.6-3.9l-3.1-4.6l-6.8-14.5l-1.8-5.2l-12.7-16.2l-3.5-3.5l-3.5-1.7l-7.4-2.2
		l-15.6-5.5l-12.9-3.2l-15.2-4.7l-18.2-15.2l-1.3-1.2l-1.2-0.7l-3.6-1.6l-20.5-8.3l-11.8-6.6l-12.5-5l-17.4-12.5l-4.1-2l-2-1
		l-2.3,0.8l-8.1,2.3l-17.6,8l-8,2l-15.1,10.8l-8,2.4l-12.8,5.5l-9.1-1.9l-13.5-4.2l-13.3-2.1l-15.3-5.2l-6.9-1.7l-13.7-4l-9.5-0.1
		l-17-0.1l-9.4-0.1l-9.4,0.1l-16,1l-10.4,0.1l-9.6-0.9l-17.2-0.6l-9-0.8l-7.4-0.8l-22.6-1.6l-5.8-0.6l-4.5-0.8l-29.6-2.6l-1.8-0.3
		l-1.4-0.2l-10.1-1.4l-20.9-3.5l-3.5-0.5l-5.1-1.1l-21.2-4.5l-9.6-2.1l-13.1-1.4l-8.6-1.1l-14.2-1.5l-17.8-2.4l-0.3,0l-17.8-2.3
		l-11.5-4l-21.1-8.2l-3.3-1.2l-1.6-0.5l-4.7-1.6l-20.9-8.7l-8.7-3.4l-15.2-3.1l-4.6-0.8l-16.1-3.5l-13.3-3.1l-11.9-2.5l-10.8-2.4
		l-7.7-0.6l-20.5-0.1l-7.6-0.5l-6.6-0.5l-24.8-2.1l-4.5-0.4l-3.3-0.9l-11-3.3l-16.9-4.7l-4.7-1.5l-6.7-0.4l-21.9-0.6l-7.3-0.5
		l-7.7,0.2l-21.8,1.3l-6.4,0.2l-5.7,0.5l-27.4,2.9l-2.8,0.3l-2.3,0.2l-13.8,2.3l-16.9,2.9l-2.9,0.5l-3.1-0.3l-23.6-3.1l-8.1-1.2
		l-1.2-0.3l-1.4,0l-26.6,1.4l-7.5,0.3l-0.3,0l-0.5,0.2l-25.8,9.1l-9.6,2.6l-14.1,1.9l-6.7,1.1l-15.2,1.9l-17.3,1.5l-1.5,0.3l-17,1.8
		l-14.5,0.7l-7.5,0.6l-13.9,0.7l-12.8,0.3l-10.4,0.2l-12.7,0.3l-9.4,2.9l-25.4,8.4l-1,0.3l-0.5,0.2l-1.8,0.5l-21.9,11.6l-11.6,6.1
		l-11,7.2l-15,11l-5.1,4.7l-4.7,4.3l-13.6,13.2l-15.9,13.6l-4.1,2.3l-2.3,0.8l-4.7,1.6l-20.6,5.9l-10.6,4.2l-12.9,8.2l-15.4,12.9
		l-4.2,3.4l-3.4,3.8l-11.9,16.9l-4.4,11.9l-7.5,12.1l-12.1,18.3l-2.3,3.1l-1.5,2.3l-4.7,8.6l-6.8,11.8l-7.5,15.4l-3.1,9.8l-4.5,20.8
		l-1.4,5.3l-1.3,2.6l-2.6,5.8l-8.9,18.6l-3.5,8.9l-9.1,14.4l-7.3,14.4l-3.8,7.1l-1.2,2l-2,2.7l-15.2,10.5l-3.2,2.2L714,821.2
		l-4.6,1.1l-11.3,4.6l-14.9,5.2l-5.2,4.9l-17,6.9l-1.4,0.6l-17.6,7.1l-6.9,4.4l-13.1,6.9l-9.6,6.3l-6.3,5.8l-10.5,13.2l-5.9,10.5
		l-4.9,14.5l-1.4,8.4l-3.4,13.1l-3.2,6.4l-6.4,11.9l-6.6,11l-4.7,6.6l-10.9,13.8l-13.8,15.9l-2.2,4l-1,2.2l-0.1,3.3l1.5,30.7
		l-0.1,1.9l0,2l-0.1,31.8l0,2.1l-1,3.2l-7.5,22.1l-3.4,10.7l-5.8,16l-1.9,5.8l-4.8,14.1l-3.2,6.1l-6.1,15.4l-4,10.5l-1.2,4l-3.7,8.9
		l-5.3,12.8l-5.9,14.2l-3.8,12.1l-6,17.7l-2,6.1l-0.1,4.1l-0.4,28.1l-0.1,3.7l1,4.6l4.9,21.8l2,9.5l1.8,13.3l1.2,8l1.9,14.6
		l-0.8,15.7l-0.1,4.7l-0.7,15.5l-2,12.8l-2.1,12.5l-1.7,10.7l-1.3,7.6l-4,24.7l-0.6,3.6l-0.3,2.7l-1.8,32.4l-0.1,0.9l0,0.8l1.4,32.9
		l0.1,2.2l0.2,2.5l2.5,28.3l0.5,5l-0.4,5.1l-2.5,28.2l-0.2,2.6l-0.1,2.3l-1.4,32.7l0,0.9l0,0.9l0.6,33.6l0,1.4l0.3,1.7l4.4,28.1
		l0.9,6.1l3.3,10.4l3.5,11.7l4.7,13.9l2.8,14.6l1.8,8.5l2.5,12.8l1.8,8.5l5.1,24l0.7,3.4l0.4,2.3l2.3,11.7l3.3,18.6l0.6,3.3l0.6,4.5
		l3.4,23.5l1.1,7.9l3.7,12.7l2.4,8.1l4.3,15.1l4,12.5l3.6,14.6l2.5,8.9l0.8,5.5l5.5,29.5l0.1,0.8l0,0.1l0,0.2l4.9,30.6l0.8,5.1
		l3.1,9l4.3,13.6l4.9,13.3l5.4,12.3l12.3,21.4l0.9,1.4l0.6,0.9l1.9,3.3l10.1,19.1l8.7,13.5l3.3,10.4l8.6,23.6l0.6,1.8l0.2,1l1,4.3
		l5.9,24.7l1.2,5.9l1.5,8.6l2.6,16.1l2,11.2l8.2,14.5l7.9,14.9l3.6,6.6l0.8,2.2l2.2,4.1l9.7,20l6,9.7l8.2,12.1l12.1,10.6l6.8,6.5
		l10.7,6.8l9.8,8.6l8.6,6.2l11.8,9.3l17.5,11.8l3.7,2.9l2.9,2l9.6,4.7l10.5,6.2l15.8,5.2l11.9,3l15.3,3.1l8.8,2.1l5.7,1l28.8,4.4
		l1.4,0.2l0.8,0.3l2.7,0.8l22.9,9.4l9.4,4.2l14.2,8l21.4,14.2l0.2,0.1l0.1,0.1l0.9,0.7l19.5,14.5l15.5,10l7,3.5l17.8,7l7.4,3.8
		l3.8,1.7l15.8,10.3l2.7,1.6l17.4,15.8l1.2,1.5l0.9,1.2l16.2,17.6l9.5,10.2l7.6,8.1l0.3,0.3l0.3,0.2l1.1,0.7l20,13.7l14.8,5.6
		l9.8,5.6l17.8,9.8l4.8,3.6l3.6,2.4l15.9,14l16.9,12.9l3.1,2.4l0.5,0.2l1,0.5l23.4,11.1l11.1,6.1l14.1,4.6l18.8,14.1l1.1,1.9
		l1.9,2.6l6.6,2.1l17.3,5.4l12,3.9l16,0l4.1-0.1l15.8,0l13-2.9l10.9-1l12-2.1l7.8-2l25.7-5.4l2.4-0.6l1.5-0.3l6.6-1.5l24.4-3.3
		l3.3-0.9l3.6,0.6l9.7,3.6l15.3,7.3l7.3,3.1l11.4,1l12.2,0.9l12.3,1.1l12.9-0.5l10.9-0.8l12.1-0.5l9.3-2.3l23.5-9.3l2.2-0.9l0.9-0.4
		l13.5-21.2l9.2-13.5l4.5-8.7l8.7-15.2l4.8-7.2l3.6-4.8l10-17.4l7.6-8.7l8.3-9.8l1-0.5l0.5-0.3l16.8-18.4l14.8-16.8l2.1-2.2l2.2-2.2
		l16.1-15.4l19.2-15.5l0.6-0.5l0.1,0l1-0.1l32.6-2.2l2.2-0.5l3.3-0.7l26-3.3l6.6-1.6l14.7-6.5l4.2-2.2l17-5.6l13.5,0.1l8.5,0.3
		l13.9,0.1l16.1,2.1l3.5,0.2l16.3,2.5l15.2-3.6l8.4-2.9l12.3-3.5l5.7-3.1l4.7-5.7l10.4-15.1l2-7.7l5.3-13.1l3.1-4.6l4.6-6.2
		l12.5-12.6l13.4-12.5l5.4-4.6l4.6-3l16.4-8.9l2-1.1l17.5-9.1l6.2-3.1l10.4-6.2l12.3-7l7-4l15.6-9.4l14.4-9.7l5.9-3.9l1.2-0.9l1-1.2
		l6.4-8.5l8.2-10.7l10.9-16.7l3.3-5l5-5.4l12.6-12.9l14.1-12.6l5.2-4l4-2.8l15.6-13.5l19.6-15.6l0.5-0.3l0.3-0.2l1.2-0.7l21.4-12
		l13.3-6.1l13.4-3.1l10-0.9l12.5-2.3l9.5-0.7l19.7-2.8l6.7-0.6l6.3,0.1l28.5-5.1l1.2,0l1.9,0.7l23.2,9l10.8,3.5l15.5,6.1l7.1,2.2
		l13.3,4.6l5.7,3l8.7,5.7l12.7,8.8l8.8,6.5l11.9,8.7l14.8,11.9l3.6,5.5l5.5,7.8l10.4,12.2l6.5,10.4l8.2,10.8l10.8,13.4l5.8,5.9
		l6,5.8l12.6,11.5l11.5,10.2l7.4,6.8l5.7,7.4l9.9,12.9l12.9,18.4l2.2,2.5l2,2.2l15.6,16.1l16.1,14.6l3.2,2l7.5,3.2l15,10.2l10.2,3.3
		l12.5,9.9l20.9,12.5l1.7,0.8l0.8,0.3l1.5,0.4l25.4,7.5l9,2.3l15.2,9.4l13.6,8.1l7.1,4.3l1.7,1.1l2.9,1.7l20.5,10.7l10.7,3.9
		l16.7,4.5l3.7,1.2l15.5,4.6l7.3,3.6l14.5,7.3l9.2,4.9l4.9,2.5l14.7,7.3l4.3,2.1l16.9,8.4l7.5,3.1l19.5,7.5l5.8,3.1l3.1,1.6l6.6,1.9
		l16,6.8l13.4,2.5l13.2,6.9l17.4,7.8l5.3,2.5l1.8,1l3,1.8l19.8,11.4l11.4,4.9l14.8,4.9l9.5,3.1l11.6,3.8l6.4,1.4l24.8,6.4l3.8,0.9
		l0.9,0.3l1.3,0.1l31.7,1.6l2.9,0.3l3.6,0.5l26.1,2.5l6.1,0.8l7.4,0.4l20.5,0.6l8,0.4l10.1,1.6l13.6,2.2l12.3,2l16.9,4.8l3.6,1.5
		l15.4,5.3l7.9,2.2l27.3,7.9l0.5,0.2l0.2,0.1l0.7,0.5l20.4,14l14.7,8.1l9.6,3.5l24.4,9.6l1.4,0.5l0.5,0.2l0.7,0l16.2-0.7l18.1-0.9
		l0.9-0.1l1.8-0.8l22.9-9.4l11.2-5.1l10.4-9.2l11-10.4l5.9-8.6l8.6-11.4l6.2-9.7l5.3-6.2l15.4-9l9-3.5l17.9-5.5l0.1,0l17.9-5.1
		l10.5-2.2l18.9-4l6.5-1.4l4-1.2l10.7-4l17.2-4.1l4.1-1l7.7-2.5l15.7-4.9l12.6-4.4l14.6-4.4l10.2-3.5l11.1-3.6l5.6-2l11.2-5.6
		l12.6-6.5l6.5-4l15.3-10l15.9-10.7l4.7-3.1l1.1-0.5l2.2-1.1l23.5-9.1l9.1-2.9l14.6-2.5l5.7-1.1l15.7-2.6l17.4,0.9l1.2,0.1l17.3,0.9
		l13.2,3.2l14.3,4.8l8.4,2.4l5.1,1l16.5,5.1l10.7,3.6l3.6,1.4l7.1,2.1l17.6,4.1l11.2,3.9l14.9,5.9l11.6,5.4l9.5,4.2l4.7,0.6
		l29.9,3.4l1.3,0.2l1.1,0L4159.8,2586.6"/>
	<path class="st1" d="M2833,938.7l2.8-1.3l4.7-2.8l6.9-14.4l1.3-5.8l16-11.5l4.2-3.5l0.4-0.3l2.1-0.4l26.9-6.5l6.5,0l11.2-4.8l9-4.5
		l15.7-5.1l10.9-4.2l17.7-3.6l7.3-2.2l5.1-0.1l23.5,2.3l7.3-0.1l7.3,0.1l20.1,1.3l8.5,0.1l9.9,1.3l14.1,2l11.9,1.5l12.3-1.2
		l11.7-0.3l11.9-1l9.5-1.4l18.2-1.3l8.2-1.1l5.9-1.3l20.9-5.9l7-2.1l2.1-0.3l2.4,0l29.4-1.7l4.1,0l3.3,0.8l9.4,3.3l16.2,6.9l6.9,2.6
		l11.3,1.8l11.5,1.9l13.2,2l13.7-1.5l9.7-1.1l12.6-1.4l11.2,0.1l13.4,0.1l11.3,0.1l12.3,0.9l10.6,0.8l13.1,0.9l13.9,0l8,0.1l14,0
		l14.3,0.4l6.9,0.3l14.6,0.4l16.5,1.5l2.6,0.2l16.8,1.6l14.5,3.1l9,2l12.5,2.7l9.7,0l16.1-0.4l10.1,0l10.3-0.2l14.9-0.4l10.7-0.2
		l10.9,0l15,0.9l10,0l9,1l21.5,3.5l5.5,0.7l3.8,1l10.4,3.8l15.8,5.9l5.9,2.8l11.7,3.1l10.1,2.4l14.1,4.1l17.6,0.2l0.8,0l17.6,0.2
		l17,0.4l2,0.1l16.9,0.4l13.7,2.8l10.6,2.1l11.6,2.4l6.7,2.5l23.1,6.7l5.1,1.1l1.1,0.3l2.3,0.9l23.1,8.2l10.5,4.4l14.1,7l15.2,7.6
		l6.5,3.2l2.2,1.1l4.1,2.2l18.9,10.7l10.7,6.8l9.2,9.2l8.4,9.2l8.2,10.1l10.1,13.5l5.2,7.2l3.7,5.2l12.5,14.5l14.5,16.7l2.5,2.2
		l3,2.5l18.1,12.2l12.2,8.1l10.1,5.4l16.7,10.1l5.9,3.1l3.1,1.8l8.9,4l12.6,5.5l14.4,6.8l10.9,3.8l24.4,10.3l0.6,0.2l0.3,0.1
		l0.5,0.3l26,9.2l9.2,3.9l15.1,7.7l20.5,15.1l0.2,0.1l0.1,0.1l1.1,0.9l19,14.7l15.8,12.5l4.6,3l6.7,4.6l15,9.7l9.7,6.2l12.6,7.4
		l19.5,12.6l1.3,2.6l2.6,5.6l7,20.8l2.1,7l1.1,10.1l1.6,14.1l1.2,11.7l-0.8,12.1l-4.2,15.8l-0.7,8l-1.5,5.7l-5.7,11.9l-4.2,14
		l-0.9,4.2l-1.7,6.8l-4.4,17.9l-2.7,11.2l-6.3,15.7l-2.2,6.7l-4.9,13.5l-0.9,7.7l-0.8,21.3l-0.7,6.9l0.7,6.9l2.4,19.7l0.9,9.3
		l5.3,15.5l1.2,3.7l5.9,16.7l3.8,9.5l9.5,26.1l0.1,0.2l0,0.1l0.1,0.2l8.9,26.6l4.2,9.1l3.6,16.9l0.5,1.6l2.7,17.4l1.1,14.7l-0.4,6.2
		l0.9,15l0.5,13.7l0.3,8.8l0.4,13.4l0.2,12.7l0.3,10.7l0.2,12.4l1.7,10.5l4.1,18.9l1.1,6.5l0.8,4.5l4.5,23.1l1.4,6.9l0.3,1.4
		l0.3,1.9l3,29l0.7,5l0.6,6.2l1,22.4l0.7,7.3l0.4,8.4l-0.6,19.6l0.5,7.8l1.4,9.7l0.6,15.9l1.9,10.3l3,15.2l0.6,4.9l3.9,15.8
		l0.9,15.3l0.2,5.5l0.9,15.1l-6.4,15.3l-2.6,7.9l-4.7,12.7l-3.9,4.1l-4.1,4.5l-11.9,15.4l-7.3,11.9l-5.5,11.2l-11.2,24.2l-0.2,0.4
		l-0.1,0.2l-0.2,0.6l-9.3,25.4l-4.8,9.9l-8.9,12.3l-12.3,15.6l-4.6,3.4l-6.8,4.6l-12,12.5l-6.7,17.6l-3,5.8l-1.2,1.6l-1.6,1.9
		l-17.3,15.1l-5.2,4l-13.4,10.3l-1.8,1.3l-3,1.8l-18.3,12.8l-12.8,8.1l-10.2,4.8l-20.6,5.2l-5.1,1.8l-2.1,1.2l-6.5,2.1l-13.2,14.1
		l-14.1,10.2l-4.2,7.4l-4.8,4.2l-10.4,16.5l-16.5,11.8l-4.5,3.2l-12,4.5l-13.4,6.1l-6.1,2.8l-6.8-2.1l-25.2-2.8l-4-0.9l-5,1.9
		l-17.5,8.5l-13.5,3.6l-11.3,7.5l-23.2,9.8l-1.5,0.7l-0.6,0.1l-7.5,0.6l-25.4,2.3l-2.3,0l-2.1-0.2l-31.8-0.1l-2-0.2l-2,0.1
		l-28.2,3.7l-5.7,0.3l-7.2,1.3l-17.6,3.8l-11.1,1.7l-16.4,3.5l-2.6,0.6l-17,3.5l-11.8,3.7l-17.7,5.4l-6.4,2l-3.2,1.3l-6.5,3.2
		l-14.8,11.5l-11.5,7.2l-12.6,4.7l-16.9,6.2l-6.4,2.4l-3.4,0.7l-8.9,3.4l-17.3,6.4l-6.4,2.6l-13.9,4.8l-6,2.1l-16,5.5l-12.8,1.7
		l-11.1,0.8l-12,1.4l-9.4,1.1l-19.8,2.8l-6.7,0.8l-5.8,0.1l-25.5,1.1l-4.6,0.1l-4.1,0.5l-31.5,3.7l-0.3,0l-0.2,0l-1,0.2l-27.1,7.6
		l-7.6,2.2l-16.6,6.8l-1.9,0.8l-17.4,7.5l-8.5,2.6l-24.6,5.7l-2.8,0.8l-2.7-0.7l-24.3-6.2l-8.9-2.1l-13.9-2.8l-6.8-1.3l-15.2-3.2
		l-14.6-3l-8.8-2l-12.6-2.7l-7.8-2.1l-23.2-7.8l-3.7-1.1l-1.1-0.3l-1.8-0.3l-27.9-4.5l-6.2-1l-7.8-0.5l-19.8-0.6l-8.4-0.6l-9.1-0.1
		l-18.5,0.7l-8.3-0.1l-9.9-1.4l-13.8-2.4l-12.2-1.6l-16.5-5.5l-4.2-1.3l-15.2-4.9l-6.8-3.5l-13.4-6.8l-10.6-5.1l-5.1-2.2l-14.1-6.7
		l-5.2-2.6l-16.6-7.6l-7.9-3.8l-12.9-7.9l-8.3-6.7l-6.7-4.2l-17.5-7.5l-1.4-0.6l-17-7l-6.4-3.6l-10-6.4l-11.2-8.3l-8.3-7.1
		l-12.4-8.2l-18.9-12.4l-2.5-2.2l-2.2-1.8l-6.6-2.7l-16.5-6.1l-12.7-5.7l-8.4-9l-8.7-8.4l-9.9-8.9l-8.9-7.7l-10.3-9l-11.3-10.3
		l-8.3-6l-6-5.3l-15.9-8.8l-17.7-15.9l-1.3-1l-1-0.9l-16.5-17.5l-13.4-16.5l-3.5-2.7l-2.7-2.3l-16.6-11.7l-1.6-1.1l-17.7-16.3
		l-1-0.9l-0.9-1l-21-13l-13-9.3l-8.4-5.3l-11.7-8.4l-10.3-5.5l-5.5-2.9l-16.9-8.5l-1.4-0.6l-17.6-9.9l-5.3-3.1l-6-5.3l-11.5-13.1
		l-13.1-12.9l-6-3.9l-9.2-6l-12.2-8.5l-8.5-7l-11.3-9.2l-11.4-11.3l-6.2-7l-7-5.3l-16.6-7.1l-5.6-2.9l-13.7-6.6l-5.5-1.6l-16.5-5.5
		l-10.5-3.5l-3.5-1.6l-4.5,0.5l-30.9,4.5l-0.5,0.1l-0.1,0l-0.1,0l-27.8,7.9l-8,2.3l-17,8.6l-5.4,3.4l-13.6,8.2l-3.4,2l-4.8,3.4
		l-19.6,8l-8,4.2l-15.8,7.9l-17,15.8l-1.9,1.2l-1.2,1l-10.7,8.5l-8.2,6.4l-17.1,14.7l-2.5,1.6l-3.5,2.5l-20.1,9.8l-9.8,5.2
		l-13.1,7.8l-20.9,13.1l-1.1,0.9l-0.9,0.8l-16.6,17.6l-16,16.6l-1.5,1.9l-1.9,2l-15,17.1l-8.8,15l-6.1,6l-6,5.2l-15.4,9.3l-11.5,6.4
		l-9,5.1l-4-0.1l-29.9,2l-2.1-0.1l-1.6,0.5l-5.7,1.6l-18.3,10.3l-10.3,8.9l-16.3,0.4l-2.4-1l-17.2,0.2l-12.6,4.4l-14.1,3.4l-9.2,2.8
		l-3.5,3l-4,3.5l-13.8,14.7l-14.7,8.5l-9.2,3.6l-23.4,9.2l-2.3,0.9l-0.9,0.4l-3.6,2.2l-18.2,10.6l-14.1,11.3l-6,4.5l-14.9,6
		l-11.4,3.5l-3.5,1.2l-8.2,3.4l-13.9,5.7l-13.9,5.9l-9.2,6.9l-13.9,9.2l-7.2,5.7l-5.7,4l-15.7,10.5l-11.7,7.2l-8.5,5.3l-2.1,1.1
		l-3.5,2.1l-18.5,11.8l-11.8,8l-12.9,3.1l-13.2,3.1l-9.8,2.4l-6.3,1.1l-28.4,5.2l-1.2,0.2l-0.8,0.2l-2.2,0.8l-23.4,9.6l-9.6,4.2
		l-17,5.1l-3.1,1.2l-15.8,5.3l-6.9,3.6l-14.2,6.9l-10.4,4.5l-4.5,0.9l-5.8,0.4l-19.6,4.8l-10.5,0.5l-10-1.1l-19.1-3.1l-6.8-0.8
		l-5.2-0.8l-24.6-5.2l-4.6-1.5l-1.5-0.5l-4.5-2.5l-17.6-9.3l-13.8-9l-7.3-5.9l-8.7-7.3l-10.4-9.5l-9.5-7.2l-13.3-6l-15.3-6l-7.3-3
		l-2.2-2.1l-2.2-2.2l-18.5-13l-13-8.2l-7.9-6.8l-11.1-7.9l-10.5-6.3l-6.3-2.6l-17.8-9.2l-0.7-0.4l-17.4-9.8l-5.2-2.5l-8.3-5.2
		l-14.5-8l-8-3.1l-17.7-7.1l-0.7-0.3l-17.4-7.4l-6.8-3.2l-12.8-6.8l-11-5.3l-5.3-2.9l-14.6-6.4l-4.8-2l-16.5-8.1l-8.1-3.1l-18.5-8.1
		l-6.5-2.7l-2.7-1.1l-5-1.1L831,2362l-9.2-2.3l-17.2-5.8l-1.1-0.3l-17.6-6.3l-7.2-4.9l-10.3-7.2l-9.5-9l-9-9.2l-9.2-8.5l-9-9.2
		l-7.6-10.1l-10.1-14.8l-4-7.1l-2.1-4l-2.8-8.9l-4.8-13.5l-4-13.6l-2.9-15.5l-1-6l-2.6-14.5l-3.3-8.6l-8.5-27.3l0-0.1l0,0l0-0.1
		l-12.9-22.9l-7.8-12.9l-6.1-9.1l-9.1-11.9l-7.4-7.5l-7.8-7.4l-9.3-11.5l-11.5-14l-3.5-6.9l-1.6-3.5l-1.2-6.4l-3.9-19.3l-2-10.3
		l-3.7-16l-0.8-3.2l-3.8-16.7l-3.5-11.9l-4.6-16.7l-2.1-7.3l-1.5-3.8l-3.8-11.5l-4.8-15.8l-1.3-4.8l-1.3-7.5l-3.8-17.1l-1.8-11.3
		l-2.1-15.2l-0.7-4.7l-2.2-16l-2.1-15.7l-0.6-5.1l-1.9-15.1l-1.9-11.3l-3.3-16.6l-1.4-8l-1.2-5.4l-5.4-15.9l-4.1-10.5l-1.5-4.1
		l-0.7-6.3l-1.9-21.5l-1-8.2l-0.2-9.3l-0.4-16.9l-0.2-9.7l-0.1-10l-0.7-15.2l-0.1-10.7l0.2-10.7l-0.5-14.1l0.1-11.1l-1.2-12.2
		l-1.1-10.4l-1.3-13.3l0-14.5l0.2-7l0-14.4l2.7-11.7l6.7-19.2l1.4-5l0.6-3l3-12.9l3.1-16.9l0.6-3.1l0.4-4.1l2.1-25.7l0.6-6.2l1-7.8
		l1.8-18.6l1.3-9.6l0.2-11l-0.4-14.2l0.2-10.6l-1.1-9.8l-2.5-18.9l-0.8-7.3l0.5-6.9l1.3-20.8l0.6-8.2l2.5-11.3l2.2-11.1l3.2-13.5
		l5.4-13.8l5.6-13.9l3.3-8.2l1.7-3.2l3.2-6.2l9-17.5l4.7-9l6-16.2l2.4-5.9l5.3-13.8l2.4-6l6-13.5l4.8-11.6l2-4.8l3.4-10.3l3.6-11.7
		l5-13.9l4.6-12.4l8.5-19.6l1.6-3.9l0.8-1.5l1.5-2.4l12.6-19.4l9.6-12.6l6.1-7.6l7.6-7l10.4-11l8.2-10.4l8-9.3l9.3-10.1l8.4-8.1
		l9.2-8.4l9.2-9.1l9.1-8.5l12.1-6.2l23.6-11.8l0.3-0.1l0.1-0.1l0.1-0.1l0.3-0.4l14.1-21l7.7-14.5l5.2-8.5l8.5-17.9l3-6.5l1.3-3
		l7-11.3l5.2-8.2l9-16.5l3.5-6.9l6.9-12.5l7.4-9.1l6.6-7.4l9.3-12.5l12.5-17.5l2.7-3.3l2.1-2.7l15.6-15.5l15.5-12.5l5.3-2.5
		l23.6-5.3l5.5-1.5l1.5-0.1l2-0.4l25.3-6.6l8.6-1.3l16-10l18.8-16l0.6-0.6l0.6-0.5l3.4-2.2l17.3-11.9l15.3-8.6l9.2-2.9l24.8-7.2
		l2-0.6l1.1-0.2l5.4-1.1l23.2-6.2l6.2-1.8l13.1-5.1l7.4-2.3l15.4-7.9l12.3-0.3l11.3,0l12.3-0.3l11.2-0.8l12.5,1l12.2-0.7l7.6-4
		l12.2-7.6l7.9-8.2l8.2-4.7l14.9-8.1l7.5-1.3l13.6-4.5l8.2-0.8l23.4-3.9l4.3-0.5l3.6-0.3l31.1-3.6l1.2-0.1l0.1,0l0.2,0l28.9-6.7
		l6.9-1.5l9.4-1l15-2.1l11.5-1.2l10.7,2l15.3,0.8l10,1.5l8,0.5l20.5,0.6l7.4,0.4l6.1,0.8l27.7,4.1l2,0.3l1.5,0.3l7.7,1.5l22.8,4
		l4,0.5l5.2,0.8l22.2,3.2l8.5,1.3l11.9,2.2l9.8,2.3l14.2,2.3l15.7,3.7l5.4,1l14.8,3.2l10,1.7l20.5,4.5l5.4,1l3.9,0.5l22.4,3.9
		l8.2,1.5l1.5,0.3l2.2,0.3l27.8,3.7l5.9,1l8.1,1.2l17,2.6l10.7,1.6l16.3,3.9l2.7,0.7l17,3.9l13.1,2l11.7,2l11.1,1.7l8,1.3l25.2,5.3
		l2.7,0.5l2,0.2l11.2,2l19.2,3.5l3.5,0.8l5,0.8l23,2.8l7.8,1.3l15.2,6.1l3.9,1.6l16.8,6.9l8.6,3.7l17.3,8.6l6.2,3.9l3.9,2.7
		l14.8,14.5l15.4,14.8l3.1,2.5l2.5,1.8l9.2,4.9l11.5,6l15.2,8.5l10.3,1.9l19.7,4.4l6,1.2l4.1,0.7l14.6,4.1l13.9,3.4l3.4,1.1l6.9,2.5
		l16.6,5.5l12.4,4.8l14.2,4.5l13,5.5l8.7,3.2l3.6,1.9l4.3,3.6l13.2,14.8l14.8,19.4l0.7,1l0.5,0.7l1.7,3l10.2,19.7l10.1,13.2
		l1.3,11.3L2402,821l2.5,3.3l4,2.5l0.8,7.3l-7.3,3.1l-16.1,5.6l-2.2,1.6l-17.7,1.7l-11,5.6L2334,859l-3.8,1.5l-1.3,1l-1.4,1.3l0.7,2
		l2,6.2l12.4,15.3l8.3,12.4l10.2,5l5,4.7l15.2,11.1l3.8,15.2l-5.7,13.4l-0.7,9.8l-3.2,12.7l0.7,10.2l1.8,13.8l0.7,11.9l10.2,13
		l13,15.1l4.9,2.8l8.4,4.9l16.2,6.4l6.4,2.3l8.7,0l19.7-1.2l7.5,0l6.4-1.1l23.2-6.4l4-2.3l2.3-2.1l6-1.6l15.5-8.4l14.4-1.7l17.6-1.5
		l0.5-0.1l17.7-1.3l12.8-4.1l22.8-12.8l0.2-0.2l0.2-0.1l0.3-0.1l27.4-7.9l8.2-1.8l12.1-2.2l9.7-2l14.1-2.3l16.9-2.5l2.3-0.2
		l16.7-2.3l12-2.4l14.5-2.5l9.4-1.8l4.9-2.7l9.8-4.9l13.2-7.9l7.9-5.1l14.8-8.1l12.6-6.3L2833,938.7"/>
</g>
<g id="Layer_3">
	<line class="st2" x1="1197.8" y1="327.6" x2="1197.8" y2="2940.7"/>
	<text transform="matrix(1 0 0 1 2339.5293 1554.9091)" class="st3 st4 st5">5 </text>
	<text transform="matrix(1 0 0 1 1150.7227 3081.5403)" class="st3 st4 st5">3</text>
	<line class="st2" x1="368.7" y1="1580.2" x2="4623" y2="1580.2"/>
</g>
</svg>
