<?xml version="1.0" encoding="utf-8"?>
<!-- Generator: Adobe Illustrator 21.1.0, SVG Export Plug-In . SVG Version: 6.00 Build 0)  -->
<svg version="1.1" xmlns="http://www.w3.org/2000/svg" xmlns:xlink="http://www.w3.org/1999/xlink" x="0px" y="0px"
	 viewBox="0 0 5053.5 3253.8" style="enable-background:new 0 0 5053.5 3253.8;" xml:space="preserve">
<style type="text/css">
	.st0{fill:#FFFFFF;}
	.st1{fill:none;stroke:#000000;stroke-width:2.6603;stroke-miterlimit:10;}
	.st2{fill:#ED1C24;stroke:#ED1C24;stroke-width:5;stroke-miterlimit:10;}
	.st3{fill:#ED1C24;stroke:#ED1C24;stroke-miterlimit:10;}
	.st4{font-family:'InputMono-Regular';}
	.st5{font-size:122.337px;}
</style>
<g id="Layer_2">
	<g>
		<g id="aLreVX.tif">
			
				<image style="overflow:visible;" width="1080" height="1080" id="Layer_0_3_" xlink:href="A2B78C26FFD77BC8.png"  transform="matrix(-0.4493 0.8889 -0.9461 -0.4303 4293.6631 1651.2758)">
			</image>
		</g>
		<polygon class="st0" points="3704,3006.4 4131.4,2171.5 3039,1668.3 2611.6,2503.2 		"/>
	</g>
	<g>
		<g id="aLreVX.tif_1_">
			
				<image style="overflow:visible;" width="1080" height="1080" id="Layer_0_1_" xlink:href="A2B78C26FFD77BC9.png"  transform="matrix(-0.9155 -0.3923 0.3698 -0.9713 1772.0217 2296.2271)">
			</image>
		</g>
		<polygon class="st0" points="1253.3,2131.3 2113.5,2505.3 2546.7,1383.3 1686.6,1009.3 		"/>
	</g>
</g>
<g id="Layer_1">
	<path class="st1" d="M2425.3,777.1l1.1,1.3l1.3,0.4l0.5-1.3l0.2-0.5l-0.2-0.5l-0.5-0.9l-2-0.6L2425.3,777.1"/>
	<path class="st1" d="M1310.4,778.8l1.3-0.4l6.1-1.3l25.3-7.2l7.2-1.6l10.6-1.8l15.9-2.8l13.4-2.3l16.9-1.3l5.5-0.5l17.4-1.3
		l17.8,0.9l4.5,0.1l17.6,0.9l14.9,1.9l12.2,2l12.9,1.8l9.2,1.9l30.1,8.6l0.6,0.1l0.4,0.1l0.8,0.4l29.3,9.5l9.5,4.1l18.3,8.1l8,4.6
		l13.7,7.3l4.4,2l7.2,4.4l19.1,9.3l9.3,6.5l14.3,9.7l16.3,14.3l5.2,4l4,4.4l16,15.4l14,16l5,4.9l4.9,6.2l14.4,14.4l11.6,14.4
		l6.3,7.6l7.6,12.6l8.2,11.5l4.7,8.2l9.3,17.7l2.8,7.2l6.5,14.9l2.4,6.1l6.1,20.4l3.8,9.7l1.2,3.8l2,7l6.3,19.6l3.5,13.3l3.2,20l0,0
		l3,20l1.6,15.4l0.9,10l1.4,14.5l0.5,12.5l0.6,15.4l0.5,11.9l-0.3,11.8l-0.1,16.2l-0.3,11.9l-1.2,13.4l-0.7,12.3l-1.3,14.2l-1.5,17
		l-0.3,5.6l-1.6,17.4l-2.6,18.4l-0.7,3.8l-2.6,17.7l-2.5,12.6l-4.7,19.4l-1.7,7.9l-0.8,5.4l-5.4,29.7l-0.6,4.1l-0.1,0.6l-0.2,0.9
		l-4.8,33.4l-1.1,5.6l-2.2,9l-4.1,17.8l-3.4,13.1l-5.7,17.7l-2.3,6.7l-5.1,15.4l-2.6,7.7l-7.7,21.3l-2.5,8.4l-0.8,2.5l-1.5,4.9
		l-6.9,23.3l-3.8,11.7l-4.7,19.7l-0.2,0.8l-5,19.4l-3,11.5l-7.8,24.7l-1.1,3.7l-0.8,1.9l-1.9,4.1l-9.3,24.6l-3.8,9.3l-7.7,19.1
		l-1.4,3.1l-7.6,17.7l-2.8,7.3l-7.3,16.5l-4.4,11.7l-2,4.4l-5.1,11.5l-4.9,11.9l-8.3,16.5l-5.5,9.7l-9.7,14.6l-5.6,10l-3.7,5.6
		l-11.6,19l-4.9,6.8l-9.9,14.1l-1.7,2.6l-2.6,3.5l-14,19.9l-12,14l-6.5,7.4l-7.4,7.3l-11.7,13.5l-12.5,11.7l-7.9,7.8l-7.8,6.4
		l-13,12.8l-16.6,13l-5.6,4.7l-4.7,3.2l-19.2,12.8l-3.2,1.7l-17.6,9.9l-4.9,2.8l-10.8,4.9l-15.5,8.7l-8.7,4.4l-17.7,9.1l-7.5,3.1
		l-14.7,6.6l-5.7,2.4l-16.6,5.7l-12.4,5.3l-5.3,1.6l-8.6,1.7l-18.3,4.5l-13.1,2.4l-17.2,1.8l-4.8,0.6l-17.9,1.7l-19,1.3l-2,0.1
		l-18.9,1.3l-17.9-0.2l-4.1,0l-17.9-0.2l-19.2-2.5l-1.8-0.3l-18.9-2.6l-13.5-2.9l-17.4-4.5l-9-2.1l-5.5-1.4l-17.4-5.5l-13.8-3.2
		l-3.2-1l-6.6-2.3l-20.4-6.4l-12.9-5.2l-14.9-6.9l-24.4-14.3l-0.6-0.3l-0.2-0.1l-0.3-0.2l-25-14.5l-14.5-11.2l-8.3-5.9l-9.1-8.3
		l-12.8-9.7l-9.7-9.8l-10.8-9.6L891,2054l-9.6-10l-10-13.7l-7.5-8.7l-5.1-7.5l-11.8-15.5l-15.5-24.1l-0.2-0.2l-0.1-0.2l-0.4-0.7
		l-15-23.5l-8.2-15.7l-4.8-11.1l-9.7-27.3l-0.6-1.4l-0.2-0.6l-0.6-2l-10.9-26.4l-4-10.9l-5.6-19.5l-0.3-1.3l-5.2-19.1l-2.1-11.8
		l-2.9-19.3l-1.5-8.9l-0.6-6.8l-1.7-28l-0.4-5.1l-0.1-4.7l0-30.6l-0.1-4.7l0.1-4.7l0.7-29.7l0.1-5.5l0.3-5.9l0.3-27.9l0.3-6.1
		l0.8-7.3l1.6-23.8l1.1-8.8l1.9-11.8l1.9-14.3l2.4-13.7l4.9-18.8l1-3.3l5-17.8l3.5-9.3l9.3-21.3l2.4-6.9l1-2.4l2.7-6.1l8-19.7
		l6.9-14.1l6.4-12.5l12.5-20.7l2.2-4.5l1.2-2.2l3-6.4l8.3-18.9l7.6-14.7l5.6-12l12-22.4l1.7-3.7l1-1.7l3.4-6l9.7-18.1l9.6-15.7
		l5.2-9.4l9.4-15.2l5.4-9.9l3.2-5.4l10.5-19.2l0.5-1l11.9-19.7l2.9-5.3l5.3-8.5l9.1-17l5.4-9.1l9.3-16.1l14.8-22.5l0.8-1.3l0.2-0.3
		l0.3-0.5l13-26.2l7.5-13l6.6-12.8l12.8-19.5l2.5-5.1l1.5-2.5l6.3-10.3l7.1-12.2l12.2-17.4l4.2-6.1l6.1-7.4l10.4-16.1l8.2-10.4
		l9.3-12l12-12.2l7.2-8.5l7.9-7.2l12.2-12.6l12.6-10.6l8.6-8.2l11.4-8.6l10.8-9.1l9.1-6.1l14.3-10.4l24.7-14.3l0.5-0.4l0.4-0.2
		l1.4-0.8l22.9-14.2l15.6-7.8l11.4-5.1l25.6-8.6L1310.4,778.8"/>
	<path class="st1" d="M1310.4,861.3l-8.6,4.2l-15.9,6.8l-15.4,9.6l-9.3,5.6l-11.6,9.3l-11.8,7.2l-7.2,6.6l-14.9,11.2l-14.8,14.9
		l-5.5,4.7l-4.7,6l-14.6,14.6l-11,14.6l-6.4,7.8l-7.8,13.5l-8.1,10.5l-4.9,8.1l-10.2,16.8l-5.7,12l-5.7,11.1l-1.7,3.7l-3.7,9.6
		l-9.1,17.5l-4.1,9.1l-7.9,18.7l-1.6,4l-6.9,17.2l-2.7,7.5l-7.5,21.9l-3.3,7.2l-1.4,3.3l-4,8.7l-7.2,15.3l-7.2,15.9l-6,10.8
		l-10.8,21.3l-2.9,4.8l-1.6,2.9l-7.4,11.9l-6.4,9.8l-10,18.2l-4.8,7l-7,11.6l-8.9,12.4l-5.4,8.9l-10.5,15l-12.9,22.8l-1.2,2.1
		l-0.3,0.5l-0.5,1.1l-14.1,24.2l-7.1,14.1l-6.6,12l-12,27.1l-0.3,0.5l-0.1,0.3l-0.3,0.7l-12.9,25.6l-5.7,13.6l-5.9,14.7l-4.7,15.2
		l-3.5,10l-1.6,4.9l-4.9,19.8l-3.6,11.6l-0.9,3.6l-1.4,5.9l-6,22.2l-2.5,11.8l-3,17.3l-0.9,4.3l-2.9,18.2l-1.2,17.6l-0.1,4.9
		l-1.1,17.4l0,16.3l0.1,7.2l0,16.4l1.2,17.5l0.3,4.5l1.2,17.8l2.8,18.1l0.8,4.6l2.8,17.3l3,11.5l8.2,25l1,3.4l0.6,1.8l1.8,4.1
		l8.3,25.8l3.5,8.3l8.8,19.4l1.5,2.6l9.7,17.9l3,5.2l5.2,7.2l9.9,17.6l7.7,9.9l9.3,13l13,13.9l5.7,7.3l6.4,5.7l13.7,14l14,10.8
		l8.2,6.9l13.8,8.2l10.3,7.7l7.7,4.5l17.5,10.1l8.2,3.3l14.2,6.6l5.3,2.3l17.6,5.3l12.1,4.9l4.9,1.5l8.4,2l18.1,5l13.4,3l18.6,2.2
		l2.3,0.3l19,2.2l18.9-0.2l2,0l18.9-0.2l18.7-2.1l2.9-0.4l18.3-2.2l13.5-2.6l17.7-4.7l8.8-1.9l5.3-1.6l13.3-5.3l16.7-4.7l4.7-1.9
		l11.4-4.9l12.5-4.5l16-8.5l10.2-5.3l14.7-10.2l9.7-5.3l5.3-4.1l18.4-12.1l20.9-18.4l0.4-0.3l0.3-0.3l5.3-4.8l15.5-13.7l7.9-9.7
		l9.3-11.1l0.9-0.9l0.9-1.4l17.2-20.4l11.6-17.2l4.7-6.3l6.3-10.2l10.4-12.9l6.8-10.4l8.8-13.9l11.9-23.9l1.1-2l0.3-0.6l0.6-1.5
		l13.1-24.6l5.8-13.1l6.3-14.7l5.6-16l3.5-9.2l1.5-4.2l4.2-14.6l5.8-15.4l2-5.8l3.9-11.6l4.4-12.3l4.9-16l4.1-14.8l3.2-13.5l3-11.6
		l1.7-6.8l6.8-27.9l1.2-4l0.4-1.2l0.6-2.2l7.6-28l2.6-9.8l3.3-15.6l1.5-7.1l3.5-17.2l3.6-15.6l2.4-11l3-13.3l2.1-8.3l6.8-30.2
		l0.3-1.4l0.3-0.8l0.8-2.9l9.1-27.1l2.5-9.1l6-17.6l1.3-3.4l5.5-18.9l3.9-11.6l6.2-22.9l1.6-5.4l0.9-2.9l2.9-11.5l5.9-19.7l1.4-5.9
		l1.6-8.9l4.1-18l2.2-13l1.9-17l0.7-5.2l1.8-17.7l0.1-19.6l0-0.6l0.1-19.6l-1.6-18.2l-0.4-3.9l-1.5-17.8l-2.5-13.8l-3.4-15.7
		l-2-10.4l-1.9-6.5l-6.5-17.9l-3.2-12.3l-1.1-3.2l-3.2-7.5l-6.7-18.2l-7.3-14.2l-6.6-11.8l-11.8-15.8l-4.3-8l-3.3-4.3l-13.6-18.7
		l-18.7-19l-1-1.3l-1.1-1l-18.1-19.7l-19.7-15.4l-2.4-2.3l-3.9-2.4l-18.6-14.9l-14.9-8.6l-10.4-5.9l-27.1-10.4l-1.5-0.8l-0.8-0.3
		l-1.6-0.5l-27.1-9.5l-11.2-3.1l-17.3-3l-4.5-0.9l-18.2-3l-17.9-0.8l-4.2-0.1l-17.8-0.8l-18.6,1.6l-2.6,0.2l-18.7,1.7l-16.2,3.2
		l-10.1,2.7l-13.6,3l-8,2.5l-18.9,8l-9.9,3L1310.4,861.3"/>
	<path class="st1" d="M1159.3,2045.5l25.5,2.7l5.8,0.8l5.1-0.1l29.5-0.2l5.3-0.1l6.4-1l24.3-2.8l9.2-1.6l15.2-4.4l7.7-1.7l16.9-5.8
		l12.2-4.9l21.9-12.2l4.1-1.6l1.6-1.1l6.6-3.9l17.4-9.3l15.9-12.8l6.7-4.6l7.1-6.7l14.5-11.7l11.7-14.2l7.2-6.8l5.6-7.2l12.4-14.7
		l14.7-24.3l0.4-0.5l0.3-0.4l1.2-1.9l14.7-21.5l9-16.6l5-9.3l9.3-22.1l3.1-5.4l1.4-3.1l3.8-8.3l7.6-15.7l6.4-15.9l4.8-12.7l6.3-20.7
		l2.2-6.5l1-3.3l3.3-13.5l5.6-17.5l1.5-5.6l2.3-9.5l4.4-16.5l3.2-13.9l3.7-19.1l0.4-2.1l3.5-18.7l1.8-13.4l2-15.1l1.5-11.4l0.6-9.3
		l2.1-23.4l0.5-7.2l0.4-6.2l3.1-30.6l0.2-3.1l0.4-2.5l2.5-15l3.9-18.5l0.8-3.9l2.5-7.2l6.8-18.7l4.6-14l7.4-13.9l8.9-21l2.3-5
		l1.1-1.6l1.6-3.2l13.1-22l5.9-13.1l7.6-13.3l7.7-21l2.4-5.6l1.1-2.1l2.1-6.6l9.5-21.8l2.9-9.5l4.6-17l1.5-4.5l4.2-18.5l2-15.2
		l0.7-10.2l1.7-14.5l-0.3-13.1l-0.5-13.3l-0.3-13.5l-3-16.8l-0.8-5.4l-3.3-17.7l-4.5-14.4l-8.1-19.2l-2.3-6.3l-1.2-2.7l-2.7-4.5
		l-9.6-23.1l-6.3-9.6l-9.4-14.6l-14.6-15.9l-3.7-5.6l-4.2-3.7l-15.1-16.8l-16.8-13l-5.4-4.8l-10-5.4l-14-10.5l-10.5-5.5l-16.3-7.5
		l-10.1-2.9l-13.4-4.9l-6.9-1.7l-31-4.8l-2-0.4l-1.5-0.1l-38.2-1.3l-0.2,0l-0.2,0l-36.3,3.1l-3.4,0.5l-5.3,1.5l-24,5.2l-10.5,3.6
		l-18,7.7l-9.9,6.1l-12,6.7l-3.4,1.9l-4.4,3.4l-20.6,11.4l-11.4,10.6l-10.1,7.7l-9.2,10.1l-10.8,9.8l-9.8,14.5l-7.6,8.1l-5,7.6
		l-11.1,16.2l-6.5,14.1l-5.1,9.7l-1.4,3.1l-3.1,9.8l-8.9,18.1l-3.5,8.9l-5.5,17.9l-1,3.1l-5.4,18.9l-2.4,13.2l-3.1,16.6l-1.9,10.1
		l-0.9,7.3l-5.1,30.5l-0.3,2.1l-0.3,1.6l-1.6,6.1l-8.1,24.1l-2.9,8.1l-9.6,19.3l-1.3,2.6l-8.9,18l-3.9,5.2l-5.2,8.2l-11.4,15
		l-7.4,11.4l-10,11.1l-11.1,16.2l-5.7,6.9l-3.8,5.7l-14,16.4l-11.5,18.6l-3.2,4.9l-0.6,1l-1,1.6l-15.5,21.8l-8.3,15.5l-6,10.1
		l-10.1,22.8l-2.6,4.4l-1.2,2.6l-3.5,7.3l-8.6,16.7l-6.5,15.9l-5.1,12.4l-6.8,21.8l-2,5.6l-0.9,2.7l-2.7,10.1l-7,20.1l-2,7l-3,12
		l-3.6,12.4l-3.5,15.5l-3,17.9l-0.5,4.7l-2.7,17.3l-1.2,13.5l-0.7,13.7l-1,12.8l0.2,11.9l0.4,15.7l0.2,12.3l2,14.6l1.2,9.6l2.3,15.7
		l4.6,17.2l2.6,8.1l4.3,14.6l2.8,7.5l7.5,15.4l4.3,12.7l2.2,4.3l8.2,14.7l3.5,7l13.4,18.2l3.4,4.9l4.9,5.2l12.7,17.1l14.9,12.7
		l6,6.3l6.3,4.7l15.6,13.4l19.2,10.4l5.1,3.1l1.2,0.8l3,1.2l22.5,13.1l13.1,5.4l16,5.4l10.2,2.3l13.7,3.9L1159.3,2045.5"/>
	<path class="st1" d="M3759.7,2118.7l-15.1-4.1l-16.1-4.6l-12.2-4.5l-11.6-3.8l-5.9-2l-14-5.9l-15.2-4.9l-4.9-2.2l-13-5.9l-10-4
		l-17-9.4l-8.9-4.6l-13.5-8.9l-11.6-5.9l-5.9-4.3l-18.7-11l-10.9-8.4l-10.3-7.6l-1.7-1l-2.1-1.7l-21.7-14.4l-14.4-12.9l-7.5-5
		l-9.5-7.5l-13.6-9.3l-9.3-7.7l-14.8-8.1l-24.5-14.2l-0.6-0.4l-0.2-0.1l-0.5-0.2l-30.3-8.9l-8.9-2.2l-13.5-2.4l-10.7-2.3l-15.7-2.5
		l-18.4-3.3l-3.8-0.6l-17.8-3.1l-12-2.7l-21.2-5.2l-6.8-1.6l-3.9-1.3l-10-3.9l-20.7-5.3l-5.3-1.8l-12.3-5.3l-11.1-4.2l-16.5-8.6
		l-9.5-5.3l-12.5-9.5l-11.7-6.3l-6.3-5.3l-16-12.3l-14.4-16l-5-4.5l-4.5-6.7l-13.4-15.3l-8.1-13.4l-7.2-11.3l-10.7-28.1l-0.2-0.5
		l-0.1-0.2l-0.2-0.8l-10.7-28.2l-2.9-10.7l-2.4-15.9l-1.3-6.7l-2.4-17.2l0.3-19.3l0-1.2l0.2-19.3l2.6-16.5l1.9-8.9l2.6-14.5l2.7-9.2
		l9.2-21.5l2-7.2l0.9-2l3-5.9l8.4-19.6l10.2-14.4l6.1-9.3l9.3-9.8l8.6-12.2l10.3-8.6l10.1-10.8l10.8-8l11.5-9.5l23.1-11.5l3.1-2.2
		l2.2-1.1l6.2-2.9l18-9.5l15.7-6l14.4-3.8l13.7-2.6l11.8-2.8l8.3-0.7l25.1-1.9l6.5-0.5l6.2,0.3l27.2,0.3l6.5,0.4l8.5,1.6l20.4,2.5
		l11,2.4l19.4,5.9l0.9,0.2l19.6,7.4l9.4,3.5l18,9.4l8.9,3.5l3.5,2.2l11.5,5.8l11.7,5.1l16.6,10.9l8.5,3.9l14.2,8.5l11.4,5.8l5.8,3.8
		l15.3,5.7l6.9,2.4l17.7,7l12.5,2.7l18.8,3.8l8.6,1.8l6.1,0.7l29.9,2.2l3.9,0.4l3.3,0.2l34.8,1.5l1.8,0.1l1.5,0.1l23.9,1.5l13.8,0.6
		l0.6,0l0.7,0.1l35.4,3.1l3.8,0.3l4.9,0.8l26.3,3.8l8.7,1.5l13.1,2.9l11.5,2.2l15.3,3.7l16.1,4.8l12.2,4.5l11.6,3.9l5.7,2.1
		l12.4,5.7l16.4,5.4l5.4,2.4l14.3,6.5l8.1,3.3l17.6,9.4l8.4,4.6l12.1,8.4l13,6.5l6.5,4.5l17.3,11.6l19.4,17.3l1.9,1.3l1.3,1.3
		l19.9,17.4l0,0l0,0l16.6,19.9l1.7,1.7l1.7,2.5l16.2,19.5l9.6,16.2l5.5,8.5l8.5,20.8l3.8,6.7l1.6,3.8l3.2,8.6l6.8,16l4.7,15.3
		l3.5,16.4l1.2,8.4l2.9,15.2l0.7,11.7l0.6,17.2l0.6,11.1l-1,11.5l-1.1,15.8l-1.2,12.6l-4,17.8l-0.6,3.7l-4.7,18.4l-4.6,12.2
		l-12.2,24.1l-0.9,2.7l-0.5,0.9l-1.9,3.3l-11.1,22.1l-11.1,14.4l-5.9,8.5l-8.5,8.9l-9.9,12.7l-12.2,9.9l-8.8,9l-9,6.6l-13.4,10.8
		l-25.6,13.4l-0.5,0.4l-0.4,0.2l-1.1,0.5l-24.4,13.3l-14.4,5.9l-14.7,4.8l-13.7,3.3l-11.4,3.3l-7.1,1.1l-29.3,3.5l-3.6,0.5l-3,0.1
		l-35,1l-1.9,0l-2.1-0.2l-34.1-1.7l-3.8-0.3l-4.9-0.8l-26.7-3.4l-8.3-1.6l-12.9-3L3759.7,2118.7"/>
	<path class="st1" d="M1470,2957.2l11.8,2.8l24.5,11.8l2.5,1.1l1.1,0.5l1.4-0.2l9.5-1.4l22.8-6.2l6.2-6.5l10.1-17.1l9.2-10.1
		l1.7-18.9l1.3-3.5l2.7-17.6l7.5-7.3l7.3-32.5l0,0l0,0l0,0l19-20.8l10.4-19l6.5-4l4-2.3l15-8.7l6.7-3.2l18.2-17.8l2.4-1.6l2.3-2.4
		l0.6-5.3l4.4-24.9l0.9-9.7l11.9-17.4l17.4-15.8l4.4-2.3l10.1-4.4l21-4.4l4.4-1.5l5.6,0.3l31.6,2.8l2.7,0.2l2.2,0.3l15.7,2.2l18,3.9
		l3.9,1.7l2.9-2.8l3.2-2.9l22.7-11.1l11.1-5.1l14.7-8.9l20.9-10.5l4.2-2.2l2,0.1l14.7-2l21-2.2l2.2-2.7l13-22l-0.6-13l2.3-14.7
		l1.2-9.4l2.6-15.9l7.4-14l14-16.8l5.3-3.8l9.6-5.3l17.2-7.7l7.7-4.3l19.4-8.4l2.4-1.4l18.1-9.5l4.7-3.9l6.2-4.7l17.3-11.7l11.7-8.7
		l9.7-9.8l9.2-9.7l8.9-12.1l12.1-20.8l2.1-4.9l1.1-2.1l4.5-7.7l8.9-15.6l10.3-16.6l6.5-6.5l6.5-6.8l13.3-13.3l14-13.3l7.3-5.3
		l5.3-3.3l15.4-6.9l6.1-2.9l18.3-7.3l14.2-0.1l11.8-0.2l13.9-0.1l18.6,4.7l2.2,0.5l19.1,5.3l12.2,3.3l22.4,6.9l5.3,1.5l2.8,1
		l7.2,2.8l17,12.9l12.9,23.4l1.2,2.4l0.8,1.2l6.3,8.3l10,13.3l14.5,18.3l3,4.2l4.2,5.8l11.9,18l8.7,11.9l4.9,14.4l6.3,17.4l2.8,8.1
		l1.3,3.9l3.9,12.4l10.5,13l25.4,10.5l2.2,1.8l1.8,6.5l4.8,26.8l0.6,4.8l-0.7,4.7l-4.7,26.8l-1.2,7.3l0,1.2l0.3,0.9l0.9,2.1
		l13.9,23.1l13.3,13.9l8.5,4.3l4.3,1.7l6.7,0.6l22,4.5l11.2,0.8l9.1-3l29.1-7.3l1.8-0.5l1.4,0.2l33.1,3.9l5.3,0.7l8,2l19,4.9
		l12.9,3.1l19.2,3.2l1.3,0.2l19.4,3.3l13.1,4.2l18.2,4.5l8.6,2.5l4.7,1.4l20.3,4.8l10.1,4.7l4.7,3.1l12.1,4.3l10,5.7l17.8,3.2
		l12.9,6.1l19.6,5.4l7.4,2.7l2.9,1.8l3.3,2.9l16.5,17.2l17.2,13.9l6.1,2.7l15,6.1l14.2,4.6l4.6,1.4l8.2,2.2l23,0.6l8.7,4.7l19.8,6.4
		l0.2,0.1l19.9,4.5l13,2.5l12.2-1.7l14.7,1.6l9.9,3.2l29.7,9.6l0.3,0.1l0.2,0l0.5,0.2l27.9,11.4l11.4,5l18.9,4.6l3.2,1.2l17.7,5.3
		l9.3,3.1l19.8,9.3l6.1,4.7l4.7,6.6l15.6,4.3l6.7,2.1l17.6,4.4l12.5,5.4l22.2,7.3l5.2,1.9l1.9,1.4l3.4,1.9l19.2,15.4l15.4,7.6
		l13.9,3l14.3,2.2l11.7,2.3l7.8,1.6l27.6,3.4l4.5,0.8l2.4,1.2l6.2,2.4l22.3,8.9l8.9,3.2l14.4,2.3l9.5,1.5l16,2.5l12-6.5l27.2-12
		l0.5-0.2l0.2-0.1l0.8-0.5l23.4-14.9l15.7-10.6l8.7-4.9l9.2-8.7l12-10l10-12.1l10.2-7.6l11.1-10.2l10.4-8.2l8.2-7.1l13.5-11
		l13.8-13.5l7.8-4.8l4.8-2.1l10.7-3.8l13.9-4.7l15.3-5.7l13.6-5.3l22.6-13.6l2.7-1l1-0.5l2.9-1.3l23.6-10.6l13.5-6.6l15-4.8l19.9-10
		l5-2.1l1.8-1.1l1.7-1.8l24.5-11.9l11.9-8.4l13.2-6.4l19.1-13.2l5.1-2.4l2.4-1.1l4.7-1.2l24.4-6.1l10.8-2.6l12.4,1l16.4,1.3
		l11.1,0.9l7.2,3.1l15.5,7.2l11.8,5.4l5.4,1.6l10.1,3.1l14.8,4.9l15,4.3l15.7,4.9l13.1,4.7l11.1,3.7l5.5,1.9l14.5,5.5l14,5.9
		l5.9,2.2l13.7,5.7l8.7,3.8l17.5,6.7l15.8-0.1l8.3,0.1l15.7-0.1l18.9-5.1l3.1-1l17.9-5.3l10.7-1.9l25.1-6.6l4.1-0.8l2.7-0.6l8.1-2.7
		l22.8-6.3l6.3-2l9.2-0.9l23.4,1.8l7.4-1.1l12-3.5l15.7-0.1l12.1-8.5l6.6-12.7l1.6-6.6l9.4-17.5l1.7-3.1l9.5-19.3l3-8.1l8.1-24.1
		l2.6-5.1l1.3-2.6l16.6-19.3l10.5-11.8l7.8-8.8l0.5-0.5l0.5-0.4l1.7-0.8l28.4-8.1l9.8-12.1l8.8-9.2l7.4-8.8l13-10.7l10.7-9.5
		l7.1-12.6l5-7.1l3.6-15.7l1.7-6.8l3.7-17.4l3.4-15.5l1.8-10.8l2.7-13.6l3.8-7.1l7.1-14.3l5.8-12.7l2.4-5.8l1.2-9.4l0.6-20.5l1.6-10
		l12.7-15.6l15.6-20.2l2.2-1.9l2.8-2.2l19.6-15.4l9.7-18.9l3.6-5.7l0.7-1.3l1.3-3.1l16.9-18.6l11.8-16.9l4.2-7l3.8-29.6l1.1-3.3
		l0.1-2.1l-5-30.7l0.2-7.1l-1.1-8l-4.1-19.9l-1.3-12.1l-5.1-18.5l-0.6-2.3l-5.4-19.1l-4.3-11.1l-11.1-25.5l-1.1-2.2l-0.6-1.1l-2-3.6
		l-12.2-20.6l-7.1-15.7l-5.5-11.6l-10.6-27.3l-0.4-1l-0.2-0.4l-0.4-0.6l-14-24.9l-7.4-14l-4.8-13.7l-6.3-18.9l-2.5-7.4l-0.8-4
		l-4-16.2l-3.3-16.4l-0.7-3.3l0.1-3.9l1.8-33.9l0.1-2.1l0.2-1.8l1.8-8.5l5.8-23.9l1.5-5.8l2.8-10.1l3.9-15.8l4.3-14l3.8-17.8l1.7-6
		l3.9-16.1l0.8-11.4l3.6-20.7l0.7-7.8l-1.6-8.7l-1.8-20.8l-2.4-10.4l-7.6-19.4l-2.2-3.2l-10.2-17.2l2.4-9.4l3.7-17.4l3.7-13.1
		l13.1-10l10-10.7l11.8-7.5l6.6-11.8l7.8-13.7l4.1-16.6l3.6-9.6l-0.3-6.2l-3.5-23.9l-0.3-9.8l0-10.1l-0.1-19.6l0-10.2l-0.6-10.8
		l-0.5-17.9l-0.6-11.3l-4-15.9l-1.5-6.6l-4.6-17.4l-4-13.9l-6.4-18.6l-2.3-7.4l-2.3-2.8l-2.8-3.3l-14.2-19.6l-10.3-14.2l-5.2-10.3
		l-10.3-19.2l-2.9-7.5l-1.2-2.9l-3.4-7.5l-6.6-18.3l-9.4-14.1l-5.8-10.7l-10.7-16l-7.4-5.8l-10.3-7.4l-9.6-12.5l-8.7-23.6l-1.8-3.8
		l-0.9-1.1l-1.1-2.8l-10.9-25.1l-1.7-10.9l-5.8-18.3l-1-2.3l-4.4-19.3l-3.6-12.7l-10.3-24.9l-0.8-2.4l-0.6-1l-1-1l-3.1-1.2l-24-9.6
		l-12.8-4.4l-15.7,1.5l-10.4,1.9l-13.8,1.6l-11.6,0.7l-22.6,11.6l-3.9,1.8l-1.8,1.2l-4,0.9l-27.7,4.3l-8.3,2.4l-9.6-1l-20.9-0.2
		l-9.4-0.8l-6.2-2.4l-22.8-6.2l-3.4-7.5l-7.5-10l-3-19.4l0.1-3l1.1-1.8l1.8-1.2l4.3-1.2l26.8-4.5l8.8-3.6l18-5.6l4.1,0.2l17.8-18.2
		l1.4-2.5l0.4-1.4l-0.7-1.1l-1.1-2.3l-9.9-26.6l-0.6-9.9l-13.2-16.3l-16-23.3l-0.2-0.3l0-0.1l-0.1-0.1l-15.6-24.1l-8.2-15.6
		l-4.8-11.3l-11.3-18.4l-3.9-6.3l-1.8-3.9l-15.9-18.3l-18.3-20.6l-0.8-0.2l-4-0.8l-32-3.1l-3.1-0.3l-2.4,1l-3.4,2.4l-14.7,19.4
		l-2.3,3.4l-11.7,17.1l-1.4,4l-4,9.1l-9.1,17.7l-6.2,9.1l-11.1,13.5l-13.5,11.3l-11.2,3.9l-21.8,4.2l-6.9,1.9l-5.2-0.2l-26.9-2.5
		l-7.8-0.3l-11.7-3.7l-12.3-4.1l-15.8-4.7l-12.3-7.1l-25.1-12.3l-1.5-1.1l-1.1-0.7l-3.8-2.1l-20.5-11.8l-15.6-7.7l-11.5-5.1
		l-26.5-9.6l-1.9-0.8l-1.1-0.1l-17.2-1.1l-20.1-1.5l-1.5,0l-1.1,0.4l-3.3,1.1l-27.7,7.8l-7.8,1.7l-10.9,1.4l-15.4,2.7l-13.6,1.5
		l-16.9,1.8l-5.1,1l-17.9,1.5l-19.4,0l-1.1,0l-19.4,0l-19.1-0.3l-2.3-0.7l-18.5-0.4l-18.5,0.5l-2.8,0.1l-18.6,0.5l-18.7,2.1
		l-2.6,0.1l-18.6,1.8l-19.8-3.3l-0.3,0l-19.8-2.7l-14.4-2.8l-13-1.8l-12.6-2.2l-9.1-1.3l-27.9-6.1l-3-0.5l-2.1-0.4l-7.9-2.1
		l-23.3-6.6l-6.6-1.8l-8.4,0l-24.3,1.2l-7.2,0l-7.5-0.4l-23.6-1.2l-8.7-0.5l-10.6-1.4l-15.8-2.8l-13.4-1.6l-11.8,3.3l-23.1,6.8
		l-5,1.4l-2.8,0.8l-8.5,2.8l-23.2,5.4l-5.4,0.5l-4.6-1.3l-10.5-4.6l-15.3-9.6l-9.6-6l-12.7-11.6l-13.8-12.7l-7.2-6.2l-6.2-4
		l-19.6-10.1l-1.9-1.2l-18.4-11.2l-5.8-1.4l-16.2-5.8l-10.9-7l-7-3.2l-10.7-0.5l-22.9,4.4l-6.3-0.5l-10.2-3.4l-15.6-3.9l-14.1-6.2
		l-8.4-11.3l-15-8.4l-11-5.5l-5.5,0.3l-5.4-0.2l-25.5-3.7l-9-0.2l-8.5,0.7l-25,2.2l-6.4,0.6l-4.5,1.3l-17,4.5l-14.1,4.3l-4.3,1
		l-6.6,1.3l-22.5,4.2l-10.8,2.3l-9.9-3.2l-28.9-9.9l-0.9-0.3l-0.3-0.1l-1.4-1l-21.5-15.6l-17-12.3l-7.6-3l-32.2-7.6l-0.1,0l0,0l0,0
		l-38.1-1.8l-1.8-0.1l-2.8-0.9l-26.6-7.7l-10.5-3.7l-15.1-0.9l-9.6-0.1l-15.2-1l-12.4,3.8l-22.8,12.4l-3.3,1.5l-1.5,0.2l-1.5-0.1
		l-15.8-1.5l-19.4-3.3l-3.3-0.3l-3.2,0.4l-30.7-2.9l-6,0.5l-7-1.4l-21.4-4.5l-11.5-2.2l-16.3-9.9l-17.4-10.1l-6.2-3.6l-1.8-0.8
		l-2.3-1.8l-19.9-15.9l-15.9-20.5l-1.5-2l-0.8-1.5l-8.1-10.3l-8.4-10.8l-15.4-18.7l-2.4-3.4l-3.4-4.5l-19.6-12.4l-2.2-1.5
		l-18.1-12.5l-4-1.6l-10.4-4l-21-4.4l-4.4-0.5l-5.7-0.8l-25.2-3.4l-9-1.3l-14-3.7l-9-2.9l-16.9-3.8l-15.9-3.3l-9-0.9l-15-2.6
		l-13.3,1l-13.7-0.4l-12.9,1.2l-17.3,3.2l-6.9-1.6l-15.7,8.9l-12,3.3l-20.2,4.4l-7.6,1.9l-6.6-0.8l-20.5-6.3l-12.9-1l-11.4,2.5
		l-18.1,1.1l-10.3,1.7l-6.6,2l-32.9,6.2l-0.4,0.1l-0.3,0l-7.8,0.3l-31,0.8l-0.8,0l-0.8,0l-38.9-0.6l-0.2,0l-0.2,0l-38.4,1.2
		l-1.4-0.1l-1.2-0.2l-8.6-1.2l-25.9-4.3l-4.3-0.4l-5.7-1l-23-5.4l-11.2-1.8l-14.8-1.9l-9.4-0.9l-15.7-2.1l-18.2-3.8l-5.2-1.7
		l-16.5-4.2l-8.1-4.2l-17-8.1l-9.7-5l-5-2.4l-12.5-5l-10.6-4.4l-16.8-6.6l-13.6-2.9l-15.4-2.6l-10.9-2.2l-7.8-1l-25.5-1.2l-6.6-0.7
		l-6.1,0.3l-25.5,2.2l-8.3,0.3l-7.9-0.7l-26.5-2.5l-5.5-0.5l-3.8-1.2l-11-3.8l-17.7-7.3l-7.3-3.6l-13.1-2.1l-12.1-1.6l-14.7-2.6
		l-18-0.7l-3.9,0l-18-0.7l-17.2,1.5l-6.1,0.6l-16.6,1.5l-15,0.1l-10.3,0.5l-14.6,0.1l-19.3-6.2l-2-0.7l-18.6-6.1l-12.5,0l-14.8,0.1
		l-12.6,0l-16.3,3.7l-7,0.3l-16.6,6l-11.6,5.7l-21.7,11.6l-5,1.6l-1.6,0.4l-2.2,0.1l-32.9,2.7l-4.8,0.2l-5.2,0.2l-28,1.5l-6.7,0.2
		l-7.3,0.3l-24,1.5l-8.7,0.4l-11.6,2.5l-13.9,2.7l-14.3,3.3l-18.4,3.9l-4.2,1.1l-17.3,3.9l-14.6-1.2l-10.5-0.2l-14.8-1.4l-18.6-2.4
		l-2.6-0.1l-18.7-3l-15.4,6.2l-17.6,8.5l-6.9,3.1l-2.6,1.2l-4.5,2.6l-20.8,12l-12,4.5l-16.8,6.6l-10.8,4.5l-12.3,5l-4.6,2.7l-7,4.6
		L608,354l-15.9,21.9l-0.9,1.2l-0.7,0.9l-1.9,3.5l-11.5,21.5l-8,15l-3,13.9l-6.7,18.8l-2,7.2l-1,4.3l-4.3,9.4l-6.8,19.5l-3.2,6.8
		l-7.4,17.4l-1.7,3.4l-6.4,19.1l-3.6,10.8l-5.9,24.2l-1.4,4.9l-0.2,3.3l-2.9,36.3l0,0.4l-0.2,0.2l-0.2,0.3l-0.5,0l-35.4,3.5l-4,0.2
		l-10.4,6.2l-12.2,6.9l-17.3,12.1l-4.5,6l-2.6,4.5l-16.2,16.5l-16.5,15.4l-5.4,2.5l-8.4,5.4l-17.7,8.4l-8.4,5L337.5,722l-17.7,15.2
		l-3.9,3.2l-3.2,3.2l-14.5,19l-8.8,14.5l-2.5,14.2l-1.9,13.4l-2,12.3l-0.1,10.2l-0.4,20l-0.1,9.8l-3.6,6l-6,14.1l-5.3,14.5l-1.5,5.3
		l-3.2,9.9l-5.2,14.8l-4.4,15.1l-2.9,17.5l-1.3,6.2l-2.9,16.2l-0.2,13.1l-0.3,14l-0.2,12.8l-2.8,9.9l-7.7,27.8l-0.6,2.2l-0.3,1.2
		l-1.2,4.9l-6.5,27.3l-1.2,6.5l-1,8.6l-4.1,18.5l-1.2,12.8l-6.4,19.6l-0.3,0.9l-6.1,19.3l-3,10.2l-9.6,29l-0.2,0.6l0,0.4l-0.4,3.8
		l-3.5,32.2l-0.5,3.5l-0.4,4.4l0.5,31.7l-0.4,3.9l0.4,3.9l3.9,18.5l2.8,14.7l0.5,2.8l-0.1,3.3l0.1,33.3l-0.1,3.3l-0.5,2.8l-2.8,19.7
		l-3,14.5l-0.5,3l-0.4,3.9l-4.2,27.9l-0.8,8.1l0.5,8.5l0.6,23.6l0.4,7.8l0.3,7.2l0.8,26.4l0.2,6.3l-0.4,6.5l-1.5,25.4l-0.4,8l-0.5,9
		l-2.3,19.6l-0.6,11.3l-0.5,12.3l-1.2,14.1l-0.4,13.5l2.1,11.8l2.8,19l1.5,9l1.6,5.8l5.8,20.9l2.8,10.4l0.6,2.8l1.2,4.6l6.2,24.6
		l3,10.7l2.4,16.2l0.9,6.7l2.6,17.1l2.7,17.5l1.4,6.3l2.8,16.1l2.3,10.9l5,23.1l1.3,5.9l0.8,3.8l3.8,21.7l2,12.4l0.3,2l1.1,3.4
		l8.2,24.9l3.8,11.6l7.6,16.8l4.4,10.7l5.3,12.4l0.8,6.3l4.9,32.3l0.2,1.4l0,1.2l1.2,17l1.2,20.5l0.1,1.2l0.7,2.1l9.2,26.5l3.9,11.3
		l6,18.7l1.7,4.2l6.1,17l1.3,9.6l7.2,27.9l0.4,2.4l0.2,1.7l1.7,9.1l4.9,24.1l1.4,4.9l0.9,7.2l2.6,23l1.2,9.7l3,13.9l2.5,9.6
		l3.1,16.4l5.4,15l6.8,16.8l3.1,8.1l1.4,3.6l3.6,10.1l8.4,17.9l3.4,8.4l1.1,12.9l2.1,12.1l1,15l5.8,18.1l4.7,8.3l6.2,13.4l2.8,4.4
		l4.4,3.9l19.5,12.1l2.4,1.6l17.9,11.7l3.9,2.4l7.3,3.9l22.3,6.4l6.4,1.6l12.2,4.1l11.3,4.3l16.5,5l13.6,4.9l20,7.2l6.4,2.3l3.2,0.9
		l6.6,3.2l19.1,11.1l11.1,8.6l15.3,5l14.3,4.9l10.4,3.5l6.3,0.6l29.7,2.3l4,0.4l2.3,1.3l3.7,2.3l17.7,16.2l16.2,14.5l4.1,5.1
		l3.3,4.1l14.6,17.9l17.9,20.3l1,0.7l1.5,1l25.2,12.2l12.2,7l15.2,5.5l16.9,7.4l7.8,3.2l2.5,2.2l2.6,2.5l15.6,19.2l19.2,18.8
		l1.1,0.8l2,1.1l20,16.9l16.9,8.3l9.8,4.9l10.3,9.8l8.8,11l11,21.3l2.7,4.9l1.5,2.7l-0.5,3.7l-1.2,33.8l-0.3,2.5l0.4,2.6l3.3,31.5
		l1.1,5.9l16.2,16.7l16.7,15.2l4.8,3.2l7.6,4.8l18,9.5l9.5,2.3l16.6,4.7l5.5,1.3l17.8,5.9l12.5,3.6l15.2,12.5l8,4.2l4.2,3l6-1.2
		l28.6-0.8l5.2-0.8l3-1.4l12.6-3l19.1-5.1l5.1,0.1l6.5-1.5l24.4-2.5l9-3l15.2-3.2l8.9-0.6l15.8-4.7l10.6-8.8l21.1-10.6l5-3.2l3.2-2
		l19-13.8l1.1-0.8l19.8-12.5l6.3-1.4l23.7-6.3l8.3-1.6l1.6-0.2l1.7,0.1l28.2,1.7l9.1,0.8l0.8,0.1l2.4,1.5l21.7,13.5L1470,2957.2"/>
	<path class="st1" d="M4539.3,2173.7l-16.9,19.6l-3,3.7l-13.5,16.6l-1.3,1.8l-1.8,2.3l-15.5,20.3l-12.1,15.5l-6,6.3l-6.3,5.5
		l-14.8,13.3l-14.2,14.8l-5.3,5.7l-5.7,5.7l-13.6,15l-12.9,13.6l-6.5,6.8l-6.8,5.5l-14.7,12.9l-18.8,14.7l-3.6,2.8l-2.8,2l-13.9,9.1
		l-7.2,4.9l-18.8,11l-6.1,4.1l-10.5,6.1l-13.9,9.3l-9.3,5.8l-15,9.8l-21.8,12l-3.1,1.8l-0.8,0.5l-1.6,0.8l-24.7,12.8l-12.8,6.4
		l-12.8,7.9l-25.6,11.3l-1.5,0.8l-0.5,0.3l-1.5,0.5l-27.6,10.3l-10.3,2.3l-17.2,4.7l-4.2,1.2l-18.5,4.8l-13,3.6l-19.6,5.7l-7.3,2.1
		l-4,1.2l-14.2,4l-17,4.7l-4.7,1.1l-7.9,2.2l-18.8,5.3l-13.2,3.5l-19,4.2l-2.9,0.9l-18,4.7l-11.8,1.6l-20.1,3.7l-8,1.2l-7.1-0.3
		l-25.1-0.6l-7.7-0.3l-8.2-0.1l-24.6,1.1l-7.1-0.1l-6.7,0.6l-32.4,6.7l-0.7,0.2l-0.2,0.1l-0.3,0.1l-31.8,7.5l-7.8,1l-10.4,1.5
		l-14.8,4.4l-14.8,1.5l-18.6,5l-3.2,0.6l-18.1,4.2l-12.1,1.8l-18.2,2.5l-9.6,1.4l-7.7,0.5l-28.7,4.2l-3.5,0.3l-3.5-0.3l-34.1,1.3
		l-2.2-0.2l-3.6-1.1l-26.3-6.5l-10.1-3.9l-19.7-5.7l-0.4-0.1l-19.8-6.2l-11.5-2.4l-20.7-3.8l-7.7-1.6l-5.5-0.7l-31.3-2.3l-3.2-0.4
		l-2.6-0.2l-36.4-1.8l-0.8,0l-0.6-0.2l-1.3-0.6l-26-12l-12-7.7l-11.8-8.4l-12.1-11.8l-8.4-7.6l-7.6-6.7l-19.1-6.4l-3.2-1.5
		l-17.6-7.2l-7.1-3.4l-11.6-7.1l-14.6-6.6l-6.6-3.6l-16-13.7l-14-16l-5.5-4.3l-4.3-4.3l-17.3-14l-15.5-17.3l-3.9-3.2l-3.2-3
		l-15.3-9.1l-6-3.3l-18.6-13.3l-6.1-1.9l-17-6.1l-14.3-2.5l-2.5-0.6l-4-0.9l-28-3.9l-7.9-2.4l-13.4-3.1l-11.2-1.9l-15.3-4.2l-15.3-5
		l-17.7-8.4l-6.9-2.8l-2.4-1.7l-3.5-2.4l-21.8-12.1l-12.1-7l-13.1-7.6l-22.7-13.1l-2.5-1.6l-1.6-1l-11.1-8.5l-10.1-7.7l-18.7-16
		l-2.8-2.4l-3.2-2.8l-15.9-18l-18-20.3l-1-0.7l-1.4-1l-18.9-18.5l-18.5-19.2l-0.9-1.2l-0.7-0.9l-2.5-4.1l-11.5-20.1l-11.6-15.6
		l-6.3-6.4l-6.4-6.3l-12.7-14.4l-14.3-12.7l-5.9-7l-7-10.3l-7.9-14.7l-4.5-7.9l-8-19.5l-0.6-1.4l-7.7-18.9l-3.5-7.7l-7.7-22.5
		l-2.4-7.3l-0.3-2.4l-0.4-3.1l-3.7-30l-0.8-6.8l-4-11.6l-0.7-15.9l-11.4-12.4l-5.3-10.8l-10.8-11.5l-8.6-9l-15.3-8.6l-5.6-10.4
		l-10.4-6.3l-11.9,4.8l-15.4-0.8l-12.7,2.6l-7.4,2.7l-24.1,7.4l-6.9,1.4l-1.4,0.2l-2.6,0.9l-25.2,9.5l-12.1,4.2l-16.1,7.6l-13.3,5.5
		l-10.5,4.6l-4.3,1.6l-12.1,4.3l-18.6,4.9l-4.9,0.9l-7.8,2.1l-19.4,4.9l-12.7,3.5l-17,6.8l-12.9,6.9l-10,4.9l-2.9,2.2l-1.7,2.9
		l-12,16.6l-2.8,3.9l-15.7,19.4l-2.3,2.6l-2.6,1.6l-19.8,15.9l-1.6,1.4l-18.4,15.7l-1.3,1.5l-0.8,1.3l-10.7,12.8l-6.4,7.9l-7,5.4
		l-13.8,11.2l-1.6,1l-2.9,1.6l-22,13.4l-13.4,8.2l-10.3,8l-12.3,10.3l-6.7,10.6l-10.6,18.2l-3.6,7.5l-2.4,3.6l-8.9,15l-3.5,6.5
		l-15.2,18.4l-3.1,3.2l-3.2,3.1l-15.3,18.2l-16.9,15.3l-4.2,3.5l-3.5,2.5l-16.2,17.6l-18.7,16.2l-2.8,2.2l-2.2,1.5l-10.1,6.4
		l-11.9,7.8l-17.9,9.9l-8.2,3.9l-22.8,8.2l-6.1,2.8l-2.8,1l-7.8,4l-15.7,8.7l-16.5,7.2l-10.2,6.1l-20,10.2l-5.7,3.9l-3.9,2.6
		l-19,12.5l-1.2,0.8l-19.8,10.9l-5.2,4l-8.4,5.2l-15.2,11l-11,6.6l-12,10.2l-14.8,12l-7.1,6l-6,4.6l-17.1,12.3l-18.9,13.2l-3.9,2.7
		l-0.7,0.5l-1.3,0.7l-24.4,13.4l-13.4,7.2l-12.7,6.5L1471,2493l-0.7,0.4l-0.4,0.2l-0.9,0.3l-27.9,10.1l-11.1,3.2l-15.9,1.6l-7.3,0.9
		l-16.8,1.7l-15.6-2.9l-11.1-2.3l-13.2-2.5l-9.4-1.3l-24.5-3.3l-6-0.8l-5-0.2l-30.6-0.7l-4.3-0.2l-4.8,0.7l-28,2.3l-7.1,1.1
		l-10.2,1.9l-17.7,1.8l-12,2.9l-13.9-0.9l-13.4-1.3l-12.6-0.9l-9.7-1.9l-26.2-5.7l-4-0.8l-2.3-0.8l-8.3-2.3l-23.9-5.4l-5.4-1.2
		l-7.7-1.1l-22.3-2.2l-9.9-1.6l-13.6-2.1l-11.5-1.3l-14.8-2.5l-15.6-7l-16.9-8.2l-7.4-3.5l-2.5-1.5l-3.8-2.5l-22.9-10.8l-10.8-3.6
		l-16.6-2.2l-5.9-0.8l-17.4-2.3l-17.7-2.5l-6.1-1.6l-16.1-2.8l-8.4-4.9l-13.2-8.4l-11.1-7.2l-7.2-5.2l-15.3-12.3l-17.4-15.3
		l-4.1-3.2l-3.2-2.5l-17.1-11.4l-3.5-2.1l-19.3-18.4l-1.2-1l-1.1-1.2l-21.7-15.9l-15.9-13.6l-7.5-2.9l-12.7-7.5l-12.9-6.8l-6.8-10.9
		l-8.5-13.7l-3-8.5l-11.2-17.1l-8.1-13.9l-5.4-9l-1.5-2l-2-2.5l-16.5-18.9l-13.1-16.5l-3.6-6.8l-6.8-14.1l-6.2-12.8l-2.8-6.2
		l-7.5-16.6l-2.1-4.6l-8-18.7l-5.1-8.1l-8.1-13.9l-7.2-10.7l-5.2-7.2l-10.6-16.9l-11.9-17.9l-3.3-5.1l-0.7-1l-1-1.6l-12.9-24.4
		l-6-12.9l-6.9-14.1l-9.1-20.7l-2.3-5.1l-0.4-2.4l-2.4-12.9l-3.8-20.9l-1.1-3.8l-1.7-6.6l-5.5-21.1l-3.2-12.2l-5.2-19.3l-0.5-1.8
		l-5-18.8l-2-11.8l-2.3-18.7l-1.5-9.4l-0.8-7.2l-0.9-26.5l-0.6-6.2l-0.3-5.3l-1.8-31.1l-0.2-3.5l-0.2-3.1l-2.8-36.5l0-0.3l0-0.3
		l2.3-37l0-2.6l-0.2-2.4l-1.6-36.7l-0.1-0.8l-0.1-0.7l-0.7-8.3l-3.2-27.7l-0.4-3.2l0-3.6l0.2-32.9l0-3.4l0.5-2.9l2.9-29.2l0.6-7.2
		l0.1-0.6l0.3-1.1l7.6-30.2l2.3-8.7l1.9-12.9l2-12.2l2.2-14.8l4.1-18.8l0.6-2.8l3.9-18.2l1.8-12.5l2.6-17.4l1.4-10l0.6-7.9l7.8-31.9
		l0-0.1l0-0.1l0.1-0.2l10.5-29.2l5.4-10.5l4.8-19.2l0.4-1.8l4.5-18.9l4.1-10.3l10.3-27l0.7-2l0.3-0.7l0.9-2l10.9-25.1l7.2-12.9
		l7.2-12.7l12.7-19.8l2.6-4.8l1.5-2.6l5.5-9.6l7.5-13.2l10.2-17.1l4.9-7.7l7.7-10.5l8.3-13.5l6.4-8.3l11.7-13.5l13.5-12l8-6.5
		l11.8-8l9.8-10.4l10.4-10.5l8.1-11l5.7-8.1l10.9-15.2l15.2-24.1l0.2-0.3l0.2-0.2l20.6-18.8l18.8-18.8l1.1-1.2l0.8-1.1l4.2-6.1
		l11.5-16.3l11.3-17.5l3-8.1l8.1-20l3.4-8.4l2-3.4l7.7-13.2l4.9-8.7l12-18l5.2-4.6l4.6-4.8l16.3-14.2l16.7-16.3l3.6-3.3l3.3-2.7
		l8.3-2.3l17.9-5.4l13.7-3.6l19.3-3.4l1.5-0.2l19.1-3.1l10.2-5.8l19.2-10.2l6.5-4l4-2.4l10.3-3.8l13.7-5.6l15.9-5.3l16.5-2.2l6.8,0
		l16.6-1.7l9.1-5.7l18.9-9.1l7.4-4.5l4.5-1.8l18.2-11.9l2.1-1.4l19.6-10.2l7.3-2.8l24.5-7.3l5.9-2.3l2.3-0.6l3.9-1.1l23.9-8.2
		l12.1-2.8l17.8-7.2l7.2-2.9l14.9-6l6.7-2.2l21.5-6.7l8.2-3.5l3.5-1l5.8-1.3l22.8-5.6l11.4-2.3l16.4-2.7l6-1.1l17.5-2.8l16.6-3
		l8.5-1.8l14.8-2.8l11.1-0.9l19.2-1.4l9.7-0.8l8.4-0.5l23.5-0.5l7.9-0.4l7-0.6l27.5-1.6l5.4-0.4l5.5,0.5l26.8,2.2l7.7,0.6l9.3,1
		l19.3,2l11.3,1.2l16,3.5l6.6,1.4l17.4,3.9l14.2,4.4l17.5,6.1l8.2,2.7l4.4,1.1l15,4.4l16.3,4.3l4.3,1.4l7.4,1.7l20.1,5l12.4,2.7
		l18,2.8l3.5,0.5l18.5,2.9l15.7,2.8l10.5,2l13.7,2.5l9.3,1.9l29,7.6l1.7,0.4l1,0.3l2.3,1l25.5,11.1l11.1,6.2l15.7,6.9l18.8,10.2
		l5.5,2.8l1.9,0.8l3.6,1.9l20.9,13.5l13.5,14.6l6.2,5.6l6.7,6.2l15.4,11.6l11.6,9.8l11.1,7.4l15.3,11.1l8.9,4.6l4.6,2.7l12.7,5.3
		l10.7,3.9l16.5,8.5l8.6,6.3l9.3,8.6l7.7,14.3l9.2,20.5l2.4,5.1l0.2,2.5l1.7,36.7l0.1,0.8l0.2,0.5l0.5,1.3l10.1,28l1.9,10.1
		l3.4,15.3l2.3,7l2.9,17.6l2.4,17l2.2,8.1l2.6,14.8l2.7,9.5l9.5,22.8l2.4,5.2l1.2,2.4l0.6,4.2l2.7,28.8l1.1,6.9l2.9,10.9l2.7,15.5
		l4.6,13.5l9.9,11.9l11.9,11.8l9.6,6.7l10.6,9.6l11.4,8.3l8.3,6.5l13.9,11.3l16.7,13.9l3.4,5.9l5.9,14.1l7.4,12.5l1.8,7.4l7.1,16.3
		l2.3,5.1l7.8,18.5l4,9.5l9.5,22.2l4.2,4l3.5,4.2l21.7,10.4l10.4,5.5l19.3,4.7l1.8,0.5l18.8,4.7l16.8-9l23-16.8l0.1-0.1l0.1,0l0.1,0
		l28.5-11.1l11.3-1.8l19-6l1.5-0.4l19.4-7.5l7.7-5.3l11.7-7.7l10.2-10.3l10.3-9.3l9.2-11.1l11.7-9.2l9.7-9.3l9.3-16.2l5.2-9.3l4-5.2
		l19.7-11l11-5.5l16.6-6.8l10.8-4.1l12.5-4.9l6.2-1.4l33.1-5.6l0.6-0.1l0.4,0l38.6,0.5l0.9,0l0.6-0.3l1.5-0.6l26.2-11.5l11.5-3.9
		l16.7-7.8l10-3.4l13.2-5.2l5.4-2.6l9.8-5.4l15.1-9.6l9.6-4.9l16.9-8.5l10.6-4.6l12.4-5.7l4.3-2.4l8.2-4.3l17.9-9.5l9.5-4.5l17-8.8
		l11.8-6l11.1-5.6l4.2-1.3l10.6-4.2l17-8.1l8.1-3.4l17.7-6.2l3.2-1.3l19-5.8l11.6-3.5l20-3.3l8.3-2l5.4-0.8l31-5.4l2.9-0.6l0.6-0.1
		l1-0.3l30.1-7.8l8.8-3.2l12.9-0.9l12.3-1.7l14.7-0.9l14,1.6l12.7,0.7l13.2,1.3l10,1.9l26.8,6.8l3.2,0.7l2.2,0.3l14.3,2.2l20.6,2.8
		l2.8,0.4l3.1,0l34.7-1.1l2.1,0l2,0l36.4-0.5l1.5,0l1.4-0.1l37.2-1.4l1.3-0.1l0.1,0l0.1,0l0.5,0.1l36.1,3.3l3.3,0.4l4.4,0.7
		l27.7,3.3l7.8,1.5l9.3,0.1l20.6,0.7l10,0.1l10.8,0.8l16.6,1.7l12.5,0.8l11.8-1.5l18.9-2.6l9.2-1.2l7.7-0.3l25.6-1.2l6.5-0.2
		l8.6,2.3l18.2,4.5l13.1,3.7l19.4,3.7l1.3,0.2l19.2,3.6l12.9,2.7l16.7,2.5l10.3,2l6.6,1.8l21.7,6.6l8.8,2.8l2.8,1l5.5,1.6l22.2,6.7
		l12.2,3.6l16.2,0.4l7.8-0.3l15.9,0.5l17.3,1l5.4-0.2l17.1,1.1l13.2,8.5l17.8,13.2l5.5,3.4l3.4,2.4l19.5,14.6l4.6,3.8l15.7,12.8
		l1.9,1l3.7,1.9l25.7,8.6l8.6,3.9l18.2,9.2l8.5,4.9l13.3,7.4l3,2.8l3.1,3l18.2,15.6l15.6,13.7l6,4.6l7.5,6l14.7,11.7l11.7,8.4
		l12.9,6.9l26.4,12.9l0.4,0.2l0.2,0.1l0.5,0.2l26.4,12.6l13,7l14.6,5.2l18.8,8.2l6.4,2.6l2.6,1.3l4.6,2.6l18.9,13.8l13.8,11.6
		l7.7,6.8l7.9,7.7l9,15.3l6.2,15.5l4.2,9.1l0.8,4.1l0.9,32.6l0.5,3.2l0.8,1.9l1.9,5.1l12.6,20.3l5.2,12.6l6.9,15.2l3.6,13.1
		l4.1,11.6l0.9,6.6l0.2,26.9l0.7,6.4l1.5,4.3l4.3,20.1l3,12.5l0.2,3l1.4,4.7l8.2,22.3l3.2,12.9l2.4,18.5l0.4,2.6l2.3,18.9l0.9,17.8
		l0.3,4.5l0.9,17.6l3,13.7l4.7,17.3l2.1,8.9l1.7,5.1l5.1,12.9l6.9,15.1l2.4,6.9l2.6,11.9l2.8,13.4l3.4,14.7l3.6,18.3l0.8,4.1
		l3.4,17.5l1.7,12.4l1.2,16.2l1.3,11.2l0.5,9.4l0.6,21.7l0.4,8.8l0.6,7.8l2.2,26.5l0.4,5.6l0.2,5l3.4,33.4l0.1,1.6l0,1.5l1.5,16.1
		l2,20.3l0.3,2l-0.1,2.2l-2.2,29.9l-0.5,7.3l-0.1,0.5l-0.2,0.8l-7.7,30.7l-2,8.5l-2.1,12.5l-2.3,12.5l-2.4,14.8l-2.3,19.5l-0.1,0.8
		l-2.2,19.6l-1.7,16.4l-1.8,8.9l-1.8,14.6l-2.9,9.9l-9.9,23.5l-2.1,4.4L4539.3,2173.7"/>
	<path class="st1" d="M1477.5,2373.2l-4.6,2.9l-2.9,1.6l-5.6,1.2l-23.7,4.9l-10.6,2.2l-15.6,2.9l-7.2,1.5l-17.1,3l-18.8,1l-2.3,0
		l-18.8,0.9l-18.2-0.4l-3.3-0.1l-18.4-0.4l-18.8-0.1l-2.2,0l-18.9-0.1l-19.1-0.1l-1.6,0l-19.1-0.1l-19.1-1.5l-1.8-0.1l-19-1.5
		l-14.8-2.6l-12.7-2.5l-12.3-2.3l-8.4-1.7l-29.6-6.6l-1.9-0.4l-1.2-0.3l-4.2-1.2l-28.8-5.8l-5.8-1.3l-9.2-2.2l-17.7-3.8l-13-3.2
		l-19.8-3.8l-0.3-0.1l-19.8-4.3l-12-3.5l-25-9.1l-2.9-0.9l-1.5-0.4l-3.5-1.5l-25.4-9.5l-9.5-4.7l-18.6-7l-5.3-2.7l-16-7.2l-5.7-3
		l-9-5.7l-16.2-9l-9-5.4L816,2269l-20.2-15.5l-2.4-1.8l-1.8-1.6l-19.9-16.6l-2.4-2.4l-17.5-17l-0.3-0.2l-0.3-0.3l-14.3-14.9l-5-5.1
		l-14-19.9l-2.5-3.5l-3.5-5.6l-12.9-17.9l-8.2-12.9l-8.2-10.6l-10.6-15.6l-5.9-7.8l-3.4-5.9l-12.1-18.5l-5.9-8.7l-8.4-12.7l-1.7-2.5
		l-2.5-4.1l-13.7-19.6l-8.4-13.7l-6.1-11.7l-11.7-27.4l-0.2-0.5l-0.1-0.2l-0.4-0.7l-13.6-24.9l-7.5-14.3l-6.7-11.4l-11.4-20.7
		l-3-4.8l-1.5-3l-2-6.6l-6.6-20.1l-3.9-13.2l-2.8-19.9l0-0.1l-2.8-19.9l-2.8-14.5l-2.5-13.4l-2.3-12l-1.5-8.2l-5.6-29l-0.5-2.6
		l0-2.1l-0.7-36.3l0-1.5l0.1-1.5l0.9-36l0.1-2.4l-0.4-2.1l-2.1-10l-5.5-22.3l-1-5.5l-1.5-8.1l-4.1-19.6l-2.2-12.2l-1.5-15.9
		l-0.8-7.4l-1.5-16.6l1.5-16.7l0.6-7.2l1.4-16l3.7-10.9l7.9-26l1-3l0.3-1.7l1.7-9.9l4.4-23.9l0.9-4.4l1-6.4l3.3-23.9l1.6-9.7
		l8.6-19.9l0-0.1l9.4-19.9l3.8-6.8l6.8-10.2l8.9-14l6.3-8.9l7.5-17.2l3.7-9.2l5.6-13.5l2.1-5.8l5.8-15.7l4.6-13.8l1.7-4.6l4.2-10.5
		l5.2-13.7l6.8-15.7l5.5-11.9l11.9-23.2l1.5-3.4l0.8-1.5l4.7-7l10.2-15.8l14-17.2l3.3-5.4l5.4-7.7l10.2-16.5l6.9-10.2l9-13.9
		l13.9-16.6l4-5.4l3.9-4l15.9-16.2l16.2-16.3l3.3-4.1l2.9-3.3l14.7-19l19-20.3l0.3-0.3l0.3-0.3l2.6-3.2l15-18.5l15.8-18.2l2.6-3.3
		l3.3-4.2l14.6-17.8l16.5-14.6l4-4.8l4.8-5.3l13.1-16.7L898,817l6.5-6.8l6.8-5.8l15.1-12.1l18.9-9.3l5.9-3.3l1.4-1.2l2-1.4
		l21.1-15.4l15.4-10l7.2-7.3l7.4-7.2l12.4-12.9l12.9-11.4l8.3-7.3l11.3-8.3l12.1-8.2l8.2-4.8l16.8-10.1l14.5-8.2l8.6-5l2.4-1.3
		l5-2.4l20.8-11.7l11.7-5.8l14.8-7.6l18.6-8.3l6.5-3.1l2.4-1.1l6.4-2.4l21.7-9.4l9.4-3.8l19.2-7.5l2.4-0.8l18.4-6.7l8.3-3.4
		l27.7-8.3l3-0.9l0.9-0.2l1.4-0.3l31.1-6l7.4-1.3l9.3-0.7l19.9-1.3l10.7-0.8l12.3-0.8l14.5-0.9l13.1-0.8l14,0l12.4,0.4l13.5,0
		l13.3,0.3l14.4,1.2l12.2,0.3l10.6,1.3l22.4,3.7l6.9,0.9l5.4,0.6l32.6,3.5l1.9,0.2l1.5,0.2l12.5,1.5l23.5,2.5l2.5,0.3l4,1.2
		l24.2,7.8l11.8,3.2l18.8,6.2l3.6,1.2l17.6,5.9l9.3,2.4l25.6,9.3l3.7,1.4l1.4,0.7l3.6,1.6l23.4,9.3l12.9,6.5l12.8,7.7l17.3,12.8
		l5.6,4.1l4.1,3.5l19.7,12.6l2.3,1.8l17.9,13.7l2.4,1.8l2.6,2.4l17.5,17.4l17.4,21.5l0.5,0.6l0.4,0.5l1.9,2.7l14.5,20l9.8,17.2
		l6.5,6.5l6.5,8l12.1,13.3l9.1,12.1l9.2,9.4l9.4,11.7l8.6,10.3l5.7,8.6l9.6,16l8.7,16.6l4,7.3l1.1,2.2l2.2,5l10.7,22l4.5,10.7
		l7.4,17.3l3.4,8.8l5.7,13.9l1.8,6.4l6.4,30.6l0.5,2.4l0.1,0.5l0.1,0.6l4.1,34.6l0.6,4.7l1,6.3l3.5,23.9l1.6,9.7l1,12.3l0.8,14.5
		l1.1,13.1l2.9,17.2l0.7,4.8l3.2,17.9l3,15.8l2.3,10.6l2.7,13.5l1.3,9.5l3.7,24.6l0.8,5.8l0.6,4.4l4.4,19.7l3.8,12.1l1.3,3.8
		l3.8,8.9l6.3,15.9l7.1,15.2l2.2,15.4l2,11.1l2.1,13.4l-9,19.5l-0.7,1.5l-8.7,18.9l-3.1,7.1l-7.1,16.4l-4.4,12l-1.3,4.4l0.1,5.6
		l-1,27.7l0.1,6.6l-0.9,7.4l-2.2,22.9l-1.2,9.6l0,10.8l1.5,19.8l0,9.3l-1.2,10.5l-1.8,17.1l-1.5,12.3l-6.6,19.5l-0.4,1.2l-6.2,19.2
		l-2.4,10.5l-7.2,26.1l-0.8,3.3l-0.7,1.8l-1.8,3.8l-8.2,26.2l-2.6,8.2l-3.8,14.7l-1.8,8.8l-5,16.5l-4.8,13.6l-9.8,22.4l-1.5,3.8
		l-0.4,1.9l-1.9,11.4l-3.5,23.1l-0.5,3.5l-2,6l-6.9,20.9l-4.4,13l-9.7,12.8l-12.8,15.4l-5,6.7l-4.1,5l-13.2,17.6l-15.8,20.5
		l-1.4,1.8l-0.2,0.2l-0.2,0.3l-17.6,21.8l-12.9,17.6l-4.4,5l-5,5.8l-13.3,15.9l-11.1,13.3l-6.9,8.6l-8.6,10l-9.6,11.7l-8.6,9.6
		l-8.7,13l-13,17.7l-3.7,5.4l-3.2,3.7l-16.3,16.6l-16.6,13.9l-4.7,4.7l-5.4,4.7l-16.4,13.4l-13.4,9.4l-9.5,7.6l-14.2,9.5l-9.4,6.8
		l-6.8,4.2l-18.4,10.5l-6.2,3.1l-15.3,7.9l-4.8,2.5l-10.7,4.8l-15.9,8.5l-8.5,4.9l-16.6,9.8l-13.4,6.7l-9.9,5.2l-2.9,1.8l-5.9,2.9
		l-18.7,12.4l-12.4,7.7l-10,9.9l-11.2,10l-9.1,9.6l-9.6,8.5l-12.3,9.5L1477.5,2373.2"/>
	<path class="st1" d="M3723.6,2474l-19,2.9l-12.4,3.6l-22.6,7.5l-4.9,1.5l-2.8,0.6l-11.1,2.8l-20.1,5.9l-5.9,1.9l-8.9,1.2l-19.8,2.2
		l-11.2,1.5l-11-1.7l-21.2-3.3l-7.7-1.2l-4.9-1.6l-14.8-4.9l-15.6-4.6l-4.6-1.4l-11.1-5.1l-12.3-5.5l-16.5-8.1l-11.6-3.6l-26-9.3
		l-2.3-0.8l-1.2-0.3l-3.9-1.2l-27.5-7.3l-7.3-2.9l-17.2-6.9l-4.1-1.5l-18.6-8.7l-8.7-3.9l-16.1-8.7l-10.5-4.6l-4.6-2.3l-16.2-9.3
		l-4.8-2.7l-18.9-11.5l-6.5-3.1l-12.8-6.5l-14.6-6.1l-6.1-2.4l-12.9-4.4l-10.7-3.3l-16.2-6.1l-12.2-5.4l-23.4-12.2l-3-1.4l-1.4-0.7
		l-5.5-3.4l-17.9-11l-16.5-10.1l-8.6-4.8l-16.2-8.6l-9.7-5.5l-5.5-3.3l-17.4-8.6l-3.5-1.6l-19-10.8l-6.8-3.3l-12.5-6.8l-13.9-6.7
		l-6.7-3.9l-19.7-9.6l-1-0.5l-19.2-10.1l-5.4-3.6l-6.9-5.4l-16.1-11.5l-11.5-10.1l-9.9-8.5l-10-9.9l-9-11.1l-11.1-16.4l-5.3-7.1
		l-3.7-5.3l-14.2-16.6l-16.6-20.2l-1.4-1.7l-1.1-1.4l-13.6-16.1l-3.6-4.1l-13.2-19.7l-3-4l-4-6.5L2775,2026l-7-11.9l-9.4-11.7
		l-11.7-16.2l-5.6-6.4l-4.4-5.6l-8.4-18.4l-1-2.1l-8-19.4l-1.2-11.4l-1.4-18.6l-1-10l-0.9-8.1l-1.4-25.2l-0.7-6.6l-0.7-5.2l-2-31.4
		l-0.4-3.3l-0.6-2.2l-2.2-8.1l-9.3-20.2l-3.5-9.3l-9.2-17.9l-2.6-6.8l-6.6-15.2l-2.5-6.1l-6.1-17.6l-5-11.2l-2-5l-2.8-9.8l-4.4-16
		l-4.1-14.2l-2.6-19l-0.4-2.3l-2.8-18.6l-0.7-15.1l-0.7-10.4l-0.7-14.4l2.9-16.6l0.9-5.8l3.1-17.5l3.9-15.3l3.8-13.1l3.1-11.5
		l1.8-6.6l6.6-18.3l3.1-11.9l0.8-3.1l4.1-8.1l7.6-16.2l9.2-15.7l5.8-9.2l9.2-11.8l8-10.9l6.3-8l6.7-18.9l1.6-3.8l6.8-17.2l1.4-9
		l6.8-28.7l0.4-2.2l0.6-1.2l1.2-2l13.2-23.5l13.6-13.2l7.4-5.7l5.7-3.2l17.5-13.5l13-8.1l9.4-6.1l1.7-1.6l2.2-1.7l19.4-16.6
		l16.6-12.6l5.5-5.2l7.5-5.5l15.1-11.8l11.8-7.5l12.8-7.7l26.2-12.8l0.6-0.3l0.3-0.1l0.8-0.4l25.4-12.9l13.7-6.9l12.5-6.8l25.9-12.5
		l1-0.6l0.6-0.3l1.6-0.7l24.9-11.8l13.4-5.2l14.9-6.4l16.5-6.3l8.6-3.5l3.6-1.5l10.4-3.6l18.7-7.1l7.1-2.3l14.6-5.1l7.9-2.9
		l17.5-5.8l11.9-4.7l24.8-8.7l3.2-1.2l1.6-0.4l8-1.6l24.7-5.6l5.6-1.1l7.1-0.4l23.9-1.8l8.9-0.4l9,0.4l22,0l8.9,0.3l8,0.6l26,2
		l5.9,0.5l5.2,0.2l31.4,2l3.2,0.2l3,0.1l35.5,1.6l1.4,0l1.3,0.1l18.5,1.3l19.1,1l1,0l1-0.1l13.8-1l23-2.1l2.1-0.1l2.5-0.3l30.6-4.4
		l6.9-0.6l7.1,0.4l27.8,2.1l5,0.3l4.3,0.4l35.4,4.1l0.2,0l0.2,0l1.8,0.2l35.4,2.5l2.5,0.1l2.9,0.2l31.7,2.5l5.4,0.4l6.7,0.9
		l25.1,1.4l8.1,1.4l13,3.5l11.4,2.5l15.5,4.9l13.7,5.8l23.1,10.6l3.1,1.4l1.3,0.4l4.3,1.3l27.2,7.2l7.2,2.1l10.7,1.4l16.7,1.8
		l12.5,1.8l19.8,5.8l0.5,0.2l19.6,6.3l9.7,3.6l22.2,9.7l5.4,2.6l2.6,1.6l12.2,8l9.5,6l18.2,13.5l4.7,3.5l5.6,4.7l18,11.6l11.6,7.7
		l13.6,7l24.2,13.6l1.5,0.6l0.6,0.3l2.1,1.1l23.5,12.2l14.3,8.5l10.3,6.9l15.3,10.3l8.9,5.4l5.4,3.7l19.7,10.6l0.4,0.2l19.9,12
		l5.2,2.8l8,5.2l17.3,9.5l9.5,6.5l12.7,11.3l12,12.7l6.7,8.5l8.5,12.4l7.6,11.4l4.6,7.6l10.5,17.1l7.4,13l5.7,9.8l1.5,2.6l2.6,4.9
		l10,22.4l3.7,10l7.4,18.8l1.5,3.8l6.8,17.3l2.6,7.9l7.9,20.8l3.1,8.1l1.4,3.1l2,6.5l6.9,20l3.7,13.4l3.7,19.2l0.1,1.7l2.9,19.1
		l2,14.1l1.4,13.1l1.7,12.7l1.4,9.5l3.7,24.6l0.9,5.8l1,3.9l3.9,15l5.3,15.8l1.4,5.3l2.8,9.5l5.2,15.8l3.9,14.6l3.3,18l0.8,4.6
		l3.1,17.3l0.9,13.3l0.9,14.3l0.9,12.3l-1,12.4l-0.6,14.4l-1.1,13l-2.8,16.9l-0.7,5.4l-3.2,17.6l-3.5,15.5l-3.5,12.3l-3,12.1
		l-1.6,7.4l-7.4,25.8l-1.2,5.4l-0.3,1.2l-0.6,2.1l-7.5,28.2l-3,9.6l-3.1,15.7l-1,7.6l-3.8,16.7l-3.2,16.2l-3.4,10.9l-3.1,12.8
		l-3.5,6.2l-6.2,9.6l-8.2,16l-5.1,8.2l-10.6,16.1l-16.1,20.7l-1.2,1.9l-1,1.2l-10.8,13l-6.2,7.6l-18.9,19.2l-0.8,0.9l-0.9,0.9
		l-17.1,21l-17.5,17.1l-2.2,3.2l-3.2,3.5l-14.3,18.9l-16.8,14.3l-4.6,4.2l-4.2,2.9l-17.1,15.7l-19.7,13.9l-3.1,2.3l-0.5,0.4
		l-0.7,0.5l-21.6,17.2l-17.2,11.4l-5.9,5.4l-7.7,5.9l-14.3,12l-12,8.6l-10.5,8.8l-14.6,10.5l-8.4,6.5l-6.5,4l-19.3,8.9l-0.8,0.4
		l-19.7,7.6l-9.8,2.8l-25.8,5.5l-4.3,1.1l-2.7,0.5l-14,2.7l-18.8,4.4l-4.4,1.1l-6.5,1.1l-23.9,3l-9.5,1.7l-11.9,0.7l-16.1,0.1
		l-12,0.7l-13.8,1.1l-11.5,0.8l-14.6,1.1l-18.6,2.8l-2.3,0.5l-19,2.5l-18.8-0.5l-2.1-0.1l-18.9-0.5l-19.2-1.3l-1.6-0.1l-19.1-1.3
		l-19.3,2.9L3723.6,2474"/>
	<path class="st1" d="M991,896.8L991,896.8l0.2-0.2l18.9-20.8l19.3-18.9l0.9-0.8l0.8-0.7l19.6-18.8l5.3-4.5l15.1-12.9l1.1-1l1.4-1.1
		l19.7-17.6l17.6-13.4l4.9-4l8-4.9l15.4-11.6l11.6-7l13.1-8.3l26.7-13l0.1-0.1l0,0l0.1,0l24.1-15.7l15.7-8.6l10.3-5.3l24.2-10.3
		l3.7-1.8l1.8-0.7l3.6-1.1l25.4-7.4l11-3.8l19.5-4.8l0.7-0.2l19.7-4.8l13.2-2.3l14.8-1.2l11.9-1.8l9.6-0.5l21.7-1l8.6-0.5l9.1,1
		l20.2,1.6l10.6,1.2l13.6,1.8l11.2,1.4l15.1,2l19.8,3l0.4,0.1l19.7,3.1l13.9,2.7l16.2,4l9.8,2.1l6.4,1.3l24.1,6.4l7.7,1.7l1.7,0.6
		l3.7,1.4l24.5,8l11.7,5l15.3,7.9l24.1,15.3l0.4,0.2l0.2,0.1l1.6,1.2l21,15.8l17.4,17.4l2.7,2.4l2.5,2.7l19.3,15.4l15.4,15.2
		l5.1,4.2l5,5.1l16,13.7l13.7,14.3l6.2,5.6l5.9,6.2l13.9,13.9l13.9,17.6l4.1,4.3l3,4.1l13.6,19.2l1.8,3.4l10.2,17.4l2.7,4.5l4.5,8.2
		l10.5,16.7l5.5,10.5l7,16.8l3.5,9.8l5.1,13.3l1.9,6.2l6.2,22.2l2.7,8.7l0.8,2.7l0.9,4.4l5.6,25.5l1.9,10l1,12.9l1.2,12.9l1,14.1
		l2.4,17.5l0.5,4.4l2.5,18l2.8,16.6l2.2,8.9l2.8,14.4l-0.2,11.8l-0.9,15.3l-0.2,12.8l-2.9,15.9l-1.5,6.6l-2.9,17.4l-3,16.6l-1.4,8.1
		l-2.7,15.2l-1.4,11.1l-2.9,20.6l-1,8.2l0.1,7.3l-1.2,26.6l0.1,6.1l-0.4,5.8l-3,31.4l-0.2,2.8l-0.5,2l-2,9.4l-4.3,24.2l-0.7,4.3
		l-1.1,6.1l-3.9,23.8l-1.9,10l-2.1,14l-1.1,10.8l-2.5,15.1l-3.2,19.1l-0.6,2.4l-3.7,18.4l-2,12.8l-4.7,19.1l-1.5,8l-1.4,5.2
		l-5.2,17.5l-3.7,13.5l-1.1,3.7l-2,6.9l-5.9,20.2l-3.8,12.8l-6.3,17l-2.7,8.6l-4.9,14.3l-2.7,6.7l-6.7,16.9l-4.4,11.8l-1.8,4.4
		l-5.3,11.5l-5,11.8l-8.6,16.5l-5.2,9.5l-9.5,15.4l-5.1,9.9l-2.7,5.1l-10.8,18.6l-1,1.7l-11.4,19.6l-3.1,5.8l-5.8,9.7l-8.2,16.1
		l-4.9,8.2l-10.1,16.7l-15.8,22.3l-0.6,0.9l-0.1,0.2l-0.2,0.2l-16.3,23.2l-13,16.3l-4.4,6.1l-6.1,7.8l-11.3,14.7l-11,11.3l-8.7,8.9
		l-8.9,7.7l-11.7,11.7l-14.3,11.7l-7.7,6.1l-6.1,4l-17,12.8l-15.2,9.3l-7.7,5l-1.7,1.1l-2.9,1.7l-22.1,13.3l-13.3,6.9l-12.6,7
		l-25.5,12.6l-1.1,0.7l-0.7,0.4l-3.1,2.1l-20.1,13.6l-16.7,10.3l-7.7,5.2l-12.3,7.7l-11.1,8.8l-8.8,5.2l-19.1,6.9l-2.5,0.7
		l-18.4,5.9l-10.9,1.6l-20.8,2.7l-8.2,1.2l-6.4,0.6l-29.3,2.2l-4.2,0.4l-3.6,0.2l-34.6,1.9l-1.7,0.1l-1.5,0.1l-37.2,0.3l-1.2,0
		l-1.2,0l-35.3-2.2l-3.4-0.1l-4-0.5l-28.8-3l-7.1-0.9l-9.7-1.8l-17.6-2.8l-12.6-2.5l-19.9-4.9l0,0l-20-5.1l-11.5-3.3l-25.6-8.6
		l-2.8-0.9l-1.4-0.5l-3.2-1.4l-25.7-9.6l-9.6-4.5l-17.4-8.4l-12.3-7.2l-10.2-5.7l-3-1.6l-4.8-3l-21.4-10.7l-10.7-6.2l-14.5-8.5
		l-19.3-14.5l-3.5-2.6l-2.6-2.5l-18.3-16.4l-17.2-18.3l-2.3-2.1l-2.1-2.3l-18-17.5l-14.9-18l-3.3-3.8l-3.8-5.2l-14-17l-10-14
		l-6.7-9.2l-9.2-15.1l-6.3-9.3l-3.5-6.3l-11.4-18.7l-2.5-4.9l-8.7-16.2l-2.6-4.9l-4.9-10.7l-8.8-15.5l-4.5-8.8l-9.4-17.1l-6.5-12.3
		l-5.7-10.5l-1.5-3.3l-3.3-8.1l-9.2-19.2l-4-9.2l-4-17.2l-1-4.6l-4.3-18.2l-2.9-14.5l-2.1-13l-2.3-12.4l-0.9-9.2l-1.3-22.8l-0.7-7.9
		l0.1-7.3l0.5-24.8l0.1-7.8l0-7.9l0.3-23.8l0-8.2l0.4-8.6l0.4-22.3l0.5-9l0.2-9.7l-0.2-20.7l0.2-9.5l0.2-9.8l-0.7-20.9l0.2-9.2
		l1.7-11l2.1-15.7l2.1-13.1l4-19.3l0.3-1.1l3.7-19.5l3.8-12.9l8.1-22.3l1.6-4.8l0.8-2.4l2.4-4.7l10.3-22.6l5.3-10.3l7.5-16.8
		l6.4-12.6l5.1-10.5l1.7-3.7l3.7-7.3l9.4-19.4l5.5-9.4l8.2-16.7l8.7-15.1l4.4-8l1.3-2.3l2.3-3.6l12.2-21.8l8.5-12.2l8.3-10.9
		l10.9-15.2l4.9-8.9l2.8-4.9l6.7-14.4l3.4-7.6l8.7-17.9l4-9.3l9.3-17.4l4.2-9l2.3-4.2l12-18.6l1-1.6l14.1-19.6l2.6-3.6l3.6-4.5
		l13-18.9l9.7-13l7.4-9.8l9.8-12.3l6.9-10.9l4.9-6.9l11.8-16.3l16.3-18.6l2.2-2.9l2-2.2l16.2-19.5l16.5-17.3L991,896.8"/>
	<path class="st1" d="M4297.4,1934.3l1.1-4.8l4.8-28l1.3-5.9l0.2-1.3l0.2-1.8l4-32.4l0.7-5.7l0.1-6.5l0-26.9l0.1-6.5l-0.6-6
		l-3.5-31.4l-0.2-2.5l-0.3-2l-2-11.6l-3-23.3l-0.6-3l-1-4.6l-4-26.8l-2.1-8.6l-4.8-15.5l-1.8-7.2l-6.4-17.2l-5.2-11.1l-11.1-19.4
		l-3-6.4l-1.9-3l-7.3-12.2l-5.6-9.9l-12.8-17.8l-3.5-5.8l-5.8-7.8l-10.3-16.1l-8.9-10.3l-9-11.7l-11.7-11.9l-7.3-9l-7.7-7.3
		l-11.4-13.5l-13.5-12.6l-6.7-7.1l-8.5-6.7l-12.3-12.4l-12.4-10.3l-9.3-8l-13.4-9.3l-9.3-7.9l-7.9-5.8l-14.9-11.2l-23.3-14.9l-1-0.7
		l-0.7-0.4l-1.9-0.9l-24.1-12l-13.9-5.9l-14.4-5.8l-17.2-6l-8.3-3.1l-3.8-1.4l-10.5-3.8l-17.8-7.7l-7.7-3.6l-18.9-7.6l-1.5-0.6
		l-19.5-7.5l-10.2-2.7l-24.7-5.1l-5.1-1.2l-3.1-0.8l-14.8-3.1l-17.7-4.3l-4.3-0.9l-6.8-1.5l-21.1-5.3l-12.1-2.6l-18.3-3.6l-2.8-0.6
		l-18.9-3.7l-14-3.3l-15.3-3.5l-10.5-2.5l-6.6-1.5l-33.1-6.3l-0.3-0.1l-0.2,0l-1.1-0.2l-32.8-5.8l-5.8-0.8l-7.9-1.3l-20.6-3.5
		l-11.4-1.8l-16.1-2.8l-6.4-1.3l-17.4-2.9l-17.1-2.5l-6.3-0.6l-16.5-2.2l-12.6-1.7l-16.3-1.5l-11.1-1.4l-8.8-0.8l-23.9-1.7l-7.2-0.7
		l-6.6,0.1l-25.8,0.9l-7.5,0.1l-8.5,0.9l-20.6,2.2l-10.8,1.2l-14.3,2.4l-9.8,1.5l-15.8,2.7l-17.2,4.2l-7.7,2.2l-15,3.9l-8.1,3
		l-18.8,8.1l-9.8,3.2l-3.2,1.3l-7.7,3.2l-17.8,6.7l-14.4,6.9l-12.8,5.8l-22.8,12.8l-3,1.3l-1.3,0.8l-5.9,3.7l-17.7,10.4l-16.3,13.2
		l-5.8,4.6l-5.9,5.8l-15.4,12.8l-12.8,14.3l-6.9,6l-6.1,6.9l-13.8,13.2l-13.2,17.3l-4.8,4.6l-3.6,4.8l-14.2,17.3l-7.2,12.6
		l-6.3,10.1l-1.4,2.4l-2.4,5.8l-10.8,20.9l-4.3,10.8l-6.7,18.1l-1.4,5.1l-5.5,16.7l-2.3,8.9l-5.6,27.6l-0.8,3.3l-0.2,2.3l-2.3,26.6
		l-1.1,9.9l-0.1,1.1l0,1.3l-0.1,37.2l0,1.4l0.1,1.4l1.4,22.8l0.7,15l0,0.7l0.1,0.8l4.7,33.5l0.9,5.5l2.1,8.6l4,18.7l3.4,12.6
		l6.1,17.8l3.2,7.5l5.7,14.6l2.7,6.2l6.2,11.1l7.2,15.4l4.5,7.2l10.3,17.9l13.7,17.9l3,4.1l0.4,0.7l0.7,0.8l15.4,23l14,15.4l4.8,5.8
		l5.8,5.5l13.9,14.7l17.6,13.9l4.3,4.1l4.1,3l17.7,15l13.5,8.9l8.8,6.1l1.5,1.2l2.4,1.5l20.4,15.7l15.7,9.4l9.3,5.5l18.3,9.3
		l7.5,4.8l4.8,2.7l19.3,11.8l0.8,0.5l19.8,11.6l5.6,2.9l12.5,5.6l14.4,7.4l7.4,3.5l19.7,9.2l0.8,0.3l19.4,8.7l7.1,3.6l15.6,7.1
		l11.3,5.8l5.8,2.8l18.7,10l1.6,0.9l19.6,10.1l6.6,3.6l14.2,6.6l12.1,7l7,3.8l18.3,10.8l6.4,3.2l15.1,7.9l4.6,2.7l10.5,4.6l16.5,8.3
		l8.3,3.4l18.3,6.7l2.3,0.9l19.3,6.3l10.8,3.5l24.3,6.1l4.7,1.4l2.5,0.8l10,2.5l20.9,6.5l6.5,1.6l10.2,2.1l15.7,3.9l14,2.6l18.9,2.2
		l1.8,0.3l19.2,2.1l16.8,1.8l6.8,0.5l16.3,1.6l13.4,1.2l14,0.9l12.5,1.1l10.6,0.7l19.5,0.8l9.8,0.6l8.8,0.4l22.6,0.3l8.5,0.4
		l8.7-0.5l21.3-1.2l9.9-0.6l12.4-2l13.2-1.8l14.2-2.4l18.8-4.6l3.4-1l17.8-4.7l9.8-3.3l24.3-9.8l4.4-1.4l1.4-0.6l3.4-1.5l23.7-9.3
		l12.8-6.2l13.8-7.2l21.7-13.8l3-1.5l1.5-1l7.9-5.4l14.6-9.6l17.5-14.5l4.4-3.5l4.6-4.4l17-13.9l13.9-14.9l5.7-5.4l4.7-5.7
		l13.9-15.6l15.6-23.7l0.3-0.3l0.2-0.3l0.9-1.3l15.6-21.6l9.6-16.9l4.9-8.5l8.5-19.6l4.1-7.7l1.7-4.1l4-9.8l6.1-14.2l6.1-15.9
		l4.5-13.4l5-18.1L4297.4,1934.3"/>
	<path class="st1" d="M728.7,2732.4l-10.5-6.4l-6.4-5l-18.3-10.1l-9.4-6.2l-12.1-7.7l-2.2-2.2l-1.8-2.2l-16.1-19.7l-19.7-19.3
		l-0.6-0.3l-1-0.6l-28.8-9.5l-9.5-2.7l-19.4-8.2l-10.6-9.6l-9.9-8.5l-0.8-0.6l-0.9-0.8l-26.6-11.5l-11.5-5.1l-18.2-5l-5-1.6
		l-16.6-4.9l-9.3-2.4l-28.7-7.5l-1.9-0.5l-1.1-0.3l-3.5-1.1l-27.5-7.8l-7.8-2.7l-13.5-3l-11.8-1.1l-14.6-4.5l-15.4-5.4l-22.3-15.4
		l-0.4-1.8l4.2-32.2l-0.8-6l0.3-5.4l5.7-23.3l0.3-11.2l-1.7-9.8l-5.7-26l-0.8-4.1l-0.9-2.4l-2.4-6.1l-6.8-24.6l-1.6-6.8l-3.7-12.2
		l-3.1-12.4l-5.5-15.3l-4.1-15l-5.9-15.8l-2.9-9.1l-0.7-5.5l-5.5-34.4l0-0.1l0,0l0,0l-3.6-36.3l-0.3-3.6l0-3.8l-1.1-31.1l0.1-5
		l-2-6.9l-6.2-19.8l-3.7-13.1l-6.4-16.7l-3.9-10.4l-4.8-12.8l-0.3-7.7l-0.1-24.7l-0.3-7.5l-0.9-6.4l-3.4-30.5l-0.4-3l-0.8-1.8
		l-1.8-3.9l-11.6-22.5l-6-11.6l-5.8-16.6l-3.5-10.3l-4.5-13.1l-1.5-7.1l-7.1-27.7l-1-4.2l-0.2-1l-0.3-1.5l-5.9-30.9l-1.6-7.4
		l-1.2-10.3l-1.7-17.7l-1.4-12l-2.1-15.5l-1.1-7.7l-2.2-16.7l-4.3-16.8l-1.8-8.1l-3.6-15l-2.5-8.9l-8.8-30.9l0-0.1l0-0.1l-0.1-0.3
		l-6.5-33l-1.5-6.5l-1.4-9.4l-0.3-20.9l-1.9-9.7l-1.7-13.3l-0.1-13.2l-2.3-13.4l0.8-14.9l0.8-10.9l0.8-14.1l-0.7-14l-0.6-11.3
		l-0.7-14.6l-0.8-16.1l-0.8-6.9l-0.8-16.9l0.6-17.1l0.4-6.2l0.6-16.7l1.3-14.7l2.3-12.8l1.3-12.4l2.8-8.2l4-27.4l1.1-4.2l0.5-2.6
		l-0.1-34.5l0.4-2.7l0.6-1.7l1.7-8.9l4.9-24.3l0.4-4.9l0.9-6.3l4.2-23.1l1.5-10.5l5.5-17.5l1.1-3.8l6.2-18.6l3.6-11.5l9.4-26.3
		l0.7-2.1l-0.1-1.4l-0.7-36.3l-0.1-2.2l0.2-2l2-15.8l2.7-19.4l0.5-2.7l0.9-4.1l4.8-26.8l2.1-8.9l0.5-11.5l0.9-15.9l0.5-12.4
		l4.2-17.1l1.1-4.5l4.4-18.3l3.9-13.3l4.7-17.9l2.4-8.7l1.3-5l5-22.6l2.5-9.9l0.8-2.5l0-3.3l0.1-33.2l0-3.4l0.4-3.8l2.5-29.9
		l0.6-6.2l4.2-11.1l4.7-13l6.4-15.8l6-11.7l11.7-21.6l2.9-3.7l2.5-2.9l10.9-16.4l2.9-4.2l10.4-19.3l3-7.2l7.2-18.2l6.9-7.6l6-6.9
		l10.2-16.8l2.9-9.2l5.8-13.9l3.7-4.3l4.3-5.2l15.1-15.2l13.5-15.1l5.5-5.7l5.7-6.9l13.3-13.9l7.7-13.3l4.9-14l14-22.2l1.7-2
		l2.3-1.7l16.6-19.2l19.2-9.3l4.2-7.2l1.8-4.2l2-8l3.6-20.4l3.7-11.6l8.8-15.9l15.9-21.9l0.9-1.2l0.7-0.9l23-15.2l15.2-6.9l10.6-7.2
		l15-10.6l4.9-9.5l9.5-12.8l9-8.6l18-9l4.8-8.2l8.2-4.9l16.7-10.1l9.7-3.3l13.4-5.8l5.7-1.9l23.5,5l10.7-1.5l9-0.2l17.3,4.7
		l13.6-0.2l17.2,3.7l4.5,1.1l18.2,3.8l15.7,2.2l9.9,1.4l14.3,2l13.5-1.2l11.1-1.8l15.3-1.2l19.2-2.7l1.3-0.2l19.4-2.6l15.6-2.3
		l11.7-3.1l12.6-2.2l9.2-1.2l27.6-6l3.1-0.5l2.1-0.6l3.4-2.1l22.3-12.1l12.1-5.2l17.3-5.3l7.8-2.5l14.8-4.6l9.4-0.8l24.6-3.4l6-0.6
		l5.4,0l29,0.1l5.5,0l8.8,3.3l16.4,5.9l14.7,5.6l18.4,1.1l3.3,0.1l18.3,1.1l19-1.9l1.7-0.2l19.2-1.8l19.5,1.6l1.1,0.1l19.4,1.6
		l14,3.7l16.7,4.8l9.2,2.5l3.8,2.8l4.3,3.8l20.9,10.9l10.9,4.8l18.4,2.7l2.7,0.5l18.8,2.6l19.6-1.1l0.6-0.1l19.7-1.1l18.8-0.4
		l2.5-0.2l18.6-0.4l19.8,1.6l0.2,0l19.8,1.9l13.8,4.3l20.8,8.6l5.2,1.9l2.3,1l3.9,2.3l22.9,10.8l10.8,5.5l16.7,6.9l10.3,3.9l12.9,5
		l6.4,1.4l30.7,6.4l2.4,0.4l0.4,0.1l0.5,0.1l35.2,3.7l4.2,0.8l5.5,0.5l28.2,0.8l6.2,0.6l5.9-1l18.4-5.9l11.2-4.4l4.4-2l6.9-0.6
		l25.5-0.6l7.5-0.7l8.3-0.1l26.1,2.9l5.5-0.1l15.8-10.3l5.1-3.2l19-15l3.8-2.1l5.7-3.8l15.6-14.8l14.8-8.4l15.9,7.3l8.3,0.2
		l15.7,3.9l7.7,4.2l30.1,5.5l2.1,0.7l1,0.4l2,1l23.6,13.3l13.3,4.1l19.2,1.8l1.2,0.2l19.4,1.6l18.2,0.7l4,0.5l17.7,0.8l16,1l9.8,1.9
		l14.1,1.1l11.6,1.5l21.2,4.4l7.2,1l6,0.1l29,1.1l4.9,0.1l4.9-0.1l30-0.1l5-0.1l2.8,2.3l3,2.8l14.2,19.9l0.1,0.1l11.3,19.9l3.6,4.9
		l4.9,6.9l10.9,17.1l6.6,10.9l9.4,12.9l12.9,17.6l5.6,3.8l7.2,5.6l17.4,9.8l9.8,5.9l18.5,2.8l2.6,0.3l18.8,3.1l15.3-6.6l20.7-15.3
		l2.1-1.9l1.9-1.5l3.9-0.6l27.8-4.2l8.1-1.1l6.8,2.5l31.8,5.4l1.3,0.4l0.8,0.2l3.6,0.8l28.5,7.1l7.1,1.3l16.9,8.6l3.9,2.1l19,8.8
		l10.5,1.6l21.3,2.5l8.1,1.1l5.1,1.8l18,5.1l13.3,3.4l3.4,0.7l9.5,5.3l13.2,7.8l17.3,8.5l11.4,2.8l20.8,3.8l7.6,1.7l6.8-0.8l25.3-1
		l7.8-1.1l12.6-3.7l11.9-2.8l15.4-5.3l15.9-3.3l13.4-5.4l10.6-3l6.5-1l26.9-6.5l5.5-1l1-0.3l1.1,0.1l37.7,0.1l1,0.1l1.1-0.2
		l35.6-2.1l3.2-0.8l5.8-1.8l27-1.3l7.1-5.2l6.2,6l11.8,6.2l13.4,8.4l8.4,1.8l19.1,10.5l1.9,0.3l18.9,6.1l6.8,5.9l4.8,6.8l1,12.5
		l-1,15.8l1.2,11.5l7.1,19.8l0.1,0.2l8.3,19.9l7.3,4.4l4.4,3.7l19.1,11l1.1,0.6l19.7,14.3l7.2-1.2l19.3-6.2l13.4-1.6l17.7-2.8
		l3.6-0.9l18.6-2.4l17.2-1.7l7.9-2.5l14.8-2.2l13.4,0.8l12.3,0.8l14.2,0.8l19.6,5.3l0.8,0l19.6,3.7l13.5,2.4l16.7,3.9l9.7,1.9l7,0.8
		l30.7,7l1.8,0.4l0.4,0.1l0.6,0.1l33.5,5.1l5.7,1l6.8,0.1l26.6-0.4l6.5,0.1l5.5-1.1l24.2-5.5l8-2.2l2.2-0.8l3.3-0.3l31-2.2l5.5-0.6
		l4.6,1.6l7.5,4.6l20.2,7.7l7.7,2.9l11.5,1l15.5,1.4l12.9,1.1l10.7-3.3l26-7.5l3.2-0.9l1.8-0.4l7-1.8l24.2-6.9l6.9-1.8l14.6-5.8
		l7.7-3.1l17.7-7l12.4-2.9l24.9-12.4l1.4-1.2l1.2-1.2l6.1-3.7l17.5-10.2l16.3-11.2l12.2,15.4l4.1,12.2l6.6,17l8.3,14.2l4.5,8.7
		l2.5,1.7l1.7,1.1l8.2,5.5l14,9.4l17.6,11.8l7.5,3l12.3,7.5l13.7,6.4l6.4,2.6l8.8-0.3l23.6-1.2l7.6-0.3l4.6-2.7l5.8-4.6L4208,642
		l15.4-13.2l4.5-6.9l3.3-4.5l14.8-17.4l17.4-8l8.9-5.6l30.1-8.1l0.8-0.3l0.6,0.1l34.7,4.1l4.7,0.5l9.8,4.7l13.9,6.4l16.2,8.2
		l11.2,4.3l27.6,11.2l0.6,0.5l0.5,0.5l4.7,3.7l17.2,13.4l18.1,15.7l3.3,2.9l3.3,3.3l0.2,6.8l-5.8,32.1l0.1,1l23.6,15.3l15.3,11
		l7.1,6.6l4.8,7.1l12.2,15.9l9.7,17.8l3.7,6.2l0.8,1.7l1.7,2.8l15.3,20l17.5,15.3l4,3.1l3.1,0.8l6.8,2.9l18.2,8.1l14.9,6l12,7
		l10.9,12l8.5,8.5l8.5,18l4.1,9.3l0.7,4.1l0.9,5.7l4.9,23.5l1.6,10.7l8.9,18.8l3.6,5.9l8.7,15.2l2.2,4.4l4.4,5.3l14.5,15.8
		l16.3,14.5l3.4,5.8l5.8,11.5l7.6,15.1l4.1,7.6l10.1,18.1l3.8,7.5l7.5,14.3l2,4.9l4.9,19.8l3.4,11.8l0.3,3.4l4.7,8.5l8.2,14.7
		l9.3,16.7l6.3,7.6l7.6,8.9l10.8,12.6l6.7,10.8l4.3,18.1l1.2,4.8l4.1,17l2.7,10.2l8.2,27.7l0.6,2l0.1,1.3l1.3,6.9l6.2,25.4l2.2,6.2
		l3.6,12l3.1,12.8l5.2,15.1l9.7,9.8l9.8,6.9l12.3,10.9l8.2,12.3l2.6,16.8l0.7,7l2.3,16.1l-8.7,17.4l-17.4,15.5l-4.1,2.9l-3.1,4.1
		l-10,17.3l-2,3.3l-9.9,19.3l-4.7,6l-6,8.4l-12.6,12.9l-8.3,12.6l-7.1,11.9l-6.5,22.6l-2.2,5.4l-1.1,2.1l-2.1,5.6l-8.5,23.6
		l-2.2,8.5l-6.8,17.5l-1.4,3.5l-6.7,18.9l-4.3,10l-10,25.5l-1.1,3.3l-0.3,1.1l-0.5,1.9l-7.8,28.3l-2.5,9.7l-0.9,13l-0.9,13
		l-0.9,13.9l2.7,12.1l3.5,19.3l1.8,8.6l1.7,5l5,14.1l6,14.8l2.2,6l10.6,18.7l0.9,1.5l10.5,19.6l2.9,6.9l6.9,13.8l7.2,12l4.4,7.2
		l10.6,17.7l6,10.4l6.8,11.7l1.4,3.5l3.5,9.6l9,17.8l4.3,9l7.2,19.4l0.6,1.7l6.8,18.8l3.1,9l9,20.2l4.6,6.2l3.1,4.6l10.1,17.8
		l1.6,2.7l9.6,19.4l0.7,10.2l-0.7,18.8l0.6,10.9l-3.9,14.2l-2.5,9l-4.4,16.7l-8.1,10.6l-10.6,9l-12.1,8.2l-12.3,12.1l-7.6,7.9
		l-7.9,8.9l-11.2,11.9l-8.9,11.2l-8.7,11.1l-11.1,13.8l-7.1,7.9l-3.2,7.1l-5.7,16l-2,5.9l-6.6,18l-0.7,14.5l-1.1,11.9l-0.7,13.4
		l-1,11.7l-2.5,19.1l-0.9,9.2l-3.2,5.1l-5.1,7.3l-11.1,16.4l-7.6,11.1l-6.1,15l-7.2,17l-3.3,7.9l-1.7,2.9l-2.9,5.2l-10.6,21.2
		l-4.7,10.6l-8.7,15.9l-15.9,18.4l-3.7,2l-6.5,3.7l-17.2,12.5l-12.5,9l-12.9,5.5l-24.5,12.9l0.5,3l6.6,27.4l1.3,9.6l-0.9,10
		l3.7,16.1l-0.6,13.8l-4.2,8.9l-0.4,22.4l-2.1,8.6l-3,3.4l-3.4,3.3l-8.6,1.9l-18.9,3.8l-12.4,2.9l-9.8-5.5l-12.2-9.8l-8.4-9.5
		l-9.5-3l-19.2-8.1l-2.6-1.1l-18.1-7.8l-9.2-1.1l-27.3-9.2l-2.8-0.7l-0.7-0.1l-0.6,0.2l-3.5,0.6l-28.4,7.3l-7.3,0l-7.3-0.1
		l-22.2,3.1l-10.4-0.1l-11.5,1.2l-13.7,3.3l-14.8,1.1l-15.2-0.7l-9.6-0.1l-15.1-0.6l-12.7-1.7l-22.9-8.5l-4.3-0.9l-2.5-0.8l-5.6-2.5
		l-23.6-8.1l-8.1-3.2l-19.7-8.3l-0.4-0.2l-19.8-8.6l-9-2.4l-25.8-9l-4.1-1.1l-1.1-0.3l-2-0.6l-30.1-5.9l-7.9-3l-10.7,0.2l-21.8,3.2
		l-7.5,0.2l-5.1,2.2l-9.8,5.1l-10.6,14.5l-14.5,24l-0.7,0.7l-1.2,0.7l-22.8,15.2l-15.2,8.8l-9.1,6.8l-18,9.1l-10.5,2.4l-2.4,0.6
		l-4,1.1l-28.7,3.2l-7.2,3.1l-15.8,13.8l-14.1,15.8l-4.1,5.8l-5.8,13.3l-12.1,8.7L3836,2892l-8.4,3.2l-3.2,3.1l-17.3,16.2
		l-13.5,17.3l-4.8,4.3l-4.3,4.2l-14.5,6l-7.6,3.3l-17.8,6.8l-11.4,3.9l-22.2,5.2l-6.2,1.8l-3.5,1l-28.1,3.5l-7.1,1.3l-1.3,0.5
		l-11,9.3l-9.4,8.4l-19.4,8.6l-9.1,2.8l-23.7,2l-7.1,1.5l-5.9-0.4l-27.2-0.8l-6.7-0.4l-8.3-1.1l-21.7-1.6l-9.9-1.6l-10.7,0.7
		l-23.6,5.1l-5.6,0.5l-5.3-0.2l-28.9-0.5l-5.8-0.2l-6.9-0.9l-21.6-4.5l-11.5-1.3l-19.1-6.4l-1.3-0.4l-19.5-7l-7.7-5.6l-7.1-7.7
		l-12.5-12.7l-12.7-8.4l-11.4-7.5l-12.9-11.4l-7.9-7.8l-7.8-9.3l-9.1-13.7l-5.6-9.1l-13-12.3l-12.3-6.9l-13.3-7.4l-24.6-11.4
		l-1.9-0.9l-0.7-0.3l-1.7-0.7l-26.5-11.1l-11.1-4.7l-14.4,1.4l-11.6,0.5l-13.9,1.2l-13.4-0.7l-12.5-0.6l-14-0.7l-17.8-7.4l-9.1-4.9
		l-12.9-6.4l-5-1.5l-16-5l-14.8-4.1l-4.1-1.3l-7.5-2.1l-24.7-0.2l-7.7-4.7l-18.6-8.8l-3.8-1.1l-17.5-6.5l-8.6-2.4l-21.6,1.1
		l-9.7-1.6l-6.7-1.4l-21.6-6.7l-7.7-4l-4-2.1l-19.4-13.2l-0.7-0.5l-19.9-12.2l-4.3-3.6l-5.6-4.3l-18.8-11.3l-11.3-3.5l-19.1-4.3
		l-1.4-0.4l-19.5-3.9l-19.4,2.9l-1.2-0.1l-19.3,5.3l-10,5.3l-13.1,10l-10.4,6.4l-6.4,3.9l-10.1-0.2l-19.9-0.3l-9.9-0.2l-9-0.6
		l-24.6-2.7l-6.3-0.5l-5.4-0.5l-30.3-5.4l-3.2-1.1l-1.1-1l-11.6-26.2l-5.6-11.6l-9.4-13.2l-13.2-21.1l-2.1-3.4l-1.2-2.1l-0.1-3.4
		l-3.1-30l-0.2-6.5l-0.1-6.8l-1.3-24.9l-0.1-8.1l-3-11.3l-4.1-13.3l-3.7-15.4l-5.4-15.5l-6.5-15.4l-3.5-9l-1.4-4.1l-4.1-10.4
		l-7.8-17.6l-4.5-7.8l-10.2-17.4l-1.8-7l-6-15.6l-3.4-6.1l-6.1-12.8l-7.6-13.4l-3.7-7.6l-16.3-12.3l-12.3-5.9l-16.9-4.8l-9.6-3.4
		l-13.5-4.3l-9.3,0.1l-21.6-0.2l-9,0.2l-18.4,12.3l-10.6,7.5l-10.9,7.7l-1.7,1.6l-1.7,1.7l-5.2,8.5l-8.6,14.3l-11.1,17.1l-4.3,7.4
		l-7.4,10.2l-8,14.3l-3.7,8l-9.5,18.8l-3.9,6.2l-8.8,14.9l-2.3,3.8l-3.8,5l-15.3,15.8l-15,15.3l-5.3,4.2l-4.2,3l-17.8,10.6l-2.7,1.6
		l-19.4,11.7l-6.3,2.5l-11.7,6.3l-11.6,10.2l-10.2,18.2l-4.3,7.2l-1.7,4.3l2,4l4,12.2l4.9,18.8l0.4,4.9l-0.9,4.5l-4.5,25.8l-1.8,7.9
		l-0.4,1.8l-9.4,11.6l-7.3,9.4l-17.3,15.2l-3.7,3.3l-0.4,0l-2.5,0.4l-33.4,3.6l-3.6,1l-6.5,1.9l-23.7,3.1l-9.6,4.5l-12.7,13.1
		l-9.6,12.7l-5.2,12.4l-12.4,24.8l-1.3,1.4l-1.1,1.3l-21.8,15.7l-15.7,13.8l-8.7,1.7l-19.9,8.7l-8.1,3.3l-3.3,3.1l-11.9,21.7
		l-3.8,11.9l-6.5,17.7l-2.2,6.7l-5.4,15.5l-3.5,6.5l-6.5,11.6l-14.2,7.6l-12.8,1.2l-13,3.8l-6.9,2.2l-17.2,6.9l-11,4.9l-4.9,2.1
		l-18.3,14.7l-14.4,11l-7.3,5.6l-1.1,0.5l-2,1.1l-26,10.8l-10.8,5.1l-15.9,8.2l-16.7,8.5l-7.3,3.8l-3.5,0.1l-32.4-0.5l-4,0.1l-5.9-2
		l-21-7l-13-4.3l-15.7-6.9l-16.1-7.6l-8.1-3.7l-3.9-0.5l-31.4-3.9l-4.1-0.6l-0.6-0.1l-0.7,0l-34.5-4l-4.7,0.1l-3,1.6l-5.3,3
		l-21.3,10.3l-10.3,4.3l-15.7,9.6l-23.7,15.3l-0.4,0.3l-0.2,0l-37.7-1.9l-2.1,0l-2,0.1l-36,0.1l-1.9,0.1l-1.4,0.5l-2.5,1.4
		l-20.2,15.9l-15.9,8.9l-13.1,2.1l-14.4,0.6l-12.5,1.6l-19.4-9.7l-2.7-1.6l-17.8-9.9l-6.2-1.7l-19.2-6.2l-10.8-3.7l-3.7-1.2
		l-4.7,0.3l-25.4,4.7l-8.5,1.3l-1.3,0.1l-1.2-0.3l-4.8-1.2l-24.8-9.1l-9.1-4.3l-12.9-13.6l-9.7-12.9l-4.6-12.8l-2.6-16.9l-2.7-10.2
		l-2.3-5.3l-5.3-15.6l-7.2-11.8l-5.5-7.2l-7.8-19.3l-19.3-20l-1.1,0.6l-23.6,14.1l-15.2,5.1l-10-10.3l-8.7-10l-8.7-12.4l-12.4-13.5
		l-5.8-8.2l-4.2-5.8l-7.5-17.5l-1.3-3.5l-9.3-18.9l0.6-12.3l0.7-14.5l0.6-13l-6.5-7.1l-7.1-7.8l-11.5-13.5L728.7,2732.4"/>
	<path class="st1" d="M4340.9,2692.5l2.1,0.1l0.1,0l0.1,0l1.1-0.1l36-2.8l2.8-0.5l8.5-5.1l14.4-8.6l17-11.1l7.1-4.7l9.8-7.1
		l9.5-13.5l13.5-19.2l3.4-3.9l3.4-3.4l22.5-10.7l10.7-8.8l9.3-11.1l5.2-9.3l8.5-16.9l2.3-8.4l5.4-14.6l3.5-5.8l5.8-7.4l15.3-11.4
		l12.4-15.3l5.9-6.3l6.3-9.4l10.6-13.6l6.5-10.6l10.9-11.9l11.9-14.2l7.3-6.5l5.3-7.3l11.5-15.8l10-18.4l3.4-5.8l0.8-1.5l1.5-7.7
		l6.1-24.5l1-6.1l6.4-13.5l4.2-8.7l8-17.7l5-9.2l9.2-15.8l7.6-7.3l11.7-7.6l11.4-9.2l9.2-9.4l8.3-13.1l4.6-8.3l12.2-14.8l14.8-20.5
		l1.9-2.7l1-1.9l1.2-4.1l8.4-23.4l3.2-12.4l-0.5-15.1l-0.3-10.1l-0.5-14.7l-3.6-10.6l-10.6-28l-0.4-0.9l-0.2-0.4l-0.9-1.5
		l-13.8-23.2l-8.3-15.2l-4.3-12.1l-4.7-20.4l-2.2-7.4l-1.4-3.9l-3.9-13.8l-5.1-17.1l-1.1-5.1l-4.2-10.4l-6.2-12.8l-5-16.7l-3.8-14.4
		l-3.2-14.2l-2.8-11.2l-1.5-7l-7-28.9l-0.8-3.3l-0.2-0.8l0-1l-0.1-37.8l0-1.1l0-1.1l1.1-20.2l1.1-17.5l0.2-1.1l0.4-1.6l6.8-29.9
		l1.9-8.4l1.6-11.9l1.8-14.4l1.8-13.7l-2.3-13.2l-9.1-22.6l-1.1-4.1l-0.9-2.1l-2.1-3.2l-11.9-22.7l-7.2-11.9l-7-13.8l-13.8-25.3
		l-0.2-0.6l-0.1-0.2l0-0.3l-1.2-38l-0.1-1.5l0.3-1.3l1.3-4.9l10-23.7l5.1-10l11.9-12.9l12.9-13.9l8.4-4.7l10.8-8.4l10-10.7l8.1-26.5
		l1.3-2.6l0.1-1.3l1.3-23.7l0.8-14.1l0-0.8l-0.1-0.8l-0.8-10.2l-2.2-26.7l-0.3-2.2l-0.8-3.3l-7.3-26l-2.3-10.6l-6.4-19.2l-0.4-1.1
		l-6.3-19.6l-4.9-9.2l-9.2-26.6l-1.2-2.9l-0.7-1.2l-4.9-6.8l-10.7-15.6l-17.5-17.5l-2.9-2.1l-2.1-1.1l-3.7-0.5l-29.9-2.6l-6.3-0.9
		l-19.1-13.6l-5.9-4.2l-14.9-10.6l-2.3-2.1l-2.5-2.3L4562,1077l-19.3-18.5l-1.2-0.9l-2.1-1.2l-22.3-14.3l-14.3-6.7l-12.5-6.5
		l-24.7-12.5l-1.7-1.1l-1.1-0.4l-2-0.5l-27.4-8.6l-10.5-2.6l-19.3-6.1l-1-0.3l-19.6-6.1l-9.7-4.5l-23.1-9.7l-4.7-2.4l-2.4-0.9
		l-8.3-4.9l-14.5-8.9l-17.2-9.1l-6.7-6.9l-5.7-6.7l-9.3-18.2l-15-18.5l-2.5-3.2l-0.1-0.7l-0.7-0.8l-13.2-25.3l-16.2-13.2l-3.8-6.7
		l-6.7-4.1l-14-15l-19.7-7.9l-6.2-3.4l-1.9-0.9l-6.1-1.9l-21.8-10l-10-2.9l-18.7-8.3l-3.7-1.1l-17.6-6.4l-6.9-4.3l-10.6-6.9
		l-13.7-8.6l-8.6-4.7l-18.3-8.2l-5.6-2.3l-16-6.8l-7.4-1.8l-24.4-7.4l-6-2l-2-0.7l-2.9-0.2l-33.1-0.9l-3.9-0.2l-3.5,0.6l-24.6,3.5
		l-10.4,1.4l-1.4,0.1l-1.4-0.1l-37.9-0.8l-0.6,0l-0.5-0.1l-4.7-0.5l-31-3.7l-3.7-0.2l-3.8,0.1l-32.6,0.4l-3.4,0.1l-2.8,0.6
		l-13.4,2.8l-20.4,3.3l-3.3,0.3l-3.6,0l-33-0.3l-3.3,0l-3.2-0.1l-35.8-2.2l-1,0l-0.7-0.2l-3-0.7l-28.6-7.6l-7.6-1.6l-11.1-1.9
		l-15.2-2.6l-13.7-2.3l-16.7-0.7l-6.4-0.1l-16.8-0.7l-18.8-1.3l-2.3-0.1l-18.8-1.4l-17.6-2.1l-5.5-0.7l-16.8-2.1l-14.3-0.4
		l-11.8-0.4l-13.9-0.4l-14.4,1l-10.5,0.7l-15.1,1l-16.4,0.3l-6.7,0.5l-16.9,0.3l-15.7-1.5l-8.6-0.2l-15.5-1.3l-12.9-1.4l-16.8-2.7
		l-10.2-1.2l-8.4-0.6l-30-6.9l-1.5-0.2l-1.1-0.3l-3-1.1l-22-13.8l-13.8-8.8l-14.3-3l-13.3-2.1l-12.2-2.4l-13.1,3.2l-11.2,2.6
		l-15.7,4l-19.7,0.6l-0.5,0l-19.7,0.6l-13.8-7l-20.6-13.8l-3.5-2l-2-1.2l-5.3-2.1l-21.1-8.1l-13.4-5.5l-18.1-2.9l-4.4-0.7l-17.4-2.8
		l-14.7,0.1l-10.4,0.2l-14.9,0.1l-17.1,2l-5.2,0.6l-17.7,2.1l-18.8,1.3l-2.6,0.3l-18.5,1.4l-16.4-6.4l-13.3-6.3l-10.1-4.4l-2.5-3.2
		l-1.8-2.5l-16.2-19.4l-19.4-16.6l-3-0.8l-16.7-3l-17.3-2.9l-2.9-0.4l-2.6,0.7l-5.3,2.6l-21.3,10.8l-10.8,8.4l-16,4.8l-14.8,6.8
		l-9.2,3.5l-15.3-9.7l-6-3.3l-18.6-17.9l-2.2-1.2l-8.1-2.2l-26.2-3.4l-3.4-0.4l-2.9,0.9l-7.8,2.9l-20.5,8.7l-8.7,0.6l-8.2-1.1
		l-27.3-3.8l-4.4-0.6l-2.9-0.9l-6.4-2.9l-20.1-10.5l-10.5-6.6l-12.3-10.4l-18.5-12.3l-5.3-3.8l-3.8-1.7l-18.2-12.8l-2-1.5
		l-19.7-10.8l-5.1-4.3l-3.4-5.1l-7.6-16.1l-2-5.8l-14.1-18l-3.8-3.9l-3.9-1.9l-8.2-2.4l-17.4-6.1l-14.3-3.6l-16.9-5.2l-20.3-16.9
		l-1.4-1.3l-1.3-0.8l-4-1.8l-22.8-9.2l-13.2-7.4l-13.8-5.5l-19.3-13.8l-4.6-2.2l-2.2-1.2l-2.5,0.8l-9,2.5l-19.5,8.9l-8.9,2.2
		l-16.8,12l-8.9,2.6l-14.2,6.2l-10.1-2.1l-15-4.7l-14.8-2.3l-17-5.7l-7.7-1.9l-15.2-4.4l-10.6-0.2l-18.8-0.1l-10.5-0.2l-10.5,0.1
		l-17.8,1.1l-11.6,0.1l-10.7-1l-19.2-0.6l-10.1-0.9l-8.3-0.9l-25.1-1.8l-6.5-0.7l-4.9-0.9l-32.9-2.9l-2.1-0.3l-1.5-0.2l-11.2-1.5
		l-23.3-3.9l-3.9-0.6l-5.7-1.2l-23.5-5l-10.7-2.3l-14.6-1.6l-9.6-1.2l-15.8-1.7l-19.8-2.6l-0.3,0l-19.8-2.5l-12.8-4.5l-23.4-9.1
		l-3.7-1.4l-1.8-0.5l-5.3-1.8l-23.2-9.7l-9.7-3.8l-16.9-3.4l-5.2-0.9l-17.8-3.8l-14.7-3.5l-13.2-2.8l-12-2.7l-8.6-0.7l-22.8-0.1
		l-8.5-0.6l-7.3-0.6l-27.6-2.3l-5-0.4l-3.6-1l-12.2-3.6l-18.8-5.2l-5.2-1.7l-7.4-0.5l-24.3-0.7l-8.2-0.6l-8.5,0.2l-24.3,1.4
		l-7.1,0.2l-6.4,0.6l-30.4,3.2l-3.1,0.3l-2.6,0.3l-15.4,2.6l-18.8,3.2l-3.2,0.6l-3.4-0.3l-26.2-3.4l-9-1.3l-1.3-0.3l-1.6,0
		l-29.6,1.6l-8.4,0.4l-0.4,0l-0.6,0.2l-28.7,10.1l-10.7,2.9l-15.6,2.1l-7.4,1.2l-16.9,2.1l-19.3,1.6l-1.7,0.3l-18.9,2L975,322
		l-8.3,0.7l-15.5,0.8l-14.3,0.4l-11.6,0.2l-14.1,0.4l-10.5,3.2l-28.3,9.4l-1.1,0.4l-0.6,0.2l-2,0.6L844.4,351l-12.9,6.8l-12.3,8
		L802.6,378l-5.7,5.3l-5.3,4.8l-15.1,14.7l-17.7,15.1l-4.5,2.6l-2.6,0.9l-5.2,1.8l-22.8,6.6l-11.8,4.7l-14.3,9.1l-17.1,14.3
		l-4.7,3.8l-3.8,4.2l-13.2,18.8l-4.9,13.2l-8.4,13.4L632,531.5l-2.6,3.5l-1.7,2.6l-5.3,9.6l-7.6,13.1l-8.4,17.2l-3.4,10.9l-5,23.1
		l-1.6,5.9l-1.4,2.9l-2.9,6.5l-9.9,20.7l-3.9,9.9l-10.1,16l-8.1,16l-4.3,7.9l-1.3,2.3l-2.3,3l-16.9,11.7l-3.6,2.4l-19.4,14.3
		l-5.1,1.2l-12.5,5.1l-16.6,5.8l-5.8,5.4l-18.9,7.7l-1.5,0.6l-19.5,7.9l-7.7,4.9l-14.6,7.7l-10.6,7l-7,6.4l-11.7,14.7l-6.6,11.7
		l-5.5,16.1l-1.6,9.3l-3.8,14.5l-3.5,7.2l-7.2,13.2l-7.3,12.3l-5.2,7.3L328,912.1l-15.3,17.7l-2.5,4.4l-1.1,2.5l-0.1,3.7l1.6,34.1
		l-0.1,2.1l0,2.2l-0.2,35.4l0,2.3l-1.2,3.5l-8.3,24.5l-3.8,11.8l-6.5,17.8l-2.1,6.4l-5.4,15.7l-3.6,6.8l-6.8,17.1l-4.4,11.6
		l-1.3,4.4l-4.1,9.9l-5.9,14.3l-6.5,15.8l-4.2,13.4l-6.6,19.6l-2.2,6.8l-0.1,4.5l-0.4,31.3l-0.1,4.1l1.1,5.1l5.4,24.2l2.3,10.6
		l2,14.8l1.4,8.9l2.1,16.2l-0.8,17.4l-0.2,5.2l-0.8,17.3l-2.3,14.2l-2.4,13.9l-1.9,11.8l-1.5,8.4l-4.4,27.5l-0.7,4l-0.3,3l-2,36
		l-0.1,0.9l0,0.9l1.6,36.6l0.1,2.5l0.3,2.8l2.8,31.5l0.5,5.6l-0.4,5.7l-2.8,31.3l-0.2,2.9l-0.1,2.6l-1.6,36.4l0,1l0,1l0.6,37.4
		l0,1.6l0.3,1.9l4.9,31.2l1,6.8l3.7,11.5l3.9,13l5.2,15.4l3.1,16.3l2,9.4l2.8,14.2l2,9.4l5.6,26.7l0.8,3.8l0.5,2.5l2.5,13l3.7,20.7
		l0.6,3.7l0.7,5l3.8,26.1l1.2,8.8l4.1,14.1l2.7,9l4.8,16.8l4.5,13.8l4,16.2l2.8,9.8l0.9,6.1l6.1,32.8l0.2,0.9l0,0.2l0,0.2l5.5,34
		l0.9,5.7l3.4,10l4.8,15.1l5.4,14.8l6,13.7l13.7,23.8l1,1.5l0.7,1l2.1,3.7l11.2,21.2l9.7,15l3.6,11.6l9.6,26.3l0.7,2l0.2,1.2
		l1.2,4.8l6.5,27.4l1.3,6.5l1.7,9.5l2.9,17.9l2.3,12.4l9.1,16.1l8.8,16.5l4,7.3l0.9,2.4l2.4,4.6l10.7,22.2l6.7,10.7l9.1,13.4
		l13.4,11.8l7.5,7.2l11.9,7.5l10.9,9.6l9.6,6.9l13.1,10.3l19.5,13.1l4.1,3.2l3.2,2.2l10.7,5.2l11.6,6.9l17.6,5.8l13.2,3.4l17,3.5
		l9.7,2.3l6.4,1.1l32,4.9l1.5,0.2l0.9,0.3l3,0.9l25.5,10.5l10.5,4.7l15.8,8.9l23.8,15.8l0.2,0.1l0.1,0.1l1,0.8l21.7,16.2l17.2,11.1
		l7.7,3.9l19.7,7.7l8.2,4.2l4.2,1.9l17.6,11.5l3,1.8l19.4,17.6l1.3,1.7l1,1.3l18,19.6l10.6,11.3l8.4,9l0.3,0.3l0.3,0.2l1.2,0.7
		l22.2,15.3l16.5,6.2l10.9,6.3l19.7,10.9l5.3,4l4,2.7l17.7,15.6l18.8,14.3l3.4,2.6l0.5,0.2l1.1,0.5l26,12.3l12.3,6.8l15.6,5.2
		l20.9,15.6l1.2,2.1l2.1,2.9l7.4,2.3l19.2,6l13.4,4.3l17.7,0l4.6-0.1l17.6,0l14.5-3.2l12.1-1.1l13.3-2.4l8.7-2.3l28.5-6l2.7-0.6
		l1.7-0.4l7.4-1.7l27.1-3.7l3.7-1l4,0.7l10.8,4l17,8.1l8.1,3.5l12.7,1.1l13.6,1l13.7,1.3l14.3-0.6l12.1-0.9l13.5-0.6l10.4-2.5
		l26.1-10.4l2.4-1l1-0.4l15-23.5l10.2-15l5-9.7l9.7-16.9l5.4-8l4-5.4l11.2-19.4l8.5-9.6l9.3-10.9l1.1-0.5l0.5-0.3l18.6-20.4
		l16.4-18.6l2.4-2.5l2.5-2.4l17.9-17.1l21.3-17.3l0.7-0.5l0.1,0l1.1-0.1l36.3-2.4l2.4-0.5l3.7-0.7l28.9-3.7l7.4-1.8l16.4-7.2
		l4.7-2.5l18.8-6.2l15,0.1l9.5,0.4l15.4,0.1l17.9,2.4l3.9,0.3l18.1,2.8l16.9-4l9.3-3.2l13.7-3.9l6.4-3.5l5.2-6.4l11.5-16.8l2.2-8.6
		l5.9-14.6l3.5-5.1l5.1-6.8l13.9-14l14.9-13.9l6-5.1l5.1-3.3l18.2-9.8l2.2-1.2l19.4-10.1l6.9-3.5l11.6-6.9l13.6-7.7l7.7-4.4
		l17.3-10.4l16-10.8l6.5-4.3l1.3-1l1.1-1.3l7.1-9.5l9.1-11.9l12.1-18.6l3.7-5.6l5.6-6l14-14.3l15.7-14l5.7-4.5l4.5-3.2l17.3-15
		l21.7-17.3l0.5-0.4l0.4-0.3l1.4-0.7l23.8-13.4l14.7-6.8l14.9-3.4l11.1-1l13.9-2.6l10.5-0.8l21.9-3.1l7.4-0.6l7,0.2l31.7-5.7l1.3,0
		l2.1,0.7l25.8,10l12,3.9l17.2,6.7l7.8,2.4l14.8,5.1l6.4,3.3l9.7,6.4l14.1,9.8l9.8,7.2l13.3,9.6l16.5,13.3l4,6.1l6.1,8.6l11.6,13.6
		l7.2,11.6l9.1,12l12,14.9l6.5,6.5l6.7,6.5l14,12.8l12.8,11.3l8.2,7.6l6.3,8.2l11,14.3l14.3,20.4l2.4,2.8l2.2,2.4l17.4,17.9
		l17.9,16.2l3.6,2.2l8.3,3.6l16.7,11.3l11.3,3.6l13.9,11l23.2,13.9l1.9,0.9l0.9,0.3l1.7,0.5l28.2,8.3l10,2.5l16.9,10.5l15.1,9
		l7.9,4.7l1.9,1.2l3.2,1.9l22.8,11.9l11.9,4.4l18.6,5l4.1,1.3l17.2,5.1l8.1,4l16.1,8.1l10.2,5.5l5.5,2.8l16.3,8.1l4.8,2.4l18.7,9.4
		l8.4,3.4l21.7,8.4l6.5,3.4l3.4,1.8l7.3,2.1l17.7,7.6l14.9,2.8l14.6,7.6l19.4,8.7l5.9,2.8l2,1.1l3.3,2l21.9,12.6l12.6,5.4l16.4,5.4
		l10.5,3.5l12.9,4.3l7.1,1.6l27.6,7.1l4.2,1l1,0.3l1.5,0.1l35.2,1.8l3.2,0.3l4,0.5l29,2.8l6.8,0.9l8.2,0.4l22.8,0.7l8.9,0.5
		l11.2,1.8l15.1,2.4l13.6,2.2l18.7,5.3l4,1.6l17.1,5.8l8.8,2.5l30.3,8.8l0.6,0.2l0.2,0.1l0.8,0.5l22.7,15.5l16.4,9l10.7,3.8
		l27.1,10.7l1.6,0.6l0.6,0.2l0.8,0l18-0.8l20.1-1l1-0.1l2-0.9l25.5-10.5l12.4-5.7l11.6-10.2l12.2-11.6l6.5-9.5l9.5-12.7l6.9-10.7
		l5.9-6.9l17.1-10l10-3.9l19.9-6.1l0.1,0l19.9-5.7l11.7-2.5l21-4.5l7.2-1.5l4.4-1.3l11.9-4.4l19.1-4.5l4.5-1.2l8.5-2.8l17.4-5.4
		l14-4.9l16.2-4.9l11.3-3.8l12.4-3.9l6.2-2.2l12.4-6.2l14-7.3l7.3-4.5l17-11.1l17.7-11.9l5.2-3.4l1.2-0.6l2.5-1.2l26.1-10.1
		l10.1-3.3l16.2-2.8l6.3-1.2l17.4-2.9l19.3,1l1.3,0.1l19.2,1l14.7,3.5l15.8,5.4l9.4,2.6l5.6,1.1l18.3,5.6l11.9,4l4,1.5l7.9,2.3
		l19.6,4.6l12.5,4.4l16.5,6.6l12.9,6l10.5,4.6l5.2,0.7l33.3,3.8l1.4,0.2l1.3,0L4340.9,2692.5"/>
	<path class="st1" d="M2866.7,861.4l3.1-1.5l5.2-3.1l7.7-16l1.4-6.4l17.7-12.8l4.7-3.9l0.5-0.3l2.3-0.5l29.9-7.2l7.2,0l12.4-5.3
		l10-5l17.4-5.7l12.1-4.6l19.6-4l8.1-2.4l5.6-0.1l26.1,2.5l8.1-0.1l8.1,0.1l22.3,1.4l9.5,0.1l11,1.4l15.6,2.3l13.3,1.7l13.6-1.3
		l13-0.4l13.3-1.1l10.6-1.6l20.2-1.4l9.2-1.2l6.6-1.4l23.2-6.6l7.8-2.3l2.3-0.4l2.7,0l32.7-1.8l4.5,0l3.7,0.8l10.4,3.7l18,7.7
		l7.7,2.8l12.5,2l12.7,2.1l14.6,2.2l15.2-1.7l10.8-1.2l14-1.6l12.5,0.1l14.8,0.1l12.6,0.1l13.6,0.9l11.7,0.9l14.5,1l15.5-0.1
		l8.9,0.1l15.6-0.1l15.9,0.4l7.7,0.4l16.3,0.4l18.4,1.7l2.9,0.3l18.6,1.7l16.1,3.5l10,2.2l13.8,3l10.8,0l17.9-0.5l11.2,0l11.4-0.3
		l16.5-0.5l11.9-0.3l12.2,0l16.6,1.1l11.1,0l9.9,1.1l23.9,3.9l6.1,0.7l4.2,1.1l11.6,4.2l17.6,6.5l6.5,3.1l13,3.5l11.2,2.6l15.7,4.5
		l19.5,0.2l0.9,0l19.5,0.2l18.9,0.4l2.2,0.1l18.8,0.4l15.2,3.2l11.8,2.3l12.9,2.6l7.4,2.8l25.6,7.4l5.6,1.2l1.2,0.4l2.6,1l25.7,9.1
		l11.6,4.8l15.7,7.7l16.9,8.4l7.3,3.6l2.5,1.2l4.5,2.5l21,11.9l11.9,7.5l10.3,10.2l9.3,10.3l9.1,11.2l11.2,15l5.8,7.9l4.1,5.7
		l13.9,16.2l16.2,18.5l2.8,2.4l3.4,2.8l20.2,13.6l13.6,9l11.2,6l18.6,11.2l6.6,3.5l3.5,2l9.9,4.4l14,6.1l16,7.6l12.1,4.2l27.1,11.5
		l0.7,0.3l0.3,0.1l0.5,0.3l28.9,10.2l10.2,4.3l16.8,8.5l22.8,16.8l0.2,0.1l0.1,0.1l1.2,1l21.1,16.3l17.6,13.9l5.1,3.3l7.4,5.1
		l16.7,10.8l10.8,6.9l14,8.2l21.6,14l1.4,2.8l2.8,6.3l7.7,23.1l2.3,7.7l1.2,11.3l1.7,15.7l1.4,13l-0.9,13.5l-4.6,17.5l-0.8,8.9
		l-1.7,6.4l-6.4,13.3l-4.7,15.6l-1,4.7l-1.8,7.6l-4.9,19.9l-3,12.4l-7,17.5l-2.5,7.4l-5.4,15l-1,8.6l-0.9,23.7l-0.8,7.7l0.8,7.7
		l2.7,21.9l1,10.4l5.9,17.2l1.4,4.1l6.6,18.6l4.2,10.5l10.5,29l0.1,0.2l0,0.1l0.1,0.2l9.9,29.5l4.7,10.2l4,18.8l0.6,1.7l2.9,19.4
		l1.3,16.3l-0.4,6.9l1,16.7l0.5,15.2l0.3,9.8l0.5,14.9l0.3,14.1l0.3,11.9l0.3,13.8l1.9,11.7l4.5,21l1.3,7.2l0.9,5l5,25.7l1.5,7.7
		l0.3,1.5l0.3,2.1l3.4,32.3l0.8,5.5l0.6,6.9l1.2,24.9l0.8,8.1l0.5,9.4l-0.7,21.8l0.5,8.7l1.5,10.8l0.7,17.7l2.1,11.4l3.4,16.9
		l0.6,5.4l4.3,17.6l1,17l0.3,6.1l1,16.7l-7.1,17l-2.9,8.7l-5.2,14.1l-4.4,4.6l-4.6,5l-13.2,17.1l-8.1,13.2l-6.1,12.4l-12.4,26.8
		l-0.2,0.4l-0.1,0.2l-0.3,0.7l-10.4,28.2l-5.3,11l-9.9,13.7l-13.7,17.3l-5.1,3.8l-7.6,5.1l-13.4,13.9l-7.5,19.6l-3.4,6.4l-1.3,1.7
		l-1.7,2.2l-19.3,16.8l-5.8,4.4l-14.8,11.5l-2,1.4l-3.4,2l-20.4,14.2l-14.2,9l-11.4,5.3l-22.9,5.8l-5.6,2l-2.4,1.3l-7.2,2.4
		l-14.6,15.7l-15.7,11.4l-4.6,8.2l-5.4,4.6l-11.6,18.3l-18.3,13.1l-5,3.6l-13.3,5l-14.9,6.7l-6.7,3.1l-7.5-2.3l-28-3.1l-4.4-1
		l-5.5,2.1l-19.4,9.5l-15,4l-12.5,8.4l-25.7,10.9l-1.6,0.8l-0.7,0.1l-8.4,0.7l-28.3,2.6l-2.6,0l-2.4-0.2l-35.3-0.1l-2.2-0.2
		l-2.2,0.1l-31.4,4.2l-6.4,0.3l-8.1,1.4l-19.5,4.3l-12.3,1.9l-18.2,3.9l-2.9,0.7l-18.9,3.9l-13.1,4.1l-19.7,6l-7.1,2.2l-3.5,1.4
		l-7.2,3.5l-16.5,12.7l-12.7,7.9l-14,5.2l-18.8,6.9l-7.1,2.6l-3.7,0.8l-9.9,3.7l-19.2,7.1l-7.1,2.9l-15.4,5.4l-6.7,2.4l-17.8,6.1
		l-14.2,1.8l-12.4,0.9l-13.3,1.6l-10.5,1.3l-22,3.1l-7.4,0.9l-6.4,0.1l-28.4,1.3l-5.1,0.1l-4.5,0.6l-35,4.2l-0.3,0l-0.2,0.1
		l-1.1,0.2l-30.1,8.5l-8.5,2.4l-18.4,7.5l-2.2,0.8l-19.3,8.3l-9.5,2.8l-27.4,6.4l-3.1,0.8l-3-0.7l-27-6.9l-9.9-2.4l-15.4-3.1
		l-7.6-1.5l-16.9-3.5l-16.2-3.3l-9.8-2.2l-14-3l-8.7-2.3l-25.8-8.7l-4.1-1.3l-1.3-0.4l-2-0.3l-31-5l-6.9-1.1l-8.6-0.6l-22-0.7
		l-9.3-0.7l-10.1-0.1l-20.6,0.8l-9.3-0.1l-11-1.6l-15.3-2.6l-13.6-1.8l-18.3-6.1l-4.7-1.4l-16.9-5.4l-7.6-3.9l-14.9-7.6l-11.7-5.7
		l-5.7-2.5l-15.6-7.5l-5.8-2.9l-18.5-8.4l-8.8-4.2l-14.4-8.8l-9.3-7.5l-7.5-4.6l-19.5-8.3l-1.5-0.6l-18.9-7.7l-7.2-4l-11.1-7.2
		l-12.4-9.2l-9.2-7.9l-13.7-9.1l-21-13.7l-2.8-2.4l-2.4-2l-7.4-3l-18.4-6.8l-14.2-6.3l-9.4-10l-9.6-9.4l-11.1-9.9l-9.9-8.6l-11.5-10
		l-12.6-11.5l-9.2-6.6l-6.6-5.9l-17.6-9.7l-19.7-17.6l-1.5-1.1l-1.1-1.1l-18.3-19.5l-14.8-18.3l-3.8-3l-3-2.6l-18.5-13l-1.8-1.2
		l-19.6-18.1l-1.1-1l-1-1.1l-23.3-14.5l-14.5-10.3l-9.3-5.9l-13-9.3l-11.4-6.2l-6.2-3.3l-18.8-9.4l-1.5-0.7l-19.5-11l-5.9-3.5
		l-6.7-5.9l-12.8-14.6l-14.6-14.4l-6.7-4.3l-10.2-6.7l-13.6-9.4l-9.4-7.7l-12.6-10.2l-12.7-12.6l-6.9-7.7l-7.7-5.9l-18.4-7.9
		l-6.3-3.2l-15.2-7.3l-6.1-1.8l-18.3-6.1l-11.6-3.9l-3.9-1.7l-5,0.6l-34.3,5l-0.5,0.1l-0.1,0l-0.1,0l-30.9,8.8l-8.9,2.6l-18.9,9.5
		l-6,3.8l-15.1,9.1l-3.8,2.2l-5.4,3.8l-21.8,8.9l-8.9,4.7l-17.5,8.8l-18.9,17.5l-2.1,1.4l-1.4,1.1l-11.9,9.4l-9.1,7.1l-19,16.4
		l-2.8,1.8l-3.9,2.8l-22.3,10.9l-10.9,5.8l-14.5,8.7l-23.2,14.5l-1.2,1l-1,0.9l-18.4,19.6l-17.8,18.4l-1.7,2.1l-2.1,2.2l-16.6,19
		l-9.8,16.6l-6.8,6.7l-6.7,5.8l-17.1,10.3l-12.8,7.1l-10,5.7l-4.4-0.1l-33.2,2.2l-2.3-0.1l-1.8,0.6l-6.3,1.8l-20.3,11.5l-11.5,9.9
		l-18.1,0.5l-2.7-1.1l-19.2,0.2l-14,4.9l-15.6,3.8l-10.3,3.1l-3.9,3.3l-4.4,3.9l-15.3,16.3l-16.3,9.4l-10.2,4l-26,10.2l-2.6,1
		l-1,0.5l-4,2.5l-20.2,11.7l-15.7,12.5l-6.7,5l-16.6,6.7l-12.7,3.9l-3.9,1.3l-9.1,3.8l-15.4,6.3l-15.4,6.6l-10.2,7.7l-15.4,10.2
		l-8,6.3l-6.3,4.4l-17.5,11.7l-13,8l-9.4,5.9l-2.3,1.2l-3.9,2.3l-20.6,13.1l-13.1,8.9l-14.4,3.5l-14.6,3.5l-10.9,2.6l-7,1.3
		l-31.6,5.7l-1.3,0.2l-0.9,0.2l-2.4,0.9l-26,10.6l-10.6,4.7l-18.9,5.7l-3.4,1.3l-17.6,5.9l-7.6,4l-15.7,7.6l-11.5,5l-5,1l-6.4,0.4
		l-21.8,5.3l-11.7,0.6l-11.1-1.2l-21.2-3.5l-7.6-0.9l-5.8-0.9l-27.3-5.8l-5.1-1.7l-1.7-0.6l-5-2.8l-19.5-10.3l-15.3-10l-8.1-6.5
		l-9.7-8.1l-11.6-10.5l-10.5-8l-14.8-6.6l-17-6.7l-8.1-3.4l-2.4-2.3l-2.4-2.4l-20.6-14.5l-14.5-9.1l-8.8-7.5l-12.4-8.8l-11.7-7
		l-7-2.9l-19.8-10.2l-0.8-0.4l-19.4-10.8l-5.8-2.7l-9.2-5.8l-16.1-8.9l-8.9-3.4l-19.7-7.9l-0.8-0.4l-19.4-8.2l-7.6-3.6l-14.2-7.6
		l-12.2-5.9l-5.9-3.2l-16.2-7.1l-5.4-2.2l-18.4-9l-9.1-3.5l-20.5-9.1l-7.3-3l-3-1.2l-5.5-1.3l-24.2-4.7l-10.2-2.5l-19.2-6.4
		l-1.2-0.4l-19.5-7l-8-5.4l-11.4-8l-10.5-10l-10-10.2l-10.3-9.4l-10-10.3l-8.4-11.2l-11.2-16.4l-4.4-7.9l-2.3-4.4l-3.1-9.8l-5.3-15
		l-4.4-15.1l-3.2-17.2l-1.1-6.7l-2.9-16.1l-3.7-9.5l-9.4-30.3l0-0.1l0,0l0-0.1l-14.3-25.5l-8.7-14.3l-6.8-10.1l-10.1-13.3l-8.2-8.3
		l-8.6-8.2l-10.3-12.8l-12.8-15.6l-3.9-7.7l-1.8-3.9l-1.4-7.1l-4.3-21.4l-2.2-11.4l-4.1-17.7l-0.9-3.6l-4.2-18.6l-3.9-13.2
		l-5.1-18.5l-2.3-8.2l-1.6-4.2l-4.2-12.7l-5.4-17.6l-1.5-5.4l-1.5-8.3l-4.2-19l-2-12.5l-2.4-16.9l-0.8-5.2l-2.4-17.7l-2.3-17.4
		l-0.6-5.7l-2.1-16.8l-2.1-12.6l-3.7-18.4l-1.6-8.9l-1.4-6l-6-17.7l-4.6-11.7l-1.6-4.6l-0.8-7l-2.1-23.9l-1.1-9.1l-0.2-10.4
		l-0.4-18.7l-0.2-10.8l-0.1-11.1l-0.7-16.9l-0.1-11.9l0.2-11.8l-0.5-15.7l0.2-12.4l-1.3-13.5L298,1550l-1.4-14.8l0-16.1l0.2-7.8
		l0-16l2.9-13l7.4-21.3l1.5-5.6l0.7-3.4l3.4-14.4l3.4-18.8l0.7-3.4l0.5-4.5l2.3-28.5l0.7-6.8l1.1-8.7l2-20.6l1.4-10.6l0.2-12.3
		l-0.5-15.8l0.2-11.8l-1.2-10.8l-2.7-21l-0.9-8.1l0.5-7.7l1.4-23.1l0.7-9.1l2.8-12.6l2.4-12.3l3.6-15l6-15.3l6.2-15.5l3.6-9.1
		l1.9-3.6l3.6-6.9l10-19.4l5.2-10l6.7-18l2.6-6.6l5.9-15.3l2.7-6.7l6.7-15l5.4-12.9l2.3-5.4l3.8-11.5l4-13l5.5-15.5l5.1-13.8
		l9.5-21.7l1.8-4.4l0.9-1.7l1.7-2.6l14-21.6l10.7-14l6.8-8.4l8.4-7.7l11.5-12.2l9.1-11.5l8.9-10.4l10.4-11.2l9.3-9l10.2-9.3
		l10.3-10.1l10.1-9.5l13.4-6.9l26.2-13.1l0.3-0.2l0.1-0.1l0.1-0.1l0.3-0.5l15.7-23.3l8.5-16.1l5.8-9.5l9.5-19.9l3.4-7.2l1.4-3.4
		l7.7-12.5l5.8-9.1l10-18.3l3.9-7.7l7.7-13.9l8.3-10.1l7.3-8.3l10.4-13.9l13.9-19.4l3-3.6l2.3-3l17.3-17.3l17.3-13.9l5.9-2.8
		l26.3-5.9l6.1-1.7l1.7-0.1l2.2-0.4l28.2-7.3l9.5-1.5l17.7-11.2l20.9-17.7l0.6-0.7l0.7-0.5l3.7-2.5l19.2-13.3l17-9.6l10.2-3.2
		l27.5-8l2.2-0.7l1.3-0.3l6-1.3l25.7-6.9l6.9-2l14.6-5.7l8.3-2.5l17.1-8.8l13.7-0.4l12.5,0l13.7-0.4l12.5-0.9l13.9,1.1l13.6-0.7
		l8.4-4.4l13.6-8.4l8.8-9.1l9.1-5.2l16.5-9l8.3-1.5l15.1-5.1l9.1-0.9l26-4.4l4.8-0.5l3.9-0.3l34.5-3.9l1.3-0.1l0.1,0l0.2,0l32.1-7.4
		l7.6-1.7l10.4-1.2l16.6-2.4l12.8-1.3l11.9,2.3l17,0.8l11.1,1.7l8.9,0.5l22.8,0.7l8.2,0.5l6.8,0.9l30.8,4.5l2.3,0.3l1.6,0.3l8.6,1.6
		l25.3,4.4l4.4,0.5l5.8,0.9l24.7,3.6l9.4,1.4l13.2,2.4l10.9,2.5l15.8,2.5l17.5,4.1l6,1.1l16.4,3.5l11.1,1.8l22.8,5l6,1.1l4.3,0.6
		l24.9,4.3l9.1,1.7l1.7,0.4l2.4,0.4l30.9,4.2l6.6,1.1l9,1.4l18.9,2.9l11.9,1.8l18.1,4.4l3,0.8l18.8,4.3l14.5,2.2l13,2.2l12.3,1.9
		l8.9,1.5l28,5.9l3,0.5l2.3,0.2l12.5,2.3l21.3,3.9l3.9,0.9l5.6,0.8l25.6,3.1l8.7,1.4l16.9,6.8l4.4,1.7l18.6,7.7l9.5,4.1l19.2,9.5
		l6.9,4.3l4.3,3l16.5,16.2l17.1,16.5l3.5,2.8l2.8,2l10.3,5.5l12.7,6.7l16.9,9.4l11.5,2.1l21.8,4.8l6.6,1.3l4.6,0.7l16.2,4.6
		l15.4,3.7l3.7,1.2l7.7,2.7l18.4,6.1l13.8,5.3l15.8,5l14.4,6.1l9.7,3.6l4,2.1l4.8,4l14.7,16.4l16.4,21.5l0.8,1.2l0.6,0.8l1.9,3.3
		l11.4,21.9l11.3,14.7l1.5,12.5l12.5,20.9l2.8,3.7l4.4,2.8l0.9,8.1l-8.2,3.5L2370,755l-2.5,1.8l-19.6,1.9l-12.2,6.2l-23.5,8
		l-4.2,1.7l-1.4,1.1l-1.6,1.4l0.7,2.2l2.2,6.9l13.8,16.9l9.2,13.8l11.4,5.5l5.5,5.2l16.9,12.3l4.3,16.9l-6.3,14.9l-0.7,10.9
		l-3.6,14.1l0.8,11.3l1.9,15.3l0.8,13.3l11.4,14.5l14.5,16.8l5.5,3.2l9.3,5.5l18,7.1l7.1,2.6l9.7,0l21.9-1.4l8.3,0l7.1-1.3l25.8-7.1
		l4.5-2.6l2.6-2.4l6.7-1.7l17.2-9.4l16-1.8l19.6-1.7l0.6-0.1l19.7-1.4l14.2-4.6l25.3-14.2l0.2-0.2l0.2-0.1l0.4-0.1l30.4-8.8l9.1-1.9
		l13.5-2.4l10.7-2.2l15.7-2.6l18.8-2.8l2.6-0.3l18.5-2.6l13.3-2.7l16.1-2.8l10.5-2l5.5-3l10.9-5.5l14.7-8.8l8.8-5.7l16.5-8.9l14-7
		L2866.7,861.4"/>
</g>
<g id="Layer_3">
	<line class="st2" x1="1049.7" y1="182.4" x2="1049.7" y2="3085.8"/>
	<text transform="matrix(1 0 0 1 2243.5488 1542.9114)" class="st3 st4 st5">55 </text>
	<text transform="matrix(6.123234e-17 -1 1 6.123234e-17 1020.2644 2609.5515)" class="st3 st4 st5">33</text>
	<line class="st2" x1="128.5" y1="1574.2" x2="4855.6" y2="1574.2"/>
</g>
</svg>
