<?xml version="1.0" encoding="utf-8"?>
<!-- Generator: Adobe Illustrator 21.1.0, SVG Export Plug-In . SVG Version: 6.00 Build 0)  -->
<svg version="1.1" id="Layer_1" xmlns="http://www.w3.org/2000/svg" xmlns:xlink="http://www.w3.org/1999/xlink" x="0px" y="0px"
	 viewBox="0 0 1728 1728" style="enable-background:new 0 0 1728 1728;" xml:space="preserve">
<style type="text/css">
	.st0{fill:none;stroke:#010101;stroke-width:2;stroke-miterlimit:10;}
</style>
<path class="st0" d="M1096.9,1569.5c-79.9-8-146.1-29.8-189.8-44.2l-7.3-2.4l-7-2.6c-173.5-64-257.9-113-339.6-160.5
	c-28.9-16.8-56.1-32.6-86.1-46.9l-7.7-3.7l-7.4-3.9c-23.8-12.5-47.6-27-71-42.9c-90.9-62.2-179.6-153.6-237.2-244.5
	C100,949.3,70,877.3,54.3,804.1C29.6,688.5,40.1,576.7,85.6,471.8l8.6-19.9l10.6-19c40.8-73,93.3-135.3,156.1-185
	c67.4-53.4,144-90.4,227.6-110.1c64.7-15.2,131.7-19.5,199-12.7c38.5,3.9,77.6,11.4,116.3,22.5c75,21.4,150.3,57.1,217.6,103.2
	c41.8,28.6,80.3,60.9,114.7,95.9l9,9.2l8.5,9.7c41.1,47.4,69.7,88.6,94.4,125.3c73.1,19.5,145.2,52.3,206,93.9
	c86.2,59,154.1,137.1,196.3,225.7c31.8,66.9,48.8,137.8,50.4,210.8c1.6,72.3-11.8,143.4-40,211.4l-4.7,11.2l-5.3,11
	c-43.5,90.2-104.1,163.6-180.4,218.1c-80.6,57.7-172.5,90.7-273,97.9C1164.8,1573.5,1131,1572.9,1096.9,1569.5z"/>
<path class="st0" d="M457.2,1245.5c-88.5-48.4-177.6-123.4-238.3-200.8c-44.9-57.3-78-118.3-98.3-181.5
	c-31.5-97.9-32.1-195.4-2-289.8l5.5-17.2l7.2-16.6c29.5-68,70.2-127.5,120.9-176.6c54.1-52.5,117.6-91.4,188.7-115.8
	c87.7-30.1,181.4-36.5,278.6-19.1c69.3,12.4,140.2,37.8,205.1,73.2c40.3,22,78,47.6,112,76.1l8.2,6.9l7.8,7.4
	c47.8,45.1,80.9,85.2,110.2,120.6c2.3,2.7,5,6.1,8,9.7c74.5,8.6,152.2,33,217.4,68.6c80.6,44,146.5,105.9,190.8,179.1
	c33,54.6,53.7,114,61.4,176.3c7.6,61.7,2.2,123.9-16.2,184.8l-2.9,9.7l-3.5,9.6c-30.1,82.6-76.4,151.8-137.6,205.6
	c-64.3,56.6-140.6,92.9-226.6,107.8c-108.4,18.8-206.8-2.9-265.6-16l-6.3-1.4l-6-1.6c-172.9-44.8-259-83.8-342.2-121.6
	c-31.8-14.4-61.7-28-95.8-40.3l-6.7-2.4l-6.5-2.6C502.2,1268.6,479.6,1257.8,457.2,1245.5L457.2,1245.5z"/>
<path class="st0" d="M524.9,1217.9c-84.4-35.7-171.6-95.3-233.3-159.6c-44.5-46.3-78.8-96.7-101.9-149.7
	c-35-80.3-43.9-162.5-26.5-244.5l3-14.2l4.4-13.8c19.7-61.6,49.7-116.6,89.1-163.3c41.7-49.4,92.6-88.2,151.3-115.1
	c73-33.5,153.6-47.1,239.7-40.4c62.5,4.9,127.8,21.1,188.9,46.9c38,16.1,73.8,35.5,106.7,57.7l7.1,4.8l6.8,5.2
	c48.5,37.3,83.8,72.3,114.9,103.1c8.2,8.1,21.4,21.2,31,30.1c73.6-3.3,154.7,11.3,223.7,40.5c72.9,30.8,134.5,77.9,178.2,136.1
	c32.2,42.9,54.4,90.7,66,142c11.5,50.9,12.2,103.3,1.9,155.8l-1.6,8l-2,7.9c-18.7,73.4-52.1,136.3-99.3,187.1
	c-49.2,52.9-110.2,89.8-181.4,109.6c-92.2,25.7-180,15.4-238,8.5l-5.1-0.6l-4.9-0.8c-170.3-26.3-256.9-55.6-340.5-83.9
	c-34.5-11.7-67-22.7-104.9-32.1l-5.5-1.4l-5.4-1.6C566.9,1234.3,545.9,1226.8,524.9,1217.9L524.9,1217.9z"/>
<path class="st0" d="M582.8,1181.3c-78.7-24.3-161.9-69.8-222.6-121.5c-42.4-36.1-76.1-76.2-100.2-119.1
	c-35.3-63-49.5-129.5-42-197.6l1.2-10.8l2.3-10.6c11.5-54,32.1-103,61.3-145.6c30.5-44.6,69.6-81,116.1-108.3
	c58.6-34.4,125.7-52.6,199.6-54.3c55-1.2,113.7,7.3,169.8,24.6c34.9,10.8,68.1,24.7,98.9,41.3l5.7,3.1l5.5,3.4
	c48.2,29.9,84.9,59.7,117.3,85.9c23.5,19,50.1,40.6,60.6,43.8c2.2,0.7,9.4,1.2,23.1-0.8c64-10.4,137.1-5.1,200.8,14.6
	c63.4,19.6,118.5,53.4,159.2,97.6c29.4,31.9,51.1,68.5,64.6,108.7c13.3,39.9,18.1,82.1,14,125.3l-0.6,6.1l-0.9,6
	c-9.4,62.8-31.7,117.7-66.3,163.2c-35.5,46.8-82.1,81.7-138.4,103.6c-76,29.6-152.6,28.3-208.5,27.3l-3.9-0.1l-3.7-0.2
	c-165.9-8.8-251.8-28.6-334.9-47.7c-36.9-8.5-71.8-16.5-113.3-22.6l-4.2-0.6l-4.1-0.8C620.9,1191.9,602,1187.2,582.8,1181.3
	L582.8,1181.3z"/>
<path class="st0" d="M629.8,1137.2c-71.6-14.5-149-47.2-207-87.3c-38.8-26.8-70.2-57.3-93.6-90.7c-32.7-46.7-49-97.3-48.5-150.5
	l0.1-7.2l0.8-7.2c5-45.5,17.8-87.3,38-124.3c20.8-38,49.1-70.2,84-95.7c44.8-32.7,98.5-53.1,159.5-60.6c47-5.8,98.3-3.5,148.3,6.6
	c31.2,6.3,61.1,15.4,89,27.1l4,1.7l3.9,1.9c46.9,23,84.4,47.6,117.5,69.4c38,25,65.5,43,89.9,47.9c9.5,1.9,25.6,3.6,55.5-4
	c52.3-14.1,113.8-15.8,168.7-4.7c52.6,10.7,99.2,32.9,134.6,64.4c24.8,22.1,44.1,48.1,57.3,77.5c13.1,29.2,19.9,60.9,20.2,94.3v4.1
	l-0.2,4.1c-2.5,51.2-15.7,96.7-39.1,135c-23.7,38.6-56.9,69.1-98.7,90.4c-60,30.6-125.4,36-177.9,40.3l-2.6,0.2l-2.5,0.1
	c-159.7,7.5-244-3.2-325.5-13.6c-39.1-5-75.9-9.6-120.8-11.6l-2.8-0.1l-2.8-0.2C663.3,1143.1,646.8,1140.6,629.8,1137.2
	L629.8,1137.2z"/>
<path class="st0" d="M665.1,1087.6c-63.5-6.4-133.4-27.9-187-57.6c-33.8-18.7-61.5-40.5-82.5-64.8c-27.2-31.6-42.7-66.7-46.2-104.5
	l-0.3-3.6v-3.6c0.7-72.9,26.8-134.5,75.5-178.1c32.1-28.7,72.6-48.8,120.5-59.6c38.8-8.8,82-11.1,125.1-6.8c27,2.7,53,7.9,77.5,15.3
	l2.1,0.6l2,0.7c44.8,16.6,82.4,36.3,115.7,53.6c45.7,23.8,81.8,42.6,120.3,46.5c26.7,2.7,54.4-1.7,87.2-13.7
	c40.6-15.5,89.8-21.8,135-17.3c40.8,4.1,77.2,17,105.3,37.3c37.4,27.1,59.8,66,64.8,112.6l0.2,2l0.1,2c2,39.1-4.2,73.8-18.4,103.3
	c-13.8,28.7-35.1,52.4-63.3,70.6c-44.6,28.8-99.1,38.8-147.1,47.6l-1.3,0.2l-1.3,0.2c-151.9,22.5-233.7,20.3-312.8,18.3
	c-40.8-1.1-79.4-2.1-127.2,0.6l-1.4,0.1h-1.4C693.4,1089.7,679.5,1089.1,665.1,1087.6L665.1,1087.6z"/>
<path id="svg_3" class="st0" d="M720.9,1032.6c142-22.2,208.7-5.7,429.4-61.3c88.6-25.7,171.4-51.3,154.4-163.2
	c-19.4-92.4-146.5-86.1-214.5-51.8C937,830.9,859,746.7,710,707.7c-116.3-23.1-304,14.7-288,190.7
	C442.3,1003.4,625.8,1043.6,720.9,1032.6z"/>
</svg>
