  0
SECTION
  2
HEADER
  9
$ACADVER
  1
AC1024
  9
$ACADMAINTVER
 70
     6
  9
$DWGCODEPAGE
  3
UNDEFINED
  9
$INSBASE
 10
0.0
 20
0.0
 30
0.0
  9
$EXTMIN
 10
1.000000000000000E+20
 20
1.000000000000000E+20
 30
1.000000000000000E+20
  9
$EXTMAX
 10
-1.000000000000000E+20
 20
-1.000000000000000E+20
 30
-1.000000000000000E+20
  9
$LIMMIN
 10
0.0
 20
0.0
  9
$LIMMAX
 10
12.0
 20
9.0
  9
$ORTHOMODE
 70
     0
  9
$REGENMODE
 70
     1
  9
$FILLMODE
 70
     1
  9
$QTEXTMODE
 70
     0
  9
$MIRRTEXT
 70
     1
  9
$LTSCALE
 40
1.0
  9
$ATTMODE
 70
     1
  9
$TEXTSIZE
 40
0.2
  9
$TRACEWID
 40
0.05
  9
$TEXTSTYLE
  7
Standard
  9
$CLAYER
  8
0
  9
$CELTYPE
  6
ByLayer
  9
$CECOLOR
 62
   256
  9
$CELTSCALE
 40
1.0
  9
$DISPSILH
 70
     0
  9
$DIMSCALE
 40
1.0
  9
$DIMASZ
 40
0.18
  9
$DIMEXO
 40
0.0625
  9
$DIMDLI
 40
0.38
  9
$DIMRND
 40
0.0
  9
$DIMDLE
 40
0.0
  9
$DIMEXE
 40
0.18
  9
$DIMTP
 40
0.0
  9
$DIMTM
 40
0.0
  9
$DIMTXT
 40
0.18
  9
$DIMCEN
 40
0.09
  9
$DIMTSZ
 40
0.0
  9
$DIMTOL
 70
     0
  9
$DIMLIM
 70
     0
  9
$DIMTIH
 70
     1
  9
$DIMTOH
 70
     1
  9
$DIMSE1
 70
     0
  9
$DIMSE2
 70
     0
  9
$DIMTAD
 70
     0
  9
$DIMZIN
 70
     0
  9
$DIMBLK
  1

  9
$DIMASO
 70
     1
  9
$DIMSHO
 70
     1
  9
$DIMPOST
  1

  9
$DIMAPOST
  1

  9
$DIMALT
 70
     0
  9
$DIMALTD
 70
     2
  9
$DIMALTF
 40
25.4
  9
$DIMLFAC
 40
1.0
  9
$DIMTOFL
 70
     0
  9
$DIMTVP
 40
0.0
  9
$DIMTIX
 70
     0
  9
$DIMSOXD
 70
     0
  9
$DIMSAH
 70
     0
  9
$DIMBLK1
  1

  9
$DIMBLK2
  1

  9
$DIMSTYLE
  2
Standard
  9
$DIMCLRD
 70
     0
  9
$DIMCLRE
 70
     0
  9
$DIMCLRT
 70
     0
  9
$DIMTFAC
 40
1.0
  9
$DIMGAP
 40
0.09
  9
$DIMJUST
 70
     0
  9
$DIMSD1
 70
     0
  9
$DIMSD2
 70
     0
  9
$DIMTOLJ
 70
     1
  9
$DIMTZIN
 70
     0
  9
$DIMALTZ
 70
     0
  9
$DIMALTTZ
 70
     0
  9
$DIMUPT
 70
     0
  9
$DIMDEC
 70
     4
  9
$DIMTDEC
 70
     4
  9
$DIMALTU
 70
     2
  9
$DIMALTTD
 70
     2
  9
$DIMTXSTY
  7
Standard
  9
$DIMAUNIT
 70
     0
  9
$DIMADEC
 70
     0
  9
$DIMALTRND
 40
0.0
  9
$DIMAZIN
 70
     0
  9
$DIMDSEP
 70
    46
  9
$DIMATFIT
 70
     3
  9
$DIMFRAC
 70
     0
  9
$DIMLDRBLK
  1

  9
$DIMLUNIT
 70
     2
  9
$DIMLWD
 70
    -2
  9
$DIMLWE
 70
    -2
  9
$DIMTMOVE
 70
     0
  9
$DIMFXL
 40
1.0
  9
$DIMFXLON
 70
     0
  9
$DIMJOGANG
 40
0.7853981633974483
  9
$DIMTFILL
 70
     0
  9
$DIMTFILLCLR
 70
     0
  9
$DIMARCSYM
 70
     0
  9
$DIMLTYPE
  6

  9
$DIMLTEX1
  6

  9
$DIMLTEX2
  6

  9
$DIMTXTDIRECTION
 70
     0
  9
$LUNITS
 70
     2
  9
$LUPREC
 70
     4
  9
$SKETCHINC
 40
0.1
  9
$FILLETRAD
 40
0.5
  9
$AUNITS
 70
     0
  9
$AUPREC
 70
     0
  9
$MENU
  1
.
  9
$ELEVATION
 40
0.0
  9
$PELEVATION
 40
0.0
  9
$THICKNESS
 40
0.0
  9
$LIMCHECK
 70
     0
  9
$CHAMFERA
 40
0.5
  9
$CHAMFERB
 40
0.5
  9
$CHAMFERC
 40
1.0
  9
$CHAMFERD
 40
0.0
  9
$SKPOLY
 70
     0
  9
$TDCREATE
 40
2458296.581412025
  9
$TDUCREATE
 40
2458296.91474537
  9
$TDUPDATE
 40
2458296.581412025
  9
$TDUUPDATE
 40
2458296.91474537
  9
$TDINDWG
 40
0.0000000116
  9
$TDUSRTIMER
 40
0.0000000116
  9
$USRTIMER
 70
     1
  9
$ANGBASE
 50
0.0
  9
$ANGDIR
 70
     0
  9
$PDMODE
 70
     0
  9
$PDSIZE
 40
0.0
  9
$PLINEWID
 40
0.0
  9
$SPLFRAME
 70
     0
  9
$SPLINETYPE
 70
     6
  9
$SPLINESEGS
 70
     8
  9
$HANDSEED
  5
4A
  9
$SURFTAB1
 70
     6
  9
$SURFTAB2
 70
     6
  9
$SURFTYPE
 70
     6
  9
$SURFU
 70
     6
  9
$SURFV
 70
     6
  9
$UCSBASE
  2

  9
$UCSNAME
  2

  9
$UCSORG
 10
0.0
 20
0.0
 30
0.0
  9
$UCSXDIR
 10
1.0
 20
0.0
 30
0.0
  9
$UCSYDIR
 10
0.0
 20
1.0
 30
0.0
  9
$UCSORTHOREF
  2

  9
$UCSORTHOVIEW
 70
     0
  9
$UCSORGTOP
 10
0.0
 20
0.0
 30
0.0
  9
$UCSORGBOTTOM
 10
0.0
 20
0.0
 30
0.0
  9
$UCSORGLEFT
 10
0.0
 20
0.0
 30
0.0
  9
$UCSORGRIGHT
 10
0.0
 20
0.0
 30
0.0
  9
$UCSORGFRONT
 10
0.0
 20
0.0
 30
0.0
  9
$UCSORGBACK
 10
0.0
 20
0.0
 30
0.0
  9
$PUCSBASE
  2

  9
$PUCSNAME
  2

  9
$PUCSORG
 10
0.0
 20
0.0
 30
0.0
  9
$PUCSXDIR
 10
1.0
 20
0.0
 30
0.0
  9
$PUCSYDIR
 10
0.0
 20
1.0
 30
0.0
  9
$PUCSORTHOREF
  2

  9
$PUCSORTHOVIEW
 70
     0
  9
$PUCSORGTOP
 10
0.0
 20
0.0
 30
0.0
  9
$PUCSORGBOTTOM
 10
0.0
 20
0.0
 30
0.0
  9
$PUCSORGLEFT
 10
0.0
 20
0.0
 30
0.0
  9
$PUCSORGRIGHT
 10
0.0
 20
0.0
 30
0.0
  9
$PUCSORGFRONT
 10
0.0
 20
0.0
 30
0.0
  9
$PUCSORGBACK
 10
0.0
 20
0.0
 30
0.0
  9
$USERI1
 70
     0
  9
$USERI2
 70
     0
  9
$USERI3
 70
     0
  9
$USERI4
 70
     0
  9
$USERI5
 70
     0
  9
$USERR1
 40
0.0
  9
$USERR2
 40
0.0
  9
$USERR3
 40
0.0
  9
$USERR4
 40
0.0
  9
$USERR5
 40
0.0
  9
$WORLDVIEW
 70
     1
  9
$SHADEDGE
 70
     3
  9
$SHADEDIF
 70
    70
  9
$TILEMODE
 70
     1
  9
$MAXACTVP
 70
    64
  9
$PINSBASE
 10
0.0
 20
0.0
 30
0.0
  9
$PLIMCHECK
 70
     0
  9
$PEXTMIN
 10
1.000000000000000E+20
 20
1.000000000000000E+20
 30
1.000000000000000E+20
  9
$PEXTMAX
 10
-1.000000000000000E+20
 20
-1.000000000000000E+20
 30
-1.000000000000000E+20
  9
$PLIMMIN
 10
0.0
 20
0.0
  9
$PLIMMAX
 10
12.0
 20
9.0
  9
$UNITMODE
 70
     0
  9
$VISRETAIN
 70
     1
  9
$PLINEGEN
 70
     0
  9
$PSLTSCALE
 70
     1
  9
$TREEDEPTH
 70
  3020
  9
$CMLSTYLE
  2
Standard
  9
$CMLJUST
 70
     0
  9
$CMLSCALE
 40
1.0
  9
$PROXYGRAPHICS
 70
     1
  9
$MEASUREMENT
 70
     0
  9
$CELWEIGHT
370
    -1
  9
$ENDCAPS
280
     0
  9
$JOINSTYLE
280
     0
  9
$LWDISPLAY
290
     1
  9
$INSUNITS
 70
     1
  9
$HYPERLINKBASE
  1

  9
$STYLESHEET
  1

  9
$XEDIT
290
     1
  9
$CEPSNTYPE
380
     0
  9
$PSTYLEMODE
290
     1
  9
$FINGERPRINTGUID
  2
{B5B878BC-AA2C-4BCD-9588-C6B41B3BDD93}
  9
$VERSIONGUID
  2
{FAEB1C32-E019-11D5-929B-00C0DF256EC4}
  9
$EXTNAMES
290
     1
  9
$PSVPSCALE
 40
0.0
  9
$OLESTARTUP
290
     0
  9
$SORTENTS
280
   127
  9
$INDEXCTL
280
     0
  9
$HIDETEXT
280
     1
  9
$XCLIPFRAME
280
     2
  9
$HALOGAP
280
     0
  9
$OBSCOLOR
 70
   257
  9
$OBSLTYPE
280
     0
  9
$INTERSECTIONDISPLAY
280
     0
  9
$INTERSECTIONCOLOR
 70
   257
  9
$DIMASSOC
280
     2
  9
$PROJECTNAME
  1

  9
$CAMERADISPLAY
290
     0
  9
$LENSLENGTH
 40
50.0
  9
$CAMERAHEIGHT
 40
0.0
  9
$STEPSPERSEC
 40
2.0
  9
$STEPSIZE
 40
6.0
  9
$3DDWFPREC
 40
2.0
  9
$PSOLWIDTH
 40
0.25
  9
$PSOLHEIGHT
 40
4.0
  9
$LOFTANG1
 40
1.570796326794897
  9
$LOFTANG2
 40
1.570796326794897
  9
$LOFTMAG1
 40
0.0
  9
$LOFTMAG2
 40
0.0
  9
$LOFTPARAM
 70
     7
  9
$LOFTNORMALS
280
     1
  9
$LATITUDE
 40
37.795
  9
$LONGITUDE
 40
-122.394
  9
$NORTHDIRECTION
 40
0.0
  9
$TIMEZONE
 70
 -8000
  9
$LIGHTGLYPHDISPLAY
280
     1
  9
$TILEMODELIGHTSYNCH
280
     1
  9
$CMATERIAL
347
3C
  9
$SOLIDHIST
280
     1
  9
$SHOWHIST
280
     1
  9
$DWFFRAME
280
     2
  9
$DGNFRAME
280
     2
  9
$REALWORLDSCALE
290
     1
  9
$INTERFERECOLOR
 62
   256
  9
$CSHADOW
280
     0
  9
$SHADOWPLANELOCATION
 40
0.0
  0
ENDSEC
  0
SECTION
  2
CLASSES
  0
CLASS
  1
ACDBDICTIONARYWDFLT
  2
AcDbDictionaryWithDefault
  3
ObjectDBX Classes
 90
        0
 91
        4
280
     0
281
     0
  0
CLASS
  1
VISUALSTYLE
  2
AcDbVisualStyle
  3
ObjectDBX Classes
 90
     4095
 91
        4
280
     0
281
     0
  0
CLASS
  1
MATERIAL
  2
AcDbMaterial
  3
ObjectDBX Classes
 90
     1153
 91
        4
280
     0
281
     0
  0
CLASS
  1
SUN
  2
AcDbSun
  3
SCENEOE
 90
     1024
 91
        4
280
     0
281
     0
  0
ENDSEC
  0
SECTION
  2
TABLES
  0
TABLE
  2
VPORT
  5
8
330
0
100
AcDbSymbolTable
 70
     1
  0
VPORT
  5
29
330
8
100
AcDbSymbolTableRecord
100
AcDbViewportTableRecord
  2
*Active
 70
     0
 10
0.0
 20
0.0
 11
1.0
 21
1.0
 12
0.0
 22
0.0
 13
0.0
 23
0.0
 14
0.5
 24
0.5
 15
0.5
 25
0.5
 16
0.0
 26
0.0
 36
1.0
 17
31.5625
 27
-19.34027777777778
 37
0.0
 40
38.68055555555555
 41
1.631956912028726
 42
50.0
 43
0.0
 44
0.0
 50
0.0
 51
0.0
 71
     0
 72
   100
 73
     1
 74
     3
 75
     0
 76
     0
 77
     0
 78
     0
281
     0
 65
     1
110
0.0
120
0.0
130
0.0
111
1.0
121
0.0
131
0.0
112
0.0
122
1.0
132
0.0
 79
     0
146
0.0
 60
     3
 61
     5
292
     1
282
     1
141
0.0
142
0.0
 63
   250
361
3F
  0
ENDTAB
  0
TABLE
  2
LTYPE
  5
5
330
0
100
AcDbSymbolTable
 70
     1
  0
LTYPE
  5
14
330
5
100
AcDbSymbolTableRecord
100
AcDbLinetypeTableRecord
  2
ByBlock
 70
     0
  3

 72
    65
 73
     0
 40
0.0
  0
LTYPE
  5
15
330
5
100
AcDbSymbolTableRecord
100
AcDbLinetypeTableRecord
  2
ByLayer
 70
     0
  3

 72
    65
 73
     0
 40
0.0
  0
LTYPE
  5
16
330
5
100
AcDbSymbolTableRecord
100
AcDbLinetypeTableRecord
  2
Continuous
 70
     0
  3
Solid line
 72
    65
 73
     0
 40
0.0
  0
ENDTAB
  0
TABLE
  2
LAYER
  5
2
330
0
100
AcDbSymbolTable
 70
     2
  0
LAYER
  5
10
330
2
100
AcDbSymbolTableRecord
100
AcDbLayerTableRecord
  2
0
 70
     0
 62
     7
  6
Continuous
370
    -3
390
F
347
3E
  0
LAYER
  5
40
330
2
100
AcDbSymbolTableRecord
100
AcDbLayerTableRecord
  2
Layer 1
 70
     0
 62
     7
  6
Continuous
370
    -3
390
F
347
3E
  0
ENDTAB
  0
TABLE
  2
STYLE
  5
3
330
0
100
AcDbSymbolTable
 70
     1
  0
STYLE
  5
11
330
3
100
AcDbSymbolTableRecord
100
AcDbTextStyleTableRecord
  2
Standard
 70
     0
 40
0.0
 41
1.0
 50
0.0
 71
     0
 42
0.2
  3
txt
  4

  0
ENDTAB
  0
TABLE
  2
VIEW
  5
6
330
0
100
AcDbSymbolTable
 70
     0
  0
ENDTAB
  0
TABLE
  2
UCS
  5
7
330
0
100
AcDbSymbolTable
 70
     0
  0
ENDTAB
  0
TABLE
  2
APPID
  5
9
330
0
100
AcDbSymbolTable
 70
     1
  0
APPID
  5
12
330
9
100
AcDbSymbolTableRecord
100
AcDbRegAppTableRecord
  2
ACAD
 70
     0
  0
ENDTAB
  0
TABLE
  2
DIMSTYLE
  5
A
330
0
100
AcDbSymbolTable
 70
     1
100
AcDbDimStyleTable
  0
DIMSTYLE
105
27
330
A
100
AcDbSymbolTableRecord
100
AcDbDimStyleTableRecord
  2
Standard
 70
     0
178
     0
340
11
  0
ENDTAB
  0
TABLE
  2
BLOCK_RECORD
  5
1
330
0
100
AcDbSymbolTable
 70
     1
  0
BLOCK_RECORD
  5
1F
330
1
100
AcDbSymbolTableRecord
100
AcDbBlockTableRecord
  2
*Model_Space
340
22
 70
     0
280
     1
281
     0
  0
BLOCK_RECORD
  5
1B
330
1
100
AcDbSymbolTableRecord
100
AcDbBlockTableRecord
  2
*Paper_Space
340
1E
 70
     0
280
     1
281
     0
  0
BLOCK_RECORD
  5
23
330
1
100
AcDbSymbolTableRecord
100
AcDbBlockTableRecord
  2
*Paper_Space0
340
26
 70
     0
280
     1
281
     0
  0
ENDTAB
  0
ENDSEC
  0
SECTION
  2
BLOCKS
  0
BLOCK
  5
20
330
1F
100
AcDbEntity
  8
0
100
AcDbBlockBegin
  2
*Model_Space
 70
     0
 10
0.0
 20
0.0
 30
0.0
  3
*Model_Space
  1

  0
ENDBLK
  5
21
330
1F
100
AcDbEntity
  8
0
100
AcDbBlockEnd
  0
BLOCK
  5
1C
330
1B
100
AcDbEntity
 67
     1
  8
0
100
AcDbBlockBegin
  2
*Paper_Space
 70
     0
 10
0.0
 20
0.0
 30
0.0
  3
*Paper_Space
  1

  0
ENDBLK
  5
1D
330
1B
100
AcDbEntity
 67
     1
  8
0
100
AcDbBlockEnd
  0
BLOCK
  5
24
330
23
100
AcDbEntity
  8
0
100
AcDbBlockBegin
  2
*Paper_Space0
 70
     0
 10
0.0
 20
0.0
 30
0.0
  3
*Paper_Space0
  1

  0
ENDBLK
  5
25
330
23
100
AcDbEntity
  8
0
100
AcDbBlockEnd
  0
ENDSEC
  0
SECTION
  2
ENTITIES
  0
SPLINE
  5
41
330
1F
100
AcDbEntity
  8
Layer 1
 62
     7
420
 16777215
370
    70
100
AcDbSpline
210
0.0
220
0.0
230
1.0
 70
    27
 71
     3
 72
     8
 73
     4
 74
     0
 42
0.0000000001
 43
0.0000000001
 12
1.0
 22
0.0
 32
0.0
 13
1.0
 23
0.0
 33
0.0
 40
0.0
 40
0.0
 40
0.0
 40
0.0
 40
1.0
 40
1.0
 40
1.0
 40
1.0
 10
30.0043004864174
 20
-8.491914633612218
 30
0.0
 10
30.06380266583177
 20
-8.490553971384719
 30
0.0
 10
30.03352054898841
 20
-8.491246445727079
 30
0.0
 10
30.0043004864174
 20
-8.491914633612218
 30
0.0
  0
SPLINE
  5
42
330
1F
100
AcDbEntity
  8
Layer 1
 62
     7
420
 16777215
370
    70
100
AcDbSpline
210
0.0
220
0.0
230
1.0
 70
     8
 71
     3
 72
    26
 73
    22
 74
     0
 42
0.0000000001
 43
0.0000000001
 12
1.0
 22
0.0
 32
0.0
 13
1.0
 23
0.0
 33
0.0
 40
0.0
 40
0.0
 40
0.0
 40
0.0
 40
1.0
 40
1.0
 40
1.0
 40
2.0
 40
2.0
 40
2.0
 40
3.0
 40
3.0
 40
3.0
 40
4.0
 40
4.0
 40
4.0
 40
5.0
 40
5.0
 40
5.0
 40
6.0
 40
6.0
 40
6.0
 40
7.0
 40
7.0
 40
7.0
 40
7.0
 10
16.06795719620833
 20
-9.544601188088057
 30
0.0
 10
14.68640031346968
 20
-10.11089146265224
 30
0.0
 10
13.86098692657919
 20
-11.39323160327166
 30
0.0
 10
13.30926830036348
 20
-12.71658437744888
 30
0.0
 10
12.80788844561347
 20
-13.91919453083639
 30
0.0
 10
12.16646708708367
 20
-14.94229914821292
 30
0.0
 10
11.53282360735783
 20
-16.07212341931611
 30
0.0
 10
10.15696466482727
 20
-18.52536230935887
 30
0.0
 10
9.517094238247585
 20
-22.02970540276861
 30
0.0
 10
11.90212551261794
 20
-24.13040693953654
 30
0.0
 10
14.22983134193381
 20
-26.18061704174096
 30
0.0
 10
17.47272024729109
 20
-25.07014156964209
 30
0.0
 10
19.06082518464326
 20
-22.7506078458693
 30
0.0
 10
19.84955366302923
 20
-21.59861702870931
 30
0.0
 10
20.22665341884287
 20
-20.30625305224374
 30
0.0
 10
20.57702003141023
 20
-18.96695259313444
 30
0.0
 10
20.9245673990578
 20
-17.63842889151278
 30
0.0
 10
21.33110281380449
 20
-16.31092822519971
 30
0.0
 10
21.6456628248258
 20
-14.97646194188792
 30
0.0
 10
22.45786308309935
 20
-11.53084323007501
 30
0.0
 10
19.59013633759231
 20
-8.284847602657084
 30
0.0
 10
16.06795719620833
 20
-9.544600173253759
 30
0.0
  0
SPLINE
  5
43
330
1F
100
AcDbEntity
  8
Layer 1
 62
     7
420
 16777215
370
    70
100
AcDbSpline
210
0.0
220
0.0
230
1.0
 70
     8
 71
     3
 72
   194
 73
   190
 74
     0
 42
0.0000000001
 43
0.0000000001
 12
1.0
 22
0.0
 32
0.0
 13
1.0
 23
0.0
 33
0.0
 40
0.0
 40
0.0
 40
0.0
 40
0.0
 40
1.0
 40
1.0
 40
1.0
 40
2.0
 40
2.0
 40
2.0
 40
3.0
 40
3.0
 40
3.0
 40
4.0
 40
4.0
 40
4.0
 40
5.0
 40
5.0
 40
5.0
 40
6.0
 40
6.0
 40
6.0
 40
7.0
 40
7.0
 40
7.0
 40
8.0
 40
8.0
 40
8.0
 40
9.0
 40
9.0
 40
9.0
 40
10.0
 40
10.0
 40
10.0
 40
11.0
 40
11.0
 40
11.0
 40
12.0
 40
12.0
 40
12.0
 40
13.0
 40
13.0
 40
13.0
 40
14.0
 40
14.0
 40
14.0
 40
15.0
 40
15.0
 40
15.0
 40
16.0
 40
16.0
 40
16.0
 40
17.0
 40
17.0
 40
17.0
 40
18.0
 40
18.0
 40
18.0
 40
19.0
 40
19.0
 40
19.0
 40
20.0
 40
20.0
 40
20.0
 40
21.0
 40
21.0
 40
21.0
 40
22.0
 40
22.0
 40
22.0
 40
23.0
 40
23.0
 40
23.0
 40
24.0
 40
24.0
 40
24.0
 40
25.0
 40
25.0
 40
25.0
 40
26.0
 40
26.0
 40
26.0
 40
27.0
 40
27.0
 40
27.0
 40
28.0
 40
28.0
 40
28.0
 40
29.0
 40
29.0
 40
29.0
 40
30.0
 40
30.0
 40
30.0
 40
31.0
 40
31.0
 40
31.0
 40
32.0
 40
32.0
 40
32.0
 40
33.0
 40
33.0
 40
33.0
 40
34.0
 40
34.0
 40
34.0
 40
35.0
 40
35.0
 40
35.0
 40
36.0
 40
36.0
 40
36.0
 40
37.0
 40
37.0
 40
37.0
 40
38.0
 40
38.0
 40
38.0
 40
39.0
 40
39.0
 40
39.0
 40
40.0
 40
40.0
 40
40.0
 40
41.0
 40
41.0
 40
41.0
 40
42.0
 40
42.0
 40
42.0
 40
43.0
 40
43.0
 40
43.0
 40
44.0
 40
44.0
 40
44.0
 40
45.0
 40
45.0
 40
45.0
 40
46.0
 40
46.0
 40
46.0
 40
47.0
 40
47.0
 40
47.0
 40
48.0
 40
48.0
 40
48.0
 40
49.0
 40
49.0
 40
49.0
 40
50.0
 40
50.0
 40
50.0
 40
51.0
 40
51.0
 40
51.0
 40
52.0
 40
52.0
 40
52.0
 40
53.0
 40
53.0
 40
53.0
 40
54.0
 40
54.0
 40
54.0
 40
55.0
 40
55.0
 40
55.0
 40
56.0
 40
56.0
 40
56.0
 40
57.0
 40
57.0
 40
57.0
 40
58.0
 40
58.0
 40
58.0
 40
59.0
 40
59.0
 40
59.0
 40
60.0
 40
60.0
 40
60.0
 40
61.0
 40
61.0
 40
61.0
 40
62.0
 40
62.0
 40
62.0
 40
63.0
 40
63.0
 40
63.0
 40
63.0
 10
56.42944981653429
 20
-25.95031123281597
 30
0.0
 10
55.58903255350098
 20
-26.90030767090527
 30
0.0
 10
54.83518733825639
 20
-27.94212714767905
 30
0.0
 10
53.75854611313194
 20
-28.64849774024176
 30
0.0
 10
52.69154190500623
 20
-29.34854560871668
 30
0.0
 10
51.63399800851028
 20
-29.91162287296525
 30
0.0
 10
50.40462648362528
 20
-30.2544577210762
 30
0.0
 10
49.78814326814401
 20
-30.42637640087658
 30
0.0
 10
49.17351125973432
 20
-30.62437236692924
 30
0.0
 10
48.54707894344667
 20
-30.75657994922827
 30
0.0
 10
48.00665125260264
 20
-30.8706363868612
 30
0.0
 10
47.49405444904485
 20
-30.78997570857766
 30
0.0
 10
46.95267589507082
 20
-30.85157503161198
 30
0.0
 10
45.8105034882396
 20
-30.98153408989535
 30
0.0
 10
44.62114085734043
 20
-31.56139969240565
 30
0.0
 10
43.45791147910484
 20
-31.39256490418782
 30
0.0
 10
42.87417018345707
 20
-31.3078388476862
 30
0.0
 10
42.33884970293582
 20
-31.05164947851353
 30
0.0
 10
41.74244174900152
 20
-30.9923061566351
 30
0.0
 10
40.96911770450277
 20
-30.91535946706411
 30
0.0
 10
40.74924358197278
 20
-30.76231593967441
 30
0.0
 10
40.10650254953695
 20
-30.34401379928782
 30
0.0
 10
39.58514801731707
 20
-30.00471117860194
 30
0.0
 10
39.09067769206222
 20
-29.86852259799949
 30
0.0
 10
38.62003219800292
 20
-29.42847904942937
 30
0.0
 10
38.23298291778583
 20
-29.06659618666324
 30
0.0
 10
37.83817551494679
 20
-28.67034489567686
 30
0.0
 10
37.33472838085041
 20
-28.48226586014137
 30
0.0
 10
36.74037155449582
 20
-28.26022455511866
 30
0.0
 10
36.10731294099499
 20
-28.28656603273392
 30
0.0
 10
35.5215991210354
 20
-27.99657430594182
 30
0.0
 10
34.98491856712833
 20
-27.73085935222257
 30
0.0
 10
34.42754910509413
 20
-27.39638693164082
 30
0.0
 10
33.98996255629428
 20
-26.98313646615134
 30
0.0
 10
33.15060348863553
 20
-26.19045779178597
 30
0.0
 10
32.1541320543734
 20
-25.1441437058714
 30
0.0
 10
31.71993664933807
 20
-24.07346763417528
 30
0.0
 10
31.5014860922871
 20
-23.53479361420457
 30
0.0
 10
31.51076646316687
 20
-22.8880876006411
 30
0.0
 10
31.21713854157436
 20
-22.42474152313904
 30
0.0
 10
30.80535849768994
 20
-21.77495090686292
 30
0.0
 10
30.4120074528549
 20
-21.72554354527
 30
0.0
 10
29.71877333656913
 20
-21.93585643589515
 30
0.0
 10
29.14828512233288
 20
-22.10893075896292
 30
0.0
 10
28.6144146192814
 20
-22.37136393284487
 30
0.0
 10
28.03942914994806
 20
-22.53041925827347
 30
0.0
 10
27.26905224243501
 20
-22.74352473008528
 30
0.0
 10
27.07757977448902
 20
-22.97397006392751
 30
0.0
 10
26.54299515573067
 20
-23.50891635477723
 30
0.0
 10
26.1322674029507
 20
-23.91992198454818
 30
0.0
 10
25.69003796399609
 20
-24.29403448969095
 30
0.0
 10
25.2138444098983
 20
-24.62116048698375
 30
0.0
 10
24.67837859507234
 20
-24.98900416563876
 30
0.0
 10
24.49608436767522
 20
-25.5057292196264
 30
0.0
 10
24.0894283556767
 20
-25.99080108979125
 30
0.0
 10
23.25832374442123
 20
-26.98216837857911
 30
0.0
 10
22.25605936820746
 20
-27.31967878714375
 30
0.0
 10
21.17711588047485
 20
-27.94555655843929
 30
0.0
 10
20.13399916224938
 20
-28.55065179672288
 30
0.0
 10
19.27234214275672
 20
-29.40517590392943
 30
0.0
 10
18.16099022135061
 20
-29.89948963547901
 30
0.0
 10
17.57475976342903
 20
-30.16023671263939
 30
0.0
 10
17.12734344529958
 20
-30.16420690255429
 30
0.0
 10
16.50818823526788
 20
-30.06628816895641
 30
0.0
 10
15.87531156466189
 20
-29.9661994010589
 30
0.0
 10
15.31118710338887
 20
-30.05488504612185
 30
0.0
 10
14.68399398389784
 20
-30.09967317133527
 30
0.0
 10
13.65857692179439
 20
-30.17289863626181
 30
0.0
 10
12.35119826413264
 20
-29.7993409878791
 30
0.0
 10
11.42637388404949
 20
-29.40713069541854
 30
0.0
 10
10.83746378045124
 20
-29.15737884096971
 30
0.0
 10
10.21031507869528
 20
-29.23445129363265
 30
0.0
 10
9.673249104900542
 20
-28.85334000428308
 30
0.0
 10
9.138219922117539
 20
-28.47367405700786
 30
0.0
 10
8.682864501247094
 20
-27.98417398450814
 30
0.0
 10
8.13838111996962
 20
-27.62121079569619
 30
0.0
 10
7.154573125286333
 20
-26.96538529356399
 30
0.0
 10
6.705498795427224
 20
-25.73898312446388
 30
0.0
 10
6.116942475970277
 20
-24.72112318302958
 30
0.0
 10
5.503956855844586
 20
-23.66101476727598
 30
0.0
 10
5.066654749918611
 20
-22.78703438200639
 30
0.0
 10
4.79919123643333
 20
-21.57869247449596
 30
0.0
 10
4.543153544454299
 20
-20.42196994031236
 30
0.0
 10
4.621742175062082
 20
-19.18556528222679
 30
0.0
 10
4.555137045448191
 20
-18.00948895133196
 30
0.0
 10
4.493114275697634
 20
-16.91432538205375
 30
0.0
 10
4.783809650318744
 20
-15.55798236921138
 30
0.0
 10
5.085151065386943
 20
-14.51009400524319
 30
0.0
 10
5.413570460320695
 20
-13.36804433917001
 30
0.0
 10
5.876714579820145
 20
-12.314301654025
 30
0.0
 10
6.542678510558188
 20
-11.32347268806764
 30
0.0
 10
7.234048695773822
 20
-10.2948439979943
 30
0.0
 10
8.381633754232086
 20
-9.561777167586948
 30
0.0
 10
8.964611658443205
 20
-8.441392125224587
 30
0.0
 10
9.224215043380026
 20
-7.942478277325967
 30
0.0
 10
9.381662765783718
 20
-7.507448343152646
 30
0.0
 10
9.841258673918281
 20
-7.146499251986951
 30
0.0
 10
10.32855403094764
 20
-6.76379607048361
 30
0.0
 10
10.94708470123143
 20
-6.730063851134306
 30
0.0
 10
11.50790147694311
 20
-6.458901109622641
 30
0.0
 10
12.0314140157873
 20
-6.205775487500142
 30
0.0
 10
12.56570137109379
 20
-6.203851000126102
 30
0.0
 10
13.07508920777339
 20
-5.919267689878476
 30
0.0
 10
13.60235259680828
 20
-5.624697718200271
 30
0.0
 10
14.11564026906424
 20
-5.469937239380556
 30
0.0
 10
14.68272366512317
 20
-5.267818183174161
 30
0.0
 10
15.78418000187003
 20
-4.875238684668198
 30
0.0
 10
16.8408804004737
 20
-4.655803081299306
 30
0.0
 10
18.0136207647953
 20
-4.598089481927773
 30
0.0
 10
19.23177494287959
 20
-4.5381409508243
 30
0.0
 10
20.22955448659569
 20
-4.902261336005974
 30
0.0
 10
21.39941735298281
 20
-5.155699802461109
 30
0.0
 10
22.67747042189699
 20
-5.432576536598465
 30
0.0
 10
23.70131303208518
 20
-5.607443116502635
 30
0.0
 10
24.70912268381047
 20
-6.496669307988896
 30
0.0
 10
25.15257011726375
 20
-6.887938702659867
 30
0.0
 10
25.90180076951987
 20
-7.063541608671534
 30
0.0
 10
26.26783908572454
 20
-7.494291970800557
 30
0.0
 10
26.60017346850304
 20
-7.885379868958605
 30
0.0
 10
26.62571551112453
 20
-8.693315519234854
 30
0.0
 10
26.73420007709733
 20
-9.181931901219032
 30
0.0
 10
26.85917416834294
 20
-9.744817393349724
 30
0.0
 10
27.02163932853626
 20
-10.29344965088083
 30
0.0
 10
27.12385072463033
 20
-10.85301584444819
 30
0.0
 10
27.25563016380238
 20
-11.57445515538431
 30
0.0
 10
27.59538239884301
 20
-11.78003858366527
 30
0.0
 10
28.12604829783519
 20
-12.2387217620843
 30
0.0
 10
28.64163475873021
 20
-12.68437096826501
 30
0.0
 10
28.6181839280209
 20
-13.2877956317293
 30
0.0
 10
29.00620062598871
 20
-13.80449924916916
 30
0.0
 10
29.16682090018566
 20
-14.01838972642554
 30
0.0
 10
29.38481149470787
 20
-14.13868944862068
 30
0.0
 10
29.65643966094952
 20
-14.20739213057487
 30
0.0
 10
30.091302153056
 20
-14.31738153227181
 30
0.0
 10
30.16546508453717
 20
-14.16011198320292
 30
0.0
 10
30.53348580697722
 20
-13.97758697360971
 30
0.0
 10
31.17321446852275
 20
-13.66030462246529
 30
0.0
 10
31.62454355549332
 20
-13.63482699482819
 30
0.0
 10
32.14538764235544
 20
-13.0966844574254
 30
0.0
 10
32.60620456270973
 20
-12.62056272915237
 30
0.0
 10
32.87329072340069
 20
-12.25538641389959
 30
0.0
 10
33.56514076051295
 20
-12.06977012618932
 30
0.0
 10
34.18055170498766
 20
-11.90466166510348
 30
0.0
 10
34.65459641065222
 20
-11.94220663632806
 30
0.0
 10
35.2622470648314
 20
-11.68223435565041
 30
0.0
 10
35.78267524069889
 20
-11.45957862594986
 30
0.0
 10
36.28079638236846
 20
-11.18363775121472
 30
0.0
 10
36.78714614497542
 20
-10.92640457940236
 30
0.0
 10
37.86306125323237
 20
-10.37982378419694
 30
0.0
 10
39.03764210781875
 20
-9.924948096131123
 30
0.0
 10
40.24947645825639
 20
-9.815710606515418
 30
0.0
 10
40.86005430640527
 20
-9.760671738106668
 30
0.0
 10
41.40540599384583
 20
-9.994320537230124
 30
0.0
 10
42.0061464293111
 20
-10.02806112176806
 30
0.0
 10
42.52816252433318
 20
-10.05738015398957
 30
0.0
 10
43.05775587770763
 20
-9.971993173180836
 30
0.0
 10
43.57992741142056
 20
-9.99475651329001
 30
0.0
 10
44.78292817277666
 20
-10.04719965450777
 30
0.0
 10
46.07297964674417
 20
-9.999715081725551
 30
0.0
 10
47.2372597752754
 20
-10.24415891249527
 30
0.0
 10
47.77520892771417
 20
-10.35710282380917
 30
0.0
 10
48.30168685907263
 20
-10.53144812782304
 30
0.0
 10
48.83697142162193
 20
-10.63969259177194
 30
0.0
 10
49.48354300357096
 20
-10.77044135455958
 30
0.0
 10
49.9212610745332
 20
-10.64432057017292
 30
0.0
 10
50.48593906321013
 20
-11.05868822411417
 30
0.0
 10
50.98967201103652
 20
-11.42833365742194
 30
0.0
 10
51.56252434437124
 20
-11.61536263213583
 30
0.0
 10
52.05914323890167
 20
-11.98359395345291
 30
0.0
 10
52.54564554529917
 20
-12.34432406074777
 30
0.0
 10
52.93292834953
 20
-12.71323848622903
 30
0.0
 10
53.48465249693498
 20
-12.98706307638875
 30
0.0
 10
54.02208725846998
 20
-13.25379574344207
 30
0.0
 10
54.69364848822389
 20
-13.42464089665832
 30
0.0
 10
55.09621233317026
 20
-13.90658257293666
 30
0.0
 10
55.46403511818153
 20
-14.34693292184915
 30
0.0
 10
55.46251998541084
 20
-14.95873663743416
 30
0.0
 10
55.69691403828318
 20
-15.47527327329375
 30
0.0
 10
56.19981516476526
 20
-16.58352176705749
 30
0.0
 10
56.06384344293875
 20
-17.9549920490825
 30
0.0
 10
56.4399533510396
 20
-19.11098700364694
 30
0.0
 10
56.81006774549667
 20
-20.24855440984599
 30
0.0
 10
56.87018657886279
 20
-21.38876855419165
 30
0.0
 10
56.96117425239193
 20
-22.57790538258001
 30
0.0
 10
57.00496518287612
 20
-23.15021816043514
 30
0.0
 10
56.90812190883707
 20
-23.59454109488014
 30
0.0
 10
56.80666675240167
 20
-24.15083403077236
 30
0.0
 10
56.69532097961362
 20
-24.76135861148125
 30
0.0
 10
56.72135449135124
 20
-25.38908234257113
 30
0.0
 10
56.42945387587138
 20
-25.95031123281597
 30
0.0
  0
SPLINE
  5
44
330
1F
100
AcDbEntity
  8
Layer 1
 62
     7
420
 16777215
370
    70
100
AcDbSpline
210
0.0
220
0.0
230
1.0
 70
     8
 71
     3
 72
    44
 73
    40
 74
     0
 42
0.0000000001
 43
0.0000000001
 12
1.0
 22
0.0
 32
0.0
 13
1.0
 23
0.0
 33
0.0
 40
0.0
 40
0.0
 40
0.0
 40
0.0
 40
1.0
 40
1.0
 40
1.0
 40
2.0
 40
2.0
 40
2.0
 40
3.0
 40
3.0
 40
3.0
 40
4.0
 40
4.0
 40
4.0
 40
5.0
 40
5.0
 40
5.0
 40
6.0
 40
6.0
 40
6.0
 40
7.0
 40
7.0
 40
7.0
 40
8.0
 40
8.0
 40
8.0
 40
9.0
 40
9.0
 40
9.0
 40
10.0
 40
10.0
 40
10.0
 40
11.0
 40
11.0
 40
11.0
 40
12.0
 40
12.0
 40
12.0
 40
13.0
 40
13.0
 40
13.0
 40
13.0
 10
12.07547442532564
 20
-9.98834862782971
 30
0.0
 10
13.31154221560165
 20
-8.564595438005691
 30
0.0
 10
15.11913057853066
 20
-7.321114752535827
 30
0.0
 10
17.02832935297632
 20
-7.127913464741519
 30
0.0
 10
19.00727812804671
 20
-6.927653828636671
 30
0.0
 10
20.74044900241193
 20
-7.645847959544173
 30
0.0
 10
22.14892826376242
 20
-8.958876914279168
 30
0.0
 10
23.6489077759172
 20
-10.35720529937736
 30
0.0
 10
24.24284051925153
 20
-11.95106426316084
 30
0.0
 10
24.40235655653176
 20
-13.97883927907626
 30
0.0
 10
24.4677537390319
 20
-14.81017119432487
 30
0.0
 10
24.18971559796288
 20
-15.76900425076736
 30
0.0
 10
24.11530168177854
 20
-16.60642148423277
 30
0.0
 10
24.03142880255021
 20
-17.55028518725582
 30
0.0
 10
23.85804682643142
 20
-18.54661705770958
 30
0.0
 10
23.63193295632686
 20
-19.46576392454027
 30
0.0
 10
23.19205814734406
 20
-21.25384332138305
 30
0.0
 10
22.3339013968839
 20
-22.93333555931291
 30
0.0
 10
21.23002663213487
 20
-24.40095100131958
 30
0.0
 10
20.64426626246121
 20
-25.17972681113153
 30
0.0
 10
19.9123071323929
 20
-25.74003877697654
 30
0.0
 10
19.06082518464326
 20
-26.20345351823375
 30
0.0
 10
18.20058819690421
 20
-26.67163314570153
 30
0.0
 10
17.50890385188248
 20
-27.26163719544967
 30
0.0
 10
16.50670353275756
 20
-27.3647121151299
 30
0.0
 10
14.5265906325891
 20
-27.56836399414826
 30
0.0
 10
12.49490298893241
 20
-27.24596219740642
 30
0.0
 10
10.83598917187185
 20
-26.0846978396161
 30
0.0
 10
9.430457930812786
 20
-25.10080505554444
 30
0.0
 10
8.119774019435908
 20
-23.05001358953819
 30
0.0
 10
7.787404941281213
 20
-21.37046370855665
 30
0.0
 10
7.46624985220674
 20
-19.74758111482571
 30
0.0
 10
7.535194752417523
 20
-17.56939662387652
 30
0.0
 10
8.23173337363202
 20
-16.07027490812319
 30
0.0
 10
9.029769849881847
 20
-14.35270494850874
 30
0.0
 10
10.00416697228573
 20
-12.66398014795805
 30
0.0
 10
11.12289518077661
 20
-11.13990845378208
 30
0.0
 10
11.41756881840342
 20
-10.73846711466305
 30
0.0
 10
11.72265303539244
 20
-10.34247789869389
 30
0.0
 10
12.07547544015988
 20
-9.98834862782971
 30
0.0
  0
SPLINE
  5
45
330
1F
100
AcDbEntity
  8
Layer 1
 62
     7
420
 16777215
370
    70
100
AcDbSpline
210
0.0
220
0.0
230
1.0
 70
    11
 71
     3
 72
    29
 73
    25
 74
     0
 42
0.0000000001
 43
0.0000000001
 12
1.0
 22
0.0
 32
0.0
 13
1.0
 23
0.0
 33
0.0
 40
0.0
 40
0.0
 40
0.0
 40
0.0
 40
1.0
 40
1.0
 40
1.0
 40
2.0
 40
2.0
 40
2.0
 40
3.0
 40
3.0
 40
3.0
 40
4.0
 40
4.0
 40
4.0
 40
5.0
 40
5.0
 40
5.0
 40
6.0
 40
6.0
 40
6.0
 40
7.0
 40
7.0
 40
7.0
 40
8.0
 40
8.0
 40
8.0
 40
8.0
 10
53.40616521590679
 20
-22.95744324438111
 30
0.0
 10
54.02069230723666
 20
-19.57850288194598
 30
0.0
 10
51.98291123855347
 20
-16.72647408374208
 30
0.0
 10
48.87617446876596
 20
-15.49901735028127
 30
0.0
 10
47.43477098773125
 20
-14.92952577776193
 30
0.0
 10
45.89785256068873
 20
-14.63129190480681
 30
0.0
 10
44.3681957020636
 20
-14.37321475057332
 30
0.0
 10
42.73148126543654
 20
-14.09707530026736
 30
0.0
 10
41.20366182781347
 20
-13.88869935162847
 30
0.0
 10
39.61315305607389
 20
-14.49771185397013
 30
0.0
 10
36.51330375640944
 20
-15.68465719650097
 30
0.0
 10
34.89792040312654
 20
-19.22218456374806
 30
0.0
 10
36.79481423258137
 20
-22.18303743457237
 30
0.0
 10
37.64119924222069
 20
-23.50415591084139
 30
0.0
 10
39.04676688352654
 20
-24.3928880561918
 30
0.0
 10
40.44004203404458
 20
-25.05663905724236
 30
0.0
 10
41.81503488254139
 20
-25.71168043890182
 30
0.0
 10
43.11759530313277
 20
-26.53395703415125
 30
0.0
 10
44.59422139075665
 20
-26.93205072475399
 30
0.0
 10
47.74852814558903
 20
-27.78244178031567
 30
0.0
 10
51.4440337902836
 20
-27.37796005103625
 30
0.0
 10
52.97999572023915
 20
-24.10322358927
 30
0.0
 10
53.15434919480887
 20
-23.73149453188014
 30
0.0
 10
53.29596677955568
 20
-23.35368669014348
 30
0.0
 10
53.40616521590679
 20
-22.95744324438111
 30
0.0
  0
SPLINE
  5
46
330
1F
100
AcDbEntity
  8
Layer 1
 62
     7
420
 16777215
370
    70
100
AcDbSpline
210
0.0
220
0.0
230
1.0
 70
     8
 71
     3
 72
   344
 73
   340
 74
     0
 42
0.0000000001
 43
0.0000000001
 12
1.0
 22
0.0
 32
0.0
 13
1.0
 23
0.0
 33
0.0
 40
0.0
 40
0.0
 40
0.0
 40
0.0
 40
1.0
 40
1.0
 40
1.0
 40
2.0
 40
2.0
 40
2.0
 40
3.0
 40
3.0
 40
3.0
 40
4.0
 40
4.0
 40
4.0
 40
5.0
 40
5.0
 40
5.0
 40
6.0
 40
6.0
 40
6.0
 40
7.0
 40
7.0
 40
7.0
 40
8.0
 40
8.0
 40
8.0
 40
9.0
 40
9.0
 40
9.0
 40
10.0
 40
10.0
 40
10.0
 40
11.0
 40
11.0
 40
11.0
 40
12.0
 40
12.0
 40
12.0
 40
13.0
 40
13.0
 40
13.0
 40
14.0
 40
14.0
 40
14.0
 40
15.0
 40
15.0
 40
15.0
 40
16.0
 40
16.0
 40
16.0
 40
17.0
 40
17.0
 40
17.0
 40
18.0
 40
18.0
 40
18.0
 40
19.0
 40
19.0
 40
19.0
 40
20.0
 40
20.0
 40
20.0
 40
21.0
 40
21.0
 40
21.0
 40
22.0
 40
22.0
 40
22.0
 40
23.0
 40
23.0
 40
23.0
 40
24.0
 40
24.0
 40
24.0
 40
25.0
 40
25.0
 40
25.0
 40
26.0
 40
26.0
 40
26.0
 40
27.0
 40
27.0
 40
27.0
 40
28.0
 40
28.0
 40
28.0
 40
29.0
 40
29.0
 40
29.0
 40
30.0
 40
30.0
 40
30.0
 40
31.0
 40
31.0
 40
31.0
 40
32.0
 40
32.0
 40
32.0
 40
33.0
 40
33.0
 40
33.0
 40
34.0
 40
34.0
 40
34.0
 40
35.0
 40
35.0
 40
35.0
 40
36.0
 40
36.0
 40
36.0
 40
37.0
 40
37.0
 40
37.0
 40
38.0
 40
38.0
 40
38.0
 40
39.0
 40
39.0
 40
39.0
 40
40.0
 40
40.0
 40
40.0
 40
41.0
 40
41.0
 40
41.0
 40
42.0
 40
42.0
 40
42.0
 40
43.0
 40
43.0
 40
43.0
 40
44.0
 40
44.0
 40
44.0
 40
45.0
 40
45.0
 40
45.0
 40
46.0
 40
46.0
 40
46.0
 40
47.0
 40
47.0
 40
47.0
 40
48.0
 40
48.0
 40
48.0
 40
49.0
 40
49.0
 40
49.0
 40
50.0
 40
50.0
 40
50.0
 40
51.0
 40
51.0
 40
51.0
 40
52.0
 40
52.0
 40
52.0
 40
53.0
 40
53.0
 40
53.0
 40
54.0
 40
54.0
 40
54.0
 40
55.0
 40
55.0
 40
55.0
 40
56.0
 40
56.0
 40
56.0
 40
57.0
 40
57.0
 40
57.0
 40
58.0
 40
58.0
 40
58.0
 40
59.0
 40
59.0
 40
59.0
 40
60.0
 40
60.0
 40
60.0
 40
61.0
 40
61.0
 40
61.0
 40
62.0
 40
62.0
 40
62.0
 40
63.0
 40
63.0
 40
63.0
 40
64.0
 40
64.0
 40
64.0
 40
65.0
 40
65.0
 40
65.0
 40
66.0
 40
66.0
 40
66.0
 40
67.0
 40
67.0
 40
67.0
 40
68.0
 40
68.0
 40
68.0
 40
69.0
 40
69.0
 40
69.0
 40
70.0
 40
70.0
 40
70.0
 40
71.0
 40
71.0
 40
71.0
 40
72.0
 40
72.0
 40
72.0
 40
73.0
 40
73.0
 40
73.0
 40
74.0
 40
74.0
 40
74.0
 40
75.0
 40
75.0
 40
75.0
 40
76.0
 40
76.0
 40
76.0
 40
77.0
 40
77.0
 40
77.0
 40
78.0
 40
78.0
 40
78.0
 40
79.0
 40
79.0
 40
79.0
 40
80.0
 40
80.0
 40
80.0
 40
81.0
 40
81.0
 40
81.0
 40
82.0
 40
82.0
 40
82.0
 40
83.0
 40
83.0
 40
83.0
 40
84.0
 40
84.0
 40
84.0
 40
85.0
 40
85.0
 40
85.0
 40
86.0
 40
86.0
 40
86.0
 40
87.0
 40
87.0
 40
87.0
 40
88.0
 40
88.0
 40
88.0
 40
89.0
 40
89.0
 40
89.0
 40
90.0
 40
90.0
 40
90.0
 40
91.0
 40
91.0
 40
91.0
 40
92.0
 40
92.0
 40
92.0
 40
93.0
 40
93.0
 40
93.0
 40
94.0
 40
94.0
 40
94.0
 40
95.0
 40
95.0
 40
95.0
 40
96.0
 40
96.0
 40
96.0
 40
97.0
 40
97.0
 40
97.0
 40
98.0
 40
98.0
 40
98.0
 40
99.0
 40
99.0
 40
99.0
 40
100.0
 40
100.0
 40
100.0
 40
101.0
 40
101.0
 40
101.0
 40
102.0
 40
102.0
 40
102.0
 40
103.0
 40
103.0
 40
103.0
 40
104.0
 40
104.0
 40
104.0
 40
105.0
 40
105.0
 40
105.0
 40
106.0
 40
106.0
 40
106.0
 40
107.0
 40
107.0
 40
107.0
 40
108.0
 40
108.0
 40
108.0
 40
109.0
 40
109.0
 40
109.0
 40
110.0
 40
110.0
 40
110.0
 40
111.0
 40
111.0
 40
111.0
 40
112.0
 40
112.0
 40
112.0
 40
113.0
 40
113.0
 40
113.0
 40
113.0
 10
8.79713254704739
 20
-32.9336698724975
 30
0.0
 10
8.520754793023077
 20
-32.74275128466085
 30
0.0
 10
8.229413603018049
 20
-32.59798181160143
 30
0.0
 10
7.984041067630856
 20
-32.37092503565398
 30
0.0
 10
7.609306657960688
 20
-32.02416256379863
 30
0.0
 10
7.409179042360139
 20
-31.96648827865697
 30
0.0
 10
6.96780018986087
 20
-31.73165857655504
 30
0.0
 10
6.293946324599169
 20
-31.37314366007541
 30
0.0
 10
5.705429155717777
 20
-31.12129681777348
 30
0.0
 10
4.947505644626113
 20
-30.91312540553503
 30
0.0
 10
4.626502821058062
 20
-30.82495871043092
 30
0.0
 10
3.895265087962646
 20
-30.78071830820727
 30
0.0
 10
3.697351006439728
 20
-30.48945165039751
 30
0.0
 10
3.523128107591522
 20
-30.23305088764772
 30
0.0
 10
3.740266362946802
 20
-29.85286840422271
 30
0.0
 10
3.738499415671388
 20
-29.54681582701977
 30
0.0
 10
3.73433168374931
 20
-28.82492383087085
 30
0.0
 10
3.334734427025978
 20
-28.12104174737232
 30
0.0
 10
3.173719100868059
 20
-27.42963156962961
 30
0.0
 10
3.010315821580005
 20
-26.72796736739363
 30
0.0
 10
3.07511161005305
 20
-26.03577126665444
 30
0.0
 10
2.84868868442556
 20
-25.34718102933887
 30
0.0
 10
2.73611608252472
 20
-25.00482879427571
 30
0.0
 10
2.714248561830421
 20
-24.75283184810347
 30
0.0
 10
2.682995173895695
 20
-24.39368741912904
 30
0.0
 10
2.643199381025549
 20
-23.93637900393388
 30
0.0
 10
2.450306855353612
 20
-23.64099403868332
 30
0.0
 10
2.29742938692084
 20
-23.21710127311194
 30
0.0
 10
2.056808583440557
 20
-22.54991716228874
 30
0.0
 10
2.006126753827781
 20
-21.8634657845507
 30
0.0
 10
1.893099441485826
 20
-21.17033839411723
 30
0.0
 10
1.779943183210409
 20
-20.47642025712376
 30
0.0
 10
1.552381491583888
 20
-19.82249913967598
 30
0.0
 10
1.48214389927917
 20
-19.12158172288915
 30
0.0
 10
1.333372465753882
 20
-17.63695667444027
 30
0.0
 10
1.406965914335552
 20
-16.15983480590403
 30
0.0
 10
1.633144446882081
 20
-14.69116514062153
 30
0.0
 10
1.751811672615834
 20
-13.92061033713874
 30
0.0
 10
2.028429761305966
 20
-13.22708106372736
 30
0.0
 10
2.076035239660971
 20
-12.4572008613832
 30
0.0
 10
2.12735482450431
 20
-11.62725578513027
 30
0.0
 10
2.318560844924162
 20
-10.79009535803763
 30
0.0
 10
2.522058191503611
 20
-9.98834862782971
 30
0.0
 10
2.712651896394719
 20
-9.237440165074986
 30
0.0
 10
2.595233190560975
 20
-8.521136645276808
 30
0.0
 10
2.972082733465274
 20
-7.812499395812917
 30
0.0
 10
3.307377004546525
 20
-7.182003712604859
 30
0.0
 10
3.667337970018757
 20
-6.488212819347786
 30
0.0
 10
4.069346798617643
 20
-5.911038652639869
 30
0.0
 10
4.289042870269997
 20
-5.595615487614168
 30
0.0
 10
4.624090601123334
 20
-5.367206321888185
 30
0.0
 10
4.834462435123188
 20
-5.041906564669994
 30
0.0
 10
4.941971484402643
 20
-4.875664406846668
 30
0.0
 10
4.985218676558057
 20
-4.683966552640842
 30
0.0
 10
5.115661969952498
 20
-4.52297804703792
 30
0.0
 10
5.238010996197645
 20
-4.371979200070832
 30
0.0
 10
5.517677019364442
 20
-4.256400938839028
 30
0.0
 10
5.605934993381525
 20
-4.121832841766389
 30
0.0
 10
5.832271652144855
 20
-3.776734352856111
 30
0.0
 10
5.759065560063466
 20
-3.353227040917091
 30
0.0
 10
6.091730568091937
 20
-3.031551752435563
 30
0.0
 10
6.36759100638028
 20
-2.764804472362635
 30
0.0
 10
6.746595026046116
 20
-2.558586736547088
 30
0.0
 10
7.029857304353577
 20
-2.307152661506254
 30
0.0
 10
7.702244203133419
 20
-1.710317181065698
 30
0.0
 10
8.144438998737957
 20
-1.544329576168062
 30
0.0
 10
9.042006470399214
 20
-1.677185863940824
 30
0.0
 10
9.929932073449056
 20
-1.808614980039718
 30
0.0
 10
10.60722566714895
 20
-1.818841475518335
 30
0.0
 10
11.50020395914378
 20
-1.651505610055286
 30
0.0
 10
12.22556928360935
 20
-1.515578863084581
 30
0.0
 10
12.8394872092774
 20
-1.119698444743057
 30
0.0
 10
13.59077976987095
 20
-1.077305825722634
 30
0.0
 10
14.02761483642676
 20
-1.052656862691947
 30
0.0
 10
14.32675401813978
 20
-1.220134052086109
 30
0.0
 10
14.7439623157919
 20
-1.275047960489575
 30
0.0
 10
15.185034239538
 20
-1.333102853827641
 30
0.0
 10
15.62483502903539
 20
-1.207212072759451
 30
0.0
 10
16.06795719620833
 20
-1.286714495047363
 30
0.0
 10
16.4578381929336
 20
-1.356664693750973
 30
0.0
 10
16.7027688486723
 20
-1.587476387315418
 30
0.0
 10
17.06557985901999
 20
-1.704922362301659
 30
0.0
 10
17.50317251460665
 20
-1.846575990820131
 30
0.0
 10
17.99712687148889
 20
-1.731740816172229
 30
0.0
 10
18.4458072127414
 20
-1.738425592870827
 30
0.0
 10
19.27896510350936
 20
-1.750838604858473
 30
0.0
 10
19.84414805103173
 20
-2.203614623809724
 30
0.0
 10
20.61766972478007
 20
-2.421298744481242
 30
0.0
 10
21.3287676859887
 20
-2.621415612114725
 30
0.0
 10
21.90681360089833
 20
-2.54971649836778
 30
0.0
 10
22.59572020625935
 20
-2.423324924491946
 30
0.0
 10
22.91694556868699
 20
-2.364390696237908
 30
0.0
 10
23.30603012750771
 20
-2.499459910316672
 30
0.0
 10
23.59957496621081
 20
-2.405088226134303
 30
0.0
 10
23.94043679879794
 20
-2.295504609004992
 30
0.0
 10
24.16664798010217
 20
-1.826075820800144
 30
0.0
 10
24.50161546502411
 20
-1.743966334176674
 30
0.0
 10
24.70252656133349
 20
-1.694717652685275
 30
0.0
 10
25.34777399042948
 20
-1.919429069325285
 30
0.0
 10
25.55831162962841
 20
-1.994427427501389
 30
0.0
 10
26.0161011352683
 20
-2.157502597546669
 30
0.0
 10
26.31881281787514
 20
-2.250590790252924
 30
0.0
 10
26.82032500070386
 20
-2.284697677726942
 30
0.0
 10
27.21787945862201
 20
-2.311734598514173
 30
0.0
 10
27.60059034520256
 20
-2.381746499820009
 30
0.0
 10
27.99465364792791
 20
-2.423143396015272
 30
0.0
 10
28.29336190122513
 20
-2.454523112088471
 30
0.0
 10
28.84834534157944
 20
-2.339546431662787
 30
0.0
 10
29.0910724548131
 20
-2.48841918419152
 30
0.0
 10
29.70383799741183
 20
-2.86424902769833
 30
0.0
 10
29.71218526365166
 20
-3.849035205506387
 30
0.0
 10
30.47241815587987
 20
-4.161829996712362
 30
0.0
 10
30.9867253230031
 20
-4.373439629235008
 30
0.0
 10
31.14021536545733
 20
-4.103835828526118
 30
0.0
 10
31.58024268492019
 20
-3.953478943245702
 30
0.0
 10
31.90763883775346
 20
-3.841608012474997
 30
0.0
 10
32.23617341677949
 20
-3.929358073526942
 30
0.0
 10
32.56088108169499
 20
-3.997685376959175
 30
0.0
 10
33.22450969694832
 20
-4.137330844744863
 30
0.0
 10
34.01655937453155
 20
-4.35524058562487
 30
0.0
 10
34.64255375153182
 20
-4.620000260839447
 30
0.0
 10
35.51454557593916
 20
-4.988802730481944
 30
0.0
 10
35.98620827525999
 20
-4.878748280834164
 30
0.0
 10
36.88588545833083
 20
-4.633570117036394
 30
0.0
 10
37.47535401524957
 20
-4.472929365974298
 30
0.0
 10
38.34837655013153
 20
-4.325481783616245
 30
0.0
 10
38.9469113253164
 20
-4.396791019093333
 30
0.0
 10
39.14908999420625
 20
-4.420878518944859
 30
0.0
 10
39.54075072272207
 20
-4.628408234507636
 30
0.0
 10
39.77516728502403
 20
-4.764501495107778
 30
0.0
 10
40.27284481683111
 20
-5.053433972258189
 30
0.0
 10
40.04581161571279
 20
-5.168298471110145
 30
0.0
 10
40.23576206335153
 20
-5.682742920674855
 30
0.0
 10
40.55475135609514
 20
-6.546664396841114
 30
0.0
 10
41.32598911330916
 20
-6.335854150559574
 30
0.0
 10
42.05998541603334
 20
-6.229328730264026
 30
0.0
 10
42.87733737261389
 20
-6.110705842953747
 30
0.0
 10
43.60862928580362
 20
-6.334199084028342
 30
0.0
 10
44.41295207727709
 20
-6.483015743823064
 30
0.0
 10
45.05956036439291
 20
-6.602651897994305
 30
0.0
 10
45.53644227755376
 20
-6.476733413933466
 30
0.0
 10
46.16554228778568
 20
-6.446050168352358
 30
0.0
 10
46.88177219505334
 20
-6.411117315419991
 30
0.0
 10
47.33562670209097
 20
-6.720741823507776
 30
0.0
 10
48.10195944779651
 20
-6.496669307988896
 30
0.0
 10
48.47628050072638
 20
-6.387219385077919
 30
0.0
 10
48.87221117030334
 20
-6.273640685105002
 30
0.0
 10
49.22521528336334
 20
-6.112600399186249
 30
0.0
 10
49.36724219440584
 20
-6.047807798997509
 30
0.0
 10
49.48271073815792
 20
-5.959926226544035
 30
0.0
 10
49.61893571693736
 20
-5.890106173946669
 30
0.0
 10
49.98548461540457
 20
-5.702237079748758
 30
0.0
 10
49.94048988300028
 20
-5.63496871039888
 30
0.0
 10
50.17726809204098
 20
-5.959872984249714
 30
0.0
 10
50.55075008398959
 20
-6.472360581322921
 30
0.0
 10
51.00529724680723
 20
-7.244259938884447
 30
0.0
 10
51.81123186025471
 20
-7.09406699467652
 30
0.0
 10
52.49617524969332
 20
-6.96642182029263
 30
0.0
 10
52.68874752307791
 20
-6.080089532704859
 30
0.0
 10
53.47880705164501
 20
-6.004135233847086
 30
0.0
 10
53.97292555326278
 20
-5.956631947087216
 30
0.0
 10
55.25355564727013
 20
-6.437846001103202
 30
0.0
 10
55.4946758389318
 20
-6.936395467008197
 30
0.0
 10
55.57199938661041
 20
-7.096272635035701
 30
0.0
 10
55.43774753014291
 20
-7.273757551951803
 30
0.0
 10
55.49768241225681
 20
-7.419321645442222
 30
0.0
 10
55.57263148612848
 20
-7.601350767904452
 30
0.0
 10
55.80754094882347
 20
-7.670329994033055
 30
0.0
 10
55.97286370867416
 20
-7.822673052806673
 30
0.0
 10
56.25181788091165
 20
-8.07972617661542
 30
0.0
 10
56.36511571806098
 20
-8.453569348175
 30
0.0
 10
56.61360148950583
 20
-8.734170904771114
 30
0.0
 10
56.90105305906859
 20
-9.058774431952365
 30
0.0
 10
57.2519922106257
 20
-9.068568920162912
 30
0.0
 10
57.58188341477749
 20
-9.317560693333057
 30
0.0
 10
57.94082888020915
 20
-9.588481732707224
 30
0.0
 10
57.97230734337361
 20
-9.922168514337777
 30
0.0
 10
58.09366959002389
 20
-10.31555178796111
 30
0.0
 10
58.30909560466876
 20
-11.01383311682333
 30
0.0
 10
58.83982966302152
 20
-11.45584923615042
 30
0.0
 10
59.17510418124998
 20
-12.09675812086236
 30
0.0
 10
59.34606096210306
 20
-12.42355814231749
 30
0.0
 10
59.42437506044431
 20
-12.7583256852421
 30
0.0
 10
59.57044707168749
 20
-13.08712167427153
 30
0.0
 10
59.74521948838236
 20
-13.48051989692347
 30
0.0
 10
60.07261800613014
 20
-13.75307335637737
 30
0.0
 10
60.2219178899111
 20
-14.1489150976136
 30
0.0
 10
60.49522161685167
 20
-14.87353068617777
 30
0.0
 10
60.49738537199821
 20
-15.57497058360013
 30
0.0
 10
60.96097702273234
 20
-16.18348651903387
 30
0.0
 10
61.55772289685804
 20
-16.96678227777958
 30
0.0
 10
60.91495486122847
 20
-17.48745455353181
 30
0.0
 10
60.42282767122707
 20
-18.18993865929888
 30
0.0
 10
59.65087317818359
 20
-19.29186062735124
 30
0.0
 10
58.9603375674936
 20
-21.1190690454036
 30
0.0
 10
59.55273821399499
 20
-22.42137328825766
 30
0.0
 10
59.85743495060263
 20
-23.09120350402696
 30
0.0
 10
60.29934967161749
 20
-23.69241108230138
 30
0.0
 10
60.58861099458818
 20
-24.36912589315165
 30
0.0
 10
60.84384691938749
 20
-24.96623970290334
 30
0.0
 10
61.41138155908902
 20
-25.79812712410403
 30
0.0
 10
61.33034827499957
 20
-26.4491225642218
 30
0.0
 10
61.22838886999443
 20
-27.26823175473974
 30
0.0
 10
60.29994730349987
 20
-27.64654003346325
 30
0.0
 10
59.89661277052194
 20
-28.3307739401301
 30
0.0
 10
59.51681297656889
 20
-28.9750825116007
 30
0.0
 10
59.64858587209235
 20
-29.7151318023532
 30
0.0
 10
59.27788456459582
 20
-30.36997934845234
 30
0.0
 10
58.88300698127068
 20
-31.06753452622135
 30
0.0
 10
58.74123809407582
 20
-31.73774731630189
 30
0.0
 10
58.00722074635875
 20
-32.17668775195666
 30
0.0
 10
57.86440117736902
 20
-32.26209347707653
 30
0.0
 10
57.56299212734137
 20
-32.33266890134579
 30
0.0
 10
57.50632697506833
 20
-32.47188781326847
 30
0.0
 10
57.47579637021055
 20
-32.54689754002553
 30
0.0
 10
57.60214858178529
 20
-32.97884910500885
 30
0.0
 10
57.60651141239833
 20
-33.10946656542036
 30
0.0
 10
57.61659362165013
 20
-33.41131476550105
 30
0.0
 10
57.66678135673515
 20
-33.83489193470111
 30
0.0
 10
57.41543841948431
 20
-34.02711115568811
 30
0.0
 10
56.96086570798042
 20
-34.37475415470352
 30
0.0
 10
55.99943858022139
 20
-33.44351887322455
 30
0.0
 10
55.44457550159278
 20
-33.42878822206128
 30
0.0
 10
54.70565677279652
 20
-33.40917121301681
 30
0.0
 10
54.00564411193972
 20
-33.74464628336164
 30
0.0
 10
53.24525309695402
 20
-33.56433974582301
 30
0.0
 10
52.53508623043555
 20
-33.39594253142533
 30
0.0
 10
51.91001398395681
 20
-32.9671904535648
 30
0.0
 10
51.18051086935222
 20
-32.85456812812319
 30
0.0
 10
50.22804825153457
 20
-32.70752481498671
 30
0.0
 10
50.17038975678014
 20
-33.3999986557813
 30
0.0
 10
49.40347219761765
 20
-33.79683308596163
 30
0.0
 10
49.05036391573
 20
-33.9795457154493
 30
0.0
 10
48.65352698074735
 20
-33.95139800340245
 30
0.0
 10
48.34426292754152
 20
-34.18777542956478
 30
0.0
 10
48.0445776870307
 20
-34.41683155515221
 30
0.0
 10
47.82792100077445
 20
-34.72758683287945
 30
0.0
 10
47.53368474152904
 20
-34.96952886487462
 30
0.0
 10
47.25340969490222
 20
-35.19999099239188
 30
0.0
 10
47.10553904447973
 20
-35.44928018158248
 30
0.0
 10
46.78926525419026
 20
-35.6195099064168
 30
0.0
 10
46.4241203861475
 20
-35.81604377144147
 30
0.0
 10
46.01742660785875
 20
-35.78457942427237
 30
0.0
 10
45.64809150507514
 20
-35.9209210916272
 30
0.0
 10
45.35270383184999
 20
-36.02996474217667
 30
0.0
 10
45.13714296715195
 20
-36.24847572855595
 30
0.0
 10
44.80818618781902
 20
-36.31788531133432
 30
0.0
 10
44.48362971274764
 20
-36.38636643389521
 30
0.0
 10
44.15378199769071
 20
-36.33219351969471
 30
0.0
 10
43.82718094725543
 20
-36.31643477491053
 30
0.0
 10
43.1256307126707
 20
-36.28258445175521
 30
0.0
 10
42.44779080553222
 20
-36.45434942886656
 30
0.0
 10
41.75929814592251
 20
-36.18431387954352
 30
0.0
 10
40.9736530402925
 20
-35.87617390926112
 30
0.0
 10
40.61585903840889
 20
-35.04865467556884
 30
0.0
 10
39.92752638090347
 20
-34.6431378728362
 30
0.0
 10
39.18035948080124
 20
-34.20296010539575
 30
0.0
 10
38.4725465522625
 20
-34.38318329871905
 30
0.0
 10
37.70695030253096
 20
-34.1081649525388
 30
0.0
 10
36.9992144197279
 20
-33.8539312724638
 30
0.0
 10
36.30463790231445
 20
-33.68402515760797
 30
0.0
 10
35.58214819183013
 20
-33.54361773247774
 30
0.0
 10
34.89443976252444
 20
-33.40996964254931
 30
0.0
 10
34.45608275980074
 20
-32.80355268881441
 30
0.0
 10
33.76960550621266
 20
-32.690418161697
 30
0.0
 10
33.20954806558019
 20
-32.59811818617214
 30
0.0
 10
33.06027924284753
 20
-32.8691791466821
 30
0.0
 10
32.58915994553637
 20
-33.02650335792502
 30
0.0
 10
32.29313121026876
 20
-33.12535833488525
 30
0.0
 10
31.86499519554289
 20
-33.04836263218223
 30
0.0
 10
31.5508058951976
 20
-33.00808310142204
 30
0.0
 10
30.78152622427082
 20
-32.90946031530479
 30
0.0
 10
30.50284607137519
 20
-32.07279596726426
 30
0.0
 10
30.44825799684918
 20
-31.35200806815202
 30
0.0
 10
30.36652362723973
 20
-30.27277702606787
 30
0.0
 10
29.6027288672019
 20
-27.57957502098871
 30
0.0
 10
28.03942914994806
 20
-28.06035663866244
 30
0.0
 10
27.35702313768423
 20
-28.2702257142245
 30
0.0
 10
27.07160496946757
 20
-29.19396002432005
 30
0.0
 10
26.74111160576866
 20
-29.73541820594795
 30
0.0
 10
26.56061603387345
 20
-30.03113005642644
 30
0.0
 10
26.35039569326207
 20
-30.29989077418455
 30
0.0
 10
26.07058575221756
 20
-30.51103522043601
 30
0.0
 10
25.78476870892647
 20
-30.72671262313894
 30
0.0
 10
25.34837401185511
 20
-30.82730029559085
 30
0.0
 10
25.1410715477823
 20
-31.12492334353763
 30
0.0
 10
24.75425668342983
 20
-31.68027139226734
 30
0.0
 10
25.4230888119512
 20
-32.51823024886387
 30
0.0
 10
24.52775150634291
 20
-32.93138040642561
 30
0.0
 10
24.14780079470147
 20
-33.10670728647079
 30
0.0
 10
23.76897197301067
 20
-32.92198863841147
 30
0.0
 10
23.4312439014607
 20
-33.23297849027742
 30
0.0
 10
23.10943071323075
 20
-33.52931345371952
 30
0.0
 10
23.08751188995625
 20
-33.90937123266924
 30
0.0
 10
22.69805128113679
 20
-34.17242647495853
 30
0.0
 10
22.33090937902438
 20
-34.42040688639852
 30
0.0
 10
22.08786386971133
 20
-34.42009023452785
 30
0.0
 10
21.88176401348872
 20
-34.8546719539334
 30
0.0
 10
21.68471181717475
 20
-35.27017579685828
 30
0.0
 10
21.71580481850262
 20
-35.54216245512627
 30
0.0
 10
21.29789434927488
 20
-35.75706460023204
 30
0.0
 10
20.98859623216877
 20
-35.91611500393721
 30
0.0
 10
20.66304565206739
 20
-35.97590439127523
 30
0.0
 10
20.35853140394536
 20
-36.1732252742989
 30
0.0
 10
20.01957150161065
 20
-36.39286644922186
 30
0.0
 10
19.69419177894108
 20
-36.60681717900176
 30
0.0
 10
19.30911250300078
 20
-36.75247086503794
 30
0.0
 10
18.50973505886721
 20
-37.0548300896105
 30
0.0
 10
17.91752079211187
 20
-36.52841413083888
 30
0.0
 10
17.12403634158765
 20
-36.42534919233827
 30
0.0
 10
16.30964190663662
 20
-36.31956827590314
 30
0.0
 10
15.8714203882694
 20
-36.91628272268741
 30
0.0
 10
15.08327975911167
 20
-36.89823556794964
 30
0.0
 10
14.52511952733433
 20
-36.88545459498783
 30
0.0
 10
14.54944132126406
 20
-37.05872405295869
 30
0.0
 10
14.07271187058508
 20
-37.23329121482925
 30
0.0
 10
13.6528162064939
 20
-37.38704717485598
 30
0.0
 10
13.36486739245962
 20
-37.14660818357846
 30
0.0
 10
12.997269687683
 20
-37.00197801416604
 30
0.0
 10
12.61449059532614
 20
-36.85137477520203
 30
0.0
 10
12.3723665165285
 20
-36.98050078581509
 30
0.0
 10
12.00261237055489
 20
-36.92416052374404
 30
0.0
 10
11.46057284050812
 20
-36.84156875429876
 30
0.0
 10
11.35792374383929
 20
-36.45060253990419
 30
0.0
 10
11.19928556053214
 20
-36.02242143070351
 30
0.0
 10
11.10895833689739
 20
-35.7786187723482
 30
0.0
 10
10.97624331845419
 20
-35.27806237252371
 30
0.0
 10
10.75965615844148
 20
-35.12163342528909
 30
0.0
 10
10.3746523769244
 20
-34.84356645114099
 30
0.0
 10
10.65368772769261
 20
-35.17471391735863
 30
0.0
 10
10.2248013723683
 20
-35.13507979119213
 30
0.0
 10
9.985878798156287
 20
-35.11300054494707
 30
0.0
 10
9.9745999105664
 20
-35.04933541871471
 30
0.0
 10
9.792743808372165
 20
-34.85152799742157
 30
0.0
 10
9.576463355568459
 20
-34.61627672936397
 30
0.0
 10
9.291509498715463
 20
-34.25624334808842
 30
0.0
 10
9.231309084961152
 20
-33.93129253530911
 30
0.0
 10
9.136558525077197
 20
-33.41984635868918
 30
0.0
 10
9.217482570614985
 20
-33.34699857308432
 30
0.0
 10
8.797131532213118
 20
-32.9336698724975
 30
0.0
  0
SPLINE
  5
47
330
1F
100
AcDbEntity
  8
Layer 1
 62
     7
420
 16777215
370
    70
100
AcDbSpline
210
0.0
220
0.0
230
1.0
 70
     8
 71
     3
 72
   257
 73
   253
 74
     0
 42
0.0000000001
 43
0.0000000001
 12
1.0
 22
0.0
 32
0.0
 13
1.0
 23
0.0
 33
0.0
 40
0.0
 40
0.0
 40
0.0
 40
0.0
 40
1.0
 40
1.0
 40
1.0
 40
2.0
 40
2.0
 40
2.0
 40
3.0
 40
3.0
 40
3.0
 40
4.0
 40
4.0
 40
4.0
 40
5.0
 40
5.0
 40
5.0
 40
6.0
 40
6.0
 40
6.0
 40
7.0
 40
7.0
 40
7.0
 40
8.0
 40
8.0
 40
8.0
 40
9.0
 40
9.0
 40
9.0
 40
10.0
 40
10.0
 40
10.0
 40
11.0
 40
11.0
 40
11.0
 40
12.0
 40
12.0
 40
12.0
 40
13.0
 40
13.0
 40
13.0
 40
14.0
 40
14.0
 40
14.0
 40
15.0
 40
15.0
 40
15.0
 40
16.0
 40
16.0
 40
16.0
 40
17.0
 40
17.0
 40
17.0
 40
18.0
 40
18.0
 40
18.0
 40
19.0
 40
19.0
 40
19.0
 40
20.0
 40
20.0
 40
20.0
 40
21.0
 40
21.0
 40
21.0
 40
22.0
 40
22.0
 40
22.0
 40
23.0
 40
23.0
 40
23.0
 40
24.0
 40
24.0
 40
24.0
 40
25.0
 40
25.0
 40
25.0
 40
26.0
 40
26.0
 40
26.0
 40
27.0
 40
27.0
 40
27.0
 40
28.0
 40
28.0
 40
28.0
 40
29.0
 40
29.0
 40
29.0
 40
30.0
 40
30.0
 40
30.0
 40
31.0
 40
31.0
 40
31.0
 40
32.0
 40
32.0
 40
32.0
 40
33.0
 40
33.0
 40
33.0
 40
34.0
 40
34.0
 40
34.0
 40
35.0
 40
35.0
 40
35.0
 40
36.0
 40
36.0
 40
36.0
 40
37.0
 40
37.0
 40
37.0
 40
38.0
 40
38.0
 40
38.0
 40
39.0
 40
39.0
 40
39.0
 40
40.0
 40
40.0
 40
40.0
 40
41.0
 40
41.0
 40
41.0
 40
42.0
 40
42.0
 40
42.0
 40
43.0
 40
43.0
 40
43.0
 40
44.0
 40
44.0
 40
44.0
 40
45.0
 40
45.0
 40
45.0
 40
46.0
 40
46.0
 40
46.0
 40
47.0
 40
47.0
 40
47.0
 40
48.0
 40
48.0
 40
48.0
 40
49.0
 40
49.0
 40
49.0
 40
50.0
 40
50.0
 40
50.0
 40
51.0
 40
51.0
 40
51.0
 40
52.0
 40
52.0
 40
52.0
 40
53.0
 40
53.0
 40
53.0
 40
54.0
 40
54.0
 40
54.0
 40
55.0
 40
55.0
 40
55.0
 40
56.0
 40
56.0
 40
56.0
 40
57.0
 40
57.0
 40
57.0
 40
58.0
 40
58.0
 40
58.0
 40
59.0
 40
59.0
 40
59.0
 40
60.0
 40
60.0
 40
60.0
 40
61.0
 40
61.0
 40
61.0
 40
62.0
 40
62.0
 40
62.0
 40
63.0
 40
63.0
 40
63.0
 40
64.0
 40
64.0
 40
64.0
 40
65.0
 40
65.0
 40
65.0
 40
66.0
 40
66.0
 40
66.0
 40
67.0
 40
67.0
 40
67.0
 40
68.0
 40
68.0
 40
68.0
 40
69.0
 40
69.0
 40
69.0
 40
70.0
 40
70.0
 40
70.0
 40
71.0
 40
71.0
 40
71.0
 40
72.0
 40
72.0
 40
72.0
 40
73.0
 40
73.0
 40
73.0
 40
74.0
 40
74.0
 40
74.0
 40
75.0
 40
75.0
 40
75.0
 40
76.0
 40
76.0
 40
76.0
 40
77.0
 40
77.0
 40
77.0
 40
78.0
 40
78.0
 40
78.0
 40
79.0
 40
79.0
 40
79.0
 40
80.0
 40
80.0
 40
80.0
 40
81.0
 40
81.0
 40
81.0
 40
82.0
 40
82.0
 40
82.0
 40
83.0
 40
83.0
 40
83.0
 40
84.0
 40
84.0
 40
84.0
 40
84.0
 10
53.94993370466388
 20
-32.43485854109169
 30
0.0
 10
55.34852379389806
 20
-32.37156464197263
 30
0.0
 10
55.94288670200209
 20
-30.92203091606163
 30
0.0
 10
56.74033414120652
 20
-30.0363424398566
 30
0.0
 10
57.14303177095167
 20
-29.58908456112269
 30
0.0
 10
57.70715076928556
 20
-29.00744001295789
 30
0.0
 10
57.93847587414722
 20
-28.4443678898451
 30
0.0
 10
58.22101893304165
 20
-27.75662532883901
 30
0.0
 10
58.32921717927221
 20
-27.37874855706625
 30
0.0
 10
58.85088087517334
 20
-26.8330830736919
 30
0.0
 10
59.30123687944418
 20
-26.36200615442026
 30
0.0
 10
59.74012763252762
 20
-25.72777926535279
 30
0.0
 10
59.64515916929915
 20
-25.0446335680446
 30
0.0
 10
59.55921618008779
 20
-24.42641167313695
 30
0.0
 10
59.14956380258152
 20
-23.83841565817804
 30
0.0
 10
58.96573169710902
 20
-23.23495778918818
 30
0.0
 10
58.78706446445014
 20
-22.64845442949708
 30
0.0
 10
58.5262926980568
 20
-22.06579775821445
 30
0.0
 10
58.45490066882583
 20
-21.44898955328623
 30
0.0
 10
58.37392891522389
 20
-20.74941506959138
 30
0.0
 10
58.73677905370889
 20
-20.05489437489362
 30
0.0
 10
58.64638162510902
 20
-19.38323963285888
 30
0.0
 10
58.55642315548931
 20
-18.71484636501737
 30
0.0
 10
57.88749036514986
 20
-18.2677294871339
 30
0.0
 10
57.95134498729319
 20
-17.56393053986805
 30
0.0
 10
58.01858298673139
 20
-16.82284036295694
 30
0.0
 10
58.80155000355929
 20
-16.63235175273682
 30
0.0
 10
58.94904782201082
 20
-15.95740072960138
 30
0.0
 10
59.09057080216401
 20
-15.30979060726582
 30
0.0
 10
58.85856888262293
 20
-14.58072151924807
 30
0.0
 10
58.64270183611236
 20
-13.97883927907638
 30
0.0
 10
58.54048159236082
 20
-13.69382797098403
 30
0.0
 10
58.42544714989167
 20
-13.35452756393763
 30
0.0
 10
58.19182736576653
 20
-13.14304208604403
 30
0.0
 10
57.90714771347069
 20
-12.88533440714248
 30
0.0
 10
57.62102261547791
 20
-12.94021308001361
 30
0.0
 10
57.29248501053694
 20
-12.7650304973711
 30
0.0
 10
56.65275442169263
 20
-12.42391381829485
 30
0.0
 10
56.29780282752277
 20
-11.82757147641415
 30
0.0
 10
55.58896544237152
 20
-11.52513769399916
 30
0.0
 10
55.02425733872749
 20
-11.28419835964248
 30
0.0
 10
54.42129909761304
 20
-11.17717268084097
 30
0.0
 10
53.87438132429181
 20
-10.88273524671654
 30
0.0
 10
53.21930496171984
 20
-10.53006979541861
 30
0.0
 10
53.07404884855042
 20
-9.885040657637218
 30
0.0
 10
52.56551305581431
 20
-9.40521065911139
 30
0.0
 10
52.10612920497139
 20
-8.97175807696999
 30
0.0
 10
51.45339417502694
 20
-8.864773430153187
 30
0.0
 10
50.89894412896445
 20
-8.577721914098055
 30
0.0
 10
50.31197689517499
 20
-8.27383550353583
 30
0.0
 10
49.78775112027763
 20
-7.942989005600831
 30
0.0
 10
49.10248859590526
 20
-7.946646251544721
 30
0.0
 10
48.54518806006305
 20
-7.949620564383609
 30
0.0
 10
48.00666648684847
 20
-7.965649243236107
 30
0.0
 10
47.4453332715743
 20
-7.945364991588336
 30
0.0
 10
46.78574474259764
 20
-7.92153020087638
 30
0.0
 10
46.15604881823221
 20
-8.105649260337916
 30
0.0
 10
45.48858669812431
 20
-8.002340830982778
 30
0.0
 10
44.78268532012751
 20
-7.893082851475557
 30
0.0
 10
44.1080635707129
 20
-7.79420141746305
 30
0.0
 10
43.39287887058612
 20
-7.726919128111249
 30
0.0
 10
42.72439744774402
 20
-7.664030533724447
 30
0.0
 10
42.07634630835597
 20
-7.722683202248744
 30
0.0
 10
41.40910117200721
 20
-7.69982609809305
 30
0.0
 10
40.64907457144626
 20
-7.673790678389296
 30
0.0
 10
40.18308095424666
 20
-7.473614486158188
 30
0.0
 10
39.51208977228207
 20
-7.212327885216811
 30
0.0
 10
39.16405627495416
 20
-7.076802274784313
 30
0.0
 10
38.90401410639834
 20
-7.189264951291938
 30
0.0
 10
38.56338313523765
 20
-7.2282812065082
 30
0.0
 10
38.08936657476334
 20
-7.282575597406119
 30
0.0
 10
37.92367167826417
 20
-7.160745447216666
 30
0.0
 10
37.51684444665875
 20
-6.955000930762227
 30
0.0
 10
36.87223725724958
 20
-6.629004084472499
 30
0.0
 10
36.21491505160584
 20
-6.676341745241252
 30
0.0
 10
35.5215991210354
 20
-6.744138162522504
 30
0.0
 10
35.1754022578375
 20
-6.777991281950285
 30
0.0
 10
34.82168663251652
 20
-6.788617638624727
 30
0.0
 10
34.52397645822384
 20
-6.567919298550969
 30
0.0
 10
34.19144523807719
 20
-6.321407440219446
 30
0.0
 10
34.07637082145836
 20
-5.902971867533324
 30
0.0
 10
33.56258743753566
 20
-5.961622812208335
 30
0.0
 10
33.29402773909055
 20
-5.99228024588236
 30
0.0
 10
33.09140901585265
 20
-6.233093352638472
 30
0.0
 10
32.82801590177549
 20
-6.297142238340964
 30
0.0
 10
32.30917368410741
 20
-6.423308277318609
 30
0.0
 10
32.40880943619216
 20
-6.185636560704299
 30
0.0
 10
31.9517592967957
 20
-6.011592997054448
 30
0.0
 10
31.40884652166775
 20
-5.804853153896247
 30
0.0
 10
30.94447048744597
 20
-6.218966715935279
 30
0.0
 10
30.35215860566061
 20
-5.963740996810416
 30
0.0
 10
29.86997198079679
 20
-5.755967977447085
 30
0.0
 10
29.20456571606574
 20
-5.294541322456527
 30
0.0
 10
28.88354493934174
 20
-4.899816196020967
 30
0.0
 10
28.46003751800807
 20
-4.379074136462362
 30
0.0
 10
28.01221744090822
 20
-4.265620508111801
 30
0.0
 10
27.41730087341415
 20
-3.923384089890558
 30
0.0
 10
27.20822478062784
 20
-3.803109320216107
 30
0.0
 10
26.7262744080976
 20
-3.485639864556939
 30
0.0
 10
26.51162459934148
 20
-3.472430509456242
 30
0.0
 10
26.20828466919854
 20
-3.453763244497092
 30
0.0
 10
25.91601406196881
 20
-3.805307221392089
 30
0.0
 10
25.63407915486194
 20
-3.863688945739025
 30
0.0
 10
25.31013689605978
 20
-3.930769350403327
 30
0.0
 10
24.97048373392274
 20
-3.720892708834021
 30
0.0
 10
24.64260537278147
 20
-3.665757576097639
 30
0.0
 10
24.30462995662922
 20
-3.608924550074435
 30
0.0
 10
23.96516416259874
 20
-3.652769400923186
 30
0.0
 10
23.62267868278549
 20
-3.649717232769161
 30
0.0
 10
23.02609835450582
 20
-3.644400617652359
 30
0.0
 10
22.40907118187996
 20
-3.580475785398335
 30
0.0
 10
21.81925398222809
 20
-3.491097483441813
 30
0.0
 10
21.16583376227646
 20
-3.392081059780695
 30
0.0
 10
20.44864829690169
 20
-3.327771503993189
 30
0.0
 10
19.82270215147183
 20
-3.13543238524931
 30
0.0
 10
19.21400927507837
 20
-2.948394806559867
 30
0.0
 10
18.65340248635425
 20
-2.694727866708616
 30
0.0
 10
18.00946400370028
 20
-2.617809917014584
 30
0.0
 10
17.40372458671659
 20
-2.545454815932089
 30
0.0
 10
16.77376136592372
 20
-2.428229857535825
 30
0.0
 10
16.16984858474964
 20
-2.404287775618185
 30
0.0
 10
15.56273098289931
 20
-2.380218638798889
 30
0.0
 10
14.96324300573464
 20
-2.527008519565975
 30
0.0
 10
14.36497550898957
 20
-2.527553095752081
 30
0.0
 10
13.7292242292889
 20
-2.528131791751952
 30
0.0
 10
13.20682913757643
 20
-2.669100410637081
 30
0.0
 10
12.57627787636759
 20
-2.743725476796802
 30
0.0
 10
11.91147620802841
 20
-2.82240404194292
 30
0.0
 10
11.19977394076679
 20
-2.737769107621248
 30
0.0
 10
10.57346087239226
 20
-2.997418309796103
 30
0.0
 10
9.96855347774744
 20
-3.248193409885971
 30
0.0
 10
9.604412056840108
 20
-3.771382532502078
 30
0.0
 10
9.051895522765133
 20
-4.05688471819902
 30
0.0
 10
8.292487689026036
 20
-4.449293963889722
 30
0.0
 10
8.078812621019487
 20
-4.609737166657775
 30
0.0
 10
7.631702943790237
 20
-5.356847675168473
 30
0.0
 10
7.313367378206244
 20
-5.888779454758478
 30
0.0
 10
7.194246274354226
 20
-6.449199871037497
 30
0.0
 10
6.917247490154169
 20
-6.995480639394726
 30
0.0
 10
6.555302514249584
 20
-7.709287308659441
 30
0.0
 10
6.045210705762909
 20
-7.905337585509995
 30
0.0
 10
5.356887564169445
 20
-8.229135482140135
 30
0.0
 10
4.61991940644681
 20
-8.575816749896944
 30
0.0
 10
4.505097556670699
 20
-8.863554055715415
 30
0.0
 10
4.186022038829441
 20
-9.57907409278472
 30
0.0
 10
4.051587366300838
 20
-9.880540975991101
 30
0.0
 10
3.709186242841952
 20
-10.11417031344958
 30
0.0
 10
3.597673911062783
 20
-10.40060170140348
 30
0.0
 10
3.473943095849032
 20
-10.71841757493904
 30
0.0
 10
3.620875353792497
 20
-11.11526938841348
 30
0.0
 10
3.568360423701809
 20
-11.45546913468626
 30
0.0
 10
3.475070119553468
 20
-12.05981798836014
 30
0.0
 10
3.135483341898192
 20
-12.66824728492722
 30
0.0
 10
2.920155151818752
 20
-13.23826499871721
 30
0.0
 10
2.640471174935278
 20
-13.9786456289918
 30
0.0
 10
2.690995132072354
 20
-14.40393808639929
 30
0.0
 10
2.785411739162226
 20
-15.16182243279902
 30
0.0
 10
2.86786161017959
 20
-15.82364950467513
 30
0.0
 10
2.69242481972972
 20
-16.42532899225085
 30
0.0
 10
2.633306478700142
 20
-17.07920282449903
 30
0.0
 10
2.576259124008756
 20
-17.7101706727514
 30
0.0
 10
2.674236869122498
 20
-18.33518236614166
 30
0.0
 10
2.633314977936948
 20
-18.96695259313444
 30
0.0
 10
2.548884985417367
 20
-20.27042010144972
 30
0.0
 10
2.949841905166674
 20
-21.57486295666179
 30
0.0
 10
3.208664601190422
 20
-22.84764020801347
 30
0.0
 10
3.323334215802775
 20
-23.41153541172583
 30
0.0
 10
3.507228852757912
 20
-23.95403936140166
 30
0.0
 10
3.611170984615695
 20
-24.52312153611625
 30
0.0
 10
3.746675015894577
 20
-25.26500480736028
 30
0.0
 10
4.098249717282771
 20
-25.77936229253666
 30
0.0
 10
4.404845674356807
 20
-26.4491225642218
 30
0.0
 10
4.697116354839168
 20
-27.08758920361783
 30
0.0
 10
4.699425766560416
 20
-27.77727985438575
 30
0.0
 10
5.027788233221801
 20
-28.3988332918047
 30
0.0
 10
5.372170418741803
 20
-29.0507102659672
 30
0.0
 10
5.762662783950279
 20
-29.44598861262345
 30
0.0
 10
6.377118450732496
 20
-29.85901334721363
 30
0.0
 10
6.932093601564727
 20
-30.23205647590192
 30
0.0
 10
7.467383473652401
 20
-30.25004761032963
 30
0.0
 10
8.086975893715223
 20
-30.42384878020221
 30
0.0
 10
8.73482423106399
 20
-30.60557598551537
 30
0.0
 10
9.28099348714857
 20
-31.09800494844939
 30
0.0
 10
9.862688928811849
 20
-31.41218458201698
 30
0.0
 10
10.39719532581825
 20
-31.70087693186732
 30
0.0
 10
10.68943101476969
 20
-32.15798015582173
 30
0.0
 10
11.16713642894292
 20
-32.49976455843418
 30
0.0
 10
11.70357330004195
 20
-32.88356961922712
 30
0.0
 10
12.33873454489139
 20
-33.27075795222769
 30
0.0
 10
12.92134790764324
 20
-33.58622453370205
 30
0.0
 10
13.63101327570153
 20
-33.97048572983163
 30
0.0
 10
14.05100646739935
 20
-34.22883922771767
 30
0.0
 10
14.90363582954054
 20
-34.09799326883383
 30
0.0
 10
15.16536562121862
 20
-34.0578277677601
 30
0.0
 10
15.42023698806548
 20
-33.96607818612003
 30
0.0
 10
15.68233844757098
 20
-33.93129253530914
 30
0.0
 10
16.1158588836778
 20
-33.87375645543286
 30
0.0
 10
16.31471563323099
 20
-34.01337571283599
 30
0.0
 10
16.72514762027473
 20
-34.08967162796974
 30
0.0
 10
17.55352322390551
 20
-34.2436598081033
 30
0.0
 10
18.01935120070321
 20
-33.98840854580597
 30
0.0
 10
18.44111867849844
 20
-33.31158602916437
 30
0.0
 10
18.7842682787165
 20
-32.76092390315549
 30
0.0
 10
19.14873892249703
 20
-32.275759868862
 30
0.0
 10
19.61771277405041
 20
-31.81960805938684
 30
0.0
 10
20.0923431497287
 20
-31.35795437873834
 30
0.0
 10
20.74465545253846
 20
-31.32141686827607
 30
0.0
 10
21.37830981538125
 20
-31.18252871844616
 30
0.0
 10
22.01683756938062
 20
-31.04257238962022
 30
0.0
 10
22.8020244466602
 20
-31.41194618301617
 30
0.0
 10
23.26845789106205
 20
-30.83368147408565
 30
0.0
 10
23.49215154903686
 20
-30.55635541702236
 30
0.0
 10
23.52017102918161
 20
-30.28592234086265
 30
0.0
 10
23.81730461041474
 20
-30.02771736355122
 30
0.0
 10
24.05461857109433
 20
-29.82149481011697
 30
0.0
 10
24.31655397884959
 20
-29.7007217272975
 30
0.0
 10
24.59111471251759
 20
-29.55032512386222
 30
0.0
 10
25.22780978933694
 20
-29.2015615709013
 30
0.0
 10
25.52928952854904
 20
-28.90937711706174
 30
0.0
 10
25.97420491366312
 20
-28.37438897918345
 30
0.0
 10
26.76071261844936
 20
-27.42865343824997
 30
0.0
 10
28.08398368666518
 20
-26.75363055184223
 30
0.0
 10
29.30183913328372
 20
-27.06611901187713
 30
0.0
 10
30.62209283273324
 20
-27.40488174972253
 30
0.0
 10
31.52878287310634
 20
-28.60899829075409
 30
0.0
 10
32.35013451197712
 20
-29.62058717328012
 30
0.0
 10
33.22736424000716
 20
-30.70099634068194
 30
0.0
 10
34.57334779591876
 20
-31.26342322797531
 30
0.0
 10
35.85874126713666
 20
-31.73647244282812
 30
0.0
 10
37.02747290621679
 20
-32.16658788733609
 30
0.0
 10
38.1076966343625
 20
-32.84765247611323
 30
0.0
 10
39.28454566602972
 20
-33.2489677113304
 30
0.0
 10
40.48936457558125
 20
-33.65982090581009
 30
0.0
 10
41.82436766190666
 20
-33.38850698441608
 30
0.0
 10
43.00376909212279
 20
-33.93486475187524
 30
0.0
 10
43.68813595691861
 20
-34.25189773385523
 30
0.0
 10
44.15357321984612
 20
-34.69427573528317
 30
0.0
 10
44.92120504599804
 20
-34.2389679540774
 30
0.0
 10
45.23444793830696
 20
-34.05317325222065
 30
0.0
 10
45.33750094349195
 20
-33.75487828812326
 30
0.0
 10
45.58435457679055
 20
-33.51901206121058
 30
0.0
 10
45.85246194995666
 20
-33.2628380941876
 30
0.0
 10
46.21456610785417
 20
-33.1844450588254
 30
0.0
 10
46.56854083410945
 20
-33.09542024454231
 30
0.0
 10
47.21134110602126
 20
-32.9337556663012
 30
0.0
 10
47.87326153218805
 20
-32.78977854313221
 30
0.0
 10
48.4906937375868
 20
-32.54021254409986
 30
0.0
 10
49.0933911915957
 20
-32.29660232923126
 30
0.0
 10
49.53059347401818
 20
-31.84944967051377
 30
0.0
 10
50.18985914060193
 20
-31.73331783055664
 30
0.0
 10
51.45970696296293
 20
-31.5096299129975
 30
0.0
 10
52.68066295797444
 20
-32.38690591165197
 30
0.0
 10
53.94992964532695
 20
-32.43485854109169
 30
0.0
  0
ENDSEC
  0
SECTION
  2
OBJECTS
  0
DICTIONARY
  5
C
330
0
100
AcDbDictionary
281
     1
  3
ACAD_GROUP
350
D
  3
ACAD_LAYOUT
350
1A
  3
ACAD_MATERIAL
350
3B
  3
ACAD_MLEADERSTYLE
350
49
  3
ACAD_MLINESTYLE
350
17
  3
ACAD_PLOTSETTINGS
350
19
  3
ACAD_PLOTSTYLENAME
350
E
  3
ACAD_TABLESTYLE
350
48
  3
ACAD_VISUALSTYLE
350
2A
  0
SUN
  5
3F
330
29
100
AcDbSun
 90
        1
290
     0
 63
     7
421
 16777215
 40
1.0
291
     1
 91
  2455826
 92
 54000000
292
     0
 70
     2
 71
   256
280
     1
  0
DICTIONARY
  5
D
102
{ACAD_REACTORS
330
C
102
}
330
C
100
AcDbDictionary
281
     1
  0
DICTIONARY
  5
1A
102
{ACAD_REACTORS
330
C
102
}
330
C
100
AcDbDictionary
281
     1
  3
Layout1
350
1E
  3
Layout2
350
26
  3
Model
350
22
  0
DICTIONARY
  5
3B
102
{ACAD_REACTORS
330
C
102
}
330
C
100
AcDbDictionary
281
     1
  3
ByBlock
350
3D
  3
ByLayer
350
3C
  3
Global
350
3E
  0
DICTIONARY
  5
49
102
{ACAD_REACTORS
330
C
102
}
330
C
100
AcDbDictionary
281
     1
  0
DICTIONARY
  5
17
102
{ACAD_REACTORS
330
C
102
}
330
C
100
AcDbDictionary
281
     1
  3
Standard
350
18
  0
DICTIONARY
  5
19
102
{ACAD_REACTORS
330
C
102
}
330
C
100
AcDbDictionary
281
     1
  0
ACDBDICTIONARYWDFLT
  5
E
102
{ACAD_REACTORS
330
C
102
}
330
C
100
AcDbDictionary
281
     1
  3
Normal
350
F
100
AcDbDictionaryWithDefault
340
F
  0
DICTIONARY
  5
48
102
{ACAD_REACTORS
330
C
102
}
330
C
100
AcDbDictionary
281
     1
  0
DICTIONARY
  5
2A
102
{ACAD_REACTORS
330
C
102
}
330
C
100
AcDbDictionary
281
     1
  3
2dWireframe
350
2F
  3
3D Hidden
350
31
  3
3dWireframe
350
30
  3
Basic
350
32
  3
Brighten
350
36
  3
ColorChange
350
3A
  3
Conceptual
350
34
  3
Dim
350
35
  3
Facepattern
350
39
  3
Flat
350
2B
  3
FlatWithEdges
350
2C
  3
Gouraud
350
2D
  3
GouraudWithEdges
350
2E
  3
Linepattern
350
38
  3
Realistic
350
33
  3
Thicken
350
37
  0
LAYOUT
  5
1E
102
{ACAD_REACTORS
330
1A
102
}
330
1A
100
AcDbPlotSettings
  1

  2
none_device
  4

  6

 40
0.0
 41
0.0
 42
0.0
 43
0.0
 44
0.0
 45
0.0
 46
0.0
 47
0.0
 48
0.0
 49
0.0
140
0.0
141
0.0
142
1.0
143
1.0
 70
   688
 72
     0
 73
     0
 74
     5
  7

 75
    16
 76
     0
 77
     2
 78
   300
147
1.0
148
0.0
149
0.0
100
AcDbLayout
  1
Layout1
 70
     1
 71
     1
 10
0.0
 20
0.0
 11
12.0
 21
9.0
 12
0.0
 22
0.0
 32
0.0
 14
1.000000000000000E+20
 24
1.000000000000000E+20
 34
1.000000000000000E+20
 15
-1.000000000000000E+20
 25
-1.000000000000000E+20
 35
-1.000000000000000E+20
146
0.0
 13
0.0
 23
0.0
 33
0.0
 16
1.0
 26
0.0
 36
0.0
 17
0.0
 27
1.0
 37
0.0
 76
     0
330
1B
  0
LAYOUT
  5
26
102
{ACAD_REACTORS
330
1A
102
}
330
1A
100
AcDbPlotSettings
  1

  2
none_device
  4

  6

 40
0.0
 41
0.0
 42
0.0
 43
0.0
 44
0.0
 45
0.0
 46
0.0
 47
0.0
 48
0.0
 49
0.0
140
0.0
141
0.0
142
1.0
143
1.0
 70
   688
 72
     0
 73
     0
 74
     5
  7

 75
    16
 76
     0
 77
     2
 78
   300
147
1.0
148
0.0
149
0.0
100
AcDbLayout
  1
Layout2
 70
     1
 71
     2
 10
0.0
 20
0.0
 11
0.0
 21
0.0
 12
0.0
 22
0.0
 32
0.0
 14
0.0
 24
0.0
 34
0.0
 15
0.0
 25
0.0
 35
0.0
146
0.0
 13
0.0
 23
0.0
 33
0.0
 16
1.0
 26
0.0
 36
0.0
 17
0.0
 27
1.0
 37
0.0
 76
     0
330
23
  0
LAYOUT
  5
22
102
{ACAD_REACTORS
330
1A
102
}
330
1A
100
AcDbPlotSettings
  1

  2
none_device
  4

  6

 40
0.0
 41
0.0
 42
0.0
 43
0.0
 44
0.0
 45
0.0
 46
0.0
 47
0.0
 48
0.0
 49
0.0
140
0.0
141
0.0
142
1.0
143
1.0
 70
  1712
 72
     0
 73
     0
 74
     0
  7

 75
     0
 76
     0
 77
     2
 78
   300
147
1.0
148
0.0
149
0.0
100
AcDbLayout
  1
Model
 70
     1
 71
     0
 10
0.0
 20
0.0
 11
12.0
 21
9.0
 12
0.0
 22
0.0
 32
0.0
 14
1.000000000000000E+20
 24
1.000000000000000E+20
 34
1.000000000000000E+20
 15
-1.000000000000000E+20
 25
-1.000000000000000E+20
 35
-1.000000000000000E+20
146
0.0
 13
0.0
 23
0.0
 33
0.0
 16
1.0
 26
0.0
 36
0.0
 17
0.0
 27
1.0
 37
0.0
 76
     0
330
1F
331
29
  0
MATERIAL
  5
3D
102
{ACAD_REACTORS
330
3B
102
}
330
3B
100
AcDbMaterial
  1
ByBlock
 72
     1
 94
      127
  0
MATERIAL
  5
3C
102
{ACAD_REACTORS
330
3B
102
}
330
3B
100
AcDbMaterial
  1
ByLayer
 72
     1
 94
      127
  0
MATERIAL
  5
3E
102
{ACAD_REACTORS
330
3B
102
}
330
3B
100
AcDbMaterial
  1
Global
 72
     1
 94
      127
  0
MLINESTYLE
  5
18
102
{ACAD_REACTORS
330
17
102
}
330
17
100
AcDbMlineStyle
  2
Standard
 70
     0
  3

 62
   256
 51
90.0
 52
90.0
 71
     2
 49
0.5
 62
   256
  6
BYLAYER
 49
-0.5
 62
   256
  6
BYLAYER
  0
ACDBPLACEHOLDER
  5
F
102
{ACAD_REACTORS
330
E
102
}
330
E
  0
VISUALSTYLE
  5
2F
102
{ACAD_REACTORS
330
2A
102
}
330
2A
100
AcDbVisualStyle
  2
2dWireframe
 70
     4
177
     2
291
     0
 71
     0
176
     1
 72
     2
176
     1
 73
     0
176
     1
 90
        0
176
     1
 40
-0.6
176
     1
 41
-30.0
176
     1
 62
     5
 63
     7
421
 16777215
176
     1
 74
     1
176
     1
 91
        4
176
     1
 64
     7
176
     1
 65
   257
176
     1
 75
     1
176
     1
175
     1
176
     1
 42
1.0
176
     1
 92
        0
176
     1
 66
   257
176
     1
 43
1.0
176
     1
 76
     1
176
     1
 77
     6
176
     1
 78
     2
176
     1
 67
     7
176
     1
 79
     5
176
     1
170
     0
176
     1
171
     0
176
     1
290
     0
176
     1
 93
        1
176
     1
 44
0.0
176
     1
173
     0
176
     1
  0
VISUALSTYLE
  5
31
102
{ACAD_REACTORS
330
2A
102
}
330
2A
100
AcDbVisualStyle
  2
3D Hidden
 70
     6
177
     2
291
     0
 71
     1
176
     1
 72
     2
176
     1
 73
     2
176
     1
 90
        0
176
     1
 40
-0.6
176
     1
 41
-30.0
176
     1
 62
     5
 63
     7
421
 16777215
176
     1
 74
     2
176
     1
 91
        2
176
     1
 64
     7
176
     1
 65
   257
176
     1
 75
     2
176
     1
175
     1
176
     1
 42
40.0
176
     1
 92
        0
176
     1
 66
   257
176
     1
 43
1.0
176
     1
 76
     1
176
     1
 77
     6
176
     1
 78
     2
176
     1
 67
     7
176
     1
 79
     3
176
     1
170
     0
176
     1
171
     0
176
     1
290
     0
176
     1
 93
        1
176
     1
 44
0.0
176
     1
173
     0
176
     1
  0
VISUALSTYLE
  5
30
102
{ACAD_REACTORS
330
2A
102
}
330
2A
100
AcDbVisualStyle
  2
3dWireframe
 70
     5
177
     2
291
     0
 71
     0
176
     1
 72
     2
176
     1
 73
     0
176
     1
 90
        0
176
     1
 40
-0.6
176
     1
 41
-30.0
176
     1
 62
     5
 63
     7
421
 16777215
176
     1
 74
     1
176
     1
 91
        4
176
     1
 64
     7
176
     1
 65
   257
176
     1
 75
     1
176
     1
175
     1
176
     1
 42
1.0
176
     1
 92
        0
176
     1
 66
   257
176
     1
 43
1.0
176
     1
 76
     1
176
     1
 77
     6
176
     1
 78
     2
176
     1
 67
     7
176
     1
 79
     5
176
     1
170
     0
176
     1
171
     0
176
     1
290
     0
176
     1
 93
        1
176
     1
 44
0.0
176
     1
173
     0
176
     1
  0
VISUALSTYLE
  5
32
102
{ACAD_REACTORS
330
2A
102
}
330
2A
100
AcDbVisualStyle
  2
Basic
 70
     7
177
     2
291
     1
 71
     1
176
     1
 72
     0
176
     1
 73
     1
176
     1
 90
        0
176
     1
 40
-0.6
176
     1
 41
-30.0
176
     1
 62
     5
 63
     7
421
 16777215
176
     1
 74
     0
176
     1
 91
        4
176
     1
 64
     7
176
     1
 65
   257
176
     1
 75
     1
176
     1
175
     1
176
     1
 42
1.0
176
     1
 92
        8
176
     1
 66
     7
176
     1
 43
1.0
176
     1
 76
     1
176
     1
 77
     6
176
     1
 78
     2
176
     1
 67
     7
176
     1
 79
     5
176
     1
170
     0
176
     1
171
     0
176
     1
290
     0
176
     1
 93
        1
176
     1
 44
0.0
176
     1
173
     0
176
     1
  0
VISUALSTYLE
  5
36
102
{ACAD_REACTORS
330
2A
102
}
330
2A
100
AcDbVisualStyle
  2
Brighten
 70
    12
177
     2
291
     1
 71
     2
176
     1
 72
     2
176
     1
 73
     0
176
     1
 90
        0
176
     1
 40
-0.6
176
     1
 41
-30.0
176
     1
 62
     5
 63
     7
421
 16777215
176
     1
 74
     1
176
     1
 91
        4
176
     1
 64
     7
176
     1
 65
   257
176
     1
 75
     1
176
     1
175
     1
176
     1
 42
1.0
176
     1
 92
        8
176
     1
 66
     7
176
     1
 43
1.0
176
     1
 76
     1
176
     1
 77
     6
176
     1
 78
     2
176
     1
 67
     7
176
     1
 79
     5
176
     1
170
     0
176
     1
171
     0
176
     1
290
     0
176
     1
 93
        1
176
     1
 44
50.0
176
     1
173
     0
176
     1
  0
VISUALSTYLE
  5
3A
102
{ACAD_REACTORS
330
2A
102
}
330
2A
100
AcDbVisualStyle
  2
ColorChange
 70
    16
177
     2
291
     1
 71
     2
176
     1
 72
     2
176
     1
 73
     3
176
     1
 90
        0
176
     1
 40
-0.6
176
     1
 41
-30.0
176
     1
 62
     5
 63
     8
421
  8421504
176
     1
 74
     1
176
     1
 91
        4
176
     1
 64
     7
176
     1
 65
   257
176
     1
 75
     1
176
     1
175
     1
176
     1
 42
1.0
176
     1
 92
        8
176
     1
 66
     8
424
  8421504
176
     1
 43
1.0
176
     1
 76
     1
176
     1
 77
     6
176
     1
 78
     2
176
     1
 67
     7
176
     1
 79
     5
176
     1
170
     0
176
     1
171
     0
176
     1
290
     0
176
     1
 93
        1
176
     1
 44
0.0
176
     1
173
     0
176
     1
  0
VISUALSTYLE
  5
34
102
{ACAD_REACTORS
330
2A
102
}
330
2A
100
AcDbVisualStyle
  2
Conceptual
 70
     9
177
     2
291
     0
 71
     3
176
     1
 72
     2
176
     1
 73
     0
176
     1
 90
        0
176
     1
 40
-0.6
176
     1
 41
-30.0
176
     1
 62
     5
 63
     7
421
 16777215
176
     1
 74
     2
176
     1
 91
        2
176
     1
 64
     7
176
     1
 65
   257
176
     1
 75
     1
176
     1
175
     1
176
     1
 42
40.0
176
     1
 92
        8
176
     1
 66
     7
176
     1
 43
1.0
176
     1
 76
     1
176
     1
 77
     6
176
     1
 78
     2
176
     1
 67
     7
176
     1
 79
     3
176
     1
170
     0
176
     1
171
     0
176
     1
290
     0
176
     1
 93
        1
176
     1
 44
0.0
176
     1
173
     0
176
     1
  0
VISUALSTYLE
  5
35
102
{ACAD_REACTORS
330
2A
102
}
330
2A
100
AcDbVisualStyle
  2
Dim
 70
    11
177
     2
291
     1
 71
     2
176
     1
 72
     2
176
     1
 73
     0
176
     1
 90
        0
176
     1
 40
-0.6
176
     1
 41
-30.0
176
     1
 62
     5
 63
     7
421
 16777215
176
     1
 74
     1
176
     1
 91
        4
176
     1
 64
     7
176
     1
 65
   257
176
     1
 75
     1
176
     1
175
     1
176
     1
 42
1.0
176
     1
 92
        8
176
     1
 66
     7
176
     1
 43
1.0
176
     1
 76
     1
176
     1
 77
     6
176
     1
 78
     2
176
     1
 67
     7
176
     1
 79
     5
176
     1
170
     0
176
     1
171
     0
176
     1
290
     0
176
     1
 93
        1
176
     1
 44
-50.0
176
     1
173
     0
176
     1
  0
VISUALSTYLE
  5
39
102
{ACAD_REACTORS
330
2A
102
}
330
2A
100
AcDbVisualStyle
  2
Facepattern
 70
    15
177
     2
291
     1
 71
     2
176
     1
 72
     2
176
     1
 73
     0
176
     1
 90
        0
176
     1
 40
-0.6
176
     1
 41
-30.0
176
     1
 62
     5
 63
     7
421
 16777215
176
     1
 74
     1
176
     1
 91
        4
176
     1
 64
     7
176
     1
 65
   257
176
     1
 75
     1
176
     1
175
     1
176
     1
 42
1.0
176
     1
 92
        8
176
     1
 66
     7
176
     1
 43
1.0
176
     1
 76
     1
176
     1
 77
     6
176
     1
 78
     2
176
     1
 67
     7
176
     1
 79
     5
176
     1
170
     0
176
     1
171
     0
176
     1
290
     0
176
     1
 93
        1
176
     1
 44
0.0
176
     1
173
     0
176
     1
  0
VISUALSTYLE
  5
2B
102
{ACAD_REACTORS
330
2A
102
}
330
2A
100
AcDbVisualStyle
  2
Flat
 70
     0
177
     2
291
     1
 71
     2
176
     1
 72
     1
176
     1
 73
     1
176
     1
 90
        2
176
     1
 40
-0.6
176
     1
 41
30.0
176
     1
 62
     5
 63
     7
421
 16777215
176
     1
 74
     0
176
     1
 91
        4
176
     1
 64
     7
176
     1
 65
   257
176
     1
 75
     1
176
     1
175
     1
176
     1
 42
1.0
176
     1
 92
        8
176
     1
 66
     7
176
     1
 43
1.0
176
     1
 76
     1
176
     1
 77
     6
176
     1
 78
     2
176
     1
 67
     7
176
     1
 79
     5
176
     1
170
     0
176
     1
171
     0
176
     1
290
     0
176
     1
 93
       13
176
     1
 44
0.0
176
     1
173
     0
176
     1
  0
VISUALSTYLE
  5
2C
102
{ACAD_REACTORS
330
2A
102
}
330
2A
100
AcDbVisualStyle
  2
FlatWithEdges
 70
     1
177
     2
291
     1
 71
     2
176
     1
 72
     1
176
     1
 73
     1
176
     1
 90
        2
176
     1
 40
-0.6
176
     1
 41
30.0
176
     1
 62
     5
 63
     7
421
 16777215
176
     1
 74
     1
176
     1
 91
        4
176
     1
 64
     7
176
     1
 65
   257
176
     1
 75
     1
176
     1
175
     1
176
     1
 42
1.0
176
     1
 92
        0
176
     1
 66
   257
176
     1
 43
1.0
176
     1
 76
     1
176
     1
 77
     6
176
     1
 78
     2
176
     1
 67
     7
176
     1
 79
     5
176
     1
170
     0
176
     1
171
     0
176
     1
290
     0
176
     1
 93
       13
176
     1
 44
0.0
176
     1
173
     0
176
     1
  0
VISUALSTYLE
  5
2D
102
{ACAD_REACTORS
330
2A
102
}
330
2A
100
AcDbVisualStyle
  2
Gouraud
 70
     2
177
     2
291
     1
 71
     2
176
     1
 72
     2
176
     1
 73
     1
176
     1
 90
        2
176
     1
 40
-0.6
176
     1
 41
30.0
176
     1
 62
     5
 63
     7
421
 16777215
176
     1
 74
     0
176
     1
 91
        4
176
     1
 64
     7
176
     1
 65
   257
176
     1
 75
     1
176
     1
175
     1
176
     1
 42
1.0
176
     1
 92
        0
176
     1
 66
     7
176
     1
 43
1.0
176
     1
 76
     1
176
     1
 77
     6
176
     1
 78
     2
176
     1
 67
     7
176
     1
 79
     5
176
     1
170
     0
176
     1
171
     0
176
     1
290
     0
176
     1
 93
       13
176
     1
 44
0.0
176
     1
173
     0
176
     1
  0
VISUALSTYLE
  5
2E
102
{ACAD_REACTORS
330
2A
102
}
330
2A
100
AcDbVisualStyle
  2
GouraudWithEdges
 70
     3
177
     2
291
     1
 71
     2
176
     1
 72
     2
176
     1
 73
     1
176
     1
 90
        2
176
     1
 40
-0.6
176
     1
 41
30.0
176
     1
 62
     5
 63
     7
421
 16777215
176
     1
 74
     1
176
     1
 91
        4
176
     1
 64
     7
176
     1
 65
   257
176
     1
 75
     1
176
     1
175
     1
176
     1
 42
1.0
176
     1
 92
        0
176
     1
 66
   257
176
     1
 43
1.0
176
     1
 76
     1
176
     1
 77
     6
176
     1
 78
     2
176
     1
 67
     7
176
     1
 79
     5
176
     1
170
     0
176
     1
171
     0
176
     1
290
     0
176
     1
 93
       13
176
     1
 44
0.0
176
     1
173
     0
176
     1
  0
VISUALSTYLE
  5
38
102
{ACAD_REACTORS
330
2A
102
}
330
2A
100
AcDbVisualStyle
  2
Linepattern
 70
    14
177
     2
291
     1
 71
     2
176
     1
 72
     2
176
     1
 73
     0
176
     1
 90
        0
176
     1
 40
-0.6
176
     1
 41
-30.0
176
     1
 62
     5
 63
     7
421
 16777215
176
     1
 74
     1
176
     1
 91
        4
176
     1
 64
     7
176
     1
 65
   257
176
     1
 75
     7
176
     1
175
     7
176
     1
 42
1.0
176
     1
 92
        8
176
     1
 66
     7
176
     1
 43
1.0
176
     1
 76
     1
176
     1
 77
     6
176
     1
 78
     2
176
     1
 67
     7
176
     1
 79
     5
176
     1
170
     0
176
     1
171
     0
176
     1
290
     0
176
     1
 93
        1
176
     1
 44
0.0
176
     1
173
     0
176
     1
  0
VISUALSTYLE
  5
33
102
{ACAD_REACTORS
330
2A
102
}
330
2A
100
AcDbVisualStyle
  2
Realistic
 70
     8
177
     2
291
     0
 71
     2
176
     1
 72
     2
176
     1
 73
     0
176
     1
 90
        0
176
     1
 40
-0.6
176
     1
 41
-30.0
176
     1
 62
     5
 63
     7
421
 16777215
176
     1
 74
     1
176
     1
 91
        0
176
     1
 64
     7
176
     1
 65
   257
176
     1
 75
     1
176
     1
175
     1
176
     1
 42
1.0
176
     1
 92
        8
176
     1
 66
     8
424
  7895160
176
     1
 43
1.0
176
     1
 76
     1
176
     1
 77
     6
176
     1
 78
     2
176
     1
 67
     7
176
     1
 79
     5
176
     1
170
     0
176
     1
171
     0
176
     1
290
     0
176
     1
 93
       13
176
     1
 44
0.0
176
     1
173
     0
176
     1
  0
VISUALSTYLE
  5
37
102
{ACAD_REACTORS
330
2A
102
}
330
2A
100
AcDbVisualStyle
  2
Thicken
 70
    13
177
     2
291
     1
 71
     2
176
     1
 72
     2
176
     1
 73
     0
176
     1
 90
        0
176
     1
 40
-0.6
176
     1
 41
-30.0
176
     1
 62
     5
 63
     7
421
 16777215
176
     1
 74
     1
176
     1
 91
        4
176
     1
 64
     7
176
     1
 65
   257
176
     1
 75
     1
176
     1
175
     1
176
     1
 42
1.0
176
     1
 92
       12
176
     1
 66
     7
176
     1
 43
1.0
176
     1
 76
     1
176
     1
 77
     6
176
     1
 78
     2
176
     1
 67
     7
176
     1
 79
     5
176
     1
170
     0
176
     1
171
     0
176
     1
290
     0
176
     1
 93
        1
176
     1
 44
0.0
176
     1
173
     0
176
     1
  0
ENDSEC
  0
EOF
