<?xml version="1.0" encoding="utf-8"?>
<!-- Generator: Adobe Illustrator 21.1.0, SVG Export Plug-In . SVG Version: 6.00 Build 0)  -->
<svg version="1.1" id="Layer_1" xmlns="http://www.w3.org/2000/svg" xmlns:xlink="http://www.w3.org/1999/xlink" x="0px" y="0px"
	 viewBox="0 0 4545 2785" style="enable-background:new 0 0 4545 2785;" xml:space="preserve">
<style type="text/css">
	.st0{fill:none;stroke:#000000;stroke-width:2;stroke-miterlimit:10;}
</style>
<path class="st0" d="M2160.3,611.4C2164.6,611.3,2162.4,611.4,2160.3,611.4"/>
<path class="st0" d="M1156.9,687.2C1057.4,728,998,820.3,958.3,915.6c-36.1,86.6-82.3,160.3-127.9,241.6
	c-99.1,176.6-145.1,428.9,26.6,580.2c167.6,147.6,401.1,67.7,515.4-99.3c56.8-82.9,83.9-176,109.2-272.4
	c25-95.7,54.3-191.2,76.9-287.3C1617,830.2,1410.5,596.5,1156.9,687.2"/>
<path class="st0" d="M4062.9,1868.4c-60.5,68.4-114.8,143.4-192.3,194.3c-76.8,50.4-153,90.9-241.5,115.6
	c-44.4,12.4-88.6,26.6-133.7,36.2c-38.9,8.2-75.8,2.4-114.8,6.8c-82.2,9.4-167.9,51.1-251.6,39c-42-6.1-80.6-24.5-123.5-28.8
	c-55.7-5.5-71.5-16.6-117.8-46.7c-37.5-24.4-73.1-34.2-107-65.9c-27.9-26.1-56.3-54.6-92.5-68.1c-42.8-16-88.4-14.1-130.5-35
	c-38.6-19.1-78.8-43.2-110.3-73c-60.4-57.1-132.2-132.4-163.4-209.5c-15.7-38.8-15.1-85.3-36.2-118.7c-29.6-46.8-58-50.3-107.9-35.2
	c-41.1,12.5-79.5,31.4-120.9,42.8c-55.5,15.3-69.3,31.9-107.7,70.5c-29.6,29.6-61.4,56.5-95.7,80.1c-38.6,26.5-51.7,63.7-81,98.6
	c-59.8,71.4-132,95.7-209.7,140.7c-75.1,43.6-137.1,105.1-217.2,140.7c-42.2,18.8-74.4,19.1-119,12c-45.6-7.2-86.2-0.8-131.3,2.4
	c-73.8,5.3-168-21.6-234.5-49.9c-42.4-18-87.6-12.4-126.2-39.9c-38.5-27.3-71.3-62.6-110.5-88.7c-70.8-47.2-103.2-135.5-145.5-208.8
	c-44.1-76.3-75.6-139.3-94.9-226.3c-18.4-83.3-12.8-172.3-17.6-257c-4.5-78.9,16.5-176.5,38.2-252c23.6-82.2,57-158.1,104.9-229.4
	c49.8-74.1,132.4-126.8,174.4-207.5c18.7-35.9,30-67.2,63.1-93.2c35.1-27.6,79.6-30,120-49.5c37.7-18.2,76.2-18.4,112.8-38.9
	c38-21.2,74.9-32.4,115.7-46.9c79.3-28.3,155.4-44.1,239.8-48.2c87.7-4.3,159.5,21.9,243.8,40.1c92,19.9,165.7,32.5,238.3,96.5
	c31.9,28.2,85.9,40.8,112.2,71.8c23.9,28.2,25.8,86.3,33.6,121.5c9,40.5,20.7,80,28.1,120.3c9.5,51.9,34,66.7,72.2,99.8
	c37.1,32.1,35.4,75.5,63.4,112.7c11.6,15.4,27.3,24.1,46.8,29c31.3,7.9,36.6-3.4,63.1-16.5c46.1-22.8,78.6-24.7,116.1-63.4
	c33.2-34.3,52.4-60.6,102.2-73.9c44.3-11.9,78.4-9.2,122.2-27.9c37.5-16,73.3-35.9,109.8-54.4c77.5-39.4,162-72.1,249.3-80
	c44-4,83.2,12.9,126.5,15.3c37.6,2.1,75.7-4,113.3-2.4c86.6,3.8,179.5,0.4,263.3,18c38.7,8.1,76.6,20.7,115.2,28.5
	c46.6,9.4,78.1,0.3,118.7,30.2c36.3,26.6,77.5,40.1,113.3,66.6c35,26,62.9,52.5,102.6,72.2c38.7,19.2,87,31.5,116,66.2
	c26.5,31.7,26.4,75.8,43.3,112.9c36.2,79.8,26.4,178.5,53.5,261.8c26.6,81.9,31,164,37.5,249.6c3.2,41.2-3.8,73.2-11.1,113.3
	C4082.1,1782.8,4083.9,1828,4062.9,1868.4"/>
<path class="st0" d="M869.4,719.2c89-102.5,219.1-192,356.6-206c142.5-14.4,267.3,37.3,368.7,131.8
	c108,100.7,150.8,215.4,162.2,361.4c4.7,59.9-15.3,128.9-20.7,189.2c-6,68-18.5,139.7-34.8,205.9
	c-31.7,128.7-93.5,249.7-172.9,355.3c-42.2,56.1-94.9,96.4-156.2,129.8c-61.9,33.7-111.7,76.2-183.9,83.6
	c-142.6,14.7-288.8-8.6-408.3-92.2c-101.2-70.8-195.6-218.5-219.5-339.4c-23.1-116.8-18.2-273.7,32-381.6
	c57.5-123.7,127.6-245.3,208.2-355C822.1,773.2,844,744.7,869.4,719.2"/>
<path class="st0" d="M3845.2,1652.9c44.2-243.3-102.5-448.6-326.2-537c-103.8-41-214.4-62.5-324.6-81.1
	c-117.8-19.9-227.8-34.9-342.4,9c-223.2,85.5-339.5,340.2-202.9,553.3c60.9,95.1,162.1,159.1,262.5,206.9
	c99,47.2,192.8,106.4,299.1,135c227.1,61.2,493.2,32.1,603.8-203.7C3827.1,1708.7,3837.3,1681.5,3845.2,1652.9"/>
<path class="st0" d="M633.4,2371.2c-19.9-13.7-40.9-24.2-58.5-40.5c-27-25-41.4-29.1-73.2-46c-48.5-25.8-90.9-43.9-145.5-58.9
	c-23.1-6.3-75.8-9.5-90-30.5c-12.5-18.5,3.1-45.8,3-67.9c-0.3-52-29.1-102.7-40.7-152.4c-11.8-50.5-7.1-100.4-23.4-149.9
	c-8.1-24.6-9.7-42.8-11.9-68.7c-2.9-32.9-16.8-54.2-27.8-84.7c-17.3-48-21-97.5-29.1-147.4c-8.1-50-24.5-97-29.6-147.5
	c-10.7-106.9-5.4-213.2,10.9-319c8.5-55.5,28.5-105.4,31.9-160.8c3.7-59.8,17.5-120,32.1-177.8c13.7-54.1,5.3-105.6,32.4-156.7
	c24.1-45.4,50.1-95.3,79-136.9c15.8-22.7,39.9-39.2,55.1-62.6c7.7-12,10.9-25.8,20.2-37.4c8.8-10.9,28.9-19.2,35.3-28.9
	c16.3-24.8,11-55.3,35-78.5c19.9-19.2,47.2-34.1,67.5-52.2c48.4-43,80.2-54.9,144.9-45.4c63.9,9.5,112.7,10.2,177-1.8
	c52.2-9.8,96.4-38.3,150.5-41.3c31.5-1.8,53,10.3,83,14.2c31.8,4.2,63.4-4.9,95.3,0.8c28.1,5,45.7,21.7,71.8,30.1
	c31.5,10.2,67.1,1.9,99.4,2.4c60,0.9,100.7,33.5,156.4,49.2c51.2,14.4,92.8,9.2,142.4,0.1c23.1-4.2,51.1,5.5,72.3-1.3
	c24.5-7.9,40.8-41.7,64.9-47.6c14.5-3.5,60.9,12.6,76.1,18c33,11.7,54.8,18.4,90.9,20.9c28.6,1.9,56.2,7,84.6,10
	c21.5,2.3,61.5-6,78.9,4.7c44.1,27.1,44.7,98,99.5,120.5c37,15.2,48.1-4.2,79.8-15c23.6-8.1,47.2-1.7,70.6,3.2
	c47.8,10.1,104.8,25.7,149.9,44.8c62.8,26.6,96.7,18.6,161.5,1c42.4-11.6,105.3-22.2,148.4-17c14.6,1.7,42.8,16.7,59.6,26.5
	c35.8,20.8,19.5,29.1,33.2,66.1c23,62.2,78.5,47,131.3,39.4c58.8-8.5,111.5,7.6,169.4,18.3c46.6,8.6,80.9-0.5,126.2-2.7
	c51.6-2.5,84.2,19.8,139.4,3.6c27-7.9,55.5-16.1,80.9-27.7c10.2-4.7,18.5-11,28.3-16c26.4-13.5,23.2-18.4,40.2,5
	c26.9,36.9,59.6,92.5,117.6,81.7c49.3-9.2,63.2-73,120.1-78.5c35.6-3.4,127.8,31.2,145.1,67.1c5.6,11.5-4.1,24.3,0.2,34.8
	c5.4,13.1,22.3,18.1,34.2,29c20.1,18.5,28.2,45.4,46.1,65.6c20.7,23.4,46,24.1,69.7,42c25.8,19.5,28.1,43.5,36.8,71.9
	c15.5,50.3,53.7,82.1,77.9,128.2c12.3,23.5,17.9,47.6,28.5,71.3c12.6,28.3,36.2,47.9,46.9,76.4c19.7,52.2,19.8,102.7,53.2,146.5
	c43,56.4-3.3,93.9-38.7,144.5c-55.6,79.3-105.3,210.9-62.6,304.7c21.9,48.2,53.8,91.5,74.6,140.2c18.4,43,59.2,102.9,53.4,149.8
	c-7.3,59-74.2,86.2-103.2,135.5c-27.3,46.4-17.9,99.7-44.5,146.8c-28.4,50.2-38.6,98.5-91.5,130.1c-10.3,6.1-32,11.2-36.1,21.3
	c-2.2,5.4,6.9,36.5,7.2,45.9c0.7,21.7,4.3,52.2-13.8,66.1c-32.7,25-102-42-141.9-43.1c-53.2-1.4-103.6,22.7-158.4,9.8
	c-51.1-12.1-96.1-43-148.7-51.1c-68.6-10.6-72.7,39.3-127.9,67.8c-25.4,13.2-54,11.1-76.3,28.1c-21.6,16.5-37.2,38.9-58.4,56.3
	c-20.2,16.6-30.8,34.5-53.6,46.8c-26.3,14.2-55.6,11.9-82.2,21.7c-21.3,7.9-36.8,23.6-60.5,28.6c-23.4,4.9-47.1,1-70.6-0.1
	c-50.5-2.4-99.3,9.9-148.9-9.5c-56.6-22.2-82.3-81.8-131.9-111c-53.8-31.7-104.8-18.7-159.9-38.5c-51-18.3-101-30.5-153-40.6
	c-49.5-9.6-81.1-53.3-130.5-61.4c-40.3-6.6-51.1,12.9-85,24.2c-21.3,7.1-52.1,1.6-74.8-1.3c-55.4-7.1-75.5-67.3-79.4-119.2
	c-5.9-77.7-60.9-271.6-173.4-237c-49.1,15.1-69.7,81.6-93.5,120.6c-13,21.3-28.1,40.6-48.3,55.8c-20.6,15.5-52,22.8-66.9,44.2
	c-27.9,40,20.3,100.3-44.2,130.1c-27.4,12.6-54.6-0.7-78.9,21.7c-23.2,21.3-24.7,48.7-52.8,67.6c-26.4,17.9-43.9,17.8-58.8,49.1
	c-14.2,29.9-11.9,49.5-42,65c-22.3,11.5-45.7,15.8-67.6,30c-24.4,15.8-47.8,31.2-75.6,41.7c-57.6,21.8-100.2-16.1-157.3-23.6
	c-58.6-7.6-90.2,35.3-146.9,34c-40.2-0.9-38.4,11.6-72.8,24.1c-30.2,11.1-51-6.2-77.4-16.7c-27.6-10.8-45-1.5-71.6-5.6
	c-39-5.9-46.4-34.1-57.8-64.9c-6.5-17.6-16.1-53.6-31.7-64.9c-27.7-20-7.6,3.8-38.5,1c-17.2-1.6-18-6.2-31.1-20.4
	c-15.6-16.9-36.1-42.9-40.4-66.3C657.8,2406.2,663.7,2401,633.4,2371.2"/>
<path class="st0" d="M3884.4,2335.3c100.7-4.6,143.5-108.9,200.9-172.7c29-32.2,69.6-74.1,86.3-114.6c20.3-49.5,28.1-76.7,65.7-116
	c32.4-33.9,64-79.6,57.2-128.8c-6.2-44.5-35.7-86.8-48.9-130.3c-12.9-42.2-31.6-84.2-36.8-128.6c-5.8-50.4,20.3-100.4,13.8-148.7
	c-6.5-48.1-54.6-80.3-50-131c4.8-53.4,61.2-67.1,71.8-115.7c10.2-46.6-6.5-99.1-22.1-142.5c-7.4-20.5-15.6-45-32.5-60.2
	c-20.5-18.6-41.1-14.6-64.8-27.2c-46.1-24.6-71.6-67.5-122.7-89.3c-40.7-17.3-84.1-25.1-123.4-46.3c-47.2-25.4-57.6-71.8-94.2-106.4
	c-33.1-31.2-80.1-38.9-120-59.6c-42.3-21.9-80-45.7-129.3-45.4c-40.1,0.2-78.9,1.4-119.3-0.1c-47.5-1.7-92.8,11.5-140.9,4.1
	c-50.8-7.9-99.4-15-150.9-19.8c-48.1-4.5-94.8-0.3-142.8-2c-54.7-1.9-88.3-16.3-136.6-35.1c-25.1-9.8-43.8-1.7-68.3,1.1
	c-34.1,3.9-46.1-4.9-75.4-19.7c-46.4-23.5-93.7-20.1-143.7-15.2c-24.9,2.4-50.4,3.2-71.8-12.7c-23.9-17.7-32.2-47.9-69.2-43.7
	c-19.3,2.2-33.9,19.5-52.9,24.2c-37.4,9.1-30.2-8-63.1-20.6c-39.1-14.9-72.5,14.9-115.2-3.4c-34.7-15-82.6-48.2-105.7-76.6
	c-30.5-37.5-62.7-45.7-105.6-70.3c-15.1-8.7-49.8-31.5-65.2-32.5c-21.8-1.3-42.9,24-63.2,28.2c-23.3,4.8-47.8-10.3-71.4-14.3
	c-24.3-4.1-48.8-0.9-73.4-1.2c-43-0.4-87.4-5-129.8-11.4c-47-7.1-98.7-11.8-143.8-25.6c-43.8-13.5-84.2-31.7-130.6-37.3
	c-43.6-5.2-89-13.6-132.5-15.4c-43.7-1.7-86.9,8.8-130,8.9c-45.8,0-83.4,10.2-128.8,15.6c-47.9,5.7-99.1-0.4-144.2,18.3
	c-43.6,18.1-69.8,55.7-109.6,76.3c-54.7,28.3-70.1,39.8-102.3,93.6c-22.9,38.3-31.5,78.6-51.4,118c-26.1,51.4-62.8,65.5-112.3,88.8
	c-53.1,25-61.3,45.7-84.3,97.2c-9.7,21.7-34.3,38.5-42.4,59.1c-8.9,22.9,1.7,51.5-2.1,76c-6.7,43.5-31.2,87.3-46.7,128.4
	c-20.1,53.3-16.5,83.9-9.7,138.5c5.9,47.7-6.7,91-11,138.1c-4.1,45.4,2.9,90.4,0,135.9c-6.1,93.8,22.8,187.8,41.4,279.4
	c8.3,40.6,21.5,79.7,29,120.6c9.8,53.4,35.1,90.4,57.1,138.7c21,46,21.2,95.6,44.9,140.4c24.8,46.9,52.9,75.4,97.2,105.1
	c40,26.9,78.5,28.2,123.1,40.7c46.6,13.1,86,48.5,127.9,71.2c38.5,20.8,59.5,53.7,93.9,78.3c38.6,27.6,84.4,55.5,126.3,78.2
	c51.1,27.7,81.3,46.3,142.7,36.8c18.8-2.9,37.2-9.5,56.1-12c31.2-4.1,45.5,5.9,75.1,11.4c59.6,11.1,93.2-7.3,123.5-56
	c24.7-39.6,50.9-74.6,84.7-107.4c34.2-33.2,81.1-35.9,126.8-45.9c46-10.1,102.5,16.5,136.1-25.1c16.1-20,18.1-39.4,39.5-58
	c17.1-14.8,35.9-23.5,55.7-34.4c45.8-25.1,67.5-46.1,99.6-84.7c56.6-68.1,151.9-116.7,239.6-94.2c95.1,24.4,160.3,111.1,219.5,183.9
	c63.2,77.8,160.1,118.3,252.6,152.3c84.1,31,161.9,80,246.7,108.9c86.7,29.6,182.9,10,267.8,49.4c49.3,22.8,82.8,54.7,138.1,21.9
	c22.6-13.4,30-34.9,47.7-51.8c19.3-18.4,45.4-24.1,70.9-30.5c46.3-11.6,93.9-22,138.4-40c43.4-17.5,74.9-49.7,122.3-58.1
	C3705.1,2268.7,3793,2331.9,3884.4,2335.3"/>
</svg>
