  0
SECTION
  2
HEADER
  9
$ACADVER
  1
AC1024
  9
$ACADMAINTVER
 70
     6
  9
$DWGCODEPAGE
  3
UNDEFINED
  9
$INSBASE
 10
0.0
 20
0.0
 30
0.0
  9
$EXTMIN
 10
1.000000000000000E+20
 20
1.000000000000000E+20
 30
1.000000000000000E+20
  9
$EXTMAX
 10
-1.000000000000000E+20
 20
-1.000000000000000E+20
 30
-1.000000000000000E+20
  9
$LIMMIN
 10
0.0
 20
0.0
  9
$LIMMAX
 10
12.0
 20
9.0
  9
$ORTHOMODE
 70
     0
  9
$REGENMODE
 70
     1
  9
$FILLMODE
 70
     1
  9
$QTEXTMODE
 70
     0
  9
$MIRRTEXT
 70
     1
  9
$LTSCALE
 40
1.0
  9
$ATTMODE
 70
     1
  9
$TEXTSIZE
 40
0.2
  9
$TRACEWID
 40
0.05
  9
$TEXTSTYLE
  7
Standard
  9
$CLAYER
  8
0
  9
$CELTYPE
  6
ByLayer
  9
$CECOLOR
 62
   256
  9
$CELTSCALE
 40
1.0
  9
$DISPSILH
 70
     0
  9
$DIMSCALE
 40
1.0
  9
$DIMASZ
 40
0.18
  9
$DIMEXO
 40
0.0625
  9
$DIMDLI
 40
0.38
  9
$DIMRND
 40
0.0
  9
$DIMDLE
 40
0.0
  9
$DIMEXE
 40
0.18
  9
$DIMTP
 40
0.0
  9
$DIMTM
 40
0.0
  9
$DIMTXT
 40
0.18
  9
$DIMCEN
 40
0.09
  9
$DIMTSZ
 40
0.0
  9
$DIMTOL
 70
     0
  9
$DIMLIM
 70
     0
  9
$DIMTIH
 70
     1
  9
$DIMTOH
 70
     1
  9
$DIMSE1
 70
     0
  9
$DIMSE2
 70
     0
  9
$DIMTAD
 70
     0
  9
$DIMZIN
 70
     0
  9
$DIMBLK
  1

  9
$DIMASO
 70
     1
  9
$DIMSHO
 70
     1
  9
$DIMPOST
  1

  9
$DIMAPOST
  1

  9
$DIMALT
 70
     0
  9
$DIMALTD
 70
     2
  9
$DIMALTF
 40
25.4
  9
$DIMLFAC
 40
1.0
  9
$DIMTOFL
 70
     0
  9
$DIMTVP
 40
0.0
  9
$DIMTIX
 70
     0
  9
$DIMSOXD
 70
     0
  9
$DIMSAH
 70
     0
  9
$DIMBLK1
  1

  9
$DIMBLK2
  1

  9
$DIMSTYLE
  2
Standard
  9
$DIMCLRD
 70
     0
  9
$DIMCLRE
 70
     0
  9
$DIMCLRT
 70
     0
  9
$DIMTFAC
 40
1.0
  9
$DIMGAP
 40
0.09
  9
$DIMJUST
 70
     0
  9
$DIMSD1
 70
     0
  9
$DIMSD2
 70
     0
  9
$DIMTOLJ
 70
     1
  9
$DIMTZIN
 70
     0
  9
$DIMALTZ
 70
     0
  9
$DIMALTTZ
 70
     0
  9
$DIMUPT
 70
     0
  9
$DIMDEC
 70
     4
  9
$DIMTDEC
 70
     4
  9
$DIMALTU
 70
     2
  9
$DIMALTTD
 70
     2
  9
$DIMTXSTY
  7
Standard
  9
$DIMAUNIT
 70
     0
  9
$DIMADEC
 70
     0
  9
$DIMALTRND
 40
0.0
  9
$DIMAZIN
 70
     0
  9
$DIMDSEP
 70
    46
  9
$DIMATFIT
 70
     3
  9
$DIMFRAC
 70
     0
  9
$DIMLDRBLK
  1

  9
$DIMLUNIT
 70
     2
  9
$DIMLWD
 70
    -2
  9
$DIMLWE
 70
    -2
  9
$DIMTMOVE
 70
     0
  9
$DIMFXL
 40
1.0
  9
$DIMFXLON
 70
     0
  9
$DIMJOGANG
 40
0.7853981633974483
  9
$DIMTFILL
 70
     0
  9
$DIMTFILLCLR
 70
     0
  9
$DIMARCSYM
 70
     0
  9
$DIMLTYPE
  6

  9
$DIMLTEX1
  6

  9
$DIMLTEX2
  6

  9
$DIMTXTDIRECTION
 70
     0
  9
$LUNITS
 70
     2
  9
$LUPREC
 70
     4
  9
$SKETCHINC
 40
0.1
  9
$FILLETRAD
 40
0.5
  9
$AUNITS
 70
     0
  9
$AUPREC
 70
     0
  9
$MENU
  1
.
  9
$ELEVATION
 40
0.0
  9
$PELEVATION
 40
0.0
  9
$THICKNESS
 40
0.0
  9
$LIMCHECK
 70
     0
  9
$CHAMFERA
 40
0.5
  9
$CHAMFERB
 40
0.5
  9
$CHAMFERC
 40
1.0
  9
$CHAMFERD
 40
0.0
  9
$SKPOLY
 70
     0
  9
$TDCREATE
 40
2458296.581562488
  9
$TDUCREATE
 40
2458296.914895833
  9
$TDUPDATE
 40
2458296.581562488
  9
$TDUUPDATE
 40
2458296.914895833
  9
$TDINDWG
 40
0.0000000116
  9
$TDUSRTIMER
 40
0.0000000116
  9
$USRTIMER
 70
     1
  9
$ANGBASE
 50
0.0
  9
$ANGDIR
 70
     0
  9
$PDMODE
 70
     0
  9
$PDSIZE
 40
0.0
  9
$PLINEWID
 40
0.0
  9
$SPLFRAME
 70
     0
  9
$SPLINETYPE
 70
     6
  9
$SPLINESEGS
 70
     8
  9
$HANDSEED
  5
4A
  9
$SURFTAB1
 70
     6
  9
$SURFTAB2
 70
     6
  9
$SURFTYPE
 70
     6
  9
$SURFU
 70
     6
  9
$SURFV
 70
     6
  9
$UCSBASE
  2

  9
$UCSNAME
  2

  9
$UCSORG
 10
0.0
 20
0.0
 30
0.0
  9
$UCSXDIR
 10
1.0
 20
0.0
 30
0.0
  9
$UCSYDIR
 10
0.0
 20
1.0
 30
0.0
  9
$UCSORTHOREF
  2

  9
$UCSORTHOVIEW
 70
     0
  9
$UCSORGTOP
 10
0.0
 20
0.0
 30
0.0
  9
$UCSORGBOTTOM
 10
0.0
 20
0.0
 30
0.0
  9
$UCSORGLEFT
 10
0.0
 20
0.0
 30
0.0
  9
$UCSORGRIGHT
 10
0.0
 20
0.0
 30
0.0
  9
$UCSORGFRONT
 10
0.0
 20
0.0
 30
0.0
  9
$UCSORGBACK
 10
0.0
 20
0.0
 30
0.0
  9
$PUCSBASE
  2

  9
$PUCSNAME
  2

  9
$PUCSORG
 10
0.0
 20
0.0
 30
0.0
  9
$PUCSXDIR
 10
1.0
 20
0.0
 30
0.0
  9
$PUCSYDIR
 10
0.0
 20
1.0
 30
0.0
  9
$PUCSORTHOREF
  2

  9
$PUCSORTHOVIEW
 70
     0
  9
$PUCSORGTOP
 10
0.0
 20
0.0
 30
0.0
  9
$PUCSORGBOTTOM
 10
0.0
 20
0.0
 30
0.0
  9
$PUCSORGLEFT
 10
0.0
 20
0.0
 30
0.0
  9
$PUCSORGRIGHT
 10
0.0
 20
0.0
 30
0.0
  9
$PUCSORGFRONT
 10
0.0
 20
0.0
 30
0.0
  9
$PUCSORGBACK
 10
0.0
 20
0.0
 30
0.0
  9
$USERI1
 70
     0
  9
$USERI2
 70
     0
  9
$USERI3
 70
     0
  9
$USERI4
 70
     0
  9
$USERI5
 70
     0
  9
$USERR1
 40
0.0
  9
$USERR2
 40
0.0
  9
$USERR3
 40
0.0
  9
$USERR4
 40
0.0
  9
$USERR5
 40
0.0
  9
$WORLDVIEW
 70
     1
  9
$SHADEDGE
 70
     3
  9
$SHADEDIF
 70
    70
  9
$TILEMODE
 70
     1
  9
$MAXACTVP
 70
    64
  9
$PINSBASE
 10
0.0
 20
0.0
 30
0.0
  9
$PLIMCHECK
 70
     0
  9
$PEXTMIN
 10
1.000000000000000E+20
 20
1.000000000000000E+20
 30
1.000000000000000E+20
  9
$PEXTMAX
 10
-1.000000000000000E+20
 20
-1.000000000000000E+20
 30
-1.000000000000000E+20
  9
$PLIMMIN
 10
0.0
 20
0.0
  9
$PLIMMAX
 10
12.0
 20
9.0
  9
$UNITMODE
 70
     0
  9
$VISRETAIN
 70
     1
  9
$PLINEGEN
 70
     0
  9
$PSLTSCALE
 70
     1
  9
$TREEDEPTH
 70
  3020
  9
$CMLSTYLE
  2
Standard
  9
$CMLJUST
 70
     0
  9
$CMLSCALE
 40
1.0
  9
$PROXYGRAPHICS
 70
     1
  9
$MEASUREMENT
 70
     0
  9
$CELWEIGHT
370
    -1
  9
$ENDCAPS
280
     0
  9
$JOINSTYLE
280
     0
  9
$LWDISPLAY
290
     1
  9
$INSUNITS
 70
     1
  9
$HYPERLINKBASE
  1

  9
$STYLESHEET
  1

  9
$XEDIT
290
     1
  9
$CEPSNTYPE
380
     0
  9
$PSTYLEMODE
290
     1
  9
$FINGERPRINTGUID
  2
{1492885E-40AA-7D19-6C65-B9A9FF3AF545}
  9
$VERSIONGUID
  2
{FAEB1C32-E019-11D5-929B-00C0DF256EC4}
  9
$EXTNAMES
290
     1
  9
$PSVPSCALE
 40
0.0
  9
$OLESTARTUP
290
     0
  9
$SORTENTS
280
   127
  9
$INDEXCTL
280
     0
  9
$HIDETEXT
280
     1
  9
$XCLIPFRAME
280
     2
  9
$HALOGAP
280
     0
  9
$OBSCOLOR
 70
   257
  9
$OBSLTYPE
280
     0
  9
$INTERSECTIONDISPLAY
280
     0
  9
$INTERSECTIONCOLOR
 70
   257
  9
$DIMASSOC
280
     2
  9
$PROJECTNAME
  1

  9
$CAMERADISPLAY
290
     0
  9
$LENSLENGTH
 40
50.0
  9
$CAMERAHEIGHT
 40
0.0
  9
$STEPSPERSEC
 40
2.0
  9
$STEPSIZE
 40
6.0
  9
$3DDWFPREC
 40
2.0
  9
$PSOLWIDTH
 40
0.25
  9
$PSOLHEIGHT
 40
4.0
  9
$LOFTANG1
 40
1.570796326794897
  9
$LOFTANG2
 40
1.570796326794897
  9
$LOFTMAG1
 40
0.0
  9
$LOFTMAG2
 40
0.0
  9
$LOFTPARAM
 70
     7
  9
$LOFTNORMALS
280
     1
  9
$LATITUDE
 40
37.795
  9
$LONGITUDE
 40
-122.394
  9
$NORTHDIRECTION
 40
0.0
  9
$TIMEZONE
 70
 -8000
  9
$LIGHTGLYPHDISPLAY
280
     1
  9
$TILEMODELIGHTSYNCH
280
     1
  9
$CMATERIAL
347
3C
  9
$SOLIDHIST
280
     1
  9
$SHOWHIST
280
     1
  9
$DWFFRAME
280
     2
  9
$DGNFRAME
280
     2
  9
$REALWORLDSCALE
290
     1
  9
$INTERFERECOLOR
 62
   256
  9
$CSHADOW
280
     0
  9
$SHADOWPLANELOCATION
 40
0.0
  0
ENDSEC
  0
SECTION
  2
CLASSES
  0
CLASS
  1
ACDBDICTIONARYWDFLT
  2
AcDbDictionaryWithDefault
  3
ObjectDBX Classes
 90
        0
 91
        4
280
     0
281
     0
  0
CLASS
  1
VISUALSTYLE
  2
AcDbVisualStyle
  3
ObjectDBX Classes
 90
     4095
 91
        4
280
     0
281
     0
  0
CLASS
  1
MATERIAL
  2
AcDbMaterial
  3
ObjectDBX Classes
 90
     1153
 91
        4
280
     0
281
     0
  0
CLASS
  1
SUN
  2
AcDbSun
  3
SCENEOE
 90
     1024
 91
        4
280
     0
281
     0
  0
ENDSEC
  0
SECTION
  2
TABLES
  0
TABLE
  2
VPORT
  5
8
330
0
100
AcDbSymbolTable
 70
     1
  0
VPORT
  5
29
330
8
100
AcDbSymbolTableRecord
100
AcDbViewportTableRecord
  2
*Active
 70
     0
 10
0.0
 20
0.0
 11
1.0
 21
1.0
 12
0.0
 22
0.0
 13
0.0
 23
0.0
 14
0.5
 24
0.5
 15
0.5
 25
0.5
 16
0.0
 26
0.0
 36
1.0
 17
31.48433540082701
 27
-18.81320028011204
 37
0.0
 40
37.62640056022408
 41
1.67352363936241
 42
50.0
 43
0.0
 44
0.0
 50
0.0
 51
0.0
 71
     0
 72
   100
 73
     1
 74
     3
 75
     0
 76
     0
 77
     0
 78
     0
281
     0
 65
     1
110
0.0
120
0.0
130
0.0
111
1.0
121
0.0
131
0.0
112
0.0
122
1.0
132
0.0
 79
     0
146
0.0
 60
     3
 61
     5
292
     1
282
     1
141
0.0
142
0.0
 63
   250
361
3F
  0
ENDTAB
  0
TABLE
  2
LTYPE
  5
5
330
0
100
AcDbSymbolTable
 70
     1
  0
LTYPE
  5
14
330
5
100
AcDbSymbolTableRecord
100
AcDbLinetypeTableRecord
  2
ByBlock
 70
     0
  3

 72
    65
 73
     0
 40
0.0
  0
LTYPE
  5
15
330
5
100
AcDbSymbolTableRecord
100
AcDbLinetypeTableRecord
  2
ByLayer
 70
     0
  3

 72
    65
 73
     0
 40
0.0
  0
LTYPE
  5
16
330
5
100
AcDbSymbolTableRecord
100
AcDbLinetypeTableRecord
  2
Continuous
 70
     0
  3
Solid line
 72
    65
 73
     0
 40
0.0
  0
ENDTAB
  0
TABLE
  2
LAYER
  5
2
330
0
100
AcDbSymbolTable
 70
     2
  0
LAYER
  5
10
330
2
100
AcDbSymbolTableRecord
100
AcDbLayerTableRecord
  2
0
 70
     0
 62
     7
  6
Continuous
370
    -3
390
F
347
3E
  0
LAYER
  5
40
330
2
100
AcDbSymbolTableRecord
100
AcDbLayerTableRecord
  2
Layer 1
 70
     0
 62
     7
  6
Continuous
370
    -3
390
F
347
3E
  0
ENDTAB
  0
TABLE
  2
STYLE
  5
3
330
0
100
AcDbSymbolTable
 70
     1
  0
STYLE
  5
11
330
3
100
AcDbSymbolTableRecord
100
AcDbTextStyleTableRecord
  2
Standard
 70
     0
 40
0.0
 41
1.0
 50
0.0
 71
     0
 42
0.2
  3
txt
  4

  0
ENDTAB
  0
TABLE
  2
VIEW
  5
6
330
0
100
AcDbSymbolTable
 70
     0
  0
ENDTAB
  0
TABLE
  2
UCS
  5
7
330
0
100
AcDbSymbolTable
 70
     0
  0
ENDTAB
  0
TABLE
  2
APPID
  5
9
330
0
100
AcDbSymbolTable
 70
     1
  0
APPID
  5
12
330
9
100
AcDbSymbolTableRecord
100
AcDbRegAppTableRecord
  2
ACAD
 70
     0
  0
ENDTAB
  0
TABLE
  2
DIMSTYLE
  5
A
330
0
100
AcDbSymbolTable
 70
     1
100
AcDbDimStyleTable
  0
DIMSTYLE
105
27
330
A
100
AcDbSymbolTableRecord
100
AcDbDimStyleTableRecord
  2
Standard
 70
     0
178
     0
340
11
  0
ENDTAB
  0
TABLE
  2
BLOCK_RECORD
  5
1
330
0
100
AcDbSymbolTable
 70
     1
  0
BLOCK_RECORD
  5
1F
330
1
100
AcDbSymbolTableRecord
100
AcDbBlockTableRecord
  2
*Model_Space
340
22
 70
     0
280
     1
281
     0
  0
BLOCK_RECORD
  5
1B
330
1
100
AcDbSymbolTableRecord
100
AcDbBlockTableRecord
  2
*Paper_Space
340
1E
 70
     0
280
     1
281
     0
  0
BLOCK_RECORD
  5
23
330
1
100
AcDbSymbolTableRecord
100
AcDbBlockTableRecord
  2
*Paper_Space0
340
26
 70
     0
280
     1
281
     0
  0
ENDTAB
  0
ENDSEC
  0
SECTION
  2
BLOCKS
  0
BLOCK
  5
20
330
1F
100
AcDbEntity
  8
0
100
AcDbBlockBegin
  2
*Model_Space
 70
     0
 10
0.0
 20
0.0
 30
0.0
  3
*Model_Space
  1

  0
ENDBLK
  5
21
330
1F
100
AcDbEntity
  8
0
100
AcDbBlockEnd
  0
BLOCK
  5
1C
330
1B
100
AcDbEntity
 67
     1
  8
0
100
AcDbBlockBegin
  2
*Paper_Space
 70
     0
 10
0.0
 20
0.0
 30
0.0
  3
*Paper_Space
  1

  0
ENDBLK
  5
1D
330
1B
100
AcDbEntity
 67
     1
  8
0
100
AcDbBlockEnd
  0
BLOCK
  5
24
330
23
100
AcDbEntity
  8
0
100
AcDbBlockBegin
  2
*Paper_Space0
 70
     0
 10
0.0
 20
0.0
 30
0.0
  3
*Paper_Space0
  1

  0
ENDBLK
  5
25
330
23
100
AcDbEntity
  8
0
100
AcDbBlockEnd
  0
ENDSEC
  0
SECTION
  2
ENTITIES
  0
SPLINE
  5
41
330
1F
100
AcDbEntity
  8
Layer 1
 62
     7
420
 16777215
370
    70
100
AcDbSpline
210
0.0
220
0.0
230
1.0
 70
     8
 71
     3
 72
    29
 73
    25
 74
     0
 42
0.0000000001
 43
0.0000000001
 12
1.0
 22
0.0
 32
0.0
 13
1.0
 23
0.0
 33
0.0
 40
0.0
 40
0.0
 40
0.0
 40
0.0
 40
1.0
 40
1.0
 40
1.0
 40
2.0
 40
2.0
 40
2.0
 40
3.0
 40
3.0
 40
3.0
 40
4.0
 40
4.0
 40
4.0
 40
5.0
 40
5.0
 40
5.0
 40
6.0
 40
6.0
 40
6.0
 40
7.0
 40
7.0
 40
7.0
 40
8.0
 40
8.0
 40
8.0
 40
8.0
 10
16.06173804187993
 20
-8.108969279662624
 30
0.0
 10
19.32845047477622
 20
-7.272385156790884
 30
0.0
 10
22.50133066461982
 20
-9.356854193987955
 30
0.0
 10
22.85287692594299
 20
-12.76856349425654
 30
0.0
 10
23.0124330273119
 20
-14.31703405089431
 30
0.0
 10
22.76960054683514
 20
-16.02788093350626
 30
0.0
 10
22.35049997439374
 20
-17.52354806917517
 30
0.0
 10
21.91404373365968
 20
-19.08115332755238
 30
0.0
 10
21.4675112717429
 20
-20.75655918316086
 30
0.0
 10
20.6721320771162
 20
-22.17485210276684
 30
0.0
 10
19.03411244879554
 20
-25.09571256368599
 30
0.0
 10
15.53904741165964
 20
-26.81888447898682
 30
0.0
 10
12.34432261817922
 20
-25.20965683871461
 30
0.0
 10
9.331685907771531
 20
-23.69214951715126
 30
0.0
 10
8.359757791116937
 20
-19.55867504326807
 30
0.0
 10
9.613590301127866
 20
-16.58190061918569
 30
0.0
 10
10.22862026892531
 20
-15.12173312187961
 30
0.0
 10
11.06791838684002
 20
-13.7404846297382
 30
0.0
 10
11.8700362035447
 20
-12.37513356638369
 30
0.0
 10
12.73702455977157
 20
-10.89936099352968
 30
0.0
 10
13.50965577764434
 20
-9.531244877280843
 30
0.0
 10
15.01272962259696
 20
-8.609028011502838
 30
0.0
 10
15.35200638241521
 20
-8.400863421904255
 30
0.0
 10
15.67880998760049
 20
-8.225356628300435
 30
0.0
 10
16.06173804187993
 20
-8.108970294496897
 30
0.0
  0
SPLINE
  5
42
330
1F
100
AcDbEntity
  8
Layer 1
 62
     7
420
 16777215
370
    70
100
AcDbSpline
210
0.0
220
0.0
230
1.0
 70
    11
 71
     3
 72
    26
 73
    22
 74
     0
 42
0.0000000001
 43
0.0000000001
 12
1.0
 22
0.0
 32
0.0
 13
1.0
 23
0.0
 33
0.0
 40
0.0
 40
0.0
 40
0.0
 40
0.0
 40
1.0
 40
1.0
 40
1.0
 40
2.0
 40
2.0
 40
2.0
 40
3.0
 40
3.0
 40
3.0
 40
4.0
 40
4.0
 40
4.0
 40
5.0
 40
5.0
 40
5.0
 40
6.0
 40
6.0
 40
6.0
 40
7.0
 40
7.0
 40
7.0
 40
7.0
 10
14.17309192089169
 20
-23.94240718600559
 30
0.0
 10
16.94445386756984
 20
-24.37279688786738
 30
0.0
 10
18.55101351289646
 20
-21.84272370502266
 30
0.0
 10
19.15893911006581
 20
-19.50029905539516
 30
0.0
 10
19.49467406674133
 20
-18.20666404163669
 30
0.0
 10
19.37585107504825
 20
-16.84460784900378
 30
0.0
 10
19.989704754878
 20
-15.63173769499008
 30
0.0
 10
20.53196956465631
 20
-14.56031493584906
 30
0.0
 10
21.08173988244658
 20
-13.48766048042035
 30
0.0
 10
20.81874162954237
 20
-12.24302498058028
 30
0.0
 10
20.26767788772319
 20
-9.635123642191148
 30
0.0
 10
17.04976300910322
 20
-8.68990320086492
 30
0.0
 10
15.22026335862645
 20
-10.67288585803736
 30
0.0
 10
14.28736330374447
 20
-11.68405010134519
 30
0.0
 10
14.40334535857599
 20
-12.95572007161263
 30
0.0
 10
13.89806804244351
 20
-14.13527096297139
 30
0.0
 10
13.42099659513102
 20
-15.24897631437418
 30
0.0
 10
12.46763811987562
 20
-16.09573389580141
 30
0.0
 10
11.95290553887171
 20
-17.20939191887545
 30
0.0
 10
10.83030876233951
 20
-19.63820437994766
 30
0.0
 10
10.91360406082919
 20
-23.34677538946183
 30
0.0
 10
14.17309192089169
 20
-23.94240718600559
 30
0.0
  0
SPLINE
  5
43
330
1F
100
AcDbEntity
  8
Layer 1
 62
     7
420
 16777215
370
    70
100
AcDbSpline
210
0.0
220
0.0
230
1.0
 70
    11
 71
     3
 72
    32
 73
    28
 74
     0
 42
0.0000000001
 43
0.0000000001
 12
1.0
 22
0.0
 32
0.0
 13
1.0
 23
0.0
 33
0.0
 40
0.0
 40
0.0
 40
0.0
 40
0.0
 40
1.0
 40
1.0
 40
1.0
 40
2.0
 40
2.0
 40
2.0
 40
3.0
 40
3.0
 40
3.0
 40
4.0
 40
4.0
 40
4.0
 40
5.0
 40
5.0
 40
5.0
 40
6.0
 40
6.0
 40
6.0
 40
7.0
 40
7.0
 40
7.0
 40
8.0
 40
8.0
 40
8.0
 40
9.0
 40
9.0
 40
9.0
 40
9.0
 10
46.67816297994649
 20
-24.85769431630655
 30
0.0
 10
45.46769969385397
 20
-24.55848687799223
 30
0.0
 10
44.48199583382216
 20
-23.94216348842934
 30
0.0
 10
43.49636126920025
 20
-23.20829841466419
 30
0.0
 10
42.45717414548299
 20
-22.43456019303946
 30
0.0
 10
41.4583052470698
 20
-22.41368473940752
 30
0.0
 10
40.26198347657812
 20
-22.03673767148211
 30
0.0
 10
37.85210577299105
 20
-21.27741325155378
 30
0.0
 10
36.74163519359121
 20
-17.99134707684114
 30
0.0
 10
39.00705928654785
 20
-16.33113000141424
 30
0.0
 10
39.98970481598497
 20
-15.61099777887122
 30
0.0
 10
41.29446075000022
 20
-15.44018242546326
 30
0.0
 10
42.43524606522649
 20
-15.88265895926821
 30
0.0
 10
42.98741630286369
 20
-16.09682929400075
 30
0.0
 10
43.46316954964843
 20
-16.43818690210729
 30
0.0
 10
43.99517260060606
 20
-16.68719271730449
 30
0.0
 10
44.60310431330996
 20
-16.97173719770474
 30
0.0
 10
45.24307698534216
 20
-17.00299384114656
 30
0.0
 10
45.90023277763591
 20
-17.04055908201515
 30
0.0
 10
48.12779406368913
 20
-17.16789399595975
 30
0.0
 10
50.69680395116868
 20
-17.8657196342864
 30
0.0
 10
51.58425333044372
 20
-20.16542548331002
 30
0.0
 10
52.12289939856731
 20
-21.56125440870654
 30
0.0
 10
51.76222865976357
 20
-23.105379778351
 30
0.0
 10
50.64741315030454
 20
-24.10533882511934
 30
0.0
 10
49.55709838701382
 20
-25.08332137212099
 30
0.0
 10
48.04802250702161
 20
-25.16352732512127
 30
0.0
 10
46.67816297994649
 20
-24.85769431630655
 30
0.0
  0
SPLINE
  5
44
330
1F
100
AcDbEntity
  8
Layer 1
 62
     7
420
 16777215
370
    70
100
AcDbSpline
210
0.0
220
0.0
230
1.0
 70
     8
 71
     3
 72
   323
 73
   319
 74
     0
 42
0.0000000001
 43
0.0000000001
 12
1.0
 22
0.0
 32
0.0
 13
1.0
 23
0.0
 33
0.0
 40
0.0
 40
0.0
 40
0.0
 40
0.0
 40
1.0
 40
1.0
 40
1.0
 40
2.0
 40
2.0
 40
2.0
 40
3.0
 40
3.0
 40
3.0
 40
4.0
 40
4.0
 40
4.0
 40
5.0
 40
5.0
 40
5.0
 40
6.0
 40
6.0
 40
6.0
 40
7.0
 40
7.0
 40
7.0
 40
8.0
 40
8.0
 40
8.0
 40
9.0
 40
9.0
 40
9.0
 40
10.0
 40
10.0
 40
10.0
 40
11.0
 40
11.0
 40
11.0
 40
12.0
 40
12.0
 40
12.0
 40
13.0
 40
13.0
 40
13.0
 40
14.0
 40
14.0
 40
14.0
 40
15.0
 40
15.0
 40
15.0
 40
16.0
 40
16.0
 40
16.0
 40
17.0
 40
17.0
 40
17.0
 40
18.0
 40
18.0
 40
18.0
 40
19.0
 40
19.0
 40
19.0
 40
20.0
 40
20.0
 40
20.0
 40
21.0
 40
21.0
 40
21.0
 40
22.0
 40
22.0
 40
22.0
 40
23.0
 40
23.0
 40
23.0
 40
24.0
 40
24.0
 40
24.0
 40
25.0
 40
25.0
 40
25.0
 40
26.0
 40
26.0
 40
26.0
 40
27.0
 40
27.0
 40
27.0
 40
28.0
 40
28.0
 40
28.0
 40
29.0
 40
29.0
 40
29.0
 40
30.0
 40
30.0
 40
30.0
 40
31.0
 40
31.0
 40
31.0
 40
32.0
 40
32.0
 40
32.0
 40
33.0
 40
33.0
 40
33.0
 40
34.0
 40
34.0
 40
34.0
 40
35.0
 40
35.0
 40
35.0
 40
36.0
 40
36.0
 40
36.0
 40
37.0
 40
37.0
 40
37.0
 40
38.0
 40
38.0
 40
38.0
 40
39.0
 40
39.0
 40
39.0
 40
40.0
 40
40.0
 40
40.0
 40
41.0
 40
41.0
 40
41.0
 40
42.0
 40
42.0
 40
42.0
 40
43.0
 40
43.0
 40
43.0
 40
44.0
 40
44.0
 40
44.0
 40
45.0
 40
45.0
 40
45.0
 40
46.0
 40
46.0
 40
46.0
 40
47.0
 40
47.0
 40
47.0
 40
48.0
 40
48.0
 40
48.0
 40
49.0
 40
49.0
 40
49.0
 40
50.0
 40
50.0
 40
50.0
 40
51.0
 40
51.0
 40
51.0
 40
52.0
 40
52.0
 40
52.0
 40
53.0
 40
53.0
 40
53.0
 40
54.0
 40
54.0
 40
54.0
 40
55.0
 40
55.0
 40
55.0
 40
56.0
 40
56.0
 40
56.0
 40
57.0
 40
57.0
 40
57.0
 40
58.0
 40
58.0
 40
58.0
 40
59.0
 40
59.0
 40
59.0
 40
60.0
 40
60.0
 40
60.0
 40
61.0
 40
61.0
 40
61.0
 40
62.0
 40
62.0
 40
62.0
 40
63.0
 40
63.0
 40
63.0
 40
64.0
 40
64.0
 40
64.0
 40
65.0
 40
65.0
 40
65.0
 40
66.0
 40
66.0
 40
66.0
 40
67.0
 40
67.0
 40
67.0
 40
68.0
 40
68.0
 40
68.0
 40
69.0
 40
69.0
 40
69.0
 40
70.0
 40
70.0
 40
70.0
 40
71.0
 40
71.0
 40
71.0
 40
72.0
 40
72.0
 40
72.0
 40
73.0
 40
73.0
 40
73.0
 40
74.0
 40
74.0
 40
74.0
 40
75.0
 40
75.0
 40
75.0
 40
76.0
 40
76.0
 40
76.0
 40
77.0
 40
77.0
 40
77.0
 40
78.0
 40
78.0
 40
78.0
 40
79.0
 40
79.0
 40
79.0
 40
80.0
 40
80.0
 40
80.0
 40
81.0
 40
81.0
 40
81.0
 40
82.0
 40
82.0
 40
82.0
 40
83.0
 40
83.0
 40
83.0
 40
84.0
 40
84.0
 40
84.0
 40
85.0
 40
85.0
 40
85.0
 40
86.0
 40
86.0
 40
86.0
 40
87.0
 40
87.0
 40
87.0
 40
88.0
 40
88.0
 40
88.0
 40
89.0
 40
89.0
 40
89.0
 40
90.0
 40
90.0
 40
90.0
 40
91.0
 40
91.0
 40
91.0
 40
92.0
 40
92.0
 40
92.0
 40
93.0
 40
93.0
 40
93.0
 40
94.0
 40
94.0
 40
94.0
 40
95.0
 40
95.0
 40
95.0
 40
96.0
 40
96.0
 40
96.0
 40
97.0
 40
97.0
 40
97.0
 40
98.0
 40
98.0
 40
98.0
 40
99.0
 40
99.0
 40
99.0
 40
100.0
 40
100.0
 40
100.0
 40
101.0
 40
101.0
 40
101.0
 40
102.0
 40
102.0
 40
102.0
 40
103.0
 40
103.0
 40
103.0
 40
104.0
 40
104.0
 40
104.0
 40
105.0
 40
105.0
 40
105.0
 40
106.0
 40
106.0
 40
106.0
 40
106.0
 10
18.05698336750321
 20
-35.33869138255487
 30
0.0
 10
18.42143753569735
 20
-35.41961113789335
 30
0.0
 10
18.62470547824609
 20
-35.66922202707974
 30
0.0
 10
18.99678940074298
 20
-35.42414956005809
 30
0.0
 10
19.28693728777524
 20
-35.23304412879141
 30
0.0
 10
19.37349262439642
 20
-34.68493532714643
 30
0.0
 10
19.4691071520377
 20
-34.40085184438642
 30
0.0
 10
19.58959958511594
 20
-34.0428527946653
 30
0.0
 10
19.66635167235533
 20
-33.7741535576267
 30
0.0
 10
19.96235091245712
 20
-33.5016485684324
 30
0.0
 10
20.18301357413853
 20
-33.29850049205071
 30
0.0
 10
20.47984883879432
 20
-33.24310977433348
 30
0.0
 10
20.61727419680513
 20
-32.9613751688382
 30
0.0
 10
20.81022828522792
 20
-32.56580156606697
 30
0.0
 10
20.69285680557424
 20
-32.26152023442988
 30
0.0
 10
21.19988292946118
 20
-32.04373260823892
 30
0.0
 10
21.52085095485891
 20
-31.90586424004002
 30
0.0
 10
21.84109036245768
 20
-31.99391982284988
 30
0.0
 10
22.17366358378002
 20
-32.01609562706183
 30
0.0
 10
22.65160585703996
 20
-32.04796456177142
 30
0.0
 10
22.77368176261512
 20
-31.92201256489655
 30
0.0
 10
23.22945147172903
 20
-31.71553013706115
 30
0.0
 10
23.58747555796817
 20
-31.5533304974803
 30
0.0
 10
23.99850824455289
 20
-31.58651511531975
 30
0.0
 10
24.18416806997154
 20
-31.23047954465781
 30
0.0
 10
24.36499334071545
 20
-30.88371508813503
 30
0.0
 10
24.17475896743331
 20
-30.50437548501334
 30
0.0
 10
24.51879496817304
 20
-30.17557272077142
 30
0.0
 10
24.75910244914596
 20
-29.94590558174531
 30
0.0
 10
25.13953997499129
 20
-29.86605819509529
 30
0.0
 10
25.42608253593233
 20
-29.70256377573433
 30
0.0
 10
26.10170353879741
 20
-29.31707038442573
 30
0.0
 10
26.35780464331229
 20
-28.80580787536726
 30
0.0
 10
26.77652907111986
 20
-28.19521777622531
 30
0.0
 10
27.21990123008446
 20
-27.54868599417351
 30
0.0
 10
27.84598668632134
 20
-27.11706184677127
 30
0.0
 10
28.64826653122312
 20
-27.2448107843921
 30
0.0
 10
29.51522002365416
 20
-27.38285786151669
 30
0.0
 10
29.81666337067398
 20
-27.69667443258266
 30
0.0
 10
30.30410542759738
 20
-28.36881650729795
 30
0.0
 10
30.53337511205649
 20
-28.68496034263767
 30
0.0
 10
30.731940188029
 20
-28.96731321812932
 30
0.0
 10
30.88559752309164
 20
-29.32619524130142
 30
0.0
 10
30.94549114260528
 20
-29.46608276009377
 30
0.0
 10
30.96330968844818
 20
-29.66454571745127
 30
0.0
 10
31.05895150997063
 20
-29.78112310999434
 30
0.0
 10
31.19201066095982
 20
-29.94330831965905
 30
0.0
 10
31.41904224938278
 20
-29.95461560501669
 30
0.0
 10
31.5192656114545
 20
-30.11847786387127
 30
0.0
 10
31.70537987335304
 20
-30.42276922597835
 30
0.0
 10
31.45040693542508
 20
-30.76173409678419
 30
0.0
 10
31.5192691633744
 20
-31.0565018481649
 30
0.0
 10
31.61068595849828
 20
-31.44781540190183
 30
0.0
 10
32.01736257517511
 20
-31.65644655904781
 30
0.0
 10
32.38233901208736
 20
-31.67134831307834
 30
0.0
 10
32.76299653069898
 20
-31.68689031562558
 30
0.0
 10
33.05437759506468
 20
-31.53813042251684
 30
0.0
 10
33.45333013196144
 20
-31.59798188568432
 30
0.0
 10
33.81937153252076
 20
-31.65289597038671
 30
0.0
 10
34.19741082884593
 20
-31.74499844907293
 30
0.0
 10
34.5586429462287
 20
-31.82749477038502
 30
0.0
 10
35.16659902588036
 20
-31.9663366332128
 30
0.0
 10
36.02666633096538
 20
-32.17110191054962
 30
0.0
 10
36.54939052644841
 20
-32.49240808310697
 30
0.0
 10
36.91011764566954
 20
-32.71413849278795
 30
0.0
 10
37.03691254812232
 20
-32.97764026492892
 30
0.0
 10
37.48178167322789
 20
-33.09383742437836
 30
0.0
 10
37.81047192658605
 20
-33.17968935615684
 30
0.0
 10
38.16615925856523
 20
-33.27542993623946
 30
0.0
 10
38.50824795514189
 20
-33.33243307563182
 30
0.0
 10
39.20440775601067
 20
-33.44843601453476
 30
0.0
 10
39.93013060020201
 20
-33.5968279251971
 30
0.0
 10
40.59074568522551
 20
-33.89921597554947
 30
0.0
 10
41.19413018435205
 20
-34.17540746199918
 30
0.0
 10
41.79416933427758
 20
-34.48263067891209
 30
0.0
 10
42.4025404379994
 20
-34.76404351718641
 30
0.0
 10
42.74430927949273
 20
-34.92213475316071
 30
0.0
 10
43.13869907931414
 20
-34.88141223769877
 30
0.0
 10
43.4963612692001
 20
-34.97688267513129
 30
0.0
 10
43.80088657917329
 20
-35.05816933437169
 30
0.0
 10
44.1104882744855
 20
-35.28104334766767
 30
0.0
 10
44.44409366536299
 20
-35.24621765586961
 30
0.0
 10
45.15546273424423
 20
-35.17195650594501
 30
0.0
 10
45.81441322917215
 20
-34.41265020021223
 30
0.0
 10
46.32134116803591
 20
-33.97388139078559
 30
0.0
 10
46.89348625628049
 20
-33.4786642209624
 30
0.0
 10
47.48714430085854
 20
-33.24720870860197
 30
0.0
 10
48.16850999832215
 20
-32.9253921907749
 30
0.0
 10
48.79525244935343
 20
-32.62937483340558
 30
0.0
 10
49.43881697805121
 20
-32.19018374406768
 30
0.0
 10
50.07931825763176
 20
-31.96131558829655
 30
0.0
 10
50.78716579853648
 20
-31.7083828207617
 30
0.0
 10
51.5031932202445
 20
-32.11218928849863
 30
0.0
 10
52.17300739191094
 20
-32.33194655056197
 30
0.0
 10
52.89947982426025
 20
-32.57029264631628
 30
0.0
 10
53.44842910623927
 20
-32.91730780734684
 30
0.0
 10
54.22712122280816
 20
-32.75888427575809
 30
0.0
 10
54.59214573741843
 20
-32.68462068493626
 30
0.0
 10
54.94857029260078
 20
-32.53516034950599
 30
0.0
 10
55.31525777943271
 20
-32.47057358590321
 30
0.0
 10
55.60075348242551
 20
-32.42028759540446
 30
0.0
 10
55.94842961220871
 20
-32.48808182198364
 30
0.0
 10
56.21533171739843
 20
-32.3777460203421
 30
0.0
 10
56.85975518795996
 20
-32.1113450484557
 30
0.0
 10
56.79452178972395
 20
-31.05519902935571
 30
0.0
 10
57.37728243125427
 20
-30.61627030168837
 30
0.0
 10
57.95546979899427
 20
-30.18078611214335
 30
0.0
 10
58.5048877826259
 20
-29.93449704954572
 30
0.0
 10
58.70135697615938
 20
-29.1459393666764
 30
0.0
 10
58.87606868097302
 20
-28.44470852920989
 30
0.0
 10
59.00529024749358
 20
-27.60057523835947
 30
0.0
 10
59.48541588937051
 20
-27.06896334975656
 30
0.0
 10
60.03978785268357
 20
-26.45514333953335
 30
0.0
 10
60.47495706563121
 20
-25.99911013733433
 30
0.0
 10
60.36732207662968
 20
-25.11356752069557
 30
0.0
 10
60.18560832950354
 20
-23.61855861511544
 30
0.0
 10
58.91759277980549
 20
-22.35853362256669
 30
0.0
 10
58.91791125201841
 20
-20.86821050749197
 30
0.0
 10
58.91805881854452
 20
-20.17765793892113
 30
0.0
 10
59.25310098393396
 20
-19.53242933317905
 30
0.0
 10
59.32769891967938
 20
-18.85131653558377
 30
0.0
 10
59.36843812978981
 20
-18.47934917357975
 30
0.0
 10
59.31219494909288
 20
-18.21267486827113
 30
0.0
 10
59.21477229865786
 20
-17.85185769933267
 30
0.0
 10
59.07161492174969
 20
-17.3216561577203
 30
0.0
 10
59.07896957367453
 20
-17.24311348299628
 30
0.0
 10
59.45832387418648
 20
-16.80735315204528
 30
0.0
 10
59.96707550176148
 20
-16.22295546021799
 30
0.0
 10
59.89008028856662
 20
-15.53437643307648
 30
0.0
 10
59.81785021937786
 20
-14.76817920358488
 30
0.0
 10
59.73746291656132
 20
-13.91545222441826
 30
0.0
 10
59.30236851907092
 20
-13.44332469709409
 30
0.0
 10
58.95951254278063
 20
-12.7066139521945
 30
0.0
 10
58.65002092934744
 20
-12.04159478134716
 30
0.0
 10
58.13818565332313
 20
-11.55194592890292
 30
0.0
 10
57.89397920151229
 20
-10.87390295807548
 30
0.0
 10
57.61014036208078
 20
-10.08582005323261
 30
0.0
 10
57.68481585126604
 20
-9.30661104718653
 30
0.0
 10
56.63787216578187
 20
-9.411062514675551
 30
0.0
 10
56.10394570428257
 20
-9.464331284723155
 30
0.0
 10
55.13692269500259
 20
-10.04245854265218
 30
0.0
 10
54.6055650932858
 20
-9.583476765037377
 30
0.0
 10
54.1540983710255
 20
-9.193503989551724
 30
0.0
 10
54.56303771516094
 20
-9.076795633457726
 30
0.0
 10
54.85900979931051
 20
-8.974655371076564
 30
0.0
 10
55.29481167025344
 20
-8.824259709363394
 30
0.0
 10
55.45547216409052
 20
-8.796880758283994
 30
0.0
 10
55.40603590601565
 20
-8.377164094119053
 30
0.0
 10
55.34585851510094
 20
-7.866254596588078
 30
0.0
 10
54.6639977926644
 20
-6.952559010353613
 30
0.0
 10
54.34770157341023
 20
-6.531277506909898
 30
0.0
 10
53.61374092455702
 20
-5.553700075391362
 30
0.0
 10
53.29198671210941
 20
-6.340011096222737
 30
0.0
 10
52.84033398048354
 20
-7.003851694134545
 30
0.0
 10
51.85087213647077
 20
-8.458165807935972
 30
0.0
 10
50.07431060638535
 20
-6.442105779873726
 30
0.0
 10
48.8385107127344
 20
-6.615925940646307
 30
0.0
 10
47.22577889194786
 20
-6.84276307326978
 30
0.0
 10
45.60449771668052
 20
-7.002386399865182
 30
0.0
 10
43.99517260060606
 20
-6.621854508378722
 30
0.0
 10
43.41383013169661
 20
-6.484393564604273
 30
0.0
 10
42.72859076573286
 20
-6.405019393568434
 30
0.0
 10
42.12585399794175
 20
-6.41760731777174
 30
0.0
 10
41.79165932655511
 20
-6.424586844187539
 30
0.0
 10
41.47669102870203
 20
-6.63632760994287
 30
0.0
 10
41.14502503784635
 20
-6.640587860041554
 30
0.0
 10
40.76166716240398
 20
-6.645512092467293
 30
0.0
 10
40.55410688900368
 20
-6.395981306756816
 30
0.0
 10
40.25854882643286
 20
-6.17122725353603
 30
0.0
 10
40.00049774699745
 20
-5.974994995357545
 30
0.0
 10
39.74274775056579
 20
-5.814257425029963
 30
0.0
 10
39.45179416001645
 20
-5.669517936070153
 30
0.0
 10
39.07321352983955
 20
-5.481186983225004
 30
0.0
 10
38.91555483089425
 20
-5.550867068673559
 30
0.0
 10
38.5279631401501
 20
-5.509563820650934
 30
0.0
 10
38.11357419853771
 20
-5.465404955427604
 30
0.0
 10
37.91078381470995
 20
-5.144737110153945
 30
0.0
 10
37.54491451202744
 20
-5.027441565368955
 30
0.0
 10
37.27083602557134
 20
-4.939573615948196
 30
0.0
 10
36.85613628864758
 20
-4.969174444608623
 30
0.0
 10
36.57273272907216
 20
-5.016255047412212
 30
0.0
 10
36.26264280756772
 20
-5.067768939649934
 30
0.0
 10
35.93593217732066
 20
-5.238097138618476
 30
0.0
 10
35.61706331422662
 20
-5.23678766381944
 30
0.0
 10
35.20406683786329
 20
-5.235091642224107
 30
0.0
 10
35.01349372173026
 20
-5.02765178499366
 30
0.0
 10
34.67523251751572
 20
-4.841582950582733
 30
0.0
 10
34.1733441716869
 20
-4.565507011783754
 30
0.0
 10
33.23684334549843
 20
-4.3625744614267
 30
0.0
 10
32.66482269280802
 20
-4.402566888942917
 30
0.0
 10
32.22412538281999
 20
-4.433377935962641
 30
0.0
 10
32.03127309997439
 20
-4.60056744248138
 30
0.0
 10
31.56563491066703
 20
-4.554618363189749
 30
0.0
 10
31.24728634338928
 20
-4.523203793044659
 30
0.0
 10
30.90808731448058
 20
-4.543528393613201
 30
0.0
 10
30.59916867421751
 20
-4.43784696743262
 30
0.0
 10
29.82625508606331
 20
-4.173432329840908
 30
0.0
 10
29.59504826902538
 20
-3.524693213605436
 30
0.0
 10
29.04139708299181
 20
-3.014561211244945
 30
0.0
 10
28.52138518065749
 20
-2.535424311187752
 30
0.0
 10
27.79940229536351
 20
-2.505966115370597
 30
0.0
 10
27.14121940040117
 20
-2.36507426712909
 30
0.0
 10
26.75609028226833
 20
-2.282632815549782
 30
0.0
 10
26.37709646995169
 20
-2.224700431746227
 30
0.0
 10
25.9839770100562
 20
-2.287170008378603
 30
0.0
 10
25.64265906743276
 20
-2.3414079425129
 30
0.0
 10
25.31992493943284
 20
-2.515218406811944
 30
0.0
 10
24.9583900820213
 20
-2.518165439066756
 30
0.0
 10
23.59052584503085
 20
-2.529315511996035
 30
0.0
 10
22.25832613058861
 20
-2.640343548635125
 30
0.0
 10
20.86461163030309
 20
-2.414877638595107
 30
0.0
 10
20.13369659757397
 20
-2.296635040859023
 30
0.0
 10
19.54821782832975
 20
-1.922512722590719
 30
0.0
 10
18.83690378663576
 20
-1.763913412944463
 30
0.0
 10
18.20557436099226
 20
-1.623148005266052
 30
0.0
 10
17.56440288748091
 20
-1.787201171477995
 30
0.0
 10
16.94259996469418
 20
-1.626415232711565
 30
0.0
 10
16.14162777553525
 20
-1.41929966499673
 30
0.0
 10
15.4630101233782
 20
-1.511966756205399
 30
0.0
 10
14.65624182270787
 20
-1.421284882597004
 30
0.0
 10
14.23796779870468
 20
-1.3742703033841
 30
0.0
 10
13.90453827561603
 20
-1.208741956225329
 30
0.0
 10
13.46605892738631
 20
-1.283830023101334
 30
0.0
 10
13.13045596463977
 20
-1.341300865940891
 30
0.0
 10
12.87616472417631
 20
-1.545086206321457
 30
0.0
 10
12.55661166078683
 20
-1.628868213952248
 30
0.0
 10
11.90164840791119
 20
-1.800589729209453
 30
0.0
 10
11.13552083853011
 20
-1.718990836332093
 30
0.0
 10
10.45995394838907
 20
-1.847308876403821
 30
0.0
 10
10.02807680303147
 20
-1.929340174344563
 30
0.0
 10
9.679459421790712
 20
-1.838248166567635
 30
0.0
 10
9.253407104467088
 20
-1.8586943018739
 30
0.0
 10
8.86490198318322
 20
-1.877338557412372
 30
0.0
 10
8.613301806158043
 20
-2.068892542329144
 30
0.0
 10
8.264402273171868
 20
-2.231768378935827
 30
0.0
 10
7.508172251233885
 20
-2.584797219175407
 30
0.0
 10
7.09127736365906
 20
-2.861029609851913
 30
0.0
 10
6.776807118818978
 20
-3.684592333098281
 30
0.0
 10
6.641602808798425
 20
-4.038677438389337
 30
0.0
 10
6.524681001162725
 20
-4.402403637191393
 30
0.0
 10
6.390133069414118
 20
-4.758460508075991
 30
0.0
 10
6.284492848893288
 20
-5.038018327132034
 30
0.0
 10
6.249250858853568
 20
-5.813612765355388
 30
0.0
 10
6.096056033199261
 20
-6.01603878390607
 30
0.0
 10
5.971314715583566
 20
-6.18086738151606
 30
0.0
 10
5.616622413638702
 20
-6.13631040960782
 30
0.0
 10
5.380463943471619
 20
-6.264749050294805
 30
0.0
 10
5.059112683746207
 20
-6.439521180860285
 30
0.0
 10
4.90691010363245
 20
-6.750306197337244
 30
0.0
 10
4.61583975454745
 20
-6.964769764639552
 30
0.0
 10
3.960601015791338
 20
-7.447556272403087
 30
0.0
 10
3.301185885354673
 20
-7.660068963429694
 30
0.0
 10
3.221570252044267
 20
-8.585854102225703
 30
0.0
 10
3.161154420657037
 20
-9.28838043431329
 30
0.0
 10
2.829886325193292
 20
-9.907737949851303
 30
0.0
 10
2.759350228408569
 20
-10.62208807585891
 30
0.0
 10
2.686835055619958
 20
-11.35648117641656
 30
0.0
 10
2.534263639553008
 20
-12.10477895864283
 30
0.0
 10
2.34041910146843
 20
-12.82174283871518
 30
0.0
 10
2.120186617095783
 20
-13.6363066024096
 30
0.0
 10
2.044098167437457
 20
-14.19425886145564
 30
0.0
 10
2.130009203013565
 20
-15.03541297000488
 30
0.0
 10
2.19989474901926
 20
-15.71966166700582
 30
0.0
 10
1.979337148830091
 20
-16.39785759419167
 30
0.0
 10
2.003138113356209
 20
-17.08802535362656
 30
0.0
 10
2.026643560626755
 20
-17.76962386025085
 30
0.0
 10
1.881848820089532
 20
-18.46021725158238
 30
0.0
 10
1.933737214228017
 20
-19.13494147259335
 30
0.0
 10
1.987137985363284
 20
-19.82933169807461
 30
0.0
 10
2.247996296745378
 20
-20.53198892560072
 30
0.0
 10
2.366321857763561
 20
-21.22049334635739
 30
0.0
 10
2.487578194833986
 20
-21.92605115989628
 30
0.0
 10
2.646468892728851
 20
-22.58970987089573
 30
0.0
 10
2.882145236293847
 20
-23.26188166315503
 30
0.0
 10
3.12299208535468
 20
-23.94880023862323
 30
0.0
 10
3.184998411402173
 20
-24.67915638999266
 30
0.0
 10
3.397641330777876
 20
-25.38570039946585
 30
0.0
 10
3.604976724073708
 20
-26.07460920731614
 30
0.0
 10
3.62821348602717
 20
-26.80192824184294
 30
0.0
 10
3.825668734251899
 20
-27.48944875878045
 30
0.0
 10
3.925932136342592
 20
-27.83855645105503
 30
0.0
 10
4.134522697702866
 20
-28.1644281082574
 30
0.0
 10
4.226871150804401
 20
-28.51215203528904
 30
0.0
 10
4.319477019165649
 20
-28.86084521997433
 30
0.0
 10
4.26680873937759
 20
-29.26205388138502
 30
0.0
 10
4.51621079802107
 20
-29.56363499634224
 30
0.0
 10
4.920261081109818
 20
-30.05221931491365
 30
0.0
 10
5.724281456225791
 20
-30.17183293833669
 30
0.0
 10
6.287241143568419
 20
-30.37575046831378
 30
0.0
 10
6.609308993955096
 20
-30.49241118490239
 30
0.0
 10
6.873474412768145
 20
-30.67656038802683
 30
0.0
 10
7.178519109020107
 20
-30.81062577598962
 30
0.0
 10
7.493170046538542
 20
-30.94891305168906
 30
0.0
 10
7.865519987436262
 20
-30.89180180053321
 30
0.0
 10
8.1556961598709
 20
-31.03236401548767
 30
0.0
 10
8.456729615532026
 20
-31.17818553125224
 30
0.0
 10
8.655714360479262
 20
-31.5578430952417
 30
0.0
 10
8.883471820477894
 20
-31.78795851932836
 30
0.0
 10
9.199466529537997
 20
-32.10722470927001
 30
0.0
 10
9.55505034190047
 20
-32.17681459413517
 30
0.0
 10
9.925381126495394
 20
-32.40794342833629
 30
0.0
 10
10.21532311688043
 20
-32.58890044571459
 30
0.0
 10
10.40234817959461
 20
-32.86746101553724
 30
0.0
 10
10.6772713631613
 20
-33.08247098006738
 30
0.0
 10
11.01749724592096
 20
-33.34855241428974
 30
0.0
 10
11.42193768662096
 20
-33.47758497160059
 30
0.0
 10
11.57243605922761
 20
-33.92994718636017
 30
0.0
 10
11.81266826583341
 20
-34.65202790493918
 30
0.0
 10
11.47675877160302
 20
-35.15022285780335
 30
0.0
 10
12.33859380365533
 20
-35.58111701827448
 30
0.0
 10
13.00607400423708
 20
-35.91483902998682
 30
0.0
 10
13.60331729223981
 20
-36.12852020139891
 30
0.0
 10
14.32229843416806
 20
-36.004589084501
 30
0.0
 10
15.07417467684546
 20
-35.87498782364724
 30
0.0
 10
15.5815260052217
 20
-35.71410252608808
 30
0.0
 10
16.23735698846293
 20
-35.32929672360862
 30
0.0
 10
16.93011850906083
 20
-34.92282209878517
 30
0.0
 10
17.37277007369797
 20
-34.94040834965141
 30
0.0
 10
18.05698336750321
 20
-35.33868732321793
 30
0.0
  0
SPLINE
  5
45
330
1F
100
AcDbEntity
  8
Layer 1
 62
     7
420
 16777215
370
    70
100
AcDbSpline
210
0.0
220
0.0
230
1.0
 70
     8
 71
     3
 72
    65
 73
    61
 74
     0
 42
0.0000000001
 43
0.0000000001
 12
1.0
 22
0.0
 32
0.0
 13
1.0
 23
0.0
 33
0.0
 40
0.0
 40
0.0
 40
0.0
 40
0.0
 40
1.0
 40
1.0
 40
1.0
 40
2.0
 40
2.0
 40
2.0
 40
3.0
 40
3.0
 40
3.0
 40
4.0
 40
4.0
 40
4.0
 40
5.0
 40
5.0
 40
5.0
 40
6.0
 40
6.0
 40
6.0
 40
7.0
 40
7.0
 40
7.0
 40
8.0
 40
8.0
 40
8.0
 40
9.0
 40
9.0
 40
9.0
 40
10.0
 40
10.0
 40
10.0
 40
11.0
 40
11.0
 40
11.0
 40
12.0
 40
12.0
 40
12.0
 40
13.0
 40
13.0
 40
13.0
 40
14.0
 40
14.0
 40
14.0
 40
15.0
 40
15.0
 40
15.0
 40
16.0
 40
16.0
 40
16.0
 40
17.0
 40
17.0
 40
17.0
 40
18.0
 40
18.0
 40
18.0
 40
19.0
 40
19.0
 40
19.0
 40
20.0
 40
20.0
 40
20.0
 40
20.0
 10
18.15108082899127
 20
-28.03949602705279
 30
0.0
 10
17.23592608876091
 20
-28.54085893527003
 30
0.0
 10
15.56236308526811
 20
-28.38913163150793
 30
0.0
 10
14.56530404766247
 20
-28.25798578211126
 30
0.0
 10
13.446317249867
 20
-28.11080244739822
 30
0.0
 10
12.23739259378175
 20
-27.8416537499903
 30
0.0
 10
11.19259374715098
 20
-27.42171567631779
 30
0.0
 10
8.965402570083395
 20
-26.52653630699307
 30
0.0
 10
7.911278866228056
 20
-24.54775533980404
 30
0.0
 10
6.810138081273849
 20
-22.55257138158878
 30
0.0
 10
6.258029584394396
 20
-21.55219247344212
 30
0.0
 10
6.15763364878329
 20
-20.44178998717724
 30
0.0
 10
6.109879613815792
 20
-19.31585495981335
 30
0.0
 10
6.088353593794674
 20
-18.80831879123434
 30
0.0
 10
5.919325285702585
 20
-18.32809677415237
 30
0.0
 10
5.882142435347178
 20
-17.81861011302878
 30
0.0
 10
5.839432034241061
 20
-17.23338387440559
 30
0.0
 10
6.031314307581902
 20
-16.7301230199698
 30
0.0
 10
6.133730643057598
 20
-16.16208069711916
 30
0.0
 10
6.318320669279538
 20
-15.13826992725313
 30
0.0
 10
6.890466930844404
 20
-14.18580164249124
 30
0.0
 10
7.300829596977413
 20
-13.22258232516848
 30
0.0
 10
7.720649689383549
 20
-12.23716416660075
 30
0.0
 10
8.408641963312549
 20
-11.40723461964803
 30
0.0
 10
9.119730853453309
 20
-10.62245087910393
 30
0.0
 10
10.61661373517567
 20
-8.970436112227175
 30
0.0
 10
12.03680885449252
 20
-7.396955993819018
 30
0.0
 10
14.06649271625666
 20
-6.372353955673285
 30
0.0
 10
16.03106967240087
 20
-5.380618448839274
 30
0.0
 10
18.27246182158428
 20
-5.122101705333559
 30
0.0
 10
20.40387485035333
 20
-5.74015078055278
 30
0.0
 10
22.63356048662641
 20
-6.386696113122184
 30
0.0
 10
24.29179977411832
 20
-7.948445998548108
 30
0.0
 10
25.22996581678732
 20
-10.08228809644323
 30
0.0
 10
25.67562658507472
 20
-11.09593564442583
 30
0.0
 10
25.65216383079339
 20
-12.22945714784974
 30
0.0
 10
25.84749347379364
 20
-13.30609861733097
 30
0.0
 10
25.94692162027458
 20
-13.85413865923546
 30
0.0
 10
26.05531748898289
 20
-14.35322902193027
 30
0.0
 10
26.22750729285882
 20
-14.88085777280483
 30
0.0
 10
26.45636368301186
 20
-15.58212584180799
 30
0.0
 10
26.18817428770909
 20
-15.78085239737801
 30
0.0
 10
26.01067374729913
 20
-16.43738822174065
 30
0.0
 10
25.87757408263587
 20
-16.92969488097808
 30
0.0
 10
25.94113875870309
 20
-17.49855595570974
 30
0.0
 10
25.9218767651078
 20
-18.0051711528596
 30
0.0
 10
25.90052980550571
 20
-18.56662363667753
 30
0.0
 10
25.69806384408962
 20
-19.09546732915808
 30
0.0
 10
25.53915333859059
 20
-19.6289313264692
 30
0.0
 10
25.21186680500705
 20
-20.72763516560975
 30
0.0
 10
25.01019071821454
 20
-21.8065957546753
 30
0.0
 10
24.30560802277144
 20
-22.71573267393503
 30
0.0
 10
23.63927050876287
 20
-23.5755210828628
 30
0.0
 10
22.98474577037753
 20
-24.55027374883725
 30
0.0
 10
22.20147925095837
 20
-25.2995939683946
 30
0.0
 10
21.41325749484056
 20
-26.05365466767239
 30
0.0
 10
20.44672416215907
 20
-26.46730293063476
 30
0.0
 10
19.51706802849261
 20
-27.00552403101308
 30
0.0
 10
19.01280577589387
 20
-27.29746486229932
 30
0.0
 10
18.65875535060483
 20
-27.7584569915553
 30
0.0
 10
18.15107879932278
 20
-28.03949602705279
 30
0.0
  0
SPLINE
  5
46
330
1F
100
AcDbEntity
  8
Layer 1
 62
     7
420
 16777215
370
    70
100
AcDbSpline
210
0.0
220
0.0
230
1.0
 70
    11
 71
     3
 72
    74
 73
    70
 74
     0
 42
0.0000000001
 43
0.0000000001
 12
1.0
 22
0.0
 32
0.0
 13
1.0
 23
0.0
 33
0.0
 40
0.0
 40
0.0
 40
0.0
 40
0.0
 40
1.0
 40
1.0
 40
1.0
 40
2.0
 40
2.0
 40
2.0
 40
3.0
 40
3.0
 40
3.0
 40
4.0
 40
4.0
 40
4.0
 40
5.0
 40
5.0
 40
5.0
 40
6.0
 40
6.0
 40
6.0
 40
7.0
 40
7.0
 40
7.0
 40
8.0
 40
8.0
 40
8.0
 40
9.0
 40
9.0
 40
9.0
 40
10.0
 40
10.0
 40
10.0
 40
11.0
 40
11.0
 40
11.0
 40
12.0
 40
12.0
 40
12.0
 40
13.0
 40
13.0
 40
13.0
 40
14.0
 40
14.0
 40
14.0
 40
15.0
 40
15.0
 40
15.0
 40
16.0
 40
16.0
 40
16.0
 40
17.0
 40
17.0
 40
17.0
 40
18.0
 40
18.0
 40
18.0
 40
19.0
 40
19.0
 40
19.0
 40
20.0
 40
20.0
 40
20.0
 40
21.0
 40
21.0
 40
21.0
 40
22.0
 40
22.0
 40
22.0
 40
23.0
 40
23.0
 40
23.0
 40
23.0
 10
46.22748726676829
 20
-29.29886068073127
 30
0.0
 10
45.68161993989108
 20
-29.35622681994212
 30
0.0
 10
45.18805022577494
 20
-29.64961205327419
 30
0.0
 10
44.63388898195414
 20
-29.67583507121253
 30
0.0
 10
44.08101988802425
 20
-29.7019969443664
 30
0.0
 10
43.60301784717355
 20
-29.48310794463517
 30
0.0
 10
43.10085600528257
 20
-29.27841075572488
 30
0.0
 10
42.55389709423646
 20
-29.05545285211572
 30
0.0
 10
41.98493503836536
 20
-28.9208226683567
 30
0.0
 10
41.44701512961758
 20
-28.67090966112558
 30
0.0
 10
40.96846956963827
 20
-28.44858147054045
 30
0.0
 10
40.53314677754522
 20
-28.14466149467029
 30
0.0
 10
40.04284377656121
 20
-27.94793666602835
 30
0.0
 10
39.04280476148384
 20
-27.54668987887516
 30
0.0
 10
38.14114152348272
 20
-26.99557015248279
 30
0.0
 10
37.18254561609703
 20
-26.50121534246571
 30
0.0
 10
36.16968977687272
 20
-25.97887829500226
 30
0.0
 10
35.55501503900258
 20
-25.28945693819767
 30
0.0
 10
34.85939651884397
 20
-24.398634568751
 30
0.0
 10
34.14618257804947
 20
-23.48527916740795
 30
0.0
 10
33.68717317897153
 20
-22.75806851571517
 30
0.0
 10
33.59894463940392
 20
-21.59645543967253
 30
0.0
 10
33.52044140896239
 20
-20.56288535634892
 30
0.0
 10
32.86711050498545
 20
-19.71665585289879
 30
0.0
 10
32.73772280386331
 20
-18.6782802669985
 30
0.0
 10
32.58480069552549
 20
-17.45103391773046
 30
0.0
 10
33.13111867611385
 20
-16.57839333344979
 30
0.0
 10
33.69917575910939
 20
-15.5692127419073
 30
0.0
 10
34.02146128745663
 20
-14.99665707826171
 30
0.0
 10
33.92044296372064
 20
-14.46921282628076
 30
0.0
 10
34.44628861655221
 20
-14.00131006034659
 30
0.0
 10
34.80238151894122
 20
-13.68445500400043
 30
0.0
 10
35.24880062811022
 20
-13.40025764926582
 30
0.0
 10
35.63102641869621
 20
-13.10946357159188
 30
0.0
 10
37.18320069182108
 20
-11.9285828009597
 30
0.0
 10
39.63348624378967
 20
-10.88513765287073
 30
0.0
 10
41.60092692190215
 20
-10.98009978092962
 30
0.0
 10
43.67464524638979
 20
-11.08019159425794
 30
0.0
 10
45.89715365927633
 20
-10.78541504173621
 30
0.0
 10
47.87228160922177
 20
-11.50583075604239
 30
0.0
 10
48.89673485096773
 20
-11.87949374529136
 30
0.0
 10
49.74092460125591
 20
-11.98169755074969
 30
0.0
 10
50.66663027721385
 20
-12.61394853459498
 30
0.0
 10
51.55398982182871
 20
-13.22000935897808
 30
0.0
 10
52.62794985594216
 20
-13.60516611799944
 30
0.0
 10
53.47258789731661
 20
-14.27205566069476
 30
0.0
 10
54.29579523538688
 20
-14.92202445008984
 30
0.0
 10
54.70214226092104
 20
-16.13260084730246
 30
0.0
 10
55.03199844585884
 20
-17.08607687186337
 30
0.0
 10
55.21753843204007
 20
-17.62239523271031
 30
0.0
 10
55.26729462795412
 20
-18.16404359886044
 30
0.0
 10
55.3548142144151
 20
-18.72094765758627
 30
0.0
 10
55.44038754671995
 20
-19.26546732462738
 30
0.0
 10
55.65071219423897
 20
-19.77107237926531
 30
0.0
 10
55.74596275730356
 20
-20.3127337491185
 30
0.0
 10
55.9441700082801
 20
-21.43987890841794
 30
0.0
 10
55.57940473392328
 20
-22.4406899768785
 30
0.0
 10
55.31978717263038
 20
-23.52019503650238
 30
0.0
 10
55.03043806334077
 20
-24.72332561796351
 30
0.0
 10
54.54391515258177
 20
-25.42754729096974
 30
0.0
 10
53.7298809299969
 20
-26.35749515470669
 30
0.0
 10
53.0060505052759
 20
-27.18439473521767
 30
0.0
 10
52.08544871776758
 20
-27.93018741521809
 30
0.0
 10
51.16396987343594
 20
-28.53830735845865
 30
0.0
 10
50.28123271735426
 20
-29.12086014581226
 30
0.0
 10
49.18465558558465
 20
-29.12221487085892
 30
0.0
 10
48.16806144158287
 20
-29.21951687959475
 30
0.0
 10
47.54807338187175
 20
-29.27885824404989
 30
0.0
 10
46.82365320460121
 20
-29.16531397295557
 30
0.0
 10
46.22748726676829
 20
-29.29886068073127
 30
0.0
  0
SPLINE
  5
47
330
1F
100
AcDbEntity
  8
Layer 1
 62
     7
420
 16777215
370
    70
100
AcDbSpline
210
0.0
220
0.0
230
1.0
 70
     8
 71
     3
 72
   233
 73
   229
 74
     0
 42
0.0000000001
 43
0.0000000001
 12
1.0
 22
0.0
 32
0.0
 13
1.0
 23
0.0
 33
0.0
 40
0.0
 40
0.0
 40
0.0
 40
0.0
 40
1.0
 40
1.0
 40
1.0
 40
2.0
 40
2.0
 40
2.0
 40
3.0
 40
3.0
 40
3.0
 40
4.0
 40
4.0
 40
4.0
 40
5.0
 40
5.0
 40
5.0
 40
6.0
 40
6.0
 40
6.0
 40
7.0
 40
7.0
 40
7.0
 40
8.0
 40
8.0
 40
8.0
 40
9.0
 40
9.0
 40
9.0
 40
10.0
 40
10.0
 40
10.0
 40
11.0
 40
11.0
 40
11.0
 40
12.0
 40
12.0
 40
12.0
 40
13.0
 40
13.0
 40
13.0
 40
14.0
 40
14.0
 40
14.0
 40
15.0
 40
15.0
 40
15.0
 40
16.0
 40
16.0
 40
16.0
 40
17.0
 40
17.0
 40
17.0
 40
18.0
 40
18.0
 40
18.0
 40
19.0
 40
19.0
 40
19.0
 40
20.0
 40
20.0
 40
20.0
 40
21.0
 40
21.0
 40
21.0
 40
22.0
 40
22.0
 40
22.0
 40
23.0
 40
23.0
 40
23.0
 40
24.0
 40
24.0
 40
24.0
 40
25.0
 40
25.0
 40
25.0
 40
26.0
 40
26.0
 40
26.0
 40
27.0
 40
27.0
 40
27.0
 40
28.0
 40
28.0
 40
28.0
 40
29.0
 40
29.0
 40
29.0
 40
30.0
 40
30.0
 40
30.0
 40
31.0
 40
31.0
 40
31.0
 40
32.0
 40
32.0
 40
32.0
 40
33.0
 40
33.0
 40
33.0
 40
34.0
 40
34.0
 40
34.0
 40
35.0
 40
35.0
 40
35.0
 40
36.0
 40
36.0
 40
36.0
 40
37.0
 40
37.0
 40
37.0
 40
38.0
 40
38.0
 40
38.0
 40
39.0
 40
39.0
 40
39.0
 40
40.0
 40
40.0
 40
40.0
 40
41.0
 40
41.0
 40
41.0
 40
42.0
 40
42.0
 40
42.0
 40
43.0
 40
43.0
 40
43.0
 40
44.0
 40
44.0
 40
44.0
 40
45.0
 40
45.0
 40
45.0
 40
46.0
 40
46.0
 40
46.0
 40
47.0
 40
47.0
 40
47.0
 40
48.0
 40
48.0
 40
48.0
 40
49.0
 40
49.0
 40
49.0
 40
50.0
 40
50.0
 40
50.0
 40
51.0
 40
51.0
 40
51.0
 40
52.0
 40
52.0
 40
52.0
 40
53.0
 40
53.0
 40
53.0
 40
54.0
 40
54.0
 40
54.0
 40
55.0
 40
55.0
 40
55.0
 40
56.0
 40
56.0
 40
56.0
 40
57.0
 40
57.0
 40
57.0
 40
58.0
 40
58.0
 40
58.0
 40
59.0
 40
59.0
 40
59.0
 40
60.0
 40
60.0
 40
60.0
 40
61.0
 40
61.0
 40
61.0
 40
62.0
 40
62.0
 40
62.0
 40
63.0
 40
63.0
 40
63.0
 40
64.0
 40
64.0
 40
64.0
 40
65.0
 40
65.0
 40
65.0
 40
66.0
 40
66.0
 40
66.0
 40
67.0
 40
67.0
 40
67.0
 40
68.0
 40
68.0
 40
68.0
 40
69.0
 40
69.0
 40
69.0
 40
70.0
 40
70.0
 40
70.0
 40
71.0
 40
71.0
 40
71.0
 40
72.0
 40
72.0
 40
72.0
 40
73.0
 40
73.0
 40
73.0
 40
74.0
 40
74.0
 40
74.0
 40
75.0
 40
75.0
 40
75.0
 40
76.0
 40
76.0
 40
76.0
 40
76.0
 10
35.51537996670701
 20
-9.141975153494766
 30
0.0
 10
35.71265302403258
 20
-8.968102442025042
 30
0.0
 10
35.75549057098522
 20
-8.738348602564075
 30
0.0
 10
36.01419129811286
 20
-8.595640148915145
 30
0.0
 10
36.23689338998035
 20
-8.4727898132873
 30
0.0
 10
36.64790161955246
 20
-8.416863881092757
 30
0.0
 10
36.90281467328411
 20
-8.33217902882585
 30
0.0
 10
37.50083127843704
 20
-8.133511494468014
 30
0.0
 10
38.02531588579424
 20
-8.184268002854411
 30
0.0
 10
38.64582700497926
 20
-8.22462182065721
 30
0.0
 10
39.29541379843896
 20
-8.266866522323147
 30
0.0
 10
39.84065333733371
 20
-8.16159345866529
 30
0.0
 10
40.4744203091219
 20
-8.057970814010876
 30
0.0
 10
41.09414476119733
 20
-7.956644159988754
 30
0.0
 10
41.6336854517073
 20
-8.279129385675724
 30
0.0
 10
42.25699087994912
 20
-8.269096424321775
 30
0.0
 10
43.59267665625718
 20
-8.247596717809465
 30
0.0
 10
44.91297124011928
 20
-8.450411710290444
 30
0.0
 10
46.23675473315496
 20
-8.43977480069605
 30
0.0
 10
46.87954015561773
 20
-8.434609869675757
 30
0.0
 10
47.3818917168048
 20
-8.509075891123517
 30
0.0
 10
47.98566325185261
 20
-8.705529446194191
 30
0.0
 10
48.65043844485272
 20
-8.921832207100868
 30
0.0
 10
49.35038140671799
 20
-8.80109313966817
 30
0.0
 10
50.02731491813857
 20
-8.97418854732075
 30
0.0
 10
50.62511291045621
 20
-9.127048592551697
 30
0.0
 10
51.24145883336132
 20
-9.351890695498291
 30
0.0
 10
51.75912686247551
 20
-9.693854648629035
 30
0.0
 10
52.31445342350758
 20
-10.06069527893422
 30
0.0
 10
52.57724815369076
 20
-10.68197708206682
 30
0.0
 10
53.08335280561646
 20
-11.10193739841038
 30
0.0
 10
53.61375494463078
 20
-11.54205951394953
 30
0.0
 10
54.3259666351162
 20
-11.82572555841989
 30
0.0
 10
54.96089103950928
 20
-12.06940054037326
 30
0.0
 10
55.57001172937817
 20
-12.3031724226386
 30
0.0
 10
55.97457491414621
 20
-12.62016528597577
 30
0.0
 10
56.49708623970925
 20
-12.99098218012058
 30
0.0
 10
57.07908336196053
 20
-13.40401507475094
 30
0.0
 10
57.53747530062497
 20
-13.53824460272557
 30
0.0
 10
57.61465622206868
 20
-14.31133634265896
 30
0.0
 10
57.67761607783243
 20
-14.94198111247755
 30
0.0
 10
57.41031058445969
 20
-15.57902088561968
 30
0.0
 10
57.22624464957067
 20
-16.17716239324591
 30
0.0
 10
56.81259865002079
 20
-17.52134833370004
 30
0.0
 10
57.66610419189217
 20
-18.53092340972989
 30
0.0
 10
57.75289085483261
 20
-19.84951366975474
 30
0.0
 10
57.83067565046106
 20
-21.0313343599214
 30
0.0
 10
58.02166105014733
 20
-22.18793381594961
 30
0.0
 10
58.07297108128356
 20
-23.37052448086779
 30
0.0
 10
58.09970362209135
 20
-23.98665455346309
 30
0.0
 10
58.37280628369869
 20
-24.67253865383933
 30
0.0
 10
58.1747046818919
 20
-25.25944284054071
 30
0.0
 10
57.99390699281452
 20
-25.79508172330432
 30
0.0
 10
57.59172900446108
 20
-26.38666593641321
 30
0.0
 10
57.32540613397481
 20
-26.90420094965265
 30
0.0
 10
57.08521048703798
 20
-27.37096393208266
 30
0.0
 10
56.61365624037256
 20
-27.95409582757141
 30
0.0
 10
56.22472908256941
 20
-28.2975825849449
 30
0.0
 10
55.76176503882829
 20
-28.70645611042295
 30
0.0
 10
55.17231048652259
 20
-28.83293601411239
 30
0.0
 10
54.71386625013383
 20
-29.18245347891795
 30
0.0
 10
54.23709086353715
 20
-29.54594659580754
 30
0.0
 10
54.02740743289258
 20
-30.05884477505863
 30
0.0
 10
53.37843969411607
 20
-30.12888955587684
 30
0.0
 10
53.01188958431177
 20
-30.16845226533974
 30
0.0
 10
52.83335363715049
 20
-30.11209742663335
 30
0.0
 10
52.47496523450496
 20
-30.27260023426293
 30
0.0
 10
52.112345018784
 20
-30.43499824239279
 30
0.0
 10
51.91387798176007
 20
-30.54886840428127
 30
0.0
 10
51.50984162377052
 20
-30.56604970649045
 30
0.0
 10
50.85012461035967
 20
-30.59410361093725
 30
0.0
 10
50.24839167869009
 20
-30.63730531085821
 30
0.0
 10
49.59998851142397
 20
-30.79344057277086
 30
0.0
 10
48.97117046850341
 20
-30.94485974340947
 30
0.0
 10
48.48039094983081
 20
-31.28784613926849
 30
0.0
 10
47.87742306023261
 20
-31.50790722717016
 30
0.0
 10
46.6880587885619
 20
-31.94198141262892
 30
0.0
 10
45.44789158043911
 20
-31.84700734114252
 30
0.0
 10
44.26339329333592
 20
-32.26057731697544
 30
0.0
 10
43.02009318730052
 20
-32.69467806697614
 30
0.0
 10
41.89416088665828
 20
-31.95577844484642
 30
0.0
 10
40.61965932789118
 20
-31.91382266084184
 30
0.0
 10
39.2666459298166
 20
-31.86928231681933
 30
0.0
 10
38.30932954743881
 20
-31.31733075490183
 30
0.0
 10
37.12974784931703
 20
-30.72103214891058
 30
0.0
 10
36.01046253650884
 20
-30.15521439097433
 30
0.0
 10
34.85440232533205
 20
-29.32925987855959
 30
0.0
 10
33.95971152550192
 20
-28.44819180588267
 30
0.0
 10
33.0180254246208
 20
-27.52084399127726
 30
0.0
 10
31.89051598579605
 20
-26.91001811216822
 30
0.0
 10
30.87885293465479
 20
-26.08598576003156
 30
0.0
 10
30.37306755550455
 20
-25.67400717171864
 30
0.0
 10
29.88513076306147
 20
-25.19127178757448
 30
0.0
 10
29.22453813139433
 20
-25.04662803861793
 30
0.0
 10
28.65010613095198
 20
-24.92085007186266
 30
0.0
 10
28.13967606619073
 20
-25.15154790159557
 30
0.0
 10
27.62861790581216
 20
-25.4136215342335
 30
0.0
 10
27.02324728095257
 20
-25.72405915376321
 30
0.0
 10
26.57994597157944
 20
-26.12497552384156
 30
0.0
 10
26.02076221459548
 20
-26.49738332833113
 30
0.0
 10
25.38941248581255
 20
-26.91785256304087
 30
0.0
 10
24.88994548035761
 20
-27.17443894598725
 30
0.0
 10
24.38749387094923
 20
-27.76997920305141
 30
0.0
 10
24.15810618466346
 20
-28.04186528939266
 30
0.0
 10
24.03070735412762
 20
-28.27122339097696
 30
0.0
 10
23.66879351598406
 20
-28.41342185544184
 30
0.0
 10
23.41606592570108
 20
-28.5127202836271
 30
0.0
 10
23.13904431006868
 20
-28.48789442711515
 30
0.0
 10
22.87775893281837
 20
-28.57542939400335
 30
0.0
 10
22.70272986458874
 20
-28.63406705621461
 30
0.0
 10
22.60417026091651
 20
-28.76340166560334
 30
0.0
 10
22.43333937211037
 20
-28.80829589245488
 30
0.0
 10
22.25745647571057
 20
-28.85451778303614
 30
0.0
 10
22.06128476190189
 20
-28.81115731792114
 30
0.0
 10
21.87225070717922
 20
-28.86189537829392
 30
0.0
 10
21.49421753464488
 20
-28.9633621217285
 30
0.0
 10
21.38150997702349
 20
-29.1670699591535
 30
0.0
 10
21.04985135593814
 20
-29.35841521395933
 30
0.0
 10
20.50583239445167
 20
-29.67227844617143
 30
0.0
 10
19.91487995735952
 20
-29.9294334587903
 30
0.0
 10
19.34366837407229
 20
-30.18784026272503
 30
0.0
 10
18.74822127279448
 20
-30.45721081972225
 30
0.0
 10
18.27090795801582
 20
-30.93878015094128
 30
0.0
 10
17.68109079033434
 20
-31.22416971873142
 30
0.0
 10
17.1154931358978
 20
-31.49784040684891
 30
0.0
 10
16.42484547497684
 20
-31.56200804444489
 30
0.0
 10
15.82573427730525
 20
-31.79398291372475
 30
0.0
 10
15.21335704369656
 20
-32.0310943702764
 30
0.0
 10
14.78119036193225
 20
-32.22439981192363
 30
0.0
 10
14.11400370400234
 20
-32.11936921985393
 30
0.0
 10
12.96503006785628
 20
-31.93849422806198
 30
0.0
 10
12.00292637204288
 20
-30.93750131536697
 30
0.0
 10
11.00948468482058
 20
-30.37702389736753
 30
0.0
 10
10.00419797051941
 20
-29.80986378195474
 30
0.0
 10
8.895410958723144
 20
-29.24304250486517
 30
0.0
 10
7.787901884857837
 20
-28.92473293791252
 30
0.0
 10
7.127305988831381
 20
-28.73487084237154
 30
0.0
 10
6.643422003522182
 20
-28.47011132334225
 30
0.0
 10
6.225549406992728
 20
-27.89945701898932
 30
0.0
 10
5.815579100597877
 20
-27.33959422362017
 30
0.0
 10
5.862130307594535
 20
-26.65727966814878
 30
0.0
 10
5.587654026554396
 20
-26.04520464562615
 30
0.0
 10
5.330131304216757
 20
-25.47093562144128
 30
0.0
 10
4.755729571101483
 20
-25.10500380632586
 30
0.0
 10
4.518125790254127
 20
-24.5478167072121
 30
0.0
 10
4.274605799749123
 20
-23.97675594125182
 30
0.0
 10
4.173414634736483
 20
-23.19577989097224
 30
0.0
 10
4.013865813750789
 20
-22.58617152882905
 30
0.0
 10
3.720309803027451
 20
-21.46454494588794
 30
0.0
 10
3.476576894539953
 20
-20.14371977395336
 30
0.0
 10
3.452918464489117
 20
-18.99122774970432
 30
0.0
 10
3.440264917819541
 20
-18.37482541092155
 30
0.0
 10
3.300724620313013
 20
-17.67299195952655
 30
0.0
 10
3.392414807527315
 20
-17.06564673612474
 30
0.0
 10
3.487283223317036
 20
-16.43724929325652
 30
0.0
 10
3.683271926662036
 20
-15.85217725175415
 30
0.0
 10
3.724285904525093
 20
-15.2032330657092
 30
0.0
 10
3.762347132669952
 20
-14.60100879961146
 30
0.0
 10
3.634289931783011
 20
-14.0142647930662
 30
0.0
 10
3.74863380789231
 20
-13.41678785770894
 30
0.0
 10
3.866828799547041
 20
-12.79918782707086
 30
0.0
 10
4.197801270471763
 20
-12.25079865345909
 30
0.0
 10
4.434603155377595
 20
-11.67452853302868
 30
0.0
 10
4.941088879274679
 20
-10.44196828874399
 30
0.0
 10
5.362858278341061
 20
-9.318450029127385
 30
0.0
 10
6.4575699471294
 20
-8.45910130418584
 30
0.0
 10
6.646458116838566
 20
-8.310824079758554
 30
0.0
 10
6.91506287933843
 20
-8.235091093289572
 30
0.0
 10
7.088908990884583
 20
-8.081268363927633
 30
0.0
 10
7.341949142655797
 20
-7.857373066889231
 30
0.0
 10
7.465477413588852
 20
-7.423330809859559
 30
0.0
 10
7.624158453515583
 20
-7.131633153542907
 30
0.0
 10
7.929668688110546
 20
-6.570024662363026
 30
0.0
 10
8.26324824711009
 20
-6.007315451787311
 30
0.0
 10
8.702033569983579
 20
-5.537046138269071
 30
0.0
 10
9.168065462594882
 20
-5.037575242613962
 30
0.0
 10
9.817956010088032
 20
-5.108236749669345
 30
0.0
 10
10.36521949047575
 20
-4.759544087951667
 30
0.0
 10
10.92862387388783
 20
-4.400567139706961
 30
0.0
 10
11.38998008747985
 20
-4.20338659430446
 30
0.0
 10
12.02786627087506
 20
-3.997502774354037
 30
0.0
 10
12.62128090354751
 20
-3.805972569484563
 30
0.0
 10
13.31036089922797
 20
-3.873742883191337
 30
0.0
 10
13.84290240424904
 20
-3.597740788167546
 30
0.0
 10
14.45046174707694
 20
-3.282858943483663
 30
0.0
 10
14.87106022409186
 20
-3.213673346131536
 30
0.0
 10
15.56402323888314
 20
-3.096980467581299
 30
0.0
 10
17.89367259854478
 20
-2.704674552274216
 30
0.0
 10
20.42430397381759
 20
-3.479503578118611
 30
0.0
 10
22.72788385049555
 20
-3.91495361923344
 30
0.0
 10
23.31359276090648
 20
-4.025671277302055
 30
0.0
 10
23.9380177141037
 20
-4.074144410149643
 30
0.0
 10
24.51436153319183
 20
-4.21830635150646
 30
0.0
 10
25.2097183887041
 20
-4.392237242940344
 30
0.0
 10
25.54903492707091
 20
-4.809935973454091
 30
0.0
 10
26.10209915020237
 20
-5.188254230565108
 30
0.0
 10
26.62680333402497
 20
-5.547173075828115
 30
0.0
 10
27.35127626188786
 20
-5.585281533572962
 30
0.0
 10
27.94694806938913
 20
-5.79875314554407
 30
0.0
 10
28.61582799874835
 20
-6.038460438951802
 30
0.0
 10
28.95284134698123
 20
-6.361385827988366
 30
0.0
 10
29.28466706080876
 20
-6.997680360195558
 30
0.0
 10
29.33882105323629
 20
-7.101523696751238
 30
0.0
 10
29.67351703982811
 20
-7.590101145921367
 30
0.0
 10
29.63151914103042
 20
-7.69010659060738
 30
0.0
 10
29.52169666883007
 20
-7.951615987108665
 30
0.0
 10
28.74047218513968
 20
-7.787682799653831
 30
0.0
 10
28.58479473778354
 20
-8.034268345227702
 30
0.0
 10
28.47861229404003
 20
-8.20245619944511
 30
0.0
 10
28.6357477986601
 20
-8.409006124991278
 30
0.0
 10
28.81985673617257
 20
-8.585854102225742
 30
0.0
 10
29.17840980447206
 20
-8.930266414396618
 30
0.0
 10
29.23382328011975
 20
-8.838614687167642
 30
0.0
 10
29.20989458055909
 20
-9.372742119622014
 30
0.0
 10
29.17915475608839
 20
-10.05890492078202
 30
0.0
 10
29.36477263307385
 20
-10.61914400432842
 30
0.0
 10
30.14990459548345
 20
-10.70254768725524
 30
0.0
 10
30.43449969346764
 20
-10.73277990355933
 30
0.0
 10
30.73446783723878
 20
-10.64077177433971
 30
0.0
 10
30.99390976794358
 20
-10.54893019690376
 30
0.0
 10
31.34090713993798
 20
-10.42609428551694
 30
0.0
 10
31.66597779640698
 20
-10.41020733584002
 30
0.0
 10
32.02370064686627
 20
-10.31670668991673
 30
0.0
 10
32.6133264674642
 20
-10.16259186328999
 30
0.0
 10
33.12916640827941
 20
-9.920753917211135
 30
0.0
 10
33.75532856792557
 20
-9.81866967704501
 30
0.0
 10
34.46310860790472
 20
-9.703279140467606
 30
0.0
 10
34.87692122789773
 20
-9.459850305229994
 30
0.0
 10
35.51537996670701
 20
-9.141974138660517
 30
0.0
  0
ENDSEC
  0
SECTION
  2
OBJECTS
  0
DICTIONARY
  5
C
330
0
100
AcDbDictionary
281
     1
  3
ACAD_GROUP
350
D
  3
ACAD_LAYOUT
350
1A
  3
ACAD_MATERIAL
350
3B
  3
ACAD_MLEADERSTYLE
350
49
  3
ACAD_MLINESTYLE
350
17
  3
ACAD_PLOTSETTINGS
350
19
  3
ACAD_PLOTSTYLENAME
350
E
  3
ACAD_TABLESTYLE
350
48
  3
ACAD_VISUALSTYLE
350
2A
  0
SUN
  5
3F
330
29
100
AcDbSun
 90
        1
290
     0
 63
     7
421
 16777215
 40
1.0
291
     1
 91
  2455826
 92
 54000000
292
     0
 70
     2
 71
   256
280
     1
  0
DICTIONARY
  5
D
102
{ACAD_REACTORS
330
C
102
}
330
C
100
AcDbDictionary
281
     1
  0
DICTIONARY
  5
1A
102
{ACAD_REACTORS
330
C
102
}
330
C
100
AcDbDictionary
281
     1
  3
Layout1
350
1E
  3
Layout2
350
26
  3
Model
350
22
  0
DICTIONARY
  5
3B
102
{ACAD_REACTORS
330
C
102
}
330
C
100
AcDbDictionary
281
     1
  3
ByBlock
350
3D
  3
ByLayer
350
3C
  3
Global
350
3E
  0
DICTIONARY
  5
49
102
{ACAD_REACTORS
330
C
102
}
330
C
100
AcDbDictionary
281
     1
  0
DICTIONARY
  5
17
102
{ACAD_REACTORS
330
C
102
}
330
C
100
AcDbDictionary
281
     1
  3
Standard
350
18
  0
DICTIONARY
  5
19
102
{ACAD_REACTORS
330
C
102
}
330
C
100
AcDbDictionary
281
     1
  0
ACDBDICTIONARYWDFLT
  5
E
102
{ACAD_REACTORS
330
C
102
}
330
C
100
AcDbDictionary
281
     1
  3
Normal
350
F
100
AcDbDictionaryWithDefault
340
F
  0
DICTIONARY
  5
48
102
{ACAD_REACTORS
330
C
102
}
330
C
100
AcDbDictionary
281
     1
  0
DICTIONARY
  5
2A
102
{ACAD_REACTORS
330
C
102
}
330
C
100
AcDbDictionary
281
     1
  3
2dWireframe
350
2F
  3
3D Hidden
350
31
  3
3dWireframe
350
30
  3
Basic
350
32
  3
Brighten
350
36
  3
ColorChange
350
3A
  3
Conceptual
350
34
  3
Dim
350
35
  3
Facepattern
350
39
  3
Flat
350
2B
  3
FlatWithEdges
350
2C
  3
Gouraud
350
2D
  3
GouraudWithEdges
350
2E
  3
Linepattern
350
38
  3
Realistic
350
33
  3
Thicken
350
37
  0
LAYOUT
  5
1E
102
{ACAD_REACTORS
330
1A
102
}
330
1A
100
AcDbPlotSettings
  1

  2
none_device
  4

  6

 40
0.0
 41
0.0
 42
0.0
 43
0.0
 44
0.0
 45
0.0
 46
0.0
 47
0.0
 48
0.0
 49
0.0
140
0.0
141
0.0
142
1.0
143
1.0
 70
   688
 72
     0
 73
     0
 74
     5
  7

 75
    16
 76
     0
 77
     2
 78
   300
147
1.0
148
0.0
149
0.0
100
AcDbLayout
  1
Layout1
 70
     1
 71
     1
 10
0.0
 20
0.0
 11
12.0
 21
9.0
 12
0.0
 22
0.0
 32
0.0
 14
1.000000000000000E+20
 24
1.000000000000000E+20
 34
1.000000000000000E+20
 15
-1.000000000000000E+20
 25
-1.000000000000000E+20
 35
-1.000000000000000E+20
146
0.0
 13
0.0
 23
0.0
 33
0.0
 16
1.0
 26
0.0
 36
0.0
 17
0.0
 27
1.0
 37
0.0
 76
     0
330
1B
  0
LAYOUT
  5
26
102
{ACAD_REACTORS
330
1A
102
}
330
1A
100
AcDbPlotSettings
  1

  2
none_device
  4

  6

 40
0.0
 41
0.0
 42
0.0
 43
0.0
 44
0.0
 45
0.0
 46
0.0
 47
0.0
 48
0.0
 49
0.0
140
0.0
141
0.0
142
1.0
143
1.0
 70
   688
 72
     0
 73
     0
 74
     5
  7

 75
    16
 76
     0
 77
     2
 78
   300
147
1.0
148
0.0
149
0.0
100
AcDbLayout
  1
Layout2
 70
     1
 71
     2
 10
0.0
 20
0.0
 11
0.0
 21
0.0
 12
0.0
 22
0.0
 32
0.0
 14
0.0
 24
0.0
 34
0.0
 15
0.0
 25
0.0
 35
0.0
146
0.0
 13
0.0
 23
0.0
 33
0.0
 16
1.0
 26
0.0
 36
0.0
 17
0.0
 27
1.0
 37
0.0
 76
     0
330
23
  0
LAYOUT
  5
22
102
{ACAD_REACTORS
330
1A
102
}
330
1A
100
AcDbPlotSettings
  1

  2
none_device
  4

  6

 40
0.0
 41
0.0
 42
0.0
 43
0.0
 44
0.0
 45
0.0
 46
0.0
 47
0.0
 48
0.0
 49
0.0
140
0.0
141
0.0
142
1.0
143
1.0
 70
  1712
 72
     0
 73
     0
 74
     0
  7

 75
     0
 76
     0
 77
     2
 78
   300
147
1.0
148
0.0
149
0.0
100
AcDbLayout
  1
Model
 70
     1
 71
     0
 10
0.0
 20
0.0
 11
12.0
 21
9.0
 12
0.0
 22
0.0
 32
0.0
 14
1.000000000000000E+20
 24
1.000000000000000E+20
 34
1.000000000000000E+20
 15
-1.000000000000000E+20
 25
-1.000000000000000E+20
 35
-1.000000000000000E+20
146
0.0
 13
0.0
 23
0.0
 33
0.0
 16
1.0
 26
0.0
 36
0.0
 17
0.0
 27
1.0
 37
0.0
 76
     0
330
1F
331
29
  0
MATERIAL
  5
3D
102
{ACAD_REACTORS
330
3B
102
}
330
3B
100
AcDbMaterial
  1
ByBlock
 72
     1
 94
      127
  0
MATERIAL
  5
3C
102
{ACAD_REACTORS
330
3B
102
}
330
3B
100
AcDbMaterial
  1
ByLayer
 72
     1
 94
      127
  0
MATERIAL
  5
3E
102
{ACAD_REACTORS
330
3B
102
}
330
3B
100
AcDbMaterial
  1
Global
 72
     1
 94
      127
  0
MLINESTYLE
  5
18
102
{ACAD_REACTORS
330
17
102
}
330
17
100
AcDbMlineStyle
  2
Standard
 70
     0
  3

 62
   256
 51
90.0
 52
90.0
 71
     2
 49
0.5
 62
   256
  6
BYLAYER
 49
-0.5
 62
   256
  6
BYLAYER
  0
ACDBPLACEHOLDER
  5
F
102
{ACAD_REACTORS
330
E
102
}
330
E
  0
VISUALSTYLE
  5
2F
102
{ACAD_REACTORS
330
2A
102
}
330
2A
100
AcDbVisualStyle
  2
2dWireframe
 70
     4
177
     2
291
     0
 71
     0
176
     1
 72
     2
176
     1
 73
     0
176
     1
 90
        0
176
     1
 40
-0.6
176
     1
 41
-30.0
176
     1
 62
     5
 63
     7
421
 16777215
176
     1
 74
     1
176
     1
 91
        4
176
     1
 64
     7
176
     1
 65
   257
176
     1
 75
     1
176
     1
175
     1
176
     1
 42
1.0
176
     1
 92
        0
176
     1
 66
   257
176
     1
 43
1.0
176
     1
 76
     1
176
     1
 77
     6
176
     1
 78
     2
176
     1
 67
     7
176
     1
 79
     5
176
     1
170
     0
176
     1
171
     0
176
     1
290
     0
176
     1
 93
        1
176
     1
 44
0.0
176
     1
173
     0
176
     1
  0
VISUALSTYLE
  5
31
102
{ACAD_REACTORS
330
2A
102
}
330
2A
100
AcDbVisualStyle
  2
3D Hidden
 70
     6
177
     2
291
     0
 71
     1
176
     1
 72
     2
176
     1
 73
     2
176
     1
 90
        0
176
     1
 40
-0.6
176
     1
 41
-30.0
176
     1
 62
     5
 63
     7
421
 16777215
176
     1
 74
     2
176
     1
 91
        2
176
     1
 64
     7
176
     1
 65
   257
176
     1
 75
     2
176
     1
175
     1
176
     1
 42
40.0
176
     1
 92
        0
176
     1
 66
   257
176
     1
 43
1.0
176
     1
 76
     1
176
     1
 77
     6
176
     1
 78
     2
176
     1
 67
     7
176
     1
 79
     3
176
     1
170
     0
176
     1
171
     0
176
     1
290
     0
176
     1
 93
        1
176
     1
 44
0.0
176
     1
173
     0
176
     1
  0
VISUALSTYLE
  5
30
102
{ACAD_REACTORS
330
2A
102
}
330
2A
100
AcDbVisualStyle
  2
3dWireframe
 70
     5
177
     2
291
     0
 71
     0
176
     1
 72
     2
176
     1
 73
     0
176
     1
 90
        0
176
     1
 40
-0.6
176
     1
 41
-30.0
176
     1
 62
     5
 63
     7
421
 16777215
176
     1
 74
     1
176
     1
 91
        4
176
     1
 64
     7
176
     1
 65
   257
176
     1
 75
     1
176
     1
175
     1
176
     1
 42
1.0
176
     1
 92
        0
176
     1
 66
   257
176
     1
 43
1.0
176
     1
 76
     1
176
     1
 77
     6
176
     1
 78
     2
176
     1
 67
     7
176
     1
 79
     5
176
     1
170
     0
176
     1
171
     0
176
     1
290
     0
176
     1
 93
        1
176
     1
 44
0.0
176
     1
173
     0
176
     1
  0
VISUALSTYLE
  5
32
102
{ACAD_REACTORS
330
2A
102
}
330
2A
100
AcDbVisualStyle
  2
Basic
 70
     7
177
     2
291
     1
 71
     1
176
     1
 72
     0
176
     1
 73
     1
176
     1
 90
        0
176
     1
 40
-0.6
176
     1
 41
-30.0
176
     1
 62
     5
 63
     7
421
 16777215
176
     1
 74
     0
176
     1
 91
        4
176
     1
 64
     7
176
     1
 65
   257
176
     1
 75
     1
176
     1
175
     1
176
     1
 42
1.0
176
     1
 92
        8
176
     1
 66
     7
176
     1
 43
1.0
176
     1
 76
     1
176
     1
 77
     6
176
     1
 78
     2
176
     1
 67
     7
176
     1
 79
     5
176
     1
170
     0
176
     1
171
     0
176
     1
290
     0
176
     1
 93
        1
176
     1
 44
0.0
176
     1
173
     0
176
     1
  0
VISUALSTYLE
  5
36
102
{ACAD_REACTORS
330
2A
102
}
330
2A
100
AcDbVisualStyle
  2
Brighten
 70
    12
177
     2
291
     1
 71
     2
176
     1
 72
     2
176
     1
 73
     0
176
     1
 90
        0
176
     1
 40
-0.6
176
     1
 41
-30.0
176
     1
 62
     5
 63
     7
421
 16777215
176
     1
 74
     1
176
     1
 91
        4
176
     1
 64
     7
176
     1
 65
   257
176
     1
 75
     1
176
     1
175
     1
176
     1
 42
1.0
176
     1
 92
        8
176
     1
 66
     7
176
     1
 43
1.0
176
     1
 76
     1
176
     1
 77
     6
176
     1
 78
     2
176
     1
 67
     7
176
     1
 79
     5
176
     1
170
     0
176
     1
171
     0
176
     1
290
     0
176
     1
 93
        1
176
     1
 44
50.0
176
     1
173
     0
176
     1
  0
VISUALSTYLE
  5
3A
102
{ACAD_REACTORS
330
2A
102
}
330
2A
100
AcDbVisualStyle
  2
ColorChange
 70
    16
177
     2
291
     1
 71
     2
176
     1
 72
     2
176
     1
 73
     3
176
     1
 90
        0
176
     1
 40
-0.6
176
     1
 41
-30.0
176
     1
 62
     5
 63
     8
421
  8421504
176
     1
 74
     1
176
     1
 91
        4
176
     1
 64
     7
176
     1
 65
   257
176
     1
 75
     1
176
     1
175
     1
176
     1
 42
1.0
176
     1
 92
        8
176
     1
 66
     8
424
  8421504
176
     1
 43
1.0
176
     1
 76
     1
176
     1
 77
     6
176
     1
 78
     2
176
     1
 67
     7
176
     1
 79
     5
176
     1
170
     0
176
     1
171
     0
176
     1
290
     0
176
     1
 93
        1
176
     1
 44
0.0
176
     1
173
     0
176
     1
  0
VISUALSTYLE
  5
34
102
{ACAD_REACTORS
330
2A
102
}
330
2A
100
AcDbVisualStyle
  2
Conceptual
 70
     9
177
     2
291
     0
 71
     3
176
     1
 72
     2
176
     1
 73
     0
176
     1
 90
        0
176
     1
 40
-0.6
176
     1
 41
-30.0
176
     1
 62
     5
 63
     7
421
 16777215
176
     1
 74
     2
176
     1
 91
        2
176
     1
 64
     7
176
     1
 65
   257
176
     1
 75
     1
176
     1
175
     1
176
     1
 42
40.0
176
     1
 92
        8
176
     1
 66
     7
176
     1
 43
1.0
176
     1
 76
     1
176
     1
 77
     6
176
     1
 78
     2
176
     1
 67
     7
176
     1
 79
     3
176
     1
170
     0
176
     1
171
     0
176
     1
290
     0
176
     1
 93
        1
176
     1
 44
0.0
176
     1
173
     0
176
     1
  0
VISUALSTYLE
  5
35
102
{ACAD_REACTORS
330
2A
102
}
330
2A
100
AcDbVisualStyle
  2
Dim
 70
    11
177
     2
291
     1
 71
     2
176
     1
 72
     2
176
     1
 73
     0
176
     1
 90
        0
176
     1
 40
-0.6
176
     1
 41
-30.0
176
     1
 62
     5
 63
     7
421
 16777215
176
     1
 74
     1
176
     1
 91
        4
176
     1
 64
     7
176
     1
 65
   257
176
     1
 75
     1
176
     1
175
     1
176
     1
 42
1.0
176
     1
 92
        8
176
     1
 66
     7
176
     1
 43
1.0
176
     1
 76
     1
176
     1
 77
     6
176
     1
 78
     2
176
     1
 67
     7
176
     1
 79
     5
176
     1
170
     0
176
     1
171
     0
176
     1
290
     0
176
     1
 93
        1
176
     1
 44
-50.0
176
     1
173
     0
176
     1
  0
VISUALSTYLE
  5
39
102
{ACAD_REACTORS
330
2A
102
}
330
2A
100
AcDbVisualStyle
  2
Facepattern
 70
    15
177
     2
291
     1
 71
     2
176
     1
 72
     2
176
     1
 73
     0
176
     1
 90
        0
176
     1
 40
-0.6
176
     1
 41
-30.0
176
     1
 62
     5
 63
     7
421
 16777215
176
     1
 74
     1
176
     1
 91
        4
176
     1
 64
     7
176
     1
 65
   257
176
     1
 75
     1
176
     1
175
     1
176
     1
 42
1.0
176
     1
 92
        8
176
     1
 66
     7
176
     1
 43
1.0
176
     1
 76
     1
176
     1
 77
     6
176
     1
 78
     2
176
     1
 67
     7
176
     1
 79
     5
176
     1
170
     0
176
     1
171
     0
176
     1
290
     0
176
     1
 93
        1
176
     1
 44
0.0
176
     1
173
     0
176
     1
  0
VISUALSTYLE
  5
2B
102
{ACAD_REACTORS
330
2A
102
}
330
2A
100
AcDbVisualStyle
  2
Flat
 70
     0
177
     2
291
     1
 71
     2
176
     1
 72
     1
176
     1
 73
     1
176
     1
 90
        2
176
     1
 40
-0.6
176
     1
 41
30.0
176
     1
 62
     5
 63
     7
421
 16777215
176
     1
 74
     0
176
     1
 91
        4
176
     1
 64
     7
176
     1
 65
   257
176
     1
 75
     1
176
     1
175
     1
176
     1
 42
1.0
176
     1
 92
        8
176
     1
 66
     7
176
     1
 43
1.0
176
     1
 76
     1
176
     1
 77
     6
176
     1
 78
     2
176
     1
 67
     7
176
     1
 79
     5
176
     1
170
     0
176
     1
171
     0
176
     1
290
     0
176
     1
 93
       13
176
     1
 44
0.0
176
     1
173
     0
176
     1
  0
VISUALSTYLE
  5
2C
102
{ACAD_REACTORS
330
2A
102
}
330
2A
100
AcDbVisualStyle
  2
FlatWithEdges
 70
     1
177
     2
291
     1
 71
     2
176
     1
 72
     1
176
     1
 73
     1
176
     1
 90
        2
176
     1
 40
-0.6
176
     1
 41
30.0
176
     1
 62
     5
 63
     7
421
 16777215
176
     1
 74
     1
176
     1
 91
        4
176
     1
 64
     7
176
     1
 65
   257
176
     1
 75
     1
176
     1
175
     1
176
     1
 42
1.0
176
     1
 92
        0
176
     1
 66
   257
176
     1
 43
1.0
176
     1
 76
     1
176
     1
 77
     6
176
     1
 78
     2
176
     1
 67
     7
176
     1
 79
     5
176
     1
170
     0
176
     1
171
     0
176
     1
290
     0
176
     1
 93
       13
176
     1
 44
0.0
176
     1
173
     0
176
     1
  0
VISUALSTYLE
  5
2D
102
{ACAD_REACTORS
330
2A
102
}
330
2A
100
AcDbVisualStyle
  2
Gouraud
 70
     2
177
     2
291
     1
 71
     2
176
     1
 72
     2
176
     1
 73
     1
176
     1
 90
        2
176
     1
 40
-0.6
176
     1
 41
30.0
176
     1
 62
     5
 63
     7
421
 16777215
176
     1
 74
     0
176
     1
 91
        4
176
     1
 64
     7
176
     1
 65
   257
176
     1
 75
     1
176
     1
175
     1
176
     1
 42
1.0
176
     1
 92
        0
176
     1
 66
     7
176
     1
 43
1.0
176
     1
 76
     1
176
     1
 77
     6
176
     1
 78
     2
176
     1
 67
     7
176
     1
 79
     5
176
     1
170
     0
176
     1
171
     0
176
     1
290
     0
176
     1
 93
       13
176
     1
 44
0.0
176
     1
173
     0
176
     1
  0
VISUALSTYLE
  5
2E
102
{ACAD_REACTORS
330
2A
102
}
330
2A
100
AcDbVisualStyle
  2
GouraudWithEdges
 70
     3
177
     2
291
     1
 71
     2
176
     1
 72
     2
176
     1
 73
     1
176
     1
 90
        2
176
     1
 40
-0.6
176
     1
 41
30.0
176
     1
 62
     5
 63
     7
421
 16777215
176
     1
 74
     1
176
     1
 91
        4
176
     1
 64
     7
176
     1
 65
   257
176
     1
 75
     1
176
     1
175
     1
176
     1
 42
1.0
176
     1
 92
        0
176
     1
 66
   257
176
     1
 43
1.0
176
     1
 76
     1
176
     1
 77
     6
176
     1
 78
     2
176
     1
 67
     7
176
     1
 79
     5
176
     1
170
     0
176
     1
171
     0
176
     1
290
     0
176
     1
 93
       13
176
     1
 44
0.0
176
     1
173
     0
176
     1
  0
VISUALSTYLE
  5
38
102
{ACAD_REACTORS
330
2A
102
}
330
2A
100
AcDbVisualStyle
  2
Linepattern
 70
    14
177
     2
291
     1
 71
     2
176
     1
 72
     2
176
     1
 73
     0
176
     1
 90
        0
176
     1
 40
-0.6
176
     1
 41
-30.0
176
     1
 62
     5
 63
     7
421
 16777215
176
     1
 74
     1
176
     1
 91
        4
176
     1
 64
     7
176
     1
 65
   257
176
     1
 75
     7
176
     1
175
     7
176
     1
 42
1.0
176
     1
 92
        8
176
     1
 66
     7
176
     1
 43
1.0
176
     1
 76
     1
176
     1
 77
     6
176
     1
 78
     2
176
     1
 67
     7
176
     1
 79
     5
176
     1
170
     0
176
     1
171
     0
176
     1
290
     0
176
     1
 93
        1
176
     1
 44
0.0
176
     1
173
     0
176
     1
  0
VISUALSTYLE
  5
33
102
{ACAD_REACTORS
330
2A
102
}
330
2A
100
AcDbVisualStyle
  2
Realistic
 70
     8
177
     2
291
     0
 71
     2
176
     1
 72
     2
176
     1
 73
     0
176
     1
 90
        0
176
     1
 40
-0.6
176
     1
 41
-30.0
176
     1
 62
     5
 63
     7
421
 16777215
176
     1
 74
     1
176
     1
 91
        0
176
     1
 64
     7
176
     1
 65
   257
176
     1
 75
     1
176
     1
175
     1
176
     1
 42
1.0
176
     1
 92
        8
176
     1
 66
     8
424
  7895160
176
     1
 43
1.0
176
     1
 76
     1
176
     1
 77
     6
176
     1
 78
     2
176
     1
 67
     7
176
     1
 79
     5
176
     1
170
     0
176
     1
171
     0
176
     1
290
     0
176
     1
 93
       13
176
     1
 44
0.0
176
     1
173
     0
176
     1
  0
VISUALSTYLE
  5
37
102
{ACAD_REACTORS
330
2A
102
}
330
2A
100
AcDbVisualStyle
  2
Thicken
 70
    13
177
     2
291
     1
 71
     2
176
     1
 72
     2
176
     1
 73
     0
176
     1
 90
        0
176
     1
 40
-0.6
176
     1
 41
-30.0
176
     1
 62
     5
 63
     7
421
 16777215
176
     1
 74
     1
176
     1
 91
        4
176
     1
 64
     7
176
     1
 65
   257
176
     1
 75
     1
176
     1
175
     1
176
     1
 42
1.0
176
     1
 92
       12
176
     1
 66
     7
176
     1
 43
1.0
176
     1
 76
     1
176
     1
 77
     6
176
     1
 78
     2
176
     1
 67
     7
176
     1
 79
     5
176
     1
170
     0
176
     1
171
     0
176
     1
290
     0
176
     1
 93
        1
176
     1
 44
0.0
176
     1
173
     0
176
     1
  0
ENDSEC
  0
EOF
