<?xml version="1.0" encoding="utf-8"?>
<!-- Generator: Adobe Illustrator 21.1.0, SVG Export Plug-In . SVG Version: 6.00 Build 0)  -->
<svg version="1.1" id="Layer_1" xmlns="http://www.w3.org/2000/svg" xmlns:xlink="http://www.w3.org/1999/xlink" x="0px" y="0px"
	 viewBox="0 0 4533.7 2709.1" style="enable-background:new 0 0 4533.7 2709.1;" xml:space="preserve">
<style type="text/css">
	.st0{fill:none;stroke:#000000;stroke-width:2;stroke-miterlimit:10;}
</style>
<path class="st0" d="M1156.4,583.8c235.2-60.2,463.7,89.8,489,335.5c11.5,111.5-6,234.7-36.2,342.4
	c-31.4,112.1-63.6,232.8-120.8,334.9c-117.9,210.3-369.6,334.4-599.6,218.5c-216.9-109.3-286.9-406.9-196.6-621.2
	c44.3-105.1,104.7-204.6,162.5-302.9c62.4-106.3,118.1-204.8,226.3-271.2C1105.3,604.9,1128.9,592.2,1156.4,583.8"/>
<path class="st0" d="M1020.5,1723.9c199.5,31,315.2-151.2,359-319.8c24.2-93.1,15.6-191.2,59.8-278.5c39-77.1,78.6-154.4,59.7-244
	c-39.7-187.8-271.4-255.8-403.1-113.1c-67.2,72.8-58.8,164.4-95.2,249.3c-34.3,80.2-103,141.2-140.1,221.3
	C779.8,1414,785.8,1681,1020.5,1723.9"/>
<path class="st0" d="M3360.8,1789.8c-87.2-21.5-158.1-65.9-229.1-118.8c-74.8-55.7-146.7-57.2-232.9-84.4
	c-173.5-54.7-253.5-291.3-90.4-410.8c70.8-51.8,164.7-64.1,246.8-32.3c39.8,15.4,74,40,112.3,57.9c43.8,20.5,89.8,22.7,137.2,25.4
	c160.4,9.2,345.4,59.4,409.2,225c38.8,100.5,12.8,211.7-67.5,283.7C3568.1,1806,3459.5,1811.8,3360.8,1789.8"/>
<path class="st0" d="M1300.1,2544.4c26.2,5.8,40.9,23.8,67.7,6.2c20.9-13.8,27.1-53.2,34-73.7c8.7-25.8,14.2-45.1,35.5-64.7
	c15.9-14.6,37.3-18.6,47.2-38.9c13.9-28.5,5.4-50.4,41.9-66.1c23.1-9.9,46.2-3.6,70.1-2c34.4,2.3,43.2-6.8,76-21.6
	c25.8-11.7,55.4-9.3,68.7-34.9c13-25-0.7-52.3,24.1-76c17.3-16.5,44.7-22.3,65.3-34.1c48.6-27.8,67.1-64.6,97.2-108.5
	c31.9-46.6,77-77.6,134.8-68.4c62.4,9.9,84.1,32.5,119.2,80.9c16.5,22.8,30.8,43.1,41.9,68.9c4.3,10.1,5.6,24.4,12.5,32.8
	c9.6,11.7,25.9,12.5,33.1,24.3c13.4,21.9-5,46.3,0,67.5c6.6,28.2,35.9,43.2,62.1,44.3c27.4,1.1,48.4-9.6,77.1-5.3
	c26.4,4,53.6,10.6,79.6,16.5c43.8,10,105.7,24.7,143.3,47.9c26,16,35.1,34.9,67.1,43.3c23.7,6.2,49.3,13.1,73.9,17.2
	c50.1,8.4,102.4,19,149.9,40.8c43.4,19.9,86.6,42,130.4,62.3c24.6,11.4,53,8.5,78.8,15.3c21.9,5.9,44.2,21.9,68.2,19.4
	c51.2-5.3,98.7-60,135.2-91.6c41.2-35.7,83.9-52.3,133-75.5c45.1-21.3,91.5-52.9,137.6-69.4c51-18.2,102.5,10.9,150.7,26.7
	c52.3,17.2,91.8,42.1,147.9,30.7c26.3-5.3,51.9-16.1,78.3-20.8c20.6-3.6,45.6,1.3,64.8-6.7c46.4-19.2,41.7-95.2,83.7-126.8
	c41.6-31.4,81.2-49.1,95.3-105.9c12.6-50.5,21.9-111.3,56.5-149.5c39.9-44.2,71.2-77,63.5-140.8
	c-13.1-107.6-104.4-198.4-104.4-305.7c0-49.7,24.1-96.2,29.5-145.2c2.9-26.8-1.1-46-8.1-72c-10.3-38.2-9.8-43.8,17.5-75.2
	c36.6-42.1,31.1-91.7,25.9-146.8c-5.8-61.4-37.1-95.4-61.8-148.4c-22.3-47.9-59.1-83.1-76.7-132c-20.4-56.7-15.1-112.8-90.4-105.3
	c-38.4,3.8-108.1,45.5-146.3,12.4c-32.5-28.1-3.1-36.5,18.2-43.8c31.4-10.8,42.9-12.8,39.4-43c-4.3-36.8-53.4-102.6-76.2-132.9
	c-52.8-70.4-76-13.8-108.5,34c-71.2,104.7-199.2-40.4-288.1-27.9c-116.1,16.3-232.8,27.8-348.7,0.4c-41.9-9.9-91.2-15.6-134.6-14.7
	c-24.1,0.5-46.7,15.7-70.6,16.1c-27.6,0.4-42.5-17.6-63.8-33.8c-18.6-14.1-37.1-25.7-58.1-36.1c-27.3-13.6-38.6-8.5-66.5-11.5
	c-29.8-3.2-44.4-26.3-70.8-34.7c-19.7-6.3-49.6-4.2-70-0.8c-22.3,3.7-45.8,16-68.8,15.9c-29.7-0.1-43.5-15.1-67.8-28.5
	c-36.1-19.9-103.6-34.5-144.7-31.6c-31.7,2.2-45.6,14.3-79.1,10.9c-22.9-2.3-47.3-0.8-69.6-8.4c-55.6-19-72.3-65.7-112.2-102.5
	c-37.4-34.5-89.4-36.6-136.8-46.8c-27.7-5.9-55-10.1-83.3-5.6c-24.6,3.9-47.8,16.4-73.8,16.6c-98.5,0.8-194.4,8.8-294.8-7.4
	c-52.6-8.5-94.8-35.5-146-46.9c-45.5-10.1-91.6,1.7-136.4-9.9c-57.7-14.9-106.5-8.2-164.6-14.8c-30.1-3.4-54.1-15.3-85.7-9.9
	c-24.2,4.1-42.5,18.8-65.5,24.8c-47.2,12.4-102.3,6.5-151,15.7c-31.1,5.9-56.2-0.7-86.9,0.8c-28,1.3-46.1,15.1-71.2,26.9
	c-54.4,25.4-84.5,45.3-107.1,104.6c-9.7,25.5-18.2,51.7-27.8,77.3c-7.6,20.1-10.1,76-21.2,90.5c-9,11.9-34.5,8.7-51.5,17.9
	c-23.1,12.6-34.1,35-55.1,50.4c-47.2,34.8-94.7,50.1-100.4,116.7c-4.3,50.6-28.2,95.2-33.3,146.6c-5.2,52.9-16.2,106.8-30.2,158.4
	c-15.9,58.6-21.3,98.8-15.1,159.4c5,49.3-10.8,98.1-9.1,147.8c1.7,49.1-8.7,98.8-5,147.4c3.8,50,22.6,100.6,31.1,150.2
	c8.7,50.8,20.2,98.6,37.1,147c17.3,49.5,21.8,102,37.1,152.9c14.9,49.6,16.6,102,30.8,151.5c7.2,25.1,22.2,48.6,28.9,73.6
	c6.7,25.1,2.9,54,20.8,75.7c29.1,35.2,87,43.8,127.5,58.5c23.2,8.4,42.2,21.7,64.2,31.3c22.7,10,49.5,5.8,70.4,16
	c21.7,10.5,36,37.8,52.4,54.4c22.8,23,48.4,28,75,44.6c20.9,13,34.3,33.1,54.1,48.6c24.5,19.2,53.6,28.4,64.5,61
	c17.3,52-6.9,87.9,55.2,118.9c48.1,24,91.1,39.4,142.8,30.5c54.1-9.3,90.7-20.9,137.9-48.6C1219,2514.4,1250.8,2515.7,1300.1,2544.4
	"/>
<path class="st0" d="M1306.9,2018.8c-65.9,36.1-186.4,25.2-258.2,15.7c-80.6-10.6-167.6-30-242.8-60.2
	c-160.4-64.5-236.3-206.9-315.5-350.6c-39.8-72-47-152-50.4-233c-1.5-36.5-13.7-71.1-16.4-107.8c-3.1-42.1,10.7-78.4,18.1-119.3
	c13.3-73.7,54.5-142.3,84-211.6c30.2-71,79.8-130.7,131-187.2c107.8-118.9,210-232.2,356.2-306c141.4-71.4,302.8-90,456.3-45.5
	c160.5,46.6,279.9,159,347.5,312.6c32.1,73,30.4,154.6,44.5,232.1c7.2,39.5,15,75.4,27.4,113.4c16.5,50.5-2.8,64.8-15.6,112.1
	c-9.6,35.4-5,76.4-6.4,112.9c-1.5,40.4-16.1,78.5-27.6,116.9c-23.6,79.1-38.1,156.8-88.8,222.2c-48,61.9-95.1,132.1-151.5,186
	c-56.8,54.3-126.3,84.1-193.3,122.8C1368.9,1965.4,1343.4,1998.6,1306.9,2018.8"/>
<path class="st0" d="M3328.4,2109.5c-39.3,4.1-74.8,25.3-114.7,27.1c-39.8,1.9-74.2-13.9-110.4-28.6
	c-39.4-16.1-80.3-25.7-119.1-43.7c-34.5-16-65.8-37.9-101.1-52.1c-72-28.9-136.9-68.6-205.9-104.2
	c-72.9-37.6-117.2-87.2-167.3-151.4c-51.4-65.8-84.4-118.1-90.8-201.8c-5.7-74.4-52.7-135.3-62-210.1
	c-11-88.4,28.3-151.2,69.2-223.9c23.2-41.2,15.9-79.2,53.8-112.9c25.6-22.8,57.8-43.3,85.3-64.2c111.8-85,288.2-160.2,429.8-153.3
	c149.3,7.2,309.3-14,451.5,37.9c73.8,26.9,134.5,34.3,201.2,79.8c63.9,43.6,141.2,71.4,202,119.4c59.3,46.8,88.5,134,112.3,202.6
	c13.4,38.6,16.9,77.6,23.2,117.7c6.2,39.2,21.3,75.6,28.2,114.6c14.3,81.2-12,153.2-30.7,230.9c-20.8,86.6-55.9,137.3-114.5,204.3
	c-52.1,59.5-118.4,113.2-184.7,157c-63.6,41.9-142.5,42-215.7,49C3423.5,2108.1,3371.3,2099.9,3328.4,2109.5"/>
<path class="st0" d="M2557.1,658.2c14.2-12.5,17.3-29.1,35.9-39.3c16-8.8,45.6-12.9,64-19c43.1-14.3,80.8-10.6,125.5-7.7
	c46.8,3,86-4.5,131.7-12c44.6-7.3,83.5,15.9,128.3,15.2c96.2-1.5,191.2,13.1,286.5,12.3c46.3-0.4,82.4,5,125.9,19.1
	c47.9,15.6,98.3,6.9,147,19.3c43,11,87.4,27.2,124.7,51.8c40,26.4,58.9,71.1,95.3,101.4c38.2,31.7,89.5,52.1,135.2,69.7
	c43.9,16.8,73,39.7,110.6,66.4c41.9,29.7,74.9,39.4,80.5,95.1c4.5,45.4-14.7,91.3-28,134.3c-29.8,96.8,31.7,169.5,37.9,264.4
	c5.6,85.1,19.4,168.4,23,253.5c1.9,44.4,21.6,93.7,7.3,136c-13,38.6-42,81.2-61.1,118.4c-17.3,33.6-51.2,75.6-79.2,100.3
	c-33.3,29.4-75.8,38.5-108.8,63.7c-34.3,26.2-49.4,63.1-96.2,68.1c-26.4,2.8-39.2-1.2-65.1,10.3c-26.1,11.7-40.4,19.9-69.5,21.1
	c-47.5,2-90.8,5.1-137.5,16.4c-45.3,10.9-80.6,35.6-124,51.4c-85.6,31.3-174.9,24.4-260.2,54.2c-89.5,31.3-170.6-21.9-262.3-25
	c-97.4-3.2-166.3-42.9-251.3-85.9c-80.6-40.7-163.8-100.2-228.2-163.6c-67.8-66.8-149-110.7-221.8-170.1
	c-36.4-29.7-71.5-64.4-119.1-74.8c-41.4-9.1-78.1,7.6-114.9,26.4c-43.6,22.4-75.5,51.2-115.8,78c-45.5,30.3-81.4,48.7-117.6,91.6
	c-16.5,19.6-25.7,36.1-51.7,46.3c-18.2,7.1-38.1,5.4-57,11.7c-12.6,4.2-19.7,13.5-32,16.8c-12.7,3.3-26.8,0.2-40.4,3.9
	c-27.2,7.3-35.3,22-59.2,35.7c-39.2,22.6-81.7,41.1-122.8,59.7c-42.9,19.4-77.2,54.1-119.7,74.6c-40.7,19.7-90.4,24.3-133.6,41
	c-44.1,17.1-75.2,31-123.2,23.4c-82.7-13-152-85.1-223.5-125.4c-72.4-40.8-152.2-81.6-232-104.6c-47.6-13.7-82.4-32.7-112.5-73.8
	c-29.5-40.3-26.2-89.4-45.9-133.5c-18.5-41.3-59.9-67.7-77-107.8c-17.5-41.1-24.8-97.3-36.3-141.2c-21.1-80.8-38.7-175.9-40.4-258.8
	c-0.9-44.4-11-94.9-4.4-138.6c6.8-45.2,20.9-87.4,23.9-134.1c2.7-43.4-6.5-85.6,1.8-128.6c8.5-44.5,32.3-84,49.4-125.4
	c36.5-88.7,66.8-169.6,145.7-231.5c13.6-10.7,32.9-16.1,45.5-27.2c18.2-16.1,27.1-47.4,38.5-68.4c22-40.4,46-81,77.6-114.8
	c33.6-36,80.3-30.9,119.7-56c40.6-25.8,73.8-40,119.7-54.9c42.7-13.8,92.3-8.9,130.7-28.8c43.7-22.7,74-27.7,123.9-36.1
	c167.7-28.2,349.9,27.5,515.8,58.9c42.2,8,87.1,11.5,128.6,21.8c50.1,12.5,74.5,42.6,114.3,69.8c37.8,25.8,89.9,28.6,132.8,44
	c48.2,17.3,72.4,40.5,96.3,86.3c3.9,7.5,28,42.7,25,49.9c-7.9,18.8-64.2,7-75.4,24.8c-7.6,12.1,3.7,27,16.9,39.7
	c25.8,24.8,29.8,18.2,28.1,56.7c-2.2,49.4,11.2,89.7,67.7,95.7c20.5,2.2,42.1-4.4,60.8-11.1c25-8.8,48.4-10,74.1-16.7
	c42.5-11.1,79.6-28.5,124.7-35.9C2481.3,698.6,2511.1,681.1,2557.1,658.2"/>
</svg>
