<svg id="Layer_1" data-name="Layer 1" xmlns="http://www.w3.org/2000/svg" viewBox="0 0 4317.61 2609.37"><defs><style>.cls-1{fill:none;stroke:#010101;stroke-miterlimit:10;stroke-width:2.39px;}</style></defs><title>contours-6-26</title><path class="cls-1" d="M2179.31,624.42h0" transform="translate(-118.94 -89.19)"/><path class="cls-1" d="M1175.89,626c235.2-60.23,463.65,89.85,489,335.49,11.49,111.49-6,234.67-36.17,342.36-31.42,112.15-63.58,232.78-120.84,334.89-117.94,210.3-369.58,334.37-599.6,218.51C691.33,1748,621.35,1450.38,711.63,1236c44.28-105.13,104.71-204.58,162.46-302.89C936.51,826.9,992.14,728.4,1100.36,662c24.43-15,48-27.62,75.53-36" transform="translate(-118.94 -89.19)"/><path class="cls-1" d="M1175.89,700.21C1076.42,741,1017,833.31,977.27,928.59c-36.1,86.59-82.28,160.25-127.9,241.6-99.06,176.63-145.13,428.95,26.59,580.2C1043.55,1898,1277,1818.05,1391.38,1651c56.79-82.94,83.94-176,109.17-272.42,25-95.65,54.29-191.23,76.94-287.32,58.48-248.08-148-481.8-401.59-391.09" transform="translate(-118.94 -89.19)"/><path class="cls-1" d="M1039.91,1766c199.54,31,315.21-151.18,359-319.83,24.17-93.14,15.62-191.21,59.82-278.54,39-77.14,78.63-154.37,59.69-244C1478.72,735.88,1247,667.82,1115.31,810.6c-67.17,72.8-58.82,164.36-95.2,249.29-34.35,80.19-103,141.15-140.05,221.34-80.83,174.87-74.83,441.89,159.85,484.78" transform="translate(-118.94 -89.19)"/><path class="cls-1" d="M3380.28,1831.9c-87.15-21.54-158.12-65.92-229.09-118.76-74.82-55.71-146.74-57.21-232.88-84.35-173.51-54.67-253.47-291.27-90.35-410.8,70.75-51.85,164.69-64.15,246.83-32.29,39.76,15.42,74,40,112.31,57.93,43.77,20.49,89.85,22.74,137.16,25.44,160.38,9.17,345.35,59.41,409.25,225,38.78,100.5,12.81,211.68-67.45,283.67-78.5,70.41-187.16,76.19-285.79,54.17" transform="translate(-118.94 -89.19)"/><path class="cls-1" d="M1319.55,2586.54c26.24,5.83,40.88,23.8,67.67,6.15,20.89-13.76,27.12-53.22,34-73.68,8.68-25.78,14.2-45.12,35.51-64.74,15.89-14.63,37.26-18.61,47.15-38.9,13.89-28.48,5.44-50.39,41.95-66.07,23.11-9.93,46.17-3.59,70.11-2,34.41,2.29,43.2-6.77,76-21.64,25.78-11.68,55.37-9.29,68.74-34.92,13-25-.68-52.28,24.09-76,17.3-16.54,44.69-22.29,65.32-34.06,48.64-27.76,67.08-64.57,97.23-108.53,31.92-46.55,77-77.63,134.77-68.43,62.42,9.94,84.12,32.53,119.22,80.93,16.51,22.76,30.8,43.09,41.87,68.93,4.31,10.07,5.6,24.36,12.48,32.75,9.58,11.68,25.93,12.49,33.14,24.29,13.4,21.91-5,46.31,0,67.54,6.58,28.17,35.86,43.2,62.14,44.27,27.41,1.12,48.39-9.59,77.11-5.28,26.35,4,53.57,10.59,79.58,16.52,43.77,10,105.7,24.74,143.33,47.87,26,16,35.1,34.94,67.13,43.3,23.67,6.18,49.28,13.07,73.91,17.18,50.12,8.35,102.38,19,149.94,40.81,43.44,19.89,86.65,42,130.45,62.27,24.61,11.38,53,8.45,78.76,15.32,21.93,5.85,44.22,21.9,68.24,19.39,51.22-5.35,98.66-60,135.16-91.61,41.19-35.66,83.94-52.32,133-75.49,45.13-21.31,91.46-52.94,137.58-69.41,51-18.21,102.52,10.86,150.75,26.69,52.31,17.16,91.83,42.15,147.9,30.74,26.28-5.35,51.94-16.11,78.35-20.76,20.56-3.62,45.59,1.26,64.81-6.68,46.4-19.18,41.7-95.22,83.66-126.83,41.63-31.35,81.19-49.09,95.33-105.86,12.58-50.49,21.88-111.27,56.45-149.54,39.91-44.2,71.25-77,63.5-140.79-13.08-107.64-104.38-198.36-104.36-305.67,0-49.72,24.13-96.18,29.5-145.22,2.93-26.78-1.12-46-8.13-72-10.31-38.17-9.78-43.83,17.54-75.2,36.63-42.08,31.09-91.65,25.89-146.82-5.79-61.4-37.11-95.39-61.8-148.43-22.28-47.88-59.14-83.14-76.72-132-20.44-56.74-15.06-112.85-90.44-105.32-38.44,3.84-108.07,45.46-146.33,12.41-32.51-28.08-3.06-36.48,18.25-43.84,31.38-10.83,42.95-12.8,39.39-43-4.33-36.79-53.43-102.57-76.2-132.9-52.85-70.39-76-13.77-108.53,34C3752.71,651.14,3624.8,506,3535.82,518.5c-116.12,16.33-232.85,27.83-348.72.43-41.86-9.9-91.19-15.61-134.59-14.71-24.06.5-46.74,15.75-70.62,16.05-27.6.35-42.55-17.61-63.83-33.79A355.34,355.34,0,0,0,2860,450.36c-27.26-13.56-38.61-8.54-66.52-11.52-29.84-3.18-44.44-26.27-70.78-34.71-19.73-6.33-49.59-4.2-70-.81-22.33,3.71-45.85,16-68.81,15.88-29.74-.12-43.46-15.06-67.81-28.45-36.14-19.88-103.56-34.49-144.75-31.61-31.73,2.22-45.62,14.26-79.14,10.95-22.92-2.26-47.34-.8-69.59-8.41-55.65-19-72.3-65.75-112.16-102.48-37.44-34.5-89.42-36.62-136.81-46.76-27.73-5.94-55-10.11-83.32-5.61-24.57,3.91-47.81,16.42-73.84,16.63-98.49.8-194.4,8.8-294.75-7.44-52.63-8.51-94.78-35.45-146-46.87-45.46-10.14-91.62,1.68-136.39-9.9-57.67-14.91-106.53-8.24-164.62-14.77-30.12-3.39-54.12-15.3-85.69-9.9-24.16,4.14-42.47,18.81-65.48,24.84-47.16,12.36-102.32,6.49-151,15.73-31.1,5.91-56.2-.65-86.87.82-28,1.34-46.09,15.13-71.21,26.86C560,228.26,530,248.14,507.38,307.44c-9.73,25.49-18.15,51.68-27.84,77.32-7.61,20.13-10.14,76-21.17,90.55-9,11.87-34.52,8.66-51.52,17.91-23.14,12.58-34.1,35-55.05,50.4-47.18,34.76-94.66,50.06-100.39,116.72-4.35,50.58-28.2,95.18-33.28,146.61C212.9,859.82,201.91,913.69,188,965.32c-15.86,58.65-21.34,98.82-15.15,159.38,5,49.27-10.85,98.1-9.13,147.79,1.69,49.08-8.73,98.8-5,147.38,3.84,50,22.63,100.59,31.15,150.16,8.73,50.8,20.17,98.58,37.14,147,17.34,49.46,21.81,102,37.12,152.91,14.93,49.6,16.6,102,30.82,151.47,7.22,25.14,22.24,48.6,28.89,73.63s2.88,54,20.83,75.71c29.09,35.18,87,43.79,127.51,58.47,23.19,8.4,42.21,21.66,64.17,31.31,22.65,10,49.46,5.84,70.36,16,21.67,10.5,36,37.83,52.4,54.4,22.75,23,48.35,28,75,44.64,20.88,13,34.34,33.09,54.14,48.57,24.5,19.16,53.62,28.45,64.45,61,17.3,52-6.89,87.86,55.16,118.88,48.06,24,91.06,39.41,142.83,30.49,54.14-9.33,90.66-20.92,137.88-48.62,49.88-29.27,81.75-28,131,.68" transform="translate(-118.94 -89.19)"/><path class="cls-1" d="M4081.92,1881.42c-60.51,68.4-114.79,143.41-192.31,194.27-76.82,50.4-153,90.95-241.48,115.63-44.39,12.38-88.64,26.63-133.74,36.15-38.91,8.21-75.82,2.4-114.8,6.84-82.24,9.36-167.87,51.11-251.62,39-42-6.1-80.57-24.55-123.51-28.82-55.68-5.54-71.51-16.56-117.79-46.68-37.54-24.43-73.14-34.24-107-65.92-27.87-26.06-56.29-54.59-92.54-68.13-42.79-16-88.37-14.09-130.55-35-38.64-19.13-78.77-43.21-110.28-73-60.43-57.07-132.18-132.41-163.44-209.5-15.73-38.78-15.06-85.35-36.2-118.71-29.65-46.78-58-50.34-107.88-35.2-41.08,12.46-79.51,31.36-120.91,42.81-55.47,15.34-69.25,31.94-107.74,70.45a679.34,679.34,0,0,1-95.7,80.08c-38.55,26.48-51.68,63.69-81,98.61-59.84,71.38-132,95.68-209.69,140.74-75.1,43.57-137.14,105.09-217.16,140.68-42.21,18.77-74.42,19.06-119,12-45.57-7.21-86.18-.82-131.34,2.4-73.83,5.27-168-21.62-234.55-49.86-42.4-18-87.56-12.43-126.22-39.87s-71.31-62.58-110.51-88.71c-70.83-47.22-103.17-135.52-145.54-208.81-44.13-76.33-75.62-139.25-94.88-226.26-18.43-83.28-12.78-172.31-17.57-257-4.47-78.85,16.46-176.51,38.16-252,23.65-82.23,57-158.1,104.94-229.44,49.78-74.06,132.4-126.84,174.38-207.51,18.69-35.92,30-67.24,63.12-93.23,35.09-27.55,79.62-30,120-49.51,37.69-18.23,76.16-18.36,112.84-38.85,38-21.21,74.92-32.35,115.75-46.9,79.3-28.27,155.39-44.07,239.82-48.22,87.71-4.32,159.55,21.9,243.78,40.15,92,19.94,165.74,32.53,238.3,96.55,31.93,28.17,85.87,40.81,112.23,71.83,23.93,28.16,25.77,86.33,33.58,121.51,9,40.53,20.7,80,28.05,120.32,9.49,51.94,34,66.75,72.16,99.77,37.12,32.09,35.43,75.53,63.37,112.74,11.56,15.4,27.26,24.06,46.82,29,31.31,7.92,36.65-3.4,63.15-16.55,46.06-22.84,78.56-24.68,116.06-63.42,33.18-34.28,52.41-60.57,102.22-73.94,44.31-11.89,78.44-9.18,122.19-27.9,37.47-16,73.34-35.9,109.79-54.42,77.47-39.35,162-72.1,249.29-80,44-4,83.23,12.86,126.48,15.29,37.59,2.11,75.72-4,113.31-2.4,86.62,3.78,179.5.36,263.33,18,38.73,8.13,76.64,20.68,115.18,28.48,46.55,9.41,78.07.33,118.73,30.17,36.27,26.61,77.51,40.08,113.27,66.59,35,26,62.91,52.53,102.64,72.25,38.7,19.2,87,31.51,116,66.21,26.48,31.71,26.37,75.76,43.25,112.95,36.21,79.79,26.42,178.54,53.5,261.77,26.65,81.9,31,164,37.53,249.62,3.15,41.21-3.82,73.2-11.12,113.25-8,44-6.14,89.15-27.16,129.56" transform="translate(-118.94 -89.19)"/><path class="cls-1" d="M1326.33,2061c-65.89,36.1-186.39,25.17-258.18,15.73-80.57-10.6-167.61-30-242.84-60.21C665,1952.06,589.06,1809.59,509.78,1665.94c-39.75-72-47-152-50.42-233-1.55-36.54-13.72-71.12-16.4-107.8-3.08-42.14,10.74-78.37,18.11-119.27,13.29-73.71,54.49-142.29,84-211.64,30.23-71,79.76-130.71,131-187.21C783.84,688,886.1,574.73,1032.24,501c141.45-71.4,302.83-90,456.29-45.52,160.54,46.55,279.93,159,347.48,312.63,32.09,73,30.4,154.6,44.46,232.11,7.16,39.46,15,75.39,27.36,113.38,16.48,50.49-2.83,64.8-15.61,112.07-9.58,35.45-5,76.4-6.39,112.88-1.54,40.42-16.11,78.5-27.56,116.91-23.56,79.11-38.09,156.79-88.82,222.25-48,61.9-95.1,132.09-151.5,186-56.75,54.29-126.34,84.08-193.28,122.83-36.31,21-61.8,54.21-98.35,74.45" transform="translate(-118.94 -89.19)"/><path class="cls-1" d="M3347.83,2151.67c-39.3,4.13-74.84,25.25-114.74,27.14s-74.22-13.88-110.38-28.61c-39.38-16.05-80.35-25.75-119.08-43.74-34.46-16-65.8-37.89-101.1-52.05-72-28.89-136.92-68.57-205.94-104.16-72.93-37.61-117.18-87.25-167.27-151.39-51.35-65.76-84.4-118.12-90.75-201.76-5.65-74.42-52.69-135.35-62-210.11-11-88.36,28.32-151.19,69.22-223.85,23.2-41.22,15.93-79.2,53.79-112.89,25.64-22.81,57.78-43.28,85.3-64.21,111.76-85,288.18-160.15,429.83-153.31,149.31,7.21,309.33-14,451.54,37.85,73.76,26.9,134.54,34.26,201.19,79.78,63.89,43.64,141.22,71.37,202,119.38,59.27,46.8,88.53,134,112.28,202.61,13.36,38.61,16.94,77.61,23.24,117.71,6.16,39.21,21.3,75.61,28.16,114.61,14.27,81.15-12,153.21-30.68,230.94-20.83,86.63-55.86,137.33-114.47,204.29-52.12,59.54-118.4,113.23-184.75,157-63.56,41.94-142.51,42-215.71,49-44.64,4.27-96.8-3.9-139.72,5.71" transform="translate(-118.94 -89.19)"/><path class="cls-1" d="M888.43,732.16c89-102.51,219.14-192,356.61-206,142.48-14.42,267.27,37.29,368.68,131.83,108,100.68,150.76,215.44,162.25,361.44,4.71,59.86-15.31,128.89-20.67,189.19-6,68-18.52,139.69-34.8,205.87-31.67,128.74-93.46,249.67-172.94,355.33-42.17,56.07-94.88,96.41-156.18,129.78-61.94,33.71-111.74,76.19-183.9,83.61-142.57,14.66-288.85-8.55-408.29-92.16-101.2-70.84-195.57-218.5-219.5-339.42-23.12-116.85-18.16-273.68,32-381.61,57.46-123.67,127.62-245.25,208.16-355,21.22-28.9,43.18-57.41,68.59-82.91" transform="translate(-118.94 -89.19)"/><path class="cls-1" d="M3864.24,1665.94c44.25-243.28-102.47-448.63-326.16-537-103.78-41-214.44-62.48-324.57-81.06-117.84-19.88-227.85-34.89-342.36,9C2648,1142.3,2531.65,1397,2668.23,1610.18c60.94,95.12,162.14,159.11,262.46,206.9,99,47.16,192.78,106.37,299.1,135,227.11,61.23,493.19,32.11,603.78-203.68a523.18,523.18,0,0,0,30.68-82.5" transform="translate(-118.94 -89.19)"/><path class="cls-1" d="M652.39,2384.22c-19.9-13.75-40.88-24.17-58.54-40.52-27-25-41.39-29.12-73.17-46-48.52-25.81-90.89-43.95-145.46-58.93-23.11-6.35-75.76-9.53-90-30.5-12.54-18.46,3.09-45.83,3-67.87-.3-52-29.07-102.66-40.66-152.44-11.77-50.52-7.1-100.36-23.4-149.94-8.11-24.65-9.68-42.79-11.93-68.65-2.87-32.93-16.75-54.19-27.76-84.71-17.32-48-21-97.46-29.11-147.37s-24.53-97-29.59-147.51c-10.71-106.89-5.41-213.25,10.87-319,8.54-55.48,28.46-105.41,31.89-160.85,3.7-59.76,17.46-120,32.11-177.76,13.72-54.07,5.27-105.64,32.4-156.66,24.14-45.4,50.06-95.35,79-136.91,15.82-22.71,39.94-39.16,55.09-62.58,7.74-12,10.85-25.77,20.25-37.36,8.81-10.87,28.95-19.19,35.3-28.88,16.3-24.85,11-55.34,35-78.5,19.86-19.21,47.15-34.05,67.55-52.16,48.41-43,80.25-54.92,144.87-45.36,63.93,9.46,112.7,10.2,177-1.85,52.23-9.79,96.43-38.29,150.52-41.34,31.45-1.77,53,10.28,83,14.24,31.76,4.18,63.42-4.88,95.33.84,28.07,5,45.71,21.65,71.83,30.11,31.51,10.2,67.07,1.93,99.38,2.41,60,.89,100.68,33.49,156.37,49.17,51.2,14.41,92.82,9.25,142.42.15,23.13-4.24,51.14,5.48,72.28-1.31,24.54-7.89,40.83-41.69,64.95-47.6,14.47-3.55,60.92,12.63,76.08,18,33,11.74,54.76,18.44,90.86,20.9,28.62,1.95,56.18,7,84.55,10,21.51,2.26,61.47-6,78.94,4.7,44.12,27.06,44.72,98,99.46,120.49,37,15.24,48.08-4.18,79.76-15,23.57-8.05,47.23-1.74,70.61,3.18,47.78,10.05,104.81,25.74,149.88,44.81,62.78,26.55,96.74,18.63,161.52,1,42.44-11.57,105.3-22.18,148.39-17,14.56,1.73,42.76,16.68,59.63,26.48,35.83,20.8,19.49,29.07,33.16,66.11,23,62.2,78.5,47,131.34,39.35,58.85-8.54,111.5,7.55,169.41,18.27,46.56,8.61,80.89-.45,126.19-2.66,51.57-2.52,84.25,19.78,139.42,3.64,27-7.88,55.46-16.06,80.87-27.65,10.23-4.67,18.54-11,28.35-16,26.39-13.53,23.15-18.37,40.2,5,26.89,36.9,59.62,92.48,117.65,81.66,49.32-9.19,63.18-73,120.07-78.48,35.58-3.42,127.78,31.23,145.14,67.12,5.57,11.51-4.1,24.29.22,34.77,5.4,13.11,22.31,18.07,34.21,29,20.08,18.51,28.24,45.42,46.13,65.63,20.7,23.37,46,24.08,69.72,42,25.84,19.51,28.11,43.53,36.85,71.86,15.51,50.28,53.72,82.1,77.86,128.25,12.31,23.53,17.95,47.63,28.46,71.31,12.58,28.32,36.16,47.95,46.91,76.45,19.68,52.17,19.83,102.68,53.21,146.49,43,56.4-3.31,93.89-38.75,144.46-55.58,79.34-105.3,210.9-62.65,304.66,21.94,48.23,53.76,91.51,74.58,140.24,18.38,43,59.24,102.89,53.41,149.76-7.34,59-74.19,86.21-103.23,135.48-27.35,46.39-17.86,99.67-44.55,146.82-28.43,50.22-38.64,98.48-91.49,130.08-10.28,6.15-32,11.23-36.06,21.25-2.2,5.4,6.9,36.5,7.21,45.91.73,21.73,4.34,52.23-13.76,66.07-32.73,25-102-42-141.9-43.08-53.2-1.41-103.6,22.74-158.35,9.76-51.13-12.12-96.14-43-148.66-51.1-68.58-10.59-72.73,39.27-127.95,67.84-25.42,13.16-54,11.13-76.26,28.15-21.58,16.49-37.18,38.87-58.36,56.29-20.18,16.59-30.83,34.54-53.6,46.8-26.29,14.15-55.57,11.89-82.16,21.7-21.27,7.85-36.79,23.58-60.47,28.58-23.37,4.93-47.12,1-70.63-.1-50.51-2.44-99.32,9.93-148.89-9.51-56.57-22.19-82.33-81.77-131.89-111-53.8-31.69-104.76-18.72-159.88-38.52-51-18.3-101-30.54-153-40.65-49.52-9.62-81.08-53.28-130.5-61.43-40.32-6.65-51.07,12.87-85,24.2-21.31,7.12-52.14,1.57-74.76-1.33-55.39-7.1-75.45-67.34-79.38-119.24-5.88-77.7-60.88-271.62-173.44-237-49.13,15.11-69.68,81.62-93.48,120.6-13,21.29-28.13,40.64-48.28,55.84-20.58,15.53-52,22.77-66.93,44.2-27.85,40,20.31,100.32-44.16,130.06-27.36,12.62-54.63-.68-78.95,21.72-23.17,21.34-24.75,48.7-52.79,67.64-26.43,17.85-43.93,17.83-58.77,49.12-14.19,29.92-11.95,49.5-42,65-22.27,11.45-45.71,15.76-67.63,30-24.41,15.81-47.83,31.22-75.56,41.71-57.56,21.77-100.19-16.13-157.33-23.55-58.64-7.62-90.19,35.35-146.93,34-40.19-.92-38.44,11.56-72.76,24.12-30.23,11.07-51-6.24-77.43-16.65-27.56-10.84-45-1.55-71.62-5.6-39-5.95-46.42-34.1-57.84-64.93-6.5-17.55-16.06-53.59-31.65-64.86-27.72-20-7.63,3.82-38.51,1-17.2-1.59-18-6.17-31.11-20.42-15.57-16.94-36.09-42.86-40.42-66.26-6.82-36.82-1-42.07-31.26-71.83" transform="translate(-118.94 -89.19)"/><path class="cls-1" d="M3903.4,2348.31c100.7-4.56,143.49-108.92,200.91-172.69,29-32.2,69.61-74.08,86.27-114.62,20.34-49.52,28.13-76.72,65.69-116,32.43-33.92,64-79.58,57.19-128.77-6.19-44.51-35.68-86.85-48.92-130.3-12.86-42.23-31.64-84.18-36.78-128.59-5.83-50.37,20.3-100.37,13.79-148.73-6.48-48.12-54.64-80.32-50-131,4.84-53.36,61.21-67.07,71.83-115.67,10.19-46.63-6.51-99.12-22.06-142.46-7.36-20.52-15.64-45-32.46-60.18-20.5-18.55-41.1-14.6-64.75-27.22-46.06-24.56-71.62-67.5-122.65-89.27-40.66-17.35-84.07-25.05-123.45-46.25-47.17-25.39-57.62-71.83-94.24-106.38-33.08-31.21-80.07-38.91-120-59.58-42.26-21.88-80-45.7-129.34-45.44-40.13.21-78.9,1.37-119.32-.09-47.49-1.72-92.83,11.54-140.89,4.1-50.82-7.87-99.4-15-150.89-19.83-48.13-4.53-94.79-.3-142.83-2-54.72-1.87-88.27-16.29-136.58-35.1-25.06-9.76-43.78-1.66-68.31,1.15-34.13,3.91-46.06-4.86-75.35-19.68-46.41-23.47-93.74-20.06-143.66-15.18-24.93,2.44-50.39,3.2-71.83-12.69-23.94-17.75-32.23-47.88-69.22-43.65-19.34,2.21-33.92,19.55-52.89,24.16-37.36,9.08-30.18-8-63.09-20.56-39.09-14.89-72.52,14.93-115.17-3.45-34.72-15-82.63-48.18-105.74-76.6-30.49-37.49-62.74-45.66-105.57-70.3C1978,286.82,1943.29,264,1927.84,263c-21.84-1.34-42.88,24-63.18,28.17-23.32,4.83-47.78-10.28-71.39-14.25-24.33-4.09-48.78-.94-73.43-1.15-43-.38-87.38-5-129.85-11.42-47-7.13-98.68-11.76-143.75-25.61-43.83-13.47-84.19-31.73-130.55-37.27-43.61-5.21-89-13.65-132.45-15.37-43.71-1.73-86.88,8.84-130,8.88-45.77,0-83.39,10.19-128.79,15.56-47.87,5.66-99.11-.43-144.2,18.27-43.55,18.06-69.77,55.73-109.55,76.28-54.68,28.25-70.06,39.81-102.25,93.6C545.56,437,537,477.34,517,516.67,491,568.07,454.26,582.18,404.7,605.5c-53.06,25-61.33,45.68-84.3,97.2-9.68,21.71-34.33,38.53-42.36,59.15-8.91,22.88,1.67,51.46-2.11,76-6.72,43.51-31.17,87.32-46.67,128.36-20.14,53.31-16.5,83.93-9.7,138.5,5.94,47.65-6.7,91-11,138.05-4.11,45.43,2.95,90.43,0,135.92-6.08,93.85,22.79,187.77,41.43,279.41,8.26,40.6,21.5,79.66,29,120.63,9.76,53.42,35.07,90.45,57.14,138.67,21,46,21.21,95.63,44.85,140.38,24.8,46.94,52.91,75.4,97.15,105.13,40,26.86,78.5,28.15,123.11,40.67,46.65,13.08,86,48.54,127.85,71.16,38.48,20.79,59.53,53.7,93.92,78.31,38.62,27.63,84.36,55.51,126.3,78.23,51.1,27.67,81.34,46.27,142.72,36.85,18.84-2.89,37.2-9.5,56.07-12,31.21-4.14,45.53,5.91,75.08,11.4,59.64,11.09,93.18-7.29,123.55-56,24.71-39.65,50.95-74.58,84.71-107.42,34.17-33.24,81.14-35.87,126.76-45.87,46-10.08,102.51,16.52,136.09-25.12,16.11-20,18.12-39.44,39.52-58,17.09-14.85,35.95-23.54,55.71-34.37,45.84-25.11,67.55-46.15,99.58-84.67,56.63-68.09,151.9-116.69,239.59-94.2,95.06,24.39,160.34,111.09,219.48,183.92,63.16,77.79,160.07,118.28,252.62,152.34,84.15,31,161.92,80,246.66,108.9,86.75,29.58,182.87,10,267.78,49.38,49.27,22.83,82.79,54.68,138.06,21.9,22.55-13.38,30-34.85,47.75-51.84,19.3-18.44,45.38-24.09,70.86-30.5,46.28-11.64,93.94-22,138.4-40,43.39-17.54,74.87-49.73,122.34-58.1,91.43-16.11,179.34,47.06,270.73,50.51" transform="translate(-118.94 -89.19)"/><path class="cls-1" d="M2576.56,700.37c14.2-12.52,17.29-29.06,35.91-39.34,16-8.85,45.63-12.87,64-19,43.06-14.3,80.82-10.65,125.5-7.74,46.77,3,86-4.54,131.66-12,44.62-7.3,83.47,15.92,128.35,15.2,96.17-1.55,191.23,13.05,286.54,12.29,46.28-.37,82.45,5,125.92,19.13,47.86,15.57,98.26,6.88,147,19.34,43,11,87.42,27.19,124.69,51.82,40,26.41,58.9,71.14,95.34,101.38,38.19,31.69,89.47,52.11,135.18,69.66,43.86,16.83,73,39.66,110.61,66.35,41.9,29.74,74.91,39.4,80.47,95.07,4.53,45.41-14.71,91.27-28,134.34-29.78,96.78,31.67,169.47,37.92,264.41,5.6,85.09,19.35,168.37,23,253.51,1.92,44.36,21.59,93.75,7.32,136-13,38.57-42,81.16-61.15,118.42-17.29,33.61-51.25,75.59-79.25,100.32-33.33,29.44-75.77,38.55-108.78,63.71-34.33,26.17-49.43,63.1-96.15,68.14-26.39,2.85-39.25-1.21-65.05,10.35-26.11,11.69-40.4,19.89-69.49,21.13-47.5,2-90.82,5.13-137.51,16.37-45.27,10.9-80.61,35.6-124,51.44-85.63,31.25-174.93,24.42-260.21,54.19-89.52,31.26-170.58-21.95-262.35-25-97.42-3.21-166.34-42.95-251.27-85.88-80.59-40.74-163.82-100.21-228.24-163.64-67.8-66.77-149-110.75-221.82-170.08-36.42-29.66-71.55-64.42-119.11-74.83-41.36-9.06-78.11,7.55-114.91,26.42-43.59,22.35-75.5,51.22-115.77,78-45.46,30.27-81.42,48.75-117.6,91.63-16.52,19.58-25.69,36.09-51.75,46.33-18.2,7.15-38.14,5.36-57,11.66-12.6,4.22-19.7,13.53-32,16.77-12.66,3.33-26.79.21-40.4,3.86-27.22,7.31-35.33,22-59.21,35.75-39.17,22.6-81.72,41.11-122.85,59.72-42.87,19.39-77.24,54.07-119.71,74.62-40.72,19.7-90.45,24.32-133.59,41-44.09,17.07-75.21,31-123.24,23.43-82.73-13-152-85.09-223.53-125.45-72.38-40.84-152.21-81.65-232-104.56-47.56-13.67-82.4-32.73-112.49-73.82-29.52-40.31-26.17-89.44-45.93-133.51-18.54-41.35-59.9-67.69-77-107.81-17.53-41.12-24.82-97.35-36.31-141.24-21.14-80.76-38.68-175.86-40.39-258.84-.91-44.38-11-94.91-4.36-138.64,6.83-45.24,20.94-87.37,23.89-134.09,2.74-43.36-6.48-85.61,1.75-128.62,8.51-44.47,32.34-84,49.39-125.44C375.21,794,405.57,713.08,484.39,651.21c13.6-10.68,32.94-16.13,45.46-27.2,18.22-16.12,27.11-47.37,38.54-68.37,22-40.44,46-81,77.61-114.81,33.55-36,80.35-30.87,119.75-56,40.57-25.85,73.78-40,119.71-54.87,42.73-13.79,92.34-8.91,130.68-28.78,43.74-22.67,74-27.65,123.92-36.05,167.73-28.25,349.94,27.54,515.8,58.89,42.17,8,87.13,11.46,128.63,21.84,50.07,12.52,74.5,42.6,114.32,69.84,37.78,25.84,89.94,28.59,132.83,44,48.16,17.26,72.42,40.51,96.32,86.32,3.9,7.48,28,42.65,25,49.85-7.91,18.83-64.16,7-75.36,24.78-7.65,12.11,3.67,27,16.92,39.71,25.82,24.8,29.81,18.2,28.08,56.66-2.21,49.4,11.15,89.74,67.68,95.75,20.49,2.18,42.09-4.45,60.77-11.06,25-8.84,48.39-10,74.14-16.72,42.45-11.1,79.59-28.51,124.68-35.86,51-8.31,80.75-25.83,126.72-48.72" transform="translate(-118.94 -89.19)"/></svg>