  0
SECTION
  2
HEADER
  9
$ACADVER
  1
AC1024
  9
$ACADMAINTVER
 70
     6
  9
$DWGCODEPAGE
  3
UNDEFINED
  9
$INSBASE
 10
0.0
 20
0.0
 30
0.0
  9
$EXTMIN
 10
1.000000000000000E+20
 20
1.000000000000000E+20
 30
1.000000000000000E+20
  9
$EXTMAX
 10
-1.000000000000000E+20
 20
-1.000000000000000E+20
 30
-1.000000000000000E+20
  9
$LIMMIN
 10
0.0
 20
0.0
  9
$LIMMAX
 10
12.0
 20
9.0
  9
$ORTHOMODE
 70
     0
  9
$REGENMODE
 70
     1
  9
$FILLMODE
 70
     1
  9
$QTEXTMODE
 70
     0
  9
$MIRRTEXT
 70
     1
  9
$LTSCALE
 40
1.0
  9
$ATTMODE
 70
     1
  9
$TEXTSIZE
 40
0.2
  9
$TRACEWID
 40
0.05
  9
$TEXTSTYLE
  7
Standard
  9
$CLAYER
  8
0
  9
$CELTYPE
  6
ByLayer
  9
$CECOLOR
 62
   256
  9
$CELTSCALE
 40
1.0
  9
$DISPSILH
 70
     0
  9
$DIMSCALE
 40
1.0
  9
$DIMASZ
 40
0.18
  9
$DIMEXO
 40
0.0625
  9
$DIMDLI
 40
0.38
  9
$DIMRND
 40
0.0
  9
$DIMDLE
 40
0.0
  9
$DIMEXE
 40
0.18
  9
$DIMTP
 40
0.0
  9
$DIMTM
 40
0.0
  9
$DIMTXT
 40
0.18
  9
$DIMCEN
 40
0.09
  9
$DIMTSZ
 40
0.0
  9
$DIMTOL
 70
     0
  9
$DIMLIM
 70
     0
  9
$DIMTIH
 70
     1
  9
$DIMTOH
 70
     1
  9
$DIMSE1
 70
     0
  9
$DIMSE2
 70
     0
  9
$DIMTAD
 70
     0
  9
$DIMZIN
 70
     0
  9
$DIMBLK
  1

  9
$DIMASO
 70
     1
  9
$DIMSHO
 70
     1
  9
$DIMPOST
  1

  9
$DIMAPOST
  1

  9
$DIMALT
 70
     0
  9
$DIMALTD
 70
     2
  9
$DIMALTF
 40
25.4
  9
$DIMLFAC
 40
1.0
  9
$DIMTOFL
 70
     0
  9
$DIMTVP
 40
0.0
  9
$DIMTIX
 70
     0
  9
$DIMSOXD
 70
     0
  9
$DIMSAH
 70
     0
  9
$DIMBLK1
  1

  9
$DIMBLK2
  1

  9
$DIMSTYLE
  2
Standard
  9
$DIMCLRD
 70
     0
  9
$DIMCLRE
 70
     0
  9
$DIMCLRT
 70
     0
  9
$DIMTFAC
 40
1.0
  9
$DIMGAP
 40
0.09
  9
$DIMJUST
 70
     0
  9
$DIMSD1
 70
     0
  9
$DIMSD2
 70
     0
  9
$DIMTOLJ
 70
     1
  9
$DIMTZIN
 70
     0
  9
$DIMALTZ
 70
     0
  9
$DIMALTTZ
 70
     0
  9
$DIMUPT
 70
     0
  9
$DIMDEC
 70
     4
  9
$DIMTDEC
 70
     4
  9
$DIMALTU
 70
     2
  9
$DIMALTTD
 70
     2
  9
$DIMTXSTY
  7
Standard
  9
$DIMAUNIT
 70
     0
  9
$DIMADEC
 70
     0
  9
$DIMALTRND
 40
0.0
  9
$DIMAZIN
 70
     0
  9
$DIMDSEP
 70
    46
  9
$DIMATFIT
 70
     3
  9
$DIMFRAC
 70
     0
  9
$DIMLDRBLK
  1

  9
$DIMLUNIT
 70
     2
  9
$DIMLWD
 70
    -2
  9
$DIMLWE
 70
    -2
  9
$DIMTMOVE
 70
     0
  9
$DIMFXL
 40
1.0
  9
$DIMFXLON
 70
     0
  9
$DIMJOGANG
 40
0.7853981633974483
  9
$DIMTFILL
 70
     0
  9
$DIMTFILLCLR
 70
     0
  9
$DIMARCSYM
 70
     0
  9
$DIMLTYPE
  6

  9
$DIMLTEX1
  6

  9
$DIMLTEX2
  6

  9
$DIMTXTDIRECTION
 70
     0
  9
$LUNITS
 70
     2
  9
$LUPREC
 70
     4
  9
$SKETCHINC
 40
0.1
  9
$FILLETRAD
 40
0.5
  9
$AUNITS
 70
     0
  9
$AUPREC
 70
     0
  9
$MENU
  1
.
  9
$ELEVATION
 40
0.0
  9
$PELEVATION
 40
0.0
  9
$THICKNESS
 40
0.0
  9
$LIMCHECK
 70
     0
  9
$CHAMFERA
 40
0.5
  9
$CHAMFERB
 40
0.5
  9
$CHAMFERC
 40
1.0
  9
$CHAMFERD
 40
0.0
  9
$SKPOLY
 70
     0
  9
$TDCREATE
 40
2458296.578240729
  9
$TDUCREATE
 40
2458296.911574074
  9
$TDUPDATE
 40
2458296.578240729
  9
$TDUUPDATE
 40
2458296.911574074
  9
$TDINDWG
 40
0.0000000116
  9
$TDUSRTIMER
 40
0.0000000116
  9
$USRTIMER
 70
     1
  9
$ANGBASE
 50
0.0
  9
$ANGDIR
 70
     0
  9
$PDMODE
 70
     0
  9
$PDSIZE
 40
0.0
  9
$PLINEWID
 40
0.0
  9
$SPLFRAME
 70
     0
  9
$SPLINETYPE
 70
     6
  9
$SPLINESEGS
 70
     8
  9
$HANDSEED
  5
51
  9
$SURFTAB1
 70
     6
  9
$SURFTAB2
 70
     6
  9
$SURFTYPE
 70
     6
  9
$SURFU
 70
     6
  9
$SURFV
 70
     6
  9
$UCSBASE
  2

  9
$UCSNAME
  2

  9
$UCSORG
 10
0.0
 20
0.0
 30
0.0
  9
$UCSXDIR
 10
1.0
 20
0.0
 30
0.0
  9
$UCSYDIR
 10
0.0
 20
1.0
 30
0.0
  9
$UCSORTHOREF
  2

  9
$UCSORTHOVIEW
 70
     0
  9
$UCSORGTOP
 10
0.0
 20
0.0
 30
0.0
  9
$UCSORGBOTTOM
 10
0.0
 20
0.0
 30
0.0
  9
$UCSORGLEFT
 10
0.0
 20
0.0
 30
0.0
  9
$UCSORGRIGHT
 10
0.0
 20
0.0
 30
0.0
  9
$UCSORGFRONT
 10
0.0
 20
0.0
 30
0.0
  9
$UCSORGBACK
 10
0.0
 20
0.0
 30
0.0
  9
$PUCSBASE
  2

  9
$PUCSNAME
  2

  9
$PUCSORG
 10
0.0
 20
0.0
 30
0.0
  9
$PUCSXDIR
 10
1.0
 20
0.0
 30
0.0
  9
$PUCSYDIR
 10
0.0
 20
1.0
 30
0.0
  9
$PUCSORTHOREF
  2

  9
$PUCSORTHOVIEW
 70
     0
  9
$PUCSORGTOP
 10
0.0
 20
0.0
 30
0.0
  9
$PUCSORGBOTTOM
 10
0.0
 20
0.0
 30
0.0
  9
$PUCSORGLEFT
 10
0.0
 20
0.0
 30
0.0
  9
$PUCSORGRIGHT
 10
0.0
 20
0.0
 30
0.0
  9
$PUCSORGFRONT
 10
0.0
 20
0.0
 30
0.0
  9
$PUCSORGBACK
 10
0.0
 20
0.0
 30
0.0
  9
$USERI1
 70
     0
  9
$USERI2
 70
     0
  9
$USERI3
 70
     0
  9
$USERI4
 70
     0
  9
$USERI5
 70
     0
  9
$USERR1
 40
0.0
  9
$USERR2
 40
0.0
  9
$USERR3
 40
0.0
  9
$USERR4
 40
0.0
  9
$USERR5
 40
0.0
  9
$WORLDVIEW
 70
     1
  9
$SHADEDGE
 70
     3
  9
$SHADEDIF
 70
    70
  9
$TILEMODE
 70
     1
  9
$MAXACTVP
 70
    64
  9
$PINSBASE
 10
0.0
 20
0.0
 30
0.0
  9
$PLIMCHECK
 70
     0
  9
$PEXTMIN
 10
1.000000000000000E+20
 20
1.000000000000000E+20
 30
1.000000000000000E+20
  9
$PEXTMAX
 10
-1.000000000000000E+20
 20
-1.000000000000000E+20
 30
-1.000000000000000E+20
  9
$PLIMMIN
 10
0.0
 20
0.0
  9
$PLIMMAX
 10
12.0
 20
9.0
  9
$UNITMODE
 70
     0
  9
$VISRETAIN
 70
     1
  9
$PLINEGEN
 70
     0
  9
$PSLTSCALE
 70
     1
  9
$TREEDEPTH
 70
  3020
  9
$CMLSTYLE
  2
Standard
  9
$CMLJUST
 70
     0
  9
$CMLSCALE
 40
1.0
  9
$PROXYGRAPHICS
 70
     1
  9
$MEASUREMENT
 70
     0
  9
$CELWEIGHT
370
    -1
  9
$ENDCAPS
280
     0
  9
$JOINSTYLE
280
     0
  9
$LWDISPLAY
290
     1
  9
$INSUNITS
 70
     1
  9
$HYPERLINKBASE
  1

  9
$STYLESHEET
  1

  9
$XEDIT
290
     1
  9
$CEPSNTYPE
380
     0
  9
$PSTYLEMODE
290
     1
  9
$FINGERPRINTGUID
  2
{30438E5F-56C4-3327-A798-EB4A94DFF38B}
  9
$VERSIONGUID
  2
{FAEB1C32-E019-11D5-929B-00C0DF256EC4}
  9
$EXTNAMES
290
     1
  9
$PSVPSCALE
 40
0.0
  9
$OLESTARTUP
290
     0
  9
$SORTENTS
280
   127
  9
$INDEXCTL
280
     0
  9
$HIDETEXT
280
     1
  9
$XCLIPFRAME
280
     2
  9
$HALOGAP
280
     0
  9
$OBSCOLOR
 70
   257
  9
$OBSLTYPE
280
     0
  9
$INTERSECTIONDISPLAY
280
     0
  9
$INTERSECTIONCOLOR
 70
   257
  9
$DIMASSOC
280
     2
  9
$PROJECTNAME
  1

  9
$CAMERADISPLAY
290
     0
  9
$LENSLENGTH
 40
50.0
  9
$CAMERAHEIGHT
 40
0.0
  9
$STEPSPERSEC
 40
2.0
  9
$STEPSIZE
 40
6.0
  9
$3DDWFPREC
 40
2.0
  9
$PSOLWIDTH
 40
0.25
  9
$PSOLHEIGHT
 40
4.0
  9
$LOFTANG1
 40
1.570796326794897
  9
$LOFTANG2
 40
1.570796326794897
  9
$LOFTMAG1
 40
0.0
  9
$LOFTMAG2
 40
0.0
  9
$LOFTPARAM
 70
     7
  9
$LOFTNORMALS
280
     1
  9
$LATITUDE
 40
37.795
  9
$LONGITUDE
 40
-122.394
  9
$NORTHDIRECTION
 40
0.0
  9
$TIMEZONE
 70
 -8000
  9
$LIGHTGLYPHDISPLAY
280
     1
  9
$TILEMODELIGHTSYNCH
280
     1
  9
$CMATERIAL
347
3C
  9
$SOLIDHIST
280
     1
  9
$SHOWHIST
280
     1
  9
$DWFFRAME
280
     2
  9
$DGNFRAME
280
     2
  9
$REALWORLDSCALE
290
     1
  9
$INTERFERECOLOR
 62
   256
  9
$CSHADOW
280
     0
  9
$SHADOWPLANELOCATION
 40
0.0
  0
ENDSEC
  0
SECTION
  2
CLASSES
  0
CLASS
  1
ACDBDICTIONARYWDFLT
  2
AcDbDictionaryWithDefault
  3
ObjectDBX Classes
 90
        0
 91
        4
280
     0
281
     0
  0
CLASS
  1
VISUALSTYLE
  2
AcDbVisualStyle
  3
ObjectDBX Classes
 90
     4095
 91
        4
280
     0
281
     0
  0
CLASS
  1
MATERIAL
  2
AcDbMaterial
  3
ObjectDBX Classes
 90
     1153
 91
        4
280
     0
281
     0
  0
CLASS
  1
SUN
  2
AcDbSun
  3
SCENEOE
 90
     1024
 91
        4
280
     0
281
     0
  0
ENDSEC
  0
SECTION
  2
TABLES
  0
TABLE
  2
VPORT
  5
8
330
0
100
AcDbSymbolTable
 70
     1
  0
VPORT
  5
29
330
8
100
AcDbSymbolTableRecord
100
AcDbViewportTableRecord
  2
*Active
 70
     0
 10
0.0
 20
0.0
 11
1.0
 21
1.0
 12
0.0
 22
0.0
 13
0.0
 23
0.0
 14
0.5
 24
0.5
 15
0.5
 25
0.5
 16
0.0
 26
0.0
 36
1.0
 17
10.34027777777778
 27
2.826388888888889
 37
0.0
 40
76.125
 41
0.826309067688378
 42
50.0
 43
0.0
 44
0.0
 50
0.0
 51
0.0
 71
     0
 72
   100
 73
     1
 74
     3
 75
     0
 76
     0
 77
     0
 78
     0
281
     0
 65
     1
110
0.0
120
0.0
130
0.0
111
1.0
121
0.0
131
0.0
112
0.0
122
1.0
132
0.0
 79
     0
146
0.0
 60
     3
 61
     5
292
     1
282
     1
141
0.0
142
0.0
 63
   250
361
3F
  0
ENDTAB
  0
TABLE
  2
LTYPE
  5
5
330
0
100
AcDbSymbolTable
 70
     1
  0
LTYPE
  5
14
330
5
100
AcDbSymbolTableRecord
100
AcDbLinetypeTableRecord
  2
ByBlock
 70
     0
  3

 72
    65
 73
     0
 40
0.0
  0
LTYPE
  5
15
330
5
100
AcDbSymbolTableRecord
100
AcDbLinetypeTableRecord
  2
ByLayer
 70
     0
  3

 72
    65
 73
     0
 40
0.0
  0
LTYPE
  5
16
330
5
100
AcDbSymbolTableRecord
100
AcDbLinetypeTableRecord
  2
Continuous
 70
     0
  3
Solid line
 72
    65
 73
     0
 40
0.0
  0
ENDTAB
  0
TABLE
  2
LAYER
  5
2
330
0
100
AcDbSymbolTable
 70
     2
  0
LAYER
  5
10
330
2
100
AcDbSymbolTableRecord
100
AcDbLayerTableRecord
  2
0
 70
     0
 62
     7
  6
Continuous
370
    -3
390
F
347
3E
  0
LAYER
  5
40
330
2
100
AcDbSymbolTableRecord
100
AcDbLayerTableRecord
  2
Layer 1
 70
     0
 62
     7
  6
Continuous
370
    -3
390
F
347
3E
  0
ENDTAB
  0
TABLE
  2
STYLE
  5
3
330
0
100
AcDbSymbolTable
 70
     1
  0
STYLE
  5
11
330
3
100
AcDbSymbolTableRecord
100
AcDbTextStyleTableRecord
  2
Standard
 70
     0
 40
0.0
 41
1.0
 50
0.0
 71
     0
 42
0.2
  3
txt
  4

  0
ENDTAB
  0
TABLE
  2
VIEW
  5
6
330
0
100
AcDbSymbolTable
 70
     0
  0
ENDTAB
  0
TABLE
  2
UCS
  5
7
330
0
100
AcDbSymbolTable
 70
     0
  0
ENDTAB
  0
TABLE
  2
APPID
  5
9
330
0
100
AcDbSymbolTable
 70
     1
  0
APPID
  5
12
330
9
100
AcDbSymbolTableRecord
100
AcDbRegAppTableRecord
  2
ACAD
 70
     0
  0
ENDTAB
  0
TABLE
  2
DIMSTYLE
  5
A
330
0
100
AcDbSymbolTable
 70
     1
100
AcDbDimStyleTable
  0
DIMSTYLE
105
27
330
A
100
AcDbSymbolTableRecord
100
AcDbDimStyleTableRecord
  2
Standard
 70
     0
178
     0
340
11
  0
ENDTAB
  0
TABLE
  2
BLOCK_RECORD
  5
1
330
0
100
AcDbSymbolTable
 70
     1
  0
BLOCK_RECORD
  5
1F
330
1
100
AcDbSymbolTableRecord
100
AcDbBlockTableRecord
  2
*Model_Space
340
22
 70
     0
280
     1
281
     0
  0
BLOCK_RECORD
  5
1B
330
1
100
AcDbSymbolTableRecord
100
AcDbBlockTableRecord
  2
*Paper_Space
340
1E
 70
     0
280
     1
281
     0
  0
BLOCK_RECORD
  5
23
330
1
100
AcDbSymbolTableRecord
100
AcDbBlockTableRecord
  2
*Paper_Space0
340
26
 70
     0
280
     1
281
     0
  0
ENDTAB
  0
ENDSEC
  0
SECTION
  2
BLOCKS
  0
BLOCK
  5
20
330
1F
100
AcDbEntity
  8
0
100
AcDbBlockBegin
  2
*Model_Space
 70
     0
 10
0.0
 20
0.0
 30
0.0
  3
*Model_Space
  1

  0
ENDBLK
  5
21
330
1F
100
AcDbEntity
  8
0
100
AcDbBlockEnd
  0
BLOCK
  5
1C
330
1B
100
AcDbEntity
 67
     1
  8
0
100
AcDbBlockBegin
  2
*Paper_Space
 70
     0
 10
0.0
 20
0.0
 30
0.0
  3
*Paper_Space
  1

  0
ENDBLK
  5
1D
330
1B
100
AcDbEntity
 67
     1
  8
0
100
AcDbBlockEnd
  0
BLOCK
  5
24
330
23
100
AcDbEntity
  8
0
100
AcDbBlockBegin
  2
*Paper_Space0
 70
     0
 10
0.0
 20
0.0
 30
0.0
  3
*Paper_Space0
  1

  0
ENDBLK
  5
25
330
23
100
AcDbEntity
  8
0
100
AcDbBlockEnd
  0
ENDSEC
  0
SECTION
  2
ENTITIES
  0
SPLINE
  5
41
330
1F
100
AcDbEntity
  8
Layer 1
 62
     7
420
 16777215
370
    70
100
AcDbSpline
210
0.0
220
0.0
230
1.0
 70
    27
 71
     3
 72
     8
 73
     4
 74
     0
 42
0.0000000001
 43
0.0000000001
 12
1.0
 22
0.0
 32
0.0
 13
1.0
 23
0.0
 33
0.0
 40
0.0
 40
0.0
 40
0.0
 40
0.0
 40
1.0
 40
1.0
 40
1.0
 40
1.0
 10
9.15707826419518
 20
32.21641869972111
 30
0.0
 10
9.216580443609548
 20
32.21777936194862
 30
0.0
 10
9.18629832676619
 20
32.21708688760625
 30
0.0
 10
9.15707826419518
 20
32.21641869972111
 30
0.0
  0
SPLINE
  5
42
330
1F
100
AcDbEntity
  8
Layer 1
 62
     7
420
 16777215
370
    70
100
AcDbSpline
210
0.0
220
0.0
230
1.0
 70
     8
 71
     3
 72
    29
 73
    25
 74
     0
 42
0.0000000001
 43
0.0000000001
 12
1.0
 22
0.0
 32
0.0
 13
1.0
 23
0.0
 33
0.0
 40
0.0
 40
0.0
 40
0.0
 40
0.0
 40
1.0
 40
1.0
 40
1.0
 40
2.0
 40
2.0
 40
2.0
 40
3.0
 40
3.0
 40
3.0
 40
4.0
 40
4.0
 40
4.0
 40
5.0
 40
5.0
 40
5.0
 40
6.0
 40
6.0
 40
6.0
 40
7.0
 40
7.0
 40
7.0
 40
8.0
 40
8.0
 40
8.0
 40
8.0
 10
-4.779265026013895
 20
-5.160656621265931
 30
0.0
 10
-1.512552593117637
 20
-4.324072498394192
 30
0.0
 10
1.660327596725968
 20
-6.408541535591275
 30
0.0
 10
2.011873858049133
 20
-9.82025083585985
 30
0.0
 10
2.171429959418067
 20
-11.36872139249762
 30
0.0
 10
1.92859747894128
 20
-13.07956827510957
 30
0.0
 10
1.509496906499913
 20
-14.57523541077848
 30
0.0
 10
1.073040665765853
 20
-16.13284066915569
 30
0.0
 10
0.6265082038490466
 20
-17.80824652476417
 30
0.0
 10
-0.1688709907776279
 20
-19.22653944437014
 30
0.0
 10
-1.806890619098289
 20
-22.1473999052893
 30
0.0
 10
-5.301955656234187
 20
-23.87057182059013
 30
0.0
 10
-8.496680449714606
 20
-22.26134418031792
 30
0.0
 10
-11.50931716012231
 20
-20.74383685875457
 30
0.0
 10
-12.4812452767769
 20
-16.61036238487137
 30
0.0
 10
-11.22741276676598
 20
-13.633587960789
 30
0.0
 10
-10.61238279896853
 20
-12.17342046348292
 30
0.0
 10
-9.773084681053824
 20
-10.7921719713415
 30
0.0
 10
-8.97096686434914
 20
-9.426820907986995
 30
0.0
 10
-8.103978508122282
 20
-7.951048335132971
 30
0.0
 10
-7.331347290249495
 20
-6.582932218884164
 30
0.0
 10
-5.828273445296897
 20
-5.660715353106146
 30
0.0
 10
-5.48899668547862
 20
-5.452550763507563
 30
0.0
 10
-5.162193080293364
 20
-5.277043969903742
 30
0.0
 10
-4.779265026013895
 20
-5.160657636100205
 30
0.0
  0
SPLINE
  5
43
330
1F
100
AcDbEntity
  8
Layer 1
 62
     7
420
 16777215
370
    70
100
AcDbSpline
210
0.0
220
0.0
230
1.0
 70
     8
 71
     3
 72
    26
 73
    22
 74
     0
 42
0.0000000001
 43
0.0000000001
 12
1.0
 22
0.0
 32
0.0
 13
1.0
 23
0.0
 33
0.0
 40
0.0
 40
0.0
 40
0.0
 40
0.0
 40
1.0
 40
1.0
 40
1.0
 40
2.0
 40
2.0
 40
2.0
 40
3.0
 40
3.0
 40
3.0
 40
4.0
 40
4.0
 40
4.0
 40
5.0
 40
5.0
 40
5.0
 40
6.0
 40
6.0
 40
6.0
 40
7.0
 40
7.0
 40
7.0
 40
7.0
 10
-4.779265026013895
 20
31.16373214524527
 30
0.0
 10
-6.160821908752546
 20
30.59744187068111
 30
0.0
 10
-6.986235295643028
 20
29.31510173006167
 30
0.0
 10
-7.537953921858742
 20
27.99174895588444
 30
0.0
 10
-8.039333776608752
 20
26.78913880249694
 30
0.0
 10
-8.68075513513856
 20
25.76603418512041
 30
0.0
 10
-9.314398614864393
 20
24.63620991401722
 30
0.0
 10
-10.69025755739496
 20
22.18297102397445
 30
0.0
 10
-11.33012798397464
 20
18.67862793056472
 30
0.0
 10
-8.945096709604286
 20
16.5779263937968
 30
0.0
 10
-6.617390880288414
 20
14.52771629159237
 30
0.0
 10
-3.374501974931137
 20
15.63819176369125
 30
0.0
 10
-1.78639703757896
 20
17.95772548746403
 30
0.0
 10
-0.997668559192991
 20
19.10971630462403
 30
0.0
 10
-0.6205688033793547
 20
20.40208028108959
 30
0.0
 10
-0.2702021908119908
 20
21.74138074019889
 30
0.0
 10
0.07734517683558
 20
23.06990444182055
 30
0.0
 10
0.483880591582268
 20
24.39740510813361
 30
0.0
 10
0.7984406026035786
 20
25.73187139144541
 30
0.0
 10
1.610640860877134
 20
29.17749010325833
 30
0.0
 10
-1.257085884629911
 20
32.42348573067625
 30
0.0
 10
-4.779265026013895
 20
31.16373316007958
 30
0.0
  0
SPLINE
  5
44
330
1F
100
AcDbEntity
  8
Layer 1
 62
     7
420
 16777215
370
    70
100
AcDbSpline
210
0.0
220
0.0
230
1.0
 70
    11
 71
     3
 72
    26
 73
    22
 74
     0
 42
0.0000000001
 43
0.0000000001
 12
1.0
 22
0.0
 32
0.0
 13
1.0
 23
0.0
 33
0.0
 40
0.0
 40
0.0
 40
0.0
 40
0.0
 40
1.0
 40
1.0
 40
1.0
 40
2.0
 40
2.0
 40
2.0
 40
3.0
 40
3.0
 40
3.0
 40
4.0
 40
4.0
 40
4.0
 40
5.0
 40
5.0
 40
5.0
 40
6.0
 40
6.0
 40
6.0
 40
7.0
 40
7.0
 40
7.0
 40
7.0
 10
-6.667911147002163
 20
-20.9940945276089
 30
0.0
 10
-3.896549200323989
 20
-21.42448422947069
 30
0.0
 10
-2.289989554997381
 20
-18.89441104662597
 30
0.0
 10
-1.682063957828025
 20
-16.55198639699847
 30
0.0
 10
-1.346329001152526
 20
-15.25835138324
 30
0.0
 10
-1.465151992845575
 20
-13.89629519060708
 30
0.0
 10
-0.8512983130158318
 20
-12.68342503659339
 30
0.0
 10
-0.3090335032375404
 20
-11.61200227745237
 30
0.0
 10
0.2407368145527471
 20
-10.53934782202365
 30
0.0
 10
-0.022261438351456
 20
-9.294712322183587
 30
0.0
 10
-0.5733251801706399
 20
-6.686810983794443
 30
0.0
 10
-3.791240058790638
 20
-5.741590542468227
 30
0.0
 10
-5.620739709267379
 20
-7.724573199640682
 30
0.0
 10
-6.553639764149365
 20
-8.735737442948485
 30
0.0
 10
-6.437657709317843
 20
-10.00740741321594
 30
0.0
 10
-6.942935025450348
 20
-11.1869583045747
 30
0.0
 10
-7.420006472762806
 20
-12.30066365597749
 30
0.0
 10
-8.373364948018207
 20
-13.14742123740471
 30
0.0
 10
-8.888097529022136
 20
-14.26107926047876
 30
0.0
 10
-10.01069430555433
 20
-16.68989172155097
 30
0.0
 10
-9.92739900706465
 20
-20.39846273106514
 30
0.0
 10
-6.667911147002163
 20
-20.9940945276089
 30
0.0
  0
SPLINE
  5
45
330
1F
100
AcDbEntity
  8
Layer 1
 62
     7
420
 16777215
370
    70
100
AcDbSpline
210
0.0
220
0.0
230
1.0
 70
    11
 71
     3
 72
    32
 73
    28
 74
     0
 42
0.0000000001
 43
0.0000000001
 12
1.0
 22
0.0
 32
0.0
 13
1.0
 23
0.0
 33
0.0
 40
0.0
 40
0.0
 40
0.0
 40
0.0
 40
1.0
 40
1.0
 40
1.0
 40
2.0
 40
2.0
 40
2.0
 40
3.0
 40
3.0
 40
3.0
 40
4.0
 40
4.0
 40
4.0
 40
5.0
 40
5.0
 40
5.0
 40
6.0
 40
6.0
 40
6.0
 40
7.0
 40
7.0
 40
7.0
 40
8.0
 40
8.0
 40
8.0
 40
9.0
 40
9.0
 40
9.0
 40
9.0
 10
25.83715991205263
 20
-21.90938165790986
 30
0.0
 10
24.62669662596014
 20
-21.61017421959554
 30
0.0
 10
23.64099276592833
 20
-20.99385083003265
 30
0.0
 10
22.6553582013064
 20
-20.2599857562675
 30
0.0
 10
21.61617107758916
 20
-19.48624753464277
 30
0.0
 10
20.61730217917597
 20
-19.46537208101083
 30
0.0
 10
19.4209804086843
 20
-19.08842501308542
 30
0.0
 10
17.01110270509722
 20
-18.32910059315708
 30
0.0
 10
15.90063212569736
 20
-15.04303441844445
 30
0.0
 10
18.16605621865402
 20
-13.38281734301755
 30
0.0
 10
19.14870174809112
 20
-12.66268512047453
 30
0.0
 10
20.45345768210639
 20
-12.49186976706657
 30
0.0
 10
21.59424299733263
 20
-12.93434630087151
 30
0.0
 10
22.14641323496986
 20
-13.14851663560406
 30
0.0
 10
22.62216648175457
 20
-13.4898742437106
 30
0.0
 10
23.15416953271223
 20
-13.7388800589078
 30
0.0
 10
23.76210124541611
 20
-14.02342453930805
 30
0.0
 10
24.40207391744833
 20
-14.05468118274987
 30
0.0
 10
25.05922970974208
 20
-14.09224642361846
 30
0.0
 10
27.28679099579527
 20
-14.21958133756306
 30
0.0
 10
29.85580088327485
 20
-14.91740697588971
 30
0.0
 10
30.74325026254986
 20
-17.21711282491333
 30
0.0
 10
31.28189633067346
 20
-18.61294175030985
 30
0.0
 10
30.92122559186972
 20
-20.15706711995431
 30
0.0
 10
29.80641008241069
 20
-21.15702616672264
 30
0.0
 10
28.71609531911998
 20
-22.13500871372429
 30
0.0
 10
27.20701943912778
 20
-22.21521466672458
 30
0.0
 10
25.83715991205263
 20
-21.90938165790986
 30
0.0
  0
SPLINE
  5
46
330
1F
100
AcDbEntity
  8
Layer 1
 62
     7
420
 16777215
370
    70
100
AcDbSpline
210
0.0
220
0.0
230
1.0
 70
     8
 71
     3
 72
   323
 73
   319
 74
     0
 42
0.0000000001
 43
0.0000000001
 12
1.0
 22
0.0
 32
0.0
 13
1.0
 23
0.0
 33
0.0
 40
0.0
 40
0.0
 40
0.0
 40
0.0
 40
1.0
 40
1.0
 40
1.0
 40
2.0
 40
2.0
 40
2.0
 40
3.0
 40
3.0
 40
3.0
 40
4.0
 40
4.0
 40
4.0
 40
5.0
 40
5.0
 40
5.0
 40
6.0
 40
6.0
 40
6.0
 40
7.0
 40
7.0
 40
7.0
 40
8.0
 40
8.0
 40
8.0
 40
9.0
 40
9.0
 40
9.0
 40
10.0
 40
10.0
 40
10.0
 40
11.0
 40
11.0
 40
11.0
 40
12.0
 40
12.0
 40
12.0
 40
13.0
 40
13.0
 40
13.0
 40
14.0
 40
14.0
 40
14.0
 40
15.0
 40
15.0
 40
15.0
 40
16.0
 40
16.0
 40
16.0
 40
17.0
 40
17.0
 40
17.0
 40
18.0
 40
18.0
 40
18.0
 40
19.0
 40
19.0
 40
19.0
 40
20.0
 40
20.0
 40
20.0
 40
21.0
 40
21.0
 40
21.0
 40
22.0
 40
22.0
 40
22.0
 40
23.0
 40
23.0
 40
23.0
 40
24.0
 40
24.0
 40
24.0
 40
25.0
 40
25.0
 40
25.0
 40
26.0
 40
26.0
 40
26.0
 40
27.0
 40
27.0
 40
27.0
 40
28.0
 40
28.0
 40
28.0
 40
29.0
 40
29.0
 40
29.0
 40
30.0
 40
30.0
 40
30.0
 40
31.0
 40
31.0
 40
31.0
 40
32.0
 40
32.0
 40
32.0
 40
33.0
 40
33.0
 40
33.0
 40
34.0
 40
34.0
 40
34.0
 40
35.0
 40
35.0
 40
35.0
 40
36.0
 40
36.0
 40
36.0
 40
37.0
 40
37.0
 40
37.0
 40
38.0
 40
38.0
 40
38.0
 40
39.0
 40
39.0
 40
39.0
 40
40.0
 40
40.0
 40
40.0
 40
41.0
 40
41.0
 40
41.0
 40
42.0
 40
42.0
 40
42.0
 40
43.0
 40
43.0
 40
43.0
 40
44.0
 40
44.0
 40
44.0
 40
45.0
 40
45.0
 40
45.0
 40
46.0
 40
46.0
 40
46.0
 40
47.0
 40
47.0
 40
47.0
 40
48.0
 40
48.0
 40
48.0
 40
49.0
 40
49.0
 40
49.0
 40
50.0
 40
50.0
 40
50.0
 40
51.0
 40
51.0
 40
51.0
 40
52.0
 40
52.0
 40
52.0
 40
53.0
 40
53.0
 40
53.0
 40
54.0
 40
54.0
 40
54.0
 40
55.0
 40
55.0
 40
55.0
 40
56.0
 40
56.0
 40
56.0
 40
57.0
 40
57.0
 40
57.0
 40
58.0
 40
58.0
 40
58.0
 40
59.0
 40
59.0
 40
59.0
 40
60.0
 40
60.0
 40
60.0
 40
61.0
 40
61.0
 40
61.0
 40
62.0
 40
62.0
 40
62.0
 40
63.0
 40
63.0
 40
63.0
 40
64.0
 40
64.0
 40
64.0
 40
65.0
 40
65.0
 40
65.0
 40
66.0
 40
66.0
 40
66.0
 40
67.0
 40
67.0
 40
67.0
 40
68.0
 40
68.0
 40
68.0
 40
69.0
 40
69.0
 40
69.0
 40
70.0
 40
70.0
 40
70.0
 40
71.0
 40
71.0
 40
71.0
 40
72.0
 40
72.0
 40
72.0
 40
73.0
 40
73.0
 40
73.0
 40
74.0
 40
74.0
 40
74.0
 40
75.0
 40
75.0
 40
75.0
 40
76.0
 40
76.0
 40
76.0
 40
77.0
 40
77.0
 40
77.0
 40
78.0
 40
78.0
 40
78.0
 40
79.0
 40
79.0
 40
79.0
 40
80.0
 40
80.0
 40
80.0
 40
81.0
 40
81.0
 40
81.0
 40
82.0
 40
82.0
 40
82.0
 40
83.0
 40
83.0
 40
83.0
 40
84.0
 40
84.0
 40
84.0
 40
85.0
 40
85.0
 40
85.0
 40
86.0
 40
86.0
 40
86.0
 40
87.0
 40
87.0
 40
87.0
 40
88.0
 40
88.0
 40
88.0
 40
89.0
 40
89.0
 40
89.0
 40
90.0
 40
90.0
 40
90.0
 40
91.0
 40
91.0
 40
91.0
 40
92.0
 40
92.0
 40
92.0
 40
93.0
 40
93.0
 40
93.0
 40
94.0
 40
94.0
 40
94.0
 40
95.0
 40
95.0
 40
95.0
 40
96.0
 40
96.0
 40
96.0
 40
97.0
 40
97.0
 40
97.0
 40
98.0
 40
98.0
 40
98.0
 40
99.0
 40
99.0
 40
99.0
 40
100.0
 40
100.0
 40
100.0
 40
101.0
 40
101.0
 40
101.0
 40
102.0
 40
102.0
 40
102.0
 40
103.0
 40
103.0
 40
103.0
 40
104.0
 40
104.0
 40
104.0
 40
105.0
 40
105.0
 40
105.0
 40
106.0
 40
106.0
 40
106.0
 40
106.0
 10
-2.784019700390622
 20
-32.39037872415818
 30
0.0
 10
-2.41956553219648
 20
-32.47129847949665
 30
0.0
 10
-2.216297589647764
 20
-32.72090936868305
 30
0.0
 10
-1.84421366715085
 20
-32.4758369016614
 30
0.0
 10
-1.554065780118587
 20
-32.28473147039472
 30
0.0
 10
-1.467510443497405
 20
-31.73662266874973
 30
0.0
 10
-1.371895915856157
 20
-31.45253918598974
 30
0.0
 10
-1.251403482777884
 20
-31.09454013626861
 30
0.0
 10
-1.174651395538528
 20
-30.82584089923001
 30
0.0
 10
-0.8786521554367128
 20
-30.55333591003571
 30
0.0
 10
-0.6579894937552934
 20
-30.35018783365402
 30
0.0
 10
-0.3611542290995354
 20
-30.29479711593679
 30
0.0
 10
-0.2237288710887242
 20
-30.01306251044151
 30
0.0
 10
-0.0307747826659074
 20
-29.61748890767027
 30
0.0
 10
-0.1481462623195916
 20
-29.31320757603319
 30
0.0
 10
0.3588798615673517
 20
-29.09541994984223
 30
0.0
 10
0.6798478869650858
 20
-28.95755158164333
 30
0.0
 10
1.000087294563855
 20
-29.04560716445318
 30
0.0
 10
1.332660515886194
 20
-29.06778296866514
 30
0.0
 10
1.81060278914611
 20
-29.09965190337473
 30
0.0
 10
1.93267869472129
 20
-28.97369990649986
 30
0.0
 10
2.388448403835203
 20
-28.76721747866446
 30
0.0
 10
2.746472490074325
 20
-28.6050178390836
 30
0.0
 10
3.15750517665904
 20
-28.63820245692305
 30
0.0
 10
3.343165002077714
 20
-28.28216688626111
 30
0.0
 10
3.523990272821619
 20
-27.93540242973833
 30
0.0
 10
3.333755899539458
 20
-27.55606282661665
 30
0.0
 10
3.67779190027919
 20
-27.22726006237473
 30
0.0
 10
3.918099381252103
 20
-26.99759292334862
 30
0.0
 10
4.298536907097463
 20
-26.9177455366986
 30
0.0
 10
4.58507946803848
 20
-26.75425111733764
 30
0.0
 10
5.260700470903556
 20
-26.36875772602904
 30
0.0
 10
5.516801575418463
 20
-25.85749521697057
 30
0.0
 10
5.935526003226035
 20
-25.24690511782862
 30
0.0
 10
6.378898162190605
 20
-24.60037333577682
 30
0.0
 10
7.004983618427508
 20
-24.16874918837458
 30
0.0
 10
7.807263463329289
 20
-24.29649812599541
 30
0.0
 10
8.674216955760306
 20
-24.43454520312
 30
0.0
 10
8.975660302780119
 20
-24.74836177418597
 30
0.0
 10
9.463102359703523
 20
-25.42050384890126
 30
0.0
 10
9.692372044162665
 20
-25.73664768424098
 30
0.0
 10
9.89093712013515
 20
-26.01900055973263
 30
0.0
 10
10.04459445519781
 20
-26.37788258290473
 30
0.0
 10
10.10448807471145
 20
-26.51777010169707
 30
0.0
 10
10.12230662055435
 20
-26.71623305905458
 30
0.0
 10
10.21794844207678
 20
-26.83281045159765
 30
0.0
 10
10.35100759306598
 20
-26.99499566126236
 30
0.0
 10
10.57803918148895
 20
-27.00630294662
 30
0.0
 10
10.67826254356065
 20
-27.17016520547458
 30
0.0
 10
10.86437680545921
 20
-27.47445656758165
 30
0.0
 10
10.60940386753123
 20
-27.8134214383875
 30
0.0
 10
10.67826609548057
 20
-28.1081891897682
 30
0.0
 10
10.76968289060442
 20
-28.49950274350514
 30
0.0
 10
11.17635950728128
 20
-28.70813390065112
 30
0.0
 10
11.54133594419353
 20
-28.72303565468165
 30
0.0
 10
11.92199346280512
 20
-28.73857765722889
 30
0.0
 10
12.21337452717082
 20
-28.58981776412014
 30
0.0
 10
12.61232706406761
 20
-28.64966922728763
 30
0.0
 10
12.97836846462691
 20
-28.70458331199001
 30
0.0
 10
13.35640776095208
 20
-28.79668579067624
 30
0.0
 10
13.71763987833487
 20
-28.87918211198833
 30
0.0
 10
14.32559595798653
 20
-29.01802397481611
 30
0.0
 10
15.18566326307152
 20
-29.22278925215293
 30
0.0
 10
15.70838745855457
 20
-29.54409542471027
 30
0.0
 10
16.06911457777569
 20
-29.76582583439125
 30
0.0
 10
16.19590948022847
 20
-30.02932760653223
 30
0.0
 10
16.64077860533403
 20
-30.14552476598166
 30
0.0
 10
16.96946885869223
 20
-30.23137669776014
 30
0.0
 10
17.3251561906714
 20
-30.32711727784277
 30
0.0
 10
17.66724488724806
 20
-30.38412041723513
 30
0.0
 10
18.36340468811682
 20
-30.50012335613807
 30
0.0
 10
19.08912753230819
 20
-30.64851526680041
 30
0.0
 10
19.74974261733167
 20
-30.95090331715278
 30
0.0
 10
20.3531271164582
 20
-31.22709480360249
 30
0.0
 10
20.95316626638376
 20
-31.5343180205154
 30
0.0
 10
21.56153737010555
 20
-31.81573085878972
 30
0.0
 10
21.9033062115989
 20
-31.97382209476402
 30
0.0
 10
22.29769601142028
 20
-31.93309957930208
 30
0.0
 10
22.65535820130625
 20
-32.0285700167346
 30
0.0
 10
22.95988351127943
 20
-32.109856675975
 30
0.0
 10
23.26948520659167
 20
-32.33273068927097
 30
0.0
 10
23.60309059746917
 20
-32.29790499747292
 30
0.0
 10
24.31445966635041
 20
-32.22364384754832
 30
0.0
 10
24.97341016127833
 20
-31.46433754181554
 30
0.0
 10
25.48033810014208
 20
-31.02556873238889
 30
0.0
 10
26.05248318838666
 20
-30.53035156256571
 30
0.0
 10
26.64614123296471
 20
-30.29889605020528
 30
0.0
 10
27.32750693042832
 20
-29.97707953237821
 30
0.0
 10
27.95424938145958
 20
-29.68106217500889
 30
0.0
 10
28.59781391015736
 20
-29.24187108567099
 30
0.0
 10
29.23831518973793
 20
-29.01300292989986
 30
0.0
 10
29.94616273064265
 20
-28.760070162365
 30
0.0
 10
30.66219015235068
 20
-29.16387663010194
 30
0.0
 10
31.33200432401708
 20
-29.38363389216528
 30
0.0
 10
32.05847675636639
 20
-29.62197998791958
 30
0.0
 10
32.60742603834542
 20
-29.96899514895014
 30
0.0
 10
33.38611815491431
 20
-29.8105716173614
 30
0.0
 10
33.7511426695246
 20
-29.73630802653957
 30
0.0
 10
34.10756722470695
 20
-29.58684769110929
 30
0.0
 10
34.47425471153888
 20
-29.52226092750652
 30
0.0
 10
34.75975041453166
 20
-29.47197493700777
 30
0.0
 10
35.10742654431488
 20
-29.53976916358695
 30
0.0
 10
35.37432864950458
 20
-29.42943336194541
 30
0.0
 10
36.0187521200661
 20
-29.16303239005902
 30
0.0
 10
35.95351872183012
 20
-28.10688637095902
 30
0.0
 10
36.53627936336041
 20
-27.66795764329168
 30
0.0
 10
37.11446673110041
 20
-27.23247345374665
 30
0.0
 10
37.66388471473207
 20
-26.98618439114903
 30
0.0
 10
37.86035390826555
 20
-26.19762670827971
 30
0.0
 10
38.03506561307916
 20
-25.4963958708132
 30
0.0
 10
38.16428717959972
 20
-24.65226257996278
 30
0.0
 10
38.64441282147666
 20
-24.12065069135987
 30
0.0
 10
39.19878478478972
 20
-23.50683068113666
 30
0.0
 10
39.63395399773736
 20
-23.05079747893764
 30
0.0
 10
39.52631900873583
 20
-22.16525486229888
 30
0.0
 10
39.34460526160971
 20
-20.67024595671874
 30
0.0
 10
38.07658971191166
 20
-19.41022096416999
 30
0.0
 10
38.07690818412458
 20
-17.91989784909527
 30
0.0
 10
38.07705575065069
 20
-17.22934528052443
 30
0.0
 10
38.41209791604013
 20
-16.58411667478236
 30
0.0
 10
38.48669585178555
 20
-15.90300387718707
 30
0.0
 10
38.52743506189598
 20
-15.53103651518306
 30
0.0
 10
38.47119188119902
 20
-15.26436220987443
 30
0.0
 10
38.37376923076403
 20
-14.90354504093597
 30
0.0
 10
38.23061185385583
 20
-14.37334349932361
 30
0.0
 10
38.2379665057807
 20
-14.29480082459958
 30
0.0
 10
38.61732080629263
 20
-13.85904049364859
 30
0.0
 10
39.12607243386765
 20
-13.2746428018213
 30
0.0
 10
39.04907722067276
 20
-12.58606377467979
 30
0.0
 10
38.97684715148403
 20
-11.81986654518818
 30
0.0
 10
38.89645984866749
 20
-10.96713956602156
 30
0.0
 10
38.46136545117709
 20
-10.49501203869739
 30
0.0
 10
38.1185094748868
 20
-9.75830129379781
 30
0.0
 10
37.80901786145361
 20
-9.093282122950464
 30
0.0
 10
37.2971825854293
 20
-8.603633270506217
 30
0.0
 10
37.05297613361846
 20
-7.925590299678775
 30
0.0
 10
36.76913729418695
 20
-7.13750739483593
 30
0.0
 10
36.84381278337221
 20
-6.358298388789851
 30
0.0
 10
35.79686909788804
 20
-6.462749856278871
 30
0.0
 10
35.26294263638874
 20
-6.516018626326449
 30
0.0
 10
34.29591962710876
 20
-7.094145884255504
 30
0.0
 10
33.76456202539195
 20
-6.635164106640698
 30
0.0
 10
33.31309530313167
 20
-6.245191331155044
 30
0.0
 10
33.72203464726709
 20
-6.128482975061034
 30
0.0
 10
34.01800673141666
 20
-6.026342712679871
 30
0.0
 10
34.45380860235959
 20
-5.875947050966702
 30
0.0
 10
34.61446909619667
 20
-5.848568099887302
 30
0.0
 10
34.5650328381218
 20
-5.428851435722359
 30
0.0
 10
34.50485544720709
 20
-4.917941938191385
 30
0.0
 10
33.82299472477055
 20
-4.004246351956921
 30
0.0
 10
33.5066985055164
 20
-3.582964848513206
 30
0.0
 10
32.7727378566632
 20
-2.605387416994669
 30
0.0
 10
32.45098364421556
 20
-3.391698437826044
 30
0.0
 10
31.99933091258971
 20
-4.055539035737853
 30
0.0
 10
31.00986906857694
 20
-5.509853149539278
 30
0.0
 10
29.23330753849152
 20
-3.493793121477033
 30
0.0
 10
27.99750764484055
 20
-3.667613282249615
 30
0.0
 10
26.38477582405403
 20
-3.894450414873088
 30
0.0
 10
24.76349464878666
 20
-4.05407374146849
 30
0.0
 10
23.15416953271223
 20
-3.67354184998203
 30
0.0
 10
22.57282706380278
 20
-3.536080906207581
 30
0.0
 10
21.88758769783903
 20
-3.456706735171742
 30
0.0
 10
21.28485093004792
 20
-3.469294659375047
 30
0.0
 10
20.95065625866126
 20
-3.476274185790847
 30
0.0
 10
20.6356879608082
 20
-3.688014951546178
 30
0.0
 10
20.3040219699525
 20
-3.692275201644861
 30
0.0
 10
19.92066409451013
 20
-3.697199434070601
 30
0.0
 10
19.71310382110985
 20
-3.447668648360124
 30
0.0
 10
19.41754575853904
 20
-3.222914595139337
 30
0.0
 10
19.15949467910362
 20
-3.026682336960852
 30
0.0
 10
18.90174468267194
 20
-2.86594476663327
 30
0.0
 10
18.61079109212263
 20
-2.721205277673461
 30
0.0
 10
18.23221046194569
 20
-2.532874324828311
 30
0.0
 10
18.07455176300042
 20
-2.602554410276866
 30
0.0
 10
17.68696007225624
 20
-2.561251162254242
 30
0.0
 10
17.27257113064388
 20
-2.517092297030912
 30
0.0
 10
17.06978074681613
 20
-2.196424451757252
 30
0.0
 10
16.70391144413361
 20
-2.079128906972262
 30
0.0
 10
16.42983295767749
 20
-1.991260957551503
 30
0.0
 10
16.01513322075375
 20
-2.02086178621193
 30
0.0
 10
15.73172966117833
 20
-2.06794238901552
 30
0.0
 10
15.42163973967389
 20
-2.119456281253242
 30
0.0
 10
15.09492910942681
 20
-2.289784480221783
 30
0.0
 10
14.77606024633279
 20
-2.288475005422747
 30
0.0
 10
14.36306376996943
 20
-2.286778983827415
 30
0.0
 10
14.1724906538364
 20
-2.079339126596968
 30
0.0
 10
13.83422944962189
 20
-1.89327029218604
 30
0.0
 10
13.33234110379304
 20
-1.617194353387061
 30
0.0
 10
12.3958402776046
 20
-1.414261803030008
 30
0.0
 10
11.8238196249142
 20
-1.454254230546225
 30
0.0
 10
11.38312231492617
 20
-1.485065277565948
 30
0.0
 10
11.19027003208056
 20
-1.652254784084688
 30
0.0
 10
10.7246318427732
 20
-1.606305704793057
 30
0.0
 10
10.40628327549542
 20
-1.574891134647967
 30
0.0
 10
10.06708424658675
 20
-1.595215735216508
 30
0.0
 10
9.758165606323674
 20
-1.489534309035927
 30
0.0
 10
8.985252018169477
 20
-1.225119671444215
 30
0.0
 10
8.75404520113155
 20
-0.5763805552087433
 30
0.0
 10
8.200394015097975
 20
-0.0662485528482522
 30
0.0
 10
7.680382112763633
 20
0.4128883472089405
 30
0.0
 10
6.95839922746965
 20
0.4423465430260952
 30
0.0
 10
6.300216332507325
 20
0.5832383912676025
 30
0.0
 10
5.915087214374491
 20
0.6656798428469098
 30
0.0
 10
5.536093402057834
 20
0.7236122266504658
 30
0.0
 10
5.142973942162371
 20
0.6611426500180894
 30
0.0
 10
4.801655999538903
 20
0.6069047158837925
 30
0.0
 10
4.478921871539013
 20
0.4330942515847482
 30
0.0
 10
4.117387014127467
 20
0.4301472193299358
 30
0.0
 10
2.749522777137018
 20
0.4189971464006577
 30
0.0
 10
1.417323062694752
 20
0.3079691097615674
 30
0.0
 10
0.0236085624092589
 20
0.5334350198015854
 30
0.0
 10
-0.7073064703198623
 20
0.6516776175376687
 30
0.0
 10
-1.292785239564081
 20
1.025799935805973
 30
0.0
 10
-2.004099281258075
 20
1.18439924545223
 30
0.0
 10
-2.635428706901596
 20
1.32516465313064
 30
0.0
 10
-3.276600180412945
 20
1.161111486918698
 30
0.0
 10
-3.898403103199674
 20
1.321897425685127
 30
0.0
 10
-4.699375292358607
 20
1.529012993399963
 30
0.0
 10
-5.377992944515628
 20
1.436345902191293
 30
0.0
 10
-6.184761245185958
 20
1.527027775799689
 30
0.0
 10
-6.603035269189174
 20
1.574042355012592
 30
0.0
 10
-6.936464792277825
 20
1.739570702171363
 30
0.0
 10
-7.374944140507523
 20
1.664482635295359
 30
0.0
 10
-7.710547103254081
 20
1.607011792455801
 30
0.0
 10
-7.964838343717524
 20
1.403226452075235
 30
0.0
 10
-8.284391407106998
 20
1.319444444444444
 30
0.0
 10
-8.939354659982655
 20
1.147722929187239
 30
0.0
 10
-9.705482229363737
 20
1.229321822064599
 30
0.0
 10
-10.38104911950477
 20
1.101003781992871
 30
0.0
 10
-10.81292626486237
 20
1.018972484052129
 30
0.0
 10
-11.16154364610313
 20
1.110064491829058
 30
0.0
 10
-11.58759596342675
 20
1.089618356522793
 30
0.0
 10
-11.97610108471062
 20
1.07097410098432
 30
0.0
 10
-12.2277012617358
 20
0.8794201160675482
 30
0.0
 10
-12.57660079472197
 20
0.7165442794608654
 30
0.0
 10
-13.33283081665996
 20
0.3635154392212851
 30
0.0
 10
-13.74972570423478
 20
0.0872830485447796
 30
0.0
 10
-14.06419594907486
 20
-0.7362796747015888
 30
0.0
 10
-14.19940025909542
 20
-1.090364779992645
 30
0.0
 10
-14.31632206673112
 20
-1.454090978794701
 30
0.0
 10
-14.45086999847972
 20
-1.810147849679298
 30
0.0
 10
-14.55651021900055
 20
-2.089705668735342
 30
0.0
 10
-14.59175220904027
 20
-2.865300106958696
 30
0.0
 10
-14.74494703469458
 20
-3.067726125509378
 30
0.0
 10
-14.86968835231028
 20
-3.232554723119367
 30
0.0
 10
-15.22438065425514
 20
-3.187997751211128
 30
0.0
 10
-15.46053912442222
 20
-3.316436391898113
 30
0.0
 10
-15.78189038414764
 20
-3.491208522463593
 30
0.0
 10
-15.93409296426139
 20
-3.801993538940552
 30
0.0
 10
-16.22516331334639
 20
-4.01645710624286
 30
0.0
 10
-16.8804020521025
 20
-4.499243614006395
 30
0.0
 10
-17.53981718253917
 20
-4.711756305033001
 30
0.0
 10
-17.61943281584957
 20
-5.637541443829011
 30
0.0
 10
-17.67984864723681
 20
-6.340067775916585
 30
0.0
 10
-18.01111674270055
 20
-6.959425291454623
 30
0.0
 10
-18.08165283948527
 20
-7.673775417462227
 30
0.0
 10
-18.15416801227389
 20
-8.408168518019856
 30
0.0
 10
-18.30673942834083
 20
-9.156466300246139
 30
0.0
 10
-18.50058396642541
 20
-9.873430180318488
 30
0.0
 10
-18.72081645079806
 20
-10.68799394401291
 30
0.0
 10
-18.79690490045639
 20
-11.24594620305894
 30
0.0
 10
-18.71099386488028
 20
-12.08710031160818
 30
0.0
 10
-18.64110831887458
 20
-12.77134900860912
 30
0.0
 10
-18.86166591906375
 20
-13.44954493579497
 30
0.0
 10
-18.83786495453763
 20
-14.13971269522987
 30
0.0
 10
-18.81435950726709
 20
-14.82131120185416
 30
0.0
 10
-18.95915424780431
 20
-15.51190459318569
 30
0.0
 10
-18.90726585366582
 20
-16.18662881419666
 30
0.0
 10
-18.85386508253056
 20
-16.88101903967792
 30
0.0
 10
-18.59300677114846
 20
-17.58367626720403
 30
0.0
 10
-18.47468121013028
 20
-18.2721806879607
 30
0.0
 10
-18.35342487305985
 20
-18.97773850149959
 30
0.0
 10
-18.19453417516499
 20
-19.64139721249904
 30
0.0
 10
-17.9588578316
 20
-20.31356900475834
 30
0.0
 10
-17.71801098253916
 20
-21.00048758022654
 30
0.0
 10
-17.65600465649167
 20
-21.73084373159597
 30
0.0
 10
-17.44336173711597
 20
-22.43738774106916
 30
0.0
 10
-17.23602634382014
 20
-23.12629654891945
 30
0.0
 10
-17.21278958186667
 20
-23.85361558344625
 30
0.0
 10
-17.01533433364194
 20
-24.54113610038376
 30
0.0
 10
-16.91507093155125
 20
-24.89024379265834
 30
0.0
 10
-16.70648037019098
 20
-25.21611544986071
 30
0.0
 10
-16.61413191708944
 20
-25.56383937689235
 30
0.0
 10
-16.52152604872819
 20
-25.91253256157764
 30
0.0
 10
-16.57419432851625
 20
-26.31374122298833
 30
0.0
 10
-16.32479226987277
 20
-26.61532233794555
 30
0.0
 10
-15.92074198678402
 20
-27.10390665651695
 30
0.0
 10
-15.11672161166805
 20
-27.22352027994
 30
0.0
 10
-14.55376192432542
 20
-27.42743780991708
 30
0.0
 10
-14.23169407393875
 20
-27.5440985265057
 30
0.0
 10
-13.9675286551257
 20
-27.72824772963013
 30
0.0
 10
-13.66248395887374
 20
-27.86231311759292
 30
0.0
 10
-13.3478330213553
 20
-28.00060039329236
 30
0.0
 10
-12.97548308045758
 20
-27.94348914213651
 30
0.0
 10
-12.68530690802294
 20
-28.08405135709098
 30
0.0
 10
-12.38427345236182
 20
-28.22987287285554
 30
0.0
 10
-12.18528870741458
 20
-28.60953043684501
 30
0.0
 10
-11.95753124741595
 20
-28.83964586093167
 30
0.0
 10
-11.64153653835585
 20
-29.15891205087332
 30
0.0
 10
-11.28595272599337
 20
-29.22850193573847
 30
0.0
 10
-10.91562194139845
 20
-29.45963076993959
 30
0.0
 10
-10.62567995101342
 20
-29.6405877873179
 30
0.0
 10
-10.43865488829923
 20
-29.91914835714056
 30
0.0
 10
-10.16373170473254
 20
-30.13415832167069
 30
0.0
 10
-9.823505821972882
 20
-30.40023975589305
 30
0.0
 10
-9.419065381272882
 20
-30.52927231320389
 30
0.0
 10
-9.268567008666233
 20
-30.98163452796348
 30
0.0
 10
-9.028334802060435
 20
-31.70371524654249
 30
0.0
 10
-9.364244296290822
 20
-32.20191019940666
 30
0.0
 10
-8.502409264238496
 20
-32.63280435987778
 30
0.0
 10
-7.834929063656747
 20
-32.96652637159013
 30
0.0
 10
-7.237685775654022
 20
-33.18020754300223
 30
0.0
 10
-6.518704633725797
 20
-33.0562764261043
 30
0.0
 10
-5.76682839104837
 20
-32.92667516525054
 30
0.0
 10
-5.259477062672153
 20
-32.76578986769138
 30
0.0
 10
-4.603646079430897
 20
-32.38098406521193
 30
0.0
 10
-3.910884558833029
 20
-31.97450944038847
 30
0.0
 10
-3.468232994195887
 20
-31.99209569125471
 30
0.0
 10
-2.784019700390622
 20
-32.39037466482124
 30
0.0
  0
SPLINE
  5
47
330
1F
100
AcDbEntity
  8
Layer 1
 62
     7
420
 16777215
370
    70
100
AcDbSpline
210
0.0
220
0.0
230
1.0
 70
     8
 71
     3
 72
   194
 73
   190
 74
     0
 42
0.0000000001
 43
0.0000000001
 12
1.0
 22
0.0
 32
0.0
 13
1.0
 23
0.0
 33
0.0
 40
0.0
 40
0.0
 40
0.0
 40
0.0
 40
1.0
 40
1.0
 40
1.0
 40
2.0
 40
2.0
 40
2.0
 40
3.0
 40
3.0
 40
3.0
 40
4.0
 40
4.0
 40
4.0
 40
5.0
 40
5.0
 40
5.0
 40
6.0
 40
6.0
 40
6.0
 40
7.0
 40
7.0
 40
7.0
 40
8.0
 40
8.0
 40
8.0
 40
9.0
 40
9.0
 40
9.0
 40
10.0
 40
10.0
 40
10.0
 40
11.0
 40
11.0
 40
11.0
 40
12.0
 40
12.0
 40
12.0
 40
13.0
 40
13.0
 40
13.0
 40
14.0
 40
14.0
 40
14.0
 40
15.0
 40
15.0
 40
15.0
 40
16.0
 40
16.0
 40
16.0
 40
17.0
 40
17.0
 40
17.0
 40
18.0
 40
18.0
 40
18.0
 40
19.0
 40
19.0
 40
19.0
 40
20.0
 40
20.0
 40
20.0
 40
21.0
 40
21.0
 40
21.0
 40
22.0
 40
22.0
 40
22.0
 40
23.0
 40
23.0
 40
23.0
 40
24.0
 40
24.0
 40
24.0
 40
25.0
 40
25.0
 40
25.0
 40
26.0
 40
26.0
 40
26.0
 40
27.0
 40
27.0
 40
27.0
 40
28.0
 40
28.0
 40
28.0
 40
29.0
 40
29.0
 40
29.0
 40
30.0
 40
30.0
 40
30.0
 40
31.0
 40
31.0
 40
31.0
 40
32.0
 40
32.0
 40
32.0
 40
33.0
 40
33.0
 40
33.0
 40
34.0
 40
34.0
 40
34.0
 40
35.0
 40
35.0
 40
35.0
 40
36.0
 40
36.0
 40
36.0
 40
37.0
 40
37.0
 40
37.0
 40
38.0
 40
38.0
 40
38.0
 40
39.0
 40
39.0
 40
39.0
 40
40.0
 40
40.0
 40
40.0
 40
41.0
 40
41.0
 40
41.0
 40
42.0
 40
42.0
 40
42.0
 40
43.0
 40
43.0
 40
43.0
 40
44.0
 40
44.0
 40
44.0
 40
45.0
 40
45.0
 40
45.0
 40
46.0
 40
46.0
 40
46.0
 40
47.0
 40
47.0
 40
47.0
 40
48.0
 40
48.0
 40
48.0
 40
49.0
 40
49.0
 40
49.0
 40
50.0
 40
50.0
 40
50.0
 40
51.0
 40
51.0
 40
51.0
 40
52.0
 40
52.0
 40
52.0
 40
53.0
 40
53.0
 40
53.0
 40
54.0
 40
54.0
 40
54.0
 40
55.0
 40
55.0
 40
55.0
 40
56.0
 40
56.0
 40
56.0
 40
57.0
 40
57.0
 40
57.0
 40
58.0
 40
58.0
 40
58.0
 40
59.0
 40
59.0
 40
59.0
 40
60.0
 40
60.0
 40
60.0
 40
61.0
 40
61.0
 40
61.0
 40
62.0
 40
62.0
 40
62.0
 40
63.0
 40
63.0
 40
63.0
 40
63.0
 10
35.58222759431207
 20
14.75802210051736
 30
0.0
 10
34.74181033127876
 20
13.80802566242806
 30
0.0
 10
33.98796511603418
 20
12.76620618565428
 30
0.0
 10
32.91132389090972
 20
12.05983559309157
 30
0.0
 10
31.84431968278401
 20
11.35978772461666
 30
0.0
 10
30.78677578628806
 20
10.79671046036808
 30
0.0
 10
29.55740426140306
 20
10.45387561225713
 30
0.0
 10
28.94092104592179
 20
10.28195693245675
 30
0.0
 10
28.32628903751209
 20
10.08396096640409
 30
0.0
 10
27.69985672122445
 20
9.951753384105055
 30
0.0
 10
27.15942903038043
 20
9.837696946472116
 30
0.0
 10
26.64683222682262
 20
9.918357624755686
 30
0.0
 10
26.1054536728486
 20
9.856758301721356
 30
0.0
 10
24.96328126601737
 20
9.726799243437982
 30
0.0
 10
23.77391863511821
 20
9.146933640927676
 30
0.0
 10
22.61068925688263
 20
9.315768429145514
 30
0.0
 10
22.02694796123486
 20
9.400494485647135
 30
0.0
 10
21.49162748071361
 20
9.656683854819802
 30
0.0
 10
20.8952195267793
 20
9.716027176698237
 30
0.0
 10
20.12189548228055
 20
9.792973866269222
 30
0.0
 10
19.90202135975056
 20
9.946017393658924
 30
0.0
 10
19.25928032731473
 20
10.36431953404551
 30
0.0
 10
18.73792579509485
 20
10.70362215473139
 30
0.0
 10
18.24345546984
 20
10.83981073533384
 30
0.0
 10
17.7728099757807
 20
11.27985428390396
 30
0.0
 10
17.3857606955636
 20
11.64173714667009
 30
0.0
 10
16.99095329272457
 20
12.03798843765647
 30
0.0
 10
16.48750615862819
 20
12.22606747319196
 30
0.0
 10
15.8931493322736
 20
12.44810877821467
 30
0.0
 10
15.26009071877277
 20
12.42176730059941
 30
0.0
 10
14.67437689881318
 20
12.71175902739151
 30
0.0
 10
14.13769634490611
 20
12.97747398111076
 30
0.0
 10
13.58032688287191
 20
13.31194640169252
 30
0.0
 10
13.14274033407206
 20
13.725196867182
 30
0.0
 10
12.3033812664133
 20
14.51787554154735
 30
0.0
 10
11.30690983215118
 20
15.56418962746194
 30
0.0
 10
10.87271442711585
 20
16.63486569915805
 30
0.0
 10
10.65426387006487
 20
17.17353971912875
 30
0.0
 10
10.66354424094465
 20
17.82024573269223
 30
0.0
 10
10.36991631935214
 20
18.2835918101943
 30
0.0
 10
9.958136275467723
 20
18.93338242647042
 30
0.0
 10
9.564785230632676
 20
18.98278978806333
 30
0.0
 10
8.871551114346907
 20
18.7724768974382
 30
0.0
 10
8.301062900110663
 20
18.59940257437041
 30
0.0
 10
7.767192397059185
 20
18.33696940048847
 30
0.0
 10
7.192206927725843
 20
18.17791407505986
 30
0.0
 10
6.421830020212787
 20
17.96480860324805
 30
0.0
 10
6.230357552266796
 20
17.73436326940583
 30
0.0
 10
5.695772933508452
 20
17.19941697855611
 30
0.0
 10
5.285045180728477
 20
16.78841134878514
 30
0.0
 10
4.842815741773872
 20
16.41429884364236
 30
0.0
 10
4.366622187676082
 20
16.08717284634958
 30
0.0
 10
3.831156372850121
 20
15.71932916769458
 30
0.0
 10
3.648862145452995
 20
15.20260411370694
 30
0.0
 10
3.242206133454475
 20
14.71753224354208
 30
0.0
 10
2.411101522199008
 20
13.72616495475422
 30
0.0
 10
1.408837145985242
 20
13.38865454618958
 30
0.0
 10
0.3298936582526342
 20
12.76277677489404
 30
0.0
 10
-0.7132230599728346
 20
12.15768153661046
 30
0.0
 10
-1.574880079465503
 20
11.30315742940391
 30
0.0
 10
-2.686232000871617
 20
10.80884369785432
 30
0.0
 10
-3.272462458793193
 20
10.54809662069394
 30
0.0
 10
-3.719878776922643
 20
10.54412643077904
 30
0.0
 10
-4.339033986954342
 20
10.64204516437692
 30
0.0
 10
-4.971910657560329
 20
10.74213393227443
 30
0.0
 10
-5.536035118833348
 20
10.65344828721148
 30
0.0
 10
-6.163228238324387
 20
10.60866016199806
 30
0.0
 10
-7.188645300427829
 20
10.53543469707152
 30
0.0
 10
-8.496023958089584
 20
10.90899234545423
 30
0.0
 10
-9.420848338172732
 20
11.30120263791479
 30
0.0
 10
-10.00975844177098
 20
11.55095449236362
 30
0.0
 10
-10.63690714352694
 20
11.47388203970069
 30
0.0
 10
-11.17397311732168
 20
11.85499332905025
 30
0.0
 10
-11.70900230010468
 20
12.23465927632548
 30
0.0
 10
-12.16435772097513
 20
12.7241593488252
 30
0.0
 10
-12.7088411022526
 20
13.08712253763714
 30
0.0
 10
-13.69264909693589
 20
13.74294803976934
 30
0.0
 10
-14.141723426795
 20
14.96935020886945
 30
0.0
 10
-14.73027974625194
 20
15.98721015030375
 30
0.0
 10
-15.34326536637764
 20
17.04731856605736
 30
0.0
 10
-15.78056747230361
 20
17.92129895132694
 30
0.0
 10
-16.04803098578889
 20
19.12964085883736
 30
0.0
 10
-16.30406867776792
 20
20.28636339302097
 30
0.0
 10
-16.22548004716014
 20
21.52276805110653
 30
0.0
 10
-16.29208517677403
 20
22.69884438200139
 30
0.0
 10
-16.35410794652459
 20
23.79400795127958
 30
0.0
 10
-16.06341257190348
 20
25.15035096412195
 30
0.0
 10
-15.76207115683528
 20
26.19823932809014
 30
0.0
 10
-15.43365176190153
 20
27.34028899416333
 30
0.0
 10
-14.97050764240208
 20
28.39403167930833
 30
0.0
 10
-14.30454371166403
 20
29.38486064526569
 30
0.0
 10
-13.6131735264484
 20
30.41348933533903
 30
0.0
 10
-12.46558846799014
 20
31.14655616574638
 30
0.0
 10
-11.88261056377901
 20
32.26694120810875
 30
0.0
 10
-11.6230071788422
 20
32.76585505600737
 30
0.0
 10
-11.4655594564385
 20
33.20088499018068
 30
0.0
 10
-11.00596354830394
 20
33.56183408134638
 30
0.0
 10
-10.51866819127458
 20
33.94453726284972
 30
0.0
 10
-9.900137520990786
 20
33.97826948219902
 30
0.0
 10
-9.33932074527911
 20
34.24943222371069
 30
0.0
 10
-8.81580820643492
 20
34.50255784583319
 30
0.0
 10
-8.281520851128436
 20
34.50448233320723
 30
0.0
 10
-7.772133014448829
 20
34.78906564345485
 30
0.0
 10
-7.244869625413937
 20
35.08363561513306
 30
0.0
 10
-6.731581953157981
 20
35.23839609395277
 30
0.0
 10
-6.16449855709906
 20
35.44051515015917
 30
0.0
 10
-5.063042220352195
 20
35.83309464866513
 30
0.0
 10
-4.006341821748517
 20
36.05253025203402
 30
0.0
 10
-2.833601457426918
 20
36.11024385140556
 30
0.0
 10
-1.615447279342637
 20
36.17019238250903
 30
0.0
 10
-0.6176677356265322
 20
35.80607199732736
 30
0.0
 10
0.5521951307605882
 20
35.55263353087222
 30
0.0
 10
1.83024819967477
 20
35.27575679673487
 30
0.0
 10
2.854090809862959
 20
35.1008902168307
 30
0.0
 10
3.861900461588245
 20
34.21166402534443
 30
0.0
 10
4.305347895041526
 20
33.82039463067346
 30
0.0
 10
5.05457854729765
 20
33.6447917246618
 30
0.0
 10
5.42061686350232
 20
33.21404136253278
 30
0.0
 10
5.752951246280822
 20
32.82295346437473
 30
0.0
 10
5.778493288902306
 20
32.01501781409848
 30
0.0
 10
5.886977854875113
 20
31.5264014321143
 30
0.0
 10
6.011951946120714
 20
30.96351593998361
 30
0.0
 10
6.174417106314043
 20
30.4148836824525
 30
0.0
 10
6.276628502408104
 20
29.85531748888515
 30
0.0
 10
6.408407941580157
 20
29.13387817794902
 30
0.0
 10
6.748160176620786
 20
28.92829474966806
 30
0.0
 10
7.27882607561297
 20
28.46961157124903
 30
0.0
 10
7.794412536507984
 20
28.02396236506832
 30
0.0
 10
7.770961705798678
 20
27.42053770160402
 30
0.0
 10
8.158978403766493
 20
26.90383408416417
 30
0.0
 10
8.31959867796344
 20
26.68994360690778
 30
0.0
 10
8.537589272485649
 20
26.56964388471264
 30
0.0
 10
8.809217438727298
 20
26.50094120275847
 30
0.0
 10
9.244079930833777
 20
26.39095180106152
 30
0.0
 10
9.318242862314946
 20
26.54822135013041
 30
0.0
 10
9.686263584754998
 20
26.73074635972361
 30
0.0
 10
10.32599224630053
 20
27.04802871086805
 30
0.0
 10
10.7773213332711
 20
27.07350633850514
 30
0.0
 10
11.29816542013322
 20
27.61164887590792
 30
0.0
 10
11.75898234048752
 20
28.08777060418097
 30
0.0
 10
12.02606850117847
 20
28.45294691943374
 30
0.0
 10
12.71791853829073
 20
28.63856320714402
 30
0.0
 10
13.33332948276544
 20
28.80367166822985
 30
0.0
 10
13.80737418843
 20
28.76612669700527
 30
0.0
 10
14.41502484260918
 20
29.02609897768291
 30
0.0
 10
14.93545301847666
 20
29.24875470738347
 30
0.0
 10
15.43357416014624
 20
29.52469558211861
 30
0.0
 10
15.9399239227532
 20
29.78192875393097
 30
0.0
 10
17.01583903101015
 20
30.32850954913639
 30
0.0
 10
18.19041988559653
 20
30.78338523720222
 30
0.0
 10
19.40225423603417
 20
30.89262272681791
 30
0.0
 10
20.01283208418305
 20
30.94766159522666
 30
0.0
 10
20.55818377162361
 20
30.71401279610319
 30
0.0
 10
21.15892420708888
 20
30.68027221156527
 30
0.0
 10
21.68094030211096
 20
30.65095317934375
 30
0.0
 10
22.2105336554854
 20
30.73634016015249
 30
0.0
 10
22.73270518919834
 20
30.71357682004333
 30
0.0
 10
23.93570595055444
 20
30.66113367882556
 30
0.0
 10
25.22575742452194
 20
30.70861825160778
 30
0.0
 10
26.39003755305319
 20
30.46417442083806
 30
0.0
 10
26.92798670549195
 20
30.35123050952416
 30
0.0
 10
27.45446463685041
 20
30.17688520551027
 30
0.0
 10
27.98974919939971
 20
30.06864074156139
 30
0.0
 10
28.63632078134873
 20
29.93789197877375
 30
0.0
 10
29.07403885231098
 20
30.06401276316041
 30
0.0
 10
29.6387168409879
 20
29.64964510921916
 30
0.0
 10
30.1424497888143
 20
29.27999967591139
 30
0.0
 10
30.71530212214902
 20
29.0929707011975
 30
0.0
 10
31.21192101667945
 20
28.72473937988042
 30
0.0
 10
31.69842332307694
 20
28.36400927258555
 30
0.0
 10
32.08570612730778
 20
27.9950948471043
 30
0.0
 10
32.63743027471277
 20
27.72127025694459
 30
0.0
 10
33.17486503624777
 20
27.45453758989125
 30
0.0
 10
33.84642626600167
 20
27.28369243667499
 30
0.0
 10
34.24899011094804
 20
26.80175076039667
 30
0.0
 10
34.61681289595931
 20
26.36140041148417
 30
0.0
 10
34.61529776318861
 20
25.74959669589917
 30
0.0
 10
34.84969181606097
 20
25.23306006003958
 30
0.0
 10
35.35259294254304
 20
24.12481156627584
 30
0.0
 10
35.21662122071653
 20
22.75334128425084
 30
0.0
 10
35.59273112881738
 20
21.59734632968639
 30
0.0
 10
35.96284552327445
 20
20.45977892348736
 30
0.0
 10
36.02296435664056
 20
19.31956477914166
 30
0.0
 10
36.11395203016971
 20
18.13042795075333
 30
0.0
 10
36.1577429606539
 20
17.55811517289819
 30
0.0
 10
36.06089968661485
 20
17.11379223845319
 30
0.0
 10
35.95944453017945
 20
16.55749930256098
 30
0.0
 10
35.8480987573914
 20
15.94697472185208
 30
0.0
 10
35.87413226912902
 20
15.31925099076222
 30
0.0
 10
35.58223165364916
 20
14.75802210051736
 30
0.0
  0
SPLINE
  5
48
330
1F
100
AcDbEntity
  8
Layer 1
 62
     7
420
 16777215
370
    70
100
AcDbSpline
210
0.0
220
0.0
230
1.0
 70
     8
 71
     3
 72
    65
 73
    61
 74
     0
 42
0.0000000001
 43
0.0000000001
 12
1.0
 22
0.0
 32
0.0
 13
1.0
 23
0.0
 33
0.0
 40
0.0
 40
0.0
 40
0.0
 40
0.0
 40
1.0
 40
1.0
 40
1.0
 40
2.0
 40
2.0
 40
2.0
 40
3.0
 40
3.0
 40
3.0
 40
4.0
 40
4.0
 40
4.0
 40
5.0
 40
5.0
 40
5.0
 40
6.0
 40
6.0
 40
6.0
 40
7.0
 40
7.0
 40
7.0
 40
8.0
 40
8.0
 40
8.0
 40
9.0
 40
9.0
 40
9.0
 40
10.0
 40
10.0
 40
10.0
 40
11.0
 40
11.0
 40
11.0
 40
12.0
 40
12.0
 40
12.0
 40
13.0
 40
13.0
 40
13.0
 40
14.0
 40
14.0
 40
14.0
 40
15.0
 40
15.0
 40
15.0
 40
16.0
 40
16.0
 40
16.0
 40
17.0
 40
17.0
 40
17.0
 40
18.0
 40
18.0
 40
18.0
 40
19.0
 40
19.0
 40
19.0
 40
20.0
 40
20.0
 40
20.0
 40
20.0
 10
-2.689922238902555
 20
-25.0911833686561
 30
0.0
 10
-3.60507697913292
 20
-25.59254627687334
 30
0.0
 10
-5.278639982625742
 20
-25.44081897311124
 30
0.0
 10
-6.275699020231362
 20
-25.30967312371457
 30
0.0
 10
-7.394685818026838
 20
-25.16248978900153
 30
0.0
 10
-8.6036104741121
 20
-24.89334109159361
 30
0.0
 10
-9.648409320742859
 20
-24.4734030179211
 30
0.0
 10
-11.87560049781045
 20
-23.57822364859637
 30
0.0
 10
-12.92972420166579
 20
-21.59944268140735
 30
0.0
 10
-14.03086498661999
 20
-19.60425872319209
 30
0.0
 10
-14.58297348349945
 20
-18.60387981504542
 30
0.0
 10
-14.68336941911055
 20
-17.49347732878055
 30
0.0
 10
-14.73112345407805
 20
-16.36754230141666
 30
0.0
 10
-14.75264947409917
 20
-15.86000613283765
 30
0.0
 10
-14.92167778219126
 20
-15.37978411575568
 30
0.0
 10
-14.95886063254666
 20
-14.87029745463208
 30
0.0
 10
-15.00157103365278
 20
-14.2850712160089
 30
0.0
 10
-14.80968876031194
 20
-13.78181036157311
 30
0.0
 10
-14.70727242483624
 20
-13.21376803872247
 30
0.0
 10
-14.5226823986143
 20
-12.18995726885643
 30
0.0
 10
-13.95053613704944
 20
-11.23748898409455
 30
0.0
 10
-13.54017347091643
 20
-10.27426966677179
 30
0.0
 10
-13.12035337851029
 20
-9.288851508204061
 30
0.0
 10
-12.43236110458129
 20
-8.458921961251349
 30
0.0
 10
-11.72127221444053
 20
-7.674138220707227
 30
0.0
 10
-10.22438933271817
 20
-6.022123453830482
 30
0.0
 10
-8.804194213401324
 20
-4.448643335422326
 30
0.0
 10
-6.774510351637168
 20
-3.424041297276593
 30
0.0
 10
-4.809933395492963
 20
-2.432305790442582
 30
0.0
 10
-2.568541246309552
 20
-2.173789046936867
 30
0.0
 10
-0.4371282175405263
 20
-2.791838122156087
 30
0.0
 10
1.792557418732587
 20
-3.438383454725491
 30
0.0
 10
3.450796706224486
 20
-5.000133340151415
 30
0.0
 10
4.388962748893467
 20
-7.133975438046528
 30
0.0
 10
4.834623517180881
 20
-8.147622986029129
 30
0.0
 10
4.811160762899564
 20
-9.281144489453052
 30
0.0
 10
5.006490405899815
 20
-10.35778595893427
 30
0.0
 10
5.105918552380747
 20
-10.90582600083876
 30
0.0
 10
5.214314421089031
 20
-11.40491636353358
 30
0.0
 10
5.386504224964963
 20
-11.93254511440813
 30
0.0
 10
5.61536061511803
 20
-12.6338131834113
 30
0.0
 10
5.347171219815234
 20
-12.83253973898132
 30
0.0
 10
5.169670679405272
 20
-13.48907556334396
 30
0.0
 10
5.036571014742043
 20
-13.98138222258139
 30
0.0
 10
5.100135690809237
 20
-14.55024329731305
 30
0.0
 10
5.080873697213948
 20
-15.05685849446291
 30
0.0
 10
5.059526737611855
 20
-15.61831097828084
 30
0.0
 10
4.857060776195794
 20
-16.14715467076139
 30
0.0
 10
4.69815027069674
 20
-16.68061866807251
 30
0.0
 10
4.370863737113192
 20
-17.77932250721306
 30
0.0
 10
4.169187650320686
 20
-18.8582830962786
 30
0.0
 10
3.464604954877611
 20
-19.76742001553834
 30
0.0
 10
2.798267440869015
 20
-20.62720842446611
 30
0.0
 10
2.143742702483678
 20
-21.60196109044055
 30
0.0
 10
1.36047618306452
 20
-22.3512813099979
 30
0.0
 10
0.5722544269467309
 20
-23.1053420092757
 30
0.0
 10
-0.3942789057347858
 20
-23.51899027223807
 30
0.0
 10
-1.323935039401249
 20
-24.05721137261639
 30
0.0
 10
-1.828197291999989
 20
-24.34915220390263
 30
0.0
 10
-2.182247717289025
 20
-24.81014433315861
 30
0.0
 10
-2.689924268571051
 20
-25.0911833686561
 30
0.0
  0
SPLINE
  5
49
330
1F
100
AcDbEntity
  8
Layer 1
 62
     7
420
 16777215
370
    70
100
AcDbSpline
210
0.0
220
0.0
230
1.0
 70
    11
 71
     3
 72
    74
 73
    70
 74
     0
 42
0.0000000001
 43
0.0000000001
 12
1.0
 22
0.0
 32
0.0
 13
1.0
 23
0.0
 33
0.0
 40
0.0
 40
0.0
 40
0.0
 40
0.0
 40
1.0
 40
1.0
 40
1.0
 40
2.0
 40
2.0
 40
2.0
 40
3.0
 40
3.0
 40
3.0
 40
4.0
 40
4.0
 40
4.0
 40
5.0
 40
5.0
 40
5.0
 40
6.0
 40
6.0
 40
6.0
 40
7.0
 40
7.0
 40
7.0
 40
8.0
 40
8.0
 40
8.0
 40
9.0
 40
9.0
 40
9.0
 40
10.0
 40
10.0
 40
10.0
 40
11.0
 40
11.0
 40
11.0
 40
12.0
 40
12.0
 40
12.0
 40
13.0
 40
13.0
 40
13.0
 40
14.0
 40
14.0
 40
14.0
 40
15.0
 40
15.0
 40
15.0
 40
16.0
 40
16.0
 40
16.0
 40
17.0
 40
17.0
 40
17.0
 40
18.0
 40
18.0
 40
18.0
 40
19.0
 40
19.0
 40
19.0
 40
20.0
 40
20.0
 40
20.0
 40
21.0
 40
21.0
 40
21.0
 40
22.0
 40
22.0
 40
22.0
 40
23.0
 40
23.0
 40
23.0
 40
23.0
 10
25.38648419887444
 20
-26.35054802233458
 30
0.0
 10
24.84061687199722
 20
-26.40791416154542
 30
0.0
 10
24.3470471578811
 20
-26.7012993948775
 30
0.0
 10
23.79288591406028
 20
-26.72752241281584
 30
0.0
 10
23.24001682013042
 20
-26.75368428596971
 30
0.0
 10
22.76201477927973
 20
-26.53479528623848
 30
0.0
 10
22.25985293738874
 20
-26.33009809732819
 30
0.0
 10
21.71289402634264
 20
-26.10714019371903
 30
0.0
 10
21.14393197047153
 20
-25.97251000996001
 30
0.0
 10
20.60601206172376
 20
-25.72259700272889
 30
0.0
 10
20.12746650174444
 20
-25.50026881214376
 30
0.0
 10
19.69214370965139
 20
-25.1963488362736
 30
0.0
 10
19.20184070866735
 20
-24.99962400763166
 30
0.0
 10
18.20180169358999
 20
-24.59837722047847
 30
0.0
 10
17.3001384555889
 20
-24.0472574940861
 30
0.0
 10
16.3415425482032
 20
-23.55290268406901
 30
0.0
 10
15.32868670897889
 20
-23.03056563660556
 30
0.0
 10
14.71401197110875
 20
-22.34114427980098
 30
0.0
 10
14.01839345095014
 20
-21.4503219103543
 30
0.0
 10
13.30517951015561
 20
-20.53696650901126
 30
0.0
 10
12.8461701110777
 20
-19.80975585731847
 30
0.0
 10
12.75794157151007
 20
-18.64814278127584
 30
0.0
 10
12.67943834106856
 20
-17.61457269795222
 30
0.0
 10
12.02610743709162
 20
-16.76834319450209
 30
0.0
 10
11.89671973596945
 20
-15.72996760860181
 30
0.0
 10
11.74379762763167
 20
-14.50272125933376
 30
0.0
 10
12.29011560822002
 20
-13.6300806750531
 30
0.0
 10
12.85817269121556
 20
-12.62090008351061
 30
0.0
 10
13.1804582195628
 20
-12.04834441986501
 30
0.0
 10
13.07943989582678
 20
-11.52090016788407
 30
0.0
 10
13.60528554865838
 20
-11.0529974019499
 30
0.0
 10
13.96137845104737
 20
-10.73614234560374
 30
0.0
 10
14.40779756021639
 20
-10.45194499086912
 30
0.0
 10
14.79002335080236
 20
-10.16115091319519
 30
0.0
 10
16.34219762392723
 20
-8.980270142563022
 30
0.0
 10
18.79248317589584
 20
-7.936824994474023
 30
0.0
 10
20.75992385400832
 20
-8.031787122532945
 30
0.0
 10
22.83364217849597
 20
-8.131878935861234
 30
0.0
 10
25.0561505913825
 20
-7.83710238333952
 30
0.0
 10
27.03127854132791
 20
-8.55751809764571
 30
0.0
 10
28.0557317830739
 20
-8.931181086894652
 30
0.0
 10
28.89992153336208
 20
-9.033384892352993
 30
0.0
 10
29.82562720931999
 20
-9.665635876198293
 30
0.0
 10
30.71298675393485
 20
-10.27169670058139
 30
0.0
 10
31.78694678804833
 20
-10.65685345960275
 30
0.0
 10
32.63158482942278
 20
-11.32374300229806
 30
0.0
 10
33.45479216749305
 20
-11.97371179169315
 30
0.0
 10
33.86113919302721
 20
-13.18428818890576
 30
0.0
 10
34.19099537796501
 20
-14.13776421346668
 30
0.0
 10
34.37653536414624
 20
-14.67408257431362
 30
0.0
 10
34.42629156006029
 20
-15.21573094046375
 30
0.0
 10
34.51381114652124
 20
-15.77263499918958
 30
0.0
 10
34.59938447882612
 20
-16.31715466623069
 30
0.0
 10
34.80970912634514
 20
-16.82275972086861
 30
0.0
 10
34.90495968940973
 20
-17.36442109072181
 30
0.0
 10
35.10316694038625
 20
-18.49156625002125
 30
0.0
 10
34.73840166602945
 20
-19.49237731848181
 30
0.0
 10
34.47878410473653
 20
-20.57188237810568
 30
0.0
 10
34.18943499544694
 20
-21.77501295956682
 30
0.0
 10
33.70291208468792
 20
-22.47923463257305
 30
0.0
 10
32.88887786210304
 20
-23.40918249631
 30
0.0
 10
32.16504743738207
 20
-24.23608207682097
 30
0.0
 10
31.24444564987374
 20
-24.9818747568214
 30
0.0
 10
30.32296680554208
 20
-25.58999470006195
 30
0.0
 10
29.44022964946041
 20
-26.17254748741556
 30
0.0
 10
28.34365251769082
 20
-26.17390221246223
 30
0.0
 10
27.32705837368902
 20
-26.27120422119805
 30
0.0
 10
26.70707031397791
 20
-26.3305455856532
 30
0.0
 10
25.98265013670736
 20
-26.21700131455888
 30
0.0
 10
25.38648419887444
 20
-26.35054802233458
 30
0.0
  0
SPLINE
  5
4A
330
1F
100
AcDbEntity
  8
Layer 1
 62
     7
420
 16777215
370
    70
100
AcDbSpline
210
0.0
220
0.0
230
1.0
 70
     8
 71
     3
 72
    44
 73
    40
 74
     0
 42
0.0000000001
 43
0.0000000001
 12
1.0
 22
0.0
 32
0.0
 13
1.0
 23
0.0
 33
0.0
 40
0.0
 40
0.0
 40
0.0
 40
0.0
 40
1.0
 40
1.0
 40
1.0
 40
2.0
 40
2.0
 40
2.0
 40
3.0
 40
3.0
 40
3.0
 40
4.0
 40
4.0
 40
4.0
 40
5.0
 40
5.0
 40
5.0
 40
6.0
 40
6.0
 40
6.0
 40
7.0
 40
7.0
 40
7.0
 40
8.0
 40
8.0
 40
8.0
 40
9.0
 40
9.0
 40
9.0
 40
10.0
 40
10.0
 40
10.0
 40
11.0
 40
11.0
 40
11.0
 40
12.0
 40
12.0
 40
12.0
 40
13.0
 40
13.0
 40
13.0
 40
13.0
 10
-8.771747796896584
 20
30.71998470550361
 30
0.0
 10
-7.535680006620573
 20
32.14373789532764
 30
0.0
 10
-5.728091643691565
 20
33.3872185807975
 30
0.0
 10
-3.818892869245903
 20
33.58041986859181
 30
0.0
 10
-1.839944094175507
 20
33.78067950469666
 30
0.0
 10
-0.1067732198102931
 20
33.06248537378916
 30
0.0
 10
1.301706041540203
 20
31.74945641905416
 30
0.0
 10
2.801685553694976
 20
30.35112803395597
 30
0.0
 10
3.395618297029311
 20
28.75726907017249
 30
0.0
 10
3.555134334309539
 20
26.72949405425707
 30
0.0
 10
3.620531516809681
 20
25.89816213900846
 30
0.0
 10
3.342493375740661
 20
24.93932908256597
 30
0.0
 10
3.268079459556323
 20
24.10191184910056
 30
0.0
 10
3.184206580327984
 20
23.1580481460775
 30
0.0
 10
3.010824604209195
 20
22.16171627562375
 30
0.0
 10
2.784710734104642
 20
21.24256940879306
 30
0.0
 10
2.344835925121843
 20
19.45449001195028
 30
0.0
 10
1.48667917466168
 20
17.77499777402042
 30
0.0
 10
0.3828044099126499
 20
16.30738233201376
 30
0.0
 10
-0.2029559597610084
 20
15.5286065222018
 30
0.0
 10
-0.9349150898293221
 20
14.96829455635681
 30
0.0
 10
-1.78639703757896
 20
14.50487981509958
 30
0.0
 10
-2.646634025318008
 20
14.03670018763181
 30
0.0
 10
-3.338318370339746
 20
13.44669613788366
 30
0.0
 10
-4.340518689464665
 20
13.34362121820343
 30
0.0
 10
-6.320631589633118
 20
13.13996933918506
 30
0.0
 10
-8.352319233289816
 20
13.46237113592691
 30
0.0
 10
-10.01123305035037
 20
14.62363549371723
 30
0.0
 10
-11.41676429140944
 20
15.60752827778889
 30
0.0
 10
-12.72744820278631
 20
17.65831974379514
 30
0.0
 10
-13.05981728094101
 20
19.33786962477667
 30
0.0
 10
-13.38097237001548
 20
20.96075221850764
 30
0.0
 10
-13.3120274698047
 20
23.1389367094568
 30
0.0
 10
-12.6154888485902
 20
24.63805842521013
 30
0.0
 10
-11.81745237234037
 20
26.35562838482459
 30
0.0
 10
-10.84305524993649
 20
28.04435318537528
 30
0.0
 10
-9.724327041445614
 20
29.56842487955126
 30
0.0
 10
-9.429653403818797
 20
29.96986621867028
 30
0.0
 10
-9.12456918682978
 20
30.36585543463944
 30
0.0
 10
-8.771746782062337
 20
30.71998470550361
 30
0.0
  0
SPLINE
  5
4B
330
1F
100
AcDbEntity
  8
Layer 1
 62
     7
420
 16777215
370
    70
100
AcDbSpline
210
0.0
220
0.0
230
1.0
 70
    11
 71
     3
 72
    29
 73
    25
 74
     0
 42
0.0000000001
 43
0.0000000001
 12
1.0
 22
0.0
 32
0.0
 13
1.0
 23
0.0
 33
0.0
 40
0.0
 40
0.0
 40
0.0
 40
0.0
 40
1.0
 40
1.0
 40
1.0
 40
2.0
 40
2.0
 40
2.0
 40
3.0
 40
3.0
 40
3.0
 40
4.0
 40
4.0
 40
4.0
 40
5.0
 40
5.0
 40
5.0
 40
6.0
 40
6.0
 40
6.0
 40
7.0
 40
7.0
 40
7.0
 40
8.0
 40
8.0
 40
8.0
 40
8.0
 10
32.55894299368457
 20
17.75089008895222
 30
0.0
 10
33.17347008501444
 20
21.12983045138736
 30
0.0
 10
31.13568901633124
 20
23.98185924959125
 30
0.0
 10
28.02895224654374
 20
25.20931598305208
 30
0.0
 10
26.58754876550903
 20
25.77880755557138
 30
0.0
 10
25.05063033846651
 20
26.07704142852652
 30
0.0
 10
23.52097347984138
 20
26.33511858276
 30
0.0
 10
21.88425904321432
 20
26.61125803306598
 30
0.0
 10
20.35643960559125
 20
26.81963398170486
 30
0.0
 10
18.76593083385167
 20
26.2106214793632
 30
0.0
 10
15.66608153418722
 20
25.02367613683236
 30
0.0
 10
14.05069818090432
 20
21.48614876958527
 30
0.0
 10
15.94759201035916
 20
18.52529589876097
 30
0.0
 10
16.79397701999847
 20
17.20417742249194
 30
0.0
 10
18.19954466130432
 20
16.31544527714153
 30
0.0
 10
19.59281981182236
 20
15.65169427609097
 30
0.0
 10
20.96781266031917
 20
14.99665289443153
 30
0.0
 10
22.27037308091056
 20
14.17437629918209
 30
0.0
 10
23.74699916853443
 20
13.77628260857935
 30
0.0
 10
26.90130592336681
 20
12.92589155301766
 30
0.0
 10
30.59681156806138
 20
13.33037328229708
 30
0.0
 10
32.13277349801693
 20
16.60510974406333
 30
0.0
 10
32.30712697258665
 20
16.97683880145319
 30
0.0
 10
32.44874455733346
 20
17.35464664318986
 30
0.0
 10
32.55894299368457
 20
17.75089008895222
 30
0.0
  0
SPLINE
  5
4C
330
1F
100
AcDbEntity
  8
Layer 1
 62
     7
420
 16777215
370
    70
100
AcDbSpline
210
0.0
220
0.0
230
1.0
 70
     8
 71
     3
 72
   344
 73
   340
 74
     0
 42
0.0000000001
 43
0.0000000001
 12
1.0
 22
0.0
 32
0.0
 13
1.0
 23
0.0
 33
0.0
 40
0.0
 40
0.0
 40
0.0
 40
0.0
 40
1.0
 40
1.0
 40
1.0
 40
2.0
 40
2.0
 40
2.0
 40
3.0
 40
3.0
 40
3.0
 40
4.0
 40
4.0
 40
4.0
 40
5.0
 40
5.0
 40
5.0
 40
6.0
 40
6.0
 40
6.0
 40
7.0
 40
7.0
 40
7.0
 40
8.0
 40
8.0
 40
8.0
 40
9.0
 40
9.0
 40
9.0
 40
10.0
 40
10.0
 40
10.0
 40
11.0
 40
11.0
 40
11.0
 40
12.0
 40
12.0
 40
12.0
 40
13.0
 40
13.0
 40
13.0
 40
14.0
 40
14.0
 40
14.0
 40
15.0
 40
15.0
 40
15.0
 40
16.0
 40
16.0
 40
16.0
 40
17.0
 40
17.0
 40
17.0
 40
18.0
 40
18.0
 40
18.0
 40
19.0
 40
19.0
 40
19.0
 40
20.0
 40
20.0
 40
20.0
 40
21.0
 40
21.0
 40
21.0
 40
22.0
 40
22.0
 40
22.0
 40
23.0
 40
23.0
 40
23.0
 40
24.0
 40
24.0
 40
24.0
 40
25.0
 40
25.0
 40
25.0
 40
26.0
 40
26.0
 40
26.0
 40
27.0
 40
27.0
 40
27.0
 40
28.0
 40
28.0
 40
28.0
 40
29.0
 40
29.0
 40
29.0
 40
30.0
 40
30.0
 40
30.0
 40
31.0
 40
31.0
 40
31.0
 40
32.0
 40
32.0
 40
32.0
 40
33.0
 40
33.0
 40
33.0
 40
34.0
 40
34.0
 40
34.0
 40
35.0
 40
35.0
 40
35.0
 40
36.0
 40
36.0
 40
36.0
 40
37.0
 40
37.0
 40
37.0
 40
38.0
 40
38.0
 40
38.0
 40
39.0
 40
39.0
 40
39.0
 40
40.0
 40
40.0
 40
40.0
 40
41.0
 40
41.0
 40
41.0
 40
42.0
 40
42.0
 40
42.0
 40
43.0
 40
43.0
 40
43.0
 40
44.0
 40
44.0
 40
44.0
 40
45.0
 40
45.0
 40
45.0
 40
46.0
 40
46.0
 40
46.0
 40
47.0
 40
47.0
 40
47.0
 40
48.0
 40
48.0
 40
48.0
 40
49.0
 40
49.0
 40
49.0
 40
50.0
 40
50.0
 40
50.0
 40
51.0
 40
51.0
 40
51.0
 40
52.0
 40
52.0
 40
52.0
 40
53.0
 40
53.0
 40
53.0
 40
54.0
 40
54.0
 40
54.0
 40
55.0
 40
55.0
 40
55.0
 40
56.0
 40
56.0
 40
56.0
 40
57.0
 40
57.0
 40
57.0
 40
58.0
 40
58.0
 40
58.0
 40
59.0
 40
59.0
 40
59.0
 40
60.0
 40
60.0
 40
60.0
 40
61.0
 40
61.0
 40
61.0
 40
62.0
 40
62.0
 40
62.0
 40
63.0
 40
63.0
 40
63.0
 40
64.0
 40
64.0
 40
64.0
 40
65.0
 40
65.0
 40
65.0
 40
66.0
 40
66.0
 40
66.0
 40
67.0
 40
67.0
 40
67.0
 40
68.0
 40
68.0
 40
68.0
 40
69.0
 40
69.0
 40
69.0
 40
70.0
 40
70.0
 40
70.0
 40
71.0
 40
71.0
 40
71.0
 40
72.0
 40
72.0
 40
72.0
 40
73.0
 40
73.0
 40
73.0
 40
74.0
 40
74.0
 40
74.0
 40
75.0
 40
75.0
 40
75.0
 40
76.0
 40
76.0
 40
76.0
 40
77.0
 40
77.0
 40
77.0
 40
78.0
 40
78.0
 40
78.0
 40
79.0
 40
79.0
 40
79.0
 40
80.0
 40
80.0
 40
80.0
 40
81.0
 40
81.0
 40
81.0
 40
82.0
 40
82.0
 40
82.0
 40
83.0
 40
83.0
 40
83.0
 40
84.0
 40
84.0
 40
84.0
 40
85.0
 40
85.0
 40
85.0
 40
86.0
 40
86.0
 40
86.0
 40
87.0
 40
87.0
 40
87.0
 40
88.0
 40
88.0
 40
88.0
 40
89.0
 40
89.0
 40
89.0
 40
90.0
 40
90.0
 40
90.0
 40
91.0
 40
91.0
 40
91.0
 40
92.0
 40
92.0
 40
92.0
 40
93.0
 40
93.0
 40
93.0
 40
94.0
 40
94.0
 40
94.0
 40
95.0
 40
95.0
 40
95.0
 40
96.0
 40
96.0
 40
96.0
 40
97.0
 40
97.0
 40
97.0
 40
98.0
 40
98.0
 40
98.0
 40
99.0
 40
99.0
 40
99.0
 40
100.0
 40
100.0
 40
100.0
 40
101.0
 40
101.0
 40
101.0
 40
102.0
 40
102.0
 40
102.0
 40
103.0
 40
103.0
 40
103.0
 40
104.0
 40
104.0
 40
104.0
 40
105.0
 40
105.0
 40
105.0
 40
106.0
 40
106.0
 40
106.0
 40
107.0
 40
107.0
 40
107.0
 40
108.0
 40
108.0
 40
108.0
 40
109.0
 40
109.0
 40
109.0
 40
110.0
 40
110.0
 40
110.0
 40
111.0
 40
111.0
 40
111.0
 40
112.0
 40
112.0
 40
112.0
 40
113.0
 40
113.0
 40
113.0
 40
113.0
 10
-12.05008967517483
 20
7.774663460835831
 30
0.0
 10
-12.32646742919914
 20
7.965582048672482
 30
0.0
 10
-12.61780861920417
 20
8.1103515217319
 30
0.0
 10
-12.86318115459136
 20
8.337408297679366
 30
0.0
 10
-13.23791556426153
 20
8.684170769534704
 30
0.0
 10
-13.43804317986208
 20
8.741845054676357
 30
0.0
 10
-13.87942203236135
 20
8.97667475677829
 30
0.0
 10
-14.55327589762305
 20
9.335189673257926
 30
0.0
 10
-15.14179306650444
 20
9.587036515559854
 30
0.0
 10
-15.89971657759611
 20
9.7952079277983
 30
0.0
 10
-16.22071940116416
 20
9.883374622902414
 30
0.0
 10
-16.95195713425958
 20
9.927615025126062
 30
0.0
 10
-17.14987121578249
 20
10.21888168293582
 30
0.0
 10
-17.3240941146307
 20
10.47528244568561
 30
0.0
 10
-17.10695585927542
 20
10.85546492911062
 30
0.0
 10
-17.10872280655083
 20
11.16151750631356
 30
0.0
 10
-17.11289053847291
 20
11.88340950246248
 30
0.0
 10
-17.51248779519624
 20
12.58729158596101
 30
0.0
 10
-17.67350312135416
 20
13.27870176370372
 30
0.0
 10
-17.83690640064222
 20
13.98036596593972
 30
0.0
 10
-17.77211061216917
 20
14.67256206667889
 30
0.0
 10
-17.99853353779666
 20
15.36115230399444
 30
0.0
 10
-18.1111061396975
 20
15.70350453905764
 30
0.0
 10
-18.1329736603918
 20
15.95550148522986
 30
0.0
 10
-18.16422704832653
 20
16.31464591420431
 30
0.0
 10
-18.20402284119667
 20
16.77195432939945
 30
0.0
 10
-18.39691536686861
 20
17.06733929465
 30
0.0
 10
-18.54979283530138
 20
17.49123206022139
 30
0.0
 10
-18.79041363878166
 20
18.15841617104459
 30
0.0
 10
-18.84109546839444
 20
18.84486754878263
 30
0.0
 10
-18.95412278073639
 20
19.53799493921611
 30
0.0
 10
-19.06727903901181
 20
20.23191307620958
 30
0.0
 10
-19.29484073063833
 20
20.88583419365736
 30
0.0
 10
-19.36507832294305
 20
21.58675161044416
 30
0.0
 10
-19.51384975646834
 20
23.07137665889306
 30
0.0
 10
-19.44025630788667
 20
24.5484985274293
 30
0.0
 10
-19.21407777534014
 20
26.0171681927118
 30
0.0
 10
-19.09541054960639
 20
26.78772299619459
 30
0.0
 10
-18.81879246091626
 20
27.48125226960597
 30
0.0
 10
-18.77118698256125
 20
28.25113247195014
 30
0.0
 10
-18.71986739771791
 20
29.08107754820306
 30
0.0
 10
-18.52866137729806
 20
29.9182379752957
 30
0.0
 10
-18.32516403071861
 20
30.71998470550361
 30
0.0
 10
-18.1345703258275
 20
31.47089316825833
 30
0.0
 10
-18.25198903166125
 20
32.18719668805652
 30
0.0
 10
-17.87513948875695
 20
32.89583393752041
 30
0.0
 10
-17.5398452176757
 20
33.52632962072848
 30
0.0
 10
-17.17988425220346
 20
34.22012051398555
 30
0.0
 10
-16.77787542360458
 20
34.79729468069346
 30
0.0
 10
-16.55817935195223
 20
35.11271784571916
 30
0.0
 10
-16.22313162109889
 20
35.34112701144515
 30
0.0
 10
-16.01275978709903
 20
35.66642676866334
 30
0.0
 10
-15.90525073781958
 20
35.83266892648666
 30
0.0
 10
-15.86200354566416
 20
36.02436678069249
 30
0.0
 10
-15.73156025226972
 20
36.18535528629541
 30
0.0
 10
-15.60921122602458
 20
36.3363541332625
 30
0.0
 10
-15.32954520285778
 20
36.4519323944943
 30
0.0
 10
-15.2412872288407
 20
36.58650049156694
 30
0.0
 10
-15.01495057007737
 20
36.93159898047722
 30
0.0
 10
-15.08815666215875
 20
37.35510629241624
 30
0.0
 10
-14.75549165413028
 20
37.67678158089777
 30
0.0
 10
-14.47963121584194
 20
37.94352886097069
 30
0.0
 10
-14.10062719617611
 20
38.14974659678624
 30
0.0
 10
-13.81736491786864
 20
38.40118067182708
 30
0.0
 10
-13.1449780190888
 20
38.99801615226763
 30
0.0
 10
-12.70278322348426
 20
39.16400375716527
 30
0.0
 10
-11.80521575182301
 20
39.03114746939251
 30
0.0
 10
-10.91729014877316
 20
38.89971835329361
 30
0.0
 10
-10.23999655507328
 20
38.889491857815
 30
0.0
 10
-9.34701826307844
 20
39.05682772327805
 30
0.0
 10
-8.621652938612872
 20
39.19275447024875
 30
0.0
 10
-8.007735012944824
 20
39.58863488859027
 30
0.0
 10
-7.256442452351267
 20
39.6310275076107
 30
0.0
 10
-6.819607385795456
 20
39.65567647064138
 30
0.0
 10
-6.520468204082438
 20
39.48819928124722
 30
0.0
 10
-6.103259906430316
 20
39.43328537284376
 30
0.0
 10
-5.662187982684221
 20
39.37523047950569
 30
0.0
 10
-5.222387193186831
 20
39.50112126057388
 30
0.0
 10
-4.779265026013895
 20
39.42161883828597
 30
0.0
 10
-4.389384029288623
 20
39.35166863958236
 30
0.0
 10
-4.144453373549936
 20
39.12085694601792
 30
0.0
 10
-3.781642363202233
 20
39.00341097103167
 30
0.0
 10
-3.344049707615568
 20
38.8617573425132
 30
0.0
 10
-2.850095350733328
 20
38.9765925171611
 30
0.0
 10
-2.401415009480818
 20
38.9699077404625
 30
0.0
 10
-1.568257118712861
 20
38.95749472847486
 30
0.0
 10
-1.003074171190494
 20
38.50471870952361
 30
0.0
 10
-0.229552497442152
 20
38.28703458885209
 30
0.0
 10
0.4815454637664768
 20
38.0869177212186
 30
0.0
 10
1.059591378676108
 20
38.15861683496555
 30
0.0
 10
1.748497984037133
 20
38.28500840884139
 30
0.0
 10
2.069723346464773
 20
38.34394263709542
 30
0.0
 10
2.458807905285489
 20
38.20887342301666
 30
0.0
 10
2.752352743988594
 20
38.30324510719903
 30
0.0
 10
3.093214576575722
 20
38.41282872432834
 30
0.0
 10
3.31942575787995
 20
38.88225751253319
 30
0.0
 10
3.654393242801891
 20
38.96436699915666
 30
0.0
 10
3.855304339111272
 20
39.01361568064806
 30
0.0
 10
4.500551768207262
 20
38.78890426400805
 30
0.0
 10
4.711089407406184
 20
38.71390590583194
 30
0.0
 10
5.168878913046076
 20
38.55083073578666
 30
0.0
 10
5.471590595652919
 20
38.45774254308041
 30
0.0
 10
5.973102778481638
 20
38.42363565560639
 30
0.0
 10
6.370657236399792
 20
38.39659873481916
 30
0.0
 10
6.753368122980342
 20
38.32658683351332
 30
0.0
 10
7.14743142570569
 20
38.28518993731806
 30
0.0
 10
7.446139679002903
 20
38.25381022124486
 30
0.0
 10
8.001123119357215
 20
38.36878690167055
 30
0.0
 10
8.24385023259088
 20
38.21991414914181
 30
0.0
 10
8.856615775189601
 20
37.844084305635
 30
0.0
 10
8.864963041429442
 20
36.85929812782695
 30
0.0
 10
9.625195933657652
 20
36.54650333662097
 30
0.0
 10
10.13950310078088
 20
36.33489370409832
 30
0.0
 10
10.29299314323511
 20
36.60449750480721
 30
0.0
 10
10.73302046269797
 20
36.75485439008763
 30
0.0
 10
11.06041661553124
 20
36.86672532085834
 30
0.0
 10
11.38895119455727
 20
36.77897525980639
 30
0.0
 10
11.71365885947277
 20
36.71064795637415
 30
0.0
 10
12.37728747472609
 20
36.57100248858847
 30
0.0
 10
13.16933715230933
 20
36.35309274770846
 30
0.0
 10
13.7953315293096
 20
36.08833307249388
 30
0.0
 10
14.66732335371694
 20
35.71953060285139
 30
0.0
 10
15.13898605303777
 20
35.82958505249917
 30
0.0
 10
16.0386632361086
 20
36.07476321629694
 30
0.0
 10
16.62813179302735
 20
36.23540396735903
 30
0.0
 10
17.50115432790931
 20
36.38285154971709
 30
0.0
 10
18.09968910309418
 20
36.31154231424
 30
0.0
 10
18.30186777198403
 20
36.28745481438848
 30
0.0
 10
18.69352850049985
 20
36.0799250988257
 30
0.0
 10
18.9279450628018
 20
35.94383183822556
 30
0.0
 10
19.42562259460889
 20
35.65489936107515
 30
0.0
 10
19.19858939349056
 20
35.54003486222319
 30
0.0
 10
19.38853984112931
 20
35.02559041265847
 30
0.0
 10
19.70752913387292
 20
34.16166893649222
 30
0.0
 10
20.47876689108693
 20
34.37247918277376
 30
0.0
 10
21.21276319381112
 20
34.47900460306931
 30
0.0
 10
22.03011515039167
 20
34.59762749037959
 30
0.0
 10
22.7614070635814
 20
34.37413424930499
 30
0.0
 10
23.56572985505487
 20
34.22531758951027
 30
0.0
 10
24.21233814217069
 20
34.10568143533903
 30
0.0
 10
24.68922005533154
 20
34.23159991939987
 30
0.0
 10
25.31832006556346
 20
34.26228316498097
 30
0.0
 10
26.03454997283112
 20
34.29721601791334
 30
0.0
 10
26.48840447986875
 20
33.98759150982556
 30
0.0
 10
27.25473722557429
 20
34.21166402534443
 30
0.0
 10
27.62905827850416
 20
34.32111394825542
 30
0.0
 10
28.02498894808112
 20
34.43469264822833
 30
0.0
 10
28.37799306114112
 20
34.59573293414708
 30
0.0
 10
28.52001997218361
 20
34.66052553433583
 30
0.0
 10
28.6354885159357
 20
34.74840710678929
 30
0.0
 10
28.77171349471513
 20
34.81822715938667
 30
0.0
 10
29.13826239318236
 20
35.00609625358457
 30
0.0
 10
29.09326766077806
 20
35.07336462293445
 30
0.0
 10
29.33004586981875
 20
34.74846034908362
 30
0.0
 10
29.70352786176737
 20
34.23597275201041
 30
0.0
 10
30.15807502458501
 20
33.46407339444888
 30
0.0
 10
30.96400963803249
 20
33.61426633865681
 30
0.0
 10
31.6489530274711
 20
33.74191151304071
 30
0.0
 10
31.84152530085569
 20
34.62824380062847
 30
0.0
 10
32.63158482942278
 20
34.70419809948625
 30
0.0
 10
33.12570333104056
 20
34.75170138624612
 30
0.0
 10
34.4063334250479
 20
34.27048733223013
 30
0.0
 10
34.64745361670958
 20
33.77193786632513
 30
0.0
 10
34.72477716438819
 20
33.61206069829763
 30
0.0
 10
34.59052530792069
 20
33.43457578138153
 30
0.0
 10
34.65046019003459
 20
33.28901168789111
 30
0.0
 10
34.72540926390626
 20
33.10698256542888
 30
0.0
 10
34.96031872660124
 20
33.03800333930027
 30
0.0
 10
35.12564148645194
 20
32.88566028052666
 30
0.0
 10
35.40459565868943
 20
32.62860715671791
 30
0.0
 10
35.51789349583876
 20
32.25476398515833
 30
0.0
 10
35.7663792672836
 20
31.97416242856222
 30
0.0
 10
36.05383083684637
 20
31.64955890138097
 30
0.0
 10
36.40476998840348
 20
31.63976441317042
 30
0.0
 10
36.73466119255527
 20
31.39077264000028
 30
0.0
 10
37.09360665798693
 20
31.11985160062611
 30
0.0
 10
37.12508512115139
 20
30.78616481899556
 30
0.0
 10
37.24644736780166
 20
30.39278154537222
 30
0.0
 10
37.46187338244653
 20
29.69450021651
 30
0.0
 10
37.9926074407993
 20
29.25248409718291
 30
0.0
 10
38.32788195902776
 20
28.61157521247097
 30
0.0
 10
38.49883873988084
 20
28.28477519101583
 30
0.0
 10
38.57715283822209
 20
27.95000764809125
 30
0.0
 10
38.72322484946527
 20
27.6212116590618
 30
0.0
 10
38.89799726616014
 20
27.22781343640986
 30
0.0
 10
39.22539578390792
 20
26.95525997695597
 30
0.0
 10
39.37469566768888
 20
26.55941823571973
 30
0.0
 10
39.64799939462944
 20
25.83480264715556
 30
0.0
 10
39.65016314977598
 20
25.1333627497332
 30
0.0
 10
40.11375480051012
 20
24.52484681429944
 30
0.0
 10
40.71050067463582
 20
23.74155105555375
 30
0.0
 10
40.06773263900625
 20
23.22087877980152
 30
0.0
 10
39.57560544900485
 20
22.51839467403445
 30
0.0
 10
38.80365095596137
 20
21.41647270598208
 30
0.0
 10
38.11311534527137
 20
19.58926428792972
 30
0.0
 10
38.70551599177277
 20
18.28696004507569
 30
0.0
 10
39.01021272838041
 20
17.61712982930639
 30
0.0
 10
39.45212744939527
 20
17.01592225103195
 30
0.0
 10
39.74138877236596
 20
16.33920744018167
 30
0.0
 10
39.99662469716527
 20
15.74209363043
 30
0.0
 10
40.5641593368668
 20
14.9102062092293
 30
0.0
 10
40.48312605277735
 20
14.25921076911153
 30
0.0
 10
40.38116664777221
 20
13.44010157859357
 30
0.0
 10
39.45272508127765
 20
13.06179329987008
 30
0.0
 10
39.04939054829972
 20
12.37755939320323
 30
0.0
 10
38.66959075434667
 20
11.73325082173263
 30
0.0
 10
38.80136364987013
 20
10.99320153098013
 30
0.0
 10
38.4306623423736
 20
10.338353984881
 30
0.0
 10
38.03578475904846
 20
9.64079880711198
 30
0.0
 10
37.8940158718536
 20
8.970586017031438
 30
0.0
 10
37.15999852413653
 20
8.531645581376678
 30
0.0
 10
37.0171789551468
 20
8.4462398562568
 30
0.0
 10
36.71576990511915
 20
8.37566443198754
 30
0.0
 10
36.6591047528461
 20
8.236445520064864
 30
0.0
 10
36.62857414798832
 20
8.16143579330781
 30
0.0
 10
36.75492635956306
 20
7.729484228324483
 30
0.0
 10
36.7592891901761
 20
7.598866767912972
 30
0.0
 10
36.7693713994279
 20
7.297018567832285
 30
0.0
 10
36.81955913451293
 20
6.873441398632217
 30
0.0
 10
36.56821619726209
 20
6.681222177645218
 30
0.0
 10
36.1136434857582
 20
6.333579178629811
 30
0.0
 10
35.15221635799917
 20
7.264814460108785
 30
0.0
 10
34.59735327937056
 20
7.27954511127205
 30
0.0
 10
33.8584345505743
 20
7.299162120316522
 30
0.0
 10
33.1584218897175
 20
6.963687049971693
 30
0.0
 10
32.3980308747318
 20
7.14399358751032
 30
0.0
 10
31.68786400821333
 20
7.312390801907996
 30
0.0
 10
31.06279176173459
 20
7.74114287976853
 30
0.0
 10
30.33328864713
 20
7.853765205210139
 30
0.0
 10
29.38082602931235
 20
8.000808518346629
 30
0.0
 10
29.32316753455792
 20
7.308334677552036
 30
0.0
 10
28.55624997539543
 20
6.911500247371704
 30
0.0
 10
28.20314169350778
 20
6.728787617884032
 30
0.0
 10
27.80630475852513
 20
6.756935329930886
 30
0.0
 10
27.4970407053193
 20
6.520557903768551
 30
0.0
 10
27.19735546480847
 20
6.291501778181125
 30
0.0
 10
26.98069877855222
 20
5.980746500453884
 30
0.0
 10
26.68646251930682
 20
5.738804468458713
 30
0.0
 10
26.40618747268
 20
5.508342340941454
 30
0.0
 10
26.25831682225751
 20
5.259053151750853
 30
0.0
 10
25.94204303196804
 20
5.088823426916532
 30
0.0
 10
25.57689816392528
 20
4.892289561891857
 30
0.0
 10
25.17020438563653
 20
4.923753909060957
 30
0.0
 10
24.80086928285292
 20
4.787412241706116
 30
0.0
 10
24.50548160962777
 20
4.678368591156666
 30
0.0
 10
24.28992074492973
 20
4.459857604777375
 30
0.0
 10
23.9609639655968
 20
4.390448021999014
 30
0.0
 10
23.63640749052542
 20
4.321966899438116
 30
0.0
 10
23.30655977546849
 20
4.376139813638625
 30
0.0
 10
22.97995872503321
 20
4.391898558422806
 30
0.0
 10
22.27840849044848
 20
4.425748881578127
 30
0.0
 10
21.60056858331
 20
4.253983904466773
 30
0.0
 10
20.91207592370029
 20
4.524019453789808
 30
0.0
 10
20.12643081807028
 20
4.832159424072213
 30
0.0
 10
19.76863681618667
 20
5.65967865776449
 30
0.0
 10
19.08030415868125
 20
6.06519546049713
 30
0.0
 10
18.33313725857902
 20
6.505373227937575
 30
0.0
 10
17.62532433004028
 20
6.325150034614277
 30
0.0
 10
16.85972808030874
 20
6.600168380794533
 30
0.0
 10
16.15199219750568
 20
6.854402060869536
 30
0.0
 10
15.45741568009223
 20
7.024308175725359
 30
0.0
 10
14.73492596960791
 20
7.164715600855591
 30
0.0
 10
14.04721754030222
 20
7.298363690784021
 30
0.0
 10
13.60886053757852
 20
7.904780644518925
 30
0.0
 10
12.92238328399043
 20
8.017915171636332
 30
0.0
 10
12.36232584335797
 20
8.110215147161195
 30
0.0
 10
12.2130570206253
 20
7.839154186651235
 30
0.0
 10
11.74193772331416
 20
7.681829975408315
 30
0.0
 10
11.44590898804654
 20
7.582974998448081
 30
0.0
 10
11.01777297332066
 20
7.659970701151097
 30
0.0
 10
10.70358367297538
 20
7.700250231911291
 30
0.0
 10
9.934304002048595
 20
7.798873018028543
 30
0.0
 10
9.655623849152965
 20
8.635537366069077
 30
0.0
 10
9.601035774626956
 20
9.356325265181313
 30
0.0
 10
9.51930140501751
 20
10.43555630726546
 30
0.0
 10
8.75550664497968
 20
13.12875831234462
 30
0.0
 10
7.192206927725843
 20
12.64797669467089
 30
0.0
 10
6.509800915462013
 20
12.43810761910883
 30
0.0
 10
6.224382747245348
 20
11.51437330901328
 30
0.0
 10
5.893889383546441
 20
10.97291512738538
 30
0.0
 10
5.713393811651232
 20
10.67720327690689
 30
0.0
 10
5.503173471039847
 20
10.40844255914878
 30
0.0
 10
5.223363529995342
 20
10.19729811289732
 30
0.0
 10
4.93754648670425
 20
9.981620710194393
 30
0.0
 10
4.501151789632886
 20
9.88103303774249
 30
0.0
 10
4.293849325560081
 20
9.583409989795705
 30
0.0
 10
3.907034461207609
 20
9.028061941065996
 30
0.0
 10
4.575866589728977
 20
8.190103084469456
 30
0.0
 10
3.680529284120691
 20
7.776952926907724
 30
0.0
 10
3.300578572479253
 20
7.601626046862545
 30
0.0
 10
2.921749750788447
 20
7.786344694921858
 30
0.0
 10
2.584021679238478
 20
7.475354843055912
 30
0.0
 10
2.262208491008525
 20
7.17901987961381
 30
0.0
 10
2.240289667734032
 20
6.798962100664085
 30
0.0
 10
1.850829058914567
 20
6.535906858374801
 30
0.0
 10
1.483687156802161
 20
6.287926446934825
 30
0.0
 10
1.240641647489105
 20
6.288243098805474
 30
0.0
 10
1.034541791266494
 20
5.853661379399934
 30
0.0
 10
0.8374895949525327
 20
5.438157536475046
 30
0.0
 10
0.8685825962803998
 20
5.166170878207064
 30
0.0
 10
0.4506721270526617
 20
4.951268733101288
 30
0.0
 10
0.1413740099465536
 20
4.792218329396115
 30
0.0
 10
-0.184176570154831
 20
4.7324289420581
 30
0.0
 10
-0.4886908182768618
 20
4.535108059034428
 30
0.0
 10
-0.827650720611574
 20
4.315466884111477
 30
0.0
 10
-1.153030443281144
 20
4.101516154331572
 30
0.0
 10
-1.538109719221438
 20
3.955862468295385
 30
0.0
 10
-2.33748716335501
 20
3.653503243722828
 30
0.0
 10
-2.929701430110349
 20
4.17991920249445
 30
0.0
 10
-3.723185880634572
 20
4.282984140995065
 30
0.0
 10
-4.537580315585601
 20
4.388765057430192
 30
0.0
 10
-4.975801833952838
 20
3.792050610645926
 30
0.0
 10
-5.763942463110551
 20
3.810097765383691
 30
0.0
 10
-6.322102694887891
 20
3.822878738345505
 30
0.0
 10
-6.29778090095816
 20
3.649609280374635
 30
0.0
 10
-6.774510351637142
 20
3.475042118504082
 30
0.0
 10
-7.194406015728317
 20
3.321286158477341
 30
0.0
 10
-7.482354829762597
 20
3.56172514975487
 30
0.0
 10
-7.84995253453922
 20
3.706355319167288
 30
0.0
 10
-8.232731626896086
 20
3.856958558131307
 30
0.0
 10
-8.474855705693724
 20
3.727832547518245
 30
0.0
 10
-8.844609851667327
 20
3.784172809589285
 30
0.0
 10
-9.3866493817141
 20
3.866764579034578
 30
0.0
 10
-9.489298478382933
 20
4.257730793429143
 30
0.0
 10
-9.647936661690084
 20
4.685911902629818
 30
0.0
 10
-9.738263885324828
 20
4.929714560985127
 30
0.0
 10
-9.870978903768028
 20
5.430270960809619
 30
0.0
 10
-10.08756606378074
 20
5.586699908044238
 30
0.0
 10
-10.47256984529782
 20
5.864766882192346
 30
0.0
 10
-10.19353449452961
 20
5.533619415974713
 30
0.0
 10
-10.62242084985393
 20
5.573253542141199
 30
0.0
 10
-10.86134342406593
 20
5.595332788386258
 30
0.0
 10
-10.87262231165582
 20
5.658997914618618
 30
0.0
 10
-11.05447841385006
 20
5.856805335911758
 30
0.0
 10
-11.27075886665376
 20
6.092056603969366
 30
0.0
 10
-11.55571272350676
 20
6.452089985244911
 30
0.0
 10
-11.61591313726107
 20
6.77704079802422
 30
0.0
 10
-11.71066369714502
 20
7.288486974644153
 30
0.0
 10
-11.62973965160724
 20
7.361334760249014
 30
0.0
 10
-12.0500906900091
 20
7.774663460835831
 30
0.0
  0
SPLINE
  5
4D
330
1F
100
AcDbEntity
  8
Layer 1
 62
     7
420
 16777215
370
    70
100
AcDbSpline
210
0.0
220
0.0
230
1.0
 70
     8
 71
     3
 72
   257
 73
   253
 74
     0
 42
0.0000000001
 43
0.0000000001
 12
1.0
 22
0.0
 32
0.0
 13
1.0
 23
0.0
 33
0.0
 40
0.0
 40
0.0
 40
0.0
 40
0.0
 40
1.0
 40
1.0
 40
1.0
 40
2.0
 40
2.0
 40
2.0
 40
3.0
 40
3.0
 40
3.0
 40
4.0
 40
4.0
 40
4.0
 40
5.0
 40
5.0
 40
5.0
 40
6.0
 40
6.0
 40
6.0
 40
7.0
 40
7.0
 40
7.0
 40
8.0
 40
8.0
 40
8.0
 40
9.0
 40
9.0
 40
9.0
 40
10.0
 40
10.0
 40
10.0
 40
11.0
 40
11.0
 40
11.0
 40
12.0
 40
12.0
 40
12.0
 40
13.0
 40
13.0
 40
13.0
 40
14.0
 40
14.0
 40
14.0
 40
15.0
 40
15.0
 40
15.0
 40
16.0
 40
16.0
 40
16.0
 40
17.0
 40
17.0
 40
17.0
 40
18.0
 40
18.0
 40
18.0
 40
19.0
 40
19.0
 40
19.0
 40
20.0
 40
20.0
 40
20.0
 40
21.0
 40
21.0
 40
21.0
 40
22.0
 40
22.0
 40
22.0
 40
23.0
 40
23.0
 40
23.0
 40
24.0
 40
24.0
 40
24.0
 40
25.0
 40
25.0
 40
25.0
 40
26.0
 40
26.0
 40
26.0
 40
27.0
 40
27.0
 40
27.0
 40
28.0
 40
28.0
 40
28.0
 40
29.0
 40
29.0
 40
29.0
 40
30.0
 40
30.0
 40
30.0
 40
31.0
 40
31.0
 40
31.0
 40
32.0
 40
32.0
 40
32.0
 40
33.0
 40
33.0
 40
33.0
 40
34.0
 40
34.0
 40
34.0
 40
35.0
 40
35.0
 40
35.0
 40
36.0
 40
36.0
 40
36.0
 40
37.0
 40
37.0
 40
37.0
 40
38.0
 40
38.0
 40
38.0
 40
39.0
 40
39.0
 40
39.0
 40
40.0
 40
40.0
 40
40.0
 40
41.0
 40
41.0
 40
41.0
 40
42.0
 40
42.0
 40
42.0
 40
43.0
 40
43.0
 40
43.0
 40
44.0
 40
44.0
 40
44.0
 40
45.0
 40
45.0
 40
45.0
 40
46.0
 40
46.0
 40
46.0
 40
47.0
 40
47.0
 40
47.0
 40
48.0
 40
48.0
 40
48.0
 40
49.0
 40
49.0
 40
49.0
 40
50.0
 40
50.0
 40
50.0
 40
51.0
 40
51.0
 40
51.0
 40
52.0
 40
52.0
 40
52.0
 40
53.0
 40
53.0
 40
53.0
 40
54.0
 40
54.0
 40
54.0
 40
55.0
 40
55.0
 40
55.0
 40
56.0
 40
56.0
 40
56.0
 40
57.0
 40
57.0
 40
57.0
 40
58.0
 40
58.0
 40
58.0
 40
59.0
 40
59.0
 40
59.0
 40
60.0
 40
60.0
 40
60.0
 40
61.0
 40
61.0
 40
61.0
 40
62.0
 40
62.0
 40
62.0
 40
63.0
 40
63.0
 40
63.0
 40
64.0
 40
64.0
 40
64.0
 40
65.0
 40
65.0
 40
65.0
 40
66.0
 40
66.0
 40
66.0
 40
67.0
 40
67.0
 40
67.0
 40
68.0
 40
68.0
 40
68.0
 40
69.0
 40
69.0
 40
69.0
 40
70.0
 40
70.0
 40
70.0
 40
71.0
 40
71.0
 40
71.0
 40
72.0
 40
72.0
 40
72.0
 40
73.0
 40
73.0
 40
73.0
 40
74.0
 40
74.0
 40
74.0
 40
75.0
 40
75.0
 40
75.0
 40
76.0
 40
76.0
 40
76.0
 40
77.0
 40
77.0
 40
77.0
 40
78.0
 40
78.0
 40
78.0
 40
79.0
 40
79.0
 40
79.0
 40
80.0
 40
80.0
 40
80.0
 40
81.0
 40
81.0
 40
81.0
 40
82.0
 40
82.0
 40
82.0
 40
83.0
 40
83.0
 40
83.0
 40
84.0
 40
84.0
 40
84.0
 40
84.0
 10
33.10271148244166
 20
8.273474792241636
 30
0.0
 10
34.50130157167584
 20
8.336768691360703
 30
0.0
 10
35.09566447977987
 20
9.786302417271713
 30
0.0
 10
35.8931119189843
 20
10.67199089347673
 30
0.0
 10
36.29580954872944
 20
11.11924877221064
 30
0.0
 10
36.85992854706334
 20
11.70089332037545
 30
0.0
 10
37.09125365192499
 20
12.26396544348823
 30
0.0
 10
37.37379671081943
 20
12.95170800449432
 30
0.0
 10
37.48199495704999
 20
13.32958477626708
 30
0.0
 10
38.00365865295112
 20
13.87525025964143
 30
0.0
 10
38.45401465722195
 20
14.34632717891306
 30
0.0
 10
38.8929054103054
 20
14.98055406798056
 30
0.0
 10
38.79793694707693
 20
15.66369976528875
 30
0.0
 10
38.71199395786557
 20
16.28192166019639
 30
0.0
 10
38.3023415803593
 20
16.86991767515528
 30
0.0
 10
38.1185094748868
 20
17.47337554414514
 30
0.0
 10
37.93984224222792
 20
18.05987890383625
 30
0.0
 10
37.67907047583458
 20
18.64253557511889
 30
0.0
 10
37.60767844660361
 20
19.25934378004709
 30
0.0
 10
37.52670669300166
 20
19.95891826374194
 30
0.0
 10
37.88955683148667
 20
20.65343895843971
 30
0.0
 10
37.79915940288679
 20
21.32509370047444
 30
0.0
 10
37.70920093326708
 20
21.99348696831597
 30
0.0
 10
37.04026814292764
 20
22.44060384619944
 30
0.0
 10
37.10412276507097
 20
23.14440279346528
 30
0.0
 10
37.17136076450917
 20
23.88549297037639
 30
0.0
 10
37.95432778133706
 20
24.07598158059653
 30
0.0
 10
38.1018255997886
 20
24.75093260373195
 30
0.0
 10
38.24334857994179
 20
25.3985427260675
 30
0.0
 10
38.0113466604007
 20
26.12761181408527
 30
0.0
 10
37.79547961389014
 20
26.72949405425695
 30
0.0
 10
37.6932593701386
 20
27.0145053623493
 30
0.0
 10
37.57822492766945
 20
27.3538057693957
 30
0.0
 10
37.34460514354431
 20
27.5652912472893
 30
0.0
 10
37.05992549124847
 20
27.82299892619083
 30
0.0
 10
36.77380039325569
 20
27.76812025331972
 30
0.0
 10
36.44526278831472
 20
27.94330283596222
 30
0.0
 10
35.80553219947041
 20
28.28441951503847
 30
0.0
 10
35.45058060530055
 20
28.88076185691917
 30
0.0
 10
34.7417432201493
 20
29.18319563933417
 30
0.0
 10
34.17703511650527
 20
29.42413497369083
 30
0.0
 10
33.57407687539082
 20
29.53116065249236
 30
0.0
 10
33.02715910206959
 20
29.8255980866168
 30
0.0
 10
32.37208273949763
 20
30.17826353791472
 30
0.0
 10
32.2268266263282
 20
30.82329267569611
 30
0.0
 10
31.71829083359209
 20
31.30312267422194
 30
0.0
 10
31.25890698274917
 20
31.73657525636334
 30
0.0
 10
30.60617195280471
 20
31.84355990318014
 30
0.0
 10
30.05172190674223
 20
32.13061141923528
 30
0.0
 10
29.46475467295277
 20
32.4344978297975
 30
0.0
 10
28.94052889805542
 20
32.7653443277325
 30
0.0
 10
28.25526637368304
 20
32.76168708178861
 30
0.0
 10
27.69796583784083
 20
32.75871276894972
 30
0.0
 10
27.15944426462625
 20
32.74268409009723
 30
0.0
 10
26.59811104935208
 20
32.76296834174499
 30
0.0
 10
25.93852252037542
 20
32.78680313245695
 30
0.0
 10
25.30882659600999
 20
32.60268407299542
 30
0.0
 10
24.64136447590209
 20
32.70599250235055
 30
0.0
 10
23.93546309790529
 20
32.81525048185777
 30
0.0
 10
23.26084134849068
 20
32.91413191587028
 30
0.0
 10
22.5456566483639
 20
32.98141420522208
 30
0.0
 10
21.8771752255218
 20
33.04430279960889
 30
0.0
 10
21.22912408613375
 20
32.98565013108459
 30
0.0
 10
20.56187894978499
 20
33.00850723524028
 30
0.0
 10
19.80185234922404
 20
33.03454265494403
 30
0.0
 10
19.33585873202444
 20
33.23471884717515
 30
0.0
 10
18.66486755005985
 20
33.49600544811652
 30
0.0
 10
18.31683405273194
 20
33.63153105854902
 30
0.0
 10
18.05679188417611
 20
33.5190683820414
 30
0.0
 10
17.71616091301543
 20
33.48005212682513
 30
0.0
 10
17.24214435254112
 20
33.42575773592721
 30
0.0
 10
17.07644945604195
 20
33.54758788611667
 30
0.0
 10
16.66962222443653
 20
33.7533324025711
 30
0.0
 10
16.02501503502736
 20
34.07932924886083
 30
0.0
 10
15.36769282938361
 20
34.03199158809208
 30
0.0
 10
14.67437689881318
 20
33.96419517081083
 30
0.0
 10
14.32818003561528
 20
33.93034205138305
 30
0.0
 10
13.9744644102943
 20
33.91971569470861
 30
0.0
 10
13.67675423600162
 20
34.14041403478236
 30
0.0
 10
13.34422301585497
 20
34.38692589311388
 30
0.0
 10
13.22914859923614
 20
34.8053614658
 30
0.0
 10
12.71536521531344
 20
34.746710521125
 30
0.0
 10
12.44680551686833
 20
34.71605308745097
 30
0.0
 10
12.24418679363043
 20
34.47523998069486
 30
0.0
 10
11.98079367955327
 20
34.41119109499237
 30
0.0
 10
11.46195146188519
 20
34.28502505601472
 30
0.0
 10
11.56158721396994
 20
34.52269677262903
 30
0.0
 10
11.10453707457347
 20
34.69674033627889
 30
0.0
 10
10.56162429944554
 20
34.90348017943708
 30
0.0
 10
10.09724826522375
 20
34.48936661739805
 30
0.0
 10
9.504936383438386
 20
34.74459233652291
 30
0.0
 10
9.022749758574566
 20
34.95236535588624
 30
0.0
 10
8.357343493843523
 20
35.4137920108768
 30
0.0
 10
8.036322717119521
 20
35.80851713731236
 30
0.0
 10
7.612815295785847
 20
36.32925919687097
 30
0.0
 10
7.164995218685994
 20
36.44271282522153
 30
0.0
 10
6.570078651191933
 20
36.78494924344277
 30
0.0
 10
6.361002558405617
 20
36.90522401311723
 30
0.0
 10
5.879052185875366
 20
37.22269346877639
 30
0.0
 10
5.664402377119258
 20
37.23590282387709
 30
0.0
 10
5.361062446976322
 20
37.25457008883624
 30
0.0
 10
5.068791839746583
 20
36.90302611194124
 30
0.0
 10
4.786856932639719
 20
36.84464438759431
 30
0.0
 10
4.462914673837556
 20
36.77756398293
 30
0.0
 10
4.123261511700522
 20
36.98744062449931
 30
0.0
 10
3.795383150559246
 20
37.04257575723569
 30
0.0
 10
3.457407734406994
 20
37.09940878325889
 30
0.0
 10
3.117941940376517
 20
37.05556393241014
 30
0.0
 10
2.775456460563267
 20
37.05861610056417
 30
0.0
 10
2.1788761322836
 20
37.06393271568097
 30
0.0
 10
1.561848959657734
 20
37.12785754793499
 30
0.0
 10
0.9720317600058731
 20
37.21723584989152
 30
0.0
 10
0.3186115400542349
 20
37.31625227355264
 30
0.0
 10
-0.3985739253205338
 20
37.38056182934015
 30
0.0
 10
-1.02452007075039
 20
37.57290094808402
 30
0.0
 10
-1.633212947143849
 20
37.75993852677346
 30
0.0
 10
-2.19381973586797
 20
38.01360546662472
 30
0.0
 10
-2.83775821852195
 20
38.09052341631875
 30
0.0
 10
-3.443497635505638
 20
38.16287851740124
 30
0.0
 10
-4.0734608562985
 20
38.2801034757975
 30
0.0
 10
-4.677373637472581
 20
38.30404555771515
 30
0.0
 10
-5.28449123932291
 20
38.32811469453444
 30
0.0
 10
-5.883979216487583
 20
38.18132481376735
 30
0.0
 10
-6.482246713232648
 20
38.18078023758125
 30
0.0
 10
-7.11799799293332
 20
38.18020154158138
 30
0.0
 10
-7.640393084645792
 20
38.03923292269625
 30
0.0
 10
-8.270944345854634
 20
37.96460785653653
 30
0.0
 10
-8.935746014193809
 20
37.88592929139041
 30
0.0
 10
-9.647448281455429
 20
37.97056422571208
 30
0.0
 10
-10.27376134982996
 20
37.71091502353723
 30
0.0
 10
-10.87866874447478
 20
37.46013992344736
 30
0.0
 10
-11.24281016538211
 20
36.93695080083126
 30
0.0
 10
-11.79532669945709
 20
36.65144861513431
 30
0.0
 10
-12.55473453319618
 20
36.25903936944361
 30
0.0
 10
-12.76840960120273
 20
36.09859616667556
 30
0.0
 10
-13.21551927843198
 20
35.35148565816486
 30
0.0
 10
-13.53385484401598
 20
34.81955387857485
 30
0.0
 10
-13.652975947868
 20
34.25913346229584
 30
0.0
 10
-13.92997473206805
 20
33.71285269393861
 30
0.0
 10
-14.29191970797264
 20
32.99904602467389
 30
0.0
 10
-14.80201151645931
 20
32.80299574782334
 30
0.0
 10
-15.49033465805278
 20
32.4791978511932
 30
0.0
 10
-16.22730281577541
 20
32.13251658343638
 30
0.0
 10
-16.34212466555152
 20
31.84477927761792
 30
0.0
 10
-16.66120018339278
 20
31.12925924054861
 30
0.0
 10
-16.79563485592139
 20
30.82779235734223
 30
0.0
 10
-17.13803597938027
 20
30.59416301988376
 30
0.0
 10
-17.24954831115944
 20
30.30773163192985
 30
0.0
 10
-17.37327912637319
 20
29.9899157583943
 30
0.0
 10
-17.22634686842972
 20
29.59306394491985
 30
0.0
 10
-17.27886179852041
 20
29.25286419864707
 30
0.0
 10
-17.37215210266875
 20
28.64851534497319
 30
0.0
 10
-17.71173888032403
 20
28.04008604840611
 30
0.0
 10
-17.92706707040347
 20
27.47006833461612
 30
0.0
 10
-18.20675104728694
 20
26.72968770434153
 30
0.0
 10
-18.15622709014987
 20
26.30439524693402
 30
0.0
 10
-18.06181048305999
 20
25.54651090053431
 30
0.0
 10
-17.97936061204263
 20
24.8846838286582
 30
0.0
 10
-18.1547974024925
 20
24.2830043410825
 30
0.0
 10
-18.21391574352208
 20
23.6291305088343
 30
0.0
 10
-18.27096309821346
 20
22.99816266058195
 30
0.0
 10
-18.17298535309972
 20
22.37315096719167
 30
0.0
 10
-18.21390724428527
 20
21.74138074019889
 30
0.0
 10
-18.29833723680485
 20
20.43791323188361
 30
0.0
 10
-17.89738031705555
 20
19.13347037667153
 30
0.0
 10
-17.6385576210318
 20
17.86069312531986
 30
0.0
 10
-17.52388800641945
 20
17.2967979216075
 30
0.0
 10
-17.33999336946431
 20
16.75429397193166
 30
0.0
 10
-17.23605123760652
 20
16.18521179721708
 30
0.0
 10
-17.10054720632764
 20
15.44332852597305
 30
0.0
 10
-16.74897250493945
 20
14.92897104079667
 30
0.0
 10
-16.44237654786541
 20
14.25921076911153
 30
0.0
 10
-16.15010586738305
 20
13.6207441297155
 30
0.0
 10
-16.1477964556618
 20
12.93105347894758
 30
0.0
 10
-15.81943398900042
 20
12.30950004152863
 30
0.0
 10
-15.47505180348042
 20
11.65762306736613
 30
0.0
 10
-15.08455943827194
 20
11.26234472070989
 30
0.0
 10
-14.47010377148973
 20
10.8493199861197
 30
0.0
 10
-13.91512862065749
 20
10.47627685743141
 30
0.0
 10
-13.37983874856982
 20
10.4582857230037
 30
0.0
 10
-12.760246328507
 20
10.28448455313113
 30
0.0
 10
-12.11239799115823
 20
10.10275734781797
 30
0.0
 10
-11.56622873507365
 20
9.61032838488394
 30
0.0
 10
-10.98453329341037
 20
9.296148751316347
 30
0.0
 10
-10.45002689640397
 20
9.007456401466015
 30
0.0
 10
-10.15779120745253
 20
8.5503531775116
 30
0.0
 10
-9.680085793279305
 20
8.20856877489915
 30
0.0
 10
-9.143648922180267
 20
7.824763714106211
 30
0.0
 10
-8.508487677330827
 20
7.43757538110564
 30
0.0
 10
-7.925874314578979
 20
7.122108799631278
 30
0.0
 10
-7.216208946520687
 20
6.737847603501702
 30
0.0
 10
-6.796215754822874
 20
6.47949410561566
 30
0.0
 10
-5.943586392681683
 20
6.610340064499496
 30
0.0
 10
-5.681856601003599
 20
6.650505565573237
 30
0.0
 10
-5.426985234156746
 20
6.7422551472133
 30
0.0
 10
-5.164883774651242
 20
6.777040798024195
 30
0.0
 10
-4.731363338544421
 20
6.834576877900467
 30
0.0
 10
-4.532506588991231
 20
6.694957620497335
 30
0.0
 10
-4.122074601947487
 20
6.618661705363593
 30
0.0
 10
-3.293698998316712
 20
6.46467352523003
 30
0.0
 10
-2.827871021519008
 20
6.719924787527361
 30
0.0
 10
-2.406103543723778
 20
7.396747304168962
 30
0.0
 10
-2.062953943505716
 20
7.947409430177837
 30
0.0
 10
-1.698483299725189
 20
8.432573464471336
 30
0.0
 10
-1.229509448171813
 20
8.888725273946495
 30
0.0
 10
-0.7548790724935214
 20
9.350378954594992
 30
0.0
 10
-0.1025667696837647
 20
9.38691646505726
 30
0.0
 10
0.5310875931590241
 20
9.525804614887166
 30
0.0
 10
1.169615347158393
 20
9.665760943713115
 30
0.0
 10
1.954802224437976
 20
9.29638715031716
 30
0.0
 10
2.421235668839826
 20
9.87465185924768
 30
0.0
 10
2.64492932681464
 20
10.15197791631097
 30
0.0
 10
2.672948806959387
 20
10.42241099247068
 30
0.0
 10
2.970082388192521
 20
10.68061596978211
 30
0.0
 10
3.207396348872117
 20
10.88683852321636
 30
0.0
 10
3.469331756627374
 20
11.00761160603583
 30
0.0
 10
3.743892490295366
 20
11.15800820947111
 30
0.0
 10
4.380587567114718
 20
11.50677176243202
 30
0.0
 10
4.682067306326821
 20
11.79895621627159
 30
0.0
 10
5.126982691440895
 20
12.33394435414988
 30
0.0
 10
5.913490396227139
 20
13.27967989508337
 30
0.0
 10
7.236761464442957
 20
13.95470278149111
 30
0.0
 10
8.454616911061496
 20
13.64221432145619
 30
0.0
 10
9.774870610511016
 20
13.30345158361079
 30
0.0
 10
10.68156065088412
 20
12.09933504257924
 30
0.0
 10
11.5029122897549
 20
11.08774616005321
 30
0.0
 10
12.38014201778494
 20
10.00733699265139
 30
0.0
 10
13.72612557369654
 20
9.444910105358025
 30
0.0
 10
15.01151904491444
 20
8.971860890505214
 30
0.0
 10
16.18025068399457
 20
8.541745445997245
 30
0.0
 10
17.26047441214028
 20
7.860680857220106
 30
0.0
 10
18.4373234438075
 20
7.459365622002931
 30
0.0
 10
19.64214235335902
 20
7.048512427523241
 30
0.0
 10
20.97714543968444
 20
7.319826348917255
 30
0.0
 10
22.15654686990057
 20
6.773468581458094
 30
0.0
 10
22.84091373469639
 20
6.456435599478103
 30
0.0
 10
23.30635099762389
 20
6.014057598050158
 30
0.0
 10
24.07398282377583
 20
6.469365379255931
 30
0.0
 10
24.38722571608474
 20
6.655160081112676
 30
0.0
 10
24.49027872126974
 20
6.953455045210072
 30
0.0
 10
24.73713235456833
 20
7.189321272122747
 30
0.0
 10
25.00523972773443
 20
7.445495239145733
 30
0.0
 10
25.36734388563195
 20
7.523888274507928
 30
0.0
 10
25.72131861188723
 20
7.612913088791022
 30
0.0
 10
26.36411888379904
 20
7.77457766703214
 30
0.0
 10
27.02603930996583
 20
7.918554790201116
 30
0.0
 10
27.64347151536458
 20
8.168120789233473
 30
0.0
 10
28.24616896937348
 20
8.411731004102068
 30
0.0
 10
28.68337125179596
 20
8.858883662819556
 30
0.0
 10
29.34263691837971
 20
8.975015502776689
 30
0.0
 10
30.61248474074071
 20
9.198703420335834
 30
0.0
 10
31.83344073575222
 20
8.321427421681367
 30
0.0
 10
33.10270742310473
 20
8.273474792241636
 30
0.0
  0
SPLINE
  5
4E
330
1F
100
AcDbEntity
  8
Layer 1
 62
     7
420
 16777215
370
    70
100
AcDbSpline
210
0.0
220
0.0
230
1.0
 70
     8
 71
     3
 72
   233
 73
   229
 74
     0
 42
0.0000000001
 43
0.0000000001
 12
1.0
 22
0.0
 32
0.0
 13
1.0
 23
0.0
 33
0.0
 40
0.0
 40
0.0
 40
0.0
 40
0.0
 40
1.0
 40
1.0
 40
1.0
 40
2.0
 40
2.0
 40
2.0
 40
3.0
 40
3.0
 40
3.0
 40
4.0
 40
4.0
 40
4.0
 40
5.0
 40
5.0
 40
5.0
 40
6.0
 40
6.0
 40
6.0
 40
7.0
 40
7.0
 40
7.0
 40
8.0
 40
8.0
 40
8.0
 40
9.0
 40
9.0
 40
9.0
 40
10.0
 40
10.0
 40
10.0
 40
11.0
 40
11.0
 40
11.0
 40
12.0
 40
12.0
 40
12.0
 40
13.0
 40
13.0
 40
13.0
 40
14.0
 40
14.0
 40
14.0
 40
15.0
 40
15.0
 40
15.0
 40
16.0
 40
16.0
 40
16.0
 40
17.0
 40
17.0
 40
17.0
 40
18.0
 40
18.0
 40
18.0
 40
19.0
 40
19.0
 40
19.0
 40
20.0
 40
20.0
 40
20.0
 40
21.0
 40
21.0
 40
21.0
 40
22.0
 40
22.0
 40
22.0
 40
23.0
 40
23.0
 40
23.0
 40
24.0
 40
24.0
 40
24.0
 40
25.0
 40
25.0
 40
25.0
 40
26.0
 40
26.0
 40
26.0
 40
27.0
 40
27.0
 40
27.0
 40
28.0
 40
28.0
 40
28.0
 40
29.0
 40
29.0
 40
29.0
 40
30.0
 40
30.0
 40
30.0
 40
31.0
 40
31.0
 40
31.0
 40
32.0
 40
32.0
 40
32.0
 40
33.0
 40
33.0
 40
33.0
 40
34.0
 40
34.0
 40
34.0
 40
35.0
 40
35.0
 40
35.0
 40
36.0
 40
36.0
 40
36.0
 40
37.0
 40
37.0
 40
37.0
 40
38.0
 40
38.0
 40
38.0
 40
39.0
 40
39.0
 40
39.0
 40
40.0
 40
40.0
 40
40.0
 40
41.0
 40
41.0
 40
41.0
 40
42.0
 40
42.0
 40
42.0
 40
43.0
 40
43.0
 40
43.0
 40
44.0
 40
44.0
 40
44.0
 40
45.0
 40
45.0
 40
45.0
 40
46.0
 40
46.0
 40
46.0
 40
47.0
 40
47.0
 40
47.0
 40
48.0
 40
48.0
 40
48.0
 40
49.0
 40
49.0
 40
49.0
 40
50.0
 40
50.0
 40
50.0
 40
51.0
 40
51.0
 40
51.0
 40
52.0
 40
52.0
 40
52.0
 40
53.0
 40
53.0
 40
53.0
 40
54.0
 40
54.0
 40
54.0
 40
55.0
 40
55.0
 40
55.0
 40
56.0
 40
56.0
 40
56.0
 40
57.0
 40
57.0
 40
57.0
 40
58.0
 40
58.0
 40
58.0
 40
59.0
 40
59.0
 40
59.0
 40
60.0
 40
60.0
 40
60.0
 40
61.0
 40
61.0
 40
61.0
 40
62.0
 40
62.0
 40
62.0
 40
63.0
 40
63.0
 40
63.0
 40
64.0
 40
64.0
 40
64.0
 40
65.0
 40
65.0
 40
65.0
 40
66.0
 40
66.0
 40
66.0
 40
67.0
 40
67.0
 40
67.0
 40
68.0
 40
68.0
 40
68.0
 40
69.0
 40
69.0
 40
69.0
 40
70.0
 40
70.0
 40
70.0
 40
71.0
 40
71.0
 40
71.0
 40
72.0
 40
72.0
 40
72.0
 40
73.0
 40
73.0
 40
73.0
 40
74.0
 40
74.0
 40
74.0
 40
75.0
 40
75.0
 40
75.0
 40
76.0
 40
76.0
 40
76.0
 40
76.0
 10
14.67437689881318
 20
-6.193662495098061
 30
0.0
 10
14.87164995613875
 20
-6.019789783628349
 30
0.0
 10
14.9144875030914
 20
-5.790035944167382
 30
0.0
 10
15.17318823021904
 20
-5.647327490518452
 30
0.0
 10
15.39589032208652
 20
-5.524477154890607
 30
0.0
 10
15.80689855165861
 20
-5.468551222696065
 30
0.0
 10
16.06181160539028
 20
-5.383866370429157
 30
0.0
 10
16.65982821054318
 20
-5.185198836071322
 30
0.0
 10
17.18431281790041
 20
-5.235955344457718
 30
0.0
 10
17.80482393708543
 20
-5.276309162260518
 30
0.0
 10
18.45441073054513
 20
-5.318553863926454
 30
0.0
 10
18.99965026943985
 20
-5.213280800268598
 30
0.0
 10
19.63341724122807
 20
-5.109658155614182
 30
0.0
 10
20.25314169330348
 20
-5.008331501592061
 30
0.0
 10
20.79268238381347
 20
-5.330816727279031
 30
0.0
 10
21.41598781205529
 20
-5.320783765925082
 30
0.0
 10
22.75167358836335
 20
-5.299284059412773
 30
0.0
 10
24.07196817222542
 20
-5.502099051893752
 30
0.0
 10
25.39575166526111
 20
-5.491462142299357
 30
0.0
 10
26.03853708772388
 20
-5.486297211279066
 30
0.0
 10
26.54088864891097
 20
-5.560763232726824
 30
0.0
 10
27.14466018395875
 20
-5.757216787797498
 30
0.0
 10
27.80943537695889
 20
-5.973519548704176
 30
0.0
 10
28.50937833882416
 20
-5.852780481271477
 30
0.0
 10
29.18631185024472
 20
-6.025875888924057
 30
0.0
 10
29.78410984256235
 20
-6.178735934155017
 30
0.0
 10
30.40045576546749
 20
-6.403578037101586
 30
0.0
 10
30.91812379458166
 20
-6.74554199023233
 30
0.0
 10
31.47345035561375
 20
-7.11238262053751
 30
0.0
 10
31.73624508579693
 20
-7.73366442367012
 30
0.0
 10
32.24234973772263
 20
-8.153624740013697
 30
0.0
 10
32.77275187673695
 20
-8.593746855552846
 30
0.0
 10
33.48496356722237
 20
-8.877412900023185
 30
0.0
 10
34.11988797161543
 20
-9.121087881976564
 30
0.0
 10
34.72900866148431
 20
-9.354859764241912
 30
0.0
 10
35.13357184625235
 20
-9.671852627579078
 30
0.0
 10
35.65608317181542
 20
-10.04266952172389
 30
0.0
 10
36.23808029406667
 20
-10.45570241635424
 30
0.0
 10
36.69647223273111
 20
-10.58993194432888
 30
0.0
 10
36.77365315417485
 20
-11.36302368426226
 30
0.0
 10
36.8366130099386
 20
-11.99366845408086
 30
0.0
 10
36.56930751656584
 20
-12.63070822722299
 30
0.0
 10
36.38524158167681
 20
-13.22884973484921
 30
0.0
 10
35.97159558212694
 20
-14.57303567530334
 30
0.0
 10
36.82510112399834
 20
-15.5826107513332
 30
0.0
 10
36.91188778693875
 20
-16.90120101135805
 30
0.0
 10
36.98967258256723
 20
-18.08302170152471
 30
0.0
 10
37.18065798225348
 20
-19.23962115755292
 30
0.0
 10
37.23196801338973
 20
-20.4222118224711
 30
0.0
 10
37.2587005541975
 20
-21.0383418950664
 30
0.0
 10
37.53180321580486
 20
-21.72422599544264
 30
0.0
 10
37.33370161399804
 20
-22.31113018214402
 30
0.0
 10
37.15290392492069
 20
-22.84676906490762
 30
0.0
 10
36.75072593656723
 20
-23.43835327801652
 30
0.0
 10
36.48440306608098
 20
-23.95588829125596
 30
0.0
 10
36.24420741914415
 20
-24.42265127368596
 30
0.0
 10
35.77265317247873
 20
-25.00578316917472
 30
0.0
 10
35.38372601467555
 20
-25.3492699265482
 30
0.0
 10
34.92076197093444
 20
-25.75814345202626
 30
0.0
 10
34.33130741862876
 20
-25.8846233557157
 30
0.0
 10
33.87286318224
 20
-26.23414082052126
 30
0.0
 10
33.39608779564333
 20
-26.59763393741084
 30
0.0
 10
33.18640436499875
 20
-27.11053211666194
 30
0.0
 10
32.53743662622221
 20
-27.18057689748015
 30
0.0
 10
32.17088651641792
 20
-27.22013960694304
 30
0.0
 10
31.99235056925666
 20
-27.16378476823666
 30
0.0
 10
31.6339621666111
 20
-27.32428757586624
 30
0.0
 10
31.27134195089014
 20
-27.4866855839961
 30
0.0
 10
31.07287491386624
 20
-27.60055574588457
 30
0.0
 10
30.66883855587667
 20
-27.61773704809376
 30
0.0
 10
30.00912154246584
 20
-27.64579095254056
 30
0.0
 10
29.40738861079626
 20
-27.68899265246151
 30
0.0
 10
28.75898544353014
 20
-27.84512791437416
 30
0.0
 10
28.13016740060958
 20
-27.99654708501278
 30
0.0
 10
27.63938788193695
 20
-28.3395334808718
 30
0.0
 10
27.03641999233875
 20
-28.55959456877346
 30
0.0
 10
25.84705572066804
 20
-28.99366875423223
 30
0.0
 10
24.60688851254529
 20
-28.89869468274583
 30
0.0
 10
23.42239022544209
 20
-29.31226465857874
 30
0.0
 10
22.17909011940666
 20
-29.74636540857945
 30
0.0
 10
21.05315781876445
 20
-29.00746578644973
 30
0.0
 10
19.77865625999735
 20
-28.96551000244514
 30
0.0
 10
18.42564286192277
 20
-28.92096965842264
 30
0.0
 10
17.46832647954498
 20
-28.36901809650514
 30
0.0
 10
16.2887447814232
 20
-27.77271949051389
 30
0.0
 10
15.16945946861501
 20
-27.20690173257763
 30
0.0
 10
14.01339925743819
 20
-26.3809472201629
 30
0.0
 10
13.11870845760808
 20
-25.49987914748597
 30
0.0
 10
12.17702235672694
 20
-24.57253133288057
 30
0.0
 10
11.04951291790222
 20
-23.96170545377153
 30
0.0
 10
10.03784986676093
 20
-23.13767310163487
 30
0.0
 10
9.532064487610695
 20
-22.72569451332194
 30
0.0
 10
9.044127695167642
 20
-22.24295912917778
 30
0.0
 10
8.383535063500478
 20
-22.09831538022124
 30
0.0
 10
7.809103063058122
 20
-21.97253741346597
 30
0.0
 10
7.298672998296878
 20
-22.20323524319888
 30
0.0
 10
6.787614837918302
 20
-22.4653088758368
 30
0.0
 10
6.182244213058728
 20
-22.77574649536652
 30
0.0
 10
5.738942903685584
 20
-23.17666286544487
 30
0.0
 10
5.17975914670165
 20
-23.54907066993443
 30
0.0
 10
4.54840941791872
 20
-23.96953990464418
 30
0.0
 10
4.048942412463753
 20
-24.22612628759056
 30
0.0
 10
3.546490803055374
 20
-24.82166654465471
 30
0.0
 10
3.317103116769608
 20
-25.09355263099597
 30
0.0
 10
3.189704286233791
 20
-25.32291073258026
 30
0.0
 10
2.827790448090228
 20
-25.46510919704514
 30
0.0
 10
2.575062857807249
 20
-25.56440762523041
 30
0.0
 10
2.29804124217483
 20
-25.53958176871846
 30
0.0
 10
2.036755864924519
 20
-25.62711673560665
 30
0.0
 10
1.861726796694913
 20
-25.68575439781792
 30
0.0
 10
1.763167193022683
 20
-25.81508900720665
 30
0.0
 10
1.592336304216537
 20
-25.85998323405819
 30
0.0
 10
1.416453407816713
 20
-25.90620512463945
 30
0.0
 10
1.220281694008033
 20
-25.86284465952445
 30
0.0
 10
1.031247639285387
 20
-25.91358271989722
 30
0.0
 10
0.6532144667510238
 20
-26.01504946333181
 30
0.0
 10
0.5405069091296405
 20
-26.21875730075681
 30
0.0
 10
0.2088482880443128
 20
-26.41010255556264
 30
0.0
 10
-0.3351706734421845
 20
-26.72396578777473
 30
0.0
 10
-0.9261231105343136
 20
-26.9811208003936
 30
0.0
 10
-1.497334693821547
 20
-27.23952760432833
 30
0.0
 10
-2.092781795099351
 20
-27.50889816132556
 30
0.0
 10
-2.570095109878038
 20
-27.99046749254459
 30
0.0
 10
-3.159912277559505
 20
-28.27585706033473
 30
0.0
 10
-3.725509931996056
 20
-28.54952774845222
 30
0.0
 10
-4.416157592917013
 20
-28.61369538604819
 30
0.0
 10
-5.015268790588581
 20
-28.84567025532806
 30
0.0
 10
-5.627646024197298
 20
-29.08278171187971
 30
0.0
 10
-6.059812705961601
 20
-29.27608715352693
 30
0.0
 10
-6.726999363891486
 20
-29.17105656145723
 30
0.0
 10
-7.875973000037548
 20
-28.99018156966528
 30
0.0
 10
-8.838076695850962
 20
-27.98918865697027
 30
0.0
 10
-9.831518383073266
 20
-27.42871123897084
 30
0.0
 10
-10.83680509737443
 20
-26.86155112355805
 30
0.0
 10
-11.9455921091707
 20
-26.29472984646847
 30
0.0
 10
-13.05310118303601
 20
-25.97642027951582
 30
0.0
 10
-13.71369707906246
 20
-25.78655818397485
 30
0.0
 10
-14.19758106437166
 20
-25.52179866494556
 30
0.0
 10
-14.61545366090111
 20
-24.95114436059263
 30
0.0
 10
-15.02542396729596
 20
-24.39128156522348
 30
0.0
 10
-14.97887276029931
 20
-23.70896700975209
 30
0.0
 10
-15.25334904133945
 20
-23.09689198722945
 30
0.0
 10
-15.51087176367709
 20
-22.52262296304459
 30
0.0
 10
-16.08527349679236
 20
-22.15669114792917
 30
0.0
 10
-16.32287727763972
 20
-21.59950404881541
 30
0.0
 10
-16.56639726814472
 20
-21.02844328285513
 30
0.0
 10
-16.66758843315736
 20
-20.24746723257554
 30
0.0
 10
-16.82713725414305
 20
-19.63785887043236
 30
0.0
 10
-17.12069326486639
 20
-18.51623228749125
 30
0.0
 10
-17.36442617335389
 20
-17.19540711555667
 30
0.0
 10
-17.38808460340472
 20
-16.04291509130763
 30
0.0
 10
-17.4007381500743
 20
-15.42651275252486
 30
0.0
 10
-17.54027844758083
 20
-14.72467930112985
 30
0.0
 10
-17.44858826036653
 20
-14.11733407772805
 30
0.0
 10
-17.35371984457681
 20
-13.48893663485983
 30
0.0
 10
-17.15773114123181
 20
-12.90386459335746
 30
0.0
 10
-17.11671716336875
 20
-12.25492040731251
 30
0.0
 10
-17.07865593522389
 20
-11.65269614121477
 30
0.0
 10
-17.20671313611083
 20
-11.06595213466951
 30
0.0
 10
-17.09236926000153
 20
-10.46847519931225
 30
0.0
 10
-16.9741742683468
 20
-9.850875168674166
 30
0.0
 10
-16.64320179742208
 20
-9.302485995062398
 30
0.0
 10
-16.40639991251625
 20
-8.726215874631976
 30
0.0
 10
-15.89991418861916
 20
-7.49365563034731
 30
0.0
 10
-15.47814478955278
 20
-6.370137370730705
 30
0.0
 10
-14.38343312076444
 20
-5.510788645789148
 30
0.0
 10
-14.19454495105528
 20
-5.362511421361861
 30
0.0
 10
-13.92594018855541
 20
-5.286778434892881
 30
0.0
 10
-13.75209407700926
 20
-5.13295570553094
 30
0.0
 10
-13.49905392523804
 20
-4.909060408492539
 30
0.0
 10
-13.37552565430499
 20
-4.475018151462867
 30
0.0
 10
-13.21684461437826
 20
-4.183320495146214
 30
0.0
 10
-12.9113343797833
 20
-3.621712003966334
 30
0.0
 10
-12.57775482078375
 20
-3.059002793390619
 30
0.0
 10
-12.13896949791026
 20
-2.588733479872379
 30
0.0
 10
-11.67293760529896
 20
-2.089262584217269
 30
0.0
 10
-11.02304705780581
 20
-2.159924091272652
 30
0.0
 10
-10.47578357741809
 20
-1.811231429554975
 30
0.0
 10
-9.912379194006007
 20
-1.452254481310269
 30
0.0
 10
-9.451022980413995
 20
-1.255073935907767
 30
0.0
 10
-8.81313679701879
 20
-1.049190115957344
 30
0.0
 10
-8.21972216434632
 20
-0.8576599110878709
 30
0.0
 10
-7.530642168665862
 20
-0.9254302247946447
 30
0.0
 10
-6.99810066364479
 20
-0.649428129770854
 30
0.0
 10
-6.390541320816888
 20
-0.3345462850869707
 30
0.0
 10
-5.969942843801972
 20
-0.2653606877348441
 30
0.0
 10
-5.276979829010719
 20
-0.1486678091846064
 30
0.0
 10
-2.947330469349052
 20
0.2436381061224766
 30
0.0
 10
-0.4166990940762692
 20
-0.531190919721919
 30
0.0
 10
1.886880782601717
 20
-0.9666409608367479
 30
0.0
 10
2.472589693012626
 20
-1.077358618905363
 30
0.0
 10
3.097014646209876
 20
-1.12583175175295
 30
0.0
 10
3.673358465298002
 20
-1.269993693109768
 30
0.0
 10
4.368715320810249
 20
-1.443924584543652
 30
0.0
 10
4.708031859177077
 20
-1.861623315057399
 30
0.0
 10
5.261096082308541
 20
-2.239941572168416
 30
0.0
 10
5.785800266131117
 20
-2.598860417431423
 30
0.0
 10
6.510273193994003
 20
-2.63696887517627
 30
0.0
 10
7.105945001495305
 20
-2.850440487147378
 30
0.0
 10
7.774824930854505
 20
-3.090147780555109
 30
0.0
 10
8.111838279087376
 20
-3.413073169591674
 30
0.0
 10
8.443663992914935
 20
-4.049367701798865
 30
0.0
 10
8.497817985342458
 20
-4.153211038354546
 30
0.0
 10
8.83251397193428
 20
-4.641788487524675
 30
0.0
 10
8.790516073136587
 20
-4.741793932210688
 30
0.0
 10
8.68069360093624
 20
-5.003303328711973
 30
0.0
 10
7.899469117245821
 20
-4.839370141257139
 30
0.0
 10
7.743791669889712
 20
-5.085955686831008
 30
0.0
 10
7.637609226146171
 20
-5.254143541048418
 30
0.0
 10
7.794744730766271
 20
-5.460693466594585
 30
0.0
 10
7.97885366827874
 20
-5.637541443829049
 30
0.0
 10
8.337406736578235
 20
-5.981953755999926
 30
0.0
 10
8.392820212225917
 20
-5.890302028770949
 30
0.0
 10
8.368891512665261
 20
-6.424429461225309
 30
0.0
 10
8.338151688194532
 20
-7.110592262385315
 30
0.0
 10
8.52376956518002
 20
-7.670831345931711
 30
0.0
 10
9.308901527589594
 20
-7.754235028858538
 30
0.0
 10
9.593496625573808
 20
-7.784467245162621
 30
0.0
 10
9.893464769344934
 20
-7.692459115943001
 30
0.0
 10
10.15290670004975
 20
-7.600617538507056
 30
0.0
 10
10.49990407204415
 20
-7.477781627120243
 30
0.0
 10
10.82497472851312
 20
-7.461894677443309
 30
0.0
 10
11.18269757897244
 20
-7.368394031520033
 30
0.0
 10
11.77232339957037
 20
-7.214279204893298
 30
0.0
 10
12.28816334038558
 20
-6.972441258814456
 30
0.0
 10
12.91432550003171
 20
-6.870357018648305
 30
0.0
 10
13.62210554001088
 20
-6.754966482070901
 30
0.0
 10
14.03591816000388
 20
-6.511537646833315
 30
0.0
 10
14.67437689881318
 20
-6.193661480263826
 30
0.0
  0
ENDSEC
  0
SECTION
  2
OBJECTS
  0
DICTIONARY
  5
C
330
0
100
AcDbDictionary
281
     1
  3
ACAD_GROUP
350
D
  3
ACAD_LAYOUT
350
1A
  3
ACAD_MATERIAL
350
3B
  3
ACAD_MLEADERSTYLE
350
50
  3
ACAD_MLINESTYLE
350
17
  3
ACAD_PLOTSETTINGS
350
19
  3
ACAD_PLOTSTYLENAME
350
E
  3
ACAD_TABLESTYLE
350
4F
  3
ACAD_VISUALSTYLE
350
2A
  0
SUN
  5
3F
330
29
100
AcDbSun
 90
        1
290
     0
 63
     7
421
 16777215
 40
1.0
291
     1
 91
  2455826
 92
 54000000
292
     0
 70
     2
 71
   256
280
     1
  0
DICTIONARY
  5
D
102
{ACAD_REACTORS
330
C
102
}
330
C
100
AcDbDictionary
281
     1
  0
DICTIONARY
  5
1A
102
{ACAD_REACTORS
330
C
102
}
330
C
100
AcDbDictionary
281
     1
  3
Layout1
350
1E
  3
Layout2
350
26
  3
Model
350
22
  0
DICTIONARY
  5
3B
102
{ACAD_REACTORS
330
C
102
}
330
C
100
AcDbDictionary
281
     1
  3
ByBlock
350
3D
  3
ByLayer
350
3C
  3
Global
350
3E
  0
DICTIONARY
  5
50
102
{ACAD_REACTORS
330
C
102
}
330
C
100
AcDbDictionary
281
     1
  0
DICTIONARY
  5
17
102
{ACAD_REACTORS
330
C
102
}
330
C
100
AcDbDictionary
281
     1
  3
Standard
350
18
  0
DICTIONARY
  5
19
102
{ACAD_REACTORS
330
C
102
}
330
C
100
AcDbDictionary
281
     1
  0
ACDBDICTIONARYWDFLT
  5
E
102
{ACAD_REACTORS
330
C
102
}
330
C
100
AcDbDictionary
281
     1
  3
Normal
350
F
100
AcDbDictionaryWithDefault
340
F
  0
DICTIONARY
  5
4F
102
{ACAD_REACTORS
330
C
102
}
330
C
100
AcDbDictionary
281
     1
  0
DICTIONARY
  5
2A
102
{ACAD_REACTORS
330
C
102
}
330
C
100
AcDbDictionary
281
     1
  3
2dWireframe
350
2F
  3
3D Hidden
350
31
  3
3dWireframe
350
30
  3
Basic
350
32
  3
Brighten
350
36
  3
ColorChange
350
3A
  3
Conceptual
350
34
  3
Dim
350
35
  3
Facepattern
350
39
  3
Flat
350
2B
  3
FlatWithEdges
350
2C
  3
Gouraud
350
2D
  3
GouraudWithEdges
350
2E
  3
Linepattern
350
38
  3
Realistic
350
33
  3
Thicken
350
37
  0
LAYOUT
  5
1E
102
{ACAD_REACTORS
330
1A
102
}
330
1A
100
AcDbPlotSettings
  1

  2
none_device
  4

  6

 40
0.0
 41
0.0
 42
0.0
 43
0.0
 44
0.0
 45
0.0
 46
0.0
 47
0.0
 48
0.0
 49
0.0
140
0.0
141
0.0
142
1.0
143
1.0
 70
   688
 72
     0
 73
     0
 74
     5
  7

 75
    16
 76
     0
 77
     2
 78
   300
147
1.0
148
0.0
149
0.0
100
AcDbLayout
  1
Layout1
 70
     1
 71
     1
 10
0.0
 20
0.0
 11
12.0
 21
9.0
 12
0.0
 22
0.0
 32
0.0
 14
1.000000000000000E+20
 24
1.000000000000000E+20
 34
1.000000000000000E+20
 15
-1.000000000000000E+20
 25
-1.000000000000000E+20
 35
-1.000000000000000E+20
146
0.0
 13
0.0
 23
0.0
 33
0.0
 16
1.0
 26
0.0
 36
0.0
 17
0.0
 27
1.0
 37
0.0
 76
     0
330
1B
  0
LAYOUT
  5
26
102
{ACAD_REACTORS
330
1A
102
}
330
1A
100
AcDbPlotSettings
  1

  2
none_device
  4

  6

 40
0.0
 41
0.0
 42
0.0
 43
0.0
 44
0.0
 45
0.0
 46
0.0
 47
0.0
 48
0.0
 49
0.0
140
0.0
141
0.0
142
1.0
143
1.0
 70
   688
 72
     0
 73
     0
 74
     5
  7

 75
    16
 76
     0
 77
     2
 78
   300
147
1.0
148
0.0
149
0.0
100
AcDbLayout
  1
Layout2
 70
     1
 71
     2
 10
0.0
 20
0.0
 11
0.0
 21
0.0
 12
0.0
 22
0.0
 32
0.0
 14
0.0
 24
0.0
 34
0.0
 15
0.0
 25
0.0
 35
0.0
146
0.0
 13
0.0
 23
0.0
 33
0.0
 16
1.0
 26
0.0
 36
0.0
 17
0.0
 27
1.0
 37
0.0
 76
     0
330
23
  0
LAYOUT
  5
22
102
{ACAD_REACTORS
330
1A
102
}
330
1A
100
AcDbPlotSettings
  1

  2
none_device
  4

  6

 40
0.0
 41
0.0
 42
0.0
 43
0.0
 44
0.0
 45
0.0
 46
0.0
 47
0.0
 48
0.0
 49
0.0
140
0.0
141
0.0
142
1.0
143
1.0
 70
  1712
 72
     0
 73
     0
 74
     0
  7

 75
     0
 76
     0
 77
     2
 78
   300
147
1.0
148
0.0
149
0.0
100
AcDbLayout
  1
Model
 70
     1
 71
     0
 10
0.0
 20
0.0
 11
12.0
 21
9.0
 12
0.0
 22
0.0
 32
0.0
 14
1.000000000000000E+20
 24
1.000000000000000E+20
 34
1.000000000000000E+20
 15
-1.000000000000000E+20
 25
-1.000000000000000E+20
 35
-1.000000000000000E+20
146
0.0
 13
0.0
 23
0.0
 33
0.0
 16
1.0
 26
0.0
 36
0.0
 17
0.0
 27
1.0
 37
0.0
 76
     0
330
1F
331
29
  0
MATERIAL
  5
3D
102
{ACAD_REACTORS
330
3B
102
}
330
3B
100
AcDbMaterial
  1
ByBlock
 72
     1
 94
      127
  0
MATERIAL
  5
3C
102
{ACAD_REACTORS
330
3B
102
}
330
3B
100
AcDbMaterial
  1
ByLayer
 72
     1
 94
      127
  0
MATERIAL
  5
3E
102
{ACAD_REACTORS
330
3B
102
}
330
3B
100
AcDbMaterial
  1
Global
 72
     1
 94
      127
  0
MLINESTYLE
  5
18
102
{ACAD_REACTORS
330
17
102
}
330
17
100
AcDbMlineStyle
  2
Standard
 70
     0
  3

 62
   256
 51
90.0
 52
90.0
 71
     2
 49
0.5
 62
   256
  6
BYLAYER
 49
-0.5
 62
   256
  6
BYLAYER
  0
ACDBPLACEHOLDER
  5
F
102
{ACAD_REACTORS
330
E
102
}
330
E
  0
VISUALSTYLE
  5
2F
102
{ACAD_REACTORS
330
2A
102
}
330
2A
100
AcDbVisualStyle
  2
2dWireframe
 70
     4
177
     2
291
     0
 71
     0
176
     1
 72
     2
176
     1
 73
     0
176
     1
 90
        0
176
     1
 40
-0.6
176
     1
 41
-30.0
176
     1
 62
     5
 63
     7
421
 16777215
176
     1
 74
     1
176
     1
 91
        4
176
     1
 64
     7
176
     1
 65
   257
176
     1
 75
     1
176
     1
175
     1
176
     1
 42
1.0
176
     1
 92
        0
176
     1
 66
   257
176
     1
 43
1.0
176
     1
 76
     1
176
     1
 77
     6
176
     1
 78
     2
176
     1
 67
     7
176
     1
 79
     5
176
     1
170
     0
176
     1
171
     0
176
     1
290
     0
176
     1
 93
        1
176
     1
 44
0.0
176
     1
173
     0
176
     1
  0
VISUALSTYLE
  5
31
102
{ACAD_REACTORS
330
2A
102
}
330
2A
100
AcDbVisualStyle
  2
3D Hidden
 70
     6
177
     2
291
     0
 71
     1
176
     1
 72
     2
176
     1
 73
     2
176
     1
 90
        0
176
     1
 40
-0.6
176
     1
 41
-30.0
176
     1
 62
     5
 63
     7
421
 16777215
176
     1
 74
     2
176
     1
 91
        2
176
     1
 64
     7
176
     1
 65
   257
176
     1
 75
     2
176
     1
175
     1
176
     1
 42
40.0
176
     1
 92
        0
176
     1
 66
   257
176
     1
 43
1.0
176
     1
 76
     1
176
     1
 77
     6
176
     1
 78
     2
176
     1
 67
     7
176
     1
 79
     3
176
     1
170
     0
176
     1
171
     0
176
     1
290
     0
176
     1
 93
        1
176
     1
 44
0.0
176
     1
173
     0
176
     1
  0
VISUALSTYLE
  5
30
102
{ACAD_REACTORS
330
2A
102
}
330
2A
100
AcDbVisualStyle
  2
3dWireframe
 70
     5
177
     2
291
     0
 71
     0
176
     1
 72
     2
176
     1
 73
     0
176
     1
 90
        0
176
     1
 40
-0.6
176
     1
 41
-30.0
176
     1
 62
     5
 63
     7
421
 16777215
176
     1
 74
     1
176
     1
 91
        4
176
     1
 64
     7
176
     1
 65
   257
176
     1
 75
     1
176
     1
175
     1
176
     1
 42
1.0
176
     1
 92
        0
176
     1
 66
   257
176
     1
 43
1.0
176
     1
 76
     1
176
     1
 77
     6
176
     1
 78
     2
176
     1
 67
     7
176
     1
 79
     5
176
     1
170
     0
176
     1
171
     0
176
     1
290
     0
176
     1
 93
        1
176
     1
 44
0.0
176
     1
173
     0
176
     1
  0
VISUALSTYLE
  5
32
102
{ACAD_REACTORS
330
2A
102
}
330
2A
100
AcDbVisualStyle
  2
Basic
 70
     7
177
     2
291
     1
 71
     1
176
     1
 72
     0
176
     1
 73
     1
176
     1
 90
        0
176
     1
 40
-0.6
176
     1
 41
-30.0
176
     1
 62
     5
 63
     7
421
 16777215
176
     1
 74
     0
176
     1
 91
        4
176
     1
 64
     7
176
     1
 65
   257
176
     1
 75
     1
176
     1
175
     1
176
     1
 42
1.0
176
     1
 92
        8
176
     1
 66
     7
176
     1
 43
1.0
176
     1
 76
     1
176
     1
 77
     6
176
     1
 78
     2
176
     1
 67
     7
176
     1
 79
     5
176
     1
170
     0
176
     1
171
     0
176
     1
290
     0
176
     1
 93
        1
176
     1
 44
0.0
176
     1
173
     0
176
     1
  0
VISUALSTYLE
  5
36
102
{ACAD_REACTORS
330
2A
102
}
330
2A
100
AcDbVisualStyle
  2
Brighten
 70
    12
177
     2
291
     1
 71
     2
176
     1
 72
     2
176
     1
 73
     0
176
     1
 90
        0
176
     1
 40
-0.6
176
     1
 41
-30.0
176
     1
 62
     5
 63
     7
421
 16777215
176
     1
 74
     1
176
     1
 91
        4
176
     1
 64
     7
176
     1
 65
   257
176
     1
 75
     1
176
     1
175
     1
176
     1
 42
1.0
176
     1
 92
        8
176
     1
 66
     7
176
     1
 43
1.0
176
     1
 76
     1
176
     1
 77
     6
176
     1
 78
     2
176
     1
 67
     7
176
     1
 79
     5
176
     1
170
     0
176
     1
171
     0
176
     1
290
     0
176
     1
 93
        1
176
     1
 44
50.0
176
     1
173
     0
176
     1
  0
VISUALSTYLE
  5
3A
102
{ACAD_REACTORS
330
2A
102
}
330
2A
100
AcDbVisualStyle
  2
ColorChange
 70
    16
177
     2
291
     1
 71
     2
176
     1
 72
     2
176
     1
 73
     3
176
     1
 90
        0
176
     1
 40
-0.6
176
     1
 41
-30.0
176
     1
 62
     5
 63
     8
421
  8421504
176
     1
 74
     1
176
     1
 91
        4
176
     1
 64
     7
176
     1
 65
   257
176
     1
 75
     1
176
     1
175
     1
176
     1
 42
1.0
176
     1
 92
        8
176
     1
 66
     8
424
  8421504
176
     1
 43
1.0
176
     1
 76
     1
176
     1
 77
     6
176
     1
 78
     2
176
     1
 67
     7
176
     1
 79
     5
176
     1
170
     0
176
     1
171
     0
176
     1
290
     0
176
     1
 93
        1
176
     1
 44
0.0
176
     1
173
     0
176
     1
  0
VISUALSTYLE
  5
34
102
{ACAD_REACTORS
330
2A
102
}
330
2A
100
AcDbVisualStyle
  2
Conceptual
 70
     9
177
     2
291
     0
 71
     3
176
     1
 72
     2
176
     1
 73
     0
176
     1
 90
        0
176
     1
 40
-0.6
176
     1
 41
-30.0
176
     1
 62
     5
 63
     7
421
 16777215
176
     1
 74
     2
176
     1
 91
        2
176
     1
 64
     7
176
     1
 65
   257
176
     1
 75
     1
176
     1
175
     1
176
     1
 42
40.0
176
     1
 92
        8
176
     1
 66
     7
176
     1
 43
1.0
176
     1
 76
     1
176
     1
 77
     6
176
     1
 78
     2
176
     1
 67
     7
176
     1
 79
     3
176
     1
170
     0
176
     1
171
     0
176
     1
290
     0
176
     1
 93
        1
176
     1
 44
0.0
176
     1
173
     0
176
     1
  0
VISUALSTYLE
  5
35
102
{ACAD_REACTORS
330
2A
102
}
330
2A
100
AcDbVisualStyle
  2
Dim
 70
    11
177
     2
291
     1
 71
     2
176
     1
 72
     2
176
     1
 73
     0
176
     1
 90
        0
176
     1
 40
-0.6
176
     1
 41
-30.0
176
     1
 62
     5
 63
     7
421
 16777215
176
     1
 74
     1
176
     1
 91
        4
176
     1
 64
     7
176
     1
 65
   257
176
     1
 75
     1
176
     1
175
     1
176
     1
 42
1.0
176
     1
 92
        8
176
     1
 66
     7
176
     1
 43
1.0
176
     1
 76
     1
176
     1
 77
     6
176
     1
 78
     2
176
     1
 67
     7
176
     1
 79
     5
176
     1
170
     0
176
     1
171
     0
176
     1
290
     0
176
     1
 93
        1
176
     1
 44
-50.0
176
     1
173
     0
176
     1
  0
VISUALSTYLE
  5
39
102
{ACAD_REACTORS
330
2A
102
}
330
2A
100
AcDbVisualStyle
  2
Facepattern
 70
    15
177
     2
291
     1
 71
     2
176
     1
 72
     2
176
     1
 73
     0
176
     1
 90
        0
176
     1
 40
-0.6
176
     1
 41
-30.0
176
     1
 62
     5
 63
     7
421
 16777215
176
     1
 74
     1
176
     1
 91
        4
176
     1
 64
     7
176
     1
 65
   257
176
     1
 75
     1
176
     1
175
     1
176
     1
 42
1.0
176
     1
 92
        8
176
     1
 66
     7
176
     1
 43
1.0
176
     1
 76
     1
176
     1
 77
     6
176
     1
 78
     2
176
     1
 67
     7
176
     1
 79
     5
176
     1
170
     0
176
     1
171
     0
176
     1
290
     0
176
     1
 93
        1
176
     1
 44
0.0
176
     1
173
     0
176
     1
  0
VISUALSTYLE
  5
2B
102
{ACAD_REACTORS
330
2A
102
}
330
2A
100
AcDbVisualStyle
  2
Flat
 70
     0
177
     2
291
     1
 71
     2
176
     1
 72
     1
176
     1
 73
     1
176
     1
 90
        2
176
     1
 40
-0.6
176
     1
 41
30.0
176
     1
 62
     5
 63
     7
421
 16777215
176
     1
 74
     0
176
     1
 91
        4
176
     1
 64
     7
176
     1
 65
   257
176
     1
 75
     1
176
     1
175
     1
176
     1
 42
1.0
176
     1
 92
        8
176
     1
 66
     7
176
     1
 43
1.0
176
     1
 76
     1
176
     1
 77
     6
176
     1
 78
     2
176
     1
 67
     7
176
     1
 79
     5
176
     1
170
     0
176
     1
171
     0
176
     1
290
     0
176
     1
 93
       13
176
     1
 44
0.0
176
     1
173
     0
176
     1
  0
VISUALSTYLE
  5
2C
102
{ACAD_REACTORS
330
2A
102
}
330
2A
100
AcDbVisualStyle
  2
FlatWithEdges
 70
     1
177
     2
291
     1
 71
     2
176
     1
 72
     1
176
     1
 73
     1
176
     1
 90
        2
176
     1
 40
-0.6
176
     1
 41
30.0
176
     1
 62
     5
 63
     7
421
 16777215
176
     1
 74
     1
176
     1
 91
        4
176
     1
 64
     7
176
     1
 65
   257
176
     1
 75
     1
176
     1
175
     1
176
     1
 42
1.0
176
     1
 92
        0
176
     1
 66
   257
176
     1
 43
1.0
176
     1
 76
     1
176
     1
 77
     6
176
     1
 78
     2
176
     1
 67
     7
176
     1
 79
     5
176
     1
170
     0
176
     1
171
     0
176
     1
290
     0
176
     1
 93
       13
176
     1
 44
0.0
176
     1
173
     0
176
     1
  0
VISUALSTYLE
  5
2D
102
{ACAD_REACTORS
330
2A
102
}
330
2A
100
AcDbVisualStyle
  2
Gouraud
 70
     2
177
     2
291
     1
 71
     2
176
     1
 72
     2
176
     1
 73
     1
176
     1
 90
        2
176
     1
 40
-0.6
176
     1
 41
30.0
176
     1
 62
     5
 63
     7
421
 16777215
176
     1
 74
     0
176
     1
 91
        4
176
     1
 64
     7
176
     1
 65
   257
176
     1
 75
     1
176
     1
175
     1
176
     1
 42
1.0
176
     1
 92
        0
176
     1
 66
     7
176
     1
 43
1.0
176
     1
 76
     1
176
     1
 77
     6
176
     1
 78
     2
176
     1
 67
     7
176
     1
 79
     5
176
     1
170
     0
176
     1
171
     0
176
     1
290
     0
176
     1
 93
       13
176
     1
 44
0.0
176
     1
173
     0
176
     1
  0
VISUALSTYLE
  5
2E
102
{ACAD_REACTORS
330
2A
102
}
330
2A
100
AcDbVisualStyle
  2
GouraudWithEdges
 70
     3
177
     2
291
     1
 71
     2
176
     1
 72
     2
176
     1
 73
     1
176
     1
 90
        2
176
     1
 40
-0.6
176
     1
 41
30.0
176
     1
 62
     5
 63
     7
421
 16777215
176
     1
 74
     1
176
     1
 91
        4
176
     1
 64
     7
176
     1
 65
   257
176
     1
 75
     1
176
     1
175
     1
176
     1
 42
1.0
176
     1
 92
        0
176
     1
 66
   257
176
     1
 43
1.0
176
     1
 76
     1
176
     1
 77
     6
176
     1
 78
     2
176
     1
 67
     7
176
     1
 79
     5
176
     1
170
     0
176
     1
171
     0
176
     1
290
     0
176
     1
 93
       13
176
     1
 44
0.0
176
     1
173
     0
176
     1
  0
VISUALSTYLE
  5
38
102
{ACAD_REACTORS
330
2A
102
}
330
2A
100
AcDbVisualStyle
  2
Linepattern
 70
    14
177
     2
291
     1
 71
     2
176
     1
 72
     2
176
     1
 73
     0
176
     1
 90
        0
176
     1
 40
-0.6
176
     1
 41
-30.0
176
     1
 62
     5
 63
     7
421
 16777215
176
     1
 74
     1
176
     1
 91
        4
176
     1
 64
     7
176
     1
 65
   257
176
     1
 75
     7
176
     1
175
     7
176
     1
 42
1.0
176
     1
 92
        8
176
     1
 66
     7
176
     1
 43
1.0
176
     1
 76
     1
176
     1
 77
     6
176
     1
 78
     2
176
     1
 67
     7
176
     1
 79
     5
176
     1
170
     0
176
     1
171
     0
176
     1
290
     0
176
     1
 93
        1
176
     1
 44
0.0
176
     1
173
     0
176
     1
  0
VISUALSTYLE
  5
33
102
{ACAD_REACTORS
330
2A
102
}
330
2A
100
AcDbVisualStyle
  2
Realistic
 70
     8
177
     2
291
     0
 71
     2
176
     1
 72
     2
176
     1
 73
     0
176
     1
 90
        0
176
     1
 40
-0.6
176
     1
 41
-30.0
176
     1
 62
     5
 63
     7
421
 16777215
176
     1
 74
     1
176
     1
 91
        0
176
     1
 64
     7
176
     1
 65
   257
176
     1
 75
     1
176
     1
175
     1
176
     1
 42
1.0
176
     1
 92
        8
176
     1
 66
     8
424
  7895160
176
     1
 43
1.0
176
     1
 76
     1
176
     1
 77
     6
176
     1
 78
     2
176
     1
 67
     7
176
     1
 79
     5
176
     1
170
     0
176
     1
171
     0
176
     1
290
     0
176
     1
 93
       13
176
     1
 44
0.0
176
     1
173
     0
176
     1
  0
VISUALSTYLE
  5
37
102
{ACAD_REACTORS
330
2A
102
}
330
2A
100
AcDbVisualStyle
  2
Thicken
 70
    13
177
     2
291
     1
 71
     2
176
     1
 72
     2
176
     1
 73
     0
176
     1
 90
        0
176
     1
 40
-0.6
176
     1
 41
-30.0
176
     1
 62
     5
 63
     7
421
 16777215
176
     1
 74
     1
176
     1
 91
        4
176
     1
 64
     7
176
     1
 65
   257
176
     1
 75
     1
176
     1
175
     1
176
     1
 42
1.0
176
     1
 92
       12
176
     1
 66
     7
176
     1
 43
1.0
176
     1
 76
     1
176
     1
 77
     6
176
     1
 78
     2
176
     1
 67
     7
176
     1
 79
     5
176
     1
170
     0
176
     1
171
     0
176
     1
290
     0
176
     1
 93
        1
176
     1
 44
0.0
176
     1
173
     0
176
     1
  0
ENDSEC
  0
EOF
