<?xml version="1.0" encoding="utf-8"?>
<!-- Generator: Adobe Illustrator 21.1.0, SVG Export Plug-In . SVG Version: 6.00 Build 0)  -->
<svg version="1.1" id="Layer_1" xmlns="http://www.w3.org/2000/svg" xmlns:xlink="http://www.w3.org/1999/xlink" x="0px" y="0px"
	 viewBox="0 0 4529 5481" style="enable-background:new 0 0 4529 5481;" xml:space="preserve">
<style type="text/css">
	.st0{fill:none;stroke:#000000;stroke-width:2;stroke-miterlimit:10;}
</style>
<path class="st0" d="M2179.3,624.4C2183.6,624.3,2181.4,624.4,2179.3,624.4"/>
<path class="st0" d="M1175.9,3315.6c235.2-60.2,463.7,89.8,489,335.5c11.5,111.5-6,234.7-36.2,342.4
	c-31.4,112.1-63.6,232.8-120.8,334.9c-117.9,210.3-369.6,334.4-599.6,218.5c-216.9-109.3-286.9-406.9-196.6-621.2
	c44.3-105.1,104.7-204.6,162.5-302.9c62.4-106.3,118.1-204.8,226.3-271.2C1124.8,3336.6,1148.3,3323.9,1175.9,3315.6"/>
<path class="st0" d="M1175.9,700.2C1076.4,741,1017,833.3,977.3,928.6c-36.1,86.6-82.3,160.3-127.9,241.6
	c-99.1,176.6-145.1,428.9,26.6,580.2c167.6,147.6,401.1,67.7,515.4-99.3c56.8-82.9,83.9-176,109.2-272.4
	c25-95.7,54.3-191.2,76.9-287.3C1636,843.2,1429.5,609.5,1175.9,700.2"/>
<path class="st0" d="M1039.9,4455.6c199.5,31,315.2-151.2,359-319.8c24.2-93.1,15.6-191.2,59.8-278.5c39-77.1,78.6-154.4,59.7-244
	c-39.7-187.8-271.4-255.8-403.1-113.1c-67.2,72.8-58.8,164.4-95.2,249.3c-34.3,80.2-103,141.2-140.1,221.3
	C799.2,4145.7,805.2,4412.7,1039.9,4455.6"/>
<path class="st0" d="M3380.3,4521.5c-87.2-21.5-158.1-65.9-229.1-118.8c-74.8-55.7-146.7-57.2-232.9-84.4
	c-173.5-54.7-253.5-291.3-90.4-410.8c70.8-51.8,164.7-64.1,246.8-32.3c39.8,15.4,74,40,112.3,57.9c43.8,20.5,89.8,22.7,137.2,25.4
	c160.4,9.2,345.4,59.4,409.2,225c38.8,100.5,12.8,211.7-67.5,283.7C3587.6,4537.7,3478.9,4543.5,3380.3,4521.5"/>
<path class="st0" d="M1319.6,5276.1c26.2,5.8,40.9,23.8,67.7,6.2c20.9-13.8,27.1-53.2,34-73.7c8.7-25.8,14.2-45.1,35.5-64.7
	c15.9-14.6,37.3-18.6,47.2-38.9c13.9-28.5,5.4-50.4,41.9-66.1c23.1-9.9,46.2-3.6,70.1-2c34.4,2.3,43.2-6.8,76-21.6
	c25.8-11.7,55.4-9.3,68.7-34.9c13-25-0.7-52.3,24.1-76c17.3-16.5,44.7-22.3,65.3-34.1c48.6-27.8,67.1-64.6,97.2-108.5
	c31.9-46.6,77-77.6,134.8-68.4c62.4,9.9,84.1,32.5,119.2,80.9c16.5,22.8,30.8,43.1,41.9,68.9c4.3,10.1,5.6,24.4,12.5,32.8
	c9.6,11.7,25.9,12.5,33.1,24.3c13.4,21.9-5,46.3,0,67.5c6.6,28.2,35.9,43.2,62.1,44.3c27.4,1.1,48.4-9.6,77.1-5.3
	c26.4,4,53.6,10.6,79.6,16.5c43.8,10,105.7,24.7,143.3,47.9c26,16,35.1,34.9,67.1,43.3c23.7,6.2,49.3,13.1,73.9,17.2
	c50.1,8.4,102.4,19,149.9,40.8c43.4,19.9,86.6,42,130.4,62.3c24.6,11.4,53,8.5,78.8,15.3c21.9,5.9,44.2,21.9,68.2,19.4
	c51.2-5.3,98.7-60,135.2-91.6c41.2-35.7,83.9-52.3,133-75.5c45.1-21.3,91.5-52.9,137.6-69.4c51-18.2,102.5,10.9,150.7,26.7
	c52.3,17.2,91.8,42.1,147.9,30.7c26.3-5.3,51.9-16.1,78.3-20.8c20.6-3.6,45.6,1.3,64.8-6.7c46.4-19.2,41.7-95.2,83.7-126.8
	c41.6-31.4,81.2-49.1,95.3-105.9c12.6-50.5,21.9-111.3,56.5-149.5c39.9-44.2,71.2-77,63.5-140.8
	c-13.1-107.6-104.4-198.4-104.4-305.7c0-49.7,24.1-96.2,29.5-145.2c2.9-26.8-1.1-46-8.1-72c-10.3-38.2-9.8-43.8,17.5-75.2
	c36.6-42.1,31.1-91.7,25.9-146.8c-5.8-61.4-37.1-95.4-61.8-148.4c-22.3-47.9-59.1-83.1-76.7-132c-20.4-56.7-15.1-112.8-90.4-105.3
	c-38.4,3.8-108.1,45.5-146.3,12.4c-32.5-28.1-3.1-36.5,18.2-43.8c31.4-10.8,42.9-12.8,39.4-43c-4.3-36.8-53.4-102.6-76.2-132.9
	c-52.8-70.4-76-13.8-108.5,34c-71.2,104.7-199.2-40.4-288.1-27.9c-116.1,16.3-232.8,27.8-348.7,0.4c-41.9-9.9-91.2-15.6-134.6-14.7
	c-24.1,0.5-46.7,15.7-70.6,16.1c-27.6,0.4-42.5-17.6-63.8-33.8c-18.6-14.1-37.1-25.7-58.1-36.1c-27.3-13.6-38.6-8.5-66.5-11.5
	c-29.8-3.2-44.4-26.3-70.8-34.7c-19.7-6.3-49.6-4.2-70-0.8c-22.3,3.7-45.8,16-68.8,15.9c-29.7-0.1-43.5-15.1-67.8-28.5
	c-36.1-19.9-103.6-34.5-144.7-31.6c-31.7,2.2-45.6,14.3-79.1,10.9c-22.9-2.3-47.3-0.8-69.6-8.4c-55.6-19-72.3-65.7-112.2-102.5
	c-37.4-34.5-89.4-36.6-136.8-46.8c-27.7-5.9-55-10.1-83.3-5.6c-24.6,3.9-47.8,16.4-73.8,16.6c-98.5,0.8-194.4,8.8-294.8-7.4
	c-52.6-8.5-94.8-35.5-146-46.9c-45.5-10.1-91.6,1.7-136.4-9.9c-57.7-14.9-106.5-8.2-164.6-14.8c-30.1-3.4-54.1-15.3-85.7-9.9
	c-24.2,4.1-42.5,18.8-65.5,24.8c-47.2,12.4-102.3,6.5-151,15.7c-31.1,5.9-56.2-0.7-86.9,0.8c-28,1.3-46.1,15.1-71.2,26.9
	c-54.4,25.4-84.5,45.3-107.1,104.6c-9.7,25.5-18.2,51.7-27.8,77.3c-7.6,20.1-10.1,76-21.2,90.5c-9,11.9-34.5,8.7-51.5,17.9
	c-23.1,12.6-34.1,35-55.1,50.4c-47.2,34.8-94.7,50.1-100.4,116.7c-4.3,50.6-28.2,95.2-33.3,146.6c-5.2,52.9-16.2,106.8-30.2,158.4
	c-15.9,58.6-21.3,98.8-15.1,159.4c5,49.3-10.8,98.1-9.1,147.8c1.7,49.1-8.7,98.8-5,147.4c3.8,50,22.6,100.6,31.1,150.2
	c8.7,50.8,20.2,98.6,37.1,147c17.3,49.5,21.8,102,37.1,152.9c14.9,49.6,16.6,102,30.8,151.5c7.2,25.1,22.2,48.6,28.9,73.6
	c6.7,25.1,2.9,54,20.8,75.7c29.1,35.2,87,43.8,127.5,58.5c23.2,8.4,42.2,21.7,64.2,31.3c22.7,10,49.5,5.8,70.4,16
	c21.7,10.5,36,37.8,52.4,54.4c22.8,23,48.4,28,75,44.6c20.9,13,34.3,33.1,54.1,48.6c24.5,19.2,53.6,28.4,64.5,61
	c17.3,52-6.9,87.9,55.2,118.9c48.1,24,91.1,39.4,142.8,30.5c54.1-9.3,90.7-20.9,137.9-48.6
	C1238.4,5246.2,1270.3,5247.4,1319.6,5276.1"/>
<path class="st0" d="M4081.9,1881.4c-60.5,68.4-114.8,143.4-192.3,194.3c-76.8,50.4-153,90.9-241.5,115.6
	c-44.4,12.4-88.6,26.6-133.7,36.2c-38.9,8.2-75.8,2.4-114.8,6.8c-82.2,9.4-167.9,51.1-251.6,39c-42-6.1-80.6-24.5-123.5-28.8
	c-55.7-5.5-71.5-16.6-117.8-46.7c-37.5-24.4-73.1-34.2-107-65.9c-27.9-26.1-56.3-54.6-92.5-68.1c-42.8-16-88.4-14.1-130.5-35
	c-38.6-19.1-78.8-43.2-110.3-73c-60.4-57.1-132.2-132.4-163.4-209.5c-15.7-38.8-15.1-85.3-36.2-118.7c-29.6-46.8-58-50.3-107.9-35.2
	c-41.1,12.5-79.5,31.4-120.9,42.8c-55.5,15.3-69.3,31.9-107.7,70.5c-29.6,29.6-61.4,56.5-95.7,80.1c-38.6,26.5-51.7,63.7-81,98.6
	c-59.8,71.4-132,95.7-209.7,140.7c-75.1,43.6-137.1,105.1-217.2,140.7c-42.2,18.8-74.4,19.1-119,12c-45.6-7.2-86.2-0.8-131.3,2.4
	c-73.8,5.3-168-21.6-234.5-49.9c-42.4-18-87.6-12.4-126.2-39.9c-38.5-27.3-71.3-62.6-110.5-88.7c-70.8-47.2-103.2-135.5-145.5-208.8
	c-44.1-76.3-75.6-139.3-94.9-226.3c-18.4-83.3-12.8-172.3-17.6-257c-4.5-78.9,16.5-176.5,38.2-252c23.6-82.2,57-158.1,104.9-229.4
	c49.8-74.1,132.4-126.8,174.4-207.5c18.7-35.9,30-67.2,63.1-93.2c35.1-27.6,79.6-30,120-49.5c37.7-18.2,76.2-18.4,112.8-38.9
	c38-21.2,74.9-32.4,115.7-46.9c79.3-28.3,155.4-44.1,239.8-48.2c87.7-4.3,159.5,21.9,243.8,40.1c92,19.9,165.7,32.5,238.3,96.5
	c31.9,28.2,85.9,40.8,112.2,71.8c23.9,28.2,25.8,86.3,33.6,121.5c9,40.5,20.7,80,28.1,120.3c9.5,51.9,34,66.7,72.2,99.8
	c37.1,32.1,35.4,75.5,63.4,112.7c11.6,15.4,27.3,24.1,46.8,29c31.3,7.9,36.6-3.4,63.1-16.5c46.1-22.8,78.6-24.7,116.1-63.4
	c33.2-34.3,52.4-60.6,102.2-73.9c44.3-11.9,78.4-9.2,122.2-27.9c37.5-16,73.3-35.9,109.8-54.4c77.5-39.4,162-72.1,249.3-80
	c44-4,83.2,12.9,126.5,15.3c37.6,2.1,75.7-4,113.3-2.4c86.6,3.8,179.5,0.4,263.3,18c38.7,8.1,76.6,20.7,115.2,28.5
	c46.6,9.4,78.1,0.3,118.7,30.2c36.3,26.6,77.5,40.1,113.3,66.6c35,26,62.9,52.5,102.6,72.2c38.7,19.2,87,31.5,116,66.2
	c26.5,31.7,26.4,75.8,43.3,112.9c36.2,79.8,26.4,178.5,53.5,261.8c26.6,81.9,31,164,37.5,249.6c3.2,41.2-3.8,73.2-11.1,113.3
	C4101.1,1795.8,4102.9,1841,4081.9,1881.4"/>
<path class="st0" d="M1326.3,4750.6c-65.9,36.1-186.4,25.2-258.2,15.7c-80.6-10.6-167.6-30-242.8-60.2
	c-160.4-64.5-236.3-206.9-315.5-350.6c-39.8-72-47-152-50.4-233c-1.5-36.5-13.7-71.1-16.4-107.8c-3.1-42.1,10.7-78.4,18.1-119.3
	c13.3-73.7,54.5-142.3,84-211.6c30.2-70.9,79.8-130.7,131-187.2c107.8-118.9,210-232.2,356.2-306c141.4-71.4,302.8-90,456.3-45.5
	c160.5,46.6,279.9,159,347.5,312.6c32.1,73,30.4,154.6,44.5,232.1c7.2,39.5,15,75.4,27.4,113.4c16.5,50.5-2.8,64.8-15.6,112.1
	c-9.6,35.4-5,76.4-6.4,112.9c-1.5,40.4-16.1,78.5-27.6,116.9c-23.6,79.1-38.1,156.8-88.8,222.2c-48,61.9-95.1,132.1-151.5,186
	c-56.8,54.3-126.3,84.1-193.3,122.8C1388.4,4697.1,1362.9,4730.3,1326.3,4750.6"/>
<path class="st0" d="M3347.8,4841.2c-39.3,4.1-74.8,25.3-114.7,27.1c-39.8,1.9-74.2-13.9-110.4-28.6
	c-39.4-16.1-80.3-25.7-119.1-43.7c-34.5-16-65.8-37.9-101.1-52.1c-72-28.9-136.9-68.6-205.9-104.2
	c-72.9-37.6-117.2-87.2-167.3-151.4c-51.4-65.8-84.4-118.1-90.8-201.8c-5.7-74.4-52.7-135.3-62-210.1
	c-11-88.4,28.3-151.2,69.2-223.9c23.2-41.2,15.9-79.2,53.8-112.9c25.6-22.8,57.8-43.3,85.3-64.2c111.8-85,288.2-160.2,429.8-153.3
	c149.3,7.2,309.3-14,451.5,37.9c73.8,26.9,134.5,34.3,201.2,79.8c63.9,43.6,141.2,71.4,202,119.4c59.3,46.8,88.5,134,112.3,202.6
	c13.4,38.6,16.9,77.6,23.2,117.7c6.2,39.2,21.3,75.6,28.2,114.6c14.3,81.2-12,153.2-30.7,230.9c-20.8,86.6-55.9,137.3-114.5,204.3
	c-52.1,59.5-118.4,113.2-184.7,157c-63.6,41.9-142.5,42-215.7,49C3442.9,4839.8,3390.8,4831.6,3347.8,4841.2"/>
<path class="st0" d="M888.4,732.2c89-102.5,219.1-192,356.6-206c142.5-14.4,267.3,37.3,368.7,131.8
	c108,100.7,150.8,215.4,162.2,361.4c4.7,59.9-15.3,128.9-20.7,189.2c-6,68-18.5,139.7-34.8,205.9
	c-31.7,128.7-93.5,249.7-172.9,355.3c-42.2,56.1-94.9,96.4-156.2,129.8c-61.9,33.7-111.7,76.2-183.9,83.6
	c-142.6,14.7-288.8-8.6-408.3-92.2c-101.2-70.8-195.6-218.5-219.5-339.4c-23.1-116.8-18.2-273.7,32-381.6
	c57.5-123.7,127.6-245.3,208.2-355C841.1,786.2,863,757.7,888.4,732.2"/>
<path class="st0" d="M3864.2,1665.9c44.2-243.3-102.5-448.6-326.2-537c-103.8-41-214.4-62.5-324.6-81.1
	c-117.8-19.9-227.8-34.9-342.4,9c-223.2,85.5-339.5,340.2-202.9,553.3c60.9,95.1,162.1,159.1,262.5,206.9
	c99,47.2,192.8,106.4,299.1,135c227.1,61.2,493.2,32.1,603.8-203.7C3846.1,1721.7,3856.3,1694.5,3864.2,1665.9"/>
<path class="st0" d="M652.4,2384.2c-19.9-13.7-40.9-24.2-58.5-40.5c-27-25-41.4-29.1-73.2-46c-48.5-25.8-90.9-43.9-145.5-58.9
	c-23.1-6.3-75.8-9.5-90-30.5c-12.5-18.5,3.1-45.8,3-67.9c-0.3-52-29.1-102.7-40.7-152.4c-11.8-50.5-7.1-100.4-23.4-149.9
	c-8.1-24.6-9.7-42.8-11.9-68.7c-2.9-32.9-16.8-54.2-27.8-84.7c-17.3-48-21-97.5-29.1-147.4c-8.1-50-24.5-97-29.6-147.5
	c-10.7-106.9-5.4-213.2,10.9-319c8.5-55.5,28.5-105.4,31.9-160.8c3.7-59.8,17.5-120,32.1-177.8c13.7-54.1,5.3-105.6,32.4-156.7
	c24.1-45.4,50.1-95.3,79-136.9c15.8-22.7,39.9-39.2,55.1-62.6c7.7-12,10.9-25.8,20.2-37.4c8.8-10.9,28.9-19.2,35.3-28.9
	c16.3-24.8,11-55.3,35-78.5c19.9-19.2,47.2-34.1,67.5-52.2c48.4-43,80.2-54.9,144.9-45.4c63.9,9.5,112.7,10.2,177-1.8
	c52.2-9.8,96.4-38.3,150.5-41.3c31.5-1.8,53,10.3,83,14.2c31.8,4.2,63.4-4.9,95.3,0.8c28.1,5,45.7,21.7,71.8,30.1
	c31.5,10.2,67.1,1.9,99.4,2.4c60,0.9,100.7,33.5,156.4,49.2c51.2,14.4,92.8,9.2,142.4,0.1c23.1-4.2,51.1,5.5,72.3-1.3
	c24.5-7.9,40.8-41.7,64.9-47.6c14.5-3.5,60.9,12.6,76.1,18c33,11.7,54.8,18.4,90.9,20.9c28.6,1.9,56.2,7,84.6,10
	c21.5,2.3,61.5-6,78.9,4.7c44.1,27.1,44.7,98,99.5,120.5c37,15.2,48.1-4.2,79.8-15c23.6-8.1,47.2-1.7,70.6,3.2
	c47.8,10.1,104.8,25.7,149.9,44.8c62.8,26.6,96.7,18.6,161.5,1c42.4-11.6,105.3-22.2,148.4-17c14.6,1.7,42.8,16.7,59.6,26.5
	c35.8,20.8,19.5,29.1,33.2,66.1c23,62.2,78.5,47,131.3,39.4c58.8-8.5,111.5,7.6,169.4,18.3c46.6,8.6,80.9-0.5,126.2-2.7
	c51.6-2.5,84.2,19.8,139.4,3.6c27-7.9,55.5-16.1,80.9-27.7c10.2-4.7,18.5-11,28.3-16c26.4-13.5,23.2-18.4,40.2,5
	c26.9,36.9,59.6,92.5,117.6,81.7c49.3-9.2,63.2-73,120.1-78.5c35.6-3.4,127.8,31.2,145.1,67.1c5.6,11.5-4.1,24.3,0.2,34.8
	c5.4,13.1,22.3,18.1,34.2,29c20.1,18.5,28.2,45.4,46.1,65.6c20.7,23.4,46,24.1,69.7,42c25.8,19.5,28.1,43.5,36.8,71.9
	c15.5,50.3,53.7,82.1,77.9,128.2c12.3,23.5,17.9,47.6,28.5,71.3c12.6,28.3,36.2,47.9,46.9,76.4c19.7,52.2,19.8,102.7,53.2,146.5
	c43,56.4-3.3,93.9-38.7,144.5c-55.6,79.3-105.3,210.9-62.6,304.7c21.9,48.2,53.8,91.5,74.6,140.2c18.4,43,59.2,102.9,53.4,149.8
	c-7.3,59-74.2,86.2-103.2,135.5c-27.3,46.4-17.9,99.7-44.5,146.8c-28.4,50.2-38.6,98.5-91.5,130.1c-10.3,6.1-32,11.2-36.1,21.3
	c-2.2,5.4,6.9,36.5,7.2,45.9c0.7,21.7,4.3,52.2-13.8,66.1c-32.7,25-102-42-141.9-43.1c-53.2-1.4-103.6,22.7-158.4,9.8
	c-51.1-12.1-96.1-43-148.7-51.1c-68.6-10.6-72.7,39.3-127.9,67.8c-25.4,13.2-54,11.1-76.3,28.1c-21.6,16.5-37.2,38.9-58.4,56.3
	c-20.2,16.6-30.8,34.5-53.6,46.8c-26.3,14.2-55.6,11.9-82.2,21.7c-21.3,7.9-36.8,23.6-60.5,28.6c-23.4,4.9-47.1,1-70.6-0.1
	c-50.5-2.4-99.3,9.9-148.9-9.5c-56.6-22.2-82.3-81.8-131.9-111c-53.8-31.7-104.8-18.7-159.9-38.5c-51-18.3-101-30.5-153-40.6
	c-49.5-9.6-81.1-53.3-130.5-61.4c-40.3-6.6-51.1,12.9-85,24.2c-21.3,7.1-52.1,1.6-74.8-1.3c-55.4-7.1-75.5-67.3-79.4-119.2
	c-5.9-77.7-60.9-271.6-173.4-237c-49.1,15.1-69.7,81.6-93.5,120.6c-13,21.3-28.1,40.6-48.3,55.8c-20.6,15.5-52,22.8-66.9,44.2
	c-27.9,40,20.3,100.3-44.2,130.1c-27.4,12.6-54.6-0.7-78.9,21.7c-23.2,21.3-24.7,48.7-52.8,67.6c-26.4,17.9-43.9,17.8-58.8,49.1
	c-14.2,29.9-11.9,49.5-42,65c-22.3,11.5-45.7,15.8-67.6,30c-24.4,15.8-47.8,31.2-75.6,41.7c-57.6,21.8-100.2-16.1-157.3-23.6
	c-58.6-7.6-90.2,35.3-146.9,34c-40.2-0.9-38.4,11.6-72.8,24.1c-30.2,11.1-51-6.2-77.4-16.7c-27.6-10.8-45-1.5-71.6-5.6
	c-39-5.9-46.4-34.1-57.8-64.9c-6.5-17.6-16.1-53.6-31.7-64.9c-27.7-20-7.6,3.8-38.5,1c-17.2-1.6-18-6.2-31.1-20.4
	c-15.6-16.9-36.1-42.9-40.4-66.3C676.8,2419.2,682.7,2414,652.4,2384.2"/>
<path class="st0" d="M3903.4,2348.3c100.7-4.6,143.5-108.9,200.9-172.7c29-32.2,69.6-74.1,86.3-114.6c20.3-49.5,28.1-76.7,65.7-116
	c32.4-33.9,64-79.6,57.2-128.8c-6.2-44.5-35.7-86.8-48.9-130.3c-12.9-42.2-31.6-84.2-36.8-128.6c-5.8-50.4,20.3-100.4,13.8-148.7
	c-6.5-48.1-54.6-80.3-50-131c4.8-53.4,61.2-67.1,71.8-115.7c10.2-46.6-6.5-99.1-22.1-142.5c-7.4-20.5-15.6-45-32.5-60.2
	c-20.5-18.6-41.1-14.6-64.8-27.2c-46.1-24.6-71.6-67.5-122.7-89.3c-40.7-17.3-84.1-25.1-123.4-46.3c-47.2-25.4-57.6-71.8-94.2-106.4
	c-33.1-31.2-80.1-38.9-120-59.6c-42.3-21.9-80-45.7-129.3-45.4c-40.1,0.2-78.9,1.4-119.3-0.1c-47.5-1.7-92.8,11.5-140.9,4.1
	c-50.8-7.9-99.4-15-150.9-19.8c-48.1-4.5-94.8-0.3-142.8-2c-54.7-1.9-88.3-16.3-136.6-35.1c-25.1-9.8-43.8-1.7-68.3,1.1
	c-34.1,3.9-46.1-4.9-75.4-19.7c-46.4-23.5-93.7-20.1-143.7-15.2c-24.9,2.4-50.4,3.2-71.8-12.7c-23.9-17.7-32.2-47.9-69.2-43.7
	c-19.3,2.2-33.9,19.5-52.9,24.2c-37.4,9.1-30.2-8-63.1-20.6c-39.1-14.9-72.5,14.9-115.2-3.4c-34.7-15-82.6-48.2-105.7-76.6
	c-30.5-37.5-62.7-45.7-105.6-70.3c-15.1-8.7-49.8-31.5-65.2-32.5c-21.8-1.3-42.9,24-63.2,28.2c-23.3,4.8-47.8-10.3-71.4-14.3
	c-24.3-4.1-48.8-0.9-73.4-1.2c-43-0.4-87.4-5-129.8-11.4c-47-7.1-98.7-11.8-143.8-25.6c-43.8-13.5-84.2-31.7-130.6-37.3
	c-43.6-5.2-89-13.6-132.5-15.4c-43.7-1.7-86.9,8.8-130,8.9c-45.8,0-83.4,10.2-128.8,15.6c-47.9,5.7-99.1-0.4-144.2,18.3
	c-43.6,18.1-69.8,55.7-109.6,76.3c-54.7,28.3-70.1,39.8-102.3,93.6c-22.9,38.3-31.5,78.6-51.4,118c-26.1,51.4-62.8,65.5-112.3,88.8
	c-53.1,25-61.3,45.7-84.3,97.2c-9.7,21.7-34.3,38.5-42.4,59.1c-8.9,22.9,1.7,51.5-2.1,76c-6.7,43.5-31.2,87.3-46.7,128.4
	c-20.1,53.3-16.5,83.9-9.7,138.5c5.9,47.7-6.7,91-11,138.1c-4.1,45.4,2.9,90.4,0,135.9c-6.1,93.8,22.8,187.8,41.4,279.4
	c8.3,40.6,21.5,79.7,29,120.6c9.8,53.4,35.1,90.4,57.1,138.7c21,46,21.2,95.6,44.9,140.4c24.8,46.9,52.9,75.4,97.2,105.1
	c40,26.9,78.5,28.2,123.1,40.7c46.6,13.1,86,48.5,127.9,71.2c38.5,20.8,59.5,53.7,93.9,78.3c38.6,27.6,84.4,55.5,126.3,78.2
	c51.1,27.7,81.3,46.3,142.7,36.8c18.8-2.9,37.2-9.5,56.1-12c31.2-4.1,45.5,5.9,75.1,11.4c59.6,11.1,93.2-7.3,123.5-56
	c24.7-39.6,50.9-74.6,84.7-107.4c34.2-33.2,81.1-35.9,126.8-45.9c46-10.1,102.5,16.5,136.1-25.1c16.1-20,18.1-39.4,39.5-58
	c17.1-14.8,35.9-23.5,55.7-34.4c45.8-25.1,67.5-46.1,99.6-84.7c56.6-68.1,151.9-116.7,239.6-94.2c95.1,24.4,160.3,111.1,219.5,183.9
	c63.2,77.8,160.1,118.3,252.6,152.3c84.1,31,161.9,80,246.7,108.9c86.7,29.6,182.9,10,267.8,49.4c49.3,22.8,82.8,54.7,138.1,21.9
	c22.6-13.4,30-34.9,47.7-51.8c19.3-18.4,45.4-24.1,70.9-30.5c46.3-11.6,93.9-22,138.4-40c43.4-17.5,74.9-49.7,122.3-58.1
	C3724.1,2281.7,3812,2344.9,3903.4,2348.3"/>
<path class="st0" d="M2576.6,3389.9c14.2-12.5,17.3-29.1,35.9-39.3c16-8.8,45.6-12.9,64-19c43.1-14.3,80.8-10.6,125.5-7.7
	c46.8,3,86-4.5,131.7-12c44.6-7.3,83.5,15.9,128.3,15.2c96.2-1.5,191.2,13.1,286.5,12.3c46.3-0.4,82.4,5,125.9,19.1
	c47.9,15.6,98.3,6.9,147,19.3c43,11,87.4,27.2,124.7,51.8c40,26.4,58.9,71.1,95.3,101.4c38.2,31.7,89.5,52.1,135.2,69.7
	c43.9,16.8,73,39.7,110.6,66.4c41.9,29.7,74.9,39.4,80.5,95.1c4.5,45.4-14.7,91.3-28,134.3c-29.8,96.8,31.7,169.5,37.9,264.4
	c5.6,85.1,19.4,168.4,23,253.5c1.9,44.4,21.6,93.7,7.3,136c-13,38.6-42,81.2-61.1,118.4c-17.3,33.6-51.2,75.6-79.2,100.3
	c-33.3,29.4-75.8,38.5-108.8,63.7c-34.3,26.2-49.4,63.1-96.2,68.1c-26.4,2.8-39.2-1.2-65.1,10.3c-26.1,11.7-40.4,19.9-69.5,21.1
	c-47.5,2-90.8,5.1-137.5,16.4c-45.3,10.9-80.6,35.6-124,51.4c-85.6,31.3-174.9,24.4-260.2,54.2c-89.5,31.3-170.6-21.9-262.3-25
	c-97.4-3.2-166.3-42.9-251.3-85.9c-80.6-40.7-163.8-100.2-228.2-163.6c-67.8-66.8-149-110.7-221.8-170.1
	c-36.4-29.7-71.5-64.4-119.1-74.8c-41.4-9.1-78.1,7.6-114.9,26.4c-43.6,22.4-75.5,51.2-115.8,78c-45.5,30.3-81.4,48.7-117.6,91.6
	c-16.5,19.6-25.7,36.1-51.7,46.3c-18.2,7.1-38.1,5.4-57,11.7c-12.6,4.2-19.7,13.5-32,16.8c-12.7,3.3-26.8,0.2-40.4,3.9
	c-27.2,7.3-35.3,22-59.2,35.7c-39.2,22.6-81.7,41.1-122.8,59.7c-42.9,19.4-77.2,54.1-119.7,74.6c-40.7,19.7-90.4,24.3-133.6,41
	c-44.1,17.1-75.2,31-123.2,23.4c-82.7-13-152-85.1-223.5-125.4c-72.4-40.8-152.2-81.6-232-104.6c-47.6-13.7-82.4-32.7-112.5-73.8
	c-29.5-40.3-26.2-89.4-45.9-133.5c-18.5-41.3-59.9-67.7-77-107.8c-17.5-41.1-24.8-97.3-36.3-141.2c-21.1-80.8-38.7-175.9-40.4-258.8
	c-0.9-44.4-11-94.9-4.4-138.6c6.8-45.2,20.9-87.4,23.9-134.1c2.7-43.4-6.5-85.6,1.8-128.6c8.5-44.5,32.3-84,49.4-125.4
	c36.5-88.7,66.8-169.6,145.7-231.5c13.6-10.7,32.9-16.1,45.5-27.2c18.2-16.1,27.1-47.4,38.5-68.4c22-40.4,46-81,77.6-114.8
	c33.6-36,80.3-30.9,119.7-56c40.6-25.8,73.8-40,119.7-54.9c42.7-13.8,92.3-8.9,130.7-28.8c43.7-22.7,74-27.7,123.9-36.1
	c167.7-28.2,349.9,27.5,515.8,58.9c42.2,8,87.1,11.5,128.6,21.8c50.1,12.5,74.5,42.6,114.3,69.8c37.8,25.8,89.9,28.6,132.8,44
	c48.2,17.3,72.4,40.5,96.3,86.3c3.9,7.5,28,42.7,25,49.9c-7.9,18.8-64.2,7-75.4,24.8c-7.6,12.1,3.7,27,16.9,39.7
	c25.8,24.8,29.8,18.2,28.1,56.7c-2.2,49.4,11.2,89.7,67.7,95.7c20.5,2.2,42.1-4.4,60.8-11.1c25-8.8,48.4-10,74.1-16.7
	c42.5-11.1,79.6-28.5,124.7-35.9C2500.8,3430.4,2530.6,3412.8,2576.6,3389.9"/>
</svg>
